<svg fill="none" height="431" viewBox="0 0 567 431" width="567" xmlns="http://www.w3.org/2000/svg"><path d="m141.651 310.583c-3.222-4.812-6.205-9.798-8.932-14.941" stroke="#1f252a" stroke-linecap="round" stroke-linejoin="round" stroke-width="4.252"/><path d="m397.102 342.277c-30.165 27.272-70.154 43.88-114.022 43.88-42.459 0-81.283-15.558-111.084-41.283" stroke="#1f252a" stroke-linecap="round" stroke-linejoin="round" stroke-width="4.252"/><path d="m283.078 46c93.932 0 170.078 76.147 170.078 170.079 0 36.897-11.748 71.049-31.709 98.921" stroke="#1f252a" stroke-linecap="round" stroke-linejoin="round" stroke-width="4.252"/><path d="m113 357.813h340.157" stroke="#1f252a" stroke-linecap="round" stroke-linejoin="round" stroke-width="4.252"/><path d="m132.682 136.585c25.455-48.0586 73.27-82.4536 129.584-89.3246" stroke="#1f252a" stroke-linecap="round" stroke-linejoin="round" stroke-width="4.252"/><path d="m276.734 173.562c0-15.655 12.691-28.347 28.346-28.347s28.347 12.692 28.347 28.347c0 13.308-9.171 24.474-21.538 27.523" stroke="#1f252a" stroke-linecap="round" stroke-miterlimit="10" stroke-width="4.252"/><path d="m366.426 179.776c7.391-3.53 15.666-5.506 24.402-5.506 8.846 0 17.219 2.026 24.68 5.639" stroke="#1f252a" stroke-linecap="round" stroke-miterlimit="10" stroke-width="4.252"/><path d="m443 208.743c2.91 6.823 4.521 14.334 4.521 22.221 0 31.31-25.383 56.692-56.694 56.692-14.883 0-28.427-5.735-38.542-15.116" stroke="#1f252a" stroke-linecap="round" stroke-miterlimit="10" stroke-width="4.252"/><path d="m339.733 198.864c-3.588-7.439-5.598-15.781-5.598-24.593 0-31.311 25.382-56.693 56.693-56.693 31.31 0 56.693 25.382 56.693 56.693" stroke="#1f252a" stroke-linecap="round" stroke-miterlimit="10" stroke-width="4.252"/><path d="m364.977 180.495c7.751-3.979 16.539-6.224 25.852-6.224 8.845 0 17.218 2.026 24.679 5.639" stroke="#1f252a" stroke-linecap="round" stroke-miterlimit="10" stroke-width="4.252"/><path d="m443.961 211.142c2.303 6.17 3.562 12.848 3.562 19.822 0 31.31-25.383 56.692-56.694 56.692-31.31 0-56.692-25.382-56.692-56.692 0-7.887 1.61-15.398 4.519-22.221" stroke="#1f252a" stroke-linecap="round" stroke-miterlimit="10" stroke-width="4.252"/><g fill="#1f252a"><path d="m362.492 179.927c-.47-2.046-.718-4.177-.718-6.365 0-15.656 12.692-28.347 28.347-28.347s28.346 12.691 28.346 28.347c0 1.781-.164 3.524-.479 5.214 8.978 4.682 16.596 11.612 22.108 20.044 3.843-7.589 6.009-16.171 6.009-25.258 0-30.92-25.065-55.985-55.984-55.985-30.92 0-55.984 25.065-55.984 55.985 0 9.761 2.498 18.94 6.89 26.93h.001c5.221-8.593 12.635-15.708 21.465-20.565"/><path d="m216.127 253.074v-93.556c0-.89.722-1.612 1.613-1.612h29.034c.892 0 1.614.722 1.614 1.612v93.665z"/><path d="m153.109 286.948h61.515c.962 0 1.885-.383 2.566-1.063l30.135-30.135c.31-.311.558-.671.737-1.063h-94.843z"/><path d="m151.606 286.622c-.392-.179-.752-.427-1.062-.737l-30.135-30.135c-.681-.681-1.063-1.604-1.063-2.566v-93.775c0-.963.382-1.886 1.063-2.566l29.132-29.133c.762-.762 2.065-.222 2.065.856z"/><path d="m216.127 118.081v27.727c0 .891.722 1.613 1.613 1.613h27.727c1.077 0 1.618-1.303.855-2.066l-28.13-28.129c-.762-.763-2.065-.223-2.065.855z"/><path d="m151.606 286.622c-.392-.179-.752-.427-1.062-.737l-30.135-30.135c-.681-.681-1.063-1.604-1.063-2.566v-93.775c0-.963.382-1.886 1.063-2.566l29.132-29.133c.762-.762 2.065-.222 2.065.856z"/><path d="m153.109 286.948h61.515c.962 0 1.885-.383 2.566-1.063l30.135-30.135c.31-.311.558-.671.737-1.063h-94.843z"/><path d="m216.127 253.074v-93.556c0-.89.722-1.612 1.613-1.612h29.034c.892 0 1.614.722 1.614 1.612v93.665z"/><path d="m181.131 343.102v-16.416c0-5.994-2.269-7.614-5.617-7.614-3.996 0-6.049 2.16-6.049 9.288v14.742h-7.181v-16.416c0-5.887-2.052-7.614-5.833-7.614-4.158 0-5.831 2.214-5.831 9.288v14.742h-7.182v-29.916h6.589v2.808c2.105-2.538 4.265-3.51 7.775-3.51 4.104 0 6.749 1.403 8.802 4.643 2.429-3.24 5.4-4.643 9.611-4.643 7.886 0 12.097 4.374 12.097 13.338v17.28z"/><path d="m208.776 319.071c-4.266 0-7.182 2.105-8.316 5.94h16.578c-.918-3.835-3.834-5.94-8.262-5.94zm15.066 12.258h-23.166c.864 3.618 3.996 5.887 8.262 5.887 2.97 0 4.752-.811 6.588-2.971h7.831c-1.998 6.156-8.209 9.558-14.257 9.558-9.126 0-16.2-6.804-16.2-15.552 0-8.802 6.966-15.768 15.768-15.768 8.91 0 15.444 6.804 15.444 16.092 0 1.08-.054 1.728-.27 2.754z"/><path d="m228.756 303.195h7.182v39.906h-7.182z"/><path d="m257.161 318.693c-5.022 0-8.694 3.834-8.694 9.234 0 5.454 3.672 9.288 8.856 9.288 5.13 0 8.694-3.78 8.694-9.234 0-5.347-3.726-9.288-8.856-9.288zm1.512 25.11c-4.428 0-7.29-1.242-10.368-4.536v3.834h-6.588v-39.906h7.182v12.744c2.754-2.754 5.4-3.834 9.288-3.834 8.586 0 15.066 6.804 15.066 15.822s-6.156 15.876-14.58 15.876z"/><path d="m291.935 319.071c-4.697 0-8.64 4.05-8.64 8.964 0 5.13 3.834 9.181 8.695 9.181 4.752 0 8.639-4.051 8.639-9.073 0-4.968-3.887-9.072-8.694-9.072zm0 24.732c-8.748 0-15.876-7.02-15.876-15.66 0-8.586 7.128-15.66 15.822-15.66 9.019 0 15.985 6.966 15.985 15.876 0 8.424-7.237 15.444-15.931 15.444z"/><path d="m331.896 343.101v-2.862c-2.7 2.646-4.969 3.564-8.587 3.564-6.966 0-11.393-4.05-11.393-14.58v-16.038h7.181v14.634c0 7.938 2.214 9.396 5.67 9.396 2.431 0 4.374-1.026 5.454-2.754.811-1.35 1.135-3.186 1.135-7.182v-14.094h7.182v29.916z"/><path d="m351.496 326.47v16.632h-7.182v-29.916h6.588v2.916c1.89-2.755 3.403-3.618 6.481-3.618h.54v6.912c-4.321.107-6.427 2.429-6.427 7.074z"/><path d="m380.981 343.102v-14.634c0-7.992-2.16-9.396-5.725-9.396-2.267 0-4.157.971-5.292 2.754-.918 1.458-1.187 3.186-1.187 7.182v14.094h-7.183v-29.916h6.643v2.861c2.645-2.538 5.021-3.563 8.424-3.563 4.158 0 7.398 1.512 9.341 4.319 1.621 2.322 2.161 4.914 2.161 10.261v16.038z"/><path d="m408.573 319.071c-4.266 0-7.182 2.105-8.315 5.94h16.578c-.918-3.835-3.834-5.94-8.263-5.94zm15.066 12.258h-23.166c.865 3.618 3.996 5.887 8.262 5.887 2.971 0 4.752-.811 6.589-2.971h7.83c-1.998 6.156-8.209 9.558-14.257 9.558-9.126 0-16.2-6.804-16.2-15.552 0-8.802 6.966-15.768 15.769-15.768 8.91 0 15.444 6.804 15.444 16.092 0 1.08-.055 1.728-.271 2.754z"/><path d="m305.081 147.341v52.441h-.038c-14.482 0-26.221-11.739-26.221-26.22 0-14.482 11.739-26.221 26.221-26.221z"/><path d="m388.51 233.045-26.739 46.314-.001.001c8.34 4.826 18.023 7.587 28.351 7.587l39.554-68.509v.001c-10.361 9.119-23.957 14.651-38.846 14.651-.776 0-1.549-.016-2.319-.045z"/><path d="m344.193 202.617c4.774-7.837 11.469-14.377 19.43-18.965 4.066 10.673 14.396 18.256 26.498 18.256 12.348 0 22.852-7.896 26.739-18.915h-.002c8.48 4.61 15.6 11.403 20.606 19.624-9.576 15.722-26.879 26.221-46.635 26.221-19.755 0-37.059-10.498-46.635-26.221z"/><path d="m305.08 204.034c-12.91 0-23.945-8.028-28.385-19.365h.003l.022 98.244c0 1.344.942 2.5 2.256 2.78 3.841.822 7.827 1.254 11.913 1.254 4.094 0 8.087-.434 11.935-1.258 1.314-.282 2.255-1.438 2.255-2.781z"/></g></svg>