<svg fill="none" height="72" viewBox="0 0 306 72" width="306" xmlns="http://www.w3.org/2000/svg"><path d="m53.5502 59.0662 11.4941 11.8088 11.5048-11.8088z" fill="#3a7dff"/><path d="m65.0441 47.2462-11.4941-11.8089-11.5048 11.8089z" fill="#fcc300"/><path d="m42.054 47.2423 11.4982-11.8132-11.4982-11.8132-11.4983 11.8132z" fill="#cb9ef8"/><path d="m16.261 50.1187 16.2611-16.7062h-32.5221z" fill="#39a453"/><path d="m32.5221 0-32.5221 33.4125h32.5221z" fill="#3a7dff"/><path d="m65.0443 0-32.5222 33.4125v-33.4125z" fill="#fcc300"/><path d="m42.0452 47.2463 11.5048 11.8198h22.9989l-11.5048-11.8198z" fill="#f77"/><path d="m98.2968 56.9624c6.2082-4.864 11.2962-9.056 15.2642-12.576s7.296-7.136 9.984-10.848c2.688-3.776 4.032-7.36 4.032-10.752 0-2.048-.48-3.648-1.44-4.8-.896-1.152-2.24-1.728-4.032-1.728-1.856 0-3.296.8-4.32 2.4-1.024 1.536-1.504 3.808-1.44 6.816h-18.2402c.192-5.696 1.44-10.4 3.7442-14.112 2.304-3.77598 5.312-6.52798 9.024-8.25598 3.712-1.792 7.84-2.688001 12.384-2.688001 7.872 0 13.728 1.952001 17.568 5.856001 3.84 3.90398 5.76 8.95998 5.76 15.16798 0 6.656-2.24 12.896-6.72 18.72-4.416 5.824-9.952 11.04-16.608 15.648h24v15.264h-48.9602zm50.4322-21.024c0-11.008 2.24-19.68 6.72-26.01598 4.48-6.336 11.52-9.504001 21.12-9.504001s16.64 3.168001 21.12 9.504001c4.544 6.33598 6.816 15.00798 6.816 26.01598 0 11.136-2.24 19.872-6.72 26.208s-11.552 9.504-21.216 9.504-16.736-3.168-21.216-9.504c-4.416-6.336-6.624-15.072-6.624-26.208zm37.152 0c0-5.76-.608-10.144-1.824-13.152-1.216-3.072-3.712-4.608-7.488-4.608s-6.272 1.536-7.488 4.608c-1.216 3.008-1.824 7.392-1.824 13.152 0 5.888.576 10.368 1.728 13.44 1.216 3.008 3.744 4.512 7.584 4.512s6.336-1.504 7.488-4.512c1.216-3.072 1.824-7.552 1.824-13.44zm20.566 21.024c6.208-4.864 11.296-9.056 15.264-12.576s7.296-7.136 9.984-10.848c2.688-3.776 4.032-7.36 4.032-10.752 0-2.048-.48-3.648-1.44-4.8-.896-1.152-2.24-1.728-4.032-1.728-1.856 0-3.296.8-4.32 2.4-1.024 1.536-1.504 3.808-1.44 6.816h-18.24c.192-5.696 1.44-10.4 3.744-14.112 2.304-3.77598 5.312-6.52798 9.024-8.25598 3.712-1.792 7.84-2.688001 12.384-2.688001 7.872 0 13.728 1.952001 17.568 5.856001 3.84 3.90398 5.76 8.95998 5.76 15.16798 0 6.656-2.24 12.896-6.72 18.72-4.416 5.824-9.952 11.04-16.608 15.648h24v15.264h-48.96zm47.936 0c6.208-4.864 11.296-9.056 15.264-12.576s7.296-7.136 9.984-10.848c2.688-3.776 4.032-7.36 4.032-10.752 0-2.048-.48-3.648-1.44-4.8-.896-1.152-2.24-1.728-4.032-1.728-1.856 0-3.296.8-4.32 2.4-1.024 1.536-1.504 3.808-1.44 6.816h-18.24c.192-5.696 1.44-10.4 3.744-14.112 2.304-3.77598 5.312-6.52798 9.024-8.25598 3.712-1.792 7.84-2.688001 12.384-2.688001 7.872 0 13.728 1.952001 17.568 5.856001 3.84 3.90398 5.76 8.95998 5.76 15.16798 0 6.656-2.24 12.896-6.72 18.72-4.416 5.824-9.952 11.04-16.608 15.648h24v15.264h-48.96z" fill="#1f252a"/></svg>