<svg width="977" height="500" viewBox="0 0 977 500" fill="none" xmlns="http://www.w3.org/2000/svg">
<path fill-rule="evenodd" clip-rule="evenodd" d="M284.889 1.8712C285.286 1.13419 285.752 0.687385 286.528 0.300246C287.262 -0.0657036 288.775 -0.104027 289.568 0.223299C290.402 0.567757 373.643 83.8225 374.078 84.7478C374.326 85.2741 374.381 85.6313 374.336 86.4188C374.244 88.0484 373.266 89.3213 371.802 89.7154C371.431 89.8153 357.158 89.8534 329.632 89.8278L288.023 89.7892L287.271 89.4174C286.343 88.9581 285.396 88.0042 284.924 87.0528L284.566 86.3326V44.4025V2.47235L284.889 1.8712Z" fill="black"/>
<path fill-rule="evenodd" clip-rule="evenodd" d="M90.0192 30.9753C89.6053 31.0983 80.1841 40.4399 45.8146 74.8062C7.67911 112.938 2.05882 118.614 1.5277 119.533C0.804823 120.783 0.352309 122.077 0.150473 123.473C0.0550409 124.133 0.0021398 173.218 0.000186066 262.849C-0.0025191 386.238 0.0219777 401.349 0.226669 402.522C0.492076 404.045 1.19016 405.663 2.16147 407.008C2.52922 407.517 23.0732 428.157 47.8148 452.874C92.0575 497.073 93.373 498.363 94.7158 498.866C94.9665 498.96 94.9773 487.888 94.9412 266.116L94.9035 33.2679L94.5799 32.6667C94.1643 31.8943 93.716 31.4828 92.8746 31.1014C92.1331 30.7652 90.9077 30.7111 90.0192 30.9753ZM288.208 120.672C286.826 121 285.575 122.011 284.92 123.33L284.566 124.041L284.528 262.173L284.49 400.304L294.372 400.399C299.807 400.451 321.178 400.537 341.863 400.59L379.473 400.686L379.435 262.439L379.397 124.192L379.051 123.426C378.617 122.469 377.524 121.381 376.542 120.93L375.79 120.585L332.282 120.562C307.241 120.548 288.534 120.595 288.208 120.672ZM99.5829 413.156C99.531 417.641 99.4453 439.012 99.3926 460.648L99.2969 499.987L190.579 499.948C277.764 499.911 281.901 499.897 282.762 499.641C284.061 499.254 285.449 498.576 286.504 497.815C287.008 497.45 307.645 476.909 332.362 452.167C376.56 407.926 377.851 406.609 378.354 405.266C378.448 405.016 371.752 405.003 239.065 405.003H99.6774L99.5829 413.156Z" fill="black"/>
<path d="M962.509 6L504.104 494H367.818L807.826 6H962.509ZM699.879 332.491L759.538 268.121L962.901 494H822.275L699.879 332.491ZM580.338 219.151L368.74 6H504.226L646.056 146.89L580.338 219.151Z" stroke="black" stroke-width="12"/>
</svg>
