<svg width="743" height="201" viewBox="0 0 743 201" fill="none" xmlns="http://www.w3.org/2000/svg">
<path d="M37.8141 12.6045L0 50.8688V163.411L37.8141 200.775V12.6045Z" fill="white"/>
<path d="M150.806 163.411H40.9653V201H112.992L150.806 163.411Z" fill="white"/>
<path d="M150.806 50.4186V159.809H112.992V50.4186H149.006H150.806Z" fill="white"/>
<path d="M112.992 0V21.7671V38.2643H150.806L112.992 0Z" fill="white"/>
<path d="M192.411 73.615C194.791 71.725 195.876 70.85 195.666 70.99C202.526 65.32 207.916 60.665 211.836 57.025C215.826 53.385 219.186 49.57 221.916 45.58C224.646 41.59 226.011 37.705 226.011 33.925C226.011 31.055 225.346 28.815 224.016 27.205C222.686 25.595 220.691 24.79 218.031 24.79C215.371 24.79 213.271 25.805 211.731 27.835C210.261 29.795 209.526 32.595 209.526 36.235H192.201C192.341 30.285 193.601 25.315 195.981 21.325C198.431 17.335 201.616 14.395 205.536 12.505C209.526 10.615 213.936 9.66999 218.766 9.66999C227.096 9.66999 233.361 11.805 237.561 16.075C241.831 20.345 243.966 25.91 243.966 32.77C243.966 40.26 241.411 47.225 236.301 53.665C231.191 60.035 224.681 66.265 216.771 72.355H245.121V86.95H192.411V73.615ZM263.526 48.625C263.526 36.585 265.836 27.1 270.456 20.17C275.146 13.24 282.671 9.77499 293.031 9.77499C303.391 9.77499 310.881 13.24 315.501 20.17C320.191 27.1 322.536 36.585 322.536 48.625C322.536 60.805 320.191 70.36 315.501 77.29C310.881 84.22 303.391 87.685 293.031 87.685C282.671 87.685 275.146 84.22 270.456 77.29C265.836 70.36 263.526 60.805 263.526 48.625ZM304.896 48.625C304.896 41.555 304.126 36.13 302.586 32.35C301.046 28.5 297.861 26.575 293.031 26.575C288.201 26.575 285.016 28.5 283.476 32.35C281.936 36.13 281.166 41.555 281.166 48.625C281.166 53.385 281.446 57.34 282.006 60.49C282.566 63.57 283.686 66.09 285.366 68.05C287.116 69.94 289.671 70.885 293.031 70.885C296.391 70.885 298.911 69.94 300.591 68.05C302.341 66.09 303.496 63.57 304.056 60.49C304.616 57.34 304.896 53.385 304.896 48.625ZM192.513 173.615C194.893 171.725 195.978 170.85 195.768 170.99C202.628 165.32 208.018 160.665 211.938 157.025C215.928 153.385 219.288 149.57 222.018 145.58C224.748 141.59 226.113 137.705 226.113 133.925C226.113 131.055 225.448 128.815 224.118 127.205C222.788 125.595 220.793 124.79 218.133 124.79C215.473 124.79 213.373 125.805 211.833 127.835C210.363 129.795 209.628 132.595 209.628 136.235H192.303C192.443 130.285 193.703 125.315 196.083 121.325C198.533 117.335 201.718 114.395 205.638 112.505C209.628 110.615 214.038 109.67 218.868 109.67C227.198 109.67 233.463 111.805 237.663 116.075C241.933 120.345 244.068 125.91 244.068 132.77C244.068 140.26 241.513 147.225 236.403 153.665C231.293 160.035 224.783 166.265 216.873 172.355H245.223V186.95H192.513V173.615ZM317.599 126.995H284.839V141.485C286.239 139.945 288.199 138.685 290.719 137.705C293.239 136.725 295.969 136.235 298.909 136.235C304.159 136.235 308.499 137.425 311.929 139.805C315.429 142.185 317.984 145.265 319.594 149.045C321.204 152.825 322.009 156.92 322.009 161.33C322.009 169.52 319.699 176.03 315.079 180.86C310.459 185.62 303.949 188 295.549 188C289.949 188 285.084 187.055 280.954 185.165C276.824 183.205 273.639 180.51 271.399 177.08C269.159 173.65 267.934 169.695 267.724 165.215H285.259C285.679 167.385 286.694 169.205 288.304 170.675C289.914 172.075 292.119 172.775 294.919 172.775C298.209 172.775 300.659 171.725 302.269 169.625C303.879 167.525 304.684 164.725 304.684 161.225C304.684 157.795 303.844 155.17 302.164 153.35C300.484 151.53 298.034 150.62 294.814 150.62C292.434 150.62 290.474 151.215 288.934 152.405C287.394 153.525 286.379 155.03 285.889 156.92H268.564V111.245H317.599V126.995Z" fill="white"/>
<rect x="364.807" y="1" width="1" height="200" fill="white" fill-opacity="0.5"/>
<path d="M409 147.719V77.4854H421.337V147.719H409Z" fill="white"/>
<path d="M452.919 96.7676C437.101 96.7676 426.154 108.93 426.154 122.851C426.154 138.387 438.063 149.09 453.042 149.09C467.258 149.09 479.594 138.584 479.594 122.817C479.594 109.558 469.372 96.7676 452.919 96.7676ZM452.774 108.669C461.052 108.669 467.145 115.113 467.145 122.895C467.145 131.147 460.427 137.166 452.997 137.166C444.218 137.166 438.693 130.208 438.693 122.918C438.693 114.927 444.931 108.669 452.774 108.669Z" fill="white"/>
<path d="M510.592 96.7676C494.774 96.7676 483.827 108.93 483.827 122.851C483.827 138.387 495.736 149.09 510.715 149.09C524.931 149.09 537.267 138.584 537.267 122.817C537.267 113.532 533.246 109.413 533.246 109.413L536.666 108.24V98.2269H519.143C519.143 98.2269 515.344 96.7676 510.592 96.7676ZM510.447 108.669C518.725 108.669 524.818 115.113 524.818 122.895C524.818 131.147 518.1 137.166 510.67 137.166C501.891 137.166 496.366 130.208 496.366 122.918C496.366 114.927 502.604 108.669 510.447 108.669Z" fill="white"/>
<path d="M524.731 151.152C524.731 159.404 518.013 165.468 510.583 165.468C501.804 165.468 496.256 158.442 496.256 151.152H483.74C483.74 166.689 495.649 177.392 510.628 177.392C524.844 177.392 537.18 166.919 537.18 151.152H524.731Z" fill="white"/>
<path d="M542.209 147.719V98.2266H554.546V147.719H542.209Z" fill="white"/>
<path d="M566.526 147.72V109.313H559.91V98.2271H566.526V83.0288H578.863V98.2271H585.658V109.313H578.863V147.72H566.526Z" fill="white"/>
<path d="M556.521 84.1698C556.521 88.6819 552.864 92.3396 548.351 92.3396C543.839 92.3396 540.182 88.6819 540.182 84.1698C540.182 79.6578 543.839 76 548.351 76C552.864 76 556.521 79.6578 556.521 84.1698Z" fill="white"/>
<path d="M613.395 96.7339C597.502 96.7339 587.256 108.902 587.256 123.297C587.256 138.173 597.536 149.123 613.652 149.123C628.685 149.123 636.08 139.736 636.08 139.736L627.833 131.478C627.833 131.478 621.606 138.194 613.808 138.194C607.308 138.194 602.111 134.566 600.297 127.913H638.74V124.515C638.74 110.96 630.894 96.7339 613.395 96.7339ZM613.004 107.596C618.687 107.596 624.499 110.637 625.799 117.9H599.962C600.985 112.794 605.452 107.596 613.004 107.596Z" fill="white"/>
<path d="M669.6 149.13C653.662 149.13 642.802 136.991 642.802 122.678C642.802 107.907 655.075 96.7246 669.549 96.7246C683.54 96.7246 690.702 106.602 690.702 106.602L682.095 115.169C682.095 115.169 677.11 108.728 669.49 108.728C661.045 108.728 655.27 115.188 655.27 122.867C655.27 130.976 661.413 137.197 669.395 137.197C677.138 137.197 682.083 130.766 682.083 130.766L690.776 139.329C690.776 139.329 683.684 149.13 669.6 149.13Z" fill="white"/>
<path d="M695.265 147.755V77.3066H707.602V103.19C707.602 103.19 712.326 96.7244 722.602 96.7244C735.521 96.7244 743.005 106.328 743.005 118.61V147.755H730.668V120.475C730.668 112.223 725.53 108.8 719.839 108.8C713.355 108.8 707.602 112.49 707.602 121.113V147.755H695.265Z" fill="white"/>
<path d="M416.44 49.168C415.272 49.168 414.216 48.968 413.272 48.568C412.344 48.168 411.608 47.592 411.064 46.84C410.52 46.088 410.24 45.2 410.224 44.176H413.824C413.872 44.864 414.112 45.408 414.544 45.808C414.992 46.208 415.6 46.408 416.368 46.408C417.152 46.408 417.768 46.224 418.216 45.856C418.664 45.472 418.888 44.976 418.888 44.368C418.888 43.872 418.736 43.464 418.432 43.144C418.128 42.824 417.744 42.576 417.28 42.4C416.832 42.208 416.208 42 415.408 41.776C414.32 41.456 413.432 41.144 412.744 40.84C412.072 40.52 411.488 40.048 410.992 39.424C410.512 38.784 410.272 37.936 410.272 36.88C410.272 35.888 410.52 35.024 411.016 34.288C411.512 33.552 412.208 32.992 413.104 32.608C414 32.208 415.024 32.008 416.176 32.008C417.904 32.008 419.304 32.432 420.376 33.28C421.464 34.112 422.064 35.28 422.176 36.784H418.48C418.448 36.208 418.2 35.736 417.736 35.368C417.288 34.984 416.688 34.792 415.936 34.792C415.28 34.792 414.752 34.96 414.352 35.296C413.968 35.632 413.776 36.12 413.776 36.76C413.776 37.208 413.92 37.584 414.208 37.888C414.512 38.176 414.88 38.416 415.312 38.608C415.76 38.784 416.384 38.992 417.184 39.232C418.272 39.552 419.16 39.872 419.848 40.192C420.536 40.512 421.128 40.992 421.624 41.632C422.12 42.272 422.368 43.112 422.368 44.152C422.368 45.048 422.136 45.88 421.672 46.648C421.208 47.416 420.528 48.032 419.632 48.496C418.736 48.944 417.672 49.168 416.44 49.168ZM439.897 37.432C439.897 38.328 439.681 39.168 439.249 39.952C438.833 40.736 438.169 41.368 437.257 41.848C436.361 42.328 435.225 42.568 433.849 42.568H431.041V49H427.681V32.248H433.849C435.145 32.248 436.249 32.472 437.161 32.92C438.073 33.368 438.753 33.984 439.201 34.768C439.665 35.552 439.897 36.44 439.897 37.432ZM433.705 39.856C434.633 39.856 435.321 39.648 435.769 39.232C436.217 38.8 436.441 38.2 436.441 37.432C436.441 35.8 435.529 34.984 433.705 34.984H431.041V39.856H433.705ZM452.459 49.168C450.891 49.168 449.451 48.8 448.139 48.064C446.827 47.328 445.787 46.312 445.019 45.016C444.251 43.704 443.867 42.224 443.867 40.576C443.867 38.944 444.251 37.48 445.019 36.184C445.787 34.872 446.827 33.848 448.139 33.112C449.451 32.376 450.891 32.008 452.459 32.008C454.043 32.008 455.483 32.376 456.779 33.112C458.091 33.848 459.123 34.872 459.875 36.184C460.643 37.48 461.027 38.944 461.027 40.576C461.027 42.224 460.643 43.704 459.875 45.016C459.123 46.312 458.091 47.328 456.779 48.064C455.467 48.8 454.027 49.168 452.459 49.168ZM452.459 46.168C453.467 46.168 454.355 45.944 455.123 45.496C455.891 45.032 456.491 44.376 456.923 43.528C457.355 42.68 457.571 41.696 457.571 40.576C457.571 39.456 457.355 38.48 456.923 37.648C456.491 36.8 455.891 36.152 455.123 35.704C454.355 35.256 453.467 35.032 452.459 35.032C451.451 35.032 450.555 35.256 449.771 35.704C449.003 36.152 448.403 36.8 447.971 37.648C447.539 38.48 447.323 39.456 447.323 40.576C447.323 41.696 447.539 42.68 447.971 43.528C448.403 44.376 449.003 45.032 449.771 45.496C450.555 45.944 451.451 46.168 452.459 46.168ZM480.254 49H476.894L469.286 37.504V49H465.926V32.224H469.286L476.894 43.744V32.224H480.254V49ZM491.759 49.168C490.591 49.168 489.535 48.968 488.591 48.568C487.663 48.168 486.927 47.592 486.383 46.84C485.839 46.088 485.559 45.2 485.543 44.176H489.143C489.191 44.864 489.431 45.408 489.863 45.808C490.311 46.208 490.919 46.408 491.687 46.408C492.471 46.408 493.087 46.224 493.535 45.856C493.983 45.472 494.207 44.976 494.207 44.368C494.207 43.872 494.055 43.464 493.751 43.144C493.447 42.824 493.063 42.576 492.599 42.4C492.151 42.208 491.527 42 490.727 41.776C489.639 41.456 488.751 41.144 488.063 40.84C487.391 40.52 486.807 40.048 486.311 39.424C485.831 38.784 485.591 37.936 485.591 36.88C485.591 35.888 485.839 35.024 486.335 34.288C486.831 33.552 487.527 32.992 488.423 32.608C489.319 32.208 490.343 32.008 491.495 32.008C493.223 32.008 494.623 32.432 495.695 33.28C496.783 34.112 497.383 35.28 497.495 36.784H493.799C493.767 36.208 493.519 35.736 493.055 35.368C492.607 34.984 492.007 34.792 491.255 34.792C490.599 34.792 490.071 34.96 489.671 35.296C489.287 35.632 489.095 36.12 489.095 36.76C489.095 37.208 489.239 37.584 489.527 37.888C489.831 38.176 490.199 38.416 490.631 38.608C491.079 38.784 491.703 38.992 492.503 39.232C493.591 39.552 494.479 39.872 495.167 40.192C495.855 40.512 496.447 40.992 496.943 41.632C497.439 42.272 497.687 43.112 497.687 44.152C497.687 45.048 497.455 45.88 496.991 46.648C496.527 47.416 495.847 48.032 494.951 48.496C494.055 48.944 492.991 49.168 491.759 49.168ZM510.776 49.168C509.208 49.168 507.768 48.8 506.456 48.064C505.144 47.328 504.104 46.312 503.336 45.016C502.568 43.704 502.184 42.224 502.184 40.576C502.184 38.944 502.568 37.48 503.336 36.184C504.104 34.872 505.144 33.848 506.456 33.112C507.768 32.376 509.208 32.008 510.776 32.008C512.36 32.008 513.8 32.376 515.096 33.112C516.408 33.848 517.44 34.872 518.192 36.184C518.96 37.48 519.344 38.944 519.344 40.576C519.344 42.224 518.96 43.704 518.192 45.016C517.44 46.312 516.408 47.328 515.096 48.064C513.784 48.8 512.344 49.168 510.776 49.168ZM510.776 46.168C511.784 46.168 512.672 45.944 513.44 45.496C514.208 45.032 514.808 44.376 515.24 43.528C515.672 42.68 515.888 41.696 515.888 40.576C515.888 39.456 515.672 38.48 515.24 37.648C514.808 36.8 514.208 36.152 513.44 35.704C512.672 35.256 511.784 35.032 510.776 35.032C509.768 35.032 508.872 35.256 508.088 35.704C507.32 36.152 506.72 36.8 506.288 37.648C505.856 38.48 505.64 39.456 505.64 40.576C505.64 41.696 505.856 42.68 506.288 43.528C506.72 44.376 507.32 45.032 508.088 45.496C508.872 45.944 509.768 46.168 510.776 46.168ZM532.884 49L529.188 42.472H527.604V49H524.244V32.248H530.532C531.828 32.248 532.932 32.48 533.844 32.944C534.756 33.392 535.436 34.008 535.884 34.792C536.348 35.56 536.58 36.424 536.58 37.384C536.58 38.488 536.26 39.488 535.62 40.384C534.98 41.264 534.028 41.872 532.764 42.208L536.772 49H532.884ZM527.604 39.952H530.412C531.324 39.952 532.004 39.736 532.452 39.304C532.9 38.856 533.124 38.24 533.124 37.456C533.124 36.688 532.9 36.096 532.452 35.68C532.004 35.248 531.324 35.032 530.412 35.032H527.604V39.952ZM545.379 34.96V39.16H551.019V41.824H545.379V46.264H551.739V49H542.019V32.224H551.739V34.96H545.379ZM563.048 32.248C564.808 32.248 566.352 32.592 567.68 33.28C569.024 33.968 570.056 34.952 570.776 36.232C571.512 37.496 571.88 38.968 571.88 40.648C571.88 42.328 571.512 43.8 570.776 45.064C570.056 46.312 569.024 47.28 567.68 47.968C566.352 48.656 564.808 49 563.048 49H557.192V32.248H563.048ZM562.928 46.144C564.688 46.144 566.048 45.664 567.008 44.704C567.968 43.744 568.448 42.392 568.448 40.648C568.448 38.904 567.968 37.544 567.008 36.568C566.048 35.576 564.688 35.08 562.928 35.08H560.552V46.144H562.928ZM594.418 40.408C595.362 40.584 596.138 41.056 596.746 41.824C597.354 42.592 597.658 43.472 597.658 44.464C597.658 45.36 597.434 46.152 596.986 46.84C596.554 47.512 595.922 48.04 595.09 48.424C594.258 48.808 593.274 49 592.138 49H584.914V32.248H591.826C592.962 32.248 593.938 32.432 594.754 32.8C595.586 33.168 596.21 33.68 596.626 34.336C597.058 34.992 597.274 35.736 597.274 36.568C597.274 37.544 597.01 38.36 596.482 39.016C595.97 39.672 595.282 40.136 594.418 40.408ZM588.274 39.16H591.346C592.146 39.16 592.762 38.984 593.194 38.632C593.626 38.264 593.842 37.744 593.842 37.072C593.842 36.4 593.626 35.88 593.194 35.512C592.762 35.144 592.146 34.96 591.346 34.96H588.274V39.16ZM591.658 46.264C592.474 46.264 593.106 46.072 593.554 45.688C594.018 45.304 594.25 44.76 594.25 44.056C594.25 43.336 594.01 42.776 593.53 42.376C593.05 41.96 592.402 41.752 591.586 41.752H588.274V46.264H591.658ZM616.056 32.248L610.392 43.168V49H607.032V43.168L601.344 32.248H605.136L608.736 39.904L612.312 32.248H616.056Z" fill="white"/>
</svg>
