<svg width="136" height="156" viewBox="0 0 136 156" fill="none" xmlns="http://www.w3.org/2000/svg">
<circle cx="68" cy="78" r="51" fill="#E3E3E3"/>
<path d="M86.6254 89.3333C86.6254 94.65 82.2754 99 76.9587 99H14.1254C8.80874 99 4.45874 94.65 4.45874 89.3333V57.9167C4.45874 52.6 8.80874 48.25 14.1254 48.25H76.9587C82.2754 48.25 86.6254 52.6 86.6254 57.9167V89.3333Z" fill="#3F7123"/>
<path d="M4.45874 48.25H86.6254V62.75H4.45874V48.25Z" fill="#3F7123"/>
<path d="M4.45874 48.25H86.6254V65.1667H4.45874V48.25Z" fill="#CCD6DD"/>
<path d="M4.45874 48.25H14.1254L4.45874 65.1667V48.25V48.25ZM31.0421 48.25L21.3754 65.1667H38.2921L47.9587 48.25H31.0421V48.25ZM64.8754 48.25L55.2087 65.1667H72.1254L81.7921 48.25H64.8754Z" fill="#292F33"/>
<path d="M0.374512 31.8336L80.1076 12L84.1918 28.414L4.45868 48.25L0.374512 31.8336Z" fill="#CCD6DD"/>
<path d="M0.374512 31.8336L13.8402 45.9155L4.45868 48.25L0.374512 31.8336ZM46.673 37.7496L33.2073 23.6653L16.7909 27.7494L30.2566 41.8338L46.673 37.7496V37.7496ZM79.5058 29.5813L66.0402 15.4969L49.6238 19.5811L63.0894 33.663L79.5058 29.5813V29.5813Z" fill="#292F33"/>
</svg>
