<svg fill="none" height="156" viewBox="0 0 136 156" width="136" xmlns="http://www.w3.org/2000/svg"><circle cx="68" cy="78" fill="#3a7dff" r="51"/><path d="m43.5 99c24.0244 0 43.5-19.4756 43.5-43.5s-19.4756-43.5-43.5-43.5-43.5 19.4756-43.5 43.5 19.4756 43.5 43.5 43.5z" fill="#88c9f9"/><g fill="#5c913b"><path d="m6.79567 73.3229c-.14984-2.4166-.14984-2.8686-.14984-5.7396s1.35817-2.4166 2.71875-3.7748c1.36062-1.3582 1.05852-1.5104 3.32292-2.9991 2.2644-1.4886 1.0585-3.1924.9063-4.0986-.1523-.9063-1.5105-.1523-3.7773.1474-2.26683.2996-1.508-.754-2.86858-1.3582-1.36059-.6042-1.96234-1.5104-2.871-4.2292-.90867-2.7187-1.0585-3.4751-.754-5.7396.3045-2.2644 1.36058-.1522 1.51041 2.2645.14984 2.4166 2.26684 1.5104 2.26684 3.0208s3.02083 3.1707 3.77483 3.625 2.871-2.2668 3.625-3.0208 1.6627-1.8125 1.9623-2.4167c.2997-.6042 4.0794-1.0585 4.8334-1.0585s2.5665 2.2668 2.5665 3.3229.9062 3.9271 1.6626 5.5874c.7565 1.6602 2.4167 1.9623 3.9271 3.1706 1.5104 1.2084 2.2669.1499 2.2669.1499s-.6042-2.5666-.6042-4.6836 1.8125-3.927 1.8125-3.927 2.871 2.1145 3.0208 2.7187c.1499.6042 2.4167 2.7188 2.5665 3.7749.1499 1.056 1.3582 2.4166 3.5839 2.7187 2.2258.3021.6453-2.5665 1.3993-4.5312.754-1.9648 1.8125-2.2669 3.1707-2.5666 1.3581-.2996 2.4166-1.5104 3.3229-2.7187.9062-1.2083 2.5665-2.871 2.4166-4.2292-.1498-1.3581-.6041-2.2668-1.2083-3.9271-.6042-1.6602 1.8125-2.2668 2.871-4.2291 1.0585-1.9624 0 0 2.4167-.6042 2.4166-.6042 1.3581-.6042 1.8125-1.5104.4543-.9063.754-1.8125.3021-3.4752-.452-1.6626-2.1146 0-3.7749 0-1.6602 0 .6066-2.2571.7564-4.0696.1499-1.8125 2.2669-1.3582 3.7749-1.5104 1.508-.1523 1.9623 1.9623 2.4166 2.4166.4544.4544 5.1355-3.0208 6.3438-4.6835s-1.0561-1.2059-.4519-1.9067c.6041-.7009-3.625-.8434-5.2877-1.1117-1.6627-.2682-5.8894-.4543-7.5497-1.479-1.6602-1.0247-8.004-.2513-9.6666.5728-1.6627.824-2.7188-.0701-3.4752-1.2084-.7564-1.1382-3.9271-.5679-4.8333-1.2083-.9063-.6404-1.8125 1.0561-3.0209 1.5104-1.2083.4543-1.6626.6042-3.1706-.3021-1.508-.9062.4519-1.9647-1.6627-2.7187-1.4162-.5051-3.1127-.2103-5.7517-.2683-13.81847 7.2863-23.2483 21.7742-23.2483 38.4806 0 8.265 2.34658 15.9621 6.34858 22.5403.74434-1.2519.55825-2.9411.44709-4.7174zm35.04163-2.8686c1.0585.1499 4.0794 0 1.6627-1.9623s-3.7748-.4543-3.4752-2.7187c.2997-2.2645-1.5104-2.2669-1.5104-2.2669 0 1.6627-1.2083 3.4752 0 5.1354 1.2084 1.6603 2.2669 1.6603 3.3229 1.8125z"/><path d="m57.246 45.2292c-2.4166-1.9624-.6041-1.3582-.302-3.625.302-2.2669-1.5105-2.2669-1.5105-2.2669 0 1.6627-1.2083 3.4752 0 5.1355 1.2084 1.6602-2.4166 3.0208-1.3581 3.1706s5.5873-.4519 3.1706-2.4142zm-9.3766 23.5625c1.4983 1.6626.9183 0 2.8806-.754 1.9624-.754-1.6626-2.4167-2.871-3.323-1.2083-.9062-2.4094-.94-3.4655 1.0585-1.1986 2.2645 1.9575 1.3558 3.4559 3.0185zm17.6827 3.0208c-.754-.9063-2.4166-1.3582-4.2291-1.3171-1.8125.0435-1.6627-2.0058-3.4752-1.856s-3.1078-1.218-3.9271-1.6409c-1.7811-.9183-.6042 1.1866 0 3.4945s2.871.5607 4.9832 1.769c2.1121 1.2083 2.2668-.4543 4.2291.1498 1.9624.6042 2.7188 1.9624 4.6014 1.8125 1.8826-.1498-1.4259-1.5056-2.1823-2.4118zm-3.9271 6.6458c-.754-1.5104-2.9628-2.871-3.869-3.6371-.9063-.766-2.3249-1.0246-3.5332-.58-1.2083.4447-1.9623 0-2.5665-1.1962-.6042-1.1963-1.6627-.7782-2.5665-.6283-.9038.1498-4.5313 1.6626-6.6458 2.7187-2.1146 1.0561-3.0765 1.9744-4.4636 3.3229-2.1702 2.1122-.9739.754 0 2.1146.9739 1.3582-1.0682 5.5873-1.218 8.004-.1499 2.4167 3.8715-.754 5.3819-1.0585s1.0657-1.2083 2.2741-2.1146c1.2083-.9062 1.9937-1.1189 3.3205.0894 1.3267 1.2084 3.0643 2.3273 3.0643 3.6855 0 1.3581 4.7826 3.625 6.5951 2.7187 1.8125-.9062 2.871-2.7187 4.5312-4.2292 1.6603-1.5104 1.0585-4.379 1.5105-6.1915.4519-1.8125-1.061-1.508-1.815-3.0184z"/></g></svg>