<svg fill="none" height="156" viewBox="0 0 136 156" width="136" xmlns="http://www.w3.org/2000/svg"><circle cx="68" cy="78" fill="#06be5a" r="51"/><path d="m43.5 19.5956c-24.0241 0-43.5 16.6943-43.5 37.2843 0 2.5762.3045 5.0919.886917 7.5207 4.299253 7.3974 7.274163 2.7284 20.863083-4.0673 13.8403-6.9213 0 9.6667-4.8333 19.3334-1.4863 2.9725-.6815 5.4882 1.3533 7.5496 7.1195 4.3597 15.8147 6.9504 25.23 6.9504 24.0241 0 43.5-16.6919 43.5-37.2868 0-20.59-19.4759-37.2843-43.5-37.2843zm6.8851 59.0802c-.9546 3.2529-5.945 4.6497-11.1481 3.12-5.2031-1.5274-8.6468-5.3989-7.6922-8.6541.9545-3.2529 5.945-4.6497 11.148-3.1175 5.2031 1.5249 8.6469 5.3964 7.6923 8.6516z" fill="#d99e82"/><path d="m24.167 45.8333c4.0041 0 7.25-3.2459 7.25-7.25 0-4.004-3.2459-7.25-7.25-7.25s-7.25 3.246-7.25 7.25c0 4.0041 3.2459 7.25 7.25 7.25z" fill="#5c913b"/><path d="m48.333 41c4.0041 0 7.25-3.2459 7.25-7.25s-3.2459-7.25-7.25-7.25-7.25 3.2459-7.25 7.25 3.2459 7.25 7.25 7.25z" fill="#269"/><path d="m70.083 55.5c4.0041 0 7.25-3.2459 7.25-7.25s-3.2459-7.25-7.25-7.25-7.25 3.2459-7.25 7.25 3.2459 7.25 7.25 7.25z" fill="#dd2e44"/><path d="m67.667 77.25c4.0041 0 7.25-3.2459 7.25-7.25s-3.2459-7.25-7.25-7.25-7.25 3.2459-7.25 7.25 3.2459 7.25 7.25 7.25z" fill="#ffcc4d"/></svg>