<svg width="136" height="156" viewBox="0 0 136 156" fill="none" xmlns="http://www.w3.org/2000/svg">
<circle cx="68" cy="78" r="51" fill="#E3E3E3"/>
<path d="M70.0833 24.0833C72.7527 24.0833 74.9167 21.9194 74.9167 19.25C74.9167 16.5806 72.7527 14.4167 70.0833 14.4167C67.414 14.4167 65.25 16.5806 65.25 19.25C65.25 21.9194 67.414 24.0833 70.0833 24.0833Z" fill="#4289C1"/>
<path d="M79.75 38.5833C83.7541 38.5833 87 35.3374 87 31.3333C87 27.3293 83.7541 24.0833 79.75 24.0833C75.7459 24.0833 72.5 27.3293 72.5 31.3333C72.5 35.3374 75.7459 38.5833 79.75 38.5833Z" fill="#4289C1"/>
<path d="M79.75 28.9167C83.7541 28.9167 87 25.6707 87 21.6667C87 17.6626 83.7541 14.4167 79.75 14.4167C75.7459 14.4167 72.5 17.6626 72.5 21.6667C72.5 25.6707 75.7459 28.9167 79.75 28.9167Z" fill="#4289C1"/>
<path d="M16.9168 24.0833C19.5862 24.0833 21.7502 21.9194 21.7502 19.25C21.7502 16.5806 19.5862 14.4167 16.9168 14.4167C14.2475 14.4167 12.0835 16.5806 12.0835 19.25C12.0835 21.9194 14.2475 24.0833 16.9168 24.0833Z" fill="#4289C1"/>
<path d="M7.25 38.5833C11.2541 38.5833 14.5 35.3374 14.5 31.3333C14.5 27.3293 11.2541 24.0833 7.25 24.0833C3.24594 24.0833 0 27.3293 0 31.3333C0 35.3374 3.24594 38.5833 7.25 38.5833Z" fill="#4289C1"/>
<path d="M7.25 28.9167C11.2541 28.9167 14.5 25.6707 14.5 21.6667C14.5 17.6626 11.2541 14.4167 7.25 14.4167C3.24594 14.4167 0 17.6626 0 21.6667C0 25.6707 3.24594 28.9167 7.25 28.9167Z" fill="#4289C1"/>
<path d="M87 55.5C87 79.5241 67.5241 99 43.5 99C19.4759 99 0 79.5241 0 55.5C0 31.4759 19.4759 12 43.5 12C67.5241 12 87 31.4759 87 55.5Z" fill="#FEE7B8"/>
<path d="M73.7082 28.9167C77.0449 28.9167 79.7498 26.2117 79.7498 22.875C79.7498 19.5383 77.0449 16.8333 73.7082 16.8333C70.3715 16.8333 67.6665 19.5383 67.6665 22.875C67.6665 26.2117 70.3715 28.9167 73.7082 28.9167Z" fill="#4289C1"/>
<path d="M77.3333 33.75C80.0027 33.75 82.1667 31.5861 82.1667 28.9167C82.1667 26.2473 80.0027 24.0833 77.3333 24.0833C74.664 24.0833 72.5 26.2473 72.5 28.9167C72.5 31.5861 74.664 33.75 77.3333 33.75Z" fill="#4289C1"/>
<path d="M13.2917 28.9167C16.6284 28.9167 19.3333 26.2117 19.3333 22.875C19.3333 19.5383 16.6284 16.8333 13.2917 16.8333C9.95495 16.8333 7.25 19.5383 7.25 22.875C7.25 26.2117 9.95495 28.9167 13.2917 28.9167Z" fill="#4289C1"/>
<path d="M9.66683 33.75C12.3362 33.75 14.5002 31.5861 14.5002 28.9167C14.5002 26.2473 12.3362 24.0833 9.66683 24.0833C6.99745 24.0833 4.8335 26.2473 4.8335 28.9167C4.8335 31.5861 6.99745 33.75 9.66683 33.75Z" fill="#4289C1"/>
<path d="M16.7477 72.4167C22.0865 72.4167 26.4144 68.0888 26.4144 62.75C26.4144 57.4113 22.0865 53.0833 16.7477 53.0833C11.409 53.0833 7.08105 57.4113 7.08105 62.75C7.08105 68.0888 11.409 72.4167 16.7477 72.4167Z" fill="#FF7892"/>
<path d="M69.9142 72.4167C75.253 72.4167 79.5809 68.0888 79.5809 62.75C79.5809 57.4113 75.253 53.0833 69.9142 53.0833C64.5755 53.0833 60.2476 57.4113 60.2476 62.75C60.2476 68.0888 64.5755 72.4167 69.9142 72.4167Z" fill="#FF7892"/>
<path d="M66.0596 69.1034C65.6294 68.7143 64.9866 68.6902 64.525 69.0333C64.4308 69.1034 55.0469 76.0417 43.5 76.0417C31.9822 76.0417 22.5669 69.1034 22.475 69.0333C22.0134 68.6902 21.3706 68.7192 20.9404 69.1034C20.5127 69.4901 20.416 70.1281 20.7133 70.6211C21.025 71.1407 28.4877 86.9167 43.5 86.9167C58.5124 86.9167 65.9774 71.1407 66.2868 70.6211C66.584 70.1257 66.4898 69.4901 66.0596 69.1034V69.1034Z" fill="#DA2F47"/>
<path d="M27.7917 48.25C31.1284 48.25 33.8333 44.4631 33.8333 39.7917C33.8333 35.1203 31.1284 31.3333 27.7917 31.3333C24.4549 31.3333 21.75 35.1203 21.75 39.7917C21.75 44.4631 24.4549 48.25 27.7917 48.25Z" fill="#664500"/>
<path d="M61.6252 48.25C64.9619 48.25 67.6668 44.4631 67.6668 39.7917C67.6668 35.1203 64.9619 31.3333 61.6252 31.3333C58.2884 31.3333 55.5835 35.1203 55.5835 39.7917C55.5835 44.4631 58.2884 48.25 61.6252 48.25Z" fill="#664500"/>
<path d="M44.7083 67.5833C49.3797 67.5833 53.1667 63.7964 53.1667 59.125C53.1667 54.4536 49.3797 50.6667 44.7083 50.6667C40.0369 50.6667 36.25 54.4536 36.25 59.125C36.25 63.7964 40.0369 67.5833 44.7083 67.5833Z" fill="#BB1A34"/>
</svg>
