<svg width="136" height="156" viewBox="0 0 136 156" fill="none" xmlns="http://www.w3.org/2000/svg">
<circle cx="68" cy="78" r="51" fill="#E3E3E3"/>
<path d="M2.4165 53.0833L21.7498 36.1667L60.4165 38.5833L62.8332 77.25L45.9165 96.5833C45.9165 96.5833 45.9189 82.0857 31.4165 67.5833C16.9141 53.0809 2.4165 53.0833 2.4165 53.0833Z" fill="#A0041E"/>
<path d="M2.35161 96.5833C2.35161 96.5833 2.26461 77.3007 9.56536 70C16.8661 62.6992 36.2502 63.2019 36.2502 63.2019C36.2502 63.2019 36.2478 82.0833 28.9978 89.3333C21.7478 96.5833 2.35161 96.5833 2.35161 96.5833V96.5833Z" fill="#FFAC33"/>
<path d="M21.7477 86.9167C27.0865 86.9167 31.4144 82.5888 31.4144 77.25C31.4144 71.9113 27.0865 67.5833 21.7477 67.5833C16.409 67.5833 12.0811 71.9113 12.0811 77.25C12.0811 82.5888 16.409 86.9167 21.7477 86.9167Z" fill="#FFCC4D"/>
<path d="M86.9975 12C86.9975 12 62.8308 12 33.8308 36.1667C19.3308 48.25 19.3308 70 24.1641 74.8333C28.9975 79.6667 50.7475 79.6667 62.8308 65.1667C86.9975 36.1667 86.9975 12 86.9975 12Z" fill="#55ACEE"/>
<path d="M65.2478 24.0833C61.3256 24.0833 57.9664 26.4299 56.4487 29.7867C57.6619 29.2381 58.9983 28.9167 60.4145 28.9167C65.7529 28.9167 70.0811 33.2449 70.0811 38.5833C70.0811 39.9995 69.7597 41.3359 69.2136 42.5467C72.5703 41.0314 74.9145 37.6723 74.9145 33.75C74.9145 28.4116 70.5862 24.0833 65.2478 24.0833V24.0833Z" fill="black"/>
<path d="M19.3335 79.6667C19.3335 79.6667 19.3335 70 21.7502 67.5833C24.1668 65.1667 53.1692 41.0024 55.5835 43.4167C57.9977 45.8309 33.8311 74.8333 31.4144 77.25C28.9977 79.6667 19.3335 79.6667 19.3335 79.6667Z" fill="#A0041E"/>
</svg>
