<svg width="136" height="156" viewBox="0 0 136 156" fill="none" xmlns="http://www.w3.org/2000/svg">
<circle cx="68" cy="78" r="51" fill="#E3E3E3"/>
<path d="M81.0574 68.0618C81.9371 64.2483 81.6447 60.169 79.9506 56.109C78.3121 52.1819 75.487 49.0765 72.0457 46.9909C72.8142 44.1102 72.6112 41.0097 71.2627 37.9284C69.2303 33.2884 64.8343 30.1927 59.8753 29.3202C60.4771 27.9379 60.6704 26.2052 59.9623 24.0833C57.5457 16.8333 47.879 21.6667 40.629 12.0024C34.7323 15.5404 33.4515 20.7991 33.6738 25.2627C27.8231 26.2583 24.4905 27.5247 24.4905 27.5247V27.5295C21.2038 28.8587 18.879 32.0801 18.879 35.8477C18.879 37.9719 19.6475 39.898 20.88 41.435L19.2077 42.0585L19.2101 42.0657C13.5793 44.1707 9.60383 49.2577 9.60383 55.21C9.60383 57.7402 10.3288 60.1086 11.5855 62.1652C4.76325 65.2319 0 71.8874 0 79.6667C0 90.3435 8.91992 99 19.923 99C27.8231 99 35.7739 97.3011 42.9563 94.9762C48.3768 97.4896 56.7192 99 69.2786 99C79.0661 99 87 91.0661 87 81.2786C87 76.0199 84.6969 71.3098 81.0574 68.0618Z" fill="#BF6952"/>
<path d="M32.6251 60.3333C37.2965 60.3333 41.0834 55.4644 41.0834 49.4583C41.0834 43.4522 37.2965 38.5833 32.6251 38.5833C27.9537 38.5833 24.1667 43.4522 24.1667 49.4583C24.1667 55.4644 27.9537 60.3333 32.6251 60.3333Z" fill="#F5F8FA"/>
<path d="M56.7916 60.3333C61.463 60.3333 65.2499 55.4644 65.2499 49.4583C65.2499 43.4522 61.463 38.5833 56.7916 38.5833C52.1202 38.5833 48.3333 43.4522 48.3333 49.4583C48.3333 55.4644 52.1202 60.3333 56.7916 60.3333Z" fill="#F5F8FA"/>
<path d="M33.8333 55.5C36.5027 55.5 38.6667 52.795 38.6667 49.4583C38.6667 46.1216 36.5027 43.4167 33.8333 43.4167C31.164 43.4167 29 46.1216 29 49.4583C29 52.795 31.164 55.5 33.8333 55.5Z" fill="#292F33"/>
<path d="M55.5833 55.5C58.2527 55.5 60.4167 52.795 60.4167 49.4583C60.4167 46.1216 58.2527 43.4167 55.5833 43.4167C52.914 43.4167 50.75 46.1216 50.75 49.4583C50.75 52.795 52.914 55.5 55.5833 55.5Z" fill="#292F33"/>
<path d="M22.8302 72.1629C22.2357 70.9715 22.8374 70 24.1666 70H67.6666C68.9958 70 69.5975 70.9715 69.003 72.1629C69.003 72.1629 62.8333 84.5 45.9166 84.5C28.9999 84.5 22.8302 72.1629 22.8302 72.1629Z" fill="#292F33"/>
<path d="M45.9166 74.8333C39.22 74.8333 33.4539 77.0615 30.7109 80.2853C34.3166 82.5933 39.278 84.5 45.9166 84.5C52.5552 84.5 57.519 82.5933 61.1223 80.2853C58.3794 77.0615 52.6132 74.8333 45.9166 74.8333Z" fill="#F2ABBA"/>
</svg>
