<svg fill="none" height="156" viewBox="0 0 136 156" width="136" xmlns="http://www.w3.org/2000/svg"><circle cx="68" cy="78" fill="#f77" r="51"/><path d="m43.5003 94.2102c22.6897 0 41.0834-18.3937 41.0834-41.0834s-18.3937-41.0833-41.0834-41.0833-41.08331 18.3936-41.08331 41.0833 18.39361 41.0834 41.08331 41.0834z" fill="#ffcb4c"/><g fill="#65471b"><path d="m35.099 62.837c-.3504-.2803-.6235-.6622-.754-1.1213-.3238-1.1117.3142-2.2185 1.4258-2.4675 10.9427-2.4674 18.3111 3.294 18.6229 3.5405.928.7395 1.1092 2.042.4181 2.912-.6912.8652-2.001.9691-2.9266.2345-.2659-.203-6.0973-4.6473-14.9399-2.6535-.6621.1474-1.3388-.0387-1.8463-.4447z"/><path d="m31.7048 45.4225c2.8362 0 5.1354-2.8737 5.1354-6.4187 0-3.5449-2.2992-6.4186-5.1354-6.4186-2.8363 0-5.1355 2.8737-5.1355 6.4186 0 3.545 2.2992 6.4187 5.1355 6.4187z"/><path d="m58.9059 47.989c2.8362 0 5.1354-2.8737 5.1354-6.4187 0-3.5449-2.2992-6.4186-5.1354-6.4186s-5.1354 2.8737-5.1354 6.4186c0 3.545 2.2992 6.4187 5.1354 6.4187z"/></g><path d="m41.75 96.9434s3.0571-.9932 3.4534-3.2673c.4181-2.349-1.508-2.8203-1.508-2.8203s2.5158-.5026 2.8324-3.3253c.2972-2.6608-2.0808-3.2939-2.0808-3.2939s2.3442-.9667 2.4553-3.7193c.0919-2.3176-2.4045-3.451-2.4045-3.451s12.1751-2.9507 13.427-3.2407c1.247-.29 3.19-1.4863 2.5834-4.0939-.6018-2.61-2.9097-2.7018-4.1011-2.4239-1.1938.2779-16.298 3.7845-21.5083 4.9977l-3.4776.8072c-1.305.3069-1.8971-.2659-.9764-1.2374 1.2277-1.2953 2.0131-2.7284 2.2862-5.1064.2876-2.5012-.5607-5.5897-1.0464-6.7884-.9038-2.2258-2.4288-3.9851-4.1905-4.5893-2.7478-.9425-4.7004.7758-3.7265 3.7725 1.4597 4.4805.5027 8.1562-2.0131 10.3747-5.9184 5.2128-8.671 8.9296-6.8392 16.8514 2.001 8.6396 10.5778 14.2002 19.2174 12.1994z" fill="#f19020"/><path d="m22.4649 27.3482c-.3964-.2126-.7323-.5413-.9449-.9642-.522-1.0343-.0967-2.2403.9497-2.6873 10.3095-4.425 18.6059-.104 18.9539.0821 1.0464.5583 1.4694 1.8053.9449 2.7889-.522.9787-1.7883 1.3195-2.8347.7685-.2973-.1523-6.844-3.4607-15.1718.1135-.6211.2635-1.322.2055-1.8971-.1015zm29.3262 9.0625c-.377-.2368-.6911-.5872-.8748-1.0246-.4519-1.0682.0556-2.2403 1.131-2.6197 10.5874-3.712 18.5721 1.16 18.9056 1.3703 1.0029.6283 1.3412 1.9019.754 2.8468-.5849.9425-1.8754 1.1962-2.8783.5752-.29-.174-6.5902-3.9175-15.1452-.916-.6429.22-1.3364.1112-1.8923-.232z" fill="#65471b"/></svg>