<svg fill="none" height="156" viewBox="0 0 136 156" width="136" xmlns="http://www.w3.org/2000/svg"><circle cx="68" cy="78" fill="#e4e6e9" r="51"/><path d="m14.8643 71.344c21.696-15.04 32.544-27.52 32.544-37.44 0-3.008-.736-5.376-2.208-7.104-1.408-1.728-3.648-2.592-6.72-2.592-6.336 0-9.696 4.32-10.08 12.96h-13.152c.384-8 2.816-14.048 7.296-18.144 4.48-4.16 10.144-6.24 16.992-6.24 6.976 0 12.32 1.824 16.032 5.472 3.776 3.584 5.664 8.384 5.664 14.4 0 4.736-1.408 9.504-4.224 14.304-2.752 4.736-6.272 9.12-10.56 13.152-4.288 3.968-8.8 7.392-13.536 10.272h29.664v11.04h-47.712z" fill="#1f252a"/></svg>