<svg width="136" height="156" viewBox="0 0 136 156" fill="none" xmlns="http://www.w3.org/2000/svg">
<circle cx="68" cy="78" r="51" fill="#E3E3E3"/>
<path d="M0 36.1667C0 36.1667 0 26.5 9.66667 26.5H77.3333C77.3333 26.5 87 26.5 87 36.1667V79.6667C87 79.6667 87 89.3333 77.3333 89.3333H9.66667C9.66667 89.3333 0 89.3333 0 79.6667V36.1667Z" fill="#31373D"/>
<path d="M50.7502 82.0833C64.097 82.0833 74.9168 71.2635 74.9168 57.9167C74.9168 44.5698 64.097 33.75 50.7502 33.75C37.4033 33.75 26.5835 44.5698 26.5835 57.9167C26.5835 71.2635 37.4033 82.0833 50.7502 82.0833Z" fill="#CCD6DD"/>
<path d="M50.7498 77.25C61.4273 77.25 70.0832 68.5942 70.0832 57.9167C70.0832 47.2392 61.4273 38.5833 50.7498 38.5833C40.0723 38.5833 31.4165 47.2392 31.4165 57.9167C31.4165 68.5942 40.0723 77.25 50.7498 77.25Z" fill="#31373D"/>
<path d="M50.7498 70C57.4233 70 62.8332 64.5901 62.8332 57.9167C62.8332 51.2432 57.4233 45.8333 50.7498 45.8333C44.0764 45.8333 38.6665 51.2432 38.6665 57.9167C38.6665 64.5901 44.0764 70 50.7498 70Z" fill="#3B88C3"/>
<path d="M78.5415 38.5833C80.5435 38.5833 82.1665 36.9604 82.1665 34.9583C82.1665 32.9563 80.5435 31.3333 78.5415 31.3333C76.5395 31.3333 74.9165 32.9563 74.9165 34.9583C74.9165 36.9604 76.5395 38.5833 78.5415 38.5833Z" fill="white"/>
<path d="M38.6667 33.75L45.9167 19.25L31.4167 24.0833L21.75 12L16.9167 24.0833L2.41667 21.6667L12.0833 36.1667L0 45.8333H14.5L9.66667 60.3333L24.1667 53.0833L38.6667 65.1667L36.25 45.8333L50.75 43.4167L38.6667 33.75Z" fill="#FFAC33"/>
<path d="M24.1668 45.8333L16.9168 50.6667L19.3335 43.4167L12.0835 41L19.3335 36.1667L12.0835 28.9167H21.7502L24.1668 21.6667L29.0002 28.9167L36.2502 26.5L31.4168 33.75L38.6668 41L31.4168 43.4167L33.8335 53.0833L24.1668 45.8333Z" fill="white"/>
</svg>
