<svg fill="none" height="156" viewBox="0 0 136 156" width="136" xmlns="http://www.w3.org/2000/svg"><circle cx="68" cy="78" fill="#ffe4c2" r="51"/><path d="m39.1616 11.632c4.608 0 8.544.8 11.808 2.4 3.328 1.6 5.824 3.808 7.488 6.624 1.728 2.816 2.592 5.952 2.592 9.408 0 4.352-1.184 7.936-3.552 10.752-2.368 2.752-5.504 4.448-9.408 5.088v.48c9.472 2.816 14.208 8.384 14.208 16.704 0 5.824-1.952 10.56-5.856 14.208-3.904 3.584-9.408 5.376-16.512 5.376-7.552 0-13.568-1.856-18.048-5.568-4.48-3.776-6.976-9.44-7.488-16.992h13.248c.32 3.456 1.44 6.208 3.36 8.256 1.984 1.984 4.768 2.976 8.352 2.976 3.072 0 5.472-.832 7.2-2.496 1.728-1.728 2.592-3.968 2.592-6.72 0-3.264-1.248-5.76-3.744-7.488s-6.176-2.592-11.04-2.592h-2.784v-11.04h2.784c8.96.128 13.44-2.976 13.44-9.312 0-2.752-.8-4.896-2.4-6.432-1.6-1.6-3.776-2.4-6.528-2.4-2.88 0-5.248.928-7.104 2.784-1.856 1.792-2.912 4.32-3.168 7.584h-13.248c.384-6.912 2.624-12.224 6.72-15.936 4.096-3.776 9.792-5.664 17.088-5.664z" fill="#1f252a"/></svg>