<svg xmlns="http://www.w3.org/2000/svg" height="1559.119" width="1182.942">
  <path d="M887.208 1248.599v-857.63c0-8.17 6.62-14.79 14.787-14.79h266.167c8.16 0 14.78 6.62 14.78 14.79v858.64l-295.734-1.01m-577.691 310.52h563.91c8.824 0 17.286-3.5 23.526-9.74l276.249-276.25a33.19 33.19 0 0 0 6.75-9.74h-869.43l-1.005 295.73m-13.784-2.991a33.21 33.21 0 0 1-9.741-6.75L9.745 1273.128A33.265 33.265 0 0 1 0 1249.608v-859.65a33.252 33.252 0 0 1 9.745-23.523l267.06-267.066c6.985-6.985 18.932-2.04 18.932 7.849l-.004 1448.91" fill="#000"/>
  <path d="M887.205 11.103v254.181c0 8.163 6.62 14.783 14.786 14.783h254.178c9.882 0 14.83-11.944 7.845-18.929L906.136 3.27c-6.985-6.985-18.931-2.038-18.931 7.833" fill="#000"/>
</svg>