<svg width="198" height="32" viewBox="0 0 198 32" fill="none" xmlns="http://www.w3.org/2000/svg">
<g clip-path="url(#clip0_96_62116)">
<g clip-path="url(#clip1_96_62116)">
<g clip-path="url(#clip2_96_62116)">
<g clip-path="url(#clip3_96_62116)">
<path d="M22.8783 24.3782L12.2934 3.20849C12.0851 2.75009 11.8767 2.66675 11.6267 2.66675C11.4183 2.66675 11.1683 2.75009 10.9182 3.16682C9.41803 5.54216 8.75126 8.29256 8.75126 11.168C8.75126 15.1686 10.7932 18.9191 13.7937 24.9616C14.127 25.6284 14.3771 25.7534 14.9605 25.7534H22.2949C22.8366 25.7534 23.1283 25.5451 23.1283 25.1283C23.1283 24.92 23.0867 24.7949 22.8783 24.3782ZM7.50108 14.3768C6.66763 13.1266 6.41759 13.0432 6.20923 13.0432C6.00087 13.0432 5.87585 13.1266 5.50079 13.8767L0.208363 24.4616C0.0416727 24.7949 0 24.92 0 25.0867C0 25.42 0.291709 25.7534 0.916799 25.7534H8.37621C8.87628 25.7534 9.25134 25.3367 9.4597 24.5449C9.70974 23.5448 9.79308 22.6696 9.79308 21.6278C9.79308 18.7107 8.50123 15.877 7.50108 14.3768Z" fill="white"/>
</g>
<path d="M107.447 10.8278C107.447 13.8004 108.792 16.136 114.242 17.1977C117.427 17.9055 118.135 18.4009 118.135 19.4625C118.135 20.5242 117.427 21.1612 115.162 21.1612C112.543 21.1612 109.429 20.2411 107.377 19.0379V23.8507C109.004 24.6292 111.128 25.5493 115.162 25.5493C120.824 25.5493 123.018 23.0013 123.018 19.321M123.018 19.3918C123.018 15.8529 121.178 14.2251 115.87 13.0927C112.968 12.4557 112.26 11.8187 112.26 10.8986C112.26 9.76618 113.322 9.27075 115.233 9.27075C117.568 9.27075 119.833 9.97851 122.027 10.9694V6.36892C120.47 5.59038 118.135 5.02417 115.374 5.02417C110.137 5.02417 107.447 7.28901 107.447 10.9694" fill="white"/>
<path d="M179.922 5.16553V25.3368H184.24V9.97831L186.009 14.0126L192.096 25.3368H197.475V5.16553H193.228V18.1884L191.6 14.3664L186.717 5.16553H179.922Z" fill="white"/>
<path d="M152.603 5.16553H147.932V25.3368H152.603V5.16553Z" fill="white"/>
<path d="M142.553 19.321C142.553 15.7821 140.712 14.1543 135.404 13.0219C132.502 12.3849 131.795 11.7479 131.795 10.8278C131.795 9.69538 132.856 9.19994 134.767 9.19994C137.103 9.19994 139.368 9.90771 141.562 10.8986V6.29812C140.005 5.51958 137.669 4.95337 134.909 4.95337C129.671 4.95337 126.982 7.21821 126.982 10.8986C126.982 13.8712 128.327 16.2068 133.776 17.2684C136.961 17.9762 137.669 18.4716 137.669 19.5333C137.669 20.5949 136.961 21.2319 134.696 21.2319C132.078 21.2319 128.964 20.3118 126.911 19.1086V23.9214C128.539 24.6999 130.662 25.62 134.696 25.62C140.288 25.62 142.553 23.0721 142.553 19.321Z" fill="white"/>
<path d="M71.0685 5.16553V25.3368H80.6941L82.1804 20.9486H75.7397V5.16553H71.0685Z" fill="white"/>
<path d="M52.0298 5.16553V9.48288H57.1965V25.3368H61.9385V9.48288H67.5298V5.16553H52.0298Z" fill="white"/>
<path d="M45.1644 5.16553H39.0068L32 25.3368H37.379L38.3699 21.9395C39.5731 22.2934 40.847 22.5057 42.121 22.5057C43.395 22.5057 44.669 22.2934 45.8721 21.9395L46.863 25.3368H52.242C52.1712 25.3368 45.1644 5.16553 45.1644 5.16553ZM42.0502 18.2591C41.1301 18.2591 40.2808 18.1176 39.5023 17.9053L42.0502 9.129L44.5982 17.9053C43.8196 18.1176 42.9703 18.2591 42.0502 18.2591Z" fill="white"/>
<path d="M97.3265 5.16553H91.1689L84.0913 25.3368H89.4703L90.4612 21.9395C91.6644 22.2934 92.9383 22.5057 94.2123 22.5057C95.4863 22.5057 96.7603 22.2934 97.9635 21.9395L98.9543 25.3368H104.333L97.3265 5.16553ZM94.2123 18.2591C93.2922 18.2591 92.4429 18.1176 91.6644 17.9053L94.2123 9.129L96.7603 17.9053C95.9817 18.1176 95.1324 18.2591 94.2123 18.2591Z" fill="white"/>
<path d="M169.518 5.16553H163.361L156.354 25.3368H161.733L162.724 21.9395C163.927 22.2934 165.201 22.5057 166.475 22.5057C167.749 22.5057 169.023 22.2934 170.226 21.9395L171.217 25.3368H176.596L169.518 5.16553ZM166.475 18.2591C165.555 18.2591 164.705 18.1176 163.927 17.9053L166.475 9.129L169.023 17.9053C168.244 18.1176 167.324 18.2591 166.475 18.2591Z" fill="white"/>
</g>
</g>
</g>
<defs>
<clipPath id="clip0_96_62116">
<rect width="197.475" height="32" fill="white"/>
</clipPath>
<clipPath id="clip1_96_62116">
<rect width="197.475" height="32" fill="white"/>
</clipPath>
<clipPath id="clip2_96_62116">
<rect width="197.475" height="32" fill="white"/>
</clipPath>
<clipPath id="clip3_96_62116">
<rect width="23.1283" height="23.0867" fill="white" transform="translate(0 2.66675)"/>
</clipPath>
</defs>
</svg>
