<svg width="619" height="56" viewBox="0 0 619 56" fill="none" xmlns="http://www.w3.org/2000/svg">
<g clip-path="url(#clip0_56_12)">
<mask id="mask0_56_12" style="mask-type:luminance" maskUnits="userSpaceOnUse" x="0" y="0" width="619" height="56">
<path d="M619 0H0V56H619V0Z" fill="white"/>
</mask>
<g mask="url(#mask0_56_12)">
<path d="M310.53 55.9965V43.9984H362.36V33.8325H321.885L307.96 23.9224V9.91017L321.885 0H371.506V11.998H320.966V21.8346H361.441L375.363 31.7412V46.0899L361.441 55.9965H310.53Z" fill="white"/>
<path d="M141.796 55.9965L116.365 15.3259L90.8929 55.9965H75.875L110.929 0H121.76L156.814 55.9965H141.796Z" fill="white"/>
<path d="M181.183 55.9965V11.998H153.982V0H221.385V11.998H194.184V55.9965H181.183Z" fill="white"/>
<path d="M415.527 55.9965V11.998H388.326V0H455.732V11.998H428.532V55.9965H415.527Z" fill="white"/>
<path d="M0 55.9965V0H53.4811L67.4055 9.91017V46.0899L53.4811 56H0V55.9965ZM54.3997 43.9984V11.998H13.002V43.9984H54.3997Z" fill="white"/>
<path d="M541.146 55.9965L558.67 28L541.146 0H556.161L573.696 28L556.161 55.9965H541.146Z" fill="white"/>
<path d="M604.107 55.9965L586.567 28L604.107 0H619.12L601.593 28L619.12 55.9965H604.107Z" fill="white"/>
<path d="M284.473 55.9965L259 15.3259L233.565 55.9965H218.549L253.602 0H264.433L299.487 55.9965H284.473Z" fill="white"/>
<path d="M518.817 55.9965L493.348 15.3259L467.913 55.9965H452.896L487.949 0H498.78L533.835 55.9965H518.817Z" fill="white"/>
</g>
</g>
<defs>
<clipPath id="clip0_56_12">
<rect width="619" height="56" fill="white"/>
</clipPath>
</defs>
</svg>
