<svg width="430" height="148" viewBox="0 0 430 148" fill="none" xmlns="http://www.w3.org/2000/svg">
<path d="M206.464 100.483L209.431 100.181L209.629 106.202C203.034 107.196 196.379 107.742 189.71 107.836C182.354 107.836 177.145 105.706 174.083 101.446C171.021 97.1859 169.488 90.5629 169.482 81.5789C169.482 63.6719 176.6 54.7159 190.837 54.7109C197.717 54.7109 202.858 56.6339 206.258 60.4819C209.658 64.3289 211.361 70.3749 211.366 78.6199L210.962 84.4429H177.248C177.248 90.0959 178.269 94.2839 180.31 97.0079C182.351 99.7309 185.912 101.093 190.992 101.093C196.06 101.099 201.218 100.895 206.464 100.483ZM203.703 78.3189C203.703 72.0579 202.7 67.6309 200.693 65.0399C198.686 62.4479 195.433 61.1549 190.932 61.1609C186.402 61.1609 182.996 62.5229 180.714 65.2459C178.432 67.9699 177.251 72.3269 177.171 78.3189H203.703Z" fill="white"/>
<path d="M222.048 107.888V40.0898H229.711V107.888H222.048Z" fill="white"/>
<path d="M277.96 71.1722V96.9742C277.96 99.5542 284.324 99.4252 284.324 99.4252L283.929 106.193C278.545 106.193 274.09 106.641 271.415 104.052C265.631 106.624 259.365 107.931 253.036 107.888C248.34 107.888 244.765 106.557 242.311 103.897C239.857 101.237 238.63 97.4242 238.63 92.4582C238.63 87.4872 239.891 83.8263 242.414 81.4753C244.937 79.1253 248.887 77.6912 254.266 77.1752L270.297 75.6362V71.2492C270.297 67.7752 269.549 65.2892 268.052 63.7932C267.237 63.0202 266.273 62.4222 265.218 62.0352C264.164 61.6472 263.042 61.4792 261.92 61.5392H241.795V54.7192H261.456C267.247 54.7192 271.452 56.0493 274.073 58.7103C276.693 61.3703 277.989 65.5242 277.96 71.1722ZM246.499 92.0112C246.499 98.2722 249.08 101.403 254.24 101.403C258.901 101.398 263.527 100.604 267.923 99.0552L270.271 98.1953V81.3812L255.177 82.8172C252.116 83.0872 249.902 83.9702 248.538 85.4662C247.179 86.9712 246.499 89.1472 246.499 92.0112Z" fill="white"/>
<path d="M307.898 61.5648C300.479 61.5648 296.766 64.1448 296.761 69.3058C296.761 71.6848 297.621 73.3709 299.341 74.3629C301.061 75.3549 304.923 76.3868 310.926 77.4588C316.992 78.5198 321.292 80.0018 323.827 81.9048C326.361 83.8088 327.619 87.3839 327.602 92.6299C327.602 97.8769 325.919 101.724 322.554 104.172C319.188 106.62 314.266 107.847 307.787 107.853C303.564 107.853 289.476 106.288 289.476 106.288L289.88 99.6478C297.982 100.431 303.839 101.007 307.787 101.007C311.734 101.007 314.753 100.379 316.826 99.1149C318.898 97.8509 319.948 95.7439 319.948 92.7849C319.948 89.8269 319.088 87.8138 317.29 86.7648C315.493 85.7158 311.631 84.7089 305.645 83.7549C299.659 82.7999 295.393 81.3978 292.873 79.5658C290.353 77.7338 289.098 74.3198 289.098 69.3488C289.098 64.3778 290.818 60.6968 294.353 58.3138C297.887 55.9318 302.239 54.7358 307.486 54.7358C311.631 54.7358 326.045 55.7939 326.045 55.7939V62.4769C318.443 62.1159 312.199 61.5648 307.898 61.5648Z" fill="white"/>
<path d="M364.533 62.3822H348.321V86.7992C348.321 92.6592 348.748 96.5062 349.602 98.3412C350.462 100.182 352.475 101.102 355.683 101.102L364.774 100.483L365.281 106.821C361.842 107.456 358.361 107.833 354.866 107.948C349.551 107.948 345.873 106.652 343.831 104.06C341.79 101.469 340.767 96.5322 340.761 89.2502V62.3822H333.511V55.7432H340.761V40.1162H348.321V55.7432H364.567L364.533 62.3822Z" fill="white"/>
<path d="M375.18 48.9738V40.0898H382.843V48.9738H375.18ZM375.18 107.827V56.1299H382.843V107.827H375.18Z" fill="white"/>
<path d="M416.033 54.7192C419.86 54.8852 423.672 55.2992 427.445 55.9582L429.897 56.2592L429.587 62.4942C425.591 61.9862 421.573 61.6792 417.546 61.5742C411.755 61.5742 407.822 62.9532 405.746 65.7112C403.671 68.4692 402.633 73.5772 402.633 81.0372C402.633 88.4912 403.602 93.6822 405.54 96.6122C407.478 99.5422 411.514 101.007 417.649 101.007L429.69 100.087L430 106.417C425.305 107.217 420.561 107.697 415.8 107.853C407.836 107.853 402.338 105.809 399.305 101.721C396.271 97.6332 394.755 90.7532 394.755 81.0802C394.755 71.3672 396.389 64.5552 399.657 60.6452C402.925 56.7352 408.384 54.7592 416.033 54.7192Z" fill="white"/>
<path d="M148.264 77.459C148.28 71.447 146.438 65.577 142.991 60.651C139.545 55.725 134.661 51.983 129.008 49.937C129.522 47.314 129.781 44.647 129.782 41.973C129.802 33.104 127.007 24.458 121.797 17.2796C116.588 10.1017 109.234 4.76301 100.796 2.03311C92.357 -0.69689 83.27 -0.677087 74.843 2.08961C66.417 4.85621 59.086 10.2268 53.908 17.4274C50.087 14.4666 45.405 12.8317 40.572 12.7706C35.738 12.7094 31.017 14.2252 27.122 17.0884C23.227 19.9515 20.372 24.006 18.988 28.638C17.605 33.269 17.768 38.226 19.454 42.756C13.7789 44.823 8.87228 48.578 5.39438 53.517C1.91648 58.456 0.0339798 64.341 7.97501e-05 70.381C-0.0140203 76.42 1.84188 82.315 5.31298 87.257C8.78408 92.198 13.7 95.944 19.386 97.98C18.883 100.605 18.627 103.271 18.62 105.944C18.624 114.781 21.431 123.39 26.637 130.531C31.844 137.673 39.181 142.978 47.594 145.685C56.007 148.391 65.062 148.359 73.455 145.593C81.849 142.827 89.149 137.47 94.305 130.292C98.114 133.268 102.79 134.919 107.624 134.995C112.457 135.071 117.183 133.567 121.083 130.712C124.984 127.856 127.846 123.806 129.234 119.176C130.623 114.545 130.462 109.588 128.776 105.058C134.453 102.998 139.365 99.249 142.849 94.315C146.333 89.381 148.223 83.499 148.264 77.459ZM57.4 21.891C62.17 14.9399 69.193 9.84871 77.283 7.47801C85.373 5.10731 94.034 5.60251 101.801 8.87981C109.568 12.1572 115.966 18.0157 119.912 25.465C123.859 32.915 125.112 41.498 123.46 49.765L90.736 78.448L58.286 63.698L51.956 50.135L57.4 21.891ZM40.964 18.253C44.808 18.2497 48.546 19.5098 51.603 21.8394L46.735 47.116L24.503 41.87C23.539 39.218 23.227 36.372 23.593 33.574C23.96 30.776 24.993 28.106 26.607 25.791C28.221 23.4758 30.367 21.5825 32.866 20.2706C35.365 18.9587 38.142 18.2667 40.964 18.253ZM5.70218 70.45C5.74048 65.295 7.38698 60.281 10.4121 56.107C13.4371 51.934 17.69 48.808 22.576 47.168L46.976 52.93L52.704 65.169L21.501 93.361C16.862 91.589 12.8701 88.449 10.0549 84.358C7.23968 80.266 5.73378 75.416 5.73658 70.45H5.70218ZM90.976 125.94C86.565 132.428 80.19 137.331 72.787 139.928C65.384 142.526 57.343 142.681 49.845 140.372C42.347 138.062 35.787 133.41 31.128 127.097C26.469 120.784 23.957 113.144 23.961 105.299C23.958 102.847 24.197 100.402 24.675 97.997L56.626 69.168L89.196 84.013L96.412 97.773L90.976 125.94ZM107.266 129.561C103.434 129.551 99.713 128.279 96.678 125.94L101.512 100.749L123.727 105.909C124.691 108.562 125.003 111.407 124.637 114.206C124.27 117.004 123.237 119.673 121.623 121.988C120.009 124.304 117.863 126.197 115.364 127.509C112.865 128.821 110.088 129.513 107.266 129.526V129.561ZM125.688 100.68L101.228 94.961L94.735 82.55L126.72 54.496C131.364 56.252 135.363 59.379 138.186 63.462C141.01 67.546 142.524 72.391 142.528 77.356C142.502 82.514 140.865 87.535 137.846 91.717C134.827 95.899 130.576 99.033 125.688 100.68Z" fill="white"/>
</svg>
