<svg width="1129" height="343" viewBox="0 0 1129 343" fill="none" xmlns="http://www.w3.org/2000/svg">
<path d="M0 242.39V5.02002H41.6969V242.39H0Z" fill="white"/>
<path d="M148.431 70.188C94.9703 70.188 57.9746 111.293 57.9746 158.341C57.9746 210.849 98.2217 247.022 148.847 247.022C196.893 247.022 238.586 211.515 238.586 158.227C238.586 113.417 204.037 70.188 148.431 70.188ZM147.94 110.412C175.918 110.412 196.511 132.19 196.511 158.492C196.511 186.379 173.806 206.723 148.696 206.723C119.024 206.723 100.351 183.205 100.351 158.567C100.351 131.561 121.433 110.412 147.94 110.412Z" fill="white"/>
<path d="M343.349 70.188C289.888 70.188 252.893 111.293 252.893 158.341C252.893 210.849 293.14 247.022 343.765 247.022C391.811 247.022 433.504 211.515 433.504 158.227C433.504 126.847 419.914 112.924 419.914 112.924L431.471 108.961V75.1201H372.25C372.25 75.1201 359.411 70.188 343.349 70.188ZM342.858 110.412C370.836 110.412 391.429 132.19 391.429 158.492C391.429 186.379 368.724 206.723 343.614 206.723C313.942 206.723 295.269 183.205 295.269 158.567C295.269 131.561 316.351 110.412 342.858 110.412Z" fill="white"/>
<path d="M391.135 253.993C391.135 281.88 368.43 302.375 343.32 302.375C313.648 302.375 294.9 278.631 294.9 253.993H252.599C252.599 306.501 292.846 342.674 343.471 342.674C391.517 342.674 433.21 307.28 433.21 253.993H391.135Z" fill="white"/>
<path d="M450.206 242.391V75.1196H491.903V242.391H450.206Z" fill="white"/>
<path d="M532.39 242.391V112.587H510.031V75.12H532.39V23.7544H574.087V75.12H597.051V112.587H574.087V242.391H532.39Z" fill="white"/>
<path d="M498.579 27.6115C498.579 42.861 486.216 55.2231 470.967 55.2231C455.718 55.2231 443.355 42.861 443.355 27.6115C443.355 12.3621 455.718 0 470.967 0C486.216 0 498.579 12.3621 498.579 27.6115Z" fill="white"/>
<path d="M690.794 70.0737C637.08 70.0737 602.452 111.2 602.452 159.851C602.452 210.126 637.195 247.134 691.662 247.134C742.471 247.134 767.465 215.409 767.465 215.409L739.591 187.497C739.591 187.497 718.545 210.196 692.191 210.196C670.222 210.196 652.657 197.935 646.528 175.449H776.454V163.967C776.454 118.153 749.937 70.0737 690.794 70.0737ZM689.472 106.785C708.68 106.785 728.324 117.061 732.717 141.608H645.395C648.854 124.353 663.949 106.785 689.472 106.785Z" fill="white"/>
<path d="M880.75 247.157C826.884 247.157 790.181 206.131 790.181 157.758C790.181 107.837 831.662 70.043 880.577 70.043C927.864 70.043 952.068 103.425 952.068 103.425L922.981 132.38C922.981 132.38 906.132 110.61 880.379 110.61C851.837 110.61 832.321 132.444 832.321 158.398C832.321 185.802 853.081 206.828 880.058 206.828C906.226 206.828 922.941 185.093 922.941 185.093L952.319 214.033C952.319 214.033 928.35 247.157 880.75 247.157Z" fill="white"/>
<path d="M967.487 242.511V4.41602H1009.18V91.8933C1009.18 91.8933 1025.15 70.0424 1059.88 70.0424C1103.54 70.0424 1128.84 102.499 1128.84 144.01V242.511H1087.14V150.312C1087.14 122.424 1069.78 110.854 1050.54 110.854C1028.63 110.854 1009.18 123.326 1009.18 152.47V242.511H967.487Z" fill="white"/>
</svg>
