<svg width="921" height="271" viewBox="0 0 921 271" fill="none" xmlns="http://www.w3.org/2000/svg">
<g clip-path="url(#clip0_1778_6242)">
<path d="M350.181 131.295V197.176C350.181 224.276 339.033 236.892 315.344 236.892C287.939 236.892 282.133 215.399 282.133 197.176V131.295H274.004V197.176C274.004 228.248 287.939 244.134 315.344 244.134C343.678 244.134 358.078 228.482 358.078 197.176V131.295H350.181Z" fill="white"/>
<path d="M410.103 159.798C397.794 159.798 387.11 166.339 382.698 176.619C382.698 172.881 382.698 161.667 382.698 161.667H375.498V241.331H382.698V198.345C382.698 178.955 393.381 166.339 410.103 166.339C431.47 166.339 431.47 185.029 431.47 191.337V241.565H438.67V192.505C438.437 183.394 438.437 159.798 410.103 159.798Z" fill="white"/>
<path d="M456.089 161.666V241.33H463.056V161.666H462.36H456.089Z" fill="white"/>
<path d="M456.089 137.369V148.116H463.056V137.369H462.36H456.089Z" fill="white"/>
<path d="M533.66 161.666C533.66 161.666 508.577 230.116 507.648 232.453C506.719 230.116 479.778 161.666 479.778 161.666H471.649L503.467 241.33H511.596L541.556 161.666H540.627H533.66Z" fill="white"/>
<path d="M580.105 159.798C570.815 159.798 562.918 163.069 556.88 169.143C549.216 176.852 545.035 189.234 545.035 202.784C544.803 215.4 548.751 226.146 555.951 233.622C561.989 239.93 570.582 243.2 580.105 243.2C599.149 243.2 611.226 232.921 614.477 214.231L614.71 213.531H607.51V213.998C604.723 228.249 594.736 236.659 580.337 236.659C572.905 236.659 566.634 234.089 561.757 229.183C555.719 223.109 552.467 213.531 552.467 203.018C552.467 203.018 552.467 203.018 552.467 202.784C553.861 202.784 615.406 202.784 615.406 202.784V202.083C615.406 201.149 615.406 199.981 615.406 199.046C615.406 186.898 611.69 176.385 605.187 169.376C598.684 163.302 590.323 159.798 580.105 159.798ZM580.105 166.339C597.755 166.339 607.278 181.525 607.974 196.71C606.581 196.71 553.861 196.71 552.467 196.71C553.861 181.525 563.615 166.339 580.105 166.339Z" fill="white"/>
<path d="M634.918 177.553C634.918 174.048 634.918 161.667 634.918 161.667H627.719V241.331H634.918V197.878C635.615 185.963 638.17 181.524 643.512 175.684C651.873 167.507 661.627 167.974 664.414 168.208H665.111V161.199H664.414C651.64 160.732 639.099 167.741 634.918 177.553Z" fill="white"/>
<path d="M702.737 197.177L700.414 196.71C688.57 194.14 677.422 191.804 677.422 180.59C677.422 170.077 688.57 166.106 699.253 166.106C707.614 166.106 721.549 168.675 721.549 185.496V186.197H728.749V185.496C728.749 168.909 718.297 159.798 699.253 159.798C692.518 159.798 670.454 161.2 670.454 180.59C670.454 197.878 686.247 201.149 697.86 203.485L699.95 203.952C712.259 206.522 724.104 208.858 724.104 220.773C724.104 235.257 707.382 236.659 700.182 236.659C685.783 236.659 676.028 228.015 675.099 214.465V213.764H668.132V214.465C668.596 231.987 680.905 242.967 700.414 242.967C707.614 242.967 731.536 241.331 731.536 220.539C730.839 203.952 718.065 200.214 702.737 197.177Z" fill="white"/>
<path d="M745.469 161.666V241.33H752.668V161.666H751.972H745.469Z" fill="white"/>
<path d="M863.218 161.666C863.218 161.666 838.135 228.948 836.974 231.986C835.813 228.948 808.407 161.666 808.407 161.666C808.407 161.666 784.253 161.666 783.092 161.666C783.092 160.498 783.092 137.369 783.092 137.369H782.396H775.893C775.893 137.369 775.893 160.498 775.893 161.666C774.731 161.666 761.493 161.666 761.493 161.666V168.207C761.493 168.207 774.731 168.207 775.893 168.207C775.893 169.609 775.893 222.173 775.893 222.173C775.893 222.641 775.893 223.108 775.893 223.575C775.893 229.649 777.286 234.088 780.538 237.125C785.182 241.798 793.079 241.798 799.35 241.564H800.046V235.256H799.35C792.847 235.49 788.666 235.023 786.112 232.453C784.021 230.584 783.092 227.313 783.092 222.173C783.092 222.173 783.092 169.375 783.092 168.207C784.253 168.207 802.137 168.207 802.833 168.207C803.066 169.142 832.793 239.929 833.026 240.396C829.542 250.442 827.452 256.048 825.129 258.385C821.413 262.123 817.697 263.291 809.336 263.291H808.64V269.598H809.336C817.93 269.598 823.504 269.365 827.916 265.861C831.168 263.291 833.722 257.684 837.206 249.507L870.882 161.899H863.218V161.666Z" fill="white"/>
<path d="M745.469 137.369V148.116H752.668V137.369H751.972H745.469Z" fill="white"/>
<path d="M454 114.241C422.414 113.54 395.938 89.2435 396.635 55.3685C397.564 28.7358 418.698 -1.4013 457.251 -0.233194C484.192 0.234047 514.152 20.559 513.455 57.9384C512.526 95.5513 481.173 115.175 454 114.241ZM455.161 7.00905C431.007 7.00905 414.285 24.7642 414.285 54.9013C414.285 90.8789 435.42 106.999 455.393 106.999C479.547 106.999 495.572 88.3091 495.572 58.8728C495.805 27.1004 479.547 7.00905 455.161 7.00905Z" fill="white"/>
<path d="M918.031 3.03671V1.40137H886.445V3.03671C892.716 3.50395 894.341 4.67206 894.341 13.5496V52.3307H837.673V13.5496C837.673 4.67206 839.298 3.27033 845.569 3.03671V1.40137H813.983V3.03671C820.254 3.50395 821.88 4.67206 821.88 13.5496V100.457C821.88 109.334 820.254 110.736 813.983 110.969V112.605H845.569V110.969C839.298 110.502 837.673 109.334 837.673 100.457V59.1057H894.341V100.69C894.341 109.568 892.716 110.969 886.445 111.203V112.838H918.031V111.203C911.76 110.736 910.134 109.568 910.134 100.69V13.7833C910.134 4.67206 911.76 3.50395 918.031 3.03671Z" fill="white"/>
<path d="M521.812 1.40137V3.03671C527.851 3.27033 529.709 3.9712 529.709 10.5126V100.69C529.709 109.568 528.083 110.969 521.812 111.203V112.838H545.734V111.203C539.463 110.736 537.838 109.568 537.838 100.69V19.6238C537.838 21.0255 599.383 96.485 612.854 112.838H615.409V10.5126C615.409 3.9712 617.034 3.50395 623.305 3.03671V1.40137H599.848V3.03671C605.886 3.27033 607.744 3.9712 607.744 10.5126V81.2997L542.715 1.40137H521.812Z" fill="white"/>
<path d="M676.954 1.40137H674.864C669.29 14.7177 643.278 76.3936 634.452 97.6531C632.827 101.391 630.272 107.232 628.414 109.334C627.02 110.969 625.627 110.969 624.233 111.203V112.838H645.368V111.203C643.742 111.203 640.026 111.203 639.794 107.932C639.794 106.998 640.026 105.83 640.491 104.662C641.188 102.793 645.368 91.8126 650.71 79.6643H692.747C696.927 89.9436 700.643 98.8212 702.501 102.793C702.966 103.961 704.127 106.764 704.127 107.932C704.127 110.969 701.34 111.203 698.321 111.203V112.838H727.816V111.203C724.1 110.969 722.939 110.035 720.384 103.961L676.954 1.40137ZM653.264 72.6557C660.464 54.9005 671.38 26.866 671.38 26.866C671.38 26.866 681.367 52.0971 689.727 72.6557H653.264Z" fill="white"/>
<path d="M267.735 1.40137V3.03671C271.219 3.27033 273.077 3.50395 274.238 4.90568C274.47 5.37292 274.935 6.07378 275.167 6.54102C275.399 7.00826 275.399 7.70913 275.399 8.40999C275.399 9.11085 275.399 9.81171 275.399 10.5126V100.69C275.399 109.568 273.774 110.969 267.503 111.203V112.838H291.192V111.203C284.922 110.736 283.296 109.568 283.296 100.69V23.3617C283.296 21.96 283.064 19.1565 283.064 19.1565L284.457 23.3617L322.778 112.371H325.101L364.118 20.7919L365.279 17.054C365.279 17.054 365.047 18.9229 365.047 20.5583V100.69C365.047 109.568 363.421 110.969 357.151 111.203V112.838H388.737V111.203C382.466 110.736 380.84 109.568 380.84 100.69V10.5126C380.84 3.9712 382.466 3.50395 388.737 3.03671V1.40137H364.118L328.816 85.5048L293.05 1.40137H267.735Z" fill="white"/>
<path d="M733.161 105.363C740.593 109.801 751.509 114.474 763.353 114.474C763.586 114.474 763.818 114.474 764.05 114.474C781.237 114.24 799.584 101.391 799.584 81.0661C799.584 59.1058 784.256 53.9661 768.927 46.023C753.367 38.3136 746.864 34.342 746.864 24.0627C746.864 17.0541 751.044 6.77478 764.979 6.77478C769.392 6.77478 773.34 7.94288 776.592 9.57822C787.74 15.886 788.436 24.7636 789.83 30.3705H791.456L790.527 5.60667C783.327 2.56961 777.753 1.16788 773.805 0.70064C771.482 0.467019 769.16 0.233398 767.302 0.233398C751.741 0.233398 733.626 9.57822 733.626 29.2024C733.626 42.5187 741.522 50.9291 757.315 58.8722C772.876 66.8153 784.72 70.086 784.72 85.7386C784.72 93.6817 780.075 107.699 762.657 107.699C755.689 107.699 750.115 105.363 745.703 101.625C735.251 91.8127 735.484 83.8696 734.787 80.8325H733.161V105.363Z" fill="white"/>
<path d="M164.618 54.9H162.76V15.6517C164.385 19.6233 164.618 23.5948 164.618 26.8655V54.9ZM90.7627 39.2474C93.0852 39.9483 95.6399 40.4155 98.4269 40.6492V38.7802C96.1044 38.5466 93.5497 38.0793 91.2272 37.3785C88.2079 36.6776 85.421 35.9767 82.634 35.9767C81.2405 35.9767 79.847 36.2104 78.6858 36.6776V38.7802C79.6148 38.3129 81.0082 38.0793 82.634 38.0793C85.1887 37.8457 87.9757 38.5466 90.7627 39.2474ZM68.2346 37.8457C69.8603 37.8457 71.2538 38.0793 72.1828 38.5466V36.444C71.0216 35.9767 69.6281 35.7431 68.2346 35.7431C65.4476 35.7431 62.6606 36.444 59.6414 37.1448C57.3189 37.8457 54.9964 38.3129 52.4417 38.5466V40.4155C54.9964 40.1819 57.5512 39.7147 60.1059 39.0138C63.1251 38.5466 65.6798 37.8457 68.2346 37.8457ZM68.2346 33.1733C69.8603 33.1733 71.2538 33.6405 72.1828 33.8741V31.7716C71.0216 31.3043 69.6281 31.3043 68.2346 31.0707C65.4476 31.0707 62.6606 31.7716 59.6414 32.4724C57.3189 33.1733 54.9964 33.6405 52.4417 33.8741V35.7431C55.2287 35.5095 57.5512 35.0423 60.1059 34.3414C63.1251 33.6405 65.6798 32.9397 68.2346 33.1733ZM68.2346 42.7517C69.8603 42.7517 71.2538 42.9854 72.1828 43.4526V41.35C71.0216 40.8828 69.6281 40.8828 68.2346 40.6492C65.4476 40.6492 62.6606 41.35 59.6414 42.0509C57.3189 42.7517 54.9964 43.219 52.4417 43.4526V45.3216C55.2287 45.0879 57.5512 44.3871 60.1059 43.9198C63.1251 43.219 65.6798 42.5181 68.2346 42.7517ZM68.2346 28.2673C69.8603 28.2673 71.2538 28.7345 72.1828 28.9681V26.8655C71.0216 26.3983 69.6281 26.1647 68.2346 26.1647C65.4476 26.1647 62.6606 26.8655 59.6414 27.5664C57.3189 28.2673 54.9964 28.7345 52.4417 28.9681V30.8371C54.9964 30.6035 57.5512 30.1362 60.1059 29.4354C63.1251 28.9681 65.6798 28.2673 68.2346 28.2673ZM55.6932 171.243C32.7006 133.163 33.1651 96.0173 33.1651 91.3448V1.40088H207.351V91.3448C207.351 96.0173 207.816 133.163 184.823 171.243C164.385 205.819 133.496 221.004 120.258 225.677C107.252 221.004 76.3633 205.819 55.6932 171.243ZM102.143 164.234L97.4979 160.497L100.053 154.89L94.0142 156.058L91.4594 150.684L88.6724 156.058L82.8662 154.89L85.421 160.497L80.776 164.234L86.5822 165.636V171.71L91.4594 167.972L96.1044 171.71V165.636L102.143 164.234ZM126.993 202.315L132.8 199.511L126.993 196.941L129.084 190.867L123.045 193.203L120.49 187.363L117.936 192.97L111.897 190.634L114.22 196.708L108.414 199.278L114.22 202.081L111.897 208.155L117.936 205.819L120.49 211.659L123.045 205.819L129.084 208.155L126.993 202.315ZM114.22 132.696L109.575 136.667L115.381 138.069V144.143L120.026 140.405L124.903 144.143L125.135 138.069L130.942 136.667L126.297 132.696L128.851 127.089L122.813 128.257L120.258 122.884L117.704 128.257L111.665 127.089L114.22 132.696ZM134.658 171.009L138.141 167.272L133.032 166.337L130.709 161.665L128.387 166.337L123.277 167.272L126.993 171.009L126.064 176.149L130.709 173.813L135.354 176.149L134.658 171.009ZM151.844 152.553L154.631 147.881H149.289L146.735 143.209L144.18 147.881H138.838L141.625 152.553L138.838 157.226H144.18L146.735 161.898L149.289 157.226H154.631L151.844 152.553ZM192.72 39.9483C191.326 40.6492 190.165 41.8173 189.468 43.219C188.772 44.3871 188.539 45.5552 188.539 46.7233C188.539 46.9569 188.539 47.1905 188.539 47.6578C189.236 47.1905 189.933 46.7233 190.63 46.256C191.094 45.7888 191.559 45.0879 192.023 44.6207C192.488 43.6862 192.72 42.2845 192.72 41.1164C192.72 40.6492 192.72 40.1819 192.72 39.9483ZM174.604 66.8147C175.998 67.5155 177.624 67.7491 179.249 67.5155C180.875 67.2819 182.036 66.581 183.198 65.4129C181.804 64.7121 180.411 64.4785 178.785 64.7121C177.159 64.9457 175.766 65.8802 174.604 66.8147ZM174.604 64.2448C175.301 63.0767 175.766 61.675 175.766 60.2733C175.766 60.0397 175.766 60.0397 175.766 59.806C174.372 60.5069 173.211 61.4414 172.282 62.6095C171.585 63.7776 171.121 65.1793 171.121 66.581C171.121 66.8147 171.121 66.8147 171.121 67.0483C172.746 66.581 173.908 65.6466 174.604 64.2448ZM176.462 63.7776C176.462 63.7776 176.462 64.0112 176.462 63.7776C176.927 63.7776 177.159 63.7776 177.391 63.544C178.32 62.8431 178.785 61.9086 179.249 60.7405C179.482 60.0397 179.714 59.1052 179.714 58.4043C179.714 57.7035 179.482 57.0026 179.249 56.3017C178.32 57.0026 177.624 57.7035 177.159 58.6379C177.159 60.7405 176.927 62.3759 176.462 63.7776ZM180.875 60.0397C180.875 60.2733 180.875 60.2733 180.875 60.0397C181.34 60.0397 181.572 59.806 181.804 59.5724C182.501 58.6379 182.733 57.7035 182.965 56.5354C182.965 56.3017 182.965 56.0681 182.965 55.8345C182.965 54.6664 182.501 53.2647 181.804 52.0966C181.107 53.031 180.411 53.9655 180.178 54.9C180.875 57.0026 181.107 58.4043 180.875 60.0397ZM184.127 55.3673C184.127 55.6009 184.127 55.6009 184.127 55.3673C184.591 55.3673 184.823 55.1336 185.056 54.6664C185.288 53.9655 185.52 53.2647 185.52 52.3302C185.52 52.0966 185.52 51.6293 185.52 51.3957C185.288 49.994 184.591 48.5923 183.43 47.4241C182.965 48.3586 182.733 49.5267 182.733 50.4612C183.43 52.3302 183.894 53.7319 184.127 55.3673ZM186.449 49.994C186.449 50.2276 186.449 50.2276 186.449 49.994C186.914 49.7604 186.914 49.5267 187.146 49.0595C187.146 48.8259 187.146 48.8259 187.146 48.5923C187.146 47.6578 186.914 46.7233 186.681 45.7888C186.217 44.3871 185.056 43.4526 183.662 42.5181C183.43 42.9854 183.43 43.6862 183.43 44.1535C183.43 44.6207 183.43 45.0879 183.662 45.5552C185.056 47.1905 185.985 48.5923 186.449 49.994ZM187.378 44.3871C187.61 44.1535 187.843 43.6862 187.843 43.4526C187.61 42.2845 187.378 41.35 186.681 40.4155C185.752 39.2474 184.591 38.3129 182.965 37.8457C182.965 39.0138 183.198 40.1819 183.662 41.1164C185.288 41.8173 186.449 42.9854 187.378 44.3871ZM187.146 37.6121C186.681 36.444 186.217 35.5095 185.288 34.8086C184.127 33.8741 182.965 33.4069 181.34 33.1733C181.572 34.3414 182.036 35.2759 182.733 35.9767C184.359 36.444 185.752 37.3785 186.914 38.3129H187.146C187.146 38.3129 187.146 38.0793 187.146 37.6121ZM185.288 33.1733C185.288 32.706 185.056 32.4724 185.056 32.0052C184.359 31.0707 183.662 30.3698 182.733 29.9026C181.34 29.2017 179.946 28.9681 178.32 29.2017C179.017 30.1362 179.482 31.0707 180.411 31.7716C182.269 31.7716 183.894 32.2388 185.288 33.1733ZM184.359 63.0767C185.752 62.6095 186.914 61.4414 187.843 60.0397C186.217 59.806 184.591 59.806 183.198 60.2733C182.036 60.7405 180.875 61.9086 179.946 63.0767C180.643 63.0767 181.572 63.3104 182.269 63.544C182.965 63.544 183.662 63.544 184.359 63.0767ZM188.307 57.7035C189.468 56.769 190.397 55.3673 191.094 53.7319C189.468 53.7319 187.843 54.1992 186.681 55.1336C185.52 56.0681 184.591 57.2362 184.127 58.6379C184.823 58.4043 185.752 58.4043 186.449 58.4043C187.146 58.4043 187.843 58.1707 188.307 57.7035ZM192.488 46.9569C191.094 47.4241 189.701 48.125 188.539 49.2931C187.61 50.4612 187.146 51.8629 186.914 53.4983C187.61 53.2647 188.307 53.031 189.236 52.7974C189.933 52.3302 190.397 51.8629 190.862 51.3957C192.023 50.2276 192.488 48.5923 192.488 46.9569ZM191.094 32.9397C189.933 34.1078 189.004 35.2759 188.539 36.9112C188.307 37.3785 188.307 38.0793 188.307 38.7802C188.307 39.7147 188.539 40.6492 188.772 41.35C189.236 40.6492 189.933 40.1819 190.397 39.7147C190.862 39.0138 191.094 38.3129 191.326 37.6121C191.559 37.1448 191.559 36.444 191.559 35.9767C191.791 35.0423 191.559 34.1078 191.094 32.9397ZM186.449 31.0707C186.449 32.4724 186.914 33.8742 187.843 35.2759C188.075 34.575 188.539 33.8741 189.004 33.1733C189.236 32.4724 189.468 31.7716 189.468 31.0707C189.468 29.4354 189.004 28.0336 188.075 26.6319C187.146 28.0336 186.449 29.4354 186.449 31.0707ZM182.733 24.2957C182.733 24.7629 182.733 25.4638 182.965 25.931C183.198 27.3328 184.127 28.5009 185.288 29.669C185.52 28.9681 185.752 28.0336 185.985 27.3328C185.985 27.0992 185.985 27.0992 185.985 26.8655C185.985 26.3983 185.985 25.931 185.752 25.2302C185.288 23.8285 184.591 22.4267 183.198 21.2586C182.965 22.1931 182.733 23.1276 182.733 24.2957ZM182.036 27.0992C181.107 26.3983 180.178 25.931 179.249 25.4638C177.856 24.9966 176.23 25.2302 174.837 25.6974C175.533 26.6319 176.462 27.3328 177.391 27.8C179.017 27.5664 180.875 27.5664 182.269 28.0336H182.501C182.269 27.8 182.269 27.5664 182.036 27.0992ZM177.624 18.2216C177.624 19.3897 177.856 20.5578 178.32 21.7259C179.017 23.1276 180.178 24.0621 181.572 24.7629C181.572 23.8285 181.572 23.1276 181.804 22.1931C181.572 21.4923 181.572 20.7914 181.107 20.3242C180.411 18.9224 179.249 17.7543 177.856 17.0535C177.624 17.5207 177.624 17.7543 177.624 18.2216ZM171.585 18.6888C172.05 20.3242 172.979 21.7259 174.14 22.4267C175.301 23.1276 176.695 23.5948 178.088 23.8285C177.624 23.3612 177.391 22.894 176.927 22.1931C176.695 21.7259 176.462 21.025 176.23 20.5578C175.998 20.3242 175.998 20.3242 175.766 20.0905C174.837 19.156 173.443 18.6888 171.585 18.6888ZM153.47 55.3673C153.47 56.5354 154.399 57.9371 156.489 57.9371H160.437C159.973 59.3388 159.508 61.4414 159.508 63.544C159.508 66.3474 159.973 68.6836 160.902 70.319C157.882 69.8517 155.792 69.1509 153.702 67.9828H153.47L153.005 69.1509H153.238C155.095 70.0854 156.721 70.5526 158.811 71.2535C158.811 71.2535 160.437 71.4871 161.598 71.7207C161.366 71.9543 161.134 72.4216 161.134 72.8888C161.134 73.8233 161.831 74.5241 162.76 74.5241C163.689 74.5241 164.385 73.8233 164.385 72.8888C164.385 72.4216 164.153 71.9543 163.921 71.7207C165.082 71.4871 166.476 71.2535 166.476 71.2535C168.566 70.7862 170.424 70.319 172.282 69.1509H172.514L172.05 67.7491H171.817C169.727 68.9173 167.637 69.6181 164.618 70.0854C165.314 68.45 166.011 66.1138 166.011 63.3104C166.011 61.2078 165.779 59.1052 165.082 57.7035H169.03C171.121 57.7035 172.05 56.5354 172.05 55.1336C172.05 54.1992 171.353 53.2647 170.192 53.2647C169.263 53.2647 168.334 53.9655 168.334 55.1336C168.334 55.3673 168.334 55.6009 168.566 55.8345C168.798 56.0681 168.798 56.5354 168.101 56.5354H165.779V26.8655C165.779 22.894 165.547 17.9879 163.224 13.3155L162.527 11.9138L161.831 13.3155C159.508 17.9879 159.276 22.894 159.276 26.8655V56.5354H156.953C156.257 56.5354 156.489 56.0681 156.489 55.8345C156.489 55.6009 156.721 55.3673 156.721 55.1336C156.721 54.1992 156.024 53.2647 155.096 53.2647C154.399 53.4983 153.47 54.4328 153.47 55.3673ZM148.593 58.8716C148.128 57.9371 147.431 57.2362 146.502 56.5354C146.27 57.2362 146.038 57.9371 146.038 58.6379C146.038 59.3388 146.27 60.2733 146.502 60.9741C146.735 62.1423 147.431 62.8431 148.128 63.7776C148.36 63.7776 148.825 64.0112 149.057 64.0112V63.7776C148.593 62.3759 148.36 60.7405 148.593 58.8716ZM147.199 29.2017C145.806 28.9681 144.18 29.2017 142.786 29.9026C141.857 30.3698 140.928 31.0707 140.464 32.0052C140.464 32.4724 140.464 32.706 140.232 33.1733H140.464C141.857 32.2388 143.483 31.7716 145.341 31.7716C146.038 31.0707 146.735 30.1362 147.199 29.2017ZM145.573 55.1336C145.341 54.1992 144.644 53.2647 143.948 52.3302C143.251 53.4983 142.786 54.6664 142.786 56.0681C142.786 56.3017 142.786 56.5354 142.786 56.769C142.786 57.9371 143.251 58.8716 143.948 59.806C144.18 60.0397 144.644 60.2733 144.877 60.5069V60.2733C144.644 58.4043 144.877 57.0026 145.573 55.1336ZM140.232 52.5638C140.232 53.2647 140.464 53.9655 140.696 54.9C140.928 55.1336 141.161 55.3672 141.393 55.6009C141.393 55.6009 141.393 55.3673 141.625 55.3673C141.857 53.7319 142.322 52.0966 143.251 50.6948C143.251 49.5267 142.786 48.5923 142.322 47.6578C141.161 48.8259 140.464 50.2276 140.232 51.6293C140.232 51.8629 140.232 52.3302 140.232 52.5638ZM142.09 46.0224C142.322 45.5552 142.322 45.0879 142.322 44.6207C142.322 44.1535 142.09 43.4526 142.09 42.9854C140.696 43.9198 139.767 44.8543 139.07 46.256C138.606 47.1905 138.606 48.125 138.606 49.0595C138.606 49.2931 138.606 49.2931 138.606 49.5267C138.838 49.7604 139.07 50.2276 139.07 50.4612C139.07 50.4612 139.303 50.4612 139.303 50.2276C139.767 48.5923 140.696 47.1905 142.09 46.0224ZM138.606 37.6121C138.606 37.8457 138.606 38.3129 138.606 38.5466H138.838C139.999 37.3785 141.393 36.6776 143.019 36.2104C143.715 35.2759 144.18 34.3414 144.412 33.4069C142.786 33.6405 141.393 34.1078 140.232 35.0423C139.535 35.5095 138.838 36.6776 138.606 37.6121ZM137.909 43.4526C138.141 43.6862 138.141 44.1535 138.141 44.6207C138.141 44.6207 138.141 44.6207 138.374 44.6207C139.303 43.219 140.464 42.0509 142.09 41.35C142.554 40.4155 142.786 39.2474 142.786 38.0793C141.161 38.5466 139.999 39.481 139.07 40.6492C138.374 41.35 137.909 42.2845 137.909 43.4526ZM136.98 49.2931C136.051 48.125 134.658 47.4241 133.032 46.9569C133.264 48.5923 133.729 49.994 134.658 51.1621C135.122 51.6293 135.819 52.0966 136.283 52.5638C136.98 52.7974 137.677 53.031 138.374 53.2647C138.374 51.8629 137.909 50.4612 136.98 49.2931ZM134.658 53.7319C135.122 55.3673 136.051 56.769 137.212 57.7035C137.677 58.1707 138.374 58.4043 139.07 58.6379C139.999 58.6379 140.696 58.6379 141.393 58.8716C140.696 57.4698 139.999 56.0681 138.838 55.3673C137.909 54.1992 136.283 53.7319 134.658 53.7319ZM137.909 60.2733C138.838 61.675 139.767 62.6095 141.393 63.3104C142.09 63.544 142.786 63.7776 143.483 63.7776C144.18 63.544 145.109 63.544 145.806 63.3104C144.877 62.1423 143.715 60.9741 142.554 60.5069C141.161 59.806 139.535 59.806 137.909 60.2733ZM142.554 65.6466C143.715 66.8147 145.109 67.5155 146.735 67.7491C148.128 67.9828 149.754 67.5155 151.147 67.0483C149.986 65.8802 148.593 65.1793 146.967 64.9457C145.573 64.4785 143.948 64.9457 142.554 65.6466ZM154.631 67.0483C154.631 66.8147 154.631 66.8147 154.631 66.581C154.631 65.1793 154.167 63.7776 153.47 62.6095C152.541 61.4414 151.38 60.5069 149.986 59.806C149.986 60.0397 149.986 60.0397 149.986 60.2733C149.986 61.675 150.451 63.0767 151.147 64.2448C151.844 65.6466 153.005 66.581 154.631 67.0483ZM148.593 22.1931C148.36 22.6604 147.896 23.3612 147.431 23.8285C148.825 23.8285 150.218 23.3612 151.38 22.4267C152.541 21.4923 153.47 20.0905 154.167 18.6888C152.541 18.6888 150.915 19.156 149.754 20.0905C149.522 20.3242 149.522 20.3242 149.289 20.5578C149.057 21.025 148.825 21.7259 148.593 22.1931ZM143.948 22.1931C144.18 23.1276 144.18 23.8285 144.18 24.7629C145.573 24.0621 146.735 22.894 147.199 21.7259C147.896 20.5578 148.128 19.3897 148.128 18.2216C148.128 17.7543 148.128 17.5207 147.896 17.0535C146.502 17.7543 145.341 18.9224 144.644 20.3242C144.412 21.025 144.18 21.4923 143.948 22.1931ZM143.251 28.2673C143.251 28.2673 143.483 28.2673 143.251 28.2673C145.109 27.8 146.735 27.8 148.36 28.0336C149.289 27.5664 150.218 26.8655 150.915 25.931C149.522 25.4638 147.896 25.2302 146.502 25.6974C145.341 25.931 144.412 26.3983 143.715 27.3328C143.483 27.5664 143.483 27.8 143.251 28.2673ZM139.535 26.8655C139.535 27.0992 139.535 27.0992 139.535 27.3328C139.999 28.0336 140.232 28.9681 140.232 29.669C141.393 28.5009 142.09 27.3328 142.554 25.931C142.786 25.4638 142.786 24.7629 142.786 24.2957C142.786 23.3612 142.554 22.1931 142.09 21.2586C140.928 22.4267 139.999 23.5948 139.535 25.2302C139.767 25.6974 139.535 26.1647 139.535 26.8655ZM136.283 31.0707C136.283 31.7716 136.516 32.4724 136.748 33.1733C137.212 33.8741 137.677 34.575 137.909 35.2759C138.606 34.1078 139.303 32.706 139.303 31.0707C139.303 29.669 138.606 28.0336 137.909 26.6319C136.98 28.0336 136.283 29.4354 136.283 31.0707ZM133.961 35.9767C133.961 36.6776 133.961 37.1448 134.193 37.6121C134.425 38.3129 134.658 39.0138 135.122 39.7147C135.819 40.1819 136.283 40.6492 136.748 41.35C136.98 40.4155 137.212 39.481 137.212 38.7802C137.212 38.0793 137.212 37.6121 136.98 36.9112C136.516 35.5095 135.587 34.1078 134.425 32.9397C134.193 33.8742 133.961 35.0423 133.961 35.9767ZM132.8 40.8828C132.8 42.0509 133.032 43.4526 133.729 44.3871C133.961 45.0879 134.425 45.5552 135.122 46.0224C135.819 46.256 136.516 46.7233 137.212 47.1905C137.212 46.9569 137.212 46.4897 137.212 46.256C137.212 45.0879 136.98 43.9198 136.283 42.7517C135.587 41.35 134.425 40.1819 132.8 39.481C132.8 40.1819 132.8 40.6492 132.8 40.8828ZM76.3633 59.3388C77.989 58.1707 80.0792 57.7035 82.634 57.7035C85.421 57.7035 88.2079 58.1707 91.2272 59.1052C94.2464 59.806 97.7301 60.7405 100.982 60.5069C100.982 58.8716 100.982 26.1647 100.982 20.0905C100.982 19.6233 100.982 19.3897 100.982 19.156C97.4979 19.3897 94.0142 18.4552 90.7627 17.7543C87.9757 17.0535 85.1887 16.3526 82.8662 16.5862C79.3825 16.5862 77.5245 17.7543 76.3633 18.6888V20.0905V59.3388ZM50.1192 60.2733C53.3707 60.5069 56.6222 59.806 59.8736 58.8716C62.8929 58.1707 65.6798 57.4698 68.4668 57.4698C71.0216 57.4698 73.1118 58.1707 74.7375 59.1052V20.0905V18.6888C73.5763 17.5207 71.7183 16.5862 68.2346 16.5862C65.6798 16.5862 63.1251 17.0535 60.3381 17.7543C57.0867 18.6888 53.8352 19.3897 50.1192 19.156C50.1192 19.3897 50.1192 19.6233 50.1192 20.0905C50.1192 25.931 50.1192 58.8716 50.1192 60.2733ZM43.8485 66.8147C43.8485 66.8147 71.0216 66.8147 71.9506 66.8147C72.6473 67.9828 73.8085 68.9173 75.4343 68.9173C77.06 68.9173 78.4535 67.9828 78.918 66.8147C79.847 66.8147 107.02 66.8147 107.02 66.8147V20.0905H106.091H103.536L103.769 21.025V21.2586V63.544C101.678 63.544 78.918 63.544 77.7568 63.544C77.2923 64.2448 76.8278 64.4785 75.4343 64.4785C74.273 64.4785 73.8085 64.2448 73.344 63.544C72.1828 63.544 51.2804 63.544 47.1 63.544V21.2586V21.025L47.3322 20.0905H43.8485V66.8147ZM54.0674 160.497L120.258 100.69L186.681 160.73C191.094 152.32 194.113 144.143 196.668 136.434L120.258 67.2819L44.0807 136.2C46.4032 143.909 49.6547 152.086 54.0674 160.497ZM68.2346 47.4241C69.8603 47.4241 71.2538 47.6578 72.1828 48.125V46.0224C71.0216 45.5552 69.6281 45.5552 68.2346 45.3216C65.4476 45.3216 62.6606 46.0224 59.6414 46.7233C57.3189 47.4241 54.9964 47.8914 52.4417 48.125V49.994C54.9964 49.7604 57.5512 49.0595 60.1059 48.5923C63.1251 48.125 65.6798 47.4241 68.2346 47.4241ZM68.2346 52.3302C69.8603 52.3302 71.2538 52.5638 72.1828 53.031V50.9285C71.0216 50.4612 69.6281 50.2276 68.2346 50.2276C65.4476 50.2276 62.6606 50.9285 59.6414 51.6293C57.3189 52.3302 54.9964 52.7974 52.4417 53.031V54.9C54.9964 54.6664 57.5512 53.9655 60.1059 53.4983C63.1251 52.7974 65.6798 52.0966 68.2346 52.3302ZM68.2346 23.5948C69.8603 23.5948 71.2538 24.0621 72.1828 24.2957V22.1931C71.0216 21.7259 69.6281 21.7259 68.2346 21.4923C65.4476 21.4923 62.6606 22.1931 59.6414 22.894C57.3189 23.5948 54.9964 24.0621 52.4417 24.2957V26.1647C54.9964 25.931 57.5512 25.4638 60.1059 24.7629C63.1251 24.0621 65.6798 23.5948 68.2346 23.5948ZM90.7627 34.575C93.0852 35.2759 95.6399 35.7431 98.4269 35.9767V34.1078C96.1044 33.8742 93.5497 33.4069 91.2272 32.706C88.2079 32.0052 85.421 31.3043 82.634 31.3043C81.2405 31.3043 79.847 31.5379 78.6858 32.0052V34.1078C79.6148 33.6405 81.0082 33.4069 82.634 33.4069C85.1887 32.9397 87.9757 33.6405 90.7627 34.575ZM90.7627 24.9966C93.0852 25.6974 95.6399 26.1647 98.4269 26.3983V24.5293C96.1044 24.2957 93.5497 23.8285 91.2272 23.1276C88.2079 22.4267 85.421 21.7259 82.634 21.7259C81.2405 21.7259 79.847 21.9595 78.6858 22.4267V24.5293C79.6148 24.0621 81.0082 23.8285 82.634 23.8285C85.1887 23.5948 87.9757 24.0621 90.7627 24.9966ZM90.7627 43.9198C93.0852 44.3871 95.8721 45.0879 98.4269 45.3216V43.4526C95.8721 43.219 93.5497 42.7517 91.2272 42.0509C88.2079 41.35 85.421 40.6492 82.8662 40.6492C81.4727 40.6492 80.0793 40.8828 78.918 41.1164V43.219C79.847 42.7517 81.2405 42.5181 82.8662 42.5181C85.1887 42.5181 87.9757 43.219 90.7627 43.9198ZM90.7627 29.669C93.0852 30.3698 95.6399 30.8371 98.4269 31.0707V29.2017C96.1044 28.9681 93.5497 28.5009 91.2272 27.8C88.2079 27.0991 85.421 26.3983 82.634 26.3983C81.2405 26.3983 79.847 26.6319 78.6858 27.0992V29.2017C79.6148 28.7345 81.0082 28.5009 82.634 28.5009C85.1887 28.2673 87.9757 28.9681 90.7627 29.669ZM90.7627 48.8259C93.0852 49.5267 95.6399 49.994 98.4269 50.2276V48.3586C96.1044 48.125 93.5497 47.4241 91.2272 46.9569C88.2079 46.256 85.421 45.5552 82.634 45.5552C81.2405 45.5552 79.847 45.7888 78.6858 46.256V48.3586C79.6148 47.8914 81.0082 47.6578 82.634 47.6578C85.1887 47.4241 87.9757 48.125 90.7627 48.8259ZM90.7627 53.4983C93.0852 54.1991 95.6399 54.6664 98.4269 54.9V53.031C96.1044 52.7974 93.5497 52.3302 91.2272 51.6293C88.2079 50.9285 85.421 50.2276 82.634 50.2276C81.2405 50.2276 79.847 50.4612 78.6858 50.9285V53.031C79.6148 52.5638 81.0082 52.3302 82.634 52.3302C85.1887 52.0966 87.9757 52.7974 90.7627 53.4983ZM238.937 152.787L238.473 153.955C234.06 168.673 226.628 183.391 221.286 192.97L220.125 194.839L212.461 187.83C212.229 188.297 211.764 188.998 211.532 189.466C192.023 220.771 164.618 243.432 131.871 255.58L120.258 259.785L108.646 255.58C76.131 243.666 48.4935 220.771 29.2168 189.466C28.9846 188.998 28.7523 188.297 28.2878 187.83L20.3914 194.839L19.2302 192.736C13.8884 182.924 6.68874 168.206 2.04377 153.722L1.81152 152.787L20.6236 135.733L22.9461 133.63L23.8751 136.434C24.8041 139.938 25.9654 143.209 27.1266 146.479L32.4683 141.573L34.5586 139.704L35.4875 142.508C39.4358 154.422 44.7775 165.636 51.0482 175.682C67.5378 202.081 90.5304 221.238 117.704 231.284C117.704 231.284 119.561 231.984 120.49 232.218C121.419 231.984 123.277 231.284 123.277 231.284C150.451 221.238 173.675 202.081 189.933 175.682C196.203 165.636 201.545 154.422 205.493 142.508L206.422 139.704L213.854 146.479C215.016 143.209 216.177 139.938 217.106 136.434L218.035 133.63L238.937 152.787ZM17.3722 180.822L13.8884 158.628L24.1074 149.283C22.9461 146.479 22.0171 143.442 21.0881 140.405C18.0689 143.209 7.61773 152.553 6.22424 153.955C9.24347 163.3 13.1917 172.645 17.3722 180.822ZM26.4299 184.559C24.1074 180.588 21.7849 176.383 19.9269 172.178L22.4816 188.297C23.1784 187.363 24.8041 185.961 26.4299 184.559ZM220.822 172.178C218.964 176.383 216.641 180.588 214.319 184.559C215.945 185.961 217.338 187.363 218.267 188.297L220.822 172.178ZM222.215 159.328C220.59 157.927 210.603 148.816 207.816 146.246C203.868 157.459 198.99 168.206 192.952 177.784C176.23 204.884 152.541 224.509 124.439 235.022L120.258 236.423L116.31 235.022C88.2079 224.742 64.7509 204.884 47.7967 177.784C41.7583 168.206 36.881 157.459 32.9328 146.246C29.9136 148.816 20.1592 157.927 18.5334 159.328C22.2494 169.141 27.1266 178.719 32.4683 187.363C51.5127 217.967 78.4535 240.161 110.272 251.842C110.272 251.842 119.561 255.113 120.49 255.58C121.652 255.113 130.942 251.842 130.942 251.842C162.76 240.161 189.701 217.734 208.745 187.363C213.622 178.953 218.499 169.374 222.215 159.328ZM234.524 153.722C233.131 152.32 222.68 142.975 219.661 140.172C218.732 143.209 217.803 146.246 216.641 149.049L226.86 158.394L223.377 180.822C227.325 172.645 231.505 163.3 234.524 153.722ZM34.3263 182.223L34.5586 183.158L33.8618 183.625C33.3973 182.924 33.1651 182.223 32.7006 181.289C32.2361 180.588 31.7716 179.887 31.3071 178.953L32.0038 178.719L32.7006 179.42C33.3973 178.719 34.5586 177.784 35.0231 176.85L33.3973 173.813L30.1458 174.514L30.3781 175.448L29.9136 175.682C29.6813 174.981 29.2168 174.514 28.9846 173.813C28.7523 173.346 28.5201 172.878 28.0556 172.178L28.7523 171.944L29.4491 172.645C31.7716 172.645 36.6488 171.71 39.668 171.243C40.1325 171.944 40.8293 172.411 41.2938 172.878L41.526 173.813L38.5068 177.551C36.881 179.186 35.0231 181.522 34.3263 182.223ZM36.1843 175.916L38.9713 172.878L34.7908 173.813L36.1843 175.916ZM53.1384 193.203L53.6029 192.736C53.1384 192.269 52.9062 191.802 52.4417 191.101C51.9772 190.634 51.7449 189.933 51.2804 189.466L50.5837 189.933L51.0482 190.867C49.4225 192.035 45.7065 195.072 45.7065 195.072C46.6355 192.269 47.7967 188.998 48.958 186.195C48.4935 185.728 48.2612 185.26 47.7967 184.793C47.5645 184.326 47.1 183.859 46.8677 183.391L46.4032 183.859L46.8677 184.793C46.171 185.494 45.4742 185.961 44.5452 186.662L41.9905 188.531C41.0615 189.232 40.3648 189.699 39.4358 190.166L38.739 189.466L38.2745 189.933C38.739 190.4 38.9713 190.867 39.4358 191.568C39.9003 192.035 40.1325 192.736 40.597 193.203L41.0615 192.736L40.3648 191.568C41.9905 190.4 44.0807 188.765 45.9387 187.363C44.7775 190.166 43.8485 193.203 42.6873 196.474C42.9195 196.708 43.1517 197.175 43.384 197.409C43.6162 197.642 43.8485 198.109 44.0807 198.343C45.0097 197.642 45.9387 196.708 47.3322 195.773L49.887 193.904C50.8159 193.203 51.7449 192.736 52.4417 192.269L53.1384 193.203ZM54.0674 201.847C51.5127 204.184 51.7449 207.688 53.8352 209.791C55.2287 211.192 56.6222 212.127 59.1769 212.36L59.4091 210.959C58.0156 210.725 56.8544 210.258 56.1577 209.323C54.5319 207.688 54.5319 205.352 56.3899 203.483C58.2479 201.614 60.3381 202.315 61.4994 203.716C62.1961 204.417 62.6606 205.352 62.6606 206.286L62.1961 207.221L62.6606 207.922C63.3574 207.454 64.2864 206.753 64.9831 206.52C64.5186 205.118 63.8219 204.184 62.8929 203.016C60.3381 199.978 56.6222 199.511 54.0674 201.847ZM76.5955 223.341C74.5053 225.91 71.2538 226.144 68.0023 223.574C64.9831 221.004 64.5186 217.967 66.8411 214.93C68.9313 212.36 72.4151 212.127 75.4343 214.697C78.4535 217.266 78.918 220.537 76.5955 223.341ZM74.273 216.098C72.6473 214.697 70.5571 215.397 68.9313 217.033C67.3056 218.902 67.3056 221.004 68.9313 222.406C70.5571 223.808 72.6473 223.107 74.273 221.472C75.6665 219.603 75.8988 217.266 74.273 216.098ZM92.8529 231.05C92.1562 232.452 90.5304 232.685 88.9047 231.984C89.1369 233.153 89.6014 237.124 89.8337 237.825L90.0659 238.292L89.6014 238.993C88.6724 238.292 87.5112 237.825 86.5822 237.358C86.5822 235.489 86.35 232.685 86.1177 231.05L85.421 230.583L84.9565 231.517C84.2597 232.452 83.7952 233.386 83.563 234.087L84.2597 234.788L83.7952 235.489C83.0985 235.022 82.4017 234.554 81.705 234.087C81.0082 233.62 80.3115 233.153 79.3825 232.685L79.847 231.984L80.776 232.452C81.4727 231.751 81.9372 230.816 82.634 229.882L84.2597 227.078C84.9565 226.144 85.421 225.209 85.8855 224.509L85.1887 223.808L85.6532 223.107C86.1177 223.574 86.8145 223.808 87.279 224.275C87.9757 224.742 88.6724 224.976 89.3692 225.443C90.0659 225.91 90.7627 226.144 91.4594 226.611C93.7819 228.013 93.7819 229.648 92.8529 231.05ZM89.3692 227.078C88.6724 226.611 88.4402 226.611 87.9757 226.378C87.7434 226.845 87.2789 227.546 86.8145 228.247L86.35 228.947C86.5822 229.181 86.8145 229.415 87.0467 229.648C88.4402 230.583 89.6014 230.583 90.2982 229.415C90.7627 228.48 90.5304 227.779 89.3692 227.078ZM107.02 239.694C106.788 241.797 106.556 244.834 106.556 246.002L107.252 246.469L107.02 247.17C106.323 246.703 105.394 246.469 104.698 246.002C104.001 245.534 103.072 245.301 102.375 245.067L102.607 244.366L103.536 244.6C103.769 243.666 104.001 242.264 104.001 241.329L100.749 239.928L98.6591 242.497L99.3559 242.965L99.1236 243.666C98.4269 243.432 97.7301 242.965 97.2656 242.731C96.8011 242.497 96.1044 242.264 95.6399 242.03L95.8721 241.329L96.8011 241.563C98.6591 240.161 101.911 236.657 104.233 234.087C105.162 234.321 105.859 234.321 106.556 234.554L107.485 235.255L107.02 239.694ZM104.698 235.489L101.911 238.759L104.233 239.928L104.698 235.489ZM138.838 243.666C138.374 242.731 137.909 242.03 137.445 240.862L136.283 238.059C135.819 236.891 135.354 236.19 135.122 235.255L136.051 234.788L135.819 234.087C135.122 234.554 134.193 234.788 133.496 235.255C132.8 235.489 131.871 235.956 131.174 236.19L131.406 236.891L132.335 236.657C132.8 237.591 133.264 238.292 133.729 239.46L134.89 242.264C135.354 243.432 135.587 244.133 136.051 245.067L135.122 245.534L135.354 246.235C136.051 245.768 136.98 245.534 137.677 245.067C138.374 244.834 139.303 244.366 139.999 244.133L139.767 243.432L138.838 243.666ZM158.811 232.919C158.347 232.218 157.65 231.284 157.186 230.349L155.56 227.546C154.863 226.611 154.399 225.677 154.167 224.976L154.863 224.275L154.399 223.574C153.702 224.041 153.005 224.509 152.541 224.742C151.844 225.209 151.147 225.443 150.451 225.91C150.915 227.312 151.844 232.919 152.076 234.087C150.915 233.153 146.735 229.882 145.806 228.714C145.109 229.181 144.412 229.648 143.948 229.882C143.251 230.349 142.554 230.583 141.857 231.05L142.322 231.751L143.251 231.517L143.948 232.919C144.644 234.321 147.199 238.526 147.664 239.694L146.967 240.395L147.431 241.096C147.896 240.862 148.593 240.395 149.057 240.161C149.522 239.928 150.218 239.46 150.683 239.227L150.218 238.526L149.289 238.993C148.825 238.292 148.128 237.358 147.664 236.423L146.735 234.788C146.038 233.386 145.341 232.452 145.109 231.984C149.057 235.489 151.38 237.124 152.309 238.059L153.702 237.124L151.844 227.779C152.076 228.247 152.773 229.181 153.47 230.583L154.399 232.218C155.095 233.153 155.328 234.087 155.792 235.022L155.096 235.722L155.328 236.423C156.024 235.956 156.721 235.489 157.418 235.022C158.115 234.554 159.044 234.087 159.74 233.62L159.508 232.919H158.811ZM169.495 224.742C168.798 224.041 168.101 223.341 167.405 222.406L166.011 220.537C165.314 219.836 164.618 218.902 164.153 217.967C164.385 217.734 164.618 217.266 165.082 217.033C166.243 216.098 167.172 216.332 167.869 217.033C168.566 217.967 168.798 219.135 167.637 219.836C167.405 220.07 167.172 220.303 166.94 220.303L167.405 221.705C167.869 221.472 168.334 221.004 168.798 220.771C171.121 218.902 171.121 216.566 169.959 214.93C168.798 213.528 166.94 213.295 165.082 214.93C164.618 215.397 164.153 215.865 163.456 216.332C162.76 217.033 162.063 217.5 161.598 217.967C161.134 218.434 160.437 218.902 159.74 219.369L160.205 219.836L161.134 219.369C161.831 220.07 162.527 220.771 163.224 221.705L165.082 224.275C165.779 225.209 166.476 225.91 166.94 226.611L166.243 227.312L166.708 227.779C167.405 227.312 168.101 226.611 168.798 226.144C169.495 225.677 170.192 225.209 171.121 224.275L170.656 223.808L169.495 224.742ZM187.843 207.922L188.307 208.389C187.61 208.856 187.146 209.557 186.449 210.258C185.752 210.959 185.288 211.659 184.591 212.127L184.127 211.659L184.591 210.959C183.894 210.491 182.501 209.791 181.572 209.323L179.017 211.893L180.643 214.697L181.34 214.229L181.804 214.697C181.34 215.164 180.875 215.631 180.411 216.098C179.946 216.566 179.482 217.033 179.249 217.5L178.785 217.033L179.249 216.332C178.553 214.229 176.23 209.791 174.837 206.753C175.301 206.053 175.766 205.352 175.998 204.651L176.927 204.184L181.107 206.053C182.965 206.987 185.752 208.155 186.681 208.389L187.843 207.922ZM180.643 208.622L176.695 206.753L178.785 210.491L180.643 208.622ZM199.687 192.736L200.152 193.203C199.455 194.138 198.758 195.072 198.294 196.007C196.203 196.007 193.417 195.773 191.791 195.773L191.326 196.474L192.023 197.175C192.952 197.876 193.649 198.343 194.578 198.81L195.274 198.109L195.971 198.577C195.507 199.278 194.81 199.978 194.345 200.679C193.881 201.38 193.416 202.081 192.72 202.782L192.023 202.315L192.488 201.38C191.791 200.679 191.094 200.212 190.165 199.511L187.61 197.642C186.681 196.941 185.985 196.474 185.056 195.773L184.359 196.474L183.662 196.007C184.127 195.54 184.591 195.072 184.823 194.372C185.288 193.671 185.752 193.203 186.217 192.503C186.681 191.802 187.146 191.334 187.61 190.634C189.468 188.064 191.094 188.297 192.255 189.232C193.416 190.166 193.649 191.802 192.952 193.203C194.113 193.203 198.061 192.97 198.758 192.97L199.687 192.736ZM191.094 191.802C190.397 191.101 189.468 191.334 188.772 192.503C188.307 192.97 188.075 193.437 187.843 193.671C188.307 193.904 188.772 194.605 189.701 195.072L190.397 195.54C190.63 195.306 190.862 195.072 191.094 194.839C192.023 193.671 192.023 192.736 191.094 191.802ZM207.584 181.99C205.493 185.494 202.474 186.428 199.455 184.559C196.668 182.924 195.739 179.653 197.829 176.149C199.919 172.645 202.706 171.71 205.958 173.579C208.745 174.981 209.674 178.485 207.584 181.99ZM204.332 176.149C202.242 174.981 200.152 175.215 198.99 176.85C197.829 178.719 198.758 180.588 200.848 181.99C202.939 183.158 205.029 182.924 206.19 181.289C207.351 179.42 206.422 177.317 204.332 176.149ZM120.258 242.264C119.097 242.264 117.936 243.432 117.936 244.834C117.936 246.235 119.097 247.403 120.258 247.403C121.652 247.403 122.813 246.235 122.813 244.834C122.813 243.432 121.652 242.264 120.258 242.264ZM29.6813 164.468C31.0748 164.468 32.2361 163.3 32.2361 162.132C32.2361 160.73 31.0748 159.562 29.6813 159.562C28.2878 159.562 27.3589 160.73 27.3589 162.132C27.3589 163.3 28.5201 164.468 29.6813 164.468ZM211.3 164.468C212.693 164.468 213.854 163.3 213.854 162.132C213.854 160.73 212.693 159.562 211.3 159.562C210.138 159.562 208.977 160.73 208.977 162.132C208.745 163.3 209.906 164.468 211.3 164.468Z" fill="white"/>
</g>
<defs>
<clipPath id="clip0_1778_6242">
<rect width="921" height="271" fill="white"/>
</clipPath>
</defs>
</svg>
