<svg width="26" height="24" viewBox="0 0 26 24" fill="none" xmlns="http://www.w3.org/2000/svg">
<path d="M4.29226 24H21.7079C24.5227 24 25.9054 22.6173 25.9054 19.8518V4.14815C25.9054 1.38273 24.5227 0 21.7079 0H4.29226C1.4939 0 0.0947266 1.38273 0.0947266 4.14815V19.8518C0.0947266 22.6173 1.4939 24 4.29226 24ZM4.0618 21.6132C3.04124 21.6132 2.46511 21.07 2.46511 20V7.62139C2.46511 6.55144 3.04124 6.00824 4.0618 6.00824H21.9219C22.9425 6.00824 23.5351 6.55144 23.5351 7.62139V20C23.5351 21.07 22.9425 21.6132 21.9219 21.6132H4.0618ZM10.498 10.6667H11.2552C11.749 10.6667 11.9136 10.5021 11.9136 10.0247V9.26751C11.9136 8.79011 11.749 8.62553 11.2552 8.62553H10.498C10.0207 8.62553 9.85604 8.79011 9.85604 9.26751V10.0247C9.85604 10.5021 10.0207 10.6667 10.498 10.6667ZM14.7449 10.6667H15.5021C15.9795 10.6667 16.1441 10.5021 16.1441 10.0247V9.26751C16.1441 8.79011 15.9795 8.62553 15.5021 8.62553H14.7449C14.2511 8.62553 14.0865 8.79011 14.0865 9.26751V10.0247C14.0865 10.5021 14.2511 10.6667 14.7449 10.6667ZM18.9754 10.6667H19.7326C20.21 10.6667 20.391 10.5021 20.391 10.0247V9.26751C20.391 8.79011 20.21 8.62553 19.7326 8.62553H18.9754C18.4815 8.62553 18.317 8.79011 18.317 9.26751V10.0247C18.317 10.5021 18.4815 10.6667 18.9754 10.6667ZM6.26758 14.8313H7.02478C7.51859 14.8313 7.68321 14.6667 7.68321 14.1893V13.4321C7.68321 12.9548 7.51859 12.7901 7.02478 12.7901H6.26758C5.79022 12.7901 5.60911 12.9548 5.60911 13.4321V14.1893C5.60911 14.6667 5.79022 14.8313 6.26758 14.8313ZM10.498 14.8313H11.2552C11.749 14.8313 11.9136 14.6667 11.9136 14.1893V13.4321C11.9136 12.9548 11.749 12.7901 11.2552 12.7901H10.498C10.0207 12.7901 9.85604 12.9548 9.85604 13.4321V14.1893C9.85604 14.6667 10.0207 14.8313 10.498 14.8313ZM14.7449 14.8313H15.5021C15.9795 14.8313 16.1441 14.6667 16.1441 14.1893V13.4321C16.1441 12.9548 15.9795 12.7901 15.5021 12.7901H14.7449C14.2511 12.7901 14.0865 12.9548 14.0865 13.4321V14.1893C14.0865 14.6667 14.2511 14.8313 14.7449 14.8313ZM18.9754 14.8313H19.7326C20.21 14.8313 20.391 14.6667 20.391 14.1893V13.4321C20.391 12.9548 20.21 12.7901 19.7326 12.7901H18.9754C18.4815 12.7901 18.317 12.9548 18.317 13.4321V14.1893C18.317 14.6667 18.4815 14.8313 18.9754 14.8313ZM6.26758 18.9959H7.02478C7.51859 18.9959 7.68321 18.8313 7.68321 18.3539V17.5967C7.68321 17.1194 7.51859 16.9547 7.02478 16.9547H6.26758C5.79022 16.9547 5.60911 17.1194 5.60911 17.5967V18.3539C5.60911 18.8313 5.79022 18.9959 6.26758 18.9959ZM10.498 18.9959H11.2552C11.749 18.9959 11.9136 18.8313 11.9136 18.3539V17.5967C11.9136 17.1194 11.749 16.9547 11.2552 16.9547H10.498C10.0207 16.9547 9.85604 17.1194 9.85604 17.5967V18.3539C9.85604 18.8313 10.0207 18.9959 10.498 18.9959ZM14.7449 18.9959H15.5021C15.9795 18.9959 16.1441 18.8313 16.1441 18.3539V17.5967C16.1441 17.1194 15.9795 16.9547 15.5021 16.9547H14.7449C14.2511 16.9547 14.0865 17.1194 14.0865 17.5967V18.3539C14.0865 18.8313 14.2511 18.9959 14.7449 18.9959Z" fill="black"/>
</svg>
