<svg fill="none" height="30" viewBox="0 0 30 30" width="30" xmlns="http://www.w3.org/2000/svg"><path d="m6.29226 27h17.41564c2.8148 0 4.1975-1.3827 4.1975-4.1482v-15.70365c0-2.76542-1.3827-4.14815-4.1975-4.14815h-17.41564c-2.79836 0-4.19753 1.38273-4.19753 4.14815v15.70365c0 2.7655 1.39917 4.1482 4.19753 4.1482zm-.23046-2.3868c-1.02056 0-1.59669-.5432-1.59669-1.6132v-12.3786c0-1.06996.57613-1.61316 1.59669-1.61316h17.8601c1.0206 0 1.6132.5432 1.6132 1.61316v12.3786c0 1.07-.5926 1.6132-1.6132 1.6132zm6.4362-10.9465h.7572c.4938 0 .6584-.1646.6584-.642v-.7572c0-.4774-.1646-.642-.6584-.642h-.7572c-.4773 0-.642.1646-.642.642v.7572c0 .4774.1647.642.642.642zm4.2469 0h.7572c.4774 0 .642-.1646.642-.642v-.7572c0-.4774-.1646-.642-.642-.642h-.7572c-.4938 0-.6584.1646-.6584.642v.7572c0 .4774.1646.642.6584.642zm4.2305 0h.7572c.4774 0 .6584-.1646.6584-.642v-.7572c0-.4774-.181-.642-.6584-.642h-.7572c-.4939 0-.6584.1646-.6584.642v.7572c0 .4774.1645.642.6584.642zm-12.70782 4.1646h.7572c.49381 0 .65843-.1646.65843-.642v-.7572c0-.4773-.16462-.642-.65843-.642h-.7572c-.47736 0-.65847.1647-.65847.642v.7572c0 .4774.18111.642.65847.642zm4.23042 0h.7572c.4938 0 .6584-.1646.6584-.642v-.7572c0-.4773-.1646-.642-.6584-.642h-.7572c-.4773 0-.642.1647-.642.642v.7572c0 .4774.1647.642.642.642zm4.2469 0h.7572c.4774 0 .642-.1646.642-.642v-.7572c0-.4773-.1646-.642-.642-.642h-.7572c-.4938 0-.6584.1647-.6584.642v.7572c0 .4774.1646.642.6584.642zm4.2305 0h.7572c.4774 0 .6584-.1646.6584-.642v-.7572c0-.4773-.181-.642-.6584-.642h-.7572c-.4939 0-.6584.1647-.6584.642v.7572c0 .4774.1645.642.6584.642zm-12.70782 4.1646h.7572c.49381 0 .65843-.1646.65843-.642v-.7572c0-.4773-.16462-.642-.65843-.642h-.7572c-.47736 0-.65847.1647-.65847.642v.7572c0 .4774.18111.642.65847.642zm4.23042 0h.7572c.4938 0 .6584-.1646.6584-.642v-.7572c0-.4773-.1646-.642-.6584-.642h-.7572c-.4773 0-.642.1647-.642.642v.7572c0 .4774.1647.642.642.642zm4.2469 0h.7572c.4774 0 .642-.1646.642-.642v-.7572c0-.4773-.1646-.642-.642-.642h-.7572c-.4938 0-.6584.1647-.6584.642v.7572c0 .4774.1646.642.6584.642z" fill="#fff"/></svg>