<svg width="24" height="24" viewBox="0 0 24 24" fill="none" xmlns="http://www.w3.org/2000/svg">
<path d="M12.0073 19.5942C12.5291 19.5942 13.2102 17.4928 13.2102 13.6667V8.94204C15.1378 8.40579 16.5436 6.63768 16.5436 4.55074C16.5436 2.04349 14.5146 0 12.0073 0C9.48561 0 7.47112 2.04349 7.47112 4.55074C7.47112 6.63768 8.86242 8.40579 10.7755 8.94204V13.6667C10.7755 17.4783 11.4711 19.5942 12.0073 19.5942ZM10.732 4.8261C9.9059 4.8261 9.18126 4.10146 9.18126 3.26086C9.18126 2.42029 9.9059 1.71014 10.732 1.71014C11.5871 1.71014 12.2827 2.42029 12.2827 3.26086C12.2827 4.10146 11.5871 4.8261 10.732 4.8261ZM12.0073 24C19.0943 24 23.0363 21.4638 23.0363 18.913C23.0363 15.6812 18.0363 13.7247 14.9494 13.7247V15.7681C16.9494 15.7681 20.2392 16.9275 20.2392 18.5942C20.2392 20.2754 17.2247 21.7971 12.0073 21.7971C6.78994 21.7971 3.76098 20.2899 3.76098 18.5942C3.76098 16.9275 7.05084 15.7681 9.06533 15.7681V13.7247C5.97837 13.7247 0.963867 15.6812 0.963867 18.913C0.963867 21.4638 4.9059 24 12.0073 24Z" fill="black"/>
</svg>
