<svg fill="none" height="30" viewBox="0 0 30 30" width="30" xmlns="http://www.w3.org/2000/svg"><path d="m15.0073 22.5942c.5218 0 1.2029-2.1014 1.2029-5.9275v-4.7247c1.9276-.5362 3.3334-2.30432 3.3334-4.39126 0-2.50725-2.029-4.55074-4.5363-4.55074-2.5217 0-4.5362 2.04349-4.5362 4.55074 0 2.08694 1.3913 3.85506 3.3044 4.39126v4.7247c0 3.8116.6956 5.9275 1.2318 5.9275zm-1.2753-14.7681c-.8261 0-1.5507-.72464-1.5507-1.56524 0-.84057.7246-1.55072 1.5507-1.55072.8551 0 1.5507.71015 1.5507 1.55072 0 .8406-.6956 1.56524-1.5507 1.56524zm1.2753 19.1739c7.087 0 11.029-2.5362 11.029-5.087 0-3.2318-5-5.1883-8.0869-5.1883v2.0434c2 0 5.2898 1.1594 5.2898 2.8261 0 1.6812-3.0145 3.2029-8.2319 3.2029-5.21736 0-8.24632-1.5072-8.24632-3.2029 0-1.6667 3.28982-2.8261 5.30432-2.8261v-2.0434c-3.08693 0-8.10143 1.9565-8.10143 5.1883 0 2.5508 3.94203 5.087 11.04343 5.087z" fill="#fff"/></svg>