<svg xmlns="http://www.w3.org/2000/svg" width="1333.333" height="1333.333">
  <defs>
    <clipPath id="a">
      <path d="M0 1000h1000V0H0z"/>
    </clipPath>
  </defs>
  <g clip-path="url(#a)" transform="matrix(1.33333 0 0 -1.33333 0 1333.333)">
    <path fill="#ddd" d="M337.248 500c-.284 24.785-8.442 49.495-24.469 70.16L38.951 923.228c-24.288 31.317 13.984 72.524 47.008 50.612l350.1-232.305a116.545 116.545 0 0 1 64.037-19.453 116.544 116.544 0 0 1 64.036 19.453l350.1 232.305c33.024 21.912 71.296-19.295 47.008-50.612L687.412 570.16c-16.027-20.665-24.185-45.375-24.469-70.16.284-24.784 8.442-49.495 24.469-70.16L961.24 76.772c24.288-31.317-13.984-72.525-47.008-50.612l-350.1 232.306a116.551 116.551 0 0 1-64.036 19.452 116.552 116.552 0 0 1-64.037-19.452L85.959 26.16C52.935 4.247 14.663 45.455 38.951 76.772L312.779 429.84c16.027 20.665 24.185 45.376 24.469 70.16"/>
  </g>
</svg>