<svg width="732" height="265" viewBox="0 0 732 265" fill="none" xmlns="http://www.w3.org/2000/svg">
<path d="M41.7251 36.9213L0 79.3073V199.457L41.7252 239.586L41.7251 36.9213Z" fill="white"/>
<path d="M160.94 197.861H47.6859L47.6859 239.586H120.63L160.94 197.861Z" fill="white"/>
<path d="M161 78.8267L161 191.901H119.215V78.8267H159.078H161Z" fill="white"/>
<path d="M154.964 64.7256H120.068V29.8281L154.964 64.7256Z" stroke="white" stroke-width="4"/>
<path d="M182.63 124V104.8C182.63 100.789 183.27 97.2907 184.55 94.304C185.915 91.3173 188.049 88.672 190.95 86.368C193.851 83.9787 197.691 81.76 202.47 79.712L217.574 73.184C221.414 71.5627 224.23 69.5573 226.022 67.168C227.899 64.7787 228.838 61.7493 228.838 58.08C228.838 54.3253 227.686 51.2533 225.382 48.864C223.078 46.4747 219.707 45.28 215.27 45.28C210.833 45.28 207.462 46.5173 205.158 48.992C202.854 51.4667 201.702 54.7947 201.702 58.976H181.35C181.35 53.088 182.63 47.7973 185.19 43.104C187.75 38.3253 191.547 34.5707 196.582 31.84C201.617 29.1093 207.846 27.744 215.27 27.744C222.694 27.744 228.881 29.0667 233.83 31.712C238.865 34.3573 242.662 37.8987 245.222 42.336C247.867 46.7733 249.19 51.7653 249.19 57.312V58.848C249.19 66.016 247.227 71.9467 243.302 76.64C239.377 81.248 233.318 85.344 225.126 88.928L210.15 95.456C207.59 96.5653 205.755 97.7173 204.646 98.912C203.622 100.107 203.11 101.728 203.11 103.776V110.176L198.118 105.952H249.318V124H182.63ZM298.321 126.432C290.897 126.432 284.54 125.237 279.249 122.848C273.958 120.373 269.649 117.045 266.321 112.864C263.078 108.683 260.646 103.861 259.025 98.4C257.489 92.8533 256.721 87.008 256.721 80.864V73.568C256.721 65.0347 258.214 57.312 261.201 50.4C264.188 43.488 268.753 37.984 274.897 33.888C281.041 29.792 288.849 27.744 298.321 27.744C307.793 27.744 315.558 29.792 321.617 33.888C327.761 37.984 332.326 43.488 335.313 50.4C338.3 57.312 339.793 65.0347 339.793 73.568V80.864C339.793 87.008 338.982 92.8533 337.361 98.4C335.825 103.861 333.393 108.683 330.065 112.864C326.822 117.045 322.556 120.373 317.265 122.848C312.06 125.237 305.745 126.432 298.321 126.432ZM298.321 107.104C305.233 107.104 310.353 104.715 313.681 99.936C317.094 95.072 318.801 87.5627 318.801 77.408C318.801 66.656 317.052 58.9333 313.553 54.24C310.14 49.4613 305.062 47.072 298.321 47.072C291.409 47.072 286.246 49.4613 282.833 54.24C279.42 58.9333 277.713 66.5707 277.713 77.152C277.713 87.392 279.377 94.944 282.705 99.808C286.118 104.672 291.324 107.104 298.321 107.104ZM187.505 229V209.8C187.505 205.789 188.145 202.291 189.425 199.304C190.79 196.317 192.924 193.672 195.825 191.368C198.726 188.979 202.566 186.76 207.345 184.712L222.449 178.184C226.289 176.563 229.105 174.557 230.897 172.168C232.774 169.779 233.713 166.749 233.713 163.08C233.713 159.325 232.561 156.253 230.257 153.864C227.953 151.475 224.582 150.28 220.145 150.28C215.708 150.28 212.337 151.517 210.033 153.992C207.729 156.467 206.577 159.795 206.577 163.976H186.225C186.225 158.088 187.505 152.797 190.065 148.104C192.625 143.325 196.422 139.571 201.457 136.84C206.492 134.109 212.721 132.744 220.145 132.744C227.569 132.744 233.756 134.067 238.705 136.712C243.74 139.357 247.537 142.899 250.097 147.336C252.742 151.773 254.065 156.765 254.065 162.312V163.848C254.065 171.016 252.102 176.947 248.177 181.64C244.252 186.248 238.193 190.344 230.001 193.928L215.025 200.456C212.465 201.565 210.63 202.717 209.521 203.912C208.497 205.107 207.985 206.728 207.985 208.776V215.176L202.993 210.952H254.193V229H187.505ZM300.252 231.688C293.34 231.688 287.409 230.579 282.46 228.36C277.511 226.056 273.457 222.856 270.3 218.76C267.228 214.579 264.924 209.8 263.388 204.424C261.937 199.048 261.212 193.288 261.212 187.144V181.768C261.212 166.237 265.18 154.547 273.116 146.696C281.052 138.76 292.743 134.792 308.188 134.792C311.345 134.792 314.46 134.877 317.532 135.048C320.604 135.219 323.591 135.475 326.492 135.816V153.352C323.676 153.096 320.647 152.883 317.404 152.712C314.161 152.456 310.833 152.328 307.42 152.328C300.593 152.328 295.217 153.48 291.292 155.784C287.367 158.003 284.593 161.373 282.972 165.896C281.351 170.419 280.54 176.008 280.54 182.664V192.392L275.932 195.464C276.017 189.064 277.297 183.731 279.772 179.464C282.332 175.112 285.831 171.869 290.268 169.736C294.705 167.603 299.825 166.536 305.628 166.536C312.199 166.536 317.873 167.859 322.652 170.504C327.431 173.064 331.1 176.691 333.66 181.384C336.22 186.077 337.5 191.624 337.5 198.024C337.5 204.765 335.964 210.696 332.892 215.816C329.82 220.851 325.468 224.776 319.836 227.592C314.289 230.323 307.761 231.688 300.252 231.688ZM299.612 214.28C303.367 214.28 306.524 213.597 309.084 212.232C311.729 210.867 313.735 209.032 315.1 206.728C316.551 204.339 317.276 201.565 317.276 198.408C317.276 195.165 316.593 192.392 315.228 190.088C313.863 187.699 311.9 185.864 309.34 184.584C306.865 183.219 303.793 182.536 300.124 182.536C296.796 182.536 293.724 183.133 290.908 184.328C288.177 185.437 286.001 187.187 284.38 189.576C282.759 191.88 281.948 194.824 281.948 198.408C281.948 201.48 282.588 204.211 283.868 206.6C285.233 208.989 287.239 210.867 289.884 212.232C292.529 213.597 295.772 214.28 299.612 214.28Z" fill="white"/>
<rect x="410" width="1" height="265" fill="#D9D9D9"/>
<g clip-path="url(#clip0_167_156)">
<path d="M472.881 8.14819L722.354 8.16272L722.368 112.105L722.367 154.449C722.367 156.39 722.495 176.794 722.182 177.277L561.14 177.289L503.385 177.287C493.337 177.287 482.849 177.44 472.845 177.255L472.881 8.14819ZM477.692 172.229C485.076 172.288 492.46 172.301 499.844 172.273L539.242 172.272L657.762 172.269C677.465 172.27 697.515 172.075 717.19 172.282C717.605 171.928 717.435 167.143 717.435 166.229L717.437 155.794V122.785L717.44 12.9543L550.422 12.9282L500.864 12.9269L485.413 12.9397C483.556 12.9417 479.487 13.0619 477.736 12.9012C477.463 17.8642 477.691 25.3357 477.691 30.5017L477.691 64.7218L477.692 172.229Z" fill="white"/>
<path d="M597.478 32.0168C597.93 32.547 599.216 36.9617 599.478 37.8383C601.515 37.9483 603.899 37.931 605.959 37.9648C604.431 38.9255 602.309 40.5748 600.804 41.6758C601.16 43.2421 602.164 46.1585 602.711 47.7477C600.997 46.5263 599.295 45.289 597.605 44.0357C596.919 44.336 593.064 47.2517 592.362 47.8352C593.039 45.7962 593.7 43.752 594.346 41.7029C592.776 40.5531 590.67 38.9237 589.058 37.9398L595.548 37.9023C596.214 35.9678 596.843 33.9657 597.478 32.0168Z" fill="white"/>
<path d="M571.324 129.609C571.768 130.126 573.099 134.605 573.376 135.484C575.476 135.527 577.577 135.542 579.678 135.531C578.091 136.774 576.247 138.06 574.604 139.254C575.202 141.159 575.895 143.57 576.617 145.389C575.11 144.164 572.972 142.714 571.359 141.596C569.637 142.817 567.934 144.064 566.249 145.335C566.915 143.309 567.552 141.272 568.161 139.228L563.041 135.539L569.402 135.53C569.962 133.627 570.704 131.515 571.324 129.609Z" fill="white"/>
<path d="M597.482 136.498C597.966 137.141 599.219 141.455 599.506 142.399C601.588 142.46 603.758 142.446 605.847 142.46C604.206 143.73 602.446 144.949 600.777 146.22C601.404 148.243 602.05 150.259 602.714 152.27C601.02 150.996 599.295 149.762 597.544 148.569C596.717 149.009 593.397 151.51 592.438 152.205L594.355 146.196L589.12 142.407C590.82 142.538 593.77 142.438 595.562 142.432L597.482 136.498Z" fill="white"/>
<path d="M623.643 129.58C624.137 130.277 625.37 134.488 625.666 135.48C627.793 135.528 629.919 135.545 632.047 135.528L626.938 139.235C627.501 141.147 628.226 143.499 628.905 145.338C627.185 144.061 625.444 142.815 623.68 141.599C622.034 142.776 620.1 144.097 618.56 145.364C619.262 143.439 619.834 141.276 620.564 139.244C618.869 138.174 617.019 136.692 615.292 135.518C617.435 135.539 619.579 135.542 621.724 135.528L623.643 129.58Z" fill="white"/>
<path d="M649.772 84.25C650.249 84.6918 651.577 89.2193 651.855 90.1021C653.962 90.153 656.07 90.1793 658.177 90.1809C656.532 91.2986 654.717 92.6819 653.087 93.8629C653.712 95.8735 654.332 97.95 655.025 99.9323C653.472 98.7136 651.48 97.3541 649.853 96.1709C648.22 97.4229 646.391 98.7053 644.716 99.9288C645.403 98.0019 646.031 95.835 646.642 93.8655C644.964 92.6313 643.276 91.4122 641.577 90.2085C643.653 90.1172 645.764 90.1494 647.845 90.1573C648.517 88.2297 649.144 86.1994 649.772 84.25Z" fill="white"/>
<path d="M552.105 110.498C552.628 111.076 553.855 115.346 554.152 116.313C556.249 116.362 558.346 116.399 560.443 116.424C558.781 117.669 557.063 118.899 555.384 120.126C556.062 122.033 556.71 124.208 557.328 126.155C556.378 125.445 552.99 122.787 552.028 122.545L546.993 126.182C547.637 124.647 548.452 121.785 548.981 120.112C547.255 118.871 545.538 117.618 543.83 116.353C545.433 116.474 548.471 116.366 550.2 116.373L552.105 110.498Z" fill="white"/>
<path d="M545.106 84.3806C545.577 84.8418 546.854 89.2861 547.125 90.1592C549.084 90.2453 551.469 90.2619 553.426 90.2191C551.879 91.4602 549.99 92.7722 548.365 93.9514C549.033 95.9208 549.661 98.0143 550.303 100.007C548.743 98.7838 546.792 97.458 545.159 96.2892C543.816 97.1937 541.081 99.1195 539.947 100.137C540.62 98.3421 541.399 95.7752 541.923 93.9169L536.738 90.1759C538.095 90.3238 541.673 90.2197 543.157 90.2133C543.776 88.2591 544.426 86.3145 545.106 84.3806Z" fill="white"/>
<path d="M571.291 39.053C571.705 39.4709 573.046 44.0594 573.298 44.9274C575.215 45.0412 577.656 44.9933 579.612 45.0078C578.099 46.2146 576.165 47.5518 574.579 48.7122L576.472 54.7532C574.777 53.4927 573.064 52.2577 571.332 51.0489C569.671 52.2379 567.794 53.527 566.221 54.7956C566.854 52.7575 567.504 50.7245 568.169 48.6965C566.576 47.5949 564.615 46.2388 563.123 45.0187C565.172 44.9669 567.303 44.9856 569.359 44.9759L571.291 39.053Z" fill="white"/>
<path d="M642.944 110.361C643.544 111.83 644.377 114.701 644.866 116.3C646.961 116.362 649.057 116.403 651.154 116.422C649.684 117.603 647.671 118.988 646.117 120.125L648.043 126.127L642.922 122.445C641.466 123.445 639.082 125.104 637.797 126.207C638.405 124.168 639.048 122.138 639.725 120.12L634.571 116.368C636.482 116.447 638.944 116.36 640.895 116.348C641.622 114.498 642.18 112.339 642.944 110.361Z" fill="white"/>
<path d="M552.095 58.2554C552.626 58.7822 553.869 63.1523 554.159 64.0956C556.218 64.1769 558.374 64.1596 560.442 64.1709C558.764 65.4195 557.075 66.6532 555.374 67.8721C556.065 69.8216 556.694 71.9401 557.316 73.9245C555.918 72.7717 553.708 71.283 552.187 70.1911C550.447 71.4318 548.715 72.6828 546.99 73.9441C547.58 72.6076 548.506 69.3688 548.986 67.8476C547.295 66.7049 545.556 65.3545 543.848 64.1641C545.948 64.1896 548.058 64.1427 550.179 64.1729L552.095 58.2554Z" fill="white"/>
<path d="M642.897 58.0912C643.29 58.7971 644.562 62.9582 644.897 64.0291L651.279 64.1007C649.928 64.9055 647.494 66.7909 646.139 67.7793C646.755 69.769 647.39 71.9617 648.124 73.8909C646.664 72.7104 644.484 71.2409 642.917 70.1135C641.213 71.3316 639.434 72.5699 637.783 73.8488L639.721 67.7789C637.997 66.5677 636.283 65.2218 634.515 64.0887L640.889 64.0611L642.897 58.0912Z" fill="white"/>
<path d="M623.718 39.0758C624.162 39.5325 625.491 44.0847 625.761 44.9518L632.059 45.007C630.412 46.2559 628.68 47.4867 627.004 48.7053C627.628 50.743 628.283 52.7714 628.966 54.7899C627.462 53.6163 625.34 52.118 623.75 51.0682C622.042 52.2776 620.346 53.5045 618.663 54.7487C619.266 52.8189 619.912 50.5969 620.649 48.7406C618.92 47.5638 617.11 46.1971 615.393 44.9665C617.29 45.0638 619.838 44.9838 621.784 44.9797L623.718 39.0758Z" fill="white"/>
<path d="M585.579 197.388C586.905 197.357 588.248 197.389 589.576 197.408C589.471 199.187 589.55 201.781 589.552 203.605C589.588 208.379 589.573 213.153 589.507 217.928C588.311 217.946 587.079 217.927 585.88 217.924C585.9 217.236 585.89 216.492 585.895 215.798C583.932 217.912 582.529 218.562 579.659 218.057C574.312 216.194 573.574 207.949 577 204.331C578.046 203.218 579.502 202.575 581.033 202.554C582.911 202.529 584.252 203.363 585.557 204.585C585.541 202.186 585.549 199.787 585.579 197.388ZM582.687 215.318C585.865 214.239 586.076 210.767 585.304 207.915C584.865 206.295 583.626 205.645 582.019 205.538C578.719 206.27 578.598 209.852 579.207 212.608C579.606 214.412 580.907 215.214 582.687 215.318Z" fill="white"/>
<path d="M634.529 197.435C635.8 197.339 637.217 197.382 638.504 197.394L638.524 204.587C642.773 200.189 648.667 203.408 649.029 208.99C649.216 211.868 648.97 214.056 647.079 216.361C646.917 216.517 646.752 216.668 646.585 216.816C643.803 219.247 640.454 218.471 638.211 215.781L638.19 217.925C636.989 217.95 635.724 217.925 634.517 217.921L634.529 197.435ZM642.05 215.343C645.307 214.408 645.418 210.979 644.785 208.132C644.409 206.441 643.151 205.652 641.473 205.532C638.401 206.164 638.102 209.32 638.548 211.941C638.883 213.919 640.037 215.108 642.05 215.343Z" fill="white"/>
<path d="M587.654 236.809C594.612 236.793 595.89 246.036 592.294 250.432C589.77 253.518 586.358 252.925 583.634 250.349L583.627 255.286L583.607 257.693C582.311 257.727 580.939 257.696 579.636 257.689C579.779 251.031 579.636 243.885 579.65 237.174C580.845 237.119 582.11 237.155 583.311 237.17L583.325 239.267C584.621 237.588 585.643 237.092 587.654 236.809ZM587.8 249.468C588.852 248.939 589.59 248.25 589.892 247.087C590.738 243.829 590.357 239.446 585.967 239.857C584.843 240.461 584.172 241.098 583.837 242.371C583.041 245.392 583.722 249.903 587.8 249.468Z" fill="white"/>
<path d="M618.92 197.388C620.246 197.375 621.572 197.382 622.897 197.408L622.876 217.93C621.68 217.961 620.426 217.925 619.225 217.911V215.837C617.163 218.03 615.653 218.611 612.755 217.984C607.765 216.137 607.048 208.29 610.071 204.635C611.054 203.428 612.495 202.679 614.05 202.569C616.093 202.439 617.471 203.275 618.907 204.574L618.92 197.388ZM615.936 215.319C619.169 214.339 619.412 210.927 618.692 208.053C618.258 206.324 617.004 205.677 615.319 205.529C612.052 206.348 611.952 209.834 612.545 212.6C612.907 214.28 614.221 215.264 615.936 215.319Z" fill="white"/>
<path d="M514.762 231.623C519.638 231.505 525.137 231.582 530.024 231.623L530.017 235.182C526.811 235.355 522.248 235.239 518.939 235.254C518.894 236.695 518.909 238.263 518.898 239.715C522.199 239.741 525.501 239.744 528.802 239.722C528.643 240.542 528.913 241.646 528.675 243.097C527.203 243.131 519.709 243.04 518.913 243.27L518.898 248.516C522.735 248.564 526.568 248.488 530.411 248.575C530.352 249.699 530.368 251.012 530.353 252.151C525.224 252.239 519.893 252.173 514.754 252.146L514.762 231.623Z" fill="white"/>
<path d="M568.587 236.834C572.883 236.492 576.652 239.666 577.035 243.945C577.418 248.225 574.271 252.013 569.983 252.435C565.637 252.862 561.775 249.674 561.387 245.336C560.999 241 564.234 237.179 568.587 236.834ZM570.116 249.443C574.307 247.594 574.021 239.258 568.272 239.858C564.021 241.763 564.719 250.199 570.116 249.443Z" fill="white"/>
<path d="M706.853 236.834C711.165 236.489 714.944 239.685 715.307 243.982C715.671 248.28 712.482 252.061 708.174 252.441C703.84 252.824 700.02 249.622 699.655 245.299C699.288 240.977 702.516 237.182 706.853 236.834ZM708.427 249.429C712.579 247.568 712.29 239.17 706.457 239.874C702.267 241.933 703.048 250.268 708.427 249.429Z" fill="white"/>
<path d="M654.651 231.625C656.005 231.585 657.447 231.618 658.808 231.623L658.804 240.429C658.803 242.334 658.728 244.13 658.976 246.027C659.455 249.662 666.145 249.991 666.67 246.239C666.953 244.224 666.892 242.274 666.891 240.236L666.889 231.631C667.978 231.616 669.069 231.596 670.158 231.569C670.67 232.03 670.635 232.341 670.68 233.125C670.901 237.001 670.364 242.278 670.884 246.06C671.085 253.272 660.435 254.236 656.386 250.25C654.267 248.164 654.605 242.846 654.602 239.973C654.588 237.191 654.604 234.407 654.651 231.625Z" fill="white"/>
<path d="M618.129 236.818C629.661 236.31 623.032 245.609 625.998 251.953L626.083 252.13C624.773 252.17 623.407 252.148 622.093 252.146L621.714 250.453C618.919 252.625 615.862 253.621 613.007 250.849C612.198 249.694 611.925 248.517 612.134 247.253C612.867 242.825 618.361 243.945 621.12 242.214C621.332 242.024 621.516 241.653 621.44 241.373C620.954 239.618 619.188 239.715 617.746 239.864C616.716 239.97 616.789 240.96 616.164 241.28C615.172 241.787 613.493 241.258 612.455 241.028C613.674 237.798 614.864 237.21 618.129 236.818ZM617.1 249.282C618.964 249.842 620.183 249.348 621.229 247.732C621.301 247.01 621.444 246.187 621.296 245.498C621.17 245.474 621.038 245.433 620.925 245.451C619.235 245.784 613.49 246.629 617.1 249.282Z" fill="white"/>
<path d="M473.516 231.619C474.817 231.593 476.176 231.617 477.482 231.623L477.494 238.883C478.862 237.61 479.975 236.849 481.887 236.815C485.785 236.746 487.12 239.27 487.142 242.696C487.163 245.911 487.155 248.999 487.143 252.148C485.828 252.176 484.431 252.148 483.109 252.143L483.096 246.079C483.109 244.988 483.348 240.918 482.396 240.394C475.997 236.863 477.481 248.792 477.459 252.149C476.149 252.165 474.81 252.149 473.497 252.146C473.468 245.304 473.474 238.461 473.516 231.619Z" fill="white"/>
<path d="M523.622 197.427C527.915 197.228 533.323 197.352 537.691 197.399L537.684 200.97C534.391 200.999 531.098 201.009 527.804 200.999C527.769 202.468 527.782 204.017 527.773 205.492L536.35 205.533L536.35 208.33L536.314 208.94C535.714 209.332 529.083 209.171 527.802 209.172C527.742 212.038 527.771 215.043 527.754 217.924C526.405 217.959 524.975 217.93 523.62 217.924L523.622 197.427Z" fill="white"/>
<path d="M598.449 202.617C604.248 202.013 606.315 206.422 606.249 211.391L596.347 211.404C596.568 212.995 596.939 214.32 598.502 215.077C600.233 215.916 601.425 214.866 602.145 213.393C603.057 213.485 603.852 213.636 604.752 213.8C605.182 213.872 605.627 213.968 606.056 214.053C605.887 214.428 605.672 214.898 605.466 215.246C604.642 216.63 603.298 217.629 601.734 218.022C597.604 219.085 593.25 217.14 592.543 212.635C591.809 207.96 593.188 203.498 598.449 202.617ZM596.429 209.062C597.432 209.078 598.455 209.106 599.456 209.109L602.371 209.117C602.089 206.808 601.602 205.698 599.082 205.536C597.071 205.99 596.675 207.158 596.429 209.062Z" fill="white"/>
<path d="M496.118 236.809C502.05 236.903 503.577 240.409 503.641 245.637C500.316 245.656 496.991 245.657 493.666 245.641L493.764 246.145C494.401 249.493 497.632 251.178 499.522 247.621C500.525 247.729 501.337 247.879 502.329 248.067C502.889 248.148 502.866 248.054 503.223 248.362C503.257 248.749 503.217 248.934 503.018 249.261C500.851 252.83 495.956 253.462 492.634 251.304C490.404 249.768 489.594 246.972 489.713 244.4C489.91 240.149 491.748 237.425 496.118 236.809ZM497.984 243.34L499.754 243.345C499.35 240.743 498.727 239.606 495.853 239.852C494.251 240.73 494.007 241.536 493.772 243.307C495.176 243.327 496.58 243.338 497.984 243.34Z" fill="white"/>
<path d="M602.67 236.809C608.54 236.894 610.183 240.378 610.192 245.619C607.042 245.718 603.415 245.669 600.243 245.646C600.791 249.308 604.046 251.405 606.083 247.622C607.141 247.737 607.988 247.894 609.035 248.095C609.432 248.13 609.494 248.085 609.788 248.328C610.053 249.882 606.667 252.195 605.126 252.438C596.954 253.727 594.123 245.267 597.838 239.373C598.886 237.71 600.732 237.085 602.67 236.809ZM600.33 243.308C601.731 243.326 603.132 243.338 604.533 243.34L606.308 243.343C605.925 240.724 605.276 239.616 602.399 239.854C600.785 240.762 600.592 241.527 600.33 243.308Z" fill="white"/>
<path d="M661.4 202.936C662.688 202.873 664.176 202.924 665.479 202.937C665.047 203.878 664.426 205.781 664.058 206.805L661.438 214C659.273 220.118 659.163 224.576 651.45 223.604L651.117 220.668C654.023 221.186 654.685 220.592 655.83 218.082C654.767 214.654 652.959 210.745 651.794 207.303C651.346 205.976 650.648 204.524 650.326 203.168L650.505 202.945C651.867 202.902 653.025 202.912 654.386 202.954C655.085 205.407 657.041 211.161 657.964 213.491C658.97 210.091 660.251 206.302 661.4 202.936Z" fill="white"/>
<path d="M637.279 236.815C643.356 236.89 642.763 241.308 642.763 245.84C642.763 247.932 642.747 250.057 642.735 252.148C641.418 252.177 640.014 252.148 638.689 252.143C638.694 249.666 639.209 242.321 637.946 240.551C637.606 240.074 637.057 239.644 636.446 239.628C635.513 239.605 634.535 240.256 633.872 240.843C632.67 242.723 633.057 249.65 633.048 252.148C631.743 252.171 630.389 252.148 629.079 252.145C629.057 247.151 629.064 242.159 629.1 237.166C630.295 237.122 631.58 237.158 632.782 237.17L632.77 239.266C634.302 237.597 635.101 237.138 637.279 236.815Z" fill="white"/>
<path d="M566.461 202.61C570.935 202.44 572.175 204.861 572.148 208.911C572.128 211.899 572.132 214.933 572.117 217.927C570.845 217.969 569.411 217.93 568.126 217.922C567.983 214.853 569.721 201.477 563.327 206.531C562.019 208.554 562.491 215.155 562.424 217.931C561.104 217.94 559.783 217.937 558.462 217.922C558.438 212.926 558.446 207.928 558.486 202.93C559.686 202.884 560.994 202.923 562.204 202.936C562.176 203.611 562.178 204.359 562.166 205.042C563.64 203.458 564.371 202.965 566.461 202.61Z" fill="white"/>
<path d="M726.173 236.816C732.105 236.601 731.743 241.556 731.668 245.803C731.631 247.898 731.65 250.051 731.639 252.149C730.318 252.177 728.916 252.148 727.588 252.143C727.672 249.754 728.062 242.454 726.982 240.723C726.658 240.205 726.134 239.776 725.508 239.706C724.533 239.596 723.575 240.18 722.847 240.749C721.546 242.79 721.977 249.418 721.949 252.151L717.984 252.145C717.961 247.151 717.967 242.158 718.006 237.164C719.204 237.122 720.492 237.158 721.697 237.17L721.68 239.261C723.231 237.599 723.986 237.147 726.173 236.816Z" fill="white"/>
<path d="M683.349 236.817C687.443 236.665 688.857 239.088 688.841 242.799C688.828 245.908 688.832 249.037 688.816 252.148C687.497 252.177 686.093 252.148 684.767 252.143C684.836 249.725 685.257 242.513 684.158 240.727C683.821 240.18 683.338 239.794 682.695 239.684C681.765 239.524 680.675 240.234 680.006 240.784C678.736 242.779 679.159 249.452 679.126 252.151C677.815 252.165 676.476 252.148 675.162 252.145C675.137 247.151 675.144 242.158 675.185 237.166C676.389 237.12 677.691 237.158 678.906 237.17C678.866 237.835 678.869 238.589 678.856 239.263C680.414 237.6 681.154 237.15 683.349 236.817Z" fill="white"/>
<path d="M540.79 202.923C542.124 202.887 543.434 202.92 544.767 202.943C544.754 205.295 544.268 213.04 545.565 214.577C545.94 215.026 546.489 215.296 547.075 215.321C551.203 215.497 550.318 209.665 550.383 207.039C550.416 205.693 550.383 204.306 550.39 202.955C551.444 202.895 552.675 202.907 553.743 202.889C554.133 203.693 554.018 216.068 553.894 217.613H551.134C551.057 217.013 550.983 216.453 550.878 215.858L550.683 215.768L550.586 215.928C549.446 217.187 547.68 218.305 545.973 218.294C542.098 218.27 540.726 215.711 540.749 212.298C540.77 209.093 540.77 206.042 540.79 202.923Z" fill="white"/>
<path d="M533.597 237.158C534.909 237.117 536.254 237.154 537.569 237.173C537.575 239.525 537.008 247.273 538.405 248.834C538.834 249.314 539.419 249.545 540.058 249.545C540.829 249.546 541.539 249.298 542.075 248.733C543.785 246.93 543.199 239.867 543.196 237.177C544.037 237.141 544.543 237.132 545.392 237.18C545.817 237.276 546.217 237.362 546.645 237.442C546.88 241.198 546.705 244.999 546.774 248.762C546.793 249.778 546.764 250.786 546.678 251.798C545.754 251.813 544.814 251.85 543.894 251.776L543.709 250.192L543.538 250.085L543.384 250.148C542.152 251.49 540.801 252.383 538.98 252.46C533.175 252.707 533.475 247.615 533.56 243.471C533.604 241.304 533.584 239.207 533.597 237.158Z" fill="white"/>
<path d="M467.662 232.045L467.847 232.224C467.964 233.738 467.91 235.557 467.905 237.097L470.572 237.179L470.555 240.092C469.673 240.109 468.791 240.118 467.909 240.117C467.892 242.864 467.748 246.014 468.052 248.745C468.18 249.904 469.752 249.426 470.521 249.241C470.658 250.154 470.771 251.071 470.857 251.989C469.973 252.275 469.473 252.342 468.556 252.485C464.696 252.541 463.835 250.914 463.896 247.291C463.936 244.936 463.928 242.506 463.941 240.145L462.073 240.083C462.067 239.123 462.085 238.142 462.093 237.182L463.903 237.119L463.947 234.124C465.193 233.444 466.432 232.752 467.662 232.045Z" fill="white"/>
<path d="M558.03 236.803C559.309 236.881 559.697 237.031 560.786 237.607C560.45 238.858 560.015 240.084 559.599 241.31C559.082 241.037 558.368 240.781 557.779 240.765C557.201 240.746 556.641 240.969 556.236 241.38C554.701 242.919 555.159 249.666 555.169 252.148L552.7 252.162L552.445 252.159C551.958 252.157 551.573 252.234 551.2 251.957C551.047 250.798 551.168 248.539 551.157 247.277C551.127 243.926 551.222 240.53 551.134 237.182C552.32 237.117 553.633 237.154 554.83 237.161L554.892 239.173C554.981 239.041 555.071 238.91 555.161 238.778C556.073 237.461 556.425 237.094 558.03 236.803Z" fill="white"/>
<path d="M692.554 237.18C693.802 237.119 695.231 237.163 696.492 237.172C696.392 242.035 696.485 247.261 696.467 252.152L692.532 252.146C692.508 247.157 692.516 242.17 692.554 237.18Z" fill="white"/>
<path d="M692.545 231.628C693.819 231.584 695.203 231.616 696.486 231.623L696.483 235.188C695.223 235.245 693.797 235.194 692.524 235.177L692.545 231.628Z" fill="white"/>
<path d="M545.392 237.18C546.01 237.151 546.506 237.066 547.074 237.282C547.422 238.256 547.168 250.171 547.192 252.157L543.505 252.146C543.526 251.518 543.619 250.708 543.384 250.148L543.538 250.085L543.709 250.192L543.894 251.777C544.814 251.85 545.754 251.813 546.678 251.799C546.764 250.786 546.793 249.778 546.774 248.763C546.705 244.999 546.88 241.198 546.645 237.442C546.217 237.362 545.817 237.276 545.392 237.18Z" fill="white" fill-opacity="0.968627"/>
<path d="M553.743 202.889L554.24 202.99C554.496 203.458 554.367 216.333 554.36 217.938L550.677 217.925C550.708 217.203 550.793 216.613 550.586 215.928L550.683 215.768L550.878 215.858C550.983 216.453 551.057 217.013 551.134 217.613H553.894C554.019 216.068 554.133 203.693 553.743 202.889Z" fill="white" fill-opacity="0.964706"/>
<path d="M670.158 231.569L670.869 231.651C671.254 232.182 671.095 244.814 670.883 246.06C670.364 242.278 670.901 237.001 670.68 233.125C670.635 232.341 670.67 232.03 670.158 231.569Z" fill="white" fill-opacity="0.964706"/>
<path d="M528.802 239.722L529.132 239.845C529.356 240.435 529.27 242.621 529.264 243.357C527.866 243.365 519.813 243.502 518.913 243.27C519.709 243.04 527.203 243.131 528.675 243.097C528.913 241.646 528.643 240.542 528.802 239.722Z" fill="white" fill-opacity="0.964706"/>
</g>
<defs>
<clipPath id="clip0_167_156">
<rect width="270" height="250" fill="white" transform="translate(462 8)"/>
</clipPath>
</defs>
</svg>
