<svg width="723" height="265" viewBox="0 0 723 265" fill="none" xmlns="http://www.w3.org/2000/svg">
<path d="M41.7251 36.9213L0 79.3073V199.457L41.7252 239.586L41.7251 36.9213Z" fill="white"/>
<path d="M160.94 197.861H47.6859L47.6859 239.586H120.63L160.94 197.861Z" fill="white"/>
<path d="M161 78.8267L161 191.901H119.215V78.8267H159.078H161Z" fill="white"/>
<path d="M154.964 64.7256H120.068V29.8281L154.964 64.7256Z" stroke="white" stroke-width="4"/>
<path d="M182.63 124V104.8C182.63 100.789 183.27 97.2907 184.55 94.304C185.915 91.3173 188.049 88.672 190.95 86.368C193.851 83.9787 197.691 81.76 202.47 79.712L217.574 73.184C221.414 71.5627 224.23 69.5573 226.022 67.168C227.899 64.7787 228.838 61.7493 228.838 58.08C228.838 54.3253 227.686 51.2533 225.382 48.864C223.078 46.4747 219.707 45.28 215.27 45.28C210.833 45.28 207.462 46.5173 205.158 48.992C202.854 51.4667 201.702 54.7947 201.702 58.976H181.35C181.35 53.088 182.63 47.7973 185.19 43.104C187.75 38.3253 191.547 34.5707 196.582 31.84C201.617 29.1093 207.846 27.744 215.27 27.744C222.694 27.744 228.881 29.0667 233.83 31.712C238.865 34.3573 242.662 37.8987 245.222 42.336C247.867 46.7733 249.19 51.7653 249.19 57.312V58.848C249.19 66.016 247.227 71.9467 243.302 76.64C239.377 81.248 233.318 85.344 225.126 88.928L210.15 95.456C207.59 96.5653 205.755 97.7173 204.646 98.912C203.622 100.107 203.11 101.728 203.11 103.776V110.176L198.118 105.952H249.318V124H182.63ZM298.321 126.432C290.897 126.432 284.54 125.237 279.249 122.848C273.958 120.373 269.649 117.045 266.321 112.864C263.078 108.683 260.646 103.861 259.025 98.4C257.489 92.8533 256.721 87.008 256.721 80.864V73.568C256.721 65.0347 258.214 57.312 261.201 50.4C264.188 43.488 268.753 37.984 274.897 33.888C281.041 29.792 288.849 27.744 298.321 27.744C307.793 27.744 315.558 29.792 321.617 33.888C327.761 37.984 332.326 43.488 335.313 50.4C338.3 57.312 339.793 65.0347 339.793 73.568V80.864C339.793 87.008 338.982 92.8533 337.361 98.4C335.825 103.861 333.393 108.683 330.065 112.864C326.822 117.045 322.556 120.373 317.265 122.848C312.06 125.237 305.745 126.432 298.321 126.432ZM298.321 107.104C305.233 107.104 310.353 104.715 313.681 99.936C317.094 95.072 318.801 87.5627 318.801 77.408C318.801 66.656 317.052 58.9333 313.553 54.24C310.14 49.4613 305.062 47.072 298.321 47.072C291.409 47.072 286.246 49.4613 282.833 54.24C279.42 58.9333 277.713 66.5707 277.713 77.152C277.713 87.392 279.377 94.944 282.705 99.808C286.118 104.672 291.324 107.104 298.321 107.104ZM187.505 229V209.8C187.505 205.789 188.145 202.291 189.425 199.304C190.79 196.317 192.924 193.672 195.825 191.368C198.726 188.979 202.566 186.76 207.345 184.712L222.449 178.184C226.289 176.563 229.105 174.557 230.897 172.168C232.774 169.779 233.713 166.749 233.713 163.08C233.713 159.325 232.561 156.253 230.257 153.864C227.953 151.475 224.582 150.28 220.145 150.28C215.708 150.28 212.337 151.517 210.033 153.992C207.729 156.467 206.577 159.795 206.577 163.976H186.225C186.225 158.088 187.505 152.797 190.065 148.104C192.625 143.325 196.422 139.571 201.457 136.84C206.492 134.109 212.721 132.744 220.145 132.744C227.569 132.744 233.756 134.067 238.705 136.712C243.74 139.357 247.537 142.899 250.097 147.336C252.742 151.773 254.065 156.765 254.065 162.312V163.848C254.065 171.016 252.102 176.947 248.177 181.64C244.252 186.248 238.193 190.344 230.001 193.928L215.025 200.456C212.465 201.565 210.63 202.717 209.521 203.912C208.497 205.107 207.985 206.728 207.985 208.776V215.176L202.993 210.952H254.193V229H187.505ZM300.252 231.688C293.34 231.688 287.409 230.579 282.46 228.36C277.511 226.056 273.457 222.856 270.3 218.76C267.228 214.579 264.924 209.8 263.388 204.424C261.937 199.048 261.212 193.288 261.212 187.144V181.768C261.212 166.237 265.18 154.547 273.116 146.696C281.052 138.76 292.743 134.792 308.188 134.792C311.345 134.792 314.46 134.877 317.532 135.048C320.604 135.219 323.591 135.475 326.492 135.816V153.352C323.676 153.096 320.647 152.883 317.404 152.712C314.161 152.456 310.833 152.328 307.42 152.328C300.593 152.328 295.217 153.48 291.292 155.784C287.367 158.003 284.593 161.373 282.972 165.896C281.351 170.419 280.54 176.008 280.54 182.664V192.392L275.932 195.464C276.017 189.064 277.297 183.731 279.772 179.464C282.332 175.112 285.831 171.869 290.268 169.736C294.705 167.603 299.825 166.536 305.628 166.536C312.199 166.536 317.873 167.859 322.652 170.504C327.431 173.064 331.1 176.691 333.66 181.384C336.22 186.077 337.5 191.624 337.5 198.024C337.5 204.765 335.964 210.696 332.892 215.816C329.82 220.851 325.468 224.776 319.836 227.592C314.289 230.323 307.761 231.688 300.252 231.688ZM299.612 214.28C303.367 214.28 306.524 213.597 309.084 212.232C311.729 210.867 313.735 209.032 315.1 206.728C316.551 204.339 317.276 201.565 317.276 198.408C317.276 195.165 316.593 192.392 315.228 190.088C313.863 187.699 311.9 185.864 309.34 184.584C306.865 183.219 303.793 182.536 300.124 182.536C296.796 182.536 293.724 183.133 290.908 184.328C288.177 185.437 286.001 187.187 284.38 189.576C282.759 191.88 281.948 194.824 281.948 198.408C281.948 201.48 282.588 204.211 283.868 206.6C285.233 208.989 287.239 210.867 289.884 212.232C292.529 213.597 295.772 214.28 299.612 214.28Z" fill="white"/>
<rect x="410" width="1" height="265" fill="#D9D9D9"/>
<g clip-path="url(#clip0_188_227)">
<path d="M472.881 28.1482L722.354 28.1627L722.368 132.105L722.367 174.449C722.367 176.39 722.495 196.794 722.182 197.277L561.14 197.289L503.385 197.287C493.337 197.287 482.849 197.44 472.845 197.255L472.881 28.1482ZM477.692 192.229C485.076 192.288 492.46 192.301 499.844 192.273L539.242 192.272L657.762 192.269C677.465 192.27 697.515 192.075 717.19 192.282C717.605 191.928 717.435 187.143 717.435 186.229L717.437 175.794V142.785L717.44 32.9543L550.422 32.9282L500.864 32.9269L485.413 32.9397C483.556 32.9417 479.487 33.0619 477.736 32.9012C477.463 37.8642 477.691 45.3357 477.691 50.5017L477.691 84.7218L477.692 192.229Z" fill="white"/>
<path d="M597.478 52.0168C597.93 52.547 599.216 56.9617 599.478 57.8383C601.515 57.9483 603.899 57.931 605.959 57.9648C604.431 58.9255 602.309 60.5748 600.804 61.6758C601.16 63.2421 602.164 66.1585 602.711 67.7477C600.997 66.5263 599.295 65.289 597.605 64.0357C596.919 64.336 593.064 67.2517 592.362 67.8352C593.039 65.7962 593.7 63.752 594.346 61.7029C592.776 60.5531 590.67 58.9237 589.058 57.9398L595.548 57.9023C596.214 55.9678 596.843 53.9657 597.478 52.0168Z" fill="white"/>
<path d="M571.323 149.609C571.768 150.126 573.099 154.605 573.376 155.484C575.476 155.527 577.577 155.542 579.677 155.531C578.091 156.774 576.247 158.06 574.604 159.254C575.202 161.159 575.895 163.57 576.617 165.389C575.11 164.164 572.972 162.714 571.359 161.596C569.637 162.817 567.934 164.064 566.249 165.335C566.915 163.309 567.552 161.272 568.161 159.228L563.041 155.539L569.402 155.53C569.962 153.627 570.704 151.515 571.323 149.609Z" fill="white"/>
<path d="M597.482 156.498C597.966 157.141 599.219 161.455 599.506 162.399C601.588 162.46 603.758 162.446 605.847 162.46C604.206 163.73 602.446 164.949 600.777 166.22C601.404 168.243 602.05 170.259 602.714 172.27C601.02 170.996 599.295 169.762 597.544 168.569C596.717 169.009 593.397 171.51 592.438 172.205L594.355 166.196L589.12 162.407C590.82 162.538 593.77 162.438 595.562 162.432L597.482 156.498Z" fill="white"/>
<path d="M623.643 149.58C624.137 150.277 625.37 154.488 625.666 155.48C627.793 155.528 629.919 155.545 632.047 155.528L626.938 159.235C627.501 161.147 628.226 163.499 628.905 165.338C627.185 164.061 625.444 162.815 623.68 161.599C622.034 162.776 620.1 164.097 618.56 165.364C619.262 163.439 619.834 161.276 620.564 159.244C618.869 158.174 617.019 156.692 615.292 155.518C617.435 155.539 619.579 155.542 621.724 155.528L623.643 149.58Z" fill="white"/>
<path d="M649.772 104.25C650.249 104.692 651.577 109.219 651.855 110.102C653.962 110.153 656.07 110.179 658.177 110.181C656.532 111.299 654.717 112.682 653.087 113.863C653.712 115.873 654.332 117.95 655.025 119.932C653.472 118.714 651.48 117.354 649.853 116.171C648.22 117.423 646.391 118.705 644.716 119.929C645.403 118.002 646.031 115.835 646.642 113.866C644.964 112.631 643.276 111.412 641.577 110.208C643.653 110.117 645.764 110.149 647.845 110.157C648.517 108.23 649.144 106.199 649.772 104.25Z" fill="white"/>
<path d="M552.105 130.498C552.628 131.076 553.855 135.346 554.152 136.313C556.249 136.362 558.346 136.399 560.443 136.424C558.781 137.669 557.063 138.899 555.384 140.126C556.062 142.033 556.71 144.208 557.328 146.155C556.378 145.445 552.99 142.787 552.028 142.545L546.993 146.182C547.637 144.647 548.452 141.785 548.981 140.112C547.255 138.871 545.538 137.618 543.83 136.353C545.433 136.474 548.471 136.366 550.2 136.373L552.105 130.498Z" fill="white"/>
<path d="M545.106 104.381C545.577 104.842 546.854 109.286 547.125 110.159C549.084 110.245 551.469 110.262 553.426 110.219C551.879 111.46 549.99 112.772 548.365 113.951C549.033 115.921 549.661 118.014 550.303 120.007C548.743 118.784 546.792 117.458 545.159 116.289C543.816 117.194 541.081 119.12 539.947 120.137C540.62 118.342 541.399 115.775 541.923 113.917L536.738 110.176C538.095 110.324 541.673 110.22 543.157 110.213C543.776 108.259 544.426 106.314 545.106 104.381Z" fill="white"/>
<path d="M571.29 59.053C571.705 59.4709 573.045 64.0594 573.297 64.9274C575.214 65.0412 577.656 64.9933 579.612 65.0078C578.099 66.2146 576.165 67.5518 574.578 68.7122L576.472 74.7532C574.777 73.4927 573.063 72.2577 571.331 71.0489C569.671 72.2379 567.794 73.527 566.221 74.7956C566.854 72.7575 567.504 70.7245 568.169 68.6965C566.576 67.5949 564.615 66.2388 563.123 65.0187C565.172 64.9669 567.303 64.9856 569.358 64.9759L571.29 59.053Z" fill="white"/>
<path d="M642.944 130.361C643.544 131.83 644.377 134.701 644.866 136.3C646.961 136.362 649.057 136.403 651.154 136.422C649.684 137.603 647.671 138.988 646.117 140.125L648.043 146.127L642.922 142.445C641.466 143.445 639.082 145.104 637.797 146.207C638.405 144.168 639.048 142.138 639.725 140.12L634.571 136.368C636.482 136.447 638.944 136.36 640.895 136.348C641.622 134.498 642.18 132.339 642.944 130.361Z" fill="white"/>
<path d="M552.096 78.2554C552.626 78.7822 553.87 83.1523 554.159 84.0956C556.218 84.1769 558.374 84.1596 560.443 84.1709C558.764 85.4195 557.075 86.6532 555.375 87.8721C556.065 89.8216 556.694 91.9401 557.316 93.9245C555.918 92.7717 553.709 91.283 552.187 90.1911C550.448 91.4318 548.715 92.6828 546.991 93.9441C547.58 92.6076 548.506 89.3688 548.986 87.8476C547.296 86.7049 545.556 85.3545 543.848 84.1641C545.949 84.1896 548.058 84.1427 550.18 84.1729L552.096 78.2554Z" fill="white"/>
<path d="M642.897 78.0912C643.29 78.7971 644.563 82.9582 644.897 84.0291L651.279 84.1007C649.928 84.9055 647.494 86.7909 646.139 87.7793C646.756 89.769 647.39 91.9617 648.124 93.8909C646.664 92.7104 644.485 91.2409 642.917 90.1135C641.213 91.3316 639.434 92.5699 637.783 93.8488L639.721 87.7789C637.998 86.5677 636.283 85.2218 634.516 84.0887L640.889 84.0611L642.897 78.0912Z" fill="white"/>
<path d="M623.718 59.0758C624.162 59.5325 625.491 64.0847 625.761 64.9518L632.059 65.007C630.412 66.2559 628.68 67.4867 627.004 68.7053C627.628 70.743 628.283 72.7714 628.966 74.7899C627.462 73.6163 625.34 72.118 623.75 71.0682C622.042 72.2776 620.346 73.5045 618.663 74.7487C619.266 72.8189 619.912 70.5969 620.649 68.7406C618.92 67.5638 617.11 66.1971 615.393 64.9665C617.29 65.0638 619.838 64.9838 621.784 64.9797L623.718 59.0758Z" fill="white"/>
<path d="M556.331 214C564.427 213.981 565.914 224.596 561.73 229.644C558.792 233.188 554.822 232.507 551.652 229.548L551.644 235.219L551.621 237.982C550.112 238.021 548.516 237.986 547 237.977C547.166 230.332 547 222.126 547.016 214.42C548.407 214.356 549.878 214.398 551.276 214.415L551.292 216.823C552.8 214.895 553.99 214.325 556.331 214ZM556.5 228.537C557.724 227.929 558.583 227.139 558.934 225.802C559.919 222.061 559.475 217.028 554.367 217.5C553.059 218.194 552.278 218.926 551.888 220.387C550.962 223.856 551.755 229.036 556.5 228.537Z" fill="white"/>
<path d="M473.009 208.073C478.615 207.935 484.936 208.026 490.555 208.073L490.546 212.212C486.861 212.414 481.616 212.279 477.811 212.296C477.76 213.972 477.777 215.796 477.764 217.484C481.559 217.515 485.354 217.518 489.149 217.493C488.967 218.447 489.278 219.73 489.004 221.418C487.311 221.457 478.696 221.352 477.781 221.62L477.764 227.721C482.175 227.777 486.582 227.689 491 227.789C490.931 229.097 490.95 230.624 490.933 231.949C485.037 232.051 478.908 231.974 473 231.943L473.009 208.073Z" fill="white"/>
<path d="M534.286 214.029C539.207 213.636 543.525 217.283 543.964 222.2C544.402 227.118 540.798 231.47 535.885 231.956C530.905 232.447 526.481 228.783 526.036 223.798C525.592 218.816 529.298 214.425 534.286 214.029ZM536.037 228.518C540.839 226.393 540.511 216.814 533.924 217.504C529.053 219.693 529.854 229.386 536.037 228.518Z" fill="white"/>
<path d="M693.28 214.029C698.221 213.633 702.551 217.306 702.968 222.243C703.384 227.182 699.73 231.528 694.794 231.964C689.828 232.404 685.451 228.725 685.032 223.757C684.613 218.79 688.311 214.429 693.28 214.029ZM695.084 228.502C699.841 226.364 699.511 216.714 692.826 217.523C688.026 219.889 688.921 229.467 695.084 228.502Z" fill="white"/>
<path d="M633.078 208.064C634.656 208.018 636.337 208.055 637.923 208.062L637.918 218.121C637.916 220.297 637.829 222.349 638.119 224.516C638.676 228.668 646.474 229.044 647.086 224.758C647.415 222.456 647.345 220.228 647.343 217.9L647.342 208.07C648.611 208.054 649.882 208.03 651.151 208C651.748 208.526 651.707 208.882 651.76 209.777C652.017 214.205 651.391 220.233 651.997 224.553C652.232 232.792 639.819 233.893 635.1 229.34C632.63 226.957 633.025 220.882 633.021 217.6C633.004 214.422 633.023 211.242 633.078 208.064Z" fill="white"/>
<path d="M591.92 214.023C605.084 213.442 597.517 224.074 600.903 231.327L601 231.53C599.505 231.576 597.946 231.551 596.446 231.549L596.012 229.613C592.822 232.096 589.332 233.235 586.073 230.066C585.149 228.745 584.838 227.4 585.077 225.954C585.914 220.892 592.185 222.172 595.335 220.192C595.577 219.976 595.787 219.551 595.7 219.231C595.145 217.224 593.129 217.335 591.483 217.506C590.307 217.627 590.391 218.759 589.677 219.125C588.545 219.704 586.628 219.1 585.443 218.836C586.834 215.144 588.193 214.471 591.92 214.023ZM590.745 228.274C592.874 228.915 594.265 228.349 595.459 226.502C595.542 225.677 595.705 224.735 595.535 223.947C595.392 223.92 595.241 223.873 595.112 223.893C593.183 224.274 586.624 225.24 590.745 228.274Z" fill="white"/>
<path d="M573.381 214C580.108 214.097 581.99 218.076 582 224.062C578.391 224.174 574.235 224.119 570.601 224.092C571.228 228.275 574.958 230.67 577.292 226.35C578.504 226.48 579.476 226.66 580.675 226.889C581.13 226.929 581.201 226.877 581.538 227.156C581.841 228.93 577.961 231.572 576.196 231.85C566.832 233.321 563.587 223.66 567.845 216.928C569.046 215.029 571.16 214.315 573.381 214ZM570.7 221.422C572.305 221.443 573.911 221.456 575.516 221.459L577.55 221.463C577.111 218.471 576.368 217.206 573.071 217.477C571.221 218.515 571 219.388 570.7 221.422Z" fill="white"/>
<path d="M613.583 214C620.674 214.088 619.982 219.27 619.982 224.585C619.982 227.04 619.963 229.532 619.949 231.985C618.412 232.019 616.774 231.985 615.228 231.98C615.233 229.074 615.834 220.458 614.361 218.382C613.964 217.823 613.324 217.318 612.611 217.3C611.522 217.272 610.38 218.036 609.608 218.725C608.205 220.93 608.656 229.055 608.646 231.985C607.123 232.012 605.543 231.985 604.015 231.981C603.989 226.124 603.997 220.269 604.039 214.411C605.433 214.36 606.932 214.403 608.335 214.417L608.321 216.874C610.109 214.917 611.042 214.379 613.583 214Z" fill="white"/>
<path d="M715.559 214.008C722.473 213.755 722.051 219.565 721.964 224.545C721.921 227.002 721.943 229.526 721.929 231.986C720.391 232.019 718.756 231.984 717.209 231.979C717.307 229.178 717.762 220.618 716.503 218.588C716.125 217.981 715.515 217.478 714.784 217.396C713.649 217.267 712.532 217.952 711.683 218.619C710.167 221.012 710.669 228.784 710.637 231.988L706.016 231.981C705.989 226.126 705.996 220.271 706.042 214.416C707.438 214.366 708.939 214.409 710.344 214.423L710.323 216.874C712.131 214.925 713.011 214.395 715.559 214.008Z" fill="white"/>
<path d="M666.583 214.008C671.366 213.831 673.019 216.671 673 221.023C672.984 224.669 672.99 228.337 672.971 231.985C671.43 232.019 669.789 231.985 668.24 231.98C668.321 229.144 668.813 220.687 667.528 218.593C667.135 217.952 666.571 217.499 665.819 217.37C664.732 217.182 663.458 218.015 662.678 218.66C661.194 220.999 661.687 228.824 661.649 231.988C660.117 232.006 658.552 231.985 657.017 231.981C656.988 226.126 656.996 220.271 657.044 214.417C658.451 214.364 659.973 214.409 661.391 214.423C661.345 215.202 661.348 216.086 661.333 216.876C663.154 214.927 664.019 214.398 666.583 214.008Z" fill="white"/>
<path d="M495.078 214.022C496.563 213.974 498.085 214.017 499.574 214.039C499.581 216.801 498.938 225.899 500.52 227.732C501.006 228.296 501.668 228.566 502.391 228.566C503.264 228.568 504.068 228.277 504.674 227.613C506.61 225.496 505.947 217.203 505.944 214.044C506.895 214.001 507.468 213.991 508.429 214.048C508.91 214.16 509.363 214.261 509.847 214.355C510.113 218.766 509.915 223.228 509.994 227.648C510.015 228.84 509.982 230.024 509.885 231.213C508.839 231.23 507.775 231.273 506.733 231.187L506.524 229.326L506.33 229.2L506.156 229.274C504.761 230.851 503.232 231.899 501.171 231.99C494.6 232.279 494.94 226.3 495.035 221.434C495.085 218.89 495.062 216.427 495.078 214.022Z" fill="white"/>
<path d="M522.863 214C524.318 214.091 524.76 214.266 526 214.942C525.618 216.407 525.123 217.844 524.649 219.279C524.06 218.96 523.248 218.661 522.577 218.642C521.919 218.619 521.282 218.881 520.821 219.362C519.074 221.165 519.595 229.07 519.606 231.977L516.796 231.994L516.506 231.991C515.951 231.987 515.513 232.078 515.089 231.754C514.915 230.395 515.052 227.75 515.04 226.271C515.006 222.345 515.113 218.367 515.013 214.444C516.363 214.368 517.858 214.411 519.221 214.419L519.291 216.776C519.392 216.622 519.494 216.469 519.598 216.314C520.635 214.77 521.036 214.34 522.863 214Z" fill="white"/>
<path d="M677.045 214.039C678.615 213.965 680.413 214.018 682 214.028C681.874 219.862 681.991 226.133 681.969 232L677.017 231.993C676.987 226.008 676.997 220.024 677.045 214.039Z" fill="white"/>
<path d="M677.026 208.025C678.634 207.976 680.38 208.012 682 208.02L681.996 211.971C680.406 212.034 678.607 211.977 677 211.959L677.026 208.025Z" fill="white"/>
<path d="M508.073 214.05C508.711 214.014 509.223 213.912 509.809 214.171C510.168 215.339 509.906 229.62 509.931 232L506.125 231.988C506.147 231.235 506.243 230.264 506 229.592L506.159 229.517L506.336 229.645L506.527 231.544C507.477 231.632 508.446 231.588 509.401 231.571C509.489 230.357 509.519 229.149 509.5 227.932C509.428 223.421 509.609 218.865 509.366 214.363C508.925 214.268 508.511 214.164 508.073 214.05Z" fill="white" fill-opacity="0.968627"/>
<path d="M651 208L651.752 208.096C652.16 208.72 651.992 223.538 651.767 225C651.218 220.564 651.786 214.373 651.553 209.825C651.504 208.906 651.542 208.541 651 208Z" fill="white" fill-opacity="0.964706"/>
<path d="M489.441 217L489.823 217.167C490.082 217.968 489.983 220.937 489.975 221.935C488.358 221.947 479.041 222.132 478 221.817C478.921 221.505 487.591 221.628 489.294 221.582C489.57 219.612 489.257 218.114 489.441 217Z" fill="white" fill-opacity="0.964706"/>
</g>
<defs>
<clipPath id="clip0_188_227">
<rect width="251" height="210" fill="white" transform="translate(472 28)"/>
</clipPath>
</defs>
</svg>
