<?xml version="1.0" encoding="UTF-8" standalone="no"?>
<svg xmlns="http://www.w3.org/2000/svg" height="140" width="140" version="1.1" viewBox="0 0 140 140" >
  
  <path d="M 68,0.050781 C 30.378605,1.119279 0,32.129172 0,70 0,87.14886 6.239946,102.8849 16.548828,115.08203 22.893915,112.7262 28.747204,109.05574 33.607422,104.35742 25.16676,95.41552 20,83.34555 20,70 20,42.938098 41.20567,21.092325 68,20.050781 Z M 70,121.64062 C 63.557078,127.81744 56.001408,132.83911 47.804688,136.35938 54.786969,138.70761 62.245802,140 70,140 Z" id="path881" fill="#fff" />
  <path d="m 120,0 c -7.71151,0 -15.13093,1.278034 -22.08008,3.601562 2.43679,1.049675 4.81465,2.234872 7.1211,3.548829 4.73014,-2.678768 9.75253,-4.829594 14.95898,-6.375 z M 70.115234,21.914062 c -0.299003,0.0017 -0.599083,0.01939 -0.898437,0.02734 C 57.32532,34.498445 50,51.419545 50,70 50,97.73268 27.732684,120 0,120 v 20 c 6.220095,0 12.251329,-0.83093 18,-2.36719 V 118.02344 C 36.725166,118.93601 55.353521,107.92061 63.275391,90.88672 69.460329,79.743354 66.918347,66.730685 69.632812,54.777344 71.905048,43.42929 77.212403,32.978226 84.56055,24.210938 79.917019,22.695794 75.042945,21.885316 70.115234,21.914062 Z" id="path879" fill="#fff" />
  <path d="m 140,0 c -11.92108,0 -23.16133,3.016506 -33.00586,8.314453 6.33773,3.876533 12.09887,8.711934 17.02539,14.283203 C 129.03386,20.921326 134.40213,20 140,20 Z M 86.55273,24.912109 C 78.701165,34.199963 73.224942,45.543088 71.054688,58 H 91.44336 c 2.0789,-8.520871 6.3253,-16.161747 12.12891,-22.322266 C 98.71107,30.986683 92.88054,27.288315 86.55273,24.912109 Z M 68.556641,82 C 63.217595,103.88336 43.590844,120 20,120 v 20 c 34.449727,0 63.22043,-25.1401 68.94531,-58 z" id="path877" fill="#fff" />
  <path d="m 70,0 v 20 c 24.30516,0 44.40891,17.103737 49.00781,40 -16.0931,0 -32.1862,0 -48.279294,0 C 70.256908,63.268679 70,66.60472 70,70 70,73.427516 69.65635,76.771168 69.007812,80 86.00521,80 103.0026,80 120,80 v 60 h 20 V 70 C 140,31.458514 108.54149,0 70,0 Z" id="path875" fill="#fff" />
</svg>