<svg width="510" height="389" viewBox="0 0 510 389" fill="none" xmlns="http://www.w3.org/2000/svg">
<g clip-path="url(#clip0_192_5)">
<path d="M0.985352 1.00049L509.016 0.991608L508.993 328.265H1.03292L0.985352 1.00049Z" fill="#044DA4"/>
<path d="M199.33 54.4854C200.786 57.1236 202.612 63.6108 203.44 66.6322C208.016 66.7756 213.161 66.6561 217.78 66.65L206.268 74.6353C207.842 78.8297 209.259 83.0816 210.515 87.3818C206.97 84.592 203.14 82.0292 199.417 79.4687C195.683 82.0331 192.059 84.6798 188.279 87.238C189.715 83.1693 190.971 78.726 192.663 74.7915C188.878 71.921 184.958 69.2329 180.916 66.7366C185.534 66.6024 190.54 66.6998 195.189 66.7049C196.486 62.6041 197.867 58.53 199.33 54.4854Z" fill="#FEF203"/>
<path d="M310.134 54.8383C311.689 56.0302 313.886 64.4556 314.539 66.6735C319.246 66.7238 324.06 66.6511 328.774 66.6326L317.204 74.6875C318.681 78.3359 320.274 83.5494 321.57 87.3787L310.904 79.6914C308.951 80.0703 301.379 85.8671 299.388 87.3339C300.54 83.2207 302.191 78.6371 303.568 74.5456C300.621 72.8345 295.172 68.8316 292.121 66.7729C296.688 66.5896 301.719 66.6418 306.321 66.597C307.366 62.8964 308.916 58.5436 310.134 54.8383Z" fill="#FEF203"/>
<path d="M143.701 147.624C145.255 148.901 147.477 157.199 148.129 159.418C152.837 159.472 157.545 159.449 162.252 159.348C158.446 162.072 154.777 164.696 150.862 167.259C152.303 171.462 153.678 175.686 154.986 179.932C151.376 177.314 147.93 174.797 144.186 172.375C142.804 172.877 134.752 178.687 132.871 179.967C134.383 175.755 135.805 171.51 137.138 167.238C133.919 165.39 128.858 161.664 125.837 159.416L139.702 159.471C141.083 155.538 142.416 151.589 143.701 147.624Z" fill="#FEF203"/>
<path d="M158.783 93.9507C159.972 95.0962 162.547 104.095 163.15 106.048C167.839 105.995 172.528 106.008 177.216 106.088C173.658 108.197 169.126 111.51 165.638 113.918C167.149 117.406 168.812 122.771 170.077 126.492C166.766 124.459 162.262 121.026 159.007 118.689C155.519 120.855 150.91 124.301 147.649 126.824L152.037 113.919C148.321 111.162 144.473 108.587 140.507 106.203C145.251 105.981 149.913 106.017 154.658 106.026C156.069 102.029 157.418 97.9671 158.783 93.9507Z" fill="#FEF203"/>
<path d="M254.78 254.445C255.909 255.592 258.465 264.648 259.072 266.641C263.38 266.816 268.698 266.657 273.079 266.645L261.644 274.501C263.133 278.061 264.861 283.397 265.952 287.106C262.464 284.782 258.647 281.927 255.197 279.471C253.739 279.898 245.808 285.736 243.855 287.075C244.93 283.153 246.693 278.34 248.02 274.414C244.288 271.795 240.518 269.231 236.711 266.723C241.387 266.648 246.063 266.63 250.742 266.67C251.999 262.566 253.345 258.49 254.78 254.445Z" fill="#FEF203"/>
<path d="M310.046 240.408C311.411 241.437 313.828 250.258 314.512 252.473C319.11 252.486 323.844 252.57 328.419 252.237C324.783 255.038 320.835 257.684 317.045 260.294C318.596 263.984 320.108 268.973 321.241 272.805C317.857 270.521 314.23 267.803 310.881 265.406C308.936 265.428 301.542 271.212 299.256 272.751L303.34 260.242C299.867 257.737 295.787 255.211 292.566 252.468C297.083 252.506 301.604 252.498 306.124 252.444C307.284 248.381 308.684 244.407 310.046 240.408Z" fill="#FEF203"/>
<path d="M199.428 240.103C200.457 241.086 203.091 250.506 203.617 252.354C207.476 252.682 213.871 252.495 217.774 252.285C213.995 254.979 210.19 257.634 206.358 260.253C207.9 264.516 209.152 268.492 210.48 272.831C206.942 270.241 203.361 267.711 199.74 265.239C197.459 266.194 190.64 271.314 188.344 272.977L192.688 260.255C189.105 257.925 185.003 254.869 181.458 252.37C186.022 252.467 190.587 252.525 195.151 252.544L199.428 240.103Z" fill="#FEF203"/>
<path d="M254.78 40.2671C255.974 41.7555 258.415 50.2234 259.088 52.4139C263.732 52.4793 268.38 52.4537 273.025 52.337L261.675 60.3309C263.191 64.144 264.66 68.9874 265.971 72.9482C262.332 70.2883 258.674 67.6602 254.992 65.0645C251.055 67.5937 247.556 70.2319 243.8 73.0259C245.086 68.825 246.624 64.4424 248.02 60.2566C244.313 57.5705 240.548 54.9647 236.728 52.441L250.615 52.4267L254.78 40.2671Z" fill="#FEF203"/>
<path d="M350.709 201.01C352.217 202.325 354.507 210.936 355.18 213.205C359.816 213.312 364.453 213.284 369.086 213.123C365.416 215.758 361.676 218.298 357.875 220.739C358.985 224.712 360.628 229.278 361.951 233.238C359.051 231.723 353.969 227.846 350.872 225.78C347.287 228.385 343.667 230.937 340.009 233.438C340.736 230.193 342.921 224.355 344.007 220.772C340.206 218.283 336.424 215.76 332.665 213.205L346.645 213.252L350.709 201.01Z" fill="#FEF203"/>
<path d="M350.856 93.4697C352.291 96.007 354.274 103.136 355.11 106.041C359.835 106.025 364.565 106.034 369.291 106.068C365.381 108.184 361.433 111.098 357.875 113.761C359.213 117.966 360.628 122.144 362.125 126.294C358.37 123.919 354.646 121.149 351.03 118.536C347.174 121.177 343.319 123.745 339.68 126.684L344.046 113.605C340.353 111.056 336.617 108.567 332.843 106.138C337.464 106.011 342.085 105.976 346.706 106.033C348.021 101.823 349.406 97.635 350.856 93.4697Z" fill="#FEF203"/>
<path d="M158.72 200.998C159.813 201.993 162.524 211.078 163.213 213.221C167.842 213.297 172.472 213.269 177.099 213.136C173.365 215.766 169.586 218.334 165.764 220.836C167.111 225.059 168.516 229.262 169.98 233.445C166.994 231.72 161.877 227.847 158.93 225.739C155.251 228.384 151.64 231.023 147.825 233.472C149.293 229.183 150.699 225.125 151.913 220.759C149.091 219.176 143.611 215.2 140.64 213.223L154.568 213.213L158.72 200.998Z" fill="#FEF203"/>
<path d="M365.358 147.352C366.897 149.052 369.055 156.878 369.805 159.373C374.187 159.538 379.257 159.408 383.692 159.396L372.458 167.217L376.793 179.878C373.119 177.21 369.399 174.614 365.625 172.093C362.817 173.704 357.187 177.954 354.437 179.953C355.957 175.796 357.326 171.436 358.702 167.216C355.075 164.563 351.254 161.95 347.565 159.363C352.128 159.452 356.796 159.426 361.367 159.449C362.326 155.919 364.163 150.936 365.358 147.352Z" fill="#FEF203"/>
<path fill-rule="evenodd" clip-rule="evenodd" d="M153.216 380.924C162.543 366.009 156.58 343.609 136.412 345.125C132.546 345.527 129.974 346.014 126.683 348.33C116.035 355.822 116.179 376.27 126.138 384.234C130.423 387.663 134.997 388.03 140.32 387.872C145.442 387.095 150.38 385.459 153.216 380.924ZM140.082 380.952C153.376 377.128 152.389 350.8 136.157 352.022C126.787 355.064 125.62 364.776 128.011 373.355C129.571 378.957 134.43 381.319 140.082 380.952Z" fill="white"/>
<path fill-rule="evenodd" clip-rule="evenodd" d="M448.406 345.128C468.566 343.466 474.498 366.175 465.263 380.863C462.351 385.49 457.486 387.068 452.308 387.887C447.029 388.034 442.45 387.651 438.189 384.269C428.146 376.297 428.018 355.714 438.773 348.256C442.013 346.01 444.612 345.519 448.406 345.128ZM452.165 380.94C465.48 376.788 464.196 350.877 448.243 352.01C445.003 353.035 442.203 354.562 440.815 357.825C436.704 367.474 438.896 381.868 452.165 380.94Z" fill="white"/>
<path fill-rule="evenodd" clip-rule="evenodd" d="M84.4638 346.994C83.1775 347.014 81.8901 347.034 80.6008 347.05C80.601 351.208 80.5784 355.445 80.5556 359.708C80.5066 368.87 80.457 378.153 80.6325 387.045L88.6766 386.956L88.6708 371.008C103.373 370.746 103.39 371.115 103.7 377.787C103.802 379.985 103.936 382.867 104.637 386.635C105.698 387.218 111.04 387.045 113.547 386.964C113.929 386.952 114.246 386.941 114.471 386.936C112.099 383.889 112.179 380.68 112.255 377.633C112.351 373.802 112.441 370.228 107.642 367.556C110.505 365.499 112.873 363.523 113.321 359.723C114.273 351.647 108.314 347.34 100.908 347.042C95.4075 346.823 89.9459 346.908 84.4638 346.994ZM90.7774 353.893C89.9987 353.923 89.2873 353.95 88.6778 353.959L88.6805 363.968C89.3232 363.978 90.0424 363.998 90.8122 364.021C94.9952 364.142 100.674 364.306 103.701 362.951C109.411 353.18 97.5482 353.634 90.7774 353.893Z" fill="white"/>
<path fill-rule="evenodd" clip-rule="evenodd" d="M168.478 346.894C167.083 346.967 165.765 347.035 164.567 347.069L164.572 387.056L172.758 387.014C172.806 382.339 172.801 377.665 172.745 372.991L180.741 372.976C190.525 372.489 195.856 369.261 195.363 358.412C194.778 345.532 179.3 346.334 168.478 346.894ZM174.42 353.924C173.844 353.945 173.278 353.966 172.73 353.978L172.76 365.974C173.427 365.987 174.106 366.012 174.793 366.037C178.492 366.171 182.393 366.312 185.54 364.633C187.277 361.973 188.372 357.237 185.056 355.374C181.982 353.646 177.988 353.793 174.42 353.924Z" fill="white"/>
<path d="M376.213 346.953L384.972 346.973C388.84 354.218 397.962 368.526 400.731 375.218C401.412 367.034 401.075 355.486 401.048 346.984L408.864 346.996C408.841 351.593 409.212 385.684 408.4 387.014C405.774 387.048 403.044 386.975 400.406 386.94C395.182 377.414 389.06 367.934 384.083 358.3C383.94 367.873 383.924 377.449 384.036 387.021H376.225L376.213 346.953Z" fill="white"/>
<path d="M475.116 347.004C478.04 346.953 481.049 347.007 483.976 347.023C488.567 356.178 495.272 365.808 499.924 375.234C500.234 366.005 500.091 356.213 499.994 346.977L507.806 346.992C507.837 351.45 508.173 385.668 507.404 387.025L499.364 386.983C494.476 377.515 488.006 367.993 483.094 358.385C482.944 367.919 482.905 377.461 482.978 386.998L475.171 387.021C475.244 373.679 475.225 360.342 475.116 347.004Z" fill="white"/>
<path d="M279.104 347.011C282.024 346.946 285.052 347.007 287.976 347.027C292.755 356.294 298.989 365.739 303.932 375.214C304.071 365.808 304.098 356.402 304.013 346.996L311.821 346.973C311.828 351.368 312.2 385.691 311.333 386.987L303.359 387.006C298.22 377.352 292.179 368.047 287.125 358.293C286.777 367.405 287.02 377.801 287.036 387.006L279.158 387.029C279.356 374.433 279.506 359.526 279.104 347.011Z" fill="white"/>
<path fill-rule="evenodd" clip-rule="evenodd" d="M258.106 347.01C255.652 346.979 253.151 346.948 250.754 347.019C246.593 359.425 241.202 374.839 236.42 386.967C237.052 386.972 237.709 386.98 238.38 386.989C240.699 387.019 243.177 387.052 245.329 386.917C245.587 386.107 245.867 385.258 246.152 384.394C246.757 382.558 247.384 380.659 247.865 378.945L260.897 378.968C261.094 378.986 261.282 378.993 261.46 378.999C262.053 379.02 262.532 379.037 262.823 379.448C263.867 380.911 264.618 383.838 265.159 385.95C265.251 386.31 265.338 386.647 265.418 386.948C265.806 386.953 266.193 386.958 266.579 386.963C269.239 387 271.874 387.037 274.545 386.929C273.611 384.375 272.635 381.729 271.64 379.028L271.638 379.025C267.742 368.46 263.537 357.056 260.325 347.035C259.593 347.028 258.852 347.019 258.106 347.01ZM259.846 369.723C258.594 365.512 256.627 358.899 255.452 356.425C254.468 359.186 253.552 361.948 252.637 364.703C251.831 367.134 251.026 369.559 250.178 371.975L255.986 372.033L260.522 371.982C260.337 371.373 260.107 370.6 259.846 369.723Z" fill="white"/>
<path d="M2.59247 347L32.19 347.007L32.1691 353.924L10.6788 353.986C10.6018 356.572 10.6621 359.41 10.6633 362.019L30.3523 362.008L30.357 368.94L10.7546 368.982C10.4815 371.642 10.6335 377.128 10.6424 380.004C17.9135 380.171 25.6804 380.043 32.9897 380.051L33.011 386.983L2.57275 386.998L2.59247 347Z" fill="white"/>
<path d="M201.62 347.054C211.175 346.799 221.449 346.98 231.059 346.98L231.05 353.92L209.68 353.963L209.737 362.004L229.422 361.992L229.397 368.94L209.709 368.99L209.673 380.004L232.02 380.093L231.975 387.017L201.609 387.029L201.62 347.054Z" fill="white"/>
<path d="M335.368 347.023C338.129 346.992 340.89 346.988 343.655 347.011C343.62 353.313 342.201 374.418 345.774 378.771C347.097 380.383 348.973 381.091 351.018 381.191C353.049 381.292 355.071 380.84 356.579 379.401C357.821 378.214 358.536 376.537 358.884 374.878C360.129 368.955 359.19 353.854 359.132 347.023L367.531 346.996L367.52 353.684C367.527 361.443 369.26 377.909 363.826 383.712C357.256 390.729 337.522 389.542 335.956 377.681C334.695 368.116 335.329 356.897 335.368 347.023Z" fill="white"/>
<path d="M64.2541 346.969L72.509 347.011L72.5052 354.071C72.492 361.88 74.2922 377.793 68.9365 383.596C62.2796 390.81 42.3918 389.592 40.9079 377.387C39.7265 367.672 40.3131 356.916 40.3712 347L48.6361 347.004C48.7034 356.116 48.1353 365.615 48.9281 374.557C49.7974 383.495 63.1323 383.283 63.9223 374.719C64.7503 365.75 64.2905 355.988 64.2541 346.969Z" fill="white"/>
<path d="M415.643 347.004L423.996 346.996L423.988 387.021L415.651 386.99C415.484 373.796 415.643 360.226 415.643 347.004Z" fill="white"/>
</g>
<defs>
<clipPath id="clip0_192_5">
<rect width="510" height="389" fill="white"/>
</clipPath>
</defs>
</svg>
