<svg width="2234" height="328" viewBox="0 0 2234 328" fill="none" xmlns="http://www.w3.org/2000/svg">
<g clip-path="url(#clip0_196_11)">
<path d="M0.985352 0.00888414L509.016 0L508.993 327.273H1.03292L0.985352 0.00888414Z" fill="#044DA4"/>
<path d="M199.33 53.4937C200.786 56.132 202.612 62.6192 203.44 65.6406C208.016 65.784 213.161 65.6645 217.78 65.6584L206.268 73.6437C207.842 77.838 209.259 82.09 210.515 86.3902C206.97 83.6004 203.14 81.0376 199.417 78.4771C195.683 81.0415 192.059 83.6882 188.279 86.2464C189.715 82.1777 190.971 77.7344 192.663 73.7999C188.878 70.9294 184.958 68.2413 180.916 65.745C185.534 65.6108 190.54 65.7082 195.189 65.7133C196.486 61.6125 197.867 57.5384 199.33 53.4937Z" fill="#FEF203"/>
<path d="M310.134 53.8467C311.689 55.0386 313.886 63.464 314.539 65.6819C319.246 65.7322 324.06 65.6595 328.774 65.6409L317.204 73.6959C318.681 77.3443 320.274 82.5577 321.57 86.3871L310.904 78.6998C308.951 79.0787 301.379 84.8755 299.388 86.3423C300.54 82.2291 302.191 77.6455 303.568 73.554C300.621 71.8429 295.172 67.84 292.121 65.7813C296.688 65.598 301.719 65.6502 306.321 65.6054C307.366 61.9048 308.916 57.552 310.134 53.8467Z" fill="#FEF203"/>
<path d="M143.701 146.632C145.255 147.91 147.477 156.207 148.129 158.427C152.837 158.481 157.545 158.457 162.252 158.356C158.446 161.08 154.777 163.704 150.862 166.268C152.303 170.47 153.678 174.695 154.986 178.94C151.376 176.322 147.93 173.805 144.186 171.383C142.804 171.886 134.752 177.695 132.871 178.975C134.383 174.763 135.805 170.519 137.138 166.246C133.919 164.398 128.858 160.673 125.837 158.424L139.702 158.48C141.083 154.547 142.416 150.597 143.701 146.632Z" fill="#FEF203"/>
<path d="M158.783 92.959C159.972 94.1046 162.547 103.104 163.15 105.057C167.839 105.003 172.528 105.017 177.216 105.096C173.658 107.205 169.126 110.519 165.638 112.927C167.149 116.414 168.812 121.779 170.077 125.501C166.766 123.467 162.262 120.034 159.007 117.697C155.519 119.864 150.91 123.31 147.649 125.833L152.037 112.928C148.321 110.171 144.473 107.596 140.507 105.211C145.251 104.99 149.913 105.025 154.658 105.035C156.069 101.038 157.418 96.9755 158.783 92.959Z" fill="#FEF203"/>
<path d="M254.78 253.453C255.909 254.6 258.465 263.656 259.072 265.649C263.38 265.824 268.698 265.666 273.079 265.654L261.644 273.509C263.133 277.069 264.861 282.405 265.952 286.115C262.464 283.79 258.647 280.936 255.197 278.479C253.739 278.906 245.808 284.745 243.855 286.084C244.93 282.161 246.693 277.348 248.02 273.423C244.288 270.804 240.518 268.24 236.711 265.731C241.387 265.656 246.063 265.638 250.742 265.678C251.999 261.574 253.345 257.498 254.78 253.453Z" fill="#FEF203"/>
<path d="M310.046 239.416C311.411 240.446 313.828 249.266 314.512 251.482C319.11 251.494 323.844 251.578 328.419 251.245C324.783 254.046 320.835 256.692 317.045 259.303C318.596 262.993 320.108 267.982 321.241 271.814C317.857 269.53 314.23 266.811 310.881 264.414C308.936 264.436 301.542 270.221 299.256 271.76L303.34 259.25C299.867 256.745 295.787 254.219 292.566 251.476C297.083 251.515 301.604 251.506 306.124 251.452C307.284 247.39 308.684 243.416 310.046 239.416Z" fill="#FEF203"/>
<path d="M199.428 239.111C200.457 240.094 203.091 249.514 203.617 251.362C207.476 251.691 213.871 251.504 217.774 251.294C213.995 253.987 210.19 256.643 206.358 259.261C207.9 263.524 209.152 267.5 210.48 271.839C206.942 269.25 203.361 266.719 199.74 264.247C197.459 265.202 190.64 270.322 188.344 271.986L192.688 259.264C189.105 256.934 185.003 253.878 181.458 251.379C186.022 251.475 190.587 251.533 195.151 251.552L199.428 239.111Z" fill="#FEF203"/>
<path d="M254.78 39.2755C255.974 40.7639 258.415 49.2318 259.088 51.4223C263.732 51.4876 268.38 51.4621 273.025 51.3454L261.675 59.3393C263.191 63.1524 264.66 67.9958 265.971 71.9566C262.332 69.2967 258.674 66.6686 254.992 64.0729C251.055 66.6021 247.556 69.2403 243.8 72.0343C245.086 67.8334 246.624 63.4508 248.02 59.265C244.313 56.5789 240.548 53.9731 236.728 51.4494L250.615 51.4351L254.78 39.2755Z" fill="#FEF203"/>
<path d="M350.709 200.018C352.217 201.333 354.507 209.944 355.18 212.213C359.816 212.32 364.453 212.292 369.086 212.131C365.416 214.766 361.676 217.306 357.875 219.748C358.985 223.72 360.628 228.286 361.951 232.246C359.051 230.731 353.969 226.854 350.872 224.788C347.287 227.393 343.667 229.946 340.009 232.446C340.736 229.202 342.921 223.364 344.007 219.781C340.206 217.291 336.424 214.768 332.665 212.213L346.645 212.26L350.709 200.018Z" fill="#FEF203"/>
<path d="M350.856 92.4781C352.291 95.0154 354.274 102.145 355.11 105.049C359.835 105.033 364.565 105.042 369.291 105.076C365.381 107.193 361.433 110.106 357.875 112.77C359.213 116.974 360.628 121.152 362.125 125.302C358.37 122.928 354.646 120.157 351.03 117.545C347.174 120.185 343.319 122.754 339.68 125.692L344.046 112.613C340.353 110.064 336.617 107.576 332.843 105.146C337.464 105.019 342.085 104.984 346.706 105.041C348.021 100.832 349.406 96.6434 350.856 92.4781Z" fill="#FEF203"/>
<path d="M158.72 200.007C159.813 201.001 162.524 210.086 163.213 212.23C167.842 212.306 172.472 212.277 177.099 212.144C173.365 214.775 169.586 217.342 165.764 219.844C167.111 224.067 168.516 228.271 169.98 232.454C166.994 230.729 161.877 226.855 158.93 224.747C155.251 227.392 151.64 230.032 147.825 232.48C149.293 228.191 150.699 224.133 151.913 219.768C149.091 218.184 143.611 214.208 140.64 212.232L154.568 212.221L158.72 200.007Z" fill="#FEF203"/>
<path d="M365.358 146.36C366.897 148.06 369.055 155.887 369.805 158.382C374.187 158.546 379.257 158.416 383.692 158.405L372.458 166.226L376.793 178.886C373.119 176.218 369.399 173.623 365.625 171.101C362.817 172.712 357.187 176.963 354.437 178.961C355.957 174.805 357.326 170.444 358.702 166.225C355.075 163.571 351.254 160.959 347.565 158.371C352.128 158.46 356.796 158.435 361.367 158.458C362.326 154.927 364.163 149.945 365.358 146.36Z" fill="#FEF203"/>
<path fill-rule="evenodd" clip-rule="evenodd" d="M1062.52 211.878C1093.11 162.451 1073.55 88.2199 1007.39 93.2421C994.712 94.5745 986.275 96.1888 975.481 103.863C940.552 128.692 941.024 196.453 973.692 222.845C987.748 234.209 1002.75 235.426 1020.21 234.901C1037.01 232.325 1053.21 226.906 1062.52 211.878ZM1019.43 211.968C1063.04 199.297 1059.8 112.049 1006.56 116.098C975.819 126.181 971.992 158.364 979.836 186.793C984.954 205.357 1000.89 213.185 1019.43 211.968Z" fill="white"/>
<path fill-rule="evenodd" clip-rule="evenodd" d="M834.983 99.5609C830.712 99.6266 826.437 99.6924 822.156 99.7453C822.157 113.371 822.082 127.254 822.006 141.224C821.843 171.244 821.679 201.664 822.261 230.798L848.971 230.507L848.952 178.25C897.768 177.393 897.824 178.599 898.854 200.464C899.193 207.665 899.637 217.108 901.964 229.455C905.487 231.368 923.226 230.8 931.551 230.534C932.819 230.493 933.87 230.46 934.618 230.443C926.742 220.459 927.009 209.943 927.262 199.959C927.58 187.406 927.877 175.694 911.944 166.937C921.451 160.198 929.313 153.725 930.8 141.272C933.96 114.808 914.175 100.695 889.583 99.72C871.32 99.0017 853.185 99.2808 834.983 99.5609ZM855.947 122.168C853.361 122.266 850.999 122.355 848.975 122.383L848.984 155.181C851.118 155.213 853.506 155.281 856.062 155.354C869.951 155.751 888.806 156.29 898.859 151.85C917.818 119.833 878.428 121.32 855.947 122.168Z" fill="white"/>
<path fill-rule="evenodd" clip-rule="evenodd" d="M1112.57 100.1C1107.94 100.336 1103.57 100.558 1099.59 100.67L1099.61 230.824L1126.78 230.685C1126.94 215.471 1126.92 200.258 1126.73 185.044L1153.27 184.994C1185.75 183.408 1203.44 172.901 1201.81 137.59C1199.87 95.6664 1148.49 98.2758 1112.57 100.1ZM1132.29 122.98C1130.38 123.049 1128.5 123.117 1126.68 123.157L1126.78 162.205C1129 162.246 1131.25 162.326 1133.53 162.407C1145.81 162.844 1158.76 163.304 1169.2 157.838C1174.97 149.18 1178.6 133.765 1167.6 127.7C1157.39 122.077 1144.14 122.554 1132.29 122.98Z" fill="white"/>
<path d="M1477.56 99.3917C1487.22 99.1758 1497.25 99.379 1506.93 99.4425C1522.75 129.878 1543.39 160.898 1559.75 192.02C1560.21 161.127 1560.3 130.234 1560.02 99.3408L1585.86 99.2647C1585.89 113.702 1587.12 226.43 1584.25 230.684L1557.85 230.747C1540.84 199.042 1520.84 168.479 1504.11 136.443C1502.96 166.371 1503.76 200.515 1503.82 230.747L1477.74 230.824C1478.39 189.455 1478.89 140.493 1477.56 99.3917Z" fill="white"/>
<path fill-rule="evenodd" clip-rule="evenodd" d="M1408.92 99.3761C1400.85 99.2756 1392.63 99.173 1384.75 99.4069C1371.08 140.17 1353.36 190.815 1337.65 230.664C1339.72 230.678 1341.89 230.706 1344.09 230.735C1351.71 230.835 1359.85 230.942 1366.93 230.498C1367.77 227.837 1368.69 225.046 1369.63 222.209C1371.62 216.178 1373.68 209.938 1375.26 204.306L1418.09 204.382C1418.74 204.441 1419.36 204.463 1419.94 204.483C1421.89 204.553 1423.46 204.609 1424.42 205.957C1427.85 210.764 1430.32 220.383 1432.1 227.321C1432.4 228.503 1432.68 229.61 1432.95 230.6C1434.22 230.616 1435.49 230.634 1436.76 230.651C1445.5 230.772 1454.16 230.891 1462.94 230.537C1459.87 222.146 1456.67 213.453 1453.39 204.579L1453.39 204.568C1440.59 169.855 1426.77 132.385 1416.21 99.4578C1413.8 99.437 1411.37 99.4067 1408.92 99.3761ZM1414.64 174.005C1410.52 160.168 1404.06 138.439 1400.2 130.312C1396.96 139.383 1393.95 148.458 1390.94 157.512C1388.29 165.497 1385.65 173.467 1382.86 181.403L1401.95 181.593L1416.86 181.428C1416.25 179.425 1415.49 176.886 1414.64 174.005Z" fill="white"/>
<path d="M565.065 99.2647L662.532 99.2902L662.463 122.039L591.694 122.242C591.44 130.749 591.639 140.083 591.643 148.666L656.48 148.628L656.495 171.427L591.943 171.567C591.044 180.316 591.545 198.36 591.574 207.82C615.518 208.367 641.095 207.948 665.165 207.973L665.235 230.773L565 230.824L565.065 99.2647Z" fill="white"/>
<path d="M1222.83 99.7113C1254.32 98.8744 1288.19 99.4705 1319.86 99.4705L1319.83 122.231L1249.4 122.371L1249.58 148.745L1314.47 148.707L1314.38 171.493L1249.49 171.658L1249.37 207.784L1323.03 208.076L1322.88 230.785L1222.79 230.824L1222.83 99.7113Z" fill="white"/>
<path d="M768.386 99.2647L795.873 99.4052L795.86 122.735C795.816 148.542 801.81 201.129 783.977 220.306C761.811 244.147 695.589 240.122 690.648 199.788C686.714 167.681 688.667 132.138 688.86 99.3669L716.381 99.3797C716.605 129.493 714.713 160.884 717.353 190.436C720.248 219.974 764.65 219.271 767.281 190.972C770.038 161.331 768.507 129.072 768.386 99.2647Z" fill="white"/>
<path d="M1664.06 99.3543C1673.25 99.252 1682.44 99.2392 1691.65 99.3159C1691.53 120.158 1686.81 189.959 1698.7 204.356C1703.11 209.688 1709.35 212.028 1716.16 212.36C1722.92 212.693 1729.66 211.197 1734.68 206.44C1738.81 202.515 1741.19 196.965 1742.35 191.48C1746.5 171.891 1743.37 121.948 1743.18 99.3543L1771.14 99.2647L1771.11 121.385C1771.13 147.047 1776.9 201.505 1758.81 220.697C1736.93 243.904 1671.23 239.979 1666.01 200.75C1661.82 169.117 1663.93 132.011 1664.06 99.3543Z" fill="white"/>
<path d="M1928.84 99.2901L1955.76 99.2647L1955.74 230.824L1928.86 230.722C1928.33 187.352 1928.84 142.749 1928.84 99.2901Z" fill="white"/>
<path d="M1799.15 99.2647L1828.22 99.3282C1841.06 123.116 1871.34 170.094 1880.53 192.066C1882.79 165.194 1881.67 127.279 1881.58 99.3664L1907.52 99.4043C1907.44 114.497 1908.68 226.427 1905.98 230.794C1897.26 230.908 1888.2 230.667 1879.45 230.552C1862.11 199.276 1841.79 168.152 1825.27 136.52C1824.79 167.949 1824.74 199.39 1825.11 230.819H1799.19L1799.15 99.2647Z" fill="white"/>
<path fill-rule="evenodd" clip-rule="evenodd" d="M2036.89 93.2861C2103.03 87.7798 2122.49 162.999 2092.19 211.647C2082.64 226.975 2066.68 232.199 2049.69 234.914C2032.37 235.401 2017.35 234.133 2003.37 222.928C1970.42 196.523 1970 128.347 2005.28 103.646C2015.92 96.2057 2024.44 94.5794 2036.89 93.2861ZM2049.22 211.903C2092.9 198.15 2088.69 112.328 2036.36 116.08C2025.72 119.473 2016.54 124.531 2011.98 135.339C1998.5 167.301 2005.69 214.976 2049.22 211.903Z" fill="white"/>
<path d="M2124.91 99.3535C2134.59 99.1884 2144.56 99.3663 2154.25 99.4171C2169.45 129.491 2191.66 161.126 2207.07 192.089C2208.09 161.774 2207.62 129.605 2207.3 99.2647L2233.17 99.3154C2233.27 113.958 2234.39 226.366 2231.84 230.824L2205.21 230.684C2189.02 199.582 2167.6 168.302 2151.33 136.742C2150.83 168.06 2150.71 199.404 2150.95 230.735L2125.09 230.811C2125.33 186.983 2125.27 143.168 2124.91 99.3535Z" fill="white"/>
</g>
<defs>
<clipPath id="clip0_196_11">
<rect width="2234" height="328" fill="white"/>
</clipPath>
</defs>
</svg>
