<svg width="3464" height="830" viewBox="0 0 3464 830" fill="none" xmlns="http://www.w3.org/2000/svg">
<g clip-path="url(#clip0_189_7)">
<path d="M0.791748 0H1221.03V829.194H0.791748V0Z" fill="white"/>
<path d="M24.1141 22.7693H1197.73V805.591H24.0381L24.1141 22.7693Z" fill="#003398"/>
<path d="M388.391 502.167C390.394 503.885 397.159 526.756 398.441 530.788H429.757L404.266 549.073C407.465 559.094 410.762 569.084 414.158 579.041L388.885 560.397C380.401 566.399 371.967 572.47 363.582 578.61L373.183 548.962L347.786 530.788H379.155C381.922 521.49 385.382 511.462 388.391 502.167Z" fill="#FECB00"/>
<path d="M388.564 245.397C390.373 247.952 396.975 269.819 398.416 274.379L429.698 274.384L404.224 292.78C407.539 302.118 410.737 312.831 413.794 322.351C406.632 317.074 395.687 308.432 388.373 304.211L363.61 322.409L373.088 292.596L347.741 274.415L379.199 274.379C382.172 264.671 385.294 255.009 388.564 245.397Z" fill="#FECB00"/>
<path d="M832.367 245.151C834.283 247.501 840.928 269.974 842.239 274.196L873.376 274.209L847.999 292.311C851.314 301.898 854.456 312.086 857.6 321.774L832.54 303.636L807.447 321.883L816.985 292.282C809.581 287.014 799.089 279.982 792.425 274.196L822.91 274.194C825.992 264.49 829.145 254.809 832.367 245.151Z" fill="#FECB00"/>
<path d="M832.353 502.142C834.346 504.232 840.88 526.645 842.164 530.789H873.449L848.119 549.092L857.6 578.731L832.84 560.434C827.672 563.418 812.903 574.714 807.399 578.715C810.734 568.87 813.91 558.973 816.925 549.027C808.51 543.125 800.221 537.044 792.065 530.789H822.995C825.971 521.194 829.09 511.644 832.353 502.142Z" fill="#FECB00"/>
<path d="M482.32 596.136C484.453 598.531 490.826 620.477 492.179 624.839H523.5L498.25 642.999L507.458 672.521L482.837 654.439C476.957 657.975 463.818 668.067 457.703 672.485L467.049 642.994C458.643 637.017 450.29 630.967 441.99 624.844L473.105 624.839C476.061 615.235 479.133 605.667 482.32 596.136Z" fill="#FECB00"/>
<path d="M610.33 630.159C612.316 632.386 618.838 654.522 620.161 658.749H651.662L626.15 677.105L635.65 706.79L610.848 688.488C606.38 691.005 590.568 703.006 585.635 706.584L595.107 677.182L569.793 658.752L601.009 658.749L610.33 630.159Z" fill="#FECB00"/>
<path d="M737.965 596.886C741.001 599.01 746.671 620.029 748.144 624.839L779.453 624.843L754.183 643.046C756.978 652.641 760.533 663.061 763.59 672.655L738.827 654.461C734.047 657.19 719.091 668.585 713.897 672.359C716.161 663.685 720.263 651.854 723.029 643.06L697.896 624.844L729.019 624.839L737.965 596.886Z" fill="#FECB00"/>
<path d="M353.745 374.08C356.42 376.21 362.479 397.821 363.919 402.454L395.228 402.464L369.803 420.704L379.303 450.343L355.524 432.924L353.98 432.652C348.572 435.61 334.89 446.163 329.213 450.357L338.741 420.693L313.588 402.465L344.628 402.459L353.745 374.08Z" fill="#FECB00"/>
<path d="M738.532 152.163C741.001 154.131 747.186 176.031 748.561 180.452L779.68 180.461L754.445 198.784L763.786 227.977L739.477 210.257C736.388 211.249 717.808 225.28 713.897 228.192L723.389 198.721L698.249 180.461L729.388 180.452C732.389 171.007 735.437 161.577 738.532 152.163Z" fill="#FECB00"/>
<path d="M865.997 373.967C868.695 375.818 874.815 397.524 876.226 401.999H907.611L882.08 420.281L891.525 449.806L866.546 431.64L841.726 449.878C844.332 440.608 848.107 429.744 851.09 420.453L825.553 402.014L856.995 401.998L865.997 373.967Z" fill="#FECB00"/>
<path d="M481.973 151.929C484.712 154.978 490.388 175.307 491.958 180.454H523.249L497.977 198.601L507.4 228.053L482.807 210.187C479.727 211.381 461.149 225.461 457.462 228.191L466.972 198.639L441.757 180.454H472.765L481.973 151.929Z" fill="#FECB00"/>
<path d="M610.342 117.167C612.283 119.616 618.869 141.783 620.206 146.051L651.324 146.061L626.138 164.166L635.54 193.69L610.637 175.514L585.941 193.45C587.421 186.741 592.769 171.36 595.044 164.211L569.99 146.061L601.009 146.051C603.984 136.379 607.095 126.751 610.342 117.167Z" fill="#FECB00"/>
<path d="M2108.3 340.565C2151.76 339.643 2169.71 370.064 2171.81 409.835C2174.93 469.015 2122.47 515.278 2072.72 466.986V509.634V537.235H2035.33V343.532H2070.08V363.187C2080.84 349.058 2091.1 343.338 2108.3 340.565ZM2106.41 458.792C2134.95 453.334 2136.66 420.767 2132.79 397.349C2129.89 379.805 2118.23 368.173 2099.9 368.544C2071.36 375.077 2068.93 406.182 2073.93 430.234C2077.48 447.281 2088.58 458.293 2106.41 458.792Z" fill="white"/>
<path d="M1424 291H1567.31V323.761H1463.15V366.338H1559.81V399.174H1469.61C1466.97 399.053 1465.9 398.843 1463.42 399.963C1462.23 410.668 1463.1 438.972 1463.15 450.956H1570.73V483.668H1424V291Z" fill="white"/>
<path d="M1928.81 340.432C1969.21 336.981 2004.75 366.922 2008.22 407.316C2011.69 447.709 1981.76 483.27 1941.37 486.754C1900.95 490.24 1865.37 460.293 1861.9 419.875C1858.43 379.458 1888.39 343.884 1928.81 340.432ZM1938.25 456.711C1983.25 449.042 1979.04 368.66 1932.1 370.535C1887.52 378.489 1890.8 457.586 1938.25 456.711Z" fill="white"/>
<path d="M3228.66 340.426C3269.17 337.021 3304.74 367.178 3308.01 407.7C3311.27 448.222 3280.99 483.684 3240.46 486.807C3200.12 489.916 3164.87 459.816 3161.62 419.493C3158.38 379.17 3188.35 343.815 3228.66 340.426ZM3238.61 456.688C3282.08 448.121 3280.08 369.697 3231.25 370.542C3186.64 380.126 3191.52 458.411 3238.61 456.688Z" fill="white"/>
<path d="M2738.37 291H2777.73L2777.69 374.631C2777.69 392.831 2776.8 409.825 2779.53 428.302C2783.62 456.08 2826.73 460.714 2843.74 444.913C2856.55 433.014 2853.21 393.984 2853.21 376.289L2853.15 291H2892.25V323.634C2892.24 342.207 2892.69 361.569 2892.33 380.037C2891.79 408.207 2896.17 446.177 2874.89 467.92C2849.27 494.1 2782.5 493.495 2756.92 467.907C2749.91 460.894 2744.92 452.129 2742.46 442.527C2737.57 424.084 2738.36 389.243 2738.35 369.646L2738.37 291Z" fill="white"/>
<path d="M2397.54 340.565C2506.51 338.951 2442 418.209 2471.85 483.668H2434.87L2430.21 468.771L2429.63 469.308C2406.46 490.276 2370.73 495.167 2348.46 470.292C2326.51 437.761 2350.58 406.25 2385.08 402.524C2395.73 401.373 2417.32 395.715 2427.17 392.164C2427.17 388.789 2427.36 383.057 2426.11 380.01C2420.85 367.196 2403.37 365.584 2392.07 370.278C2383.55 373.815 2381.25 378.666 2378.1 386.607C2366.99 384.54 2355.23 383.064 2344 381.476C2353.62 351.658 2367.46 343.446 2397.54 340.565ZM2386.29 457.582C2400.79 464.223 2417.42 459.168 2424.76 444.354C2427.55 438.708 2427.79 424.512 2426.92 418.157L2425.65 416.979L2424.44 417.226C2410.22 420.841 2387.34 423.144 2378.67 435.682C2373.93 442.531 2380.66 453.216 2386.29 457.582Z" fill="white"/>
<path d="M2247.96 340.565C2249.39 340.526 2250.83 340.505 2252.27 340.504C2305.03 340.481 2320.06 377.45 2320.09 424.087H2227.2C2227.57 426.977 2227.99 429.737 2228.5 432.706C2232.34 455.293 2261.5 470.241 2277.04 448.79C2278.76 446.418 2280.09 442.765 2281.19 439.913L2305.86 443.79L2318.4 445.866C2315.67 452.435 2313.1 457.447 2309.06 463.348C2290 491.751 2240.57 493.429 2214.79 474.432C2183.93 451.686 2181.84 393.834 2204.05 364.442C2215.48 349.308 2229.65 342.981 2247.96 340.565ZM2228.11 401.165H2258.36H2283.43C2281.41 382.229 2274.59 367.669 2252.8 368.533C2234.49 372.533 2229.42 383.512 2228.11 401.165Z" fill="white"/>
<path d="M2574.06 340.565C2575.09 340.54 2576.12 340.523 2577.15 340.514C2631.18 340.041 2626.5 381.7 2626.53 420.731L2626.5 483.668H2589.19L2589.26 426.871C2589.27 414.081 2591.12 385.4 2582.77 375.619C2579.1 371.307 2573.79 368.734 2568.13 368.526C2557.63 368.038 2551.26 371.706 2544.02 378.447C2534.04 393.294 2536.21 415.09 2536.02 432.487C2535.85 449.472 2536.09 466.672 2536.14 483.668H2498.88V343.532H2533.52V363.302C2546.07 348.98 2555.44 343.327 2574.06 340.565Z" fill="white"/>
<path d="M3008 340.565L3009.33 340.532C3064.65 339.396 3060.43 379.692 3060.45 420.318L3060.42 483.668H3023.1L3023.19 427.153C3023.2 413.983 3025.08 385.258 3016.47 375.364C3012.84 371.245 3007.7 368.775 3002.22 368.52C2991.51 368.069 2985.33 371.606 2977.91 378.475C2974.43 383.504 2971.91 389.386 2971.39 395.471C2968.96 424.056 2969.98 455.012 2970.06 483.668H2932.84V343.532H2967.44V363.326C2979.98 349.006 2989.37 343.312 3008 340.565Z" fill="white"/>
<path d="M3411.11 340.565C3412.23 340.535 3413.36 340.515 3414.49 340.505C3468.13 340.078 3463.57 381.808 3463.6 420.731L3463.57 483.668H3426.3L3426.37 427.606C3426.38 409.38 3431.4 369.484 3405.12 368.524C3394.83 368.148 3388.35 371.66 3381.14 378.389C3377.68 383.476 3375.15 388.857 3374.6 394.99C3372.05 423.67 3373.12 454.913 3373.21 483.668H3335.92V343.532H3370.59V363.293C3383.12 348.974 3392.53 343.347 3411.11 340.565Z" fill="white"/>
<path d="M1601.75 343.532H1638.93L1638.85 399.985C1638.85 414.177 1638.43 427.229 1640.63 441.73C1643.03 461.4 1670.33 463.21 1681.93 451.059C1692.01 440.501 1691.87 424.403 1691.93 410.686C1692.02 388.309 1691.92 365.897 1691.86 343.532H1728.85V390.634V483.668H1694.44V463.596C1692.62 465.857 1690.69 468.023 1688.64 470.086C1677.68 481.248 1663.22 486.84 1647.81 486.667C1596.86 486.094 1601.59 440.581 1601.63 405.748L1601.75 343.532Z" fill="white"/>
<path d="M1827.77 340.565C1840.35 340.169 1845.75 341.957 1856.65 347.192L1845.18 379.318C1839.6 376.436 1833.98 373.617 1827.53 373.583C1822.05 373.555 1817.16 375.435 1813.33 379.39C1798.43 394.804 1802.94 460.385 1803.01 483.668H1782.36H1765.84V343.532H1800.35V362.773C1808.57 350.461 1812.87 343.983 1827.77 340.565Z" fill="white"/>
<path d="M3096.9 343.532H3134.16L3134.09 483.667L3096.9 483.668V343.532Z" fill="white"/>
<path d="M3096.9 291H3134.16V324.749H3096.9V291Z" fill="white"/>
</g>
<defs>
<clipPath id="clip0_189_7">
<rect width="3464" height="830" fill="white"/>
</clipPath>
</defs>
</svg>
