<svg width="1364" height="328" viewBox="0 0 1364 328" fill="none" xmlns="http://www.w3.org/2000/svg">
<g clip-path="url(#clip0_196_11)">
<path d="M0.985352 0.00888414L509.016 0L508.993 327.273H1.03292L0.985352 0.00888414Z" fill="#044DA4"/>
<path d="M199.33 53.4937C200.786 56.132 202.612 62.6192 203.44 65.6406C208.016 65.784 213.161 65.6645 217.78 65.6584L206.268 73.6437C207.842 77.838 209.259 82.09 210.515 86.3902C206.97 83.6004 203.14 81.0376 199.417 78.4771C195.683 81.0415 192.059 83.6882 188.279 86.2464C189.715 82.1777 190.971 77.7344 192.663 73.7999C188.878 70.9294 184.958 68.2413 180.916 65.745C185.534 65.6108 190.54 65.7082 195.189 65.7133C196.486 61.6125 197.867 57.5384 199.33 53.4937Z" fill="#FEF203"/>
<path d="M310.134 53.8467C311.689 55.0386 313.886 63.464 314.539 65.6819C319.246 65.7322 324.06 65.6595 328.774 65.6409L317.204 73.6959C318.681 77.3443 320.274 82.5577 321.57 86.3871L310.904 78.6998C308.951 79.0787 301.379 84.8755 299.388 86.3423C300.54 82.2291 302.191 77.6455 303.568 73.554C300.621 71.8429 295.172 67.84 292.121 65.7813C296.688 65.598 301.719 65.6502 306.321 65.6054C307.366 61.9048 308.916 57.552 310.134 53.8467Z" fill="#FEF203"/>
<path d="M143.701 146.632C145.255 147.91 147.477 156.207 148.129 158.427C152.837 158.481 157.545 158.457 162.252 158.356C158.446 161.08 154.777 163.704 150.862 166.268C152.303 170.47 153.678 174.695 154.986 178.94C151.376 176.322 147.93 173.805 144.186 171.383C142.804 171.886 134.752 177.695 132.871 178.975C134.383 174.763 135.805 170.519 137.138 166.246C133.919 164.398 128.858 160.673 125.837 158.424L139.702 158.48C141.083 154.547 142.416 150.597 143.701 146.632Z" fill="#FEF203"/>
<path d="M158.783 92.959C159.972 94.1046 162.547 103.104 163.15 105.057C167.839 105.003 172.528 105.017 177.216 105.096C173.658 107.205 169.126 110.519 165.638 112.927C167.149 116.414 168.812 121.779 170.077 125.501C166.766 123.467 162.262 120.034 159.007 117.697C155.519 119.864 150.91 123.31 147.649 125.833L152.037 112.928C148.321 110.171 144.473 107.596 140.507 105.211C145.251 104.99 149.913 105.025 154.658 105.035C156.069 101.038 157.418 96.9755 158.783 92.959Z" fill="#FEF203"/>
<path d="M254.78 253.453C255.909 254.6 258.465 263.656 259.072 265.649C263.38 265.824 268.698 265.666 273.079 265.654L261.644 273.509C263.133 277.069 264.861 282.405 265.952 286.115C262.464 283.79 258.647 280.936 255.197 278.479C253.739 278.906 245.808 284.745 243.855 286.084C244.93 282.161 246.693 277.348 248.02 273.423C244.288 270.804 240.518 268.24 236.711 265.731C241.387 265.656 246.063 265.638 250.742 265.678C251.999 261.574 253.345 257.498 254.78 253.453Z" fill="#FEF203"/>
<path d="M310.046 239.416C311.411 240.446 313.828 249.266 314.512 251.482C319.11 251.494 323.844 251.578 328.419 251.245C324.783 254.046 320.835 256.692 317.045 259.303C318.596 262.993 320.108 267.982 321.241 271.814C317.857 269.53 314.23 266.811 310.881 264.414C308.936 264.436 301.542 270.221 299.256 271.76L303.34 259.25C299.867 256.745 295.787 254.219 292.566 251.476C297.083 251.515 301.604 251.506 306.124 251.452C307.284 247.39 308.684 243.416 310.046 239.416Z" fill="#FEF203"/>
<path d="M199.428 239.111C200.457 240.094 203.091 249.514 203.617 251.362C207.476 251.691 213.871 251.504 217.774 251.294C213.995 253.987 210.19 256.643 206.358 259.261C207.9 263.524 209.152 267.5 210.48 271.839C206.942 269.25 203.361 266.719 199.74 264.247C197.459 265.202 190.64 270.322 188.344 271.986L192.688 259.264C189.105 256.934 185.003 253.878 181.458 251.379C186.022 251.475 190.587 251.533 195.151 251.552L199.428 239.111Z" fill="#FEF203"/>
<path d="M254.78 39.2755C255.974 40.7639 258.415 49.2318 259.088 51.4223C263.732 51.4876 268.38 51.4621 273.025 51.3454L261.675 59.3393C263.191 63.1524 264.66 67.9958 265.971 71.9566C262.332 69.2967 258.674 66.6686 254.992 64.0729C251.055 66.6021 247.556 69.2403 243.8 72.0343C245.086 67.8334 246.624 63.4508 248.02 59.265C244.313 56.5789 240.548 53.9731 236.728 51.4494L250.615 51.4351L254.78 39.2755Z" fill="#FEF203"/>
<path d="M350.709 200.018C352.217 201.333 354.507 209.944 355.18 212.213C359.816 212.32 364.453 212.292 369.086 212.131C365.416 214.766 361.676 217.306 357.875 219.748C358.985 223.72 360.628 228.286 361.951 232.246C359.051 230.731 353.969 226.854 350.872 224.788C347.287 227.393 343.667 229.946 340.009 232.446C340.736 229.202 342.921 223.364 344.007 219.781C340.206 217.291 336.424 214.768 332.665 212.213L346.645 212.26L350.709 200.018Z" fill="#FEF203"/>
<path d="M350.856 92.4781C352.291 95.0154 354.274 102.145 355.11 105.049C359.835 105.033 364.565 105.042 369.291 105.076C365.381 107.193 361.433 110.106 357.875 112.77C359.213 116.974 360.628 121.152 362.125 125.302C358.37 122.928 354.646 120.157 351.03 117.545C347.174 120.185 343.319 122.754 339.68 125.692L344.046 112.613C340.353 110.064 336.617 107.576 332.843 105.146C337.464 105.019 342.085 104.984 346.706 105.041C348.021 100.832 349.406 96.6434 350.856 92.4781Z" fill="#FEF203"/>
<path d="M158.72 200.007C159.813 201.001 162.524 210.086 163.213 212.23C167.842 212.306 172.472 212.277 177.099 212.144C173.365 214.775 169.586 217.342 165.764 219.844C167.111 224.067 168.516 228.271 169.98 232.454C166.994 230.729 161.877 226.855 158.93 224.747C155.251 227.392 151.64 230.032 147.825 232.48C149.293 228.191 150.699 224.133 151.913 219.768C149.091 218.184 143.611 214.208 140.64 212.232L154.568 212.221L158.72 200.007Z" fill="#FEF203"/>
<path d="M365.358 146.36C366.897 148.06 369.055 155.887 369.805 158.382C374.187 158.546 379.257 158.416 383.692 158.405L372.458 166.226L376.793 178.886C373.119 176.218 369.399 173.623 365.625 171.101C362.817 172.712 357.187 176.963 354.437 178.961C355.957 174.805 357.326 170.444 358.702 166.225C355.075 163.571 351.254 160.959 347.565 158.371C352.128 158.46 356.796 158.435 361.367 158.458C362.326 154.927 364.163 149.945 365.358 146.36Z" fill="#FEF203"/>
<path fill-rule="evenodd" clip-rule="evenodd" d="M803.248 186.927C817.899 163.258 808.532 127.711 776.851 130.116C770.778 130.754 766.737 131.527 761.568 135.202C744.842 147.092 745.068 179.541 760.712 192.179C767.443 197.621 774.628 198.204 782.989 197.952C791.035 196.719 798.793 194.124 803.248 186.927ZM782.616 186.97C803.499 180.903 801.948 139.122 776.45 141.061C761.73 145.889 759.898 161.301 763.654 174.915C766.105 183.805 773.737 187.553 782.616 186.97Z" fill="white"/>
<path fill-rule="evenodd" clip-rule="evenodd" d="M694.287 133.142C692.242 133.173 690.195 133.205 688.145 133.23C688.145 139.755 688.109 146.403 688.073 153.093C687.995 167.469 687.916 182.036 688.195 195.988L700.986 195.848L700.977 170.824C724.353 170.413 724.381 170.991 724.874 181.462C725.036 184.91 725.249 189.432 726.363 195.345C728.05 196.261 736.545 195.989 740.532 195.861C741.139 195.842 741.642 195.826 742 195.818C738.228 191.037 738.356 186.001 738.477 181.22C738.63 175.208 738.772 169.6 731.142 165.407C735.695 162.179 739.46 159.079 740.172 153.116C741.685 140.443 732.211 133.685 720.434 133.218C711.689 132.874 703.004 133.008 694.287 133.142ZM704.326 143.968C703.088 144.014 701.957 144.057 700.988 144.071L700.992 159.777C702.014 159.792 703.158 159.825 704.382 159.86C711.033 160.05 720.062 160.308 724.876 158.182C733.955 142.85 715.092 143.561 704.326 143.968Z" fill="white"/>
<path fill-rule="evenodd" clip-rule="evenodd" d="M827.216 133.4C824.999 133.513 822.905 133.619 821 133.673L821.008 196L834.02 195.934C834.096 188.648 834.089 181.363 833.999 174.077L846.709 174.053C862.26 173.294 870.733 168.262 869.95 151.353C869.021 131.277 844.419 132.526 827.216 133.4ZM836.662 144.357C835.745 144.39 834.847 144.422 833.975 144.441L834.023 163.14C835.083 163.16 836.163 163.198 837.254 163.237C843.135 163.446 849.334 163.667 854.337 161.049C857.098 156.903 858.838 149.521 853.568 146.617C848.681 143.924 842.333 144.153 836.662 144.357Z" fill="white"/>
<path d="M1002 133.061C1006.63 132.957 1011.43 133.055 1016.06 133.085C1023.64 147.66 1033.52 162.515 1041.36 177.418C1041.58 162.624 1041.62 147.83 1041.49 133.036L1053.86 133C1053.88 139.914 1054.47 193.896 1053.09 195.933L1040.45 195.963C1032.3 180.78 1022.73 166.145 1014.71 150.804C1014.16 165.135 1014.55 181.486 1014.57 195.963L1002.09 196C1002.4 176.19 1002.64 152.743 1002 133.061Z" fill="white"/>
<path fill-rule="evenodd" clip-rule="evenodd" d="M969.13 133.053C965.267 133.005 961.331 132.956 957.559 133.068C951.01 152.588 942.527 176.841 935 195.923C935.995 195.93 937.03 195.944 938.086 195.958C941.734 196.005 945.635 196.057 949.02 195.844C949.427 194.57 949.868 193.233 950.316 191.875C951.269 188.986 952.255 185.999 953.012 183.301L973.522 183.338C973.832 183.366 974.128 183.376 974.408 183.386C975.341 183.42 976.095 183.447 976.553 184.092C978.196 186.394 979.377 191 980.229 194.323C980.374 194.889 980.51 195.419 980.637 195.893C981.247 195.901 981.856 195.909 982.464 195.918C986.649 195.975 990.797 196.033 995 195.863C993.531 191.844 991.995 187.682 990.428 183.432L990.426 183.427C984.295 166.804 977.677 148.86 972.622 133.092C971.469 133.083 970.303 133.068 969.13 133.053ZM971.868 168.791C969.897 162.165 966.802 151.76 964.953 147.868C963.404 152.212 961.962 156.557 960.523 160.893C959.253 164.717 957.987 168.533 956.652 172.334L965.793 172.425L972.932 172.346C972.64 171.387 972.279 170.171 971.868 168.791Z" fill="white"/>
<path d="M565.031 133L611.705 133.012L611.672 143.906L577.783 144.003C577.662 148.077 577.757 152.547 577.758 156.657L608.807 156.639L608.815 167.557L577.902 167.624C577.472 171.813 577.712 180.454 577.726 184.984C589.192 185.246 601.44 185.045 612.966 185.057L613 195.976L565 196L565.031 133Z" fill="white"/>
<path d="M880.017 133.214C895.099 132.813 911.315 133.099 926.482 133.099L926.469 143.998L892.739 144.065L892.829 156.695L923.899 156.677L923.86 167.588L892.785 167.667L892.727 184.967L928 185.107L927.929 195.982L880 196L880.017 133.214Z" fill="white"/>
<path d="M662.396 133L675.559 133.067L675.553 144.239C675.532 156.598 678.402 181.78 669.862 190.964C659.247 202.38 627.535 200.453 625.169 181.138C623.286 165.763 624.221 148.742 624.313 133.049L637.492 133.055C637.6 147.476 636.694 162.508 637.958 176.659C639.344 190.804 660.607 190.468 661.867 176.916C663.187 162.722 662.454 147.274 662.396 133Z" fill="white"/>
<path d="M1091.31 133.043C1095.71 132.994 1100.11 132.988 1104.52 133.025C1104.47 143.005 1102.2 176.431 1107.9 183.325C1110.01 185.879 1113 186.999 1116.26 187.158C1119.5 187.318 1122.72 186.601 1125.13 184.323C1127.11 182.444 1128.25 179.786 1128.8 177.159C1130.79 167.779 1129.29 143.862 1129.2 133.043L1142.59 133L1142.57 143.593C1142.58 155.882 1145.35 181.96 1136.68 191.151C1126.21 202.264 1094.74 200.384 1092.25 181.599C1090.24 166.45 1091.25 148.681 1091.31 133.043Z" fill="white"/>
<path d="M1218.11 133.012L1231 133L1230.99 196L1218.12 195.951C1217.86 175.183 1218.11 153.824 1218.11 133.012Z" fill="white"/>
<path d="M1156 133L1169.92 133.03C1176.07 144.422 1190.57 166.918 1194.97 177.44C1196.05 164.572 1195.52 146.415 1195.47 133.049L1207.9 133.067C1207.86 140.294 1208.45 193.895 1207.16 195.986C1202.99 196.04 1198.65 195.925 1194.45 195.87C1186.15 180.893 1176.42 165.988 1168.51 150.84C1168.28 165.891 1168.26 180.947 1168.43 195.998H1156.02L1156 133Z" fill="white"/>
<path fill-rule="evenodd" clip-rule="evenodd" d="M1269.85 130.137C1301.52 127.5 1310.84 163.521 1296.33 186.817C1291.76 194.157 1284.11 196.659 1275.98 197.959C1267.69 198.192 1260.49 197.585 1253.8 192.219C1238.02 179.575 1237.82 146.927 1254.71 135.098C1259.8 131.535 1263.89 130.756 1269.85 130.137ZM1275.75 186.939C1296.67 180.353 1294.66 139.256 1269.59 141.052C1264.5 142.677 1260.1 145.099 1257.92 150.275C1251.46 165.581 1254.91 188.411 1275.75 186.939Z" fill="white"/>
<path d="M1312 133.043C1316.64 132.963 1321.41 133.049 1326.05 133.073C1333.33 147.474 1343.97 162.624 1351.34 177.451C1351.83 162.934 1351.61 147.529 1351.45 133L1363.84 133.024C1363.89 140.036 1364.42 193.865 1363.2 196L1350.45 195.933C1342.7 181.039 1332.44 166.06 1324.65 150.947C1324.41 165.944 1324.35 180.954 1324.47 195.957L1312.09 195.994C1312.2 175.006 1312.17 154.024 1312 133.043Z" fill="white"/>
</g>
<defs>
<clipPath id="clip0_196_11">
<rect width="1364" height="328" fill="white"/>
</clipPath>
</defs>
</svg>
