<svg width="250" height="210" viewBox="0 0 250 210" fill="none" xmlns="http://www.w3.org/2000/svg">
<g clip-path="url(#clip0_188_187)">
<path d="M0.497339 0.065878C1.68554 0.254584 7.56957 0.149519 8.98619 0.147172L26.9549 0.145853L91.7027 0.14776L198.485 0.147172L232.274 0.150841L243.005 0.152895C245.028 0.153628 247.56 0.2179 249.53 0.0603027C249.417 6.8599 249.515 13.9389 249.515 20.7546L249.517 60.1476L249.534 169.171C248.683 169.529 200.694 169.311 196.588 169.311L0.518771 169.318C0.23442 161.95 0.468567 153.033 0.468714 145.527L0.46798 100.033L0.463869 34.7553C0.463429 23.3278 0.307086 11.4581 0.497339 0.065878Z" fill="#FEFEFE"/>
<path d="M5.33276 4.82168L244.634 4.81934L244.63 164.351H5.33922L5.33276 4.82168Z" fill="#00339A"/>
<path d="M124.834 128.485C125.355 129.054 126.606 133.495 126.891 134.441C129.053 134.452 131.217 134.441 133.379 134.407L128.109 138.185C128.79 140.215 129.445 142.255 130.072 144.305C128.41 143.005 126.607 141.734 124.893 140.493C123.414 141.714 121.305 143.155 119.73 144.268C120.422 142.469 121.129 140.048 121.734 138.176C119.994 136.955 118.274 135.709 116.572 134.435L122.917 134.444C123.588 132.468 124.228 130.481 124.834 128.485Z" fill="#FECC00"/>
<path d="M124.831 24.0017C125.385 24.6494 126.57 28.8831 126.881 29.9112L133.388 29.906L128.117 33.6915C128.793 35.668 129.427 37.7322 130.068 39.7258C128.584 38.7849 126.407 37.0921 124.891 36.0088C123.198 37.2735 121.491 38.5182 119.769 39.7424C120.43 37.7227 121.078 35.6987 121.712 33.6703L116.494 29.9232C118.641 29.9091 120.789 29.9081 122.937 29.9198L124.831 24.0017Z" fill="#FECC00"/>
<path d="M79.641 102.382C80.1363 103.175 81.3352 107.33 81.6547 108.387C83.6757 108.389 86.1971 108.452 88.1673 108.291L82.8694 112.096C83.5337 114.099 84.1764 116.109 84.7972 118.127C83.1511 117.016 81.328 115.63 79.7084 114.451C78.8528 114.824 75.5313 117.443 74.5288 118.161L76.481 112.089C75.0228 111.052 72.7157 109.503 71.4243 108.385C73.5111 108.375 75.598 108.379 77.6848 108.396C78.3186 106.385 78.9707 104.381 79.641 102.382Z" fill="#FECC00"/>
<path d="M98.7255 121.593C99.2274 122.067 100.525 126.551 100.826 127.523L107.25 127.506L102.023 131.256C102.682 133.264 103.329 135.276 103.965 137.292C102.284 136.116 100.608 134.858 98.923 133.664C98.3553 133.781 94.4733 136.744 93.6484 137.344C94.3424 135.31 94.9996 133.264 95.6198 131.207C93.9203 130.057 92.1232 128.714 90.4434 127.511L96.8205 127.527C97.482 125.76 98.1474 123.427 98.7255 121.593Z" fill="#FECC00"/>
<path d="M150.935 121.575C151.498 122.312 152.671 126.432 153.002 127.525C155.132 127.528 157.262 127.521 159.392 127.502C157.692 128.77 155.923 130.022 154.205 131.276C154.895 133.22 155.546 135.369 156.186 137.344C154.481 136.07 152.757 134.821 151.014 133.599C149.688 134.413 147.183 136.371 145.832 137.358C146.531 135.426 147.188 133.216 147.82 131.242C146.093 130.016 144.38 128.771 142.682 127.509L149.004 127.531C149.678 125.669 150.324 123.481 150.935 121.575Z" fill="#FECC00"/>
<path d="M170.068 102.493C170.573 102.892 171.861 107.367 172.185 108.38C174.122 108.385 176.76 108.462 178.628 108.292C176.95 109.576 175.071 110.881 173.348 112.124C174.044 114.135 174.697 116.16 175.306 118.199C173.642 116.935 171.956 115.699 170.25 114.491C169.832 114.534 165.695 117.702 164.992 118.227C165.648 116.183 166.321 114.144 167.006 112.11C165.278 110.883 163.559 109.642 161.849 108.389L168.145 108.387C168.815 106.602 169.477 104.338 170.068 102.493Z" fill="#FECC00"/>
<path d="M98.692 31.0355C99.2384 31.577 100.485 36.033 100.775 36.9853C102.896 36.9924 105.016 36.9845 107.137 36.9614C105.551 38.2089 103.609 39.5373 101.952 40.7284C102.661 42.4891 103.356 44.9429 103.907 46.767C102.208 45.5096 100.502 44.2627 98.7875 43.0264L93.6415 46.7859L95.6153 40.6949L90.4253 36.9852L96.7888 36.9868C97.4522 35.0565 98.0723 32.9891 98.692 31.0355Z" fill="#FECC00"/>
<path d="M72.5921 76.2515C73.046 76.703 74.3886 81.3393 74.6561 82.2146C76.7963 82.2301 78.9366 82.2193 81.0765 82.1824C79.3761 83.4452 77.5699 84.7023 75.8432 85.9401C76.5467 87.9511 77.1879 89.9834 77.7659 92.0341C76.1718 90.7616 74.3061 89.4599 72.6399 88.2508C71.1753 89.4437 69.0511 90.9048 67.4872 92.0525C68.1655 90.006 68.8263 87.954 69.4701 85.8966C67.8265 84.8391 65.8911 83.369 64.3145 82.1945C66.4193 82.2251 68.5614 82.2107 70.6697 82.217L72.5921 76.2515Z" fill="#FECC00"/>
<path d="M79.6411 50.1392C80.1414 50.9597 81.329 55.084 81.6542 56.1609C83.7445 56.1632 86.046 56.2092 88.1135 56.0929L82.8692 59.8514C83.5198 61.8906 84.1881 63.9243 84.8738 65.9519L79.7 62.2093C78.8907 62.5574 75.4718 65.2363 74.503 65.9297C75.1932 63.9027 75.8465 61.8635 76.4627 59.8129C74.7284 58.6003 73.0038 57.374 71.2891 56.134C73.3482 56.1942 75.5931 56.1588 77.6671 56.1673C78.3121 54.1538 78.9702 52.1443 79.6411 50.1392Z" fill="#FECC00"/>
<path d="M151.036 31.0686C151.545 31.6648 152.786 36.0294 153.079 36.99C155.23 36.9916 157.381 36.9815 159.53 36.9596C157.793 38.154 156.018 39.4668 154.299 40.6995C154.936 42.7388 155.598 44.7707 156.281 46.7946C154.684 45.7067 152.897 44.3332 151.315 43.1796C151.305 43.1759 151.294 43.1696 151.283 43.1687C150.549 43.1153 146.826 46.1543 145.932 46.7704C146.616 44.7516 147.263 42.7201 147.871 40.6771L142.723 36.9829L149.089 36.9873L151.036 31.0686Z" fill="#FECC00"/>
<path d="M170.091 50.1372C170.574 50.6003 171.888 55.1272 172.175 56.0589L178.627 56.0624C176.967 57.1174 174.978 58.6241 173.35 59.7912C174.047 61.7245 174.69 63.8673 175.321 65.837L170.148 62.0906C168.775 63.2257 166.523 64.7653 165.029 65.859C165.672 63.8246 166.328 61.7942 166.996 59.7678C165.277 58.5351 163.499 57.2226 161.736 56.0712L168.166 56.0528C168.821 54.0854 169.462 52.1135 170.091 50.1372Z" fill="#FECC00"/>
<path d="M177.005 76.2509C177.579 76.79 178.806 81.1963 179.1 82.1501L185.518 82.1597C183.843 83.2591 181.949 84.6897 180.301 85.873C180.972 87.894 181.622 89.9222 182.25 91.9572C180.561 90.6806 178.849 89.4345 177.114 88.2195C176.651 88.4286 172.647 91.4546 171.949 91.9745C172.62 89.9391 173.269 87.8965 173.894 85.8472L168.726 82.1586C170.84 82.1288 172.99 82.149 175.107 82.1498C175.765 80.323 176.406 78.1252 177.005 76.2509Z" fill="#FECC00"/>
<path d="M83.1716 186.002C93.6051 185.766 93.3656 203.33 83.9072 204.053C82.0226 204.198 80.1383 202.906 78.8542 201.635C78.9277 203.247 78.8836 205.297 78.8887 206.943L78.9059 209.956C77.3928 210.022 75.733 209.994 74.2074 209.995C73.921 203.374 73.9431 193.03 74.2007 186.36C75.7575 186.319 76.9467 186.328 78.501 186.41C78.4805 187.191 78.4166 188.036 78.3732 188.822C79.8905 186.942 80.8796 186.407 83.1716 186.002ZM83.2389 200.615C85.6701 199.721 86.1838 197.699 86.2754 195.312C86.385 192.459 85.4137 189.294 82.0202 189.343C78.3485 190.682 78.1931 194.622 79.2129 197.939C79.7771 199.773 81.3389 200.667 83.2389 200.615Z" fill="#FEFEFE"/>
<path d="M0.118534 180.046C0.825912 179.983 1.63339 180.004 2.35263 180.011C7.4271 180.058 12.5301 179.928 17.6014 180.064C17.5508 181.582 17.5346 182.687 17.6155 184.196L4.94769 184.203C4.97994 185.586 5.00618 188.228 4.82603 189.517C8.77184 189.496 12.7178 189.495 16.6636 189.514C16.6434 190.903 16.6715 192.344 16.6797 193.737L6.37882 193.742C5.77622 193.715 5.60861 193.676 5.01787 193.857C4.73963 195.642 5.08371 197.851 4.82787 199.782C9.06979 199.768 13.8007 199.66 18 199.814C17.9601 201.185 17.9885 202.617 17.9962 203.993L0.118203 204C-0.052918 198.017 0.0197718 192.045 0.00322793 186.058C-0.0022867 184.049 -0.0159893 182.054 0.118534 180.046Z" fill="#FEFEFE"/>
<path d="M220.074 186.048C225.002 185.538 229.417 189.11 229.947 194.035C230.479 198.961 226.928 203.391 222.003 203.943C217.05 204.499 212.588 200.922 212.052 195.965C211.519 191.009 215.116 186.562 220.074 186.048ZM221.375 200.607C226.864 199.613 226.305 189.15 220.648 189.373C215.186 190.729 215.555 200.54 221.375 200.607Z" fill="#FEFEFE"/>
<path d="M61.5103 186.049C66.6958 185.536 71.3501 189.077 71.9385 193.985C72.5268 198.891 68.8294 203.332 63.6543 203.932C58.4148 204.54 53.6573 200.984 53.0616 196.015C52.4658 191.047 56.2605 186.571 61.5103 186.049ZM63.0163 200.598C68.5798 199.506 68.2003 189.155 62.0218 189.38C56.2243 190.937 56.9819 200.82 63.0163 200.598Z" fill="#FEFEFE"/>
<path d="M160.077 180.034C161.768 179.99 163.332 180.022 165.019 180.062C164.841 185.48 164.902 191.186 165.086 196.594C165.227 200.71 173.35 200.862 173.737 197.182C174.328 191.56 173.761 185.692 174.069 180L179 180.044C178.921 181.307 178.931 182.623 178.923 183.893L178.926 188.132C178.914 196.166 180.19 204.26 169.105 203.994C159.592 203.765 159.969 197.266 160.013 189.8C160.031 186.59 159.968 183.276 160.077 180.034Z" fill="#FEFEFE"/>
<path d="M118.88 186.073C131.873 184.974 124.736 196.598 127.911 203.383L128 203.571L123.541 203.605C123.322 202.971 123.173 202.355 123.006 201.708C119.894 204.215 115.819 205.255 112.957 201.741C108.987 194.297 118.368 193.648 122.815 192.362C122.562 191.317 122.462 190.359 121.476 189.812C119.188 188.543 117.62 189.665 116.55 191.671C115.276 191.381 113.804 191.129 112.508 190.872C114.021 187.346 115.191 186.499 118.88 186.073ZM117.973 200.373C120.228 200.943 122.045 200.177 122.553 197.653C122.646 197.198 122.654 196.361 122.436 195.945C122.358 195.945 122.076 195.939 122.011 195.956C119.96 196.35 113.812 197.332 117.973 200.373Z" fill="#FEFEFE"/>
<path d="M100.597 186.024C102.499 185.876 104.983 186.401 106.478 187.542C109.442 189.799 109.602 192.875 110 196.111L97.8762 196.131C98.3109 198.352 99.2454 201.153 102.582 200.539C103.705 200.334 104.338 199.249 104.849 198.337C105.743 198.492 106.677 198.617 107.578 198.749L109.599 199.193C109.338 199.651 109.069 200.102 108.789 200.546C107.705 202.219 105.951 203.395 103.934 203.797C101.539 204.283 98.4447 203.908 96.4912 202.562C91.2934 198.981 91.9221 188.806 98.2265 186.529C99.0237 186.241 99.7734 186.137 100.597 186.024ZM101.868 193.49L105.213 193.48C104.566 191.073 104.045 189.355 101.039 189.356C98.6981 190.177 98.2687 191.184 97.9713 193.484L101.868 193.49Z" fill="#FEFEFE"/>
<path d="M140.588 186.01C145.491 185.802 147.039 188.899 146.993 193.265C146.956 196.815 146.949 200.442 147 203.991L142.255 204C142.146 200.934 142.251 197.878 142.217 194.756C142.198 192.92 142.193 189.356 139.425 189.429C138.058 189.465 137.347 190.06 136.437 191.047C135.454 193.699 135.7 200.937 135.896 203.991L131.093 203.997C130.963 201.224 131.024 198.067 131.018 195.265C131.011 192.435 130.948 189.183 131.112 186.387C132.648 186.309 133.992 186.368 135.524 186.46C135.43 187.2 135.403 188.158 135.358 188.918C137.009 186.964 138.177 186.387 140.588 186.01Z" fill="#FEFEFE"/>
<path d="M242.581 186.011C247.332 185.793 249.04 188.739 248.999 193.091C248.965 196.708 248.967 200.376 248.996 203.993L244.261 204C244.12 200.029 244.433 194.914 243.987 191.126L243.931 191.046C242.265 188.706 240.242 189.02 238.46 191.061C237.446 193.894 237.795 200.772 237.907 203.991L233.128 203.993C232.96 198.845 232.953 191.52 233.134 186.386C234.664 186.304 236.022 186.367 237.548 186.457C237.452 187.195 237.423 188.175 237.379 188.935C238.971 186.993 240.219 186.381 242.581 186.011Z" fill="#FEFEFE"/>
<path d="M193.567 186.001C198.696 185.929 200.048 188.844 199.999 193.475C199.961 196.955 199.966 200.512 199.994 203.993L195.26 204C195.113 200.075 195.439 194.814 194.977 191.1C193.307 188.818 191.532 188.906 189.563 190.88C188.378 193.497 188.8 200.859 188.899 203.991L184.118 203.995C183.958 198.696 183.963 191.67 184.121 186.376C185.658 186.294 187.008 186.358 188.541 186.447C188.458 187.258 188.415 188.135 188.357 188.953C189.934 186.998 191.203 186.375 193.567 186.001Z" fill="#FEFEFE"/>
<path d="M32.5231 186.041C34.0646 185.969 35.46 186.02 36.9965 186.068C36.9253 187.891 36.9498 189.859 36.9405 191.693C36.9144 195.653 36.9341 199.613 37 203.571L32.8047 203.577C32.7951 202.806 32.8246 201.975 32.8379 201.199C28.1864 206.235 21.733 204.299 22.0085 196.847C22.1387 193.32 21.9845 189.586 22.0901 186.007C23.6544 185.995 24.9805 185.986 26.5489 186.101C26.4706 188.677 25.9299 197.84 27.2211 199.615C27.6157 200.156 28.1625 200.469 28.8028 200.528C29.6879 200.607 30.6199 200.247 31.2567 199.589C31.6742 199.159 32.018 198.608 32.1777 198.01C32.9027 195.29 32.4019 189.187 32.5231 186.041Z" fill="#FEFEFE"/>
<path d="M49.6475 186C51.0781 185.995 51.7378 186.279 53 186.861C52.8134 187.984 52.065 190.191 51.7039 191.359C51.0581 191.036 50.4052 190.671 49.6812 190.633C49.0486 190.595 48.429 190.828 47.9641 191.275C46.1378 193.037 46.6737 201.11 46.6899 203.991L43.8594 204L42.1296 203.988C41.9495 198.672 41.9682 191.696 42.1174 186.385C43.2475 186.303 45.0971 186.37 46.28 186.375L46.2858 188.821C47.3421 187.136 47.7129 186.48 49.6475 186Z" fill="#FEFEFE"/>
<path d="M204.168 186.002C205.855 185.995 207.306 186 209 186.102C208.705 190.841 208.834 199.113 208.969 203.937C207.7 204.05 205.486 203.977 204.148 203.973C204.009 199.134 203.891 190.67 204.168 186.002Z" fill="#FEFEFE"/>
<path d="M204.034 180.043C205.61 179.956 207.392 180.023 208.984 180.049C208.9 181.568 208.895 182.472 209 183.987C207.358 184.013 205.658 183.992 204.011 183.989C203.991 182.673 203.998 181.358 204.034 180.043Z" fill="#FEFEFE"/>
</g>
<defs>
<clipPath id="clip0_188_187">
<rect width="250" height="210" fill="white"/>
</clipPath>
</defs>
</svg>
