<svg width="417" height="159" viewBox="0 0 417 159" fill="none" xmlns="http://www.w3.org/2000/svg">
<path d="M79.4999 157.869C122.782 157.869 157.869 122.782 157.869 79.5C157.869 36.2182 122.782 1.13129 79.4999 1.13129C36.2181 1.13129 1.13123 36.2182 1.13123 79.5C1.13123 122.782 36.2181 157.869 79.4999 157.869Z" fill="#FFE330"/>
<path d="M79.4999 53.866L69.0353 75.0051H61.2825L78.4314 39.971H79.4999H80.5684L97.7173 75.0051H89.9645L79.4999 53.866Z" fill="#252525"/>
<path d="M79.4999 105.134L69.0353 83.9949H61.2825L78.4314 119.029H79.4999H80.5684L97.7173 83.9949H89.9645L79.4999 105.134Z" fill="#252525"/>
<path d="M211.2 23.08V51H205.6V32.84L198.12 51H193.88L186.36 32.84V51H180.76V23.08H187.12L196 43.84L204.88 23.08H211.2ZM226.577 51.36C224.443 51.36 222.523 50.8933 220.817 49.96C219.11 49 217.763 47.6533 216.777 45.92C215.817 44.1867 215.337 42.1867 215.337 39.92C215.337 37.6533 215.83 35.6533 216.817 33.92C217.83 32.1867 219.203 30.8533 220.937 29.92C222.67 28.96 224.603 28.48 226.737 28.48C228.87 28.48 230.803 28.96 232.537 29.92C234.27 30.8533 235.63 32.1867 236.617 33.92C237.63 35.6533 238.137 37.6533 238.137 39.92C238.137 42.1867 237.617 44.1867 236.577 45.92C235.563 47.6533 234.177 49 232.417 49.96C230.683 50.8933 228.737 51.36 226.577 51.36ZM226.577 46.48C227.59 46.48 228.537 46.24 229.417 45.76C230.323 45.2533 231.043 44.5067 231.577 43.52C232.11 42.5333 232.377 41.3333 232.377 39.92C232.377 37.8133 231.817 36.2 230.697 35.08C229.603 33.9333 228.257 33.36 226.657 33.36C225.057 33.36 223.71 33.9333 222.617 35.08C221.55 36.2 221.017 37.8133 221.017 39.92C221.017 42.0267 221.537 43.6533 222.577 44.8C223.643 45.92 224.977 46.48 226.577 46.48ZM254.524 28.52C257.164 28.52 259.298 29.36 260.924 31.04C262.551 32.6933 263.364 35.0133 263.364 38V51H257.764V38.76C257.764 37 257.324 35.6533 256.444 34.72C255.564 33.76 254.364 33.28 252.844 33.28C251.298 33.28 250.071 33.76 249.164 34.72C248.284 35.6533 247.844 37 247.844 38.76V51H242.244V28.84H247.844V31.6C248.591 30.64 249.538 29.8933 250.684 29.36C251.858 28.8 253.138 28.52 254.524 28.52ZM267.25 39.84C267.25 37.6 267.69 35.6133 268.57 33.88C269.476 32.1467 270.69 30.8133 272.21 29.88C273.756 28.9467 275.476 28.48 277.37 28.48C279.023 28.48 280.463 28.8133 281.69 29.48C282.943 30.1467 283.943 30.9867 284.69 32V28.84H290.33V51H284.69V47.76C283.97 48.8 282.97 49.6667 281.69 50.36C280.436 51.0267 278.983 51.36 277.33 51.36C275.463 51.36 273.756 50.88 272.21 49.92C270.69 48.96 269.476 47.6133 268.57 45.88C267.69 44.12 267.25 42.1067 267.25 39.84ZM284.69 39.92C284.69 38.56 284.423 37.4 283.89 36.44C283.356 35.4533 282.636 34.7067 281.73 34.2C280.823 33.6667 279.85 33.4 278.81 33.4C277.77 33.4 276.81 33.6533 275.93 34.16C275.05 34.6667 274.33 35.4133 273.77 36.4C273.236 37.36 272.97 38.5067 272.97 39.84C272.97 41.1733 273.236 42.3467 273.77 43.36C274.33 44.3467 275.05 45.1067 275.93 45.64C276.836 46.1733 277.796 46.44 278.81 46.44C279.85 46.44 280.823 46.1867 281.73 45.68C282.636 45.1467 283.356 44.4 283.89 43.44C284.423 42.4533 284.69 41.28 284.69 39.92ZM304.279 51.36C302.466 51.36 300.839 51.04 299.399 50.4C297.959 49.7333 296.812 48.84 295.959 47.72C295.132 46.6 294.679 45.36 294.599 44H300.239C300.346 44.8533 300.759 45.56 301.479 46.12C302.226 46.68 303.146 46.96 304.239 46.96C305.306 46.96 306.132 46.7467 306.719 46.32C307.332 45.8933 307.639 45.3467 307.639 44.68C307.639 43.96 307.266 43.4267 306.519 43.08C305.799 42.7067 304.639 42.3067 303.039 41.88C301.386 41.48 300.026 41.0667 298.959 40.64C297.919 40.2133 297.012 39.56 296.239 38.68C295.492 37.8 295.119 36.6133 295.119 35.12C295.119 33.8933 295.466 32.7733 296.159 31.76C296.879 30.7467 297.892 29.9467 299.199 29.36C300.532 28.7733 302.092 28.48 303.879 28.48C306.519 28.48 308.626 29.1467 310.199 30.48C311.772 31.7867 312.639 33.56 312.799 35.8H307.439C307.359 34.92 306.986 34.2267 306.319 33.72C305.679 33.1867 304.812 32.92 303.719 32.92C302.706 32.92 301.919 33.1067 301.359 33.48C300.826 33.8533 300.559 34.3733 300.559 35.04C300.559 35.7867 300.932 36.36 301.679 36.76C302.426 37.1333 303.586 37.52 305.159 37.92C306.759 38.32 308.079 38.7333 309.119 39.16C310.159 39.5867 311.052 40.2533 311.799 41.16C312.572 42.04 312.972 43.2133 312.999 44.68C312.999 45.96 312.639 47.1067 311.919 48.12C311.226 49.1333 310.212 49.9333 308.879 50.52C307.572 51.08 306.039 51.36 304.279 51.36ZM330.076 28.52C331.756 28.52 333.249 28.8933 334.556 29.64C335.863 30.36 336.876 31.44 337.596 32.88C338.343 34.2933 338.716 36 338.716 38V51H333.116V38.76C333.116 37 332.676 35.6533 331.796 34.72C330.916 33.76 329.716 33.28 328.196 33.28C326.649 33.28 325.423 33.76 324.516 34.72C323.636 35.6533 323.196 37 323.196 38.76V51H317.596V21.4H323.196V31.6C323.916 30.64 324.876 29.8933 326.076 29.36C327.276 28.8 328.609 28.52 330.076 28.52ZM197.88 90.68H186.76L184.92 96H179.04L189.08 68.04H195.6L205.64 96H199.72L197.88 90.68ZM196.36 86.2L192.32 74.52L188.28 86.2H196.36ZM217.873 96.36C216.059 96.36 214.433 96.04 212.993 95.4C211.553 94.7333 210.406 93.84 209.553 92.72C208.726 91.6 208.273 90.36 208.193 89H213.833C213.939 89.8533 214.353 90.56 215.073 91.12C215.819 91.68 216.739 91.96 217.833 91.96C218.899 91.96 219.726 91.7467 220.313 91.32C220.926 90.8933 221.233 90.3467 221.233 89.68C221.233 88.96 220.859 88.4267 220.113 88.08C219.393 87.7067 218.233 87.3067 216.633 86.88C214.979 86.48 213.619 86.0667 212.553 85.64C211.513 85.2133 210.606 84.56 209.833 83.68C209.086 82.8 208.713 81.6133 208.713 80.12C208.713 78.8933 209.059 77.7733 209.753 76.76C210.473 75.7467 211.486 74.9467 212.793 74.36C214.126 73.7733 215.686 73.48 217.473 73.48C220.113 73.48 222.219 74.1467 223.793 75.48C225.366 76.7867 226.233 78.56 226.393 80.8H221.033C220.953 79.92 220.579 79.2267 219.913 78.72C219.273 78.1867 218.406 77.92 217.313 77.92C216.299 77.92 215.513 78.1067 214.953 78.48C214.419 78.8533 214.153 79.3733 214.153 80.04C214.153 80.7867 214.526 81.36 215.273 81.76C216.019 82.1333 217.179 82.52 218.753 82.92C220.353 83.32 221.673 83.7333 222.713 84.16C223.753 84.5867 224.646 85.2533 225.393 86.16C226.166 87.04 226.566 88.2133 226.593 89.68C226.593 90.96 226.233 92.1067 225.513 93.12C224.819 94.1333 223.806 94.9333 222.473 95.52C221.166 96.08 219.633 96.36 217.873 96.36ZM239.67 96.36C237.856 96.36 236.23 96.04 234.79 95.4C233.35 94.7333 232.203 93.84 231.35 92.72C230.523 91.6 230.07 90.36 229.99 89H235.63C235.736 89.8533 236.15 90.56 236.87 91.12C237.616 91.68 238.536 91.96 239.63 91.96C240.696 91.96 241.523 91.7467 242.11 91.32C242.723 90.8933 243.03 90.3467 243.03 89.68C243.03 88.96 242.656 88.4267 241.91 88.08C241.19 87.7067 240.03 87.3067 238.43 86.88C236.776 86.48 235.416 86.0667 234.35 85.64C233.31 85.2133 232.403 84.56 231.63 83.68C230.883 82.8 230.51 81.6133 230.51 80.12C230.51 78.8933 230.856 77.7733 231.55 76.76C232.27 75.7467 233.283 74.9467 234.59 74.36C235.923 73.7733 237.483 73.48 239.27 73.48C241.91 73.48 244.016 74.1467 245.59 75.48C247.163 76.7867 248.03 78.56 248.19 80.8H242.83C242.75 79.92 242.376 79.2267 241.71 78.72C241.07 78.1867 240.203 77.92 239.11 77.92C238.096 77.92 237.31 78.1067 236.75 78.48C236.216 78.8533 235.95 79.3733 235.95 80.04C235.95 80.7867 236.323 81.36 237.07 81.76C237.816 82.1333 238.976 82.52 240.55 82.92C242.15 83.32 243.47 83.7333 244.51 84.16C245.55 84.5867 246.443 85.2533 247.19 86.16C247.963 87.04 248.363 88.2133 248.39 89.68C248.39 90.96 248.03 92.1067 247.31 93.12C246.616 94.1333 245.603 94.9333 244.27 95.52C242.963 96.08 241.43 96.36 239.67 96.36ZM262.827 96.36C260.693 96.36 258.773 95.8933 257.067 94.96C255.36 94 254.013 92.6533 253.027 90.92C252.067 89.1867 251.587 87.1867 251.587 84.92C251.587 82.6533 252.08 80.6533 253.067 78.92C254.08 77.1867 255.453 75.8533 257.187 74.92C258.92 73.96 260.853 73.48 262.987 73.48C265.12 73.48 267.053 73.96 268.787 74.92C270.52 75.8533 271.88 77.1867 272.867 78.92C273.88 80.6533 274.387 82.6533 274.387 84.92C274.387 87.1867 273.867 89.1867 272.827 90.92C271.813 92.6533 270.427 94 268.667 94.96C266.933 95.8933 264.987 96.36 262.827 96.36ZM262.827 91.48C263.84 91.48 264.787 91.24 265.667 90.76C266.573 90.2533 267.293 89.5067 267.827 88.52C268.36 87.5333 268.627 86.3333 268.627 84.92C268.627 82.8133 268.067 81.2 266.947 80.08C265.853 78.9333 264.507 78.36 262.907 78.36C261.307 78.36 259.96 78.9333 258.867 80.08C257.8 81.2 257.267 82.8133 257.267 84.92C257.267 87.0267 257.787 88.6533 258.827 89.8C259.893 90.92 261.227 91.48 262.827 91.48ZM277.054 84.92C277.054 82.6267 277.521 80.6267 278.454 78.92C279.388 77.1867 280.681 75.8533 282.334 74.92C283.988 73.96 285.881 73.48 288.014 73.48C290.761 73.48 293.028 74.1733 294.814 75.56C296.628 76.92 297.841 78.84 298.454 81.32H292.414C292.094 80.36 291.548 79.6133 290.774 79.08C290.028 78.52 289.094 78.24 287.974 78.24C286.374 78.24 285.108 78.8267 284.174 80C283.241 81.1467 282.774 82.7867 282.774 84.92C282.774 87.0267 283.241 88.6667 284.174 89.84C285.108 90.9867 286.374 91.56 287.974 91.56C290.241 91.56 291.721 90.5467 292.414 88.52H298.454C297.841 90.92 296.628 92.8267 294.814 94.24C293.001 95.6533 290.734 96.36 288.014 96.36C285.881 96.36 283.988 95.8933 282.334 94.96C280.681 94 279.388 92.6667 278.454 90.96C277.521 89.2267 277.054 87.2133 277.054 84.92ZM305.397 71.2C304.41 71.2 303.584 70.8933 302.917 70.28C302.277 69.64 301.957 68.8533 301.957 67.92C301.957 66.9867 302.277 66.2133 302.917 65.6C303.584 64.96 304.41 64.64 305.397 64.64C306.384 64.64 307.197 64.96 307.837 65.6C308.504 66.2133 308.837 66.9867 308.837 67.92C308.837 68.8533 308.504 69.64 307.837 70.28C307.197 70.8933 306.384 71.2 305.397 71.2ZM308.157 73.84V96H302.557V73.84H308.157ZM312.25 84.84C312.25 82.6 312.69 80.6133 313.57 78.88C314.476 77.1467 315.69 75.8133 317.21 74.88C318.756 73.9467 320.476 73.48 322.37 73.48C324.023 73.48 325.463 73.8133 326.69 74.48C327.943 75.1467 328.943 75.9867 329.69 77V73.84H335.33V96H329.69V92.76C328.97 93.8 327.97 94.6667 326.69 95.36C325.436 96.0267 323.983 96.36 322.33 96.36C320.463 96.36 318.756 95.88 317.21 94.92C315.69 93.96 314.476 92.6133 313.57 90.88C312.69 89.12 312.25 87.1067 312.25 84.84ZM329.69 84.92C329.69 83.56 329.423 82.4 328.89 81.44C328.356 80.4533 327.636 79.7067 326.73 79.2C325.823 78.6667 324.85 78.4 323.81 78.4C322.77 78.4 321.81 78.6533 320.93 79.16C320.05 79.6667 319.33 80.4133 318.77 81.4C318.236 82.36 317.97 83.5067 317.97 84.84C317.97 86.1733 318.236 87.3467 318.77 88.36C319.33 89.3467 320.05 90.1067 320.93 90.64C321.836 91.1733 322.796 91.44 323.81 91.44C324.85 91.44 325.823 91.1867 326.73 90.68C327.636 90.1467 328.356 89.4 328.89 88.44C329.423 87.4533 329.69 86.28 329.69 84.92ZM347.319 78.44V89.16C347.319 89.9067 347.492 90.4533 347.839 90.8C348.212 91.12 348.826 91.28 349.679 91.28H352.279V96H348.759C344.039 96 341.679 93.7067 341.679 89.12V78.44H339.039V73.84H341.679V68.36H347.319V73.84H352.279V78.44H347.319ZM359.147 71.2C358.16 71.2 357.334 70.8933 356.667 70.28C356.027 69.64 355.707 68.8533 355.707 67.92C355.707 66.9867 356.027 66.2133 356.667 65.6C357.334 64.96 358.16 64.64 359.147 64.64C360.134 64.64 360.947 64.96 361.587 65.6C362.254 66.2133 362.587 66.9867 362.587 67.92C362.587 68.8533 362.254 69.64 361.587 70.28C360.947 70.8933 360.134 71.2 359.147 71.2ZM361.907 73.84V96H356.307V73.84H361.907ZM377.28 96.36C375.146 96.36 373.226 95.8933 371.52 94.96C369.813 94 368.466 92.6533 367.48 90.92C366.52 89.1867 366.04 87.1867 366.04 84.92C366.04 82.6533 366.533 80.6533 367.52 78.92C368.533 77.1867 369.906 75.8533 371.64 74.92C373.373 73.96 375.306 73.48 377.44 73.48C379.573 73.48 381.506 73.96 383.24 74.92C384.973 75.8533 386.333 77.1867 387.32 78.92C388.333 80.6533 388.84 82.6533 388.84 84.92C388.84 87.1867 388.32 89.1867 387.28 90.92C386.266 92.6533 384.88 94 383.12 94.96C381.386 95.8933 379.44 96.36 377.28 96.36ZM377.28 91.48C378.293 91.48 379.24 91.24 380.12 90.76C381.026 90.2533 381.746 89.5067 382.28 88.52C382.813 87.5333 383.08 86.3333 383.08 84.92C383.08 82.8133 382.52 81.2 381.4 80.08C380.306 78.9333 378.96 78.36 377.36 78.36C375.76 78.36 374.413 78.9333 373.32 80.08C372.253 81.2 371.72 82.8133 371.72 84.92C371.72 87.0267 372.24 88.6533 373.28 89.8C374.346 90.92 375.68 91.48 377.28 91.48ZM405.228 73.52C407.868 73.52 410.001 74.36 411.628 76.04C413.254 77.6933 414.068 80.0133 414.068 83V96H408.468V83.76C408.468 82 408.028 80.6533 407.148 79.72C406.268 78.76 405.068 78.28 403.548 78.28C402.001 78.28 400.774 78.76 399.868 79.72C398.988 80.6533 398.548 82 398.548 83.76V96H392.948V73.84H398.548V76.6C399.294 75.64 400.241 74.8933 401.388 74.36C402.561 73.8 403.841 73.52 405.228 73.52ZM190.6 141.36C188.467 141.36 186.547 140.893 184.84 139.96C183.133 139 181.787 137.653 180.8 135.92C179.84 134.187 179.36 132.187 179.36 129.92C179.36 127.653 179.853 125.653 180.84 123.92C181.853 122.187 183.227 120.853 184.96 119.92C186.693 118.96 188.627 118.48 190.76 118.48C192.893 118.48 194.827 118.96 196.56 119.92C198.293 120.853 199.653 122.187 200.64 123.92C201.653 125.653 202.16 127.653 202.16 129.92C202.16 132.187 201.64 134.187 200.6 135.92C199.587 137.653 198.2 139 196.44 139.96C194.707 140.893 192.76 141.36 190.6 141.36ZM190.6 136.48C191.613 136.48 192.56 136.24 193.44 135.76C194.347 135.253 195.067 134.507 195.6 133.52C196.133 132.533 196.4 131.333 196.4 129.92C196.4 127.813 195.84 126.2 194.72 125.08C193.627 123.933 192.28 123.36 190.68 123.36C189.08 123.36 187.733 123.933 186.64 125.08C185.573 126.2 185.04 127.813 185.04 129.92C185.04 132.027 185.56 133.653 186.6 134.8C187.667 135.92 189 136.48 190.6 136.48ZM216.428 123.44H212.548V141H206.868V123.44H204.348V118.84H206.868V117.72C206.868 115 207.641 113 209.188 111.72C210.734 110.44 213.068 109.84 216.188 109.92V114.64C214.828 114.613 213.881 114.84 213.348 115.32C212.814 115.8 212.548 116.667 212.548 117.92V118.84H216.428V123.44ZM228.228 127C228.228 124.253 228.841 121.8 230.068 119.64C231.321 117.453 233.015 115.76 235.148 114.56C237.308 113.333 239.721 112.72 242.388 112.72C245.508 112.72 248.241 113.52 250.588 115.12C252.935 116.72 254.575 118.933 255.508 121.76H249.068C248.428 120.427 247.521 119.427 246.348 118.76C245.201 118.093 243.868 117.76 242.348 117.76C240.721 117.76 239.268 118.147 237.988 118.92C236.735 119.667 235.748 120.733 235.028 122.12C234.335 123.507 233.988 125.133 233.988 127C233.988 128.84 234.335 130.467 235.028 131.88C235.748 133.267 236.735 134.347 237.988 135.12C239.268 135.867 240.721 136.24 242.348 136.24C243.868 136.24 245.201 135.907 246.348 135.24C247.521 134.547 248.428 133.533 249.068 132.2H255.508C254.575 135.053 252.935 137.28 250.588 138.88C248.268 140.453 245.535 141.24 242.388 141.24C239.721 141.24 237.308 140.64 235.148 139.44C233.015 138.213 231.321 136.52 230.068 134.36C228.841 132.2 228.228 129.747 228.228 127ZM270.131 141.36C267.998 141.36 266.078 140.893 264.371 139.96C262.665 139 261.318 137.653 260.331 135.92C259.371 134.187 258.891 132.187 258.891 129.92C258.891 127.653 259.385 125.653 260.371 123.92C261.385 122.187 262.758 120.853 264.491 119.92C266.225 118.96 268.158 118.48 270.291 118.48C272.425 118.48 274.358 118.96 276.091 119.92C277.825 120.853 279.185 122.187 280.171 123.92C281.185 125.653 281.691 127.653 281.691 129.92C281.691 132.187 281.171 134.187 280.131 135.92C279.118 137.653 277.731 139 275.971 139.96C274.238 140.893 272.291 141.36 270.131 141.36ZM270.131 136.48C271.145 136.48 272.091 136.24 272.971 135.76C273.878 135.253 274.598 134.507 275.131 133.52C275.665 132.533 275.931 131.333 275.931 129.92C275.931 127.813 275.371 126.2 274.251 125.08C273.158 123.933 271.811 123.36 270.211 123.36C268.611 123.36 267.265 123.933 266.171 125.08C265.105 126.2 264.571 127.813 264.571 129.92C264.571 132.027 265.091 133.653 266.131 134.8C267.198 135.92 268.531 136.48 270.131 136.48ZM284.359 129.84C284.359 127.6 284.799 125.613 285.679 123.88C286.586 122.147 287.812 120.813 289.359 119.88C290.906 118.947 292.626 118.48 294.519 118.48C295.959 118.48 297.332 118.8 298.639 119.44C299.946 120.053 300.986 120.88 301.759 121.92V111.4H307.439V141H301.759V137.72C301.066 138.813 300.092 139.693 298.839 140.36C297.586 141.027 296.132 141.36 294.479 141.36C292.612 141.36 290.906 140.88 289.359 139.92C287.812 138.96 286.586 137.613 285.679 135.88C284.799 134.12 284.359 132.107 284.359 129.84ZM301.799 129.92C301.799 128.56 301.532 127.4 300.999 126.44C300.466 125.453 299.746 124.707 298.839 124.2C297.932 123.667 296.959 123.4 295.919 123.4C294.879 123.4 293.919 123.653 293.039 124.16C292.159 124.667 291.439 125.413 290.879 126.4C290.346 127.36 290.079 128.507 290.079 129.84C290.079 131.173 290.346 132.347 290.879 133.36C291.439 134.347 292.159 135.107 293.039 135.64C293.946 136.173 294.906 136.44 295.919 136.44C296.959 136.44 297.932 136.187 298.839 135.68C299.746 135.147 300.466 134.4 300.999 133.44C301.532 132.453 301.799 131.28 301.799 129.92ZM315.748 116.2C314.762 116.2 313.935 115.893 313.268 115.28C312.628 114.64 312.308 113.853 312.308 112.92C312.308 111.987 312.628 111.213 313.268 110.6C313.935 109.96 314.762 109.64 315.748 109.64C316.735 109.64 317.548 109.96 318.188 110.6C318.855 111.213 319.188 111.987 319.188 112.92C319.188 113.853 318.855 114.64 318.188 115.28C317.548 115.893 316.735 116.2 315.748 116.2ZM318.508 118.84V141H312.908V118.84H318.508ZM336.321 118.52C338.961 118.52 341.095 119.36 342.721 121.04C344.348 122.693 345.161 125.013 345.161 128V141H339.561V128.76C339.561 127 339.121 125.653 338.241 124.72C337.361 123.76 336.161 123.28 334.641 123.28C333.095 123.28 331.868 123.76 330.961 124.72C330.081 125.653 329.641 127 329.641 128.76V141H324.041V118.84H329.641V121.6C330.388 120.64 331.335 119.893 332.481 119.36C333.655 118.8 334.935 118.52 336.321 118.52ZM359.167 118.48C360.82 118.48 362.273 118.813 363.527 119.48C364.78 120.12 365.767 120.96 366.487 122V118.84H372.127V141.16C372.127 143.213 371.713 145.04 370.887 146.64C370.06 148.267 368.82 149.547 367.167 150.48C365.513 151.44 363.513 151.92 361.167 151.92C358.02 151.92 355.433 151.187 353.407 149.72C351.407 148.253 350.273 146.253 350.007 143.72H355.567C355.86 144.733 356.487 145.533 357.447 146.12C358.433 146.733 359.62 147.04 361.007 147.04C362.633 147.04 363.953 146.547 364.967 145.56C365.98 144.6 366.487 143.133 366.487 141.16V137.72C365.767 138.76 364.767 139.627 363.487 140.32C362.233 141.013 360.793 141.36 359.167 141.36C357.3 141.36 355.593 140.88 354.047 139.92C352.5 138.96 351.273 137.613 350.367 135.88C349.487 134.12 349.047 132.107 349.047 129.84C349.047 127.6 349.487 125.613 350.367 123.88C351.273 122.147 352.487 120.813 354.007 119.88C355.553 118.947 357.273 118.48 359.167 118.48ZM366.487 129.92C366.487 128.56 366.22 127.4 365.687 126.44C365.153 125.453 364.433 124.707 363.527 124.2C362.62 123.667 361.647 123.4 360.607 123.4C359.567 123.4 358.607 123.653 357.727 124.16C356.847 124.667 356.127 125.413 355.567 126.4C355.033 127.36 354.767 128.507 354.767 129.84C354.767 131.173 355.033 132.347 355.567 133.36C356.127 134.347 356.847 135.107 357.727 135.64C358.633 136.173 359.593 136.44 360.607 136.44C361.647 136.44 362.62 136.187 363.527 135.68C364.433 135.147 365.153 134.4 365.687 133.44C366.22 132.453 366.487 131.28 366.487 129.92Z" fill="#fff"/>
</svg>
