<?xml version="1.0" encoding="UTF-8"?>
<!-- Generator: Adobe Illustrator 22.0.1, SVG Export Plug-In . SVG Version: 6.00 Build 0)  -->
<svg version="1.1" id="Layer_1" xmlns="http://www.w3.org/2000/svg" xmlns:xlink="http://www.w3.org/1999/xlink" x="0px" y="0px" viewBox="0 0 921 241.8" style="enable-background:new 0 0 921 241.8;" xml:space="preserve">
<style type="text/css">
	.st0{fill:#FFFFFF;}
</style>
<g>
	<g>
		<path class="st0" d="M337.9,86.4l1.6-5.6c0.2-0.6,0.5-0.8,1.1-0.8h13.3c0.5,0,0.8,0.3,0.8,0.8v108.9c0,0.5-0.3,0.8-0.8,0.8h-15.2    c-0.5,0-0.8-0.3-0.8-0.8v-36.5c0-0.5-0.8-0.9-1.3-0.5c-0.8,0.8-8.5,8.3-21.6,8.3c-21.8,0-36.7-16.8-36.7-41.3s14.1-41.3,36.7-41.3    c7.8,0,17.1,4.1,21.2,8.2C336.8,87.3,337.5,87.3,337.9,86.4z M317.3,145.6c13.3,0,20.5-9.9,20.5-25.9c0-15.2-7.2-26-20.5-26    c-14.3,0-22.1,10.8-22.1,26S303,145.6,317.3,145.6z"/>
		<path class="st0" d="M400.4,161.1c-23.7,0-33.7-17.1-33.7-37.2v-43c0-0.5,0.3-0.8,0.8-0.8h15.4c0.5,0,0.8,0.3,0.8,0.8v43    c0,10.7,5.2,21.8,19.1,21.8c12.7,0,19-10.2,19-21V80.8c0-0.5,0.3-0.8,0.8-0.8h15.2c0.5,0,0.8,0.3,0.8,0.8v77.8    c0,0.5-0.3,0.8-0.8,0.8h-13.3c-0.6,0-0.9-0.3-1.1-0.8l-1.6-6c-0.3-0.9-1.3-0.6-1.7-0.2C416.9,156.8,408.9,161.1,400.4,161.1z"/>
		<path class="st0" d="M481.5,161.1c-21.2,0-31.2-10.5-31.2-25.1c0-13.6,11.4-24.6,34.4-24.6h16.2c3.3,0,5-2.5,5-4.4    c0-4.9-1.4-13-18.4-13c-12.7,0-17.6,5.6-17.7,12.2c0,0.5-0.3,0.8-0.8,0.8h-15.2c-0.5,0-0.8-0.3-0.8-0.8    c0-18.5,16.3-27.6,34.5-27.6c21.6,0,35.1,9.7,35.1,29.2v32.2c0,2.8,2.2,5.2,5.5,5.2h3.5c0.5,0,0.8,0.3,0.8,0.8v12.9    c0,0.5-0.3,0.8-0.8,0.8h-6.3c-8.6,0-13.3-2.7-16-7.4c-0.3-0.5-0.9-0.6-1.4-0.2C504,155.9,494.9,161.1,481.5,161.1z M505.8,126.8    v-1.1c0-0.5-0.3-0.8-0.8-0.8h-19.9c-15.4,0-18,6.1-18,11c0,4.4,3.5,9.9,14.4,9.9C499.1,145.8,505.7,135.6,505.8,126.8z"/>
		<path class="st0" d="M582.1,78.4c23.7,0,33.7,17.1,33.7,37.2v43c0,0.5-0.3,0.8-0.8,0.8h-15.4c-0.5,0-0.8-0.3-0.8-0.8v-43    c0-10.7-5.2-21.8-19.1-21.8c-12.7,0-19,10.2-19,21v43.8c0,0.5-0.3,0.8-0.8,0.8h-15.2c-0.5,0-0.8-0.3-0.8-0.8V80.8    c0-0.5,0.3-0.8,0.8-0.8H558c0.6,0,0.9,0.3,1.1,0.8l1.6,6c0.3,0.9,1.3,0.6,1.7,0.2C565.6,82.8,573.6,78.4,582.1,78.4z"/>
		<path class="st0" d="M621.9,94.1c-0.5,0-0.8-0.3-0.8-0.8V80.8c0-0.5,0.3-0.8,0.8-0.8h13.4c0.5,0,0.8-0.3,0.8-0.8V58.1    c0-0.5,0.3-0.8,0.8-0.8h15.4c0.5,0,0.8,0.3,0.8,0.8v21.2c0,0.5,0.3,0.8,0.8,0.8h16.5c0.5,0,0.8,0.3,0.8,0.8v12.5    c0,0.5-0.3,0.8-0.8,0.8h-16.5c-0.5,0-0.8,0.3-0.8,0.8v42.8c0,3.9,2.4,6.4,7.1,6.4h10.2c0.5,0,0.8,0.3,0.8,0.8v13.6    c0,0.5-0.3,0.8-0.8,0.8h-12.2c-15.8,0-22-6.4-22-22.1V94.9c0-0.5-0.3-0.8-0.8-0.8H621.9z"/>
		<path class="st0" d="M747.4,161.1c-23.7,0-33.7-17.1-33.7-37.2v-43c0-0.5,0.3-0.8,0.8-0.8h15.4c0.5,0,0.8,0.3,0.8,0.8v43    c0,10.7,5.2,21.8,19.1,21.8c12.7,0,19-10.2,19-21V80.8c0-0.5,0.3-0.8,0.8-0.8h15.2c0.5,0,0.8,0.3,0.8,0.8v77.8    c0,0.5-0.3,0.8-0.8,0.8h-13.3c-0.6,0-0.9-0.3-1.1-0.8l-1.6-6c-0.3-0.9-1.3-0.6-1.7-0.2C763.9,156.8,755.9,161.1,747.4,161.1z"/>
		<path class="st0" d="M898.6,159.4c-0.5,0-0.8-0.3-0.8-0.8v-43.3c0-10.7-2.8-21.5-16-21.5c-12.7,0-15.7,9.9-15.7,21.5v43.3    c0,0.5-0.5,0.8-0.8,0.8h-15.4c-0.6,0-0.8-0.2-0.8-0.8v-43.3c0-10.8-3-21.5-15.8-21.5c-11.9,0-15.8,9.9-15.8,21.5v43.3    c0,0.5-0.3,0.8-0.8,0.8h-15.2c-0.5,0-0.8-0.3-0.8-0.8V80.8c0-0.5,0.3-0.8,0.8-0.8h13.3c0.6,0,0.9,0.3,1.1,0.9l1.6,5.8    c0.3,0.8,1.1,0.8,1.7,0.2c3.5-4.1,11.3-8.5,18.8-8.5c10,0,15.8,3.1,21.5,9.4c0.3,0.3,0.9,0.6,1.6,0c5.3-5.6,13.5-9.4,22.3-9.4    c20.1,0,31.2,12.4,31.2,36.4v43.8c0,0.5-0.3,0.8-0.8,0.8H898.6z"/>
		<g>
			<path class="st0" d="M685,159.4c-0.5,0-0.8-0.3-0.8-0.8V80.8c0-0.5,0.3-0.8,0.8-0.8h15.2c0.5,0,0.8,0.3,0.8,0.8v77.8     c0,0.5-0.3,0.8-0.8,0.8L685,159.4L685,159.4z"/>
			<circle class="st0" cx="692.8" cy="59.6" r="10.2"/>
		</g>
	</g>
	<path class="st0" d="M120.7,5.9C57.5,5.9,6.3,57.1,6.3,120.3s51.2,114.4,114.4,114.4s114.4-51.2,114.4-114.4S183.9,5.9,120.7,5.9z    M90.4,150.8c-16.8-16.8-16.8-43.9,0-60.7s43.9-16.8,60.7,0s16.8,43.9,0,60.7C134.3,167.4,107.1,167.4,90.4,150.8z M176.4,197.4   c-11.9,0-21.5-9.6-21.5-21.5s9.6-21.5,21.5-21.5s21.5,9.6,21.5,21.5C197.8,187.8,188.2,197.4,176.4,197.4z"/>
	<path class="st0" d="M221.9,207.3c-7.9,0-14.3,6.4-14.3,14.3c0,7.9,6.4,14.3,14.3,14.3c7.9,0,14.3-6.4,14.3-14.3   C236.2,213.6,229.8,207.3,221.9,207.3z"/>
</g>
</svg>
