<svg width="120" height="36" viewBox="0 0 120 36" fill="none" xmlns="http://www.w3.org/2000/svg">
<g clip-path="url(#clip0_1616_4172)">
<path d="M17.28 13.56C17.28 15.6 15.6 17.28 13.56 17.28C11.52 17.28 9.84 15.6 9.84 13.56C9.84 11.52 11.52 9.84 13.56 9.84C15.6 9.84 17.28 11.52 17.28 13.56ZM13.56 18.72C11.52 18.72 9.84 20.4 9.84 22.44C9.84 24.48 11.52 26.16 13.56 26.16C15.6 26.16 17.28 24.48 17.28 22.44C17.28 20.4 15.6 18.72 13.56 18.72ZM36 18C36 27.96 27.96 36 18 36C8.04 36 0 27.96 0 18C0 8.04 8.04 0 18 0C27.96 0 36 8.04 36 18ZM31.2 18C31.2 10.68 25.32 4.8 18 4.8C10.68 4.8 4.8 10.68 4.8 18C4.8 25.32 10.68 31.2 18 31.2C25.32 31.2 31.2 25.32 31.2 18ZM22.44 18.72C20.4 18.72 18.72 20.4 18.72 22.44C18.72 24.48 20.4 26.16 22.44 26.16C24.48 26.16 26.16 24.48 26.16 22.44C26.16 20.4 24.48 18.72 22.44 18.72ZM22.44 9.84C20.4 9.84 18.72 11.52 18.72 13.56C18.72 15.6 20.4 17.28 22.44 17.28C24.48 17.28 26.16 15.6 26.16 13.56C26.16 11.52 24.48 9.84 22.44 9.84ZM84.36 7.08C84.48 7.08 84.6 7.2 84.72 7.32V11.16C84.72 11.4 84.48 11.52 84.36 11.52H78C77.76 11.52 77.64 11.28 77.64 11.16V7.44C77.64 7.2 77.88 7.08 78 7.08H84.36ZM84.24 12.48H72C71.88 12.48 71.64 12.6 71.64 12.84L70.08 18.84L69.96 19.2L68.04 12.84C68.04 12.72 67.8 12.48 67.68 12.48H62.88C62.76 12.48 62.52 12.6 62.52 12.84L60.72 18.84L60.6 19.2L60.48 18.84L59.76 15.84L59.04 12.84C59.04 12.72 58.8 12.48 58.68 12.48H49.08V7.32C49.08 7.2 48.84 6.96 48.6 7.08L42.6 9C42.36 9 42.24 9.12 42.24 9.36V12.6H40.68C40.56 12.6 40.32 12.72 40.32 12.96V17.52C40.32 17.64 40.44 17.88 40.68 17.88H42.24V23.52C42.24 27.48 44.4 29.28 48.36 29.28C50.04 29.28 51.6 28.92 52.68 28.32V23.52C52.68 23.28 52.44 23.16 52.32 23.28C51.72 23.52 51.12 23.64 50.64 23.64C49.56 23.64 48.96 23.16 48.96 21.96V17.88H52.44C52.56 17.88 52.8 17.76 52.8 17.52V13.68L57.36 28.8C57.36 28.92 57.6 29.16 57.72 29.16H62.76C62.88 29.16 63.12 29.04 63.12 28.8L65.28 22.08L66.36 25.56L67.32 28.8C67.32 28.92 67.56 29.16 67.68 29.16H72.72C72.84 29.16 73.08 29.04 73.08 28.8L77.64 13.68V28.8C77.64 28.92 77.76 29.16 78 29.16H84.12C84.24 29.16 84.48 29.04 84.48 28.8V12.84C84.48 12.72 84.36 12.48 84.24 12.48ZM92.28 7.08H86.16C86.04 7.08 85.8 7.2 85.8 7.44V28.68C85.8 28.8 85.92 29.04 86.16 29.04H92.28C92.4 29.04 92.64 28.92 92.64 28.68V7.32C92.64 7.2 92.52 7.08 92.28 7.08ZM100.44 7.08H94.08C93.96 7.08 93.72 7.2 93.72 7.44V11.16C93.72 11.28 93.84 11.52 94.08 11.52H100.44C100.56 11.52 100.8 11.4 100.8 11.16V7.32C100.8 7.2 100.68 7.08 100.44 7.08ZM100.32 12.48H94.2C94.08 12.48 93.84 12.6 93.84 12.84V28.56C93.84 28.68 93.96 28.92 94.2 28.92H100.32C100.44 28.92 100.68 28.8 100.68 28.56V12.84C100.68 12.72 100.56 12.48 100.32 12.48ZM119.64 20.64C119.64 25.2 115.8 29.16 110.4 29.16C105.12 29.16 101.28 25.2 101.28 20.64C101.28 16.08 105.12 12.12 110.52 12.12C115.8 12.12 119.64 16.08 119.64 20.64ZM113.16 20.76C113.16 19.08 111.96 17.76 110.52 17.88C108.96 17.88 107.88 19.2 107.88 20.76C107.88 22.32 109.08 23.64 110.52 23.64C112.08 23.64 113.16 22.32 113.16 20.76Z" fill="white"/>
</g>
<defs>
<clipPath id="clip0_1616_4172">
<rect width="120" height="36" fill="white"/>
</clipPath>
</defs>
</svg>
