<svg width="200" height="54" viewBox="0 0 200 54" fill="none" xmlns="http://www.w3.org/2000/svg">
<g clip-path="url(#clip0_2860_4874)">
<path d="M140.525 5.76903e-05C135.516 5.76903e-05 130.176 3.88936 127.445 12.356V5.08863C127.445 2.28269 125.162 0 122.356 0C119.55 0 117.268 2.28269 117.268 5.08863L117.268 48.9114C117.268 51.7173 119.55 54 122.356 54C125.162 54 127.445 51.7173 127.445 48.9114V28.3281C127.445 18.4282 133.035 12.5562 141.62 10.6317C144.363 10.0166 146.068 7.94597 146.068 5.22749C146.068 2.1496 143.789 5.76903e-05 140.525 5.76903e-05Z" fill="white"/>
<path d="M172.857 0C157.97 0 145.857 12.1121 145.857 26.9999C145.857 41.8877 157.97 54 172.857 54C187.745 54 199.857 41.8879 199.857 26.9999C199.857 12.112 187.745 0 172.857 0ZM172.857 43.8266C163.579 43.8266 156.031 36.2781 156.031 27C156.031 17.7218 163.579 10.1734 172.857 10.1734C182.135 10.1734 189.684 17.7218 189.684 27C189.684 36.2782 182.135 43.8266 172.857 43.8266Z" fill="white"/>
<path d="M172.858 20.2749C169.15 20.2749 166.133 23.2916 166.133 27C166.133 30.7083 169.15 33.725 172.858 33.725C176.566 33.725 179.583 30.7083 179.583 27C179.583 23.2916 176.566 20.2749 172.858 20.2749Z" fill="white"/>
<path d="M82.4604 0C67.5663 0 55.4492 12.1121 55.4492 26.9999C55.4492 42.0224 67.2082 53.9998 83.473 53.9998C91.4117 53.9998 97.9652 51.5862 103.508 46.621C104.107 46.0218 105.127 44.7243 105.127 42.8702C105.127 40.0638 103.039 37.9474 100.27 37.9474C98.8411 37.9474 98.0348 38.3571 97.1247 39.065C93.122 42.3615 88.7242 43.966 83.6855 43.966C75.0914 43.966 68.0695 38.9102 66.1468 31.2893L103.464 31.2894C106.905 31.2762 109.399 28.5019 109.399 24.6831C109.399 15.4485 100.346 0 82.4604 0ZM66.1318 22.6958C67.9387 15.2432 74.3861 9.92578 82.4604 9.92578C90.418 9.92578 96.9232 14.6791 98.7732 22.6958H66.1318Z" fill="white"/>
<path d="M53.9994 5.02609C53.9994 2.24473 51.745 0 48.9736 0C47.6311 0 46.369 0.522789 45.4197 1.47214L26.9997 19.8916L8.57975 1.47214C7.63046 0.522847 6.36831 0 5.0258 0C2.25442 0 0 2.24473 0 5.02609C0 6.3686 0.522674 7.63075 1.47197 8.57993L19.8918 26.9993L1.47197 45.4186C0.522789 46.3679 0 47.63 0 48.9725C0 51.7528 2.24842 53.9986 5.02592 53.9986C6.36831 53.9986 7.63058 53.4758 8.57987 52.5265L26.9997 34.1071L45.4195 52.5265C46.3688 53.4758 47.6311 53.9986 48.9734 53.9986C51.7509 53.9986 53.9994 51.7528 53.9994 48.9725C53.9994 47.63 53.4766 46.3679 52.5274 45.4186L34.1076 26.9993L52.5274 8.57987C53.4767 7.63069 53.9994 6.36866 53.9994 5.02609Z" fill="white"/>
</g>
<defs>
<clipPath id="clip0_2860_4874">
<rect width="199.857" height="54" fill="white"/>
</clipPath>
</defs>
</svg>
