<svg fill="none" height="381" viewBox="0 0 443 381" width="443" xmlns="http://www.w3.org/2000/svg"><path d="m442.044 87.757v43.091c-.001.398-.16.78-.442 1.061-.282.282-.663.441-1.062.442h-1.07v224.477c0 6.212-2.47 12.169-6.865 16.561-4.396 4.393-10.357 6.86-16.573 6.861h-140.36c-3.077 0-6.125-.607-8.968-1.784s-5.426-2.902-7.602-5.077-3.902-4.757-5.079-7.599c-1.178-2.841-1.783-5.887-1.783-8.962v-216.604h-.774c-.281 0-.551-.111-.751-.309-.199-.198-.312-.467-.313-.748v-24.524c0-.139.028-.278.081-.407s.132-.246.231-.345c.098-.098.216-.176.345-.23.129-.053.267-.081.407-.081h.774v-9.237h-.781c-.295-.001-.577-.12-.785-.329-.209-.209-.325-.492-.324-.787v-24.1892c0-.2939.117-.5755.325-.7832.208-.2078.49-.3249.784-.3256h.781v-12.6098h-.794c-.129.0001-.258-.0252-.377-.0746-.12-.0494-.228-.1219-.32-.2133-.091-.0914-.164-.2-.213-.3195-.05-.1194-.075-.2475-.075-.3768v-13.2003c0-.2618.103-.5131.288-.6988.184-.1857.435-.2907.697-.2918h.794v-26.7287c.001-6.2101 2.469-12.1657 6.864-16.55693 4.394-4.3912 10.354-6.85824381 16.568-6.85847h140.36c6.215-.00002807 12.176 2.46673 16.571 6.85779 4.395 4.39101 6.865 10.34691 6.867 16.55761v62.8392h1.07c.399.0011.78.1597 1.062.4412s.441.6631.442 1.0612z" fill="#3f3d56"/><path d="m352.614 12.0107h-22.807c-.922 0-1.669.7467-1.669 1.6677v1.97c0 .921.747 1.6677 1.669 1.6677h22.807c.922 0 1.669-.7467 1.669-1.6677v-1.97c0-.921-.747-1.6677-1.669-1.6677z" fill="#e6e8ec"/><path d="m361.248 17.6726c1.663 0 3.011-1.3473 3.011-3.0092 0-1.662-1.348-3.0092-3.011-3.0092s-3.012 1.3472-3.012 3.0092c0 1.6619 1.349 3.0092 3.012 3.0092z" fill="#e6e8ec"/><path d="m428 26.6773v326.6517c-.002 3.892-1.568 7.623-4.355 10.374s-6.566 4.297-10.506 4.297h-134.278c-1.952.003-3.885-.374-5.689-1.11s-3.444-1.816-4.824-3.179c-1.381-1.363-2.476-2.982-3.222-4.763-.746-1.782-1.129-3.691-1.126-5.619v-326.6517c0-1.9275.384-3.8361 1.131-5.6169.747-1.7807 1.842-3.3988 3.222-4.7617s3.018-2.444 4.821-3.1816 3.736-1.1172 5.687-1.1171h20.098v2.5466c0 3.2052 1.289 6.2792 3.584 8.5456s5.407 3.5397 8.653 3.5397h68.29c3.245 0 6.358-1.2733 8.652-3.5397 2.295-2.2664 3.584-5.3403 3.585-8.5456v-2.5466h21.416c1.951-.0006 3.884.3786 5.688 1.116 1.803.7374 3.442 1.8184 4.822 3.1815 1.38 1.363 2.474 2.9813 3.221 4.7623s1.131 3.6898 1.13 5.6175z" fill="#fff"/><g fill="#e6e6e6"><path d="m414.75 230.913h-136.559v17.714h136.559z"/><path d="m414.75 262.404h-136.559v17.714h136.559z"/><path d="m414.75 293.896h-136.559v17.714h136.559z"/></g><path d="m399.65 72.7977c7.252 0 13.131-5.8747 13.131-13.1216 0-7.2468-5.879-13.1215-13.131-13.1215s-13.13 5.8747-13.13 13.1215c0 7.2469 5.878 13.1216 13.13 13.1216z" fill="#fcc300"/><path d="m414.477 103.633h-136.559v90.539h136.559z" fill="#e6e6e6"/><path d="m327.484 154.539c3.988 14.729 17.645 23.851 17.645 23.851s7.192-14.758 3.205-29.487-17.644-23.851-17.644-23.851-7.193 14.758-3.206 29.487z" fill="#3f3d56"/><path d="m333.343 151.374c10.941 10.643 12.278 27.004 12.278 27.004s-16.403-.895-27.344-11.538-12.277-27.005-12.277-27.005 16.402.895 27.343 11.539z" fill="#fcc300"/><path d="m363.758 154.539c-3.987 14.729-17.644 23.851-17.644 23.851s-7.193-14.758-3.206-29.487 17.645-23.851 17.645-23.851 7.192 14.758 3.205 29.487z" fill="#3f3d56"/><path d="m357.898 151.374c-10.941 10.643-12.277 27.004-12.277 27.004s16.403-.895 27.344-11.538 12.277-27.005 12.277-27.005-16.403.895-27.344 11.539z" fill="#fcc300"/><path d="m222 228.235s-8.127 13.412-5.225 17.043c2.903 3.631-21.775 3.722-21.775 3.722s3.707-19.51 2.616-24z" fill="#ffb8b8"/><path d="m209 233c-14.359 0-26-11.417-26-25.5s11.641-25.5 26-25.5 26 11.417 26 25.5-11.641 25.5-26 25.5z" fill="#2f2e41"/><path d="m148 347v15l-15-3.125 1.25-10.625z" fill="#ffb8b8"/><path d="m93.8713 350-42.8713 7.028 10.8778 15.972s30.0739-10.222 37.7523-10.222c7.6789 0-5.7588-12.778-5.7588-12.778z" fill="#ffb8b8"/><path d="m191.255 319.111s-32.273-36.951-42.6-35.039c-10.328 1.911-14.846 13.378-14.846 13.378l-5.809 56.701s20.655 1.911 20.655 0c0-1.912 3.872-42.685 3.872-42.685s30.337 66.257 46.473 22.298z" fill="#d0cde1"/><path d="m243 343.674s-.639 33.265-19.823 35.17c-19.184 1.904-40.286-14.217-40.286-14.217l-34.531-16.426s-40.926 21.506-53.0753 15.791c0 0-12.7892-13.334-4.4762-17.144 8.3129-3.809.6394 0 .6394 0l49.2381-25.398s9.592-2.54 26.218 4.445c16.626 6.984 39.007 10.159 39.007 10.159z" fill="#d0cde1"/><path d="m211 235c-10.493 0-19-8.507-19-19s8.507-19 19-19 19 8.507 19 19-8.507 19-19 19z" fill="#ffb8b8"/><path d="m183.443 269.153 1.269 26.761s-.635 35.045 5.077 37.594c2.888 1.287 8.689 3.874 14.052 6.703 4.024 2.116 7.8 4.359 9.908 6.289.558.477 1.04 1.038 1.428 1.663 2.538 4.461 19.04 3.823 22.848.637 3.808-3.185 1.269 3.824 4.443 5.098 3.072 1.236 7.33-8.87 4.722-23.958-.083-.503-.178-1.013-.28-1.529-2.913-14.624 1.663-49.65.959-63.183-.041-1.034-.149-2.064-.324-3.084-1.904-10.195-26.199-30.942-30.744-22.104-5.597 10.909-18.456.943-20.665-4.021-12.693-.637-17.136 14.656-17.136 14.656z" fill="#fcc300"/><path d="m131.894 357s10.246 3.728 13.448 3.107 6.403 1.864 6.403 5.592c0 3.729 3.843 12.428-1.921 13.05-5.763.621-29.456-.622-34.579 1.242 0 0-23.0523.622-21.1313-8.699 1.9211-9.321 11.5263-8.699 11.5263-8.699s26.254-1.243 26.254-5.593z" fill="#2f2e41"/><path d="m57.0632 358.833s-1.2723-3.833-3.1809-3.833c-1.9085 0-17.1768 2.556-19.0854 1.917-1.9085-.639-24.1748-1.917-20.3577 8.944s16.5406 12.139 16.5406 12.139 22.9025-2.556 26.0835-1.917c3.1809.639 14.6321 0 12.7236-3.194-1.9086-3.195-13.996-8.945-12.7237-14.056z" fill="#2f2e41"/><path d="m115.37 266.691-3.346 14.469c-.037.161-.031.33.017.488l15.177 49.724c.06.197.182.366.347.479.165.114.362.165.558.145.196-.021.38-.111.52-.256.141-.145.23-.336.252-.542l2.099-19.37c.014-.129.002-.259-.036-.382l-13.931-44.822c-.058-.187-.173-.349-.327-.462-.153-.112-.338-.169-.526-.161-.187.007-.367.079-.512.203-.145.125-.248.296-.292.487z" fill="#3f3d56"/><path d="m116.187 268-3.187 12.467 13.812 45.533 3.188-14.093z" fill="#fff"/><path d="m186.899 335.418c-.541 1.592-56.197-.531-56.738-1.062-.471-.664-.869-1.376-1.188-2.123-.508-1.062-.973-2.123-.973-2.123l2.161-17.188 55.117-1.922s1.378 14.566 1.659 21.233c.095 1.06.083 2.127-.038 3.185z" fill="#3f3d56"/><path d="m137.067 315-1.067 15h24v-15z" fill="#000" opacity=".1"/><path d="m168.154 320.027-.154-.027.725 6h14.275v-5.973z" fill="#000" opacity=".1"/><path d="m186.899 335.382c-.54 1.691-56.171-.564-56.711-1.127-.471-.706-.869-1.462-1.188-2.255h57.937c.095 1.126.083 2.259-.038 3.382z" fill="#000" opacity=".1"/><path d="m204.5 186c-4.142 0-7.5-3.134-7.5-7s3.358-7 7.5-7 7.5 3.134 7.5 7-3.358 7-7.5 7z" fill="#2f2e41"/><path d="m207.088 187s7.313 12.209 24.318 16.78.139 30.22.139 30.22 6.133-9.327-2.713-19.205c-8.846-9.877-23.082-16.63-21.744-27.795z" fill="#2f2e41"/><path d="m203.35 340.315c1.587 2.957 3.45 6.029 3.765 7.27.212.842 2.564.354 6.265-1.02 7.422-2.767 20.286-9.105 32.289-15.444.553-.289 1.078-.628 1.568-1.013-.084-.5-.18-1.007-.283-1.52-2.949-14.532 1.683-49.34.97-62.79l-5.468-1.798-10.923 10.131v43.059s-28.273 15.197-30.201 16.464c-.983.646.373 3.59 2.018 6.661z" fill="#000" opacity=".1"/><path d="m179.93 306.232-17.26 8.695s-10.229-10.558-16.622-2.485c-6.392 8.074 18.539 10.558 18.539 10.558s21.736-4.968 22.375-11.8c.639-6.831-7.032-4.968-7.032-4.968z" fill="#ffb8b8"/><path d="m208.946 329.407-10.219 2.521s-11.497-13.866-23.632-8.824 15.329 15.127 15.329 15.127 14.69 7.564 20.438 1.261-1.916-10.085-1.916-10.085z" fill="#ffb8b8"/><path d="m186.294 245c-.647.643-7.765 5.785-7.765 5.785s-1.941 24.424.647 29.566c2.589 5.142 4.53 5.142 2.589 7.713s-4.53.642-1.941 5.142c2.588 4.499 5.176 3.856 3.235 5.784s-1.294 2.571-1.294 2.571l-7.765 6.428s4.764 7.537 10.794 6.982 11.206-29.478 11.206-29.478z" fill="#fcc300"/><path d="m242.153 261 5.74 1.9s15.309 55.723-2.551 65.221-37.634 18.997-38.272 16.464-7.654-12.665-5.74-13.931c1.913-1.266 29.979-16.464 29.979-16.464v-43.059z" fill="#fcc300"/><path d="m233.718 284 1.282 30.246-34 15.754 31.434-15.754z" fill="#000" opacity=".1"/></svg>