<svg fill="none" height="86" viewBox="0 0 172 86" width="172" xmlns="http://www.w3.org/2000/svg"><g fill="#fa0c00"><path d="m33.8733 26h-14.8733v35z"/><path d="m44.3379 26h14.8539v35z"/><path d="m39.1051 38.8997 9.4666 22.1002h-6.2109l-2.8293-7.0362h-6.928z"/><path d="m83.4558 48.2577 1.7537 4.9482c.0582.1239.1454.1812.3004.1812h3.372c.1841 0 .2131-.0859.1841-.267l-6.9668-19.0398c-.029-.1525-.0581-.1811-.2131-.1811h-4.1859c-.1163 0-.1841.0858-.1841.2097-.0581 1.0011-.1453 1.3062-.2713 1.6018l-6.2109 17.3808c-.0291.2097.0387.2956.2131.2956h3.0134c.1842 0 .2714-.0573.3392-.2384l1.6569-4.891zm-6.2401-3.2321c.9108-2.7077 2.1123-6.1782 2.5968-8.1613h.0291c.6007 2.0785 2.0154 6.1972 2.6549 8.1613z"/><path d="m98.0224 53.6826c1.8119 0 3.7406-.3242 5.6976-1.1537.155-.0572.184-.1239.184-.2669-.058-.5339-.126-1.3062-.126-1.8973v-17.9243c0-.1144 0-.1716-.145-.1716h-3.285c-.126 0-.184.0572-.184.2098v6.0732c-.5138-.0572-.8723-.0858-1.2986-.0858-5.3002 0-8.5558 3.4419-8.5558 7.7418 0 4.9864 3.3428 7.4748 7.7128 7.4748zm2.1416-3.3179c-.5429.1716-1.1436.2383-1.754.2383-2.403 0-4.37-1.3347-4.37-4.5764 0-2.8698 2.0251-4.5668 4.7091-4.5668.5426 0 1.0174.0572 1.4149.2097z"/><path d="m114.383 38.4661c-4.525 0-7.325 3.4132-7.325 7.6273 0 3.766 2.228 7.5892 7.257 7.5892 4.254 0 7.238-3.0795 7.238-7.6845 0-4.0616-2.529-7.532-7.17-7.532zm-.184 2.9937c2.558 0 3.643 2.1643 3.643 4.6336 0 3.051-1.599 4.5669-3.459 4.5669-2.297 0-3.653-1.8973-3.653-4.6336 0-2.8126 1.444-4.5669 3.469-4.5669z"/><path d="m124.949 32.2688c-.126 0-.214.0572-.214.2098v20.2887c0 .0858.088.2384.214.267 1.443.4385 2.955.6483 4.515.6483 4.467 0 8.808-2.7268 8.808-8.2185 0-3.9757-2.772-6.9981-7.113-6.9981-.998 0-1.928.1526-2.742.4195l-.038-6.3783c0-.2098-.059-.2384-.272-.2384zm9.611 13.5576c0 3.2893-2.286 4.8338-4.757 4.8338-.514 0-.969-.0286-1.386-.1525v-8.657c.475-.1812 1.047-.3337 2.103-.3337 2.384 0 4.04 1.4873 4.04 4.3094z"/><path d="m150.529 46.8943c1.473 0 2.684-.0286 3.101-.124.155-.0286.213-.0858.242-.2097.088-.3242.126-1.0011.126-1.8306 0-2.8221-1.724-6.2639-6.182-6.2639-4.554 0-7.083 3.6516-7.083 7.7703 0 3.6516 1.958 7.4462 7.442 7.4462 2.054 0 3.382-.3241 4.525-.8581.116-.0572.174-.1525.174-.3241v-2.4694c0-.143-.087-.1716-.174-.1144-1.143.4767-2.384.7151-3.74.7151-3.072 0-4.467-1.6685-4.554-3.7374zm-6.123-2.5552c.242-1.4492 1.172-3.0223 3.255-3.0223 2.297 0 2.898 1.8973 2.898 2.7554v.2383c-.126.0286-.514.0286-1.657.0286z"/></g></svg>