<svg width="172" height="86" viewBox="0 0 172 86" fill="none" xmlns="http://www.w3.org/2000/svg">
<g clip-path="url(#clip0_3784_3313)">
<path d="M67.7357 36.2418C67.7357 37.2583 67.8456 38.0825 68.0379 38.6869C68.2577 39.2913 68.5324 39.9506 68.917 40.6649C69.0544 40.8847 69.1093 41.1044 69.1093 41.2968C69.1093 41.5715 68.9445 41.8462 68.5873 42.1209L66.8566 43.2748C66.6093 43.4396 66.3621 43.522 66.1423 43.522C65.8676 43.522 65.5928 43.3847 65.3181 43.1374C64.9335 42.7253 64.6038 42.2858 64.3291 41.8462C64.0544 41.3792 63.7796 40.8572 63.4774 40.2253C61.3346 42.7528 58.6423 44.0165 55.4005 44.0165C53.0928 44.0165 51.2522 43.3572 49.906 42.0385C48.5599 40.7198 47.873 38.9616 47.873 36.7638C47.873 34.4286 48.6972 32.533 50.373 31.1044C52.0489 29.6759 54.2741 28.9616 57.1038 28.9616C58.0379 28.9616 58.9994 29.044 60.0159 29.1814C61.0324 29.3187 62.0763 29.5385 63.1752 29.7858V27.7803C63.1752 25.6924 62.7357 24.2363 61.884 23.3847C61.0049 22.533 59.5214 22.1209 57.406 22.1209C56.4445 22.1209 55.4555 22.2308 54.439 22.4781C53.4225 22.7253 52.4335 23.0275 51.4719 23.4121C51.0324 23.6044 50.7027 23.7143 50.5104 23.7693C50.3181 23.8242 50.1807 23.8517 50.0708 23.8517C49.6862 23.8517 49.4939 23.577 49.4939 23V21.6539C49.4939 21.2143 49.5489 20.8847 49.6862 20.6924C49.8236 20.5 50.0708 20.3077 50.4555 20.1154C51.417 19.6209 52.5708 19.2088 53.917 18.8792C55.2632 18.522 56.6917 18.3572 58.2027 18.3572C61.4719 18.3572 63.8621 19.0989 65.4005 20.5825C66.9115 22.066 67.6807 24.3187 67.6807 27.3407V36.2418H67.7357ZM56.5818 40.4176C57.4884 40.4176 58.4225 40.2528 59.4115 39.9231C60.4005 39.5935 61.2796 38.9891 62.0214 38.1649C62.461 37.6429 62.7906 37.066 62.9555 36.4066C63.1203 35.7473 63.2302 34.9506 63.2302 34.0165V32.8627C62.4335 32.6704 61.5818 32.5055 60.7027 32.3957C59.8236 32.2858 58.9719 32.2308 58.1203 32.2308C56.2796 32.2308 54.9335 32.588 54.0269 33.3297C53.1203 34.0715 52.6807 35.1154 52.6807 36.4891C52.6807 37.7803 53.0104 38.7418 53.6972 39.4011C54.3566 40.088 55.3181 40.4176 56.5818 40.4176ZM78.6423 43.3847C78.1478 43.3847 77.8181 43.3022 77.5983 43.1099C77.3785 42.9451 77.1862 42.5605 77.0214 42.0385L70.5654 20.8022C70.4005 20.2528 70.3181 19.8957 70.3181 19.7033C70.3181 19.2638 70.5379 19.0165 70.9774 19.0165H73.6697C74.1917 19.0165 74.5489 19.0989 74.7412 19.2913C74.961 19.4561 75.1258 19.8407 75.2906 20.3627L79.906 38.5495L84.1917 20.3627C84.3291 19.8132 84.4939 19.4561 84.7137 19.2913C84.9335 19.1264 85.3181 19.0165 85.8126 19.0165H88.0104C88.5324 19.0165 88.8895 19.0989 89.1093 19.2913C89.3291 19.4561 89.5214 19.8407 89.6313 20.3627L93.9719 38.7693L98.7247 20.3627C98.8895 19.8132 99.0818 19.4561 99.2741 19.2913C99.4939 19.1264 99.8511 19.0165 100.346 19.0165H102.901C103.34 19.0165 103.587 19.2363 103.587 19.7033C103.587 19.8407 103.56 19.9781 103.532 20.1429C103.505 20.3077 103.45 20.5275 103.34 20.8297L96.7192 42.066C96.5544 42.6154 96.3621 42.9726 96.1423 43.1374C95.9225 43.3022 95.5654 43.4121 95.0983 43.4121H92.7357C92.2137 43.4121 91.8566 43.3297 91.6368 43.1374C91.417 42.9451 91.2247 42.588 91.1148 42.0385L86.8566 24.3187L82.6258 42.011C82.4884 42.5605 82.3236 42.9176 82.1038 43.1099C81.884 43.3022 81.4994 43.3847 81.0049 43.3847H78.6423ZM113.944 44.1264C112.516 44.1264 111.087 43.9616 109.714 43.6319C108.34 43.3022 107.269 42.9451 106.554 42.533C106.115 42.2858 105.813 42.011 105.703 41.7638C105.593 41.5165 105.538 41.2418 105.538 40.9946V39.5935C105.538 39.0165 105.758 38.7418 106.17 38.7418C106.335 38.7418 106.499 38.7693 106.664 38.8242C106.829 38.8792 107.076 38.9891 107.351 39.0989C108.285 39.511 109.302 39.8407 110.373 40.0605C111.472 40.2803 112.543 40.3902 113.642 40.3902C115.373 40.3902 116.719 40.088 117.653 39.4836C118.587 38.8792 119.082 38 119.082 36.8737C119.082 36.1044 118.835 35.4726 118.34 34.9506C117.846 34.4286 116.912 33.9616 115.565 33.522L111.582 32.2858C109.576 31.6539 108.093 30.7198 107.186 29.4836C106.28 28.2748 105.813 26.9286 105.813 25.5C105.813 24.3462 106.06 23.3297 106.554 22.4506C107.049 21.5715 107.708 20.8022 108.532 20.1979C109.357 19.566 110.291 19.0989 111.39 18.7693C112.488 18.4396 113.642 18.3022 114.851 18.3022C115.455 18.3022 116.087 18.3297 116.692 18.4121C117.324 18.4946 117.901 18.6044 118.477 18.7143C119.027 18.8517 119.549 18.9891 120.043 19.1539C120.538 19.3187 120.922 19.4836 121.197 19.6484C121.582 19.8682 121.857 20.088 122.021 20.3352C122.186 20.555 122.269 20.8572 122.269 21.2418V22.533C122.269 23.1099 122.049 23.4121 121.637 23.4121C121.417 23.4121 121.06 23.3022 120.593 23.0825C119.027 22.3682 117.269 22.011 115.318 22.011C113.752 22.011 112.516 22.2583 111.664 22.7803C110.813 23.3022 110.373 24.0989 110.373 25.2253C110.373 25.9946 110.648 26.6539 111.197 27.1759C111.747 27.6979 112.763 28.2198 114.219 28.6869L118.12 29.9231C120.098 30.555 121.527 31.4341 122.379 32.5605C123.23 33.6869 123.642 34.9781 123.642 36.4066C123.642 37.588 123.395 38.6594 122.928 39.5935C122.433 40.5275 121.774 41.3517 120.922 42.011C120.071 42.6978 119.054 43.1924 117.873 43.5495C116.637 43.9341 115.346 44.1264 113.944 44.1264Z" fill="#252F3E"/>
<path fill-rule="evenodd" clip-rule="evenodd" d="M119.137 57.4779C110.099 64.1537 96.9668 67.6977 85.6756 67.6977C69.8514 67.6977 55.5932 61.846 44.8239 52.1207C43.9723 51.3515 44.7415 50.3076 45.758 50.912C57.4064 57.6702 71.7745 61.7636 86.6371 61.7636C96.6646 61.7636 107.681 59.6757 117.818 55.39C119.329 54.7032 120.621 56.379 119.137 57.4779Z" fill="#FF9900"/>
<path fill-rule="evenodd" clip-rule="evenodd" d="M122.9 53.1922C121.747 51.7087 115.263 52.4779 112.324 52.8351C111.444 52.945 111.307 52.1757 112.104 51.5988C117.269 47.9724 125.758 49.0164 126.747 50.2252C127.736 51.4614 126.472 59.9505 121.637 64.0164C120.895 64.6483 120.181 64.3186 120.51 63.4944C121.609 60.7746 124.054 54.6483 122.9 53.1922Z" fill="#FF9900"/>
</g>
<defs>
<clipPath id="clip0_3784_3313">
<rect width="83.5165" height="50" fill="white" transform="translate(44 18)"/>
</clipPath>
</defs>
</svg>
