<svg fill="none" height="86" viewBox="0 0 172 86" width="172" xmlns="http://www.w3.org/2000/svg" xmlns:xlink="http://www.w3.org/1999/xlink"><linearGradient id="a" gradientUnits="userSpaceOnUse" x1="9.09072" x2="3.61778" y1="43.6465" y2="53.1098"><stop offset="0" stop-color="#0052cc"/><stop offset=".92" stop-color="#2684ff"/></linearGradient><clipPath id="b"><path d="m0 32h172v21.7035h-172z"/></clipPath><g clip-path="url(#b)"><path d="m6.2559 42.0475c-.06258-.0822-.14528-.1467-.24008-.1874-.0948-.0408-.19848-.0563-.30101-.045-.10253.0112-.20043.0488-.2842.1091s-.15059.1412-.19397.235l-5.1695545 10.3602c-.04722.0943-.06960773.1991-.06503849.3045.00456924.1055.03594379.208.09114639.2978s.1324016.1641.2242716.2156c.09187.0516.195363.0787.300658.079h7.198517c.11653.0022.23115-.0299.32966-.0923.09852-.0624.17659-.1524.22456-.2588 1.55119-3.1917.61156-8.0973-2.11496-11.0177z" fill="url(#a)"/><path d="m10.0493 32.6384c-1.28869 1.9865-2.03971 4.2748-2.17932 6.64-.1396 2.3653.337 4.7263 1.38304 6.8512l3.48778 6.9355c.0509.1031.1293.1899.2267.2508.0973.0609.2096.0934.3243.094h7.1986c.1009-.0084.1983-.0407.2843-.0943.0859-.0537.1579-.127.2099-.2141.052-.087.0825-.1852.0891-.2865.0065-.1012-.0111-.2026-.0514-.2956l-9.9219-19.881c-.0475-.0993-.122-.1831-.215-.2417-.093-.0587-.2007-.0898-.3105-.0898-.1099 0-.2175.0311-.3105.0898-.093.0586-.1676.1424-.2151.2417z" fill="#2684ff"/><g fill="#0052cc"><path d="m156.877 36.0408v17.3755h3.695v-13.2519l1.557 3.5173 5.227 9.7346h4.644v-17.3755h-3.695v11.2124l-1.398-3.2524-4.198-7.96z"/><path d="m133.377 36.0408h-4.039v17.3755h4.039z"/><path d="m124.678 48.2776c0-3.0417-1.609-4.4684-6.151-5.4482-2.507-.5554-3.112-1.1107-3.112-1.915 0-1.0054.895-1.4299 2.548-1.4299 2.007 0 3.988.6096 5.861 1.4554v-3.9737c-1.798-.8205-3.757-1.2273-5.733-1.1905-4.488 0-6.81 1.9565-6.81 5.1578 0 2.5534 1.188 4.5992 5.832 5.4993 2.771.5809 3.354 1.0309 3.354 1.9565s-.583 1.4809-2.548 1.4809c-2.359-.0432-4.671-.6692-6.731-1.8224v4.1779c1.399.6862 3.246 1.4522 6.689 1.4522 4.855 0 6.782-2.1671 6.782-5.3939"/><path d="m107.866 48.2776c0-3.0417-1.592-4.4684-6.147-5.4482-2.5067-.5554-3.1151-1.1107-3.1151-1.915 0-1.0054.8983-1.4299 2.5481-1.4299 2.007 0 3.985.6096 5.858 1.4554v-3.9737c-1.799-.8205-3.758-1.2273-5.734-1.1905-4.4844 0-6.8096 1.9565-6.8096 5.1578 0 2.5534 1.1881 4.5992 5.8356 5.4993 2.771.5809 3.35 1.0309 3.35 1.9565s-.579 1.4809-2.548 1.4809c-2.3586-.0432-4.6704-.6692-6.73-1.8224v4.1779c1.4015.6862 3.2489 1.4522 6.689 1.4522 4.857 0 6.781-2.1671 6.781-5.3939"/><path d="m63.1177 36.0408v17.3755h8.3006l1.3059-3.7566h-5.5422v-13.6189z"/><path d="m46.7173 36.0408v3.7534h4.4879v13.6221h4.0643v-13.6221h4.8033v-3.7534z"/><path d="m40.8247 36.0408h-5.3256l-6.0518 17.3755h4.6344l.86-2.9268c2.1107.6216 4.3552.6216 6.4659 0l.8568 2.9268h4.6186zm-2.6628 11.3177c-.7546.0011-1.5055-.1064-2.2296-.3192l2.2296-7.5834 2.2297 7.5834c-.7242.2126-1.4751.3201-2.2297.3192z"/><path d="m85.7261 36.0408h-5.3256l-6.0519 17.3755h4.6186l.86-2.9268c2.1106.6216 4.3552.6216 6.4659 0l.8568 2.9268h4.6185zm-2.6628 11.3177c-.7546.0013-1.5056-.1061-2.2296-.3192l2.2296-7.5834 2.2296 7.5834c-.724.2131-1.475.3206-2.2296.3192z"/><path d="m147.927 36.0408h-5.326l-6.052 17.3755h4.619l.857-2.9268c2.11.6216 4.355.6216 6.466 0l.856 2.9268h4.622zm-2.663 11.3177c-.755.0009-1.505-.1066-2.23-.3192l2.23-7.5834 2.23 7.5834c-.725.2126-1.475.3201-2.23.3192z"/></g></g></svg>