<svg fill="none" height="86" viewBox="0 0 172 86" width="172" xmlns="http://www.w3.org/2000/svg" xmlns:xlink="http://www.w3.org/1999/xlink"><clipPath id="a"><path d="m0 25h172v36.9481h-172z"/></clipPath><g clip-path="url(#a)"><path d="m0 43.4715c0 7.9044 4.90009 14.643 11.7979 17.2892v-34.5758c-6.89908 2.6462-11.7979 9.3835-11.7979 17.2866zm18.2689-18.4715c-.5058 0-1.0065.0178-1.5021.0548v1.2995h.093c6.9628.051 12.5688 5.42 12.5191 11.9929-.0459 6.5424-5.6875 11.8107-12.6095 11.8043v11.738c.493.0421.995.0586 1.5008.0586 10.0856 0 18.2702-8.2725 18.2702-18.4766 0-10.2028-8.1846-18.4715-18.2702-18.4715zm35.074 22.783h-5.8862l-1.032 3.0794h-2.594l5.0428-14.7792h3.1087l5.002 14.7792h-2.6144zm-.7428-2.2284-2.2028-6.5551-2.2042 6.5551h4.4083zm12.1229-5.4734h2.5124v10.7825h-2.5112v-1.2486h-.0828c-.6791.9365-1.6053 1.52-3.0259 1.52-2.1608 0-3.561-1.5811-3.561-3.9955v-7.0571h2.5124v6.7857c0 1.2078.5759 2.0818 1.9557 2.0818 1.4397 0 2.2029-1.0192 2.2029-2.2487v-6.6188h-.0025zm6.7347 7.6597c.1656.9556.8027 1.5404 2.1405 1.5404 1.2358 0 1.9366-.5224 1.9366-1.4142 0-.7288-.2676-1.1671-1.4206-1.3123l-1.915-.2293c-2.1812-.2498-3.0871-1.292-3.0871-2.9763 0-2.0602 1.729-3.5368 4.4045-3.5368 2.7992 0 4.1586 1.6435 4.2835 3.2667h-2.4717c-.1236-.8727-.7403-1.4142-1.8513-1.4142-1.153 0-1.8945.5415-1.8945 1.3747 0 .6867.3695 1.083 1.6053 1.2282l1.8946.2294c2.0996.2484 2.924 1.2282 2.924 3.0182 0 2.2271-1.915 3.6197-4.4262 3.6197-2.9023 0-4.4465-1.4346-4.6503-3.3929h2.5277zm9.2829-5.7868h-2.0372v-1.8729h2.0602v-3.9968h2.4895v3.9955h2.45v1.8729h-2.45v5.5359c0 .9797.4931 1.376 1.4422 1.376h1.0282v1.9977h-1.4613c-2.3685 0-3.5216-1.0829-3.5216-3.2055zm9.6129 8.9083h-2.5125v-10.7812h2.5125v1.6245h.0828c.5148-1.1862 1.3786-1.6245 2.2844-1.6245h1.2155v2.2488h-1.111c-1.6677 0-2.4704.8103-2.4704 2.7902v5.7422zm7.6152.2714c-2.0373 0-3.4158-1.2078-3.4158-3.2259 0-2.1214 1.6053-2.9342 3.3559-3.1636l2.2642-.293c.864-.0816 1.07-.4778 1.07-1.1021 0-.9173-.598-1.6232-1.8525-1.6232-1.2766 0-1.9544.7072-2.0589 1.7073h-2.552c.0612-1.8334 1.585-3.6209 4.5485-3.6209 2.7989 0 4.4469 1.6639 4.4469 4.1203v5.0785c0 .6676.103 1.3327.226 1.8525h-2.594c-.068-.4614-.102-.9273-.102-1.3938h-.062c-.555.9339-1.7302 1.6639-3.2743 1.6639zm1.9365-5.2237-1.1122.2484c-1.0499.2294-1.7073.6677-1.7073 1.6436 0 .981.5746 1.4779 1.6869 1.4779 1.2984 0 2.4904-.8523 2.4904-2.2678v-1.6869c-.308.3134-.802.4587-1.359.5848zm6.0718 2.0385v-12.6133h2.512v12.4477c0 .6663.289 1.083 1.029 1.083h.824v1.9964h-1.317c-1.957 0-3.048-1.1224-3.048-2.9138zm8.851-11.2399c0 .8728-.68 1.5404-1.544 1.5404-.203.0031-.405-.0347-.594-.111-.188-.0764-.36-.1898-.504-.3335s-.257-.3149-.334-.5033c-.077-.1885-.115-.3904-.112-.5938 0-.8728.68-1.5404 1.544-1.5404s1.544.6676 1.544 1.5416zm-.289 3.3725v10.7825h-2.512v-10.7812h2.512zm5.169 11.0526c-2.037 0-3.417-1.2078-3.417-3.2259 0-2.1214 1.605-2.9342 3.357-3.1636l2.263-.293c.865-.0816 1.07-.4778 1.07-1.1021 0-.9173-.596-1.6232-1.851-1.6232-1.278 0-1.956.7072-2.059 1.7073h-2.553c.062-1.8334 1.586-3.6209 4.548-3.6209 2.801 0 4.448 1.6639 4.448 4.1203v5.0785c0 .6676.102 1.3327.227 1.8525h-2.594c-.069-.4614-.103-.9273-.102-1.3938h-.064c-.556.9339-1.729 1.6639-3.273 1.6639zm1.935-5.2237-1.11.2484c-1.052.2294-1.709.6677-1.709 1.6436 0 .981.577 1.4779 1.688 1.4779 1.297 0 2.491-.8523 2.491-2.2678v-1.6869c-.31.3134-.805.4587-1.36.5848zm16.467-9.8257c3.149 0 5.146 1.8092 5.146 4.7855 0 3.0399-2.017 4.8287-5.146 4.8287h-3.686v5.1651h-2.654v-14.7793zm2.45 4.788c0-1.8321-1.111-2.6016-2.943-2.6016h-3.191v5.2453h3.191c1.832 0 2.943-.73 2.943-2.6437zm8.358-1.0422c3.088 0 5.147 2.2284 5.147 5.662s-2.059 5.6403-5.147 5.6403c-3.087 0-5.146-2.2067-5.146-5.6403s2.059-5.662 5.146-5.662zm2.592 5.2263c0-2.0194-.988-3.2056-2.594-3.2056s-2.594 1.1862-2.594 3.2056v.874c0 2.0181.988 3.1852 2.594 3.1852s2.594-1.1671 2.594-3.1852zm6.197 2.6844c.165.9556.802 1.5404 2.141 1.5404 1.236 0 1.935-.5224 1.935-1.4142 0-.7288-.267-1.1671-1.419-1.3123l-1.915-.2293c-2.181-.2498-3.088-1.292-3.088-2.9763 0-2.0602 1.729-3.5368 4.405-3.5368 2.799 0 4.158 1.6435 4.283 3.2667h-2.471c-.124-.8727-.741-1.4142-1.852-1.4142-1.153 0-1.895.5415-1.895 1.3747 0 .6867.371 1.083 1.607 1.2282l1.894.2294c2.099.2484 2.923 1.2282 2.923 3.0182 0 2.2271-1.915 3.6197-4.425 3.6197-2.904 0-4.448-1.4346-4.652-3.3929h2.529zm9.283-5.7868h-2.037v-1.8729h2.059v-3.9968h2.49v3.9955h2.45v1.8729h-2.45v5.5359c0 .9797.494 1.376 1.442 1.376h1.028v1.9977h-1.461c-2.368 0-3.521-1.0829-3.521-3.2055z" fill="#dc1928"/></g></svg>