<svg fill="none" height="86" viewBox="0 0 172 86" width="172" xmlns="http://www.w3.org/2000/svg"><path d="m27.6586 27c-8.6578 0-15.6586 7.0819-15.6586 15.84s7.0008 15.84 15.6586 15.84 15.6586-7.0819 15.6586-15.84c.0415-8.7581-7.0008-15.84-15.6586-15.84zm0 30.2133c-7.8293 0-14.2087-6.4533-14.2087-14.3733s6.3794-14.3733 14.2087-14.3733 14.2088 6.4533 14.2088 14.3733-6.3795 14.3733-14.2088 14.3733z" fill="#606061"/><path d="m34.1625 32.9504h-1.077v5.4477h-10.7705v-5.4477h-1.1185c-3.1897 2.1372-5.261 5.7829-5.261 9.8896 0 4.1485 2.1127 7.7523 5.261 9.8895h1.1185v-5.4476h10.7705v5.4476h1.077c3.1897-2.1372 5.261-5.741 5.261-9.8895 0-4.1067-2.1127-7.7524-5.261-9.8896zm-13.3388 17.6419c-2.1541-1.9276-3.4383-4.7352-3.4383-7.7523 0-3.0172 1.2842-5.8248 3.4383-7.7524zm12.2618-4.7771h-10.7705v-5.9505h10.7705zm1.4498 4.7771v-3.2685-8.9257-3.2686c2.1541 1.9276 3.4383 4.7352 3.4383 7.7524 0 2.9752-1.2842 5.7409-3.4383 7.7104z" fill="#606061"/><g clip-rule="evenodd" fill="#ea0016" fill-rule="evenodd"><path d="m74.9361 42.379s3.0142-1.0057 3.0142-4.2743c0-3.8552-2.8395-5.7409-6.7711-5.7409h-10.2222v20.9104h11.1396c3.4074 0 6.8147-2.3047 6.8147-5.8247-.0436-4.1905-3.9752-5.0705-3.9752-5.0705zm-8.6496-5.699h3.9753c1.2232 0 2.0532.7962 2.0532 1.9695 0 .9219-.7863 1.9276-2.1842 1.9276h-3.8879v-3.8971zm4.019 12.1942h-3.9753v-4.1066h3.8879c1.9658 0 2.8832.8381 2.8832 2.0533-.0437 1.5086-1.1795 2.0533-2.7958 2.0533z"/><path d="m90.6629 31.8191c-6.2905 0-10.0037 4.819-10.0037 10.9371 0 6.16 3.7132 10.9791 10.0037 10.9791 6.3343 0 10.0041-4.8191 10.0041-10.9791.043-6.1181-3.6261-10.9371-10.0041-10.9371zm0 16.9295c-3.1016 0-4.6305-2.64-4.6305-5.9505 0-3.2685 1.5289-5.9504 4.6305-5.9504s4.6743 2.64 4.6743 5.9504c0 3.2686-1.5727 5.9505-4.6743 5.9505z"/><path d="m112.33 40.5352-.786-.1676c-1.879-.3772-3.32-.8381-3.32-2.0953 0-1.3828 1.398-1.9276 2.665-1.9276 1.834 0 3.407.88 4.455 1.9276l3.364-3.2266c-1.529-1.6762-4.063-3.2686-7.95-3.2686-4.544.0419-8.038 2.5143-8.038 6.621 0 3.7295 2.839 5.6152 6.246 6.2857l.787.1676c2.839.5866 3.888 1.0057 3.888 2.3047 0 1.2153-1.18 2.0534-2.927 2.0534-2.141 0-4.063-.88-5.504-2.6819l-3.495 3.2685c1.922 2.1791 4.325 3.9391 9.086 3.9391 4.107 0 8.431-2.221 8.431-6.8305-.043-4.819-3.8-5.7409-6.902-6.3695z"/><path d="m131.333 48.7485c-2.403 0-4.936-1.9277-4.936-6.0762 0-3.7296 2.315-5.8248 4.761-5.8248 1.922 0 3.058.88 3.976 2.3467l4.412-2.8076c-2.185-3.1848-4.806-4.5258-8.388-4.5258-6.596 0-10.135 4.9029-10.135 10.8115 0 6.2019 3.976 11.1047 10.092 11.1047 4.324 0 6.378-1.4666 8.605-4.5257l-4.455-2.8914c-.874 1.3828-1.835 2.3886-3.932 2.3886z"/><path d="m154.179 32.322v7.7105h-6.596v-7.7105h-5.723v20.9105h5.723v-8.2552h6.596v8.2552h5.767v-20.9105z"/></g></svg>