<svg width="172" height="86" viewBox="0 0 172 86" fill="none" xmlns="http://www.w3.org/2000/svg">
<path fill-rule="evenodd" clip-rule="evenodd" d="M37.5769 42.5021C37.5769 34.4433 37.5856 33.7334 37.6855 33.6234C37.7859 33.5129 37.9362 33.5038 39.6746 33.5038C41.1944 33.5038 41.5794 33.5216 41.6824 33.5965C41.8034 33.6847 41.8107 33.7985 41.8288 35.8677C41.8392 37.0658 41.8708 38.069 41.8989 38.097C41.927 38.125 42.1726 38.0455 42.4446 37.9203C43.3945 37.4831 44.7026 37.2413 45.6457 37.3285C47.2121 37.4735 48.5289 38.1123 49.5915 39.2426C50.4001 40.1029 50.9456 41.1852 51.2296 42.4929C51.4338 43.4329 51.484 45.4555 51.3266 46.3969C50.9004 48.9463 49.5045 50.7081 47.3528 51.4125C46.2096 51.7867 44.8154 51.9514 42.7941 51.9509C41.3634 51.9505 40.4125 51.89 38.955 51.7063C37.9392 51.5783 37.8538 51.5573 37.7053 51.3985C37.5792 51.2637 37.5769 51.1051 37.5769 42.5021ZM70.6021 42.6868C70.6188 33.8661 70.6216 33.6876 70.7465 33.5966C70.8495 33.5215 71.2348 33.5038 72.7607 33.5038C74.6362 33.5038 74.6482 33.5047 74.7498 33.6492C74.84 33.7774 74.8519 34.3511 74.8519 38.5443C74.8519 42.6231 74.8655 43.3053 74.9475 43.3731C75.0001 43.4166 75.0722 43.4342 75.1077 43.4123C75.1434 43.3904 76.1227 42.0493 77.2841 40.4321L79.3956 37.4917H81.5076C83.7107 37.4917 83.7769 37.5 83.7769 37.773C83.7769 37.8413 82.6994 39.3476 81.3825 41.1202C80.0655 42.8929 78.9583 44.4211 78.9219 44.5162C78.8736 44.6429 78.8805 44.7454 78.9475 44.8986C78.9978 45.0137 80.1781 46.5642 81.5703 48.344C82.9625 50.1239 84.1024 51.6257 84.1033 51.6814C84.1076 51.9286 84.0081 51.9397 81.7708 51.9397H79.5941L77.4028 49.1122C75.5545 46.7273 75.186 46.2847 75.0481 46.2847H74.8848L74.8676 49.0246C74.8558 50.9147 74.8278 51.7917 74.7775 51.8521C74.7196 51.9217 74.2969 51.9397 72.7134 51.9397C70.805 51.9397 70.7193 51.9344 70.6536 51.8119C70.6065 51.7244 70.5903 48.8536 70.6021 42.6868ZM101.364 42.7629C101.364 34.4614 101.373 33.7334 101.473 33.6234C101.573 33.5129 101.724 33.5038 103.475 33.5038C105.28 33.5038 105.374 33.5098 105.499 33.6346C105.629 33.7641 105.63 33.8525 105.63 42.7261C105.63 48.7779 105.608 51.7278 105.562 51.8132C105.497 51.934 105.405 51.9397 103.508 51.9397C102.051 51.9397 101.501 51.9187 101.443 51.8612C101.383 51.8009 101.364 49.6911 101.364 42.7629ZM156.424 42.7679C156.424 34.4618 156.432 33.7334 156.532 33.6234C156.633 33.5129 156.782 33.5039 158.518 33.5048C159.55 33.5054 160.429 33.528 160.472 33.5552C160.676 33.6841 160.689 34.0115 160.689 38.6657C160.689 42.7384 160.702 43.3664 160.786 43.3984C160.839 43.4187 160.921 43.3968 160.968 43.3497C161.049 43.2691 162.105 41.8139 164.246 38.8319L165.185 37.5244L167.31 37.5072C169.504 37.4893 169.614 37.5011 169.614 37.7526C169.614 37.8153 168.522 39.3341 167.186 41.1277C165.851 42.9213 164.74 44.455 164.718 44.5359C164.696 44.6168 164.695 44.7492 164.716 44.8301C164.737 44.911 165.908 46.4577 167.319 48.2673C169.433 50.9778 169.881 51.5881 169.864 51.7322L169.844 51.907L167.654 51.9242C166.026 51.937 165.439 51.9213 165.368 51.8631C165.316 51.8201 164.311 50.54 163.134 49.0184C161.403 46.7802 160.965 46.252 160.842 46.252C160.758 46.252 160.683 46.2594 160.676 46.2684C160.668 46.2773 160.646 47.5497 160.626 49.0958L160.591 51.907L158.597 51.9243C157.181 51.9366 156.578 51.92 156.514 51.8672C156.438 51.8049 156.424 50.3309 156.424 42.7679ZM87.9515 37.4645C89.3105 37.271 89.8883 37.2018 91.2254 37.0724C92.0956 36.9881 93.7823 37.1499 94.6051 37.3963C95.7599 37.7423 96.7922 38.5855 97.2858 39.586C97.8574 40.7443 97.968 41.7416 97.9068 45.1885C97.8846 46.4386 97.8876 47.6291 97.9135 47.8341C97.9777 48.3423 98.1704 48.6117 98.563 48.7421C98.7351 48.7992 98.908 48.878 98.9472 48.9171C99.0442 49.0137 98.6944 51.6056 98.5659 51.7422C98.4965 51.816 98.2614 51.8444 97.5736 51.8623C96.0596 51.9015 95.2282 51.6391 94.435 50.8718L93.9973 50.4485L93.6614 50.6624C92.8037 51.2082 91.7387 51.6419 90.766 51.8413C90.0058 51.9971 88.809 51.9844 88.141 51.8134C86.8446 51.4817 85.8716 50.7096 85.3342 49.5862C84.926 48.7329 84.7981 48.163 84.8058 47.2326C84.8218 45.3021 85.6474 43.9285 87.271 43.1313C88.7133 42.423 90.3362 42.0748 92.6937 41.9675L93.7027 41.9216L93.6636 41.5923C93.5142 40.3357 92.0398 40.0514 88.5197 40.6004C87.2435 40.7995 87.1518 40.8003 87.0344 40.6134C86.9836 40.5325 86.7587 39.9137 86.5346 39.2384C86.1449 38.0642 86.1318 38.0035 86.2332 37.8492C86.2916 37.7604 86.3494 37.6878 86.3616 37.6878C86.3739 37.6878 87.0894 37.5874 87.9515 37.4645ZM113.387 37.1694C113.795 37.1305 114.247 37.087 114.391 37.0727C114.867 37.0259 116.297 37.0972 116.867 37.1963C117.568 37.318 118.368 37.5971 118.854 37.889C119.388 38.2101 120.145 39.0232 120.425 39.5777C120.975 40.6648 121.052 41.3351 121.053 45.0736L121.053 45.3709C121.054 47.7925 121.054 48.3442 121.325 48.567C121.405 48.6327 121.509 48.6698 121.643 48.7179L121.698 48.7379C121.916 48.8169 122.108 48.919 122.126 48.9649C122.161 49.057 121.809 51.6653 121.753 51.7205C121.58 51.8934 120.046 51.925 119.298 51.7711C118.619 51.6314 118.086 51.3489 117.575 50.8577L117.147 50.4469L116.557 50.8008C115.899 51.1948 115.089 51.5371 114.314 51.7484C113.576 51.9499 112.132 51.9971 111.428 51.8427C109.382 51.3938 108.094 49.8282 107.949 47.6126C107.864 46.3118 108.26 45.0149 109.009 44.1437C109.344 43.7534 109.867 43.389 110.585 43.0447C111.867 42.4303 113.34 42.1126 115.49 41.9869L116.786 41.911V41.6606C116.786 41.0902 116.404 40.6621 115.713 40.4595C114.981 40.2447 113.53 40.3055 111.4 40.6402C110.91 40.7172 110.434 40.7615 110.342 40.7385C110.192 40.701 110.131 40.5706 109.74 39.4475C109.501 38.7603 109.305 38.132 109.305 38.0512C109.305 37.7462 109.473 37.6907 111.1 37.4598C111.95 37.339 112.979 37.2084 113.387 37.1694ZM125.285 37.4928C126.363 37.3652 128.837 37.1541 129.833 37.1048C132.603 36.9677 133.933 37.1312 135.224 37.7673C136.442 38.3678 137.468 39.7334 137.953 41.3988C138.705 43.9788 138.412 46.8142 137.179 48.9048C136.711 49.6987 135.607 50.8051 134.873 51.2168C133.553 51.9573 132.116 52.1773 130.797 51.8407C130.3 51.7139 129.432 51.3009 129.098 51.0328L129.086 51.0234C128.961 50.9225 128.872 50.8516 128.81 50.8699C128.664 50.9129 128.664 51.4515 128.664 53.2598V53.3318C128.664 55.4329 128.653 55.7014 128.556 55.808C128.455 55.9184 128.306 55.9276 126.6 55.9276C125.108 55.9276 124.728 55.9097 124.625 55.8348C124.5 55.7438 124.497 55.566 124.48 46.8174L124.463 37.8929L124.611 37.7239C124.736 37.5826 124.845 37.5449 125.285 37.4928ZM141.353 37.7617C141.48 37.6567 144.966 37.1613 146.186 37.0748C146.915 37.0232 148.324 37.1051 148.974 37.2368C151.001 37.6476 152.263 38.8015 152.757 40.6967C152.894 41.2223 152.904 41.4274 152.941 44.683C152.963 46.5707 153.007 48.174 153.039 48.246C153.147 48.4916 153.358 48.6666 153.671 48.7702C153.843 48.8271 154.002 48.919 154.023 48.9743C154.078 49.1168 153.724 51.5997 153.631 51.7268C153.515 51.8857 151.908 51.9235 151.239 51.7832C150.517 51.6316 149.899 51.304 149.442 50.8299L149.058 50.4316L148.885 50.5459C148.422 50.8533 147.676 51.2433 147.206 51.4242C146.245 51.7938 145.767 51.8902 144.735 51.923C143.913 51.9491 143.698 51.934 143.226 51.8166C141.603 51.4129 140.451 50.2705 140.007 48.6243C139.824 47.9428 139.81 46.6832 139.979 46.0232C140.148 45.3617 140.548 44.5759 140.934 44.1467C142.088 42.8644 144.452 42.1066 147.751 41.9616L148.758 41.9173L148.712 41.6176C148.516 40.3153 147.146 40.044 143.576 40.6009C142.357 40.7911 142.234 40.7949 142.103 40.6461C141.952 40.473 141.182 38.1046 141.229 37.9568C141.251 37.8873 141.307 37.7995 141.353 37.7617ZM53.8191 37.5936L53.9832 37.5094C54.2247 37.3853 57.7232 37.4207 57.8779 37.5487C57.9767 37.6304 57.9863 38.013 57.9863 41.8322C57.9863 45.6958 57.9958 46.06 58.1064 46.4576C58.2577 47.001 58.4929 47.4033 58.8443 47.7196C59.9909 48.7514 62.1911 48.5143 62.813 47.2917L62.9738 46.9755V37.6299L63.1197 37.5281C63.243 37.442 63.539 37.4265 65.0392 37.4273C66.337 37.428 66.8569 37.4505 66.9769 37.5109L67.141 37.5936L67.1738 42.8544C67.2037 47.6432 67.2166 48.1334 67.3181 48.318C67.4479 48.554 67.6842 48.7236 67.9601 48.7785C68.3198 48.8502 68.3234 48.8831 68.1282 50.3228C68.0209 51.1144 67.9135 51.6823 67.8608 51.7371C67.7982 51.8022 67.5396 51.8373 66.9647 51.8587C65.4303 51.9159 64.4926 51.6268 63.7109 50.8557L63.2992 50.4495L62.7139 50.801C61.228 51.6933 59.511 52.1238 58.1544 51.9439C56.9367 51.7825 56.0436 51.3697 55.3003 50.625C54.5665 49.8897 54.026 48.7293 53.8541 47.5196C53.804 47.1673 53.7868 45.5127 53.8 42.2987L53.8191 37.5936ZM133.242 41.3748C132.867 41.0368 132.254 40.7713 131.68 40.6969C130.995 40.6084 130.199 40.6544 129.365 40.8305C129.312 40.8417 129.263 40.8506 129.218 40.8589C129.083 40.8834 128.984 40.9017 128.909 40.9554C128.694 41.1114 128.694 41.5664 128.697 43.3428C128.697 43.5477 128.697 43.7703 128.697 44.0119V46.8827L128.87 47.1424C129.183 47.6141 130.167 48.0171 131.005 48.0171C132.232 48.0171 133.202 47.4584 133.658 46.4887C134.488 44.7217 134.293 42.3203 133.242 41.3748ZM46.9502 42.8798C46.5398 42.0341 45.8221 41.3602 45.0408 41.087C44.3028 40.829 43.3112 40.8775 42.4174 41.2154C42.2101 41.2938 41.996 41.4212 41.9416 41.4986C41.8567 41.6194 41.8425 42.0841 41.8425 44.7606C41.8425 45.0907 41.8419 45.387 41.8413 45.653C41.8376 47.4029 41.8366 47.843 42.0391 47.978C42.1071 48.0233 42.1981 48.0342 42.3197 48.0488C42.3747 48.0554 42.436 48.0627 42.5042 48.0743C43.5225 48.2477 44.6671 48.1127 45.487 47.7225C46.5882 47.1984 47.2833 45.9806 47.3005 44.5457C47.3085 43.8776 47.2122 43.4196 46.9502 42.8798ZM93.6859 46.0091C93.6863 44.8985 93.6778 44.8138 93.5594 44.7507C93.1714 44.5438 91.2039 44.902 90.3389 45.337C89.3542 45.8322 89.0049 46.9574 89.573 47.8043C89.8419 48.205 90.4634 48.5341 91.0519 48.5873C92.0924 48.6812 93.4406 48.0785 93.6187 47.4398C93.6555 47.3078 93.6857 46.6641 93.6859 46.0091ZM116.786 46.0988C116.786 44.9405 116.772 44.7571 116.682 44.7227C116.246 44.556 114.052 44.988 113.407 45.3677C112.624 45.8284 112.292 46.6121 112.525 47.4498C112.61 47.7519 112.984 48.1799 113.304 48.3399C114.153 48.7648 115.4 48.63 116.295 48.0168C116.769 47.692 116.786 47.6227 116.786 46.0988ZM148.744 46.0115C148.745 45.0763 148.728 44.8713 148.643 44.7857C148.507 44.6504 147.985 44.6599 147.164 44.8124C145.134 45.1898 144.393 45.7478 144.387 46.9058C144.382 47.7208 144.743 48.197 145.57 48.4676C146.282 48.7003 146.979 48.6303 147.794 48.2446C148.339 47.9867 148.603 47.7317 148.684 47.3871C148.716 47.2482 148.743 46.6292 148.744 46.0115Z" fill="#303330"/>
<path fill-rule="evenodd" clip-rule="evenodd" d="M3.42534 30.3793C3.67747 30.2511 6.59949 29.2767 7.29098 29.0901C8.18407 28.8491 9.07408 29.0964 9.75481 29.7746C9.95496 29.9739 10.1845 30.278 10.265 30.4503C10.4282 30.7994 13.5376 43.4616 13.5998 44.0302C13.6755 44.7216 13.3597 45.5422 12.8156 46.0683C12.4586 46.4135 12.1367 46.5675 11.0038 46.9354C10.2026 47.1955 9.98043 47.2423 9.55695 47.2394C9.0286 47.236 8.65106 47.1342 8.20809 46.8756C7.90569 46.699 7.44914 46.2309 7.30444 45.9489C7.25154 45.846 6.05113 42.9572 4.63678 39.5296L4.32822 38.782C2.17849 33.5738 1.90265 32.9055 2.02401 32.3195C2.04187 32.2332 2.06834 32.1487 2.09871 32.0518C2.1082 32.0215 2.11808 31.99 2.1282 31.9568C2.34922 31.232 2.7811 30.7067 3.42534 30.3793ZM15.0924 34.089C15.519 33.901 16.6842 33.6377 17.3765 33.573C17.7128 33.5415 18.3127 33.5305 18.7097 33.5485C23.1336 33.7496 26.7269 36.4637 27.8984 40.4892C28.7242 43.327 28.2521 46.1716 26.5365 48.6948C25.9817 49.5106 24.6678 50.814 23.8644 51.3453C22.6759 52.1313 21.4295 52.6588 20.7608 52.6588C20.0264 52.6588 19.3024 52.278 18.9734 51.7186C18.8791 51.5585 18.6057 50.9469 18.3655 50.3597C17.8719 49.1521 17.8012 48.7452 17.979 48.1358C18.1897 47.414 18.6155 47.0122 19.5281 46.6742C19.8548 46.5533 20.2832 46.3477 20.4804 46.2173C21.2183 45.7293 21.7786 44.9405 22.0008 44.0766C22.1396 43.537 22.091 42.5786 21.8973 42.0353C21.4628 40.8161 20.3187 39.8856 19.0272 39.7008C18.434 39.616 17.9833 39.6653 17.1019 39.9117C16.5694 40.0606 16.2525 40.0517 15.7094 39.8727C15.3188 39.744 14.7788 39.2653 14.5801 38.8717C14.3776 38.4704 13.8863 36.4064 13.8863 35.9571C13.8863 35.1991 14.4084 34.3904 15.0924 34.089ZM9.37609 52.6261C9.28001 51.0287 10.2961 49.5763 11.8672 49.0656C12.4325 48.8819 13.6089 48.9099 14.1557 49.1202C15.1159 49.4894 15.9161 50.3027 16.2572 51.2558C16.4308 51.7409 16.4917 52.6791 16.3833 53.199C16.1949 54.1027 15.4362 55.1204 14.6283 55.5531C14.1953 55.7849 13.3788 55.9932 12.9078 55.9919C11.0452 55.987 9.48896 54.5039 9.37609 52.6261Z" fill="#E31E52"/>
</svg>
