<svg fill="none" height="86" viewBox="0 0 172 86" width="172" xmlns="http://www.w3.org/2000/svg" xmlns:xlink="http://www.w3.org/1999/xlink"><clipPath id="a"><path d="m0 31h172v23.3114h-172z"/></clipPath><g clip-path="url(#a)"><path d="m91.5069 38.5164c.8044.0656 1.5715.3677 2.2046.8685.633.5007 1.1037 1.1776 1.3528 1.9453.249.7678.2653 1.5921.0467 2.3691-.2186.7769-.6623 1.4718-1.2751 1.9971s-1.3674.8575-2.1687.9547c-.8012.0972-1.6134-.045-2.334-.4085-.7206-.3636-1.3176-.9322-1.7156-1.6344s-.5793-1.5065-.521-2.3115c.0406-.5381.187-1.0629.4308-1.5443s.5802-.9099.9899-1.2611c.4097-.3511.8846-.618 1.3976-.7853s1.054-.2317 1.592-.1896z" style="fill-rule:evenodd;clip-rule:evenodd;fill:#000;stroke:#231f20;stroke-width:.09;stroke-miterlimit:2.61"/><path clip-rule="evenodd" d="m99.6029 35.53c1.6001 1.8523 2.3691 5.1285 1.8271 8.8205-.825 5.5507-4.3536 9.9609-7.8629 9.7782-.5672-.0348-1.1216-.1832-1.6303-.4365-.5086-.2532-.9612-.6062-1.3308-1.0378 2.9863-.567 6.1932-3.2636 8.1211-7.1824 1.7769-3.6227 2.0099-7.384.8758-9.942z" fill="#ffca05" fill-rule="evenodd"/><path clip-rule="evenodd" d="m82.5348 49.6303c-1.5498-1.8901-2.2429-5.1852-1.6066-8.8206.9577-5.5317 4.5993-9.8474 8.1023-9.6017.5704.0424 1.1263.1999 1.6342.463s.9571.6264 1.3207 1.068c-2.999.4851-6.3004 3.1061-8.2976 6.9745-1.8901 3.5786-2.1925 7.3336-1.1214 9.9168z" fill="#a5cd39" fill-rule="evenodd"/><path clip-rule="evenodd" d="m94.4486 48.5654c-2.9233 2.7344-6.5964 3.7802-8.9213 2.1925-2.3248-1.5876-2.6272-5.4309-1.071-9.1544 0 .1575-.0378.3087-.0504.4599-.0953 1.2217.1412 2.4464.6843 3.5449.5432 1.0984 1.3729 2.0298 2.4015 2.6957 1.0286.666 2.218 1.0418 3.4425 1.0878s2.4387-.2395 3.5144-.8264z" fill="#007ac2" fill-rule="evenodd"/><path clip-rule="evenodd" d="m96.8682 34.4338c2.3311 1.6003 2.5957 5.3805 1.0584 9.0788 0-.126 0-.2583.0441-.3906.0944-1.2246-.1448-2.4519-.6921-3.5515-.5474-1.0995-1.3823-2.0303-2.4163-2.6933-1.0339-.663-2.2281-1.0335-3.4558-1.0721-1.2276-.0386-2.4428.2561-3.5164.8527 2.936-2.7595 6.6595-3.8306 8.9907-2.224z" fill="#ec1c24" fill-rule="evenodd"/><path d="m115.801 45.39c-.382 1.1806-1.133 2.2073-2.143 2.9287-1.009.7214-2.224 1.0995-3.465 1.0784-1.582 0-3.099-.6286-4.218-1.7476-1.119-1.1189-1.748-2.6365-1.748-4.2189s.629-3.1 1.748-4.2189 2.636-1.7475 4.218-1.7475c1.252-.0063 2.473.3877 3.486 1.1244 1.012.7367 1.762 1.7776 2.141 2.9708h-3.043c-.225-.4982-.592-.9188-1.055-1.2092-.463-.2903-1.001-.4373-1.547-.4226-.449.0005-.892.0934-1.302.273-.411.1796-.78.4421-1.085.7709-.304.3288-.538.7169-.685 1.14-.148.4232-.207.8722-.173 1.3191-.021.4541.051.9076.211 1.3331.16.4254.405.814.72 1.1421.314.3281.692.589 1.11.7667.419.1778.869.2687 1.323.2674.515-.0129 1.016-.1634 1.453-.436s.792-.6572 1.03-1.1139z" fill="#969696"/><path d="m116.273 43.4558c-.001-1.5831.624-3.1023 1.74-4.2253 1.116-1.1229 2.631-1.758 4.214-1.7664.781-.0017 1.554.1512 2.274.4498.721.2986 1.376.7371 1.927 1.29.55.553.986 1.2095 1.281 1.9317.296.7222.446 1.4958.441 2.2761.021.7865-.117 1.5691-.406 2.3008-.29.7317-.724 1.3972-1.277 1.9565-.554.5593-1.215 1.0007-1.943 1.2977-.729.297-1.51.4434-2.297.4303-1.574-.0082-3.082-.6364-4.196-1.7485-1.115-1.112-1.746-2.6184-1.758-4.1927zm9.212 0c.034-.4499-.025-.902-.174-1.328s-.384-.8167-.69-1.1477c-.307-.3309-.679-.5949-1.092-.7754-.414-.1806-.86-.2738-1.311-.2738s-.898.0932-1.311.2738c-.414.1805-.785.4445-1.092.7754-.307.331-.542.7217-.69 1.1477-.149.426-.208.8781-.174 1.328-.019.441.051.8815.206 1.2947.156.4132.393.7907.698 1.1096.306.319.672.5728 1.078.7462.406.1735.843.2629 1.285.2629.441 0 .878-.0894 1.284-.2629.406-.1734.773-.4272 1.078-.7462.305-.3189.543-.6964.698-1.1096.156-.4132.226-.8537.207-1.2947z" fill="#969696"/><path d="m129.032 37.8485h2.457v.9514h.038c.22-.3655.989-1.3357 2.923-1.3357.643-.0055 1.276.1531 1.841.4607.564.3076 1.041.754 1.385 1.2971.402-.5766.944-1.0408 1.576-1.3484.632-.3077 1.332-.4486 2.034-.4094.709-.0365 1.416.1019 2.058.4029.643.301 1.202.7555 1.628 1.3234.626.9822.924 2.1385.85 3.3014v6.5461h-2.684v-6.2122c0-.63 0-2.8982-2.117-2.8982-.372.0016-.738.0986-1.062.2817s-.596.4462-.79.7642c-.326.7137-.464 1.4986-.403 2.2807v5.7838h-2.678v-6.2122c0-1.531-.586-2.8982-2.236-2.8982-2.136 0-2.136 2.3375-2.136 3.5282v5.5822h-2.684z" fill="#969696"/><path d="m153.918 49.1892h-2.079v-14.8625h2.092z" fill="#969696"/><path d="m158.234 49.1892h-2.086v-9.2237h-1.512v-1.8901h1.512v-3.7487h2.086v3.7361h1.827v1.8901h-1.827z" fill="#969696"/><path d="m169.644 49.1892v-1.5877h-.044c-.454.6094-1.049 1.0996-1.734 1.4288-.684.3292-1.439.4875-2.198.4613-.765.0156-1.526-.1241-2.236-.4104-.71-.2864-1.354-.7135-1.895-1.2557-.54-.5422-.965-1.1883-1.249-1.8992s-.422-1.472-.404-2.2373c0-2.7092 1.846-5.9034 5.784-5.9034.714-.0198 1.423.1192 2.077.4068s1.236.7168 1.703 1.2565h.032v-5.1222h2.092v14.8625zm-3.856-9.5198c-.782-.0175-1.552.1981-2.212.6193-.659.4212-1.178 1.029-1.491 1.7461s-.406 1.5111-.266 2.281.505 1.4809 1.05 2.0425c.544.5617 1.244.9486 2.009 1.1116s1.562.0947 2.288-.1962 1.35-.7912 1.791-1.4374.68-1.409.687-2.1914c.027-.519-.054-1.0381-.236-1.5247-.183-.4865-.464-.9302-.826-1.3033s-.797-.6676-1.277-.865c-.481-.1974-.998-.2936-1.517-.2825z" fill="#969696"/><g fill="#000"><path d="m9.49443 41.5531c-.25546-.6358-.69725-1.1794-1.26735-1.5595-.57009-.38-1.24182-.5788-1.92694-.57-2.75326 0-3.73612 2.2933-3.73612 4.0196 0 1.9657 1.26008 4.0385 3.69202 4.0385.6795.0059 1.3455-.1897 1.91399-.562.56848-.3722 1.01398-.9045 1.28029-1.5297h2.38158c-.3831 1.1811-1.1326 2.2095-2.1398 2.9357-1.00718.7262-2.21961 1.1125-3.46126 1.1028-3.72982 0-5.821542-3.0556-5.821542-5.9853-.032764-1.4082.443953-2.7809 1.342492-3.8657.89854-1.0847 2.15849-1.8086 3.54818-2.0386 1.38968-.23 2.81566.0495 4.01574.787 1.20009.7375 2.09359 1.8835 2.51619 3.2272z"/><path d="m22.4921 49.1387v-1.7578h-.0441c-.4051.651-.9751 1.1834-1.6523 1.543-.6771.3596-1.4374.5337-2.2035.5047-.7905.0265-1.5781-.1079-2.315-.3951s-1.4077-.7213-1.9716-1.2758c-.564-.5545-1.0093-1.2179-1.3089-1.9498-.2996-.732-.4473-1.5172-.434-2.308-.019-.797.124-1.5895.4203-2.3296s.7397-1.4124 1.3034-1.9761 1.236-1.0072 1.9761-1.3035c.7401-.2962 1.5327-.4392 2.3297-.4202.7491-.0302 1.494.1268 2.1672.4568s1.2536.8226 1.6886 1.4333h.0441v-1.5814h2.1295v11.3406zm-3.8999-9.7151c-.8002-.0188-1.5879.2011-2.2627.6315s-1.2063 1.0519-1.5268 1.7853c-.3204.7335-.4153 1.5457-.2726 2.3333s.5166 1.5148 1.0741 2.0892c.5574.5744 1.2731.9699 2.0561 1.1361.7829.1662 1.5977.0957 2.3404-.2026.7427-.2984 1.3798-.811 1.8302-1.4726.4505-.6617.6938-1.4424.699-2.2428.0241-.5291-.0603-1.0576-.2481-1.5528-.1878-.4953-.4749-.9469-.8438-1.327s-.8117-.6807-1.3011-.8832-1.0151-.3027-1.5447-.2944z"/><path d="m50.7557 49.1387v-1.7578h-.0441c-.405.651-.975 1.1834-1.6522 1.543s-1.4374.5337-2.2036.5047c-.7907.0274-1.5787-.1063-2.316-.3932s-1.4084-.721-1.9725-1.2757c-.5642-.5547-1.0094-1.2184-1.3087-1.9508-.2993-.7323-.4464-1.518-.4322-2.309-.019-.797.124-1.5895.4203-2.3296.2962-.7401.7397-1.4124 1.3034-1.9761s1.236-1.0072 1.9761-1.3035c.7401-.2962 1.5326-.4392 2.3296-.4202.7492-.0302 1.494.1268 2.1673.4568.6732.33 1.2535.8226 1.6885 1.4333h.0441v-1.5814h2.1296v11.3406zm-3.8999-9.7151c-.8002-.0188-1.5878.2011-2.2626.6315-.6749.4304-1.2064 1.0519-1.5268 1.7853-.3204.7335-.4153 1.5457-.2726 2.3333s.5166 1.5148 1.074 2.0892c.5575.5744 1.2732.9699 2.0562 1.1361.7829.1662 1.5976.0957 2.3403-.2026.7428-.2984 1.3799-.811 1.8303-1.4726.4504-.6617.6937-1.4424.699-2.2428.0241-.5291-.0603-1.0576-.2481-1.5528-.1878-.4953-.475-.9469-.8439-1.327-.3688-.3801-.8116-.6807-1.3011-.8832-.4894-.2025-1.0151-.3027-1.5447-.2944z"/><path d="m56.3883 49.1388h-2.1359v-15.1713h2.1359z"/><path d="m59.501 44.3821c.1708.8666.6349 1.6479 1.3143 2.2125.6793.5645 1.5323.8779 2.4155.8872.6608.0097 1.3116-.1613 1.8823-.4944.5706-.333 1.0396-.8156 1.3561-1.3957h2.1358c-.3996 1.1277-1.1388 2.1038-2.1158 2.7943-.977.6904-2.1439 1.0613-3.3403 1.0616-1.557-.038-3.0365-.6872-4.1187-1.8072-1.0823-1.1199-1.6804-2.6208-1.665-4.1782-.0095-.762.1312-1.5184.414-2.2261.2828-.7076.7022-1.3526 1.2343-1.8982.5321-.5455 1.1665-.981 1.8668-1.2814.7004-.3004 1.4531-.4599 2.2151-.4694s1.5184.1312 2.2261.414c.7076.2828 1.3526.7022 1.8982 1.2343.5455.5321.9809 1.1665 1.2813 1.8668.3004.7004.46 1.4531.4695 2.2151 0 .3654-.0378.9451-.0567 1.0837zm7.3399-1.6381c-.0848-.9147-.5081-1.7647-1.187-2.3835s-1.5643-.9619-2.4829-.9619-1.8041.3431-2.483.9619c-.6788.6188-1.1021 1.4688-1.187 2.3835z"/><path d="m71.8808 40.6901c0-.4662.4096-1.3861 1.7894-1.3861.4484-.007.8848.1456 1.231.4307.3463.2851.5799.684.6591 1.1255h2.0728c-.0987-.9578-.5591-1.8419-1.2874-2.4718-.7282-.6299-1.6694-.9582-2.6314-.9178-3.0368 0-3.7362 2.1421-3.7803 3.1502-.1701 3.6857 5.9476 3.0368 5.8405 5.4372 0 .4473-.4473 1.5121-2.2115 1.5121-.5763.0374-1.1447-.1497-1.5863-.5219-.4415-.3723-.722-.901-.7826-1.4753h-2.0476c.0776 1.0946.5847 2.1141 1.4109 2.8364.8261.7222 1.9042 1.0887 2.9993 1.0194 3.4589 0 4.1331-2.4508 4.1709-3.3644.1764-3.8495-5.9035-3.6164-5.8468-5.3742z"/><path d="m34.3434 40.6898c0-.4662.4033-1.386 1.7893-1.386.4485-.0071.8849.1456 1.2311.4307.3463.285.5799.684.6591 1.1254h2.0728c-.0989-.9635-.5638-1.8522-1.2989-2.483-.735-.6307-1.6841-.9552-2.6515-.9065-3.0367 0-3.7361 2.1421-3.7802 3.1501-.1701 3.6857 5.9476 3.0368 5.8405 5.4373 0 .4473-.4474 1.512-2.2115 1.512-.5661.0212-1.1194-.1721-1.5493-.5412-.4298-.3691-.7045-.8868-.7692-1.4497h-2.0413c.0776 1.0946.5847 2.1141 1.4108 2.8364.8262.7223 1.9043 1.0887 2.9994 1.0194 3.4589 0 4.1331-2.4508 4.1709-3.3644.1512-3.8558-5.9476-3.6227-5.872-5.3805z"/><path d="m31.1426 37.4704c-.6294-.0407-1.2587.0797-1.8287.3497-.5699.2701-1.0616.681-1.4286 1.1939v-1.2601h-2.0098v11.3407h2.1295v-6.124c0-.8379 0-3.4085 2.81-3.4085.2417.0027.4808.0497.7056.1386l.9451-1.9342c-.4196-.1776-.8678-.278-1.3231-.2961z"/></g></g></svg>