<svg fill="none" height="86" viewBox="0 0 172 86" width="172" xmlns="http://www.w3.org/2000/svg" xmlns:xlink="http://www.w3.org/1999/xlink"><clipPath id="a"><path d="m7 26h158v34h-158z"/></clipPath><g clip-path="url(#a)" fill="#0033a1"><path d="m97.7051 46.8802 9.3929-9.2953h-9.2584v-4.3691h15.8274v4.4434l-9.394 9.2581h9.577v4.3815h-16.1449z"/><path d="m95.9197 27.2625h-4.8924v4.4929h4.8924z"/><path d="m95.8455 33.2654h-4.8924v18.083h4.8924z"/><path d="m31.7554 42.2511c.0245-5.1737 4.183-9.3447 9.2833-9.3324 5.1126.0248 9.2344 4.233 9.2222 9.3943-.0245 5.1612-4.1585 9.3323-9.2589 9.3323-5.1003.0124-9.2466-4.1711-9.2588-9.3323.0122-.0248.0122-.0372.0122-.0619zm13.7599 0c0-2.5621-2.0059-4.7033-4.501-4.7033-2.5319 0-4.4644 2.1288-4.4644 4.7033 0 2.5744 1.9325 4.7033 4.4644 4.7033 2.4951 0 4.501-2.1412 4.501-4.7033z"/><path d="m72.3506 33.2159h4.8557v2.0298c1.1375-1.4852 2.8987-2.3888 4.9291-2.3888 4.2197 0 6.7515 2.7478 6.7515 7.4139v11.0281h-4.9536v-10.3721c0-2.4259-1.113-3.8369-3.2901-3.8369-1.8591 0-3.4002 1.2996-3.4002 4.332v9.877h-4.8924z"/><path d="m114.131 42.2511c0-6.399 4.648-9.4066 8.684-9.4066 2.324 0 4.146.8664 5.32 2.1289v-1.7576h4.893v18.083h-4.893v-2.0299c-1.174 1.411-3.07 2.3888-5.394 2.3888-3.791-.0123-8.61-3.0447-8.61-9.4066zm14.139-.0371c0-2.6735-1.933-4.8395-4.575-4.8395-2.703-.0124-4.782 2.0546-4.782 4.8395 0 2.7848 2.067 4.8766 4.782 4.8766 2.655 0 4.587-2.2032 4.575-4.8766z"/><path d="m135.009 33.2159h4.856v2.0298c1.137-1.4852 2.899-2.3888 4.929-2.3888 4.22 0 6.752 2.7478 6.752 7.4139v11.0281h-4.966v-10.3721c0-2.4259-1.101-3.8369-3.29-3.8369-1.859 0-3.401 1.2996-3.401 4.332v9.877h-4.892z"/><path d="m97.7051 51.2864v-4.4062l9.3929-9.2953h-9.2584v-4.3691h15.8274v4.4434l-9.394 9.2581"/><path d="m26.5329 42.0903-.0612.1485c-1.3454 2.8839-3.8405 4.53-6.8249 4.53-4.3297 0-7.7055-3.4532-7.7055-7.8718 0-4.5301 3.3635-7.9338 7.8156-7.9338 2.8865 0 5.0759 1.3739 6.5191 4.0721l.0734.1485 4.3543-2.822-.0734-.1237c-2.2628-3.9112-6.3234-6.2381-10.8734-6.2381-7.2652 0-12.7569 5.545-12.7569 12.9094 0 7.4757 5.3572 12.8969 12.7447 12.8969 4.7579 0 8.9653-2.6734 11.2525-7.154l.0734-.1361z"/><path d="m51.4961 42.2511c0-6.399 4.6478-9.4066 8.684-9.4066 2.3239 0 4.1463.9778 5.3205 2.3145v-1.9432h4.8924v17.5755c0 5.0994-3.1801 9.221-9.2222 9.221-4.5377 0-7.8645-2.3888-9.2955-5.2108l4.3175-2.463c.9296 1.8813 2.5685 3.0695 4.9658 3.0695 2.6419 0 4.3175-2.0917 4.3175-4.4434v-1.6957c-1.1741 1.411-3.07 2.3888-5.3938 2.3888-3.7672-.0123-8.5862-3.0447-8.5862-9.4066zm14.1513-.0371c0-2.6735-1.9325-4.8395-4.5744-4.8395-2.7153 0-4.7824 2.0546-4.7824 4.8395 0 2.7848 2.0671 4.8766 4.7824 4.8766 2.6419 0 4.5744-2.2032 4.5744-4.8766z"/><path d="m163.605 37.6592v-4.4434h-3.363v-5.9658h-4.893v5.9658h-3.045v4.4434h3.033v5.7801c0 5.8915 1.859 7.8471 7.534 7.8471h.71v-4.629c-2.997 0-3.364-.4332-3.364-3.2552v-5.743z"/></g></svg>