<svg fill="none" height="86" viewBox="0 0 172 86" width="172" xmlns="http://www.w3.org/2000/svg"><path d="m136.909 41.6716c-.144-2.5413-1.983-3.8841-5.318-3.8841-2.624 0-4.253 1.054-4.253 2.7506 0 1.8888 1.613 2.6415 4.217 3.2452l3.237.7364c5.324 1.2553 8.208 2.8571 8.208 7.7122 0 2.6649-.997 4.8678-2.883 6.3703-1.909 1.5216-4.74 2.3265-8.187 2.3265-6.912 0-10.876-3.385-10.876-9.2861v-.12h5.412l.001.1164c.239 3.1432 2.183 4.671 5.946 4.671 3.131 0 5.077-1.2986 5.077-3.3895 0-1.776-1.324-2.4357-3.928-3.0972l-3.819-.9827c-2.845-.7103-4.744-1.5459-5.977-2.6334-1.355-1.1948-1.987-2.7307-1.987-4.8325 0-2.4095.913-4.4409 2.64-5.8731 1.763-1.461 4.311-2.2335 7.365-2.2335 3.166 0 5.821.7968 7.681 2.3075 1.838 1.4917 2.81 3.5989 2.81 6.0933v.0487h-5.363zm-22.428 6.6789c0-.0018.001-.0027.001-.0045h-14.8617c.5727 4.5276 3.8097 7.3702 7.4297 7.3693h.001c2.675 0 5.14-1.554 6.477-4.1918h5.882c-1.727 5.8803-6.778 9.4747-12.357 9.4729h-.002-.001c-6.906.0018-13.005-5.5013-12.9908-14.0347-.0142-10.2923 7.6758-13.7613 12.9908-13.7631h.001.002c5.314.0018 13.004 3.4708 12.988 13.7631.001.4729-.018.9349-.055 1.3888zm-7.428-10.1479h-.003c-2.494 0-5.892 1.4367-7.085 5.4363h14.171c-1.193-3.9996-4.59-5.4363-7.083-5.4363zm-20.7627-13.3028 5.9895-.0019.0027 35.419-5.9948-.0018zm-15.4514 36.0966c-7.5516 0-13.6747-6.2232-13.6747-13.8994 0-7.6761 6.1231-13.8984 13.6747-13.8984 7.5525 0 13.6746 6.2223 13.6746 13.8984 0 7.6762-6.1221 13.8994-13.6746 13.8994zm0-22.2388c-4.5315 0-8.2044 3.7343-8.2044 8.3394 0 4.6061 3.6729 8.3404 8.2044 8.3404 4.5324 0 8.2053-3.7343 8.2053-8.3404 0-4.6051-3.6729-8.3394-8.2053-8.3394zm-28.1651 16.6798c3.338 0 6.2085-2.0269 7.4901-4.9346h5.7695c-1.4927 6.0292-6.8632 10.4936-13.2596 10.4936-7.5525 0-13.6738-6.2223-13.6738-13.8994 0-7.6761 6.1213-13.8984 13.6738-13.8984 6.3964 0 11.7669 4.4643 13.2596 10.4935h-5.7695c-1.2816-2.9076-4.1521-4.9345-7.4901-4.9345-4.5315 0-8.2045 3.7343-8.2045 8.3394 0 4.6061 3.673 8.3404 8.2045 8.3404z" fill="#e01a22"/></svg>