<svg width="172" height="86" viewBox="0 0 172 86" fill="none" xmlns="http://www.w3.org/2000/svg">
<mask id="mask0_3800_4022" style="mask-type:luminance" maskUnits="userSpaceOnUse" x="2" y="35" width="167" height="16">
<path d="M169 35H2V51H169V35Z" fill="white"/>
</mask>
<g mask="url(#mask0_3800_4022)">
<path d="M85.7783 50.999V47.571H99.7615V44.6664H88.8419L85.085 41.835V37.8315L88.8419 35H102.229V38.428H88.5939V41.2385H99.5136L103.27 44.0689V48.1685L99.5136 50.999H85.7783Z" fill="black"/>
<path d="M40.2556 50.999L33.3946 39.3788L26.5224 50.999H22.4707L31.928 35H34.85L44.3073 50.999H40.2556Z" fill="black"/>
<path d="M50.8814 50.999V38.428H43.543V35H61.7275V38.428H54.389V50.999H50.8814Z" fill="black"/>
<path d="M114.105 50.999V38.428H106.767V35H124.952V38.428H117.614V50.999H114.105Z" fill="black"/>
<path d="M2 50.999V35H16.4287L20.1853 37.8315V48.1685L16.4287 51H2V50.999ZM16.6765 47.571V38.428H5.50782V47.571H16.6765Z" fill="black"/>
<path d="M147.996 50.999L152.724 43L147.996 35H152.047L156.778 43L152.047 50.999H147.996Z" fill="black"/>
<path d="M164.982 50.999L160.25 43L164.982 35H169.032L164.304 43L169.032 50.999H164.982Z" fill="black"/>
<path d="M78.7475 50.999L71.8753 39.3788L65.0132 50.999H60.9619L70.4188 35H73.3409L82.7983 50.999H78.7475Z" fill="black"/>
<path d="M141.971 50.999L135.1 39.3788L128.238 50.999H124.187L133.643 35H136.566L146.023 50.999H141.971Z" fill="black"/>
</g>
</svg>
