<svg fill="none" height="86" viewBox="0 0 172 86" width="172" xmlns="http://www.w3.org/2000/svg"><path clip-rule="evenodd" d="m110.096 38.8424c.242-7.1763 5.601-12.8209 13.003-13.6956 8.515-1.0063 15.929 4.4653 16.807 12.4035 1.054 9.5361-6.892 17.0451-16.834 15.9087-7.809-.8925-13.233-7.0028-12.976-14.6166zm-78.096 14.2729v-13.8152-13.8151l6.1951.0199c6.7243.0216 6.7378.0222 8.3405.337 6.5693 1.2907 11.0123 6.1811 11.3955 12.5429.4254 7.0624-4.1501 12.8888-11.2665 14.3467-.3506.0718-.6237.1285-.8987.1733-1.0408.1698-2.1092.171-7.5159.1893zm67.8573-.0066v-13.8087-13.8087h3.0497 3.049v13.8087 13.8087h-3.049zm33.1637-10.7424c1.804-5.282-1.333-10.7817-6.625-11.6158-6.533-1.0296-11.508 5.0962-9.338 11.499 2.556 7.5467 13.399 7.6261 15.963.1168zm-81.5692-3.82c-.3573-4.0217-2.8122-6.6917-6.8419-7.4414-.3472-.0646-1.066-.0869-3.4203-.1062l-2.9808-.0244v8.3216 8.3216h2.667c3.3245 0 3.9812-.0642 5.3179-.5201 3.5401-1.2073 5.6112-4.5755 5.2581-8.5511zm20.6019 2.0867c.3488-4.9271 3.6191-8.4286 8.408-9.0024 2.8359-.3398 5.3837.5046 7.5021 2.4863l.5748.5377v-1.3515-1.3516h3.077 3.0769l-.0005 8.1964c-.0005 8.1591-.0268 9.6225-.194 10.8149-.8189 5.8375-4.5051 8.4948-11.7885 8.4979-3.3557.0014-6.1921-.5907-8.9672-1.872-.3563-.1645-.6369-.3253-.6234-.3573.1121-.2659 2.0358-4.3737 2.0619-4.4028.0187-.0208.349.1194.734.3115 2.3891 1.1925 5.0564 1.7426 7.4315 1.5329 3.5879-.3168 5.173-2.0302 5.2824-5.7096l.0295-.996-.5559.5754c-1.7614 1.8231-3.4447 2.6347-5.7733 2.7835-6.2452.399-10.73-4.2683-10.2753-10.6933zm-9.8888 12.4757v-10.5786-10.5786h3.0495 3.0494v10.5786 10.5786h-3.0494zm26.0796-9.6892c1.2287-2.9805-.4747-6.1051-3.6821-6.7543-4.1977-.8495-7.4929 2.7057-6.1125 6.5947 1.4429 4.0655 8.1395 4.1746 9.7946.1596z" fill="#00838f" fill-rule="evenodd"/><path d="m62.165 22.9879v2.9878h3.0495 3.0495v-2.9878-2.9879h-3.0495-3.0495z" fill="#ef4b23"/><path d="m99.8574 65.0599v-2.9878-2.9879h3.0496 3.049v2.9879 2.9878h-3.049z" fill="#8c66ff"/></svg>