<svg fill="none" height="86" viewBox="0 0 172 86" width="172" xmlns="http://www.w3.org/2000/svg" xmlns:xlink="http://www.w3.org/1999/xlink"><clipPath id="a"><path d="m0 34h172v18.9905h-172z"/></clipPath><g clip-path="url(#a)" fill="#61778c"><path d="m13.6859 34.63v2.3915c0 .1559-.1041.2599-.2603.2599h-10.28102v4.8869h8.48522c.1561 0 .2602.1039.2602.2598v2.3916c0 .1559-.1041.2598-.2602.2598h-8.48522v7.2262c0 .1561-.10399.26-.26027.26h-2.576817c-.156136 0-.2601297-.1039-.2601297-.26v-17.6757c0-.1559.1039937-.2599.2601297-.2599h13.118107c.1562 0 .2603.104.2603.2599z"/><path d="m29.2108 44.8715c-.9499-2.6254-2.004-5.2507-3.0843-7.6422h-.6116c-1.0802 2.3915-2.1473 5.0168-3.0975 7.6422zm5.453 7.6942h-2.8371c-.1561 0-.2603-.0781-.2992-.2341-.3776-1.4946-.8329-3.0672-1.3535-4.6528h-8.7065c-.5205 1.5856-.976 3.1582-1.3404 4.6528-.0389.156-.1432.2341-.2994.2341h-2.7328c-.1822 0-.2864-.1039-.2343-.286 1.6397-5.7964 4.1384-12.1911 6.6631-17.5717.1172-.2469.2604-.3379.5077-.3379h3.6958c.2472 0 .3905.091.5077.3379 2.5507 5.3677 5.0103 11.7753 6.6631 17.5717.0521.1821-.052.286-.2342.286z"/><path d="m39.3218 43.6239c0-5.6408 3.7219-9.5917 9.0318-9.5917h.3902c3.3317 0 5.9085 1.6895 7.2749 4.1328.0911.1561.065.286-.0911.3641l-2.2903 1.1306c-.1563.078-.3517.078-.4557-.1169-.963-1.6636-2.4075-2.5474-4.5418-2.5474h-.3905c-3.3445 0-5.6481 2.6514-5.6481 6.4986 0 3.86 2.2645 6.4463 5.6481 6.4463h.3905c2.1865 0 3.4616-.7409 4.4378-1.8716.1301-.143.2733-.1689.4295-.0909l2.3555 1.1437c.0911.0519.13.1169.13.1819s-.026.1171-.0779.1949c-1.4446 2.1056-4.0473 3.4053-7.2228 3.4053h-.3905c-5.4007 0-8.9796-3.7042-8.9796-9.2797z"/><path d="m76.7497 49.9143v2.3914c0 .1561-.1042.26-.2604.26h-13.6647c-.1562 0-.2601-.1039-.2601-.26v-17.6757c0-.1559.1039-.2599.2601-.2599h13.4305c.1563 0 .2603.104.2603.2599v2.3915c0 .1559-.104.2599-.2603.2599h-10.5934v4.7307h8.6152c.1562 0 .2604.1041.2604.2601v2.3654c0 .1559-.1042.2599-.2604.2599h-8.6152v4.7569h10.8276c.1562 0 .2604.104.2604.2599z"/><path d="m97.1032 47.3018c0-1.6895-1.1193-2.4564-3.5789-2.4564h-6.1297v4.8869h6.1297c2.4987 0 3.5789-.7278 3.5789-2.4305zm-4.4509-10.0984h-5.2577v4.8868h5.2577c2.3555 0 3.4357-.7669 3.4357-2.4434 0-1.6767-1.0802-2.4434-3.4357-2.4434zm7.6267 10.3715c0 3.1841-2.4471 4.9908-6.7679 4.9908h-8.9536c-.1561 0-.2601-.1039-.2601-.26v-17.6757c0-.1559.104-.2599.2601-.2599h8.1599c4.2035 0 6.4938 1.6636 6.4938 4.7048 0 2.0015-1.0149 3.3143-3.0712 3.925 2.8891.6108 4.139 2.3395 4.139 4.575z"/><path d="m115.492 49.9403c3.734 0 6.09-2.5604 6.09-6.4724 0-3.9122-2.356-6.4725-6.09-6.4725h-.391c-3.735 0-6.091 2.5603-6.091 6.4725 0 3.912 2.356 6.4724 6.091 6.4724zm-9.761-6.4724c0-5.4848 3.644-9.4357 9.37-9.4357h.391c5.725 0 9.369 3.9509 9.369 9.4357 0 5.4846-3.644 9.4357-9.369 9.4357h-.391c-5.726 0-9.37-3.9511-9.37-9.4357z"/><path d="m139.904 49.9403c3.736 0 6.091-2.5604 6.091-6.4724 0-3.9122-2.355-6.4725-6.091-6.4725h-.389c-3.736 0-6.091 2.5603-6.091 6.4725 0 3.912 2.355 6.4724 6.091 6.4724zm-9.76-6.4724c0-5.4848 3.644-9.4357 9.371-9.4357h.389c5.727 0 9.371 3.9509 9.371 9.4357 0 5.4846-3.644 9.4357-9.371 9.4357h-.389c-5.727 0-9.371-3.9511-9.371-9.4357z"/><path d="m171.723 52.5657h-3.358c-.22 0-.312-.0521-.455-.221-2.355-2.7683-5.14-5.5235-7.509-7.5512h-1.51v7.5122c0 .1561-.104.26-.26.26h-2.577c-.156 0-.26-.1039-.26-.26v-17.6757c0-.1559.104-.2599.26-.2599h2.577c.156 0 .26.104.26.2599v7.1744h1.536c2.538-2.2876 4.88-4.7569 6.794-7.2395.129-.1689.233-.1948.39-.1948h3.175c.156 0 .235.078.235.182 0 .0519-.027.1168-.091.1948-2.798 3.4442-5.571 6.2645-8.134 8.448 3.227 2.7292 6.286 5.7705 9.07 9.0458.144.1689.066.325-.143.325z"/></g></svg>