<svg width="172" height="86" viewBox="0 0 172 86" fill="none" xmlns="http://www.w3.org/2000/svg">
<path fill-rule="evenodd" clip-rule="evenodd" d="M82.2864 3.15677C70.1066 4.27206 59.0917 10.9477 52.3462 21.3022C47.6787 28.4671 45.3844 37.6631 46.1426 46.1689C47.2547 58.6463 53.8293 69.5976 64.3053 76.422C71.2593 80.9524 80.1069 83.247 88.3715 82.6637C98.4181 81.9547 107.057 78.0486 114.054 71.0512C119.905 65.2001 123.65 58.0845 125.088 50.0833C126.007 44.9744 126.007 40.7908 125.088 35.682C123.156 24.9317 116.79 15.4172 107.466 9.34323C100.231 4.62995 90.9908 2.35961 82.2864 3.15677ZM90.3788 36.658C91.1651 37.0002 91.9887 37.5991 91.9887 37.8285C91.9887 38.1714 91.0643 39.4399 90.8144 39.4399C90.6933 39.4399 90.3348 39.2638 90.0178 39.0487C89.025 38.375 87.607 38.5973 87.607 39.4267C87.607 39.8081 87.9754 40.0913 89.2079 40.6578C90.7974 41.3883 91.6005 42.0025 91.9732 42.7725C92.5269 43.9159 92.3371 45.0026 91.4238 45.918C90.0019 47.3433 87.4513 47.3382 85.6569 45.9064C85.3524 45.6634 85.1032 45.4058 85.1032 45.3337C85.1032 45.0484 86.1104 43.8217 86.3426 43.8244C86.4786 43.8259 86.8997 44.0372 87.2784 44.2938C88.4505 45.088 90.0368 44.8192 89.9242 43.8455C89.8835 43.4934 89.6602 43.3234 88.4524 42.7261C86.6262 41.8229 85.9224 41.2753 85.5591 40.4752C85.2006 39.6859 85.1857 39.1375 85.502 38.3808C85.9131 37.3966 86.7002 36.7466 87.8418 36.448C88.4311 36.2938 89.8037 36.4074 90.3788 36.658ZM116.332 36.7965C118.027 37.4307 119.302 39.138 119.609 41.185C119.846 42.7663 118.894 44.9082 117.498 45.9326C116.477 46.6822 115.591 46.9668 114.274 46.9679C111.745 46.9698 109.753 45.4015 109.117 42.9075C108.795 41.6459 108.915 40.6154 109.532 39.3291C110.738 36.8156 113.567 35.7619 116.332 36.7965ZM58.9377 37.5229L58.8914 38.5792L56.6614 38.6225L54.4315 38.666V39.6723V40.6786L55.6442 40.7243L56.857 40.77V41.7872V42.8044L55.6489 42.8501L54.4407 42.8956L54.397 44.8844L54.3532 46.8731L53.5146 46.921C52.0283 47.0058 52.0841 47.2152 52.0841 41.5543C52.0841 38.8709 52.1311 36.6282 52.1885 36.571C52.2458 36.5135 53.7983 36.4666 55.6383 36.4666H58.9839L58.9377 37.5229ZM68.2821 36.7584C68.9934 37.0816 69.859 37.9945 70.1781 38.7584C70.464 39.4424 70.451 40.7195 70.1512 41.4401C70.018 41.7601 69.6206 42.3166 69.2678 42.6768L68.6267 43.3319L69.6074 44.8458C70.9726 46.9534 70.9726 46.9513 69.7421 46.9513C69.1162 46.9513 68.6189 46.8654 68.414 46.7219C68.2338 46.5956 67.7098 45.8562 67.2494 45.0788L66.4125 43.6651H65.5916H64.7707L64.7261 45.2691L64.6815 46.8731H63.586H62.4906L62.4493 41.8669C62.4265 39.1133 62.442 36.7719 62.4834 36.6636C62.5401 36.5162 63.2011 36.4675 65.107 36.47C67.2322 36.4729 67.7588 36.5207 68.2821 36.7584ZM81.4735 37.3791C81.5453 38.6352 81.5021 38.6574 78.9811 38.6574H76.8093V39.668V40.6786L78.0221 40.7243L79.2349 40.77L79.2812 41.8263L79.3274 42.8826H78.0684H76.8093V43.8216V44.7605H79.0617C80.9711 44.7605 81.3284 44.7982 81.409 45.008C81.5455 45.3637 81.5217 46.5247 81.373 46.7588C81.276 46.9117 80.4718 46.9479 77.8935 46.9153L74.5402 46.8731L74.4989 41.8669C74.4761 39.1133 74.492 36.7705 74.5343 36.6605C74.5941 36.5048 75.3657 36.4699 78.0184 36.5026L81.4257 36.5448L81.4735 37.3791ZM98.3702 38.6183L98.4138 40.6918H100.517H102.621L102.665 38.6183L102.708 36.5448H103.804H104.899V41.709V46.8731L104.018 46.9194C102.72 46.9878 102.63 46.8476 102.63 44.7494V43.0391H100.522H98.4145L98.3705 44.9561L98.3265 46.8731H97.2311H96.1357L96.0944 41.8669C96.0715 39.1133 96.0883 36.7686 96.1313 36.6564C96.1876 36.5096 96.5075 36.4652 97.268 36.4985L98.3265 36.5448L98.3702 38.6183ZM64.7597 40.0658V41.4742H66.0187C67.1468 41.4742 67.3177 41.4343 67.6618 41.09C67.9446 40.8074 68.046 40.5369 68.046 40.0658C68.046 39.5948 67.9446 39.3242 67.6618 39.0416C67.3177 38.6973 67.1468 38.6574 66.0187 38.6574H64.7597V40.0658ZM112.996 38.9161C112.011 39.4017 111.241 40.6318 111.238 41.7248C111.235 42.7474 112.07 44.0303 113.018 44.4611C115.943 45.7892 118.621 42.2213 116.567 39.7341C116.309 39.4227 115.857 39.0529 115.561 38.9125C114.879 38.5887 113.656 38.5905 112.996 38.9161ZM117.871 51.7371C117.923 51.8732 117.966 52.2555 117.966 52.5865C117.966 53.6473 117.86 53.6803 114.446 53.6803C112.781 53.6803 111.308 53.6376 111.171 53.5853C110.981 53.5124 110.924 53.2578 110.924 52.4899V51.4895H114.35C117.33 51.4895 117.788 51.5217 117.871 51.7371Z" fill="#0F9B49"/>
</svg>
