<svg fill="none" height="86" viewBox="0 0 172 86" width="172" xmlns="http://www.w3.org/2000/svg"><g fill="#161312"><path d="m50.5347 40.5424h-9.8317c-.2537 0-.4593.2059-.4593.46v4.8065c0 .2537.2056.4603.4593.4603h3.8353v5.9721s-.8611.2937-3.2422.2937c-2.8088 0-6.7328-1.0265-6.7328-9.6554 0-8.6302 4.0861-9.7658 7.922-9.7658 3.3208 0 4.7511.5843 5.6616.866.2862.0877.5506-.1969.5506-.4509l1.0966-4.6445c0-.1186-.0403-.2618-.1754-.3589-.3697-.2635-2.625-1.5254-8.3226-1.5254-6.5633 0-13.2961 2.7922-13.2961 16.2163s7.7083 15.4245 14.204 15.4245c5.3783 0 8.641-2.2982 8.641-2.2982.1344-.0744.1491-.2622.1491-.3486v-14.9917c0-.2541-.2057-.46-.4594-.46z"/><path d="m101.204 28.6084c0-.2556-.203-.4622-.457-.4622h-5.5357c-.2527 0-.4583.2066-.4583.4622 0 .0013.0016 10.6984.0016 10.6984h-8.6292v-10.6984c0-.2556-.2034-.4622-.4567-.4622h-5.5355c-.2518 0-.4574.2066-.4574.4622v28.9681c0 .2556.2056.4635.4574.4635h5.5355c.2533 0 .4567-.2079.4567-.4635v-12.3905h8.6292s-.0153 12.3895-.0153 12.3905c0 .2556.2053.4635.4587.4635h5.549c.254 0 .456-.2079.457-.4635z"/><path d="m60.9812 32.4095c0-1.9932-1.5979-3.6041-3.5696-3.6041-1.9698 0-3.5693 1.6109-3.5693 3.6041 0 1.9915 1.5995 3.6066 3.5693 3.6066 1.9717 0 3.5696-1.6151 3.5696-3.6066z"/><path d="m60.5855 51.4659c0-.7426 0-13.3718 0-13.3718 0-.2541-.205-.4616-.458-.4616h-5.5186c-.2531 0-.4795.2611-.4795.5148v19.1578c0 .5629.3508.7305.8046.7305h4.9719c.5457 0 .6796-.2679.6796-.7396 0-1.0268 0-5.0496 0-5.8301z"/><path d="m122.242 37.6758h-5.493c-.252 0-.457.2079-.457.4632v14.204s-1.396 1.021-3.377 1.021c-1.98 0-2.506-.8988-2.506-2.8384 0-1.9419 0-12.3866 0-12.3866 0-.2553-.205-.4632-.457-.4632h-5.575c-.252 0-.458.2079-.458.4632v13.3247c0 5.761 3.211 7.1701 7.627 7.1701 3.624 0 6.546-2.0016 6.546-2.0016s.139 1.055.202 1.1801c.063.1247.227.2508.404.2508l3.547-.016c.251 0 .457-.2079.457-.4622l-.001-19.4459c0-.2553-.205-.4632-.459-.4632z"/><path d="m135.09 53.3467c-1.906-.0578-3.198-.9225-3.198-.9225v-9.1736s1.275-.7816 2.839-.9213c1.978-.177 3.884.4204 3.884 5.1396 0 4.9761-.86 5.9584-3.525 5.8778zm2.166-16.3213c-3.12 0-5.242 1.3923-5.242 1.3923v-9.8094c0-.2556-.204-.4622-.457-.4622h-5.551c-.253 0-.458.2066-.458.4622v28.9681c0 .2556.205.4635.458.4635h3.852c.174 0 .305-.0893.402-.2459.096-.1559.234-1.3357.234-1.3357s2.27 2.1511 6.567 2.1511c5.045 0 7.939-2.5587 7.939-11.4878 0-8.9294-4.621-10.0962-7.744-10.0962z"/><path d="m76.4953 37.6299h-4.1527s-.0062-5.4849-.0062-5.4858c0-.2079-.1072-.3115-.3472-.3115h-5.6586c-.2203 0-.3382.0968-.3382.3082v5.669s-2.8358.6845-3.0278.74c-.1906.0552-.3313.2313-.3313.4415v3.5624c0 .2563.2046.4629.4577.4629h2.9014v8.5704c0 6.3658 4.4652 6.9911 7.478 6.9911 1.377 0 3.0239-.4421 3.2958-.5425.1644-.0604.2599-.2309.2599-.4154l.0048-3.9191c0-.2554-.216-.4623-.459-.4623-.2423 0-.8611.0984-1.4984.0984-2.04 0-2.7309-.9481-2.7309-2.176 0-1.2266-.0003-8.1446-.0003-8.1446h4.153c.253 0 .458-.2066.458-.4629v-4.4622c0-.2557-.205-.4616-.458-.4616z"/><path d="m50.5347 40.5424h-9.8317c-.2537 0-.4593.2059-.4593.46v4.8065c0 .2537.2056.4603.4593.4603h3.8353v5.9721s-.8611.2937-3.2422.2937c-2.8088 0-6.7328-1.0265-6.7328-9.6554 0-8.6302 4.0861-9.7658 7.922-9.7658 3.3208 0 4.7511.5843 5.6616.866.2862.0877.5506-.1969.5506-.4509l1.0966-4.6445c0-.1186-.0403-.2618-.1754-.3589-.3697-.2635-2.625-1.5254-8.3226-1.5254-6.5633 0-13.2961 2.7922-13.2961 16.2163s7.7083 15.4245 14.204 15.4245c5.3783 0 8.641-2.2982 8.641-2.2982.1344-.0744.1491-.2622.1491-.3486v-14.9917c0-.2541-.2057-.46-.4594-.46z"/><path d="m101.204 28.6084c0-.2556-.203-.4622-.457-.4622h-5.5357c-.2527 0-.4583.2066-.4583.4622 0 .0013.0016 10.6984.0016 10.6984h-8.6292v-10.6984c0-.2556-.2034-.4622-.4567-.4622h-5.5355c-.2518 0-.4574.2066-.4574.4622v28.9681c0 .2556.2056.4635.4574.4635h5.5355c.2533 0 .4567-.2079.4567-.4635v-12.3905h8.6292s-.0153 12.3895-.0153 12.3905c0 .2556.2053.4635.4587.4635h5.549c.254 0 .456-.2079.457-.4635z"/><path d="m60.5855 51.4659c0-.7426 0-13.3718 0-13.3718 0-.2541-.205-.4616-.458-.4616h-5.5186c-.2531 0-.4795.2611-.4795.5148v19.1578c0 .5629.3508.7305.8046.7305h4.9719c.5457 0 .6796-.2679.6796-.7396 0-1.0268 0-5.0496 0-5.8301z"/><path d="m122.242 37.6758h-5.493c-.252 0-.457.2079-.457.4632v14.204s-1.396 1.021-3.377 1.021c-1.98 0-2.506-.8988-2.506-2.8384 0-1.9419 0-12.3866 0-12.3866 0-.2553-.205-.4632-.457-.4632h-5.575c-.252 0-.458.2079-.458.4632v13.3247c0 5.761 3.211 7.1701 7.627 7.1701 3.624 0 6.546-2.0016 6.546-2.0016s.139 1.055.202 1.1801c.063.1247.227.2508.404.2508l3.547-.016c.251 0 .457-.2079.457-.4622l-.001-19.4459c0-.2553-.205-.4632-.459-.4632z"/><path d="m135.09 53.3467c-1.906-.0578-3.198-.9225-3.198-.9225v-9.1736s1.275-.7816 2.839-.9213c1.978-.177 3.884.4204 3.884 5.1396 0 4.9761-.86 5.9584-3.525 5.8778zm2.166-16.3213c-3.12 0-5.242 1.3923-5.242 1.3923v-9.8094c0-.2556-.204-.4622-.457-.4622h-5.551c-.253 0-.458.2066-.458.4622v28.9681c0 .2556.205.4635.458.4635h3.852c.174 0 .305-.0893.402-.2459.096-.1559.234-1.3357.234-1.3357s2.27 2.1511 6.567 2.1511c5.045 0 7.939-2.5587 7.939-11.4878 0-8.9294-4.621-10.0962-7.744-10.0962z"/><path d="m76.4953 37.6299h-4.1527s-.0062-5.4849-.0062-5.4858c0-.2079-.1072-.3115-.3472-.3115h-5.6586c-.2203 0-.3382.0968-.3382.3082v5.669s-2.8358.6845-3.0278.74c-.1906.0552-.3313.2313-.3313.4415v3.5624c0 .2563.2046.4629.4577.4629h2.9014v8.5704c0 6.3658 4.4652 6.9911 7.478 6.9911 1.377 0 3.0239-.4421 3.2958-.5425.1644-.0604.2599-.2309.2599-.4154l.0048-3.9191c0-.2554-.216-.4623-.459-.4623-.2423 0-.8611.0984-1.4984.0984-2.04 0-2.7309-.9481-2.7309-2.176 0-1.2266-.0003-8.1446-.0003-8.1446h4.153c.253 0 .458-.2066.458-.4629v-4.4622c0-.2557-.205-.4616-.458-.4616z"/></g></svg>