<svg fill="none" height="86" viewBox="0 0 172 86" width="172" xmlns="http://www.w3.org/2000/svg" xmlns:xlink="http://www.w3.org/1999/xlink"><clipPath id="a"><path d="m18 20h137v46h-137z"/></clipPath><g clip-path="url(#a)"><path d="m76.7325 44.1143c0 6.5269-5.069 11.3364-11.2899 11.3364-6.2208 0-11.2898-4.8095-11.2898-11.3364 0-6.5729 5.069-11.3365 11.2898-11.3365 6.2209 0 11.2899 4.7636 11.2899 11.3365zm-4.9422 0c0-4.0787-2.9379-6.8694-6.3477-6.8694-3.4097 0-6.3476 2.7907-6.3476 6.8694 0 4.0378 2.9379 6.8693 6.3476 6.8693 3.4098 0 6.3477-2.8367 6.3477-6.8693z" fill="#ea4335"/><path d="m101.088 44.1143c0 6.5269-5.0691 11.3364-11.2899 11.3364s-11.2898-4.8095-11.2898-11.3364c0-6.5678 5.069-11.3365 11.2898-11.3365s11.2899 4.7636 11.2899 11.3365zm-4.9422 0c0-4.0787-2.9379-6.8694-6.3477-6.8694s-6.3476 2.7907-6.3476 6.8694c0 4.0378 2.9378 6.8693 6.3476 6.8693s6.3477-2.8367 6.3477-6.8693z" fill="#fbbc05"/><path d="m124.428 33.4627v20.3525c0 8.372-4.901 11.7913-10.696 11.7913-5.454 0-8.737-3.6749-9.975-6.6802l4.303-1.8042c.766 1.8451 2.643 4.0224 5.667 4.0224 3.709 0 6.008-2.3051 6.008-6.6444v-1.6305h-.173c-1.106 1.3749-3.237 2.576-5.926 2.576-5.627 0-10.782-4.9373-10.782-11.2904 0-6.3991 5.155-11.3774 10.782-11.3774 2.684 0 4.815 1.2011 5.926 2.5351h.173v-1.8451h4.693zm-4.343 10.6925c0-3.9918-2.644-6.9103-6.008-6.9103-3.409 0-6.266 2.9185-6.266 6.9103 0 3.9509 2.857 6.8284 6.266 6.8284 3.364 0 6.008-2.8775 6.008-6.8284z" fill="#4285f4"/><path d="m132.167 21.5334v33.2223h-4.821v-33.2223z" fill="#34a853"/><path d="m150.951 47.8454 3.836 2.576c-1.238 1.8451-4.222 5.0242-9.377 5.0242-6.393 0-11.168-4.9782-11.168-11.3365 0-6.7415 4.815-11.3364 10.615-11.3364 5.84 0 8.697 4.6818 9.631 7.2118l.512 1.288-15.044 6.2764c1.151 2.2745 2.943 3.4347 5.454 3.4347 2.517 0 4.262-1.2471 5.541-3.1382zm-11.807-4.0787 10.057-4.2064c-.554-1.4158-2.218-2.4023-4.176-2.4023-2.512 0-6.008 2.2336-5.881 6.6087z" fill="#ea4335"/><path d="m35.9064 41.1651v-4.8095h16.0898c.1573.8382.2385 1.8297.2385 2.9031 0 3.6084-.9793 8.0704-4.1353 11.2495-3.0699 3.22-6.9921 4.9374-12.188 4.9374-9.6306 0-17.7288-7.9018-17.7288-17.6027s8.0982-17.6027 17.7288-17.6027c5.3278 0 9.1232 2.1058 11.9748 4.8505l-3.3691 3.3938c-2.0449-1.932-4.8153-3.4347-8.6107-3.4347-7.0327 0-12.533 5.7091-12.533 12.7931s5.5003 12.7931 12.533 12.7931c4.5616 0 7.1595-1.8451 8.8238-3.5215 1.3497-1.3596 2.2376-3.3018 2.5878-5.9545z" fill="#4285f4"/></g></svg>