<svg fill="none" height="86" viewBox="0 0 172 86" width="172" xmlns="http://www.w3.org/2000/svg"><g clip-rule="evenodd" fill-rule="evenodd"><path d="m104.313 23.6933c-1.28-1.4921-1.318-3.2163 0-4.5957 1.279-1.3031 2.936-1.3396 4.522 0zm-20.8341 21.1912c-1.282-1.4938-1.3202-3.2544 0-4.599 1.2804-1.3014 2.9389-1.3396 4.5577 0zm16.6521-.3813 4.672-4.7515-5.0455-5.1362c-4.1066-4.1779-2.9025-6.3978-1.9571-7.3561.6004-.6134 1.2041-1.0726 1.6204-1.3031.579 1.1505 1.3422 2.1988 2.2592 3.1036 4.892 5.0201 10.246 4.3271 14.353.1177 2.449-2.4935 3.619-4.7913 3.917-5.9419l-4.03-2.2597c-.488 1.071-1.621 2.9129-2.898 4.2144-2.224 2.2978-4.337 2.2978-5.765 1.1108l8.406-8.5067-1.055-1.0727c-4.942-5.0565-9.53-5.3268-13.678-1.1107-2.7482 2.7952-3.1263 6.2452-1.9222 9.387l-3.0899-3.7154c-.3002.1161-.8657.5736-1.4313 1.1489-1.6204 1.6861-1.9969 4.2907-1.5806 6.0149l-2.0764-1.7988-4.1033 4.1762 5.6473 5.7479c-4.4813-3.7551-8.5132-3.5645-12.24.2288-3.7682 3.8297-3.5426 8.5083-.4146 12.4127l-.5291-.5339c-3.3519-3.4119-6.591-4.1431-9.7953-.8455-1.8841 1.8784-2.1843 3.717-1.9969 5.3666l-7.9112-8.0109-4.6008 4.6752 15.2934 15.5975h9.3459l-6.4418-6.5537c-2.2606-2.2613-2.9389-3.8314-1.5457-5.2489 1.0166-1.0726 2.1859-1.0361 3.6156.4195l7.7619 7.933 4.6721-4.7499-5.8016-5.9004c4.5942 3.8712 9.6063 2.9146 13.4126-.9947 1.9986-1.9912 3.0882-3.8331 3.619-5.0964l-4.1099-2.3343c-.602 1.071-1.5059 2.4122-2.4845 3.4484-2.2622 2.2962-4.3702 2.2962-5.7999 1.1075l8.3259-8.4669 5.3833 5.4777z" fill="#3f454d"/><path d="m52 65.3745 9.3774 9.5395 9.379-9.5395z" fill="#00afaa"/></g></svg>