<svg width="172" height="86" viewBox="0 0 172 86" fill="none" xmlns="http://www.w3.org/2000/svg">
<path d="M69.6025 57.7005L54.9578 43.0396L43.9492 32.0188L29.3045 17.358C27.8418 15.9021 25.8629 15.085 23.8002 15.085C21.7376 15.085 19.7587 15.9021 18.2959 17.358C16.8417 18.8224 16.0254 20.8034 16.0254 22.8684C16.0254 24.9333 16.8417 26.9144 18.2959 28.3788L29.5052 39.6004C29.9564 40.0521 30.3142 40.5882 30.5584 41.1783C30.8025 41.7684 30.9282 42.4009 30.9282 43.0396C30.9282 43.6783 30.8025 44.3108 30.5584 44.9009C30.3142 45.491 29.9564 46.0271 29.5052 46.4788L18.2959 57.7004C16.8417 59.1648 16.0254 61.1459 16.0254 63.2108C16.0254 65.2758 16.8417 67.2568 18.2959 68.7212C19.7587 70.1771 21.7376 70.9943 23.8002 70.9943C25.8629 70.9943 27.8418 70.1771 29.3045 68.7212L43.9492 54.0603L58.5939 68.7212C60.0567 70.1771 62.0355 70.9943 64.0982 70.9943C66.1609 70.9943 68.1397 70.1771 69.6025 68.7212C71.0567 67.2568 71.873 65.2758 71.873 63.2108C71.873 61.1459 71.0567 59.1649 69.6025 57.7005Z" fill="#F15B5B"/>
<path d="M43.9492 54.0606L58.5939 68.7214C60.0567 70.1773 62.0355 70.9945 64.0982 70.9945C66.1609 70.9945 68.1397 70.1773 69.6025 68.7214C71.0568 67.257 71.873 65.276 71.873 63.211C71.873 61.1461 71.0568 59.165 69.6025 57.7006L65.9664 54.0606C64.5208 52.6133 62.8045 51.4653 60.9156 50.682C59.0268 49.8987 57.0023 49.4956 54.9578 49.4956C52.9133 49.4956 50.8889 49.8987 49 50.682C47.1112 51.4653 45.3949 52.6133 43.9492 54.0606Z" fill="#D29AC5"/>
<path d="M69.6028 17.358C68.14 15.9021 66.1612 15.085 64.0985 15.085C62.0358 15.085 60.057 15.9021 58.5942 17.358L52.2204 23.7389C50.7606 25.2003 49.9404 27.1825 49.9404 29.2492C49.9404 31.316 50.7606 33.2982 52.2204 34.7596C53.6802 36.2211 55.6602 37.0421 57.7247 37.0421C59.7892 37.0421 61.7692 36.2211 63.229 34.7596L69.6028 28.3788C71.057 26.9144 71.8733 24.9333 71.8733 22.8684C71.8733 20.8034 71.057 18.8224 69.6028 17.358Z" fill="#71CFEC"/>
<path d="M127.859 52.1807C127.897 52.8247 127.68 53.4578 127.255 53.9425C126.83 54.4272 126.23 54.7244 125.588 54.7695H112.059C111.404 54.7683 110.776 54.5067 110.313 54.0422C109.85 53.5776 109.59 52.9482 109.591 52.2921V33.7875C109.59 33.1313 109.85 32.5019 110.313 32.0374C110.776 31.5728 111.404 31.3113 112.059 31.3101H125.588C126.216 31.3919 126.792 31.6997 127.21 32.1761C127.628 32.6524 127.859 33.2648 127.859 33.8988C127.859 34.5328 127.628 35.1451 127.21 35.6215C126.792 36.0979 126.216 36.4057 125.588 36.4875H117.694C117.487 36.4907 117.283 36.5345 117.094 36.6167C116.904 36.6988 116.732 36.8176 116.588 36.9662C116.444 37.1148 116.331 37.2903 116.255 37.4827C116.179 37.6752 116.142 37.8807 116.145 38.0876V38.9836C116.142 39.1906 116.179 39.3961 116.255 39.5886C116.331 39.781 116.444 39.9565 116.588 40.1051C116.732 40.2537 116.904 40.3725 117.094 40.4546C117.283 40.5367 117.487 40.5806 117.694 40.5838H123.452C123.934 40.6057 124.395 40.7895 124.76 41.1056C125.125 41.4216 125.373 41.8515 125.464 42.326C125.526 42.5598 125.558 42.8008 125.557 43.0428C125.558 43.2086 125.544 43.3741 125.514 43.5372C125.457 44.0551 125.219 44.5362 124.842 44.8949C124.464 45.2535 123.972 45.4664 123.452 45.4958H117.694C117.487 45.4989 117.283 45.5427 117.094 45.6249C116.904 45.707 116.732 45.8257 116.588 45.9744C116.444 46.123 116.331 46.2985 116.255 46.4909C116.179 46.6834 116.142 46.889 116.145 47.0959V47.9919C116.142 48.1988 116.179 48.4044 116.255 48.5968C116.331 48.7892 116.444 48.9648 116.588 49.1134C116.732 49.262 116.904 49.3807 117.094 49.4628C117.283 49.545 117.487 49.5889 117.694 49.592H125.588C126.23 49.6371 126.83 49.9342 127.255 50.419C127.68 50.9037 127.897 51.5368 127.859 52.1807Z" fill="black"/>
<path d="M111.918 43.0366C111.845 43.0447 111.77 43.0447 111.696 43.0366H111.918Z" fill="#00FF00"/>
<path d="M104.434 34.1919V51.8871C104.434 53.4749 102.971 54.7664 101.169 54.7664C99.3666 54.7664 97.904 53.4749 97.904 51.8871V47.6859C97.904 47.1517 97.692 46.6394 97.3147 46.2616C96.9374 45.8839 96.4257 45.6716 95.8921 45.6715H92.1273C91.5938 45.6717 91.0821 45.884 90.7048 46.2617C90.3275 46.6394 90.1156 47.1517 90.1155 47.6859V51.8871C90.1155 53.4749 88.6528 54.7664 86.8507 54.7664C85.0487 54.7664 83.5859 53.4749 83.5859 51.8871V34.1919C83.5859 32.5979 85.0487 31.313 86.8507 31.313C88.6528 31.313 90.1155 32.5979 90.1155 34.1919V38.2698C90.1156 38.8039 90.3276 39.3161 90.7049 39.6938C91.0821 40.0715 91.5938 40.2837 92.1273 40.2838H95.8921C96.4256 40.2837 96.9373 40.0715 97.3146 39.6938C97.6919 39.3162 97.9039 38.8039 97.904 38.2698V34.1919C97.904 32.5979 99.3666 31.313 101.169 31.313C102.971 31.313 104.434 32.5979 104.434 34.1919Z" fill="black"/>
<path d="M155.563 53.8189C155.258 54.1311 154.896 54.3803 154.495 54.5521C154.095 54.7239 153.664 54.8151 153.229 54.8203C152.793 54.8256 152.361 54.7449 151.956 54.5828C151.552 54.4208 151.183 54.1805 150.871 53.8758L145.879 48.8778C145.739 48.7314 145.571 48.6149 145.385 48.5353C145.199 48.4557 144.999 48.4147 144.796 48.4147C144.594 48.4148 144.394 48.4558 144.208 48.5354C144.022 48.6151 143.854 48.7316 143.714 48.878L138.709 53.8889C138.073 54.4919 137.227 54.8227 136.351 54.8108C135.476 54.799 134.639 54.4454 134.02 53.8254C133.4 53.2054 133.047 52.368 133.035 51.4913C133.024 50.6145 133.354 49.7678 133.956 49.1313L138.936 44.1464C139.222 43.8496 139.383 43.4537 139.385 43.0412C139.382 42.6283 139.223 42.232 138.94 41.9314L133.965 36.9508C133.361 36.3147 133.029 35.4674 133.04 34.5896C133.051 33.7118 133.404 32.8731 134.024 32.2524C134.644 31.6316 135.482 31.278 136.359 31.267C137.236 31.256 138.082 31.5884 138.717 32.1933L143.719 37.2001C143.858 37.3462 144.025 37.4628 144.21 37.5431C144.395 37.6234 144.595 37.6656 144.796 37.6674C144.998 37.6666 145.198 37.6247 145.383 37.5444C145.569 37.4641 145.736 37.3469 145.874 37.2L150.884 32.1935C151.513 31.5814 152.358 31.2433 153.234 31.2531C154.111 31.2629 154.948 31.6198 155.563 32.2457L155.571 32.2545L155.58 32.2632C156.206 32.878 156.563 33.7162 156.573 34.5941C156.583 35.4721 156.245 36.3181 155.632 36.9467L150.653 41.9314C150.37 42.232 150.211 42.6283 150.208 43.0412C150.21 43.4538 150.371 43.8496 150.657 44.1465L155.624 49.1183C156.238 49.75 156.576 50.5999 156.565 51.4813C156.553 52.3627 156.193 53.2035 155.563 53.8189Z" fill="black"/>
</svg>
