<svg fill="none" height="86" viewBox="0 0 172 86" width="172" xmlns="http://www.w3.org/2000/svg" xmlns:xlink="http://www.w3.org/1999/xlink"><clipPath id="a"><path d="m0 29h172v28.3176h-172z"/></clipPath><g clip-path="url(#a)"><path clip-rule="evenodd" d="m133.363 43.6562c0 2.2318-.885 3.9958-3.448 3.9958s-3.448-1.764-3.448-3.9958v-6.7846h-1.759v7.0478c0 2.385.946 5.4914 5.207 5.4914s5.207-3.1064 5.207-5.4903v-7.0489h-1.76v6.7846zm19.956-.5863c0-2.8443-2.136-4.429-4.824-4.429h-3.185v8.858h3.185c2.688 0 4.824-1.5836 4.824-4.429zm1.783 0c0 3.9812-2.904 6.1983-6.485 6.1983h-5.066v-12.3955h5.065c3.582 0 6.485 2.2171 6.485 6.1983zm-85.2805.8852-2.3136-5.3142-2.3136 5.3142zm-1.4337-7.0835 5.5932 12.3966h-1.8459l-1.5438-3.5428h-6.1668l-1.5417 3.5439h-1.8123l5.5753-12.3977zm10.4669 1.7693h4.2129v10.6284h1.7588v-10.6284h4.213v-1.7693h-10.1847zm27.7993 0h4.213v10.6284h1.758v-10.6284h4.213v-1.7693h-10.184zm-9.688 10.6284h1.7599v-12.3977h-1.7599v12.3966zm74.782-10.6284v-1.7693h-8.935v12.3966h8.935v-1.7693h-7.177v-3.5438h6.175v-1.7693h-6.175v-3.5449zm-124.1543-1.7693h-1.7599v12.3966h8.9367v-1.7693h-7.1768zm-42.63926-7.8711h-4.95444v28.3171h28.3171v-4.9555h-23.36161v-23.3616zm13.09616 4.9555c1.3681 0 2.4772-1.1091 2.4772-2.4772s-1.1091-2.4772-2.4772-2.4772c-1.3682 0-2.4773 1.1091-2.4773 2.4772s1.1091 2.4772 2.4773 2.4772zm7.7882 10.62c-1.3681 0-2.4772 1.1091-2.4772 2.4772s1.1091 2.4772 2.4772 2.4772 2.4772-1.1091 2.4772-2.4772-1.1091-2.4772-2.4772-2.4772zm-15.5733-10.62c1.3684 0 2.4777-1.1093 2.4777-2.4777 0-1.3685-1.1093-2.4778-2.4777-2.4778-1.36846 0-2.47778 1.1093-2.47778 2.4778 0 1.3684 1.10932 2.4777 2.47778 2.4777zm15.5744 2.8317c-.8974-.0184-1.7346.4497-2.1887 1.2239s-.4541 1.7335 0 2.5077 1.2913 1.2424 2.1887 1.2239c1.3485-.0277 2.4272-1.1289 2.4272-2.4777 0-1.3489-1.0787-2.45-2.4272-2.4778zm2.4772-5.31c0 1.3685-1.1094 2.4778-2.4778 2.4778s-2.4777-1.1093-2.4777-2.4778c0-1.3684 1.1093-2.4777 2.4777-2.4777s2.4778 1.1093 2.4778 2.4777z" fill="#0046aa" fill-rule="evenodd"/></g></svg>