<svg width="172" height="86" viewBox="0 0 172 86" fill="none" xmlns="http://www.w3.org/2000/svg">
<path d="M4 53.3673V18.7324H10.084V53.3673H4Z" fill="black"/>
<path d="M25.6586 28.2412C17.858 28.2412 12.46 34.2388 12.46 41.1037C12.46 48.7652 18.3324 54.0433 25.7192 54.0433C32.7296 54.0433 38.8131 48.8624 38.8131 41.0871C38.8131 34.5489 33.7721 28.2412 25.6586 28.2412ZM25.5869 34.1103C29.6692 34.1103 32.6739 37.288 32.6739 41.1257C32.6739 45.1947 29.3611 48.1631 25.6971 48.1631C21.3678 48.1631 18.6432 44.7317 18.6432 41.1367C18.6432 37.1962 21.7193 34.1103 25.5869 34.1103Z" fill="black"/>
<path d="M54.099 28.2412C46.2985 28.2412 40.9004 34.2388 40.9004 41.1037C40.9004 48.7652 46.7729 54.0433 54.1596 54.0433C61.1701 54.0433 67.2535 48.8624 67.2535 41.0871C67.2535 36.5085 65.2707 34.4769 65.2707 34.4769L66.957 33.8986V28.9609H58.3159C58.3159 28.9609 56.4426 28.2412 54.099 28.2412ZM54.0274 34.1103C58.1096 34.1103 61.1144 37.288 61.1144 41.1257C61.1144 45.1947 57.8015 48.1631 54.1376 48.1631C49.8082 48.1631 47.0836 44.7317 47.0836 41.1367C47.0836 37.1962 50.1597 34.1103 54.0274 34.1103Z" fill="black"/>
<path d="M61.0714 55.0605C61.0714 59.1296 57.7586 62.12 54.0946 62.12C49.7652 62.12 47.0296 58.6555 47.0296 55.0605H40.8574C40.8574 62.7221 46.7299 68.0002 54.1166 68.0002C61.1271 68.0002 67.2106 62.8358 67.2106 55.0605H61.0714Z" fill="black"/>
<path d="M69.6895 53.3676V28.9609H75.7735V53.3676H69.6895Z" fill="black"/>
<path d="M81.6824 53.3678V34.428H78.4199V28.9611H81.6824V21.4663H87.7664V28.9611H91.117V34.428H87.7664V53.3678H81.6824Z" fill="black"/>
<path d="M76.7481 22.0288C76.7481 24.2539 74.9443 26.0577 72.7193 26.0577C70.4942 26.0577 68.6904 24.2539 68.6904 22.0288C68.6904 19.8038 70.4942 18 72.7193 18C74.9443 18 76.7481 19.8038 76.7481 22.0288Z" fill="black"/>
<path d="M104.794 28.2246C96.9568 28.2246 91.9043 34.2254 91.9043 41.324C91.9043 48.6597 96.9736 54.0597 104.921 54.0597C112.335 54.0597 115.981 49.4306 115.981 49.4306L111.914 45.358C111.914 45.358 108.844 48.6701 104.998 48.6701C101.793 48.6701 99.2297 46.8809 98.3355 43.6H117.293V41.9247C117.293 35.24 113.424 28.2246 104.794 28.2246ZM104.601 33.5812C107.404 33.5812 110.27 35.0806 110.911 38.6623H98.1702C98.6748 36.1446 100.877 33.5812 104.601 33.5812Z" fill="black"/>
<path d="M132.511 54.0626C124.651 54.0626 119.296 48.0764 119.296 41.0183C119.296 33.7343 125.349 28.2197 132.486 28.2197C139.385 28.2197 142.917 33.0905 142.917 33.0905L138.673 37.3154C138.673 37.3154 136.214 34.1389 132.457 34.1389C128.292 34.1389 125.445 37.3248 125.445 41.1117C125.445 45.1103 128.474 48.1781 132.41 48.1781C136.228 48.1781 138.667 45.0068 138.667 45.0068L142.954 49.2294C142.954 49.2294 139.456 54.0626 132.511 54.0626Z" fill="black"/>
<path d="M145.168 53.3853V18.6445H151.252V31.4084C151.252 31.4084 153.582 28.2201 158.649 28.2201C165.02 28.2201 168.711 32.9559 168.711 39.0128V53.3853H162.627V39.9324C162.627 35.8632 160.093 34.175 157.287 34.175C154.089 34.175 151.252 35.9948 151.252 40.2473V53.3853H145.168Z" fill="black"/>
</svg>
