<svg width="172" height="86" viewBox="0 0 172 86" fill="none" xmlns="http://www.w3.org/2000/svg">
<path fill-rule="evenodd" clip-rule="evenodd" d="M21.4858 28.0243C20.4515 28.1248 19.6729 28.2565 18.7983 28.479C13.6138 29.7978 9.6302 33.7008 8.41323 38.6537C7.89524 40.7618 7.86447 42.8345 8.31957 44.963C9.19645 49.0644 12.0144 52.5912 15.924 54.4805C17.4146 55.2008 19.0196 55.6746 20.7835 55.9149C21.5282 56.0164 23.8805 56.0307 24.6125 55.9382C27.6571 55.5535 30.2305 54.4945 32.4566 52.7102C33.0212 52.2575 34.2196 51.0511 34.6443 50.5078C36.1412 48.5925 37.0696 46.4384 37.4465 44.0064C37.5326 43.4507 37.5462 43.1786 37.5462 42.0077C37.5462 40.8279 37.533 40.5667 37.4441 39.991C36.9945 37.0791 35.7072 34.4867 33.6868 32.4243C31.257 29.9439 28.1067 28.4589 24.4313 28.0613C23.8836 28.0021 21.9629 27.978 21.4858 28.0243ZM13.8554 32.1949C13.8704 32.2346 13.7284 32.4355 13.4962 32.7033C11.0397 35.5358 9.8947 39.6082 10.3656 43.8381C10.6916 46.7678 11.7548 49.2879 13.5363 51.354C13.8496 51.7173 13.9289 51.8862 13.7861 51.8862C13.7065 51.8862 13.1815 51.421 12.6488 50.8785C10.5716 48.7628 9.33946 46.1008 9.0663 43.1385C8.99987 42.4182 9.03544 40.9 9.13455 40.2249C9.46575 37.9689 10.3627 35.8879 11.772 34.105C12.3091 33.4256 13.6317 32.1293 13.7879 32.1293C13.8113 32.1293 13.8417 32.1589 13.8554 32.1949ZM32.1902 32.4137C32.3716 32.5701 32.7283 32.9123 32.9829 33.174C35.7769 36.0459 37.024 39.9849 36.4123 44.0064C36.0259 46.5472 34.8037 48.9718 32.9564 50.8626C32.4433 51.3877 31.8626 51.8937 31.7981 51.8719C31.6836 51.8333 31.7434 51.7042 32.0257 51.3808C33.2961 49.9255 34.3058 48.0039 34.8034 46.0947C35.1391 44.8068 35.2615 43.8878 35.2941 42.4124C35.3533 39.7268 34.9237 37.6141 33.8804 35.4604C33.3396 34.3441 32.8204 33.5485 32.0438 32.646C31.8386 32.4075 31.7271 32.2412 31.7434 32.198C31.7856 32.0866 31.8432 32.1144 32.1902 32.4137ZM81.4596 35.0305C78.8734 35.3641 76.6923 37.1438 75.845 39.612C75.5657 40.4257 75.4795 40.984 75.4788 41.9848C75.478 42.9586 75.5454 43.4517 75.7831 44.2132C76.1211 45.2958 76.6454 46.1615 77.4687 46.9958C78.4702 48.0107 79.5363 48.5901 80.9838 48.9061C81.3922 48.9953 81.5945 49.01 82.4112 49.0103C83.2909 49.0107 83.4029 49.0012 83.8929 48.8845C85.4996 48.5019 86.7973 47.6502 87.7702 46.3395C87.9838 46.0518 88.0124 45.9911 87.9582 45.9408C87.6985 45.6996 86.5435 44.8535 86.5174 44.8854C86.4994 44.9074 86.3954 45.0459 86.2861 45.1934C85.5337 46.2086 84.523 46.8794 83.3857 47.1183C82.8028 47.2407 81.7395 47.2133 81.1684 47.061C79.4784 46.6107 78.2094 45.414 77.6829 43.7741C77.4887 43.1693 77.4287 42.7523 77.4287 42.0077C77.4287 41.2632 77.4887 40.8462 77.6829 40.2414C78.213 38.5903 79.4729 37.4077 81.1929 36.9467C81.5488 36.8514 81.6929 36.8391 82.4339 36.8417C83.1504 36.8442 83.3248 36.8592 83.6347 36.9453C84.0787 37.0687 84.7588 37.3955 85.129 37.6634C85.4639 37.9056 86.0197 38.4625 86.2877 38.8242C86.3961 38.9705 86.4994 39.1081 86.5174 39.1301C86.5436 39.162 87.6996 38.3152 87.9588 38.0741C88.0137 38.0231 87.975 37.9497 87.6984 37.5815C86.6503 36.1862 85.0811 35.2695 83.3256 35.027C82.9119 34.9698 81.9155 34.9717 81.4596 35.0305ZM95.3938 35.0062C95.0672 35.0468 94.3174 35.2204 93.9946 35.3301C92.6907 35.7731 91.4185 36.7316 90.6357 37.8607C89.3328 39.7401 88.9916 42.1041 89.7076 44.2904C90.5522 46.8691 92.7774 48.7048 95.415 48.9989C96.0082 49.065 97.0214 49.0192 97.5585 48.902C98.1406 48.775 98.7119 48.5739 99.2091 48.3212C99.6234 48.1107 100.365 47.6257 100.471 47.4956C100.501 47.4592 100.555 47.4294 100.591 47.4294C100.627 47.4294 100.98 47.7295 101.375 48.0963L102.092 48.7632L103.408 48.751L104.724 48.7389L103.258 47.3894L101.791 46.0399L101.953 45.7841C102.181 45.4226 102.526 44.6695 102.664 44.2338C102.922 43.4196 103.031 42.5758 102.992 41.7091C102.958 40.9473 102.865 40.4203 102.645 39.7516C102.287 38.6581 101.767 37.8039 100.97 36.9981C99.9917 36.0082 98.9139 35.4124 97.5585 35.1122C97.1483 35.0213 95.802 34.9553 95.3938 35.0062ZM44.8681 42.0077V48.7618H45.7969H46.7257L46.7372 43.057L46.7487 37.3521L46.9052 37.7387C46.9914 37.9514 48.0355 40.5134 49.2256 43.4321L51.3893 48.7389H52.2332H53.0771L54.9321 44.1902C55.9523 41.6884 56.9958 39.1279 57.251 38.5002L57.7148 37.3589L57.7263 43.0603L57.7378 48.7618H58.6666H59.5953V42.0077V35.2537H58.132H56.6686L55.9946 36.9192C55.6239 37.8353 54.8476 39.7529 54.2694 41.1807C53.6912 42.6085 52.9981 44.3214 52.7292 44.9871C52.4288 45.7303 52.2272 46.1736 52.2068 46.1357C52.1885 46.1018 51.6505 44.7817 51.0112 43.2023C50.3719 41.623 49.3862 39.1884 48.8206 37.7922L47.7924 35.2537H46.3302H44.8681V42.0077ZM67.2456 35.5628C67.1058 35.8756 66.3298 37.5893 65.1697 40.1469C63.0886 44.7353 61.4309 48.3977 61.3583 48.5674L61.2744 48.7636L62.2518 48.7512L63.2292 48.7389L64.0079 46.9929L64.7866 45.2469H68.1815H71.5763L72.3564 46.9929L73.1365 48.7389L74.1145 48.7512L75.0926 48.7636L74.9857 48.5215C74.9268 48.3883 73.7821 45.8603 72.4417 42.9037C71.1012 39.9471 69.7761 37.0214 69.4968 36.4023L68.989 35.2766L68.1868 35.2641L67.3847 35.2515L67.2456 35.5628ZM105.455 39.1706C105.455 41.3249 105.475 43.3396 105.499 43.6477C105.718 46.5084 107.237 48.3258 109.894 48.9057C110.309 48.9962 110.502 49.0095 111.39 49.0095C112.271 49.0095 112.472 48.9957 112.871 48.9083C114.345 48.5855 115.45 47.8988 116.19 46.8462C116.546 46.3401 116.745 45.9428 116.941 45.3462C117.262 44.3756 117.25 44.5792 117.268 39.676L117.284 35.2537H116.331H115.378L115.376 39.1246C115.375 41.2536 115.355 43.2104 115.332 43.4729C115.272 44.1459 115.135 44.6655 114.87 45.224C114.67 45.6443 114.59 45.757 114.25 46.0996C113.785 46.5675 113.342 46.8209 112.669 47.0034C112.275 47.1102 112.141 47.1233 111.413 47.1263C110.536 47.1299 110.243 47.0848 109.636 46.8534C108.416 46.3877 107.668 45.3197 107.451 43.7322C107.419 43.5039 107.402 41.9465 107.402 39.3166V35.2537H106.428H105.454L105.455 39.1706ZM124.288 35.38C124.252 35.4495 123.774 36.4988 123.226 37.7118C122.677 38.9248 121.633 41.2301 120.905 42.8348C120.177 44.4394 119.423 46.1038 119.229 46.5334C119.035 46.963 118.732 47.6333 118.554 48.0231C118.377 48.4127 118.232 48.7384 118.232 48.7467C118.232 48.755 118.668 48.7618 119.201 48.7618H120.17L120.862 47.2111C121.243 46.3583 121.597 45.5674 121.65 45.4537L121.746 45.2469H125.139H128.532L129.31 46.9929L130.088 48.7389L131.074 48.7513C131.616 48.7581 132.05 48.7477 132.038 48.7283C132.019 48.6958 130.61 45.593 129.05 42.1456C128.701 41.3748 128.233 40.3411 128.01 39.8483C127.786 39.3555 127.444 38.6008 127.25 38.1712C126.4 36.2931 126.079 35.5871 126.002 35.426L125.919 35.2537H125.136H124.352L124.288 35.38ZM133.73 42.0077V48.7618H134.704H135.678V45.9361V43.1105H137.763H139.847L141.705 45.9361L143.564 48.7618H144.675H145.786L143.934 45.9476C142.916 44.3998 142.07 43.11 142.053 43.0815C142.034 43.0471 142.157 42.9956 142.417 42.9296C143.764 42.587 144.699 41.6911 145.083 40.3767C145.254 39.789 145.286 38.9046 145.159 38.2839C144.995 37.4794 144.721 36.9388 144.219 36.4236C143.663 35.8533 142.958 35.5116 141.989 35.3437C141.501 35.2591 141.236 35.2537 137.6 35.2537H133.73V42.0077ZM148.231 42.0077V48.7618H149.205H150.179V42.0077V35.2537H149.205H148.231V42.0077ZM153.442 42.0077V48.7618H158.721H164V47.8659V46.9699H159.672H155.345V44.8334V42.6969H159.174H163.003V41.778V40.8591H159.174H155.345V38.9523V37.0456H159.627H163.909V36.1496V35.2537H158.676H153.442V42.0077ZM23.689 35.5538C26.3201 36.0142 28.3696 38.2543 28.7398 41.0742C28.816 41.6547 28.768 42.9737 28.652 43.4821C28.3593 44.7656 27.776 45.8509 26.8977 46.7461C25.4121 48.2602 23.3721 48.858 21.4179 48.3519C19.2512 47.7908 17.5179 45.9473 16.9735 43.6252C16.7248 42.5642 16.7247 41.4552 16.9732 40.3885C17.5549 37.8924 19.4712 35.9928 21.8484 35.5558C22.3174 35.4696 23.2022 35.4687 23.689 35.5538ZM18.4044 36.0076C18.4044 36.0433 18.2151 36.2655 17.9836 36.5016C16.535 37.9788 15.7779 39.8687 15.7779 42.0077C15.7779 44.1615 16.5443 46.0587 18.0108 47.535C18.2666 47.7925 18.4033 47.9635 18.3872 48.006C18.3733 48.0426 18.3432 48.0726 18.3202 48.0726C18.2972 48.0726 18.0978 47.9521 17.8769 47.8047C16.4267 46.8369 15.3646 45.5289 14.8742 44.1069C14.622 43.3757 14.539 42.856 14.539 42.0077C14.539 40.9315 14.6862 40.2521 15.1258 39.2989C15.6585 38.144 16.6051 37.0721 17.8417 36.2237C18.2456 35.9466 18.4044 35.8856 18.4044 36.0076ZM27.7721 36.2473C29.5913 37.4975 30.6527 39.0606 30.9777 40.9685C31.0685 41.5017 31.0675 42.5124 30.9755 43.0679C30.6842 44.8273 29.6386 46.4161 27.9844 47.6125C27.434 48.0106 27.256 48.1065 27.1904 48.0399C27.1479 47.9969 27.2517 47.8629 27.6605 47.4329C28.875 46.1556 29.5472 44.7229 29.7622 42.9534C30.0554 40.5391 29.2465 38.1605 27.5533 36.4584C27.1709 36.074 27.0976 35.9429 27.265 35.9429C27.3003 35.9429 27.5285 36.0798 27.7721 36.2473ZM97.0727 36.8879C98.9548 37.2499 100.391 38.6781 100.904 40.6983C101.021 41.1593 101.033 41.2743 101.033 42.0077C101.033 42.7352 101.021 42.8584 100.908 43.3007C100.786 43.7822 100.634 44.2062 100.462 44.5482L100.375 44.7224L100.177 44.5482C100.068 44.4524 99.6736 44.0905 99.3006 43.744L98.6224 43.1139L98.0051 43.7392C97.6655 44.0831 97.3877 44.3786 97.3877 44.3958C97.3877 44.4131 97.7941 44.7977 98.2909 45.2506C98.7877 45.7035 99.1955 46.0902 99.1972 46.1101C99.2026 46.1736 98.3767 46.689 98.0463 46.8284C97.4517 47.0792 97.0564 47.1623 96.3454 47.1862C95.7916 47.2048 95.6136 47.1927 95.2126 47.1094C94.6797 46.9986 94.1333 46.7786 93.6266 46.4706C93.1344 46.1716 92.3608 45.3688 92.0522 44.8367C90.8399 42.747 91.0946 40.0674 92.6665 38.3734C93.2729 37.7199 93.902 37.3021 94.6688 37.0436C95.3456 36.8154 96.3557 36.75 97.0727 36.8879ZM141.765 37.1737C142.676 37.4294 143.166 37.9632 143.294 38.8378C143.435 39.8015 143.046 40.6374 142.279 41.0201C141.693 41.3121 141.633 41.3169 138.499 41.3178L135.678 41.3186V39.1788V37.0389L138.545 37.0566C141.317 37.0736 141.422 37.0774 141.765 37.1737ZM69.5575 40.7213L70.7777 43.4551L69.4946 43.4672C68.7889 43.4739 67.6199 43.4739 66.8967 43.4672L65.5819 43.4551L66.8809 40.5413L68.1798 37.6276L68.2586 37.8075C68.3019 37.9065 68.8864 39.2177 69.5575 40.7213ZM126.449 40.5834L127.731 43.4551L125.15 43.4669C123.73 43.4734 122.561 43.4718 122.553 43.4632C122.544 43.4546 123.1 42.188 123.788 40.6486C124.476 39.1091 125.059 37.7979 125.085 37.7348C125.11 37.6716 125.139 37.6406 125.149 37.6658C125.159 37.6911 125.744 39.004 126.449 40.5834Z" fill="black"/>
</svg>
