<svg fill="none" height="86" viewBox="0 0 172 86" width="172" xmlns="http://www.w3.org/2000/svg" xmlns:xlink="http://www.w3.org/1999/xlink"><clipPath id="a"><path d="m8 27h157v33h-157z"/></clipPath><g clip-path="url(#a)"><g fill="#231f20"><path d="m58.8167 44.3913 5.9884-11.8913h4.148v22h-4.1793v-13.7141l-4.6784 9.6145h-2.651l-4.616-9.5194v13.619h-4.1482v-22h4.0858z"/><path d="m75.5084 44.5494h4.8967c-.0935-2.0558-.9044-2.9095-2.4015-2.9095-1.5907 0-2.3392 1.1068-2.4952 2.9095zm8.6707 7.369c-1.0918 1.929-2.9007 2.688-5.7076 2.688-4.6784 0-6.9241-3.0676-6.9241-7.1475v-2.1505c0-4.7756 2.3704-7.0842 6.4251-7.0842 4.3975 0 6.4247 2.5932 6.4247 7.4004v1.8026h-8.8888c.0312 2.1823.7173 3.7636 2.9317 3.7636 1.6531 0 2.1833-.506 2.7759-1.3599z"/><path d="m95.5962 47.2059v-1.9924c0-2.3086-.9045-3.5736-2.7757-3.5736-1.9651 0-2.7759 1.3914-2.7759 3.9215v1.6445c0 2.2771.6237 3.9849 2.7759 3.9849 2.2455 0 2.7757-1.7078 2.7757-3.9849zm0-14.706h3.9611v22h-3.9611v-1.0952c-.8109.759-1.8713 1.2017-3.3373 1.2017-4.0858 0-6.1754-2.9411-6.1754-7.1475v-2.1505c0-4.6175 2.464-7.0842 6.1754-7.0842 1.3411 0 2.4639.3479 3.3373 1.1069z"/><path d="m102.361 38.5089h3.992v15.9911h-3.992zm-.156-6.0089h4.304v3.9215h-4.304z"/><path d="m118.62 47.206v-1.6445c0-2.5301-.78-3.9215-2.745-3.9215-1.903 0-2.776 1.265-2.776 3.5736v1.9924c0 2.2771.53 3.9849 2.776 3.9849 2.152 0 2.745-1.7078 2.745-3.9849zm3.992.253c0 4.1114-2.059 7.1475-6.082 7.1475-1.622 0-2.714-.316-3.431-.9169v6.3104h-3.992v-21.4911h3.992v1.0436c.749-.8538 1.871-1.3282 3.462-1.3282 3.618 0 6.051 2.5616 6.051 7.0842z"/><path d="m132.912 47.8067h-2.62c-1.621 0-2.339.5377-2.339 1.7714 0 1.2017.905 1.7708 2.277 1.7708 1.809 0 2.682-.7904 2.682-2.9411zm-3.087-2.9727h3.087v-.9172c0-1.7709-.53-2.3404-2.775-2.3404-1.529 0-2.277.2216-2.932 1.2652l-2.807-1.9925c1.154-1.929 2.9-2.6249 6.113-2.6249 4.023 0 6.3 1.2017 6.3 5.7243v10.5514h-3.899v-1.5696c-.623 1.0753-1.559 1.6761-3.368 1.6761-3.244 0-5.489-1.7393-5.489-4.9651 0-3.3525 2.495-4.8073 5.77-4.8073z"/><path d="m147.867 42.9682c-.686-.8223-1.372-1.2651-3.056-1.2651-1.03 0-1.965.3163-1.965 1.2333 0 .9489.842 1.2967 2.495 1.5497 3.836.6009 5.77 2.0874 5.77 5.2183 0 3.0362-2.09 4.902-6.113 4.902-3.182 0-5.115-.7906-6.456-2.6248l3.056-2.214c.624.8541 1.403 1.3599 3.337 1.3599 1.373 0 2.215-.4742 2.215-1.2966 0-.9804-.687-1.2966-2.651-1.6128-3.244-.5379-5.614-1.9293-5.614-5.1236 0-3.0044 2.12-4.8703 6.019-4.8703 2.558 0 4.678.6009 5.895 2.6249z"/><path d="m161.714 42.9682c-.686-.8223-1.372-1.2651-3.056-1.2651-1.03 0-1.965.3163-1.965 1.2333 0 .9489.842 1.2967 2.495 1.5497 3.836.6009 5.77 2.0874 5.77 5.2183 0 3.0362-2.09 4.902-6.113 4.902-3.181 0-5.115-.7906-6.456-2.6248l3.056-2.214c.624.8541 1.404 1.3599 3.337 1.3599 1.373 0 2.215-.4742 2.215-1.2966 0-.9804-.686-1.2966-2.651-1.6128-3.244-.5379-5.614-1.9293-5.614-5.1236 0-3.0044 2.121-4.8703 6.019-4.8703 2.558 0 4.679.6009 5.895 2.6249z"/></g><path d="m18.8481 27c-5.9912 0-10.8481 4.9249-10.8481 11v22h21.6961c5.9912 0 10.848-4.9249 10.848-11v-22z" fill="#1080a8"/><path d="m35.1203 46.25h-8.136v8.25h-5.4239v-8.25h-8.1361v-5.5h8.1361v-8.25h5.4239v8.25h8.136z" fill="#fff"/></g></svg>