<svg width="172" height="86" viewBox="0 0 172 86" fill="none" xmlns="http://www.w3.org/2000/svg">
<g clip-path="url(#clip0)">
<path d="M55.6718 43.7897L62.2324 30.9422H66.7768V54.7112H62.1981V39.8944L57.0727 50.282H54.1684L49.1114 39.9971V54.7112H44.5669V30.9422H49.0431L55.6718 43.7897Z" fill="#231F20"/>
<path d="M73.9582 43.9604H79.3227C79.2202 41.7393 78.3318 40.817 76.6918 40.817C74.949 40.817 74.129 42.0129 73.9582 43.9604ZM83.4572 51.9219C82.2611 54.0061 80.2794 54.8262 77.2043 54.8262C72.0789 54.8262 69.6187 51.5119 69.6187 47.1039V44.7804C69.6187 39.6209 72.2156 37.1267 76.6576 37.1267C81.4753 37.1267 83.6962 39.9284 83.6962 45.1222V47.0697H73.9582C73.9923 49.4275 74.744 51.1359 77.1699 51.1359C78.981 51.1359 79.5619 50.5892 80.2111 49.6667L83.4572 51.9219Z" fill="#231F20"/>
<path d="M95.9655 46.8306V44.6779C95.9655 42.1837 94.9746 40.817 92.9246 40.817C90.7718 40.817 89.8834 42.3203 89.8834 45.0538V46.8306C89.8834 49.2908 90.5668 51.1359 92.9246 51.1359C95.3847 51.1359 95.9655 49.2908 95.9655 46.8306ZM95.9655 30.9421H100.305V54.7111H95.9655V53.5278C95.0771 54.3479 93.9154 54.8262 92.3094 54.8262C87.8332 54.8262 85.5439 51.6485 85.5439 47.1039V44.7804C85.5439 39.7918 88.2434 37.1267 92.3094 37.1267C93.7786 37.1267 95.0086 37.5025 95.9655 38.3225V30.9421Z" fill="#231F20"/>
<path d="M103.376 37.4343H107.75V54.7112H103.376V37.4343ZM103.205 30.9422H107.92V35.179H103.205V30.9422Z" fill="#231F20"/>
<path d="M121.188 46.8306V45.0538C121.188 42.3203 120.334 40.817 118.181 40.817C116.097 40.817 115.14 42.1837 115.14 44.678V46.8306C115.14 49.2908 115.721 51.1359 118.181 51.1359C120.539 51.1359 121.188 49.2908 121.188 46.8306ZM125.562 47.1039C125.562 51.5459 123.306 54.8262 118.899 54.8262C117.122 54.8262 115.926 54.4847 115.14 53.8356V60.6533H110.767V37.4342H115.14V38.5617C115.96 37.6392 117.19 37.1267 118.933 37.1267C122.896 37.1267 125.562 39.8943 125.562 44.7805V47.1039Z" fill="#231F20"/>
<path d="M136.847 47.4797H133.977C132.2 47.4797 131.414 48.0606 131.414 49.3935C131.414 50.6919 132.405 51.3067 133.909 51.3067C135.89 51.3067 136.847 50.4527 136.847 48.1291V47.4797ZM133.464 44.268H136.847V43.277C136.847 41.3637 136.266 40.7485 133.806 40.7485C132.132 40.7485 131.312 40.9878 130.594 42.1153L127.519 39.9626C128.783 37.8785 130.697 37.1267 134.216 37.1267C138.624 37.1267 141.118 38.425 141.118 43.3113V54.7111H136.847V53.0153C136.164 54.177 135.139 54.8262 133.157 54.8262C129.603 54.8262 127.143 52.947 127.143 49.4618C127.143 45.8397 129.877 44.268 133.464 44.268Z" fill="#231F20"/>
<path d="M153.23 42.2521C152.479 41.3637 151.727 40.8853 149.882 40.8853C148.754 40.8853 147.729 41.227 147.729 42.2178C147.729 43.2429 148.652 43.6188 150.462 43.8921C154.665 44.5413 156.784 46.1473 156.784 49.5299C156.784 52.8103 154.494 54.8262 150.087 54.8262C146.601 54.8262 144.483 53.972 143.014 51.9903L146.362 49.5983C147.046 50.521 147.9 51.0675 150.018 51.0675C151.522 51.0675 152.444 50.5552 152.444 49.6667C152.444 48.6074 151.693 48.2658 149.54 47.9241C145.986 47.343 143.39 45.8397 143.39 42.3886C143.39 39.1426 145.713 37.1267 149.984 37.1267C152.786 37.1267 155.11 37.7759 156.442 39.9626L153.23 42.2521Z" fill="#231F20"/>
<path d="M168.4 42.2521C167.648 41.3637 166.897 40.8853 165.052 40.8853C163.924 40.8853 162.899 41.227 162.899 42.2178C162.899 43.2429 163.822 43.6188 165.633 43.8921C169.835 44.5413 171.954 46.1473 171.954 49.5299C171.954 52.8103 169.665 54.8262 165.257 54.8262C161.771 54.8262 159.653 53.972 158.184 51.9903L161.532 49.5983C162.216 50.521 163.07 51.0675 165.188 51.0675C166.692 51.0675 167.614 50.5552 167.614 49.6667C167.614 48.6074 166.863 48.2658 164.71 47.9241C161.156 47.343 158.56 45.8397 158.56 42.3886C158.56 39.1426 160.883 37.1267 165.154 37.1267C167.956 37.1267 170.279 37.7759 171.612 39.9626L168.4 42.2521Z" fill="#231F20"/>
<path d="M11.8846 24.9999C5.32089 24.9999 0 30.3208 0 36.8844V60.6533H23.769C30.3325 60.6533 35.6534 55.3324 35.6534 48.7688V24.9999H11.8846Z" fill="#1080A8"/>
<path d="M29.7113 45.7978H20.7979V54.7112H14.8557V45.7978H5.94238V39.8556H14.8557V30.9422H20.7979V39.8556H29.7113V45.7978Z" fill="white"/>
</g>
<defs>
<clipPath id="clip0">
<rect width="172" height="35.6534" fill="white" transform="translate(0 25)"/>
</clipPath>
</defs>
</svg>
