<svg fill="none" height="86" viewBox="0 0 172 86" width="172" xmlns="http://www.w3.org/2000/svg" xmlns:xlink="http://www.w3.org/1999/xlink"><clipPath id="a"><path d="m0 25h172v36.7634h-172z"/></clipPath><g clip-path="url(#a)"><path d="m164.36 41.9158h-5.509v12.5922h-3.744v-12.5922h-2.63v-3.004h2.63v-2.1696c0-1.6387.537-2.9813 1.612-4.0278 1.075-1.047 2.453-1.5703 4.135-1.5703.448 0 .845.0227 1.192.068.346.0458.652.1143.917.205v3.1707c-.123-.0705-.337-.1566-.642-.2579-.306-.1007-.658-.1515-1.054-.1515-.776 0-1.371.2402-1.789.7206-.418.4805-.627 1.1911-.627 2.1313v1.8815h5.509v-3.5046l3.715-1.1226v4.6272h3.744v3.004h-3.744v7.2973c0 .9613.175 1.6387.527 2.033.351.3943.904.5918 1.658.5918.214 0 .471-.0504.772-.1516.3-.1012.563-.2221.787-.3641v3.0342c-.234.1314-.624.2528-1.169.3641s-1.083.1667-1.612.1667c-1.56 0-2.729-.4114-3.508-1.2363-.78-.8245-1.17-2.0658-1.17-3.7247zm-24.56 4.9006c0 1.6282.371 2.8721 1.115 3.7322.744.8597 1.809 1.2893 3.195 1.2893 1.345 0 2.369-.4296 3.072-1.2893.703-.8601 1.055-2.1343 1.055-3.8234 0-1.679-.365-2.9456-1.093-3.8007-.729-.8546-1.751-1.2817-3.065-1.2817-1.355 0-2.407.4472-3.156 1.3426-.749.895-1.123 2.1721-1.123 3.831zm-3.852.1209c0-2.579.733-4.6217 2.201-6.1289 1.467-1.5073 3.505-2.2607 6.113-2.2607 2.457 0 4.374.7257 5.756 2.1771 1.38 1.4519 2.071 3.4114 2.071 5.8791 0 2.5286-.734 4.5415-2.201 6.0382-1.468 1.4972-3.465 2.2451-5.992 2.2451-2.436 0-4.369-.7101-5.801-2.1313-1.432-1.4206-2.147-3.3605-2.147-5.8186zm-8.33-3.9292c0 .5263.168.9382.504 1.2369.336.2981 1.08.6748 2.232 1.1296 1.477.5872 2.514 1.2469 3.11 1.9801.597.7333.894 1.6212.894 2.6626 0 1.4665-.568 2.645-1.704 3.5348-1.136.8904-2.672 1.3351-4.608 1.3351-.652 0-1.373-.0781-2.163-.2352-.79-.1566-1.46-.356-2.01-.5993v-3.6103c.673.4653 1.396.8339 2.171 1.1069.774.2735 1.477.4099 2.109.4099.835 0 1.452-.1163 1.849-.349.398-.2321.596-.6219.596-1.1678 0-.5062-.206-.9332-.619-1.2822-.412-.349-1.195-.7514-2.346-1.2062-1.365-.5665-2.333-1.2036-2.904-1.9117-.571-.708-.856-1.608-.856-2.7003 0-1.4061.563-2.5613 1.689-3.4668 1.125-.905 2.586-1.3578 4.379-1.3578.55 0 1.167.0605 1.85.1818.683.1219 1.253.2785 1.712.4704v3.4895c-.49-.3238-1.06-.6013-1.712-.8345-.653-.2326-1.3-.349-1.942-.349-.703 0-1.25.1365-1.642.4095-.393.2734-.589.6476-.589 1.123zm-17.792 3.8083c0 1.6282.372 2.8721 1.117 3.7322.743.8597 1.808 1.2893 3.194 1.2893 1.345 0 2.369-.4296 3.072-1.2893.703-.8601 1.055-2.1343 1.055-3.8234 0-1.679-.365-2.9456-1.093-3.8007-.729-.8546-1.75-1.2817-3.064-1.2817-1.356 0-2.408.4472-3.157 1.3426-.749.895-1.124 2.1721-1.124 3.831zm-3.852.1209c0-2.579.734-4.6217 2.201-6.1289 1.468-1.5073 3.506-2.2607 6.115-2.2607 2.455 0 4.374.7257 5.754 2.1771 1.381 1.4519 2.072 3.4114 2.072 5.8791 0 2.5286-.734 4.5415-2.201 6.0382-1.468 1.4972-3.465 2.2451-5.992 2.2451-2.436 0-4.369-.7101-5.801-2.1313-1.432-1.4206-2.148-3.3605-2.148-5.8186zm-1.591-8.2834c.296 0 .561.0207.795.061.235.0402.433.0906.597.1515v3.7167c-.194-.1415-.477-.275-.849-.4019-.372-.1264-.823-.1894-1.352-.1894-.908 0-1.674.3792-2.301 1.1377-.627.7584-.94 1.9268-.94 3.5046v7.8739h-3.6994v-15.5962h3.6994v2.4576h.061c.336-.8496.846-1.5144 1.529-1.9948.682-.48 1.502-.7207 2.46-.7207zm-14.1839 13.184c.55 0 1.1563-.1259 1.819-.3793.6621-.2528 1.2735-.5862 1.8341-1.0011v3.4134c-.5911.3339-1.2608.5867-2.0102.7585-.7484.1722-1.5719.2578-2.4684.2578-2.3131 0-4.1934-.7252-5.64-2.1771-1.447-1.4509-2.1705-3.3047-2.1705-5.5598 0-2.5085.7387-4.5743 2.2167-6.1979 1.477-1.6236 3.5709-2.435 6.2818-2.435.6931 0 1.3933.0887 2.1021.2654.7078.1773 1.2704.3818 1.6885.6144v3.5198c-.5708-.4145-1.1538-.7358-1.7504-.9634-.5957-.2272-1.205-.3415-1.8261-.3415-1.4572 0-2.6343.4704-3.5308 1.4111-.897.9408-1.3456 2.2098-1.3456 3.8083 0 1.5773.4308 2.8066 1.2918 3.6864.861.8803 2.0305 1.32 3.508 1.32zm-11.2191 2.6701h-3.6987v-15.5962h3.6987zm-4.0813-20.102c0-.6069.2217-1.115.6652-1.5249.4434-.4095.9706-.6144 1.582-.6144.652 0 1.1923.21 1.62.6295.4283.42.6424.9231.6424 1.5098 0 .5968-.2192 1.0973-.6576 1.5017-.4384.4049-.9731.6069-1.6048.6069-.6322 0-1.1644-.2045-1.5972-.6139-.4333-.4104-.65-.908-.65-1.4947zm-3.1827-1.6539v21.7559h-3.8059v-17.0527h-.0608l-6.8024 17.0527h-2.5217l-6.9703-17.0527h-.0456v17.0527h-3.5156v-21.7559h5.4568l6.2975 16.1276h.0913l6.6492-16.1276z" fill="#737373"/><path d="m17.8667 42.7341h-17.361329v-17.2324h17.361329z" fill="#f25022"/><path d="m37.0347 42.7341h-17.3614v-17.2324h17.3614z" fill="#7fba00"/><path d="m17.8667 61.76h-17.361329v-17.2324h17.361329z" fill="#00a4ef"/><path d="m37.0347 61.76h-17.3614v-17.2324h17.3614z" fill="#ffb900"/></g></svg>