<svg width="172" height="86" viewBox="0 0 172 86" fill="none" xmlns="http://www.w3.org/2000/svg">
<g clip-path="url(#clip0_3464_7143)">
<mask id="mask0_3464_7143" style="mask-type:luminance" maskUnits="userSpaceOnUse" x="12" y="15" width="148" height="56">
<path d="M159.467 15H12V71H159.467V15Z" fill="white"/>
</mask>
<g mask="url(#mask0_3464_7143)">
<path d="M82.8242 15H88.7748V23.2665H82.8242V15ZM82.9336 26.7156H88.662V59.1198H82.9336V26.7156Z" fill="#12110C"/>
<path d="M94.557 67.2755V61.2545C98.4511 64.1557 103.346 65.7963 107.739 65.7963C114.414 65.7963 120.142 62.1287 120.142 53.9191V50.1406C118.086 54.8472 113.3 57.5835 107.684 57.5835C97.6723 57.5835 93.3887 50.3052 93.3887 42.311C93.3887 34.2663 97.8942 26.1646 107.626 26.1646C113.577 26.1646 118.028 29.0657 119.527 33.6075V26.7156H124.921V55.5629C124.921 66.0181 116.911 71 107.958 71C103.455 70.9968 98.673 69.7363 94.557 67.2755ZM109.799 53.6436C117.14 53.6436 120.812 47.895 120.812 41.9849C120.812 36.0177 117.085 30.5447 109.799 30.5447C102.458 30.5447 99.2877 36.2363 99.2877 42.1496C99.2845 48.5537 102.957 53.6436 109.799 53.6436Z" fill="#12110C"/>
<path d="M128.819 51.8381C128.819 45.2156 134.77 43.9011 141.11 42.97L147.505 42.0387C152.12 41.3831 155.737 40.0148 155.737 35.9069C155.737 31.9098 151.956 29.8859 147.894 29.8859C143.166 29.8859 138.217 32.6225 137.937 38.2064H131.88C132.157 30.871 139.388 26.1646 147.009 26.1646C153.793 26.1646 159.467 29.6136 159.467 37.2751V59.1166H154.073V49.6465C152.461 54.8472 145.953 59.7183 138.333 59.7183C132.379 59.7214 128.819 56.7094 128.819 51.8381ZM140.666 55.5059C146.172 55.5059 153.568 51.4011 153.793 43.2992C152.126 44.0657 150.234 44.5566 147.952 44.9399L142.391 45.8711C137.776 46.6376 134.603 47.2932 134.603 51.0147C134.603 54.03 137.274 55.5059 140.666 55.5059Z" fill="#12110C"/>
<path d="M25.6978 55.9011C25.3728 55.5274 25.9296 56.1703 25.936 56.1766C25.8716 56.0975 25.8008 56.0215 25.7333 55.9423C25.5981 55.787 25.4661 55.6319 25.3342 55.4734C25.0702 55.1632 24.8096 54.8496 24.5522 54.536C24.0437 53.9153 23.5481 53.2881 23.0621 52.6516C22.8239 52.338 22.589 52.0244 22.354 51.7076C22.3122 51.6475 22.2672 51.5904 22.2254 51.5303C22.0162 51.2452 22.6116 52.0688 22.4087 51.7804C22.2833 51.6031 22.1578 51.4257 22.0322 51.2484C21.5978 50.6244 21.1762 49.9942 20.7676 49.3511C20.5809 49.0566 20.3974 48.759 20.2171 48.4613C20.1237 48.3028 20.0272 48.1445 19.9339 47.9862C19.8889 47.9069 19.8439 47.8277 19.7956 47.7486C19.6444 47.4921 20.1174 48.3282 19.8792 47.8942C19.5348 47.2704 19.1969 46.64 18.8848 45.9971C18.5822 45.3763 18.2959 44.7461 18.0351 44.1062C17.9804 43.9701 17.9257 43.8307 17.871 43.6946C17.7712 43.4474 18.0159 44.0778 17.9226 43.8307C17.8936 43.7515 17.8645 43.6755 17.8356 43.5964C17.7133 43.2669 17.6008 42.9343 17.4912 42.5987C17.0536 41.2367 16.735 39.8399 16.5709 38.4211C16.5838 38.551 16.5998 38.6775 16.6127 38.8075C16.2523 35.4786 16.7608 32.0232 18.1316 28.9541C18.093 29.0396 18.0545 29.1252 18.0159 29.2107C19.3868 26.1923 21.6331 23.6046 24.5425 21.9292C25.3728 21.4508 26.2483 21.0519 27.1525 20.7288C27.0625 20.7605 26.9724 20.7921 26.8822 20.8238C29.5082 19.8989 32.4691 19.5347 35.2303 20.0224C35.1017 20.0002 34.9697 19.975 34.8409 19.9528C35.8579 20.1397 36.8201 20.4533 37.7695 20.8555C37.9948 20.9505 37.245 20.6084 37.5444 20.7542C37.5926 20.7762 37.6409 20.8016 37.6891 20.8238C37.7986 20.8776 37.9049 20.9315 38.0142 20.9853C38.2396 21.1025 38.4647 21.2261 38.6836 21.3558C38.7865 21.4161 38.8895 21.4825 38.9926 21.5428C39.3851 21.7835 38.3876 21.1437 38.8188 21.4288C39.0441 21.5776 39.2629 21.7327 39.4785 21.8943C39.5654 21.9576 39.6522 22.0243 39.7359 22.0907C39.7908 22.1318 39.8421 22.1762 39.897 22.2173C40.1478 22.4136 39.221 21.6631 39.5332 21.9229C39.7198 22.0812 39.9065 22.2395 40.09 22.4043C40.193 22.4961 40.2927 22.588 40.3926 22.683C40.8109 23.0757 39.7908 22.0907 40.0932 22.3916C40.2895 22.5848 40.4825 22.7812 40.6692 22.9839C40.901 23.2309 41.5704 24.0259 40.6821 22.9776C40.8527 23.1803 41.0233 23.383 41.1906 23.5887C41.3483 23.7851 41.5029 23.9846 41.6541 24.1873C41.7313 24.2887 41.8053 24.3901 41.8794 24.4914C41.21 23.5857 41.5833 24.0796 41.7377 24.2982C42.0466 24.7386 42.3427 25.1914 42.6227 25.6506C42.758 25.8692 42.8898 26.0878 43.0186 26.3094C43.276 26.7529 42.7354 25.8059 42.9124 26.1193C42.9897 26.2556 43.0636 26.3919 43.1409 26.5311C43.6493 27.4656 44.1128 28.4252 44.5377 29.4008C44.7372 29.8631 44.9271 30.3287 45.1137 30.7974C45.2392 31.111 44.9431 30.3509 45.0299 30.5822C45.0557 30.6455 45.0783 30.7119 45.104 30.7752C45.1427 30.8765 45.1813 30.9811 45.22 31.0856C45.3133 31.3423 45.4066 31.5988 45.4934 31.8552C45.8121 32.7738 46.0984 33.7017 46.356 34.6362C46.8451 36.4192 47.2313 38.2405 47.4405 40.0775C47.4277 39.9476 47.4116 39.8209 47.3987 39.6911C47.5789 41.3349 47.6078 43.0293 46.9384 44.5814C46.977 44.4957 47.0157 44.4103 47.0543 44.3248C46.4814 45.5948 45.4742 46.5799 44.1546 47.0899C44.2448 47.0581 44.335 47.0264 44.4249 46.9948C43.5946 47.2894 42.7289 47.3717 41.8536 47.2418C41.9824 47.264 42.1142 47.2894 42.243 47.3114C41.8794 47.245 41.5381 47.1404 41.1906 47.0169C40.9878 46.9314 41.0233 46.9472 41.2968 47.0676C41.2163 47.0264 41.1327 46.9821 41.0554 46.9377C40.6016 46.6781 41.2581 47.0169 41.2968 47.0994C41.271 47.0454 41.1038 46.9599 41.0491 46.9219C40.7144 46.6844 41.7409 47.5173 41.3291 47.1436C40.8913 46.7477 41.9341 47.7708 41.6283 47.4382C41.2357 47.0107 42.1078 48.0273 41.918 47.7772C41.7634 47.5713 41.5639 47.2103 42.1142 48.0685C42.0466 47.9672 41.9824 47.8627 41.9146 47.7613C42.3976 48.477 42.1078 48.1096 42.0048 47.9005C41.9533 47.796 41.9115 47.6853 41.86 47.5776C41.8021 47.4318 41.831 47.5141 41.9533 47.8214C41.9275 47.7549 41.9051 47.6853 41.8857 47.6187C41.8407 47.4763 41.7989 47.3336 41.7634 47.1912C41.6862 46.8776 41.6315 46.5608 41.5928 46.2409C41.6057 46.3708 41.622 46.4976 41.6348 46.6273C41.4353 44.8062 41.6669 42.8932 41.9146 41.0878C42.2172 38.8644 42.6902 36.66 43.3501 34.5158C43.7556 33.1951 44.2351 31.8965 44.8014 30.6359C44.763 30.7214 44.7244 30.8069 44.6857 30.8924C46.2401 27.4497 48.4993 24.2 51.7434 22.1097C52.6831 21.5048 53.6937 21.0107 54.7525 20.6306C54.6623 20.6621 54.5721 20.6939 54.4822 20.7256C57.2499 19.7501 60.2782 19.6107 63.1618 20.1048C63.033 20.0827 62.901 20.0573 62.7724 20.0351C64.1433 20.2789 65.4436 20.6939 66.7211 21.2324C66.9625 21.3338 66.2192 20.9948 66.5571 21.1594C66.631 21.1943 66.7051 21.2292 66.779 21.2671C66.911 21.3338 67.043 21.4002 67.1749 21.4667C67.4936 21.6347 67.8057 21.812 68.1114 22.002C68.591 22.2998 67.6095 21.6599 68.0149 21.9386C68.134 22.0211 68.2563 22.1034 68.3754 22.1857C68.5074 22.2776 68.636 22.3757 68.768 22.4708C68.8452 22.5277 68.9225 22.588 68.9964 22.6481C69.3311 22.9077 68.3722 22.1318 68.7133 22.4168C68.9483 22.6132 69.1799 22.8127 69.4021 23.0218C69.4599 23.0757 69.5178 23.1327 69.5758 23.1866C68.7582 22.4202 69.019 22.6417 69.1863 22.8127C69.3216 22.9522 69.4568 23.0884 69.5887 23.2309C69.6434 23.291 69.6981 23.3513 69.7528 23.4082C69.9234 23.5951 70.1614 23.9023 69.4342 23.0377C69.5372 23.1612 69.6434 23.2848 69.7463 23.4082C69.8364 23.5223 69.9266 23.6363 70.0168 23.7504C70.0649 23.8136 70.1133 23.8801 70.1614 23.9436C70.4351 24.3046 69.6949 23.2785 69.9524 23.6522C70.139 23.9213 70.3192 24.1905 70.4929 24.4692C70.5766 24.6055 70.6507 24.7606 70.744 24.8905C70.7569 24.9096 70.3996 24.2728 70.5702 24.5864C70.6186 24.6719 70.6667 24.7606 70.7119 24.8463C71.0272 25.4384 71.2879 26.0465 71.5454 26.6642C71.2717 26.0055 71.5422 26.6706 71.6032 26.8447C71.6708 27.0379 71.732 27.2343 71.7931 27.4307C71.9058 27.7949 72.0055 28.1622 72.0925 28.5298C72.2823 29.3246 72.4206 30.1291 72.5108 30.94C72.4979 30.8101 72.4819 30.6835 72.469 30.5536C73.0096 35.5514 71.8769 40.6603 69.8267 45.2243C69.8654 45.1388 69.904 45.0533 69.9426 44.9678C68.3883 48.3947 66.3028 51.562 63.918 54.4822C63.6637 54.7956 63.8956 55.3183 64.0339 55.6129C64.3331 56.2526 64.845 56.902 65.334 57.4056C65.8425 57.9281 66.4025 58.4761 67.059 58.8086C67.3101 58.9353 67.9474 59.3059 68.1984 58.9986C73.65 52.3221 77.7696 43.8624 77.0358 35.0986C76.8812 33.2552 76.5402 31.4341 75.8964 29.6921C75.1305 27.6207 74.0749 25.7236 72.7619 23.9404C70.2548 20.5388 66.7243 17.685 62.6983 16.2217C59.4962 15.0593 55.8241 14.7584 52.4867 15.5092C49.7576 16.1204 47.2473 17.4476 45.2263 19.3478C41.3644 22.9776 39.2726 28.2162 38.1139 33.2521C37.6377 35.3203 37.3094 37.4297 37.1548 39.5453C37.0873 40.4766 37.0294 41.4268 37.1098 42.3579C37.2129 43.5361 37.4703 44.6606 38.0109 45.7248C38.7512 47.1849 39.81 48.4581 41.0201 49.5665C42.8706 51.2643 45.4902 52.5849 48.0455 51.7457C49.7802 51.1756 50.9387 49.972 51.576 48.2965C52.4257 46.0604 51.9719 43.4 51.5438 41.11C51.0804 38.6365 50.382 36.204 49.4842 33.8475C48.361 30.8988 46.9836 28.0325 45.1653 25.4322C42.9447 22.2553 40.2412 19.3923 36.9006 17.3462C34.2425 15.7181 31.1948 14.9643 28.0729 15.1417C24.6358 15.3349 21.2083 16.4972 18.4921 18.6036C15.8242 20.6812 13.9608 23.5825 12.9309 26.7497C11.7562 30.3668 11.7241 34.2972 12.6606 37.9682C13.8256 42.5227 16.2297 46.7699 18.9524 50.5897C20.6001 52.8985 22.3734 55.0902 24.2465 57.2281C24.6969 57.7444 25.3568 58.3018 25.9714 58.6313C26.1999 58.7548 26.8275 59.0841 27.1107 58.8213C27.4036 58.5521 27.1204 57.9376 26.9948 57.6907C26.6666 57.0256 26.187 56.4616 25.6978 55.9011Z" fill="#12110C"/>
</g>
</g>
<defs>
<clipPath id="clip0_3464_7143">
<rect width="147.467" height="56" fill="white" transform="translate(12 15)"/>
</clipPath>
</defs>
</svg>
