<svg fill="none" height="86" viewBox="0 0 172 86" width="172" xmlns="http://www.w3.org/2000/svg" xmlns:xlink="http://www.w3.org/1999/xlink"><clipPath id="a"><path d="m0 28h103v30.3073h-103z"/></clipPath><g fill="#000"><path d="m116.019 37.611h.941v7.63h-.941z"/><path d="m118.307 37.611h1.218l2.522 6.369h.022v-6.369h.94v7.63h-1.293l-2.447-6.1766h-.021v6.1766h-.941z"/><path d="m124.352 37.611h3.943v.8336h-3.003v2.3937h2.832v.8335h-2.832v3.5692h-.94z"/><path d="m131.558 37.4614c.527 0 .951.1176 1.272.3527.32.2279.57.5307.748.9083s.295.805.352 1.2823c.057.4702.086.944.086 1.4213 0 .4845-.029.9618-.086 1.432s-.174.8941-.352 1.2716c-.178.3776-.428.6839-.748.919-.321.228-.745.342-1.272.342s-.951-.114-1.272-.342c-.32-.2351-.57-.5414-.748-.919-.178-.3775-.295-.8014-.352-1.2716s-.086-.9475-.086-1.432c0-.4773.029-.9511.086-1.4213.057-.4773.174-.9047.352-1.2823s.428-.6804.748-.9083c.321-.2351.745-.3527 1.272-.3527zm0 .7694c-.328 0-.588.0855-.78.2565-.192.1639-.342.3918-.449.6839-.1.285-.167.6234-.203 1.0152-.028.3847-.043.7979-.043 1.2396s.015.8585.043 1.2503c.036.3847.103.7231.203 1.0152.107.285.257.5129.449.6839.192.1639.452.2458.78.2458s.588-.0819.78-.2458c.192-.171.339-.3989.438-.6839.107-.2921.175-.6305.203-1.0152.036-.3918.054-.8086.054-1.2503s-.018-.8549-.054-1.2396c-.028-.3918-.096-.7302-.203-1.0152-.099-.2921-.246-.52-.438-.6839-.192-.171-.452-.2565-.78-.2565z"/><path d="m135.252 37.611h2.468c.606 0 1.083.1675 1.432.5023s.524.805.524 1.4106c0 .2066-.021.4132-.064.6198-.036.2066-.1.3989-.192.577-.093.171-.214.3242-.364.4595-.149.1283-.335.2173-.556.2672v.0214c.335.0356.592.1745.77.4167.185.2422.288.5272.31.8549l.064 1.3037c.007.2138.021.3883.043.5237.028.1353.057.2493.085.3419.036.0855.075.1532.118.2031.05.0498.103.0926.16.1282h-1.133c-.042-.0427-.078-.1033-.107-.1817-.028-.0855-.053-.1816-.074-.2885-.022-.1069-.04-.2137-.054-.3206-.007-.114-.014-.2173-.021-.3099l-.064-1.1862c-.022-.2635-.072-.4666-.15-.6091-.071-.1496-.16-.26-.267-.3312-.107-.0784-.225-.1247-.353-.139-.121-.0213-.242-.032-.363-.032h-1.272v3.3982h-.94zm.94 3.4624h.93c.135 0 .292-.0072.47-.0214.185-.0143.36-.0677.524-.1603s.299-.2387.406-.4381c.114-.1995.171-.4845.171-.8549 0-.3776-.121-.6733-.363-.887-.236-.2208-.574-.3313-1.016-.3313h-1.122z"/><path d="m140.922 37.611h1.581l1.528 6.0484h.022l1.528-6.0484h1.581v7.63h-.94v-6.6682h-.021l-1.689 6.6682h-.94l-1.689-6.6682h-.021v6.6682h-.94z"/><path d="m150.027 37.611h1.261l2.052 7.63h-.983l-.545-2.0945h-2.437l-.566 2.0945h-.983zm-.459 4.7661h2.052l-.973-3.6868h-.021z"/><path d="m155.716 45.241h-.941v-6.7964h-1.913v-.8336h4.777v.8336h-1.923z"/><path d="m158.45 37.611h.941v7.63h-.941z"/><path d="m163.089 37.4614c.527 0 .951.1176 1.272.3527.32.2279.57.5307.748.9083s.295.805.352 1.2823c.057.4702.086.944.086 1.4213 0 .4845-.029.9618-.086 1.432s-.174.8941-.352 1.2716c-.178.3776-.428.6839-.748.919-.321.228-.745.342-1.272.342s-.951-.114-1.272-.342c-.32-.2351-.57-.5414-.748-.919-.178-.3775-.295-.8014-.352-1.2716s-.086-.9475-.086-1.432c0-.4773.029-.9511.086-1.4213.057-.4773.174-.9047.352-1.2823s.428-.6804.748-.9083c.321-.2351.745-.3527 1.272-.3527zm0 .7694c-.328 0-.588.0855-.78.2565-.192.1639-.342.3918-.449.6839-.1.285-.167.6234-.203 1.0152-.028.3847-.043.7979-.043 1.2396s.015.8585.043 1.2503c.036.3847.103.7231.203 1.0152.107.285.257.5129.449.6839.192.1639.452.2458.78.2458s.588-.0819.78-.2458c.193-.171.339-.3989.438-.6839.107-.2921.175-.6305.203-1.0152.036-.3918.054-.8086.054-1.2503s-.018-.8549-.054-1.2396c-.028-.3918-.096-.7302-.203-1.0152-.099-.2921-.245-.52-.438-.6839-.192-.171-.452-.2565-.78-.2565z"/><path d="m166.783 37.611h1.218l2.522 6.369h.021v-6.369h.941v7.63h-1.293l-2.447-6.1766h-.022v6.1766h-.94z"/><path d="m118.338 54.7028h-.94v-6.7965h-1.913v-.8335h4.777v.8335h-1.924z"/><path d="m121.073 47.0728h3.943v.8335h-3.003v2.3937h2.832v.8336h-2.832v2.7356h3.131v.8336h-4.071z"/><path d="m130.796 52.0846c-.021.3634-.078.7125-.171 1.0473-.086.3277-.217.6198-.395.8763-.179.2564-.414.463-.706.6198-.285.1496-.634.2244-1.047.2244-.541 0-.976-.114-1.304-.342-.32-.2351-.566-.5414-.737-.919s-.285-.8015-.342-1.2717c-.05-.4702-.075-.9475-.075-1.4319 0-.4773.029-.9511.086-1.4213.057-.4773.174-.9048.352-1.2823.178-.3776.428-.6804.748-.9084.321-.2351.745-.3526 1.272-.3526.777 0 1.339.2102 1.688.6305.357.4132.545.9938.567 1.7418h-.983c-.007-.2137-.032-.4167-.075-.6091-.043-.1995-.114-.3704-.214-.5129-.093-.1496-.221-.2672-.385-.3527-.156-.0855-.356-.1282-.598-.1282-.328 0-.588.0855-.78.2565-.192.1638-.342.3918-.449.6839-.1.285-.167.6233-.203 1.0152-.028.3847-.043.7979-.043 1.2396s.015.8584.043 1.2503c.036.3847.103.7231.203 1.0152.107.2849.257.5129.449.6839.192.1638.452.2458.78.2458.285 0 .513-.0606.684-.1817s.303-.2778.395-.4702c.1-.1924.164-.4061.193-.6412.035-.2351.057-.4702.064-.7053z"/><path d="m136.273 54.7028h-.94v-3.6761h-2.618v3.6761h-.941v-7.63h.941v3.1204h2.618v-3.1204h.94z"/><path d="m137.621 47.0728h1.218l2.522 6.369h.021v-6.369h.941v7.63h-1.293l-2.447-6.1767h-.022v6.1767h-.94z"/><path d="m146.017 46.9232c.527 0 .951.1175 1.271.3526.321.228.57.5308.748.9084.178.3775.296.805.353 1.2823.057.4702.085.944.085 1.4213 0 .4844-.028.9617-.085 1.4319s-.175.8941-.353 1.2717-.427.6839-.748.919c-.32.228-.744.342-1.271.342-.528 0-.951-.114-1.272-.342-.321-.2351-.57-.5414-.748-.919s-.296-.8015-.353-1.2717-.085-.9475-.085-1.4319c0-.4773.028-.9511.085-1.4213.057-.4773.175-.9048.353-1.2823.178-.3776.427-.6804.748-.9084.321-.2351.744-.3526 1.272-.3526zm0 .7694c-.328 0-.588.0855-.781.2565-.192.1638-.341.3918-.448.6839-.1.285-.168.6233-.203 1.0152-.029.3847-.043.7979-.043 1.2396s.014.8584.043 1.2503c.035.3847.103.7231.203 1.0152.107.2849.256.5129.448.6839.193.1638.453.2458.781.2458.327 0 .587-.082.78-.2458.192-.171.338-.399.438-.6839.107-.2921.174-.6305.203-1.0152.035-.3919.053-.8086.053-1.2503s-.018-.8549-.053-1.2396c-.029-.3919-.096-.7302-.203-1.0152-.1-.2921-.246-.5201-.438-.6839-.193-.171-.453-.2565-.78-.2565z"/><path d="m149.71 47.0728h.941v6.7964h3.099v.8336h-4.04z"/><path d="m156.917 46.9232c.527 0 .951.1175 1.271.3526.321.228.57.5308.748.9084.178.3775.296.805.353 1.2823.057.4702.085.944.085 1.4213 0 .4844-.028.9617-.085 1.4319s-.175.8941-.353 1.2717-.427.6839-.748.919c-.32.228-.744.342-1.271.342-.528 0-.952-.114-1.272-.342-.321-.2351-.57-.5414-.748-.919s-.296-.8015-.353-1.2717-.085-.9475-.085-1.4319c0-.4773.028-.9511.085-1.4213.057-.4773.175-.9048.353-1.2823.178-.3776.427-.6804.748-.9084.32-.2351.744-.3526 1.272-.3526zm0 .7694c-.328 0-.588.0855-.781.2565-.192.1638-.342.3918-.448.6839-.1.285-.168.6233-.203 1.0152-.029.3847-.043.7979-.043 1.2396s.014.8584.043 1.2503c.035.3847.103.7231.203 1.0152.106.2849.256.5129.448.6839.193.1638.453.2458.781.2458.327 0 .587-.082.78-.2458.192-.171.338-.399.438-.6839.107-.2921.174-.6305.203-1.0152.035-.3919.053-.8086.053-1.2503s-.018-.8549-.053-1.2396c-.029-.3919-.096-.7302-.203-1.0152-.1-.2921-.246-.5201-.438-.6839-.193-.171-.453-.2565-.78-.2565z"/><path d="m164.233 49.1887c-.014-.1995-.046-.3883-.096-.5664-.043-.1852-.114-.3455-.214-.4809-.093-.1353-.217-.2422-.374-.3206-.157-.0855-.353-.1282-.588-.1282-.327 0-.587.0855-.78.2565-.192.1638-.342.3918-.449.6839-.099.285-.167.6233-.203 1.0152-.028.3847-.042.7979-.042 1.2396s.014.8584.042 1.2503c.036.3847.104.7231.203 1.0152.107.2849.257.5129.449.6839.193.1638.453.2458.78.2458.328 0 .585-.0855.77-.2565.185-.1781.324-.3954.417-.6519.092-.2564.149-.5343.17-.8335.029-.2992.043-.5771.043-.8335h-1.507v-.7694h2.362v3.9646h-.705v-1.0366h-.022c-.099.3277-.295.6091-.587.8442-.285.228-.638.342-1.058.342-.499 0-.901-.1105-1.208-.3313-.306-.2209-.545-.5129-.716-.8763-.164-.3704-.274-.7943-.331-1.2716-.057-.4774-.085-.9725-.085-1.4854 0-.4773.028-.9511.085-1.4213.057-.4773.175-.9048.353-1.2823.178-.3776.427-.6804.748-.9084.32-.2351.744-.3526 1.271-.3526.364 0 .67.0463.919.1389.257.0926.467.2137.631.3633.171.1425.303.3028.395.4809.093.1781.161.3527.203.5236.05.1639.079.3171.086.4596.014.1353.021.2351.021.2992z"/><path d="m165.816 47.0728h1.036l1.454 3.5692 1.506-3.5692h.984l-2.02 4.6378v2.9922h-.941v-2.9922z"/></g><path d="m116.041 28.1496h1.582l1.528 6.0484h.021l1.528-6.0484h1.582v7.63h-.941v-6.6682h-.021l-1.688 6.6682h-.941l-1.688-6.6682h-.022v6.6682h-.94z" fill="#006dae"/><path d="m126.002 28c.527 0 .951.1175 1.271.3526.321.228.57.5308.748.9084s.296.805.353 1.2823c.057.4702.085.944.085 1.4213 0 .4844-.028.9618-.085 1.4319-.057.4702-.175.8941-.353 1.2717s-.427.6839-.748.919c-.32.228-.744.342-1.271.342-.528 0-.951-.114-1.272-.342-.321-.2351-.57-.5414-.748-.919s-.296-.8015-.353-1.2717c-.057-.4701-.085-.9475-.085-1.4319 0-.4773.028-.9511.085-1.4213.057-.4773.175-.9047.353-1.2823s.427-.6804.748-.9084c.321-.2351.744-.3526 1.272-.3526zm0 .7694c-.328 0-.588.0855-.78.2565-.193.1638-.342.3918-.449.6839-.1.285-.168.6234-.203 1.0152-.029.3847-.043.7979-.043 1.2396s.014.8585.043 1.2503c.035.3847.103.7231.203 1.0152.107.2849.256.5129.449.6839.192.1638.452.2458.78.2458.327 0 .587-.082.78-.2458.192-.171.338-.399.438-.6839.107-.2921.174-.6305.203-1.0152.036-.3918.053-.8086.053-1.2503s-.017-.8549-.053-1.2396c-.029-.3918-.096-.7302-.203-1.0152-.1-.2921-.246-.5201-.438-.6839-.193-.171-.453-.2565-.78-.2565z" fill="#006dae"/><path d="m129.696 28.1496h1.218l2.522 6.369h.021v-6.369h.94v7.63h-1.293l-2.447-6.1767h-.021v6.1767h-.94z" fill="#006dae"/><path d="m137.236 28.1496h1.261l2.052 7.63h-.983l-.545-2.0945h-2.436l-.567 2.0945h-.983zm-.459 4.7661h2.052l-.973-3.6868h-.021z" fill="#006dae"/><path d="m144.428 30.1266c0-.1995-.021-.3812-.064-.545-.036-.171-.1-.3135-.192-.4275-.093-.1211-.218-.2137-.374-.2778-.15-.0713-.335-.1069-.556-.1069-.399 0-.709.1069-.93.3206-.22.2066-.331.5129-.331.919 0 .3562.089.6305.267.8229.178.1923.399.3455.663.4595.27.1139.559.2172.865.3099.314.0854.602.203.866.3526.271.1496.495.3562.673.6198s.267.6269.267 1.09c0 .4417-.074.8086-.224 1.1007-.143.2921-.328.5236-.556.6946s-.484.2921-.769.3633c-.278.0713-.552.1069-.823.1069-.449 0-.823-.057-1.122-.171-.292-.114-.527-.2778-.705-.4916-.171-.2137-.296-.4773-.374-.7907-.072-.3206-.107-.684-.107-1.09h.94c0 .2137.011.4274.032.6411.022.2066.079.3954.171.5664.093.171.235.3099.428.4168.192.0997.459.1496.801.1496.185 0 .36-.0321.524-.0962s.303-.1532.416-.2672c.122-.1211.214-.2636.278-.4274.072-.1639.107-.3491.107-.5557 0-.2707-.053-.4916-.16-.6625-.1-.171-.235-.3135-.406-.4275-.164-.1211-.356-.2173-.577-.2885-.214-.0784-.435-.1567-.663-.2351-.221-.0784-.441-.1639-.662-.2565-.214-.0997-.406-.2244-.577-.374-.164-.1567-.3-.3526-.406-.5877-.1-.2351-.15-.5272-.15-.8763 0-.1781.025-.3847.075-.6198.05-.2422.153-.4738.31-.6946.164-.2209.391-.4061.684-.5557.292-.1567.68-.2351 1.164-.2351.734 0 1.268.1781 1.603.5343.342.3562.52.887.535 1.5923z" fill="#006dae"/><path d="m151.139 35.7796h-.94v-3.6761h-2.618v3.6761h-.941v-7.63h.941v3.1204h2.618v-3.1204h.94z" fill="#006dae"/><g clip-path="url(#a)" fill="#000"><path d="m39.1624 42.6833v7.3679c0 3.0307-1.2468 4.4415-3.8961 4.4415-3.0648 0-3.7142-2.4036-3.7142-4.4415v-7.3679h-.909v7.3679c0 3.4748 1.5584 5.2515 4.6232 5.2515 3.1688 0 4.7792-1.7505 4.7792-5.2515v-7.3679z"/><path d="m45.8637 45.8708c-1.3766 0-2.5714.7316-3.0649 1.8812 0-.418 0-1.6721 0-1.6721h-.8051v8.9093h.8051v-4.8074c0-2.1685 1.1948-3.5794 3.0649-3.5794 2.3896 0 2.3896 2.0902 2.3896 2.7956v5.6173h.8051v-5.4867c-.0259-1.0189-.0259-3.6578-3.1947-3.6578z"/><path d="m51.0063 46.0798v8.9093h.7793v-8.9093h-.078z"/><path d="m51.0063 43.3625v1.2019h.7793v-1.2019h-.078z"/><path d="m59.6815 46.0798s-2.8051 7.6552-2.909 7.9165c-.1039-.2613-3.1168-7.9165-3.1168-7.9165h-.9091l3.5583 8.9093h.9091l3.3506-8.9093h-.1039z"/><path d="m64.8757 45.8708c-1.0389 0-1.922.3658-2.5973 1.0451-.8572.8622-1.3247 2.2469-1.3247 3.7623-.026 1.4109.4156 2.6127 1.2208 3.4488.6753.7054 1.6363 1.0712 2.7012 1.0712 2.1298 0 3.4805-1.1496 3.8441-3.2398l.026-.0783h-.8052v.0522c-.3117 1.5938-1.4286 2.5343-3.0389 2.5343-.8312 0-1.5324-.2874-2.0779-.836-.6753-.6793-1.0389-1.7505-1.0389-2.9263 0 0 0 0 0-.0261h7.0388v-.0784c0-.1045 0-.2351 0-.3396 0-1.3586-.4156-2.5343-1.1429-3.3181-.7272-.6793-1.6623-1.0713-2.8051-1.0713zm0 .7316c1.974 0 3.0389 1.6983 3.1168 3.3965-.1558 0-6.0518 0-6.2076 0 .1558-1.6982 1.2467-3.3965 3.0908-3.3965z"/><path d="m71.0059 47.8565c0-.3919 0-1.7766 0-1.7766h-.8052v8.9093h.8052v-4.8597c.0779-1.3324.3636-1.8288.961-2.482.935-.9145 2.0259-.8622 2.3376-.8361h.0779v-.7838h-.0779c-1.4286-.0522-2.8311.7316-3.2986 1.8289z"/><path d="m78.5903 50.0512-.2598-.0523c-1.3246-.2874-2.5713-.5487-2.5713-1.8028 0-1.1757 1.2467-1.6198 2.4415-1.6198.935 0 2.4934.2874 2.4934 2.1685v.0784h.8052v-.0784c0-1.855-1.1688-2.874-3.2986-2.874-.7533 0-3.2208.1568-3.2208 2.3253 0 1.9334 1.7662 2.2992 3.0649 2.5605l.2338.0522c1.3766.2874 2.7012.5487 2.7012 1.8812 0 1.6199-1.8701 1.7766-2.6752 1.7766-1.6104 0-2.7013-.9667-2.8052-2.482v-.0784h-.7792v.0784c.052 1.9595 1.4286 3.1874 3.6103 3.1874.8052 0 3.4805-.1828 3.4805-2.5081-.0779-1.8551-1.5065-2.2731-3.2207-2.6127z"/><path d="m83.3696 46.0798v8.9093h.8052v-8.9093h-.0779z"/><path d="m96.538 46.0798s-2.8051 7.5245-2.935 7.8642c-.1299-.3397-3.1947-7.8642-3.1947-7.8642s-2.7013 0-2.8311 0c0-.1307 0-2.7173 0-2.7173h-.078-.7272v2.7173c-.1299 0-1.6104 0-1.6104 0v.7315h1.6104v6.0353.1568c0 .6793.1558 1.1757.5194 1.5154.5195.5225 1.4026.5225 2.1039.4964h.0779v-.7055h-.0779c-.7273.0262-1.1948-.0261-1.4805-.3135-.2338-.209-.3376-.5748-.3376-1.1496 0 0 0-5.9047 0-6.0353h2.2077c.026.1045 3.3506 8.021 3.3765 8.0732-.3896 1.1235-.6233 1.7505-.883 2.0118-.4156.4181-.8312.5487-1.7662.5487h-.078v.7054h.078c.961 0 1.5843-.0261 2.0778-.418.3637-.2874.6494-.9145 1.039-1.8289l3.7661-9.7976h-.8571z"/><path d="m83.3696 43.3625v1.2019h.8052v-1.2019h-.0779z"/><path d="m50.7729 40.7761c-3.5324-.0784-6.4934-2.7956-6.4154-6.584.1039-2.9785 2.4674-6.3488 6.779-6.2182 3.013.0523 6.3635 2.3253 6.2856 6.5056-.1039 4.2065-3.6103 6.4011-6.6492 6.2966zm.1299-11.9923c-2.7013 0-4.5714 1.9857-4.5714 5.3561 0 4.0235 2.3636 5.8263 4.5974 5.8263 2.7012 0 4.4934-2.0902 4.4934-5.3822.0259-3.5532-1.7922-5.8002-4.5194-5.8002z"/><path d="m102.668 28.3396v-.1829h-3.5325v.1829c.7013.0523.8835.1829.8835 1.1757v4.3371h-6.338v-4.3371c0-.9928.1818-1.1495.8831-1.1757v-.1829h-3.5324v.1829c.7013.0523.8831.1829.8831 1.1757v9.7193c0 .9928-.1818 1.1496-.8831 1.1757v.1829h3.5324v-.1829c-.7013-.0523-.8831-.1829-.8831-1.1757v-4.6245h6.338v4.6506c0 .9928-.1822 1.1496-.8835 1.1757v.1829h3.5325v-.1829c-.701-.0522-.883-.1829-.883-1.1757v-9.7192c0-1.019.182-1.1496.883-1.2019z"/><path d="m58.3569 28.1567v.1829c.6753.0262.8831.1045.8831.8361v10.085c0 .9928-.1818 1.1496-.8831 1.1757v.1829h2.6753v-.1829c-.7013-.0522-.8831-.1829-.8831-1.1757v-9.0661c0 .1568 6.883 8.5958 8.3895 10.4247h.2857v-11.4436c0-.7316.1818-.7838.8831-.8361v-.1829h-2.6234v.1829c.6754.0262.8831.1045.8831.8361v7.9165l-7.2725-8.9355z"/><path d="m75.707 28.1567h-.2337c-.6234 1.4893-3.5324 8.3868-4.5194 10.7643-.1818.4181-.4676 1.0713-.6753 1.3064-.1559.1829-.3117.1829-.4676.209v.1829h2.3636v-.1829c-.1818 0-.5974 0-.6233-.3658 0-.1045.0259-.2351.0779-.3657.0779-.2091.5454-1.437 1.1428-2.7956h4.7012c.4675 1.1496.8831 2.1424 1.0909 2.5865.052.1307.1818.4442.1818.5748 0 .3397-.3117.3658-.6493.3658v.1829h3.2986v-.1829c-.4156-.0261-.5454-.1306-.8311-.8099zm-2.6493 7.9688c.8052-1.9857 2.026-5.1209 2.026-5.1209s1.1168 2.8217 2.0519 5.1209z"/><path d="m29.942 28.1575v.1829c.3896.0261.5974.0522.7272.209.026.0522.078.1306.1039.1829.026.0522.026.1306.026.209v.2351 10.085c0 .9929-.1818 1.1496-.8831 1.1757v.1829h2.6493v-.1829c-.7013-.0522-.8831-.1828-.8831-1.1757v-8.648c0-.1568-.026-.4703-.026-.4703l.1559.4703 4.2856 9.9544h.2597l4.3636-10.2418.1299-.418s-.026.209-.026.3919v8.9615c0 .9929-.1818 1.1496-.8831 1.1757v.1829h3.5324v-.1829c-.7013-.0522-.8831-.1828-.8831-1.1757v-10.085c0-.7315.1818-.7838.8831-.836v-.1829h-2.7532l-3.948 9.4057-3.9999-9.4057z"/><path d="m81.9932 39.7833c.8311.4964 2.0519 1.0189 3.3765 1.0189h.0779c1.9221-.0261 3.974-1.4631 3.974-3.7361 0-2.456-1.7143-3.0308-3.4285-3.9191-1.7402-.8622-2.4675-1.3063-2.4675-2.4559 0-.7838.4675-1.9334 2.0259-1.9334.4935 0 .9351.1306 1.2987.3135 1.2467.7054 1.3247 1.6983 1.4805 2.3253h.1818l-.1039-2.7695c-.8052-.3396-1.4285-.4964-1.8701-.5486-.2597-.0261-.5194-.0523-.7272-.0523-1.7403 0-3.7662 1.0451-3.7662 3.2398 0 1.4892.8831 2.4298 2.6493 3.3181 1.7402.8883 3.0649 1.2541 3.0649 3.0046 0 .8883-.5195 2.4559-2.4675 2.4559-.7792 0-1.4026-.2612-1.8961-.6793-1.1688-1.0973-1.1428-1.9856-1.2207-2.3253h-.1818z"/><path d="m18.411 34.1405h-.2078v-4.3893c.1819.4442.2078.8883.2078 1.2541zm-8.2595-1.7505c.2597.0784.5454.1307.8571.1568v-.209c-.2597-.0261-.5455-.0784-.8052-.1568-.33765-.0784-.64933-.1567-.96101-.1567-.15584 0-.31168.0261-.44155.0783v.2352c.10389-.0523.25974-.0784.44155-.0784.28571-.0261.59739.0523.90911.1306zm-2.51947-.1567c.18182 0 .33766.0261.44155.0784v-.2352c-.12987-.0522-.28571-.0784-.44155-.0784-.31168 0-.62336.0784-.96102.1568-.25973.0784-.51947.1306-.80517.1568v.209c.2857-.0262.57141-.0784.85712-.1568.33766-.0522.62336-.1306.90907-.1306zm0-.5226c.18182 0 .33766.0523.44155.0784v-.2351c-.12987-.0523-.28571-.0523-.44155-.0784-.31168 0-.62336.0784-.96102.1568-.25973.0783-.51947.1306-.80517.1567v.209c.31168-.0261.57141-.0783.85712-.1567.33766-.0784.62336-.1568.90907-.1307zm0 1.0712c.18182 0 .33766.0262.44155.0784v-.2351c-.12987-.0523-.28571-.0523-.44155-.0784-.31168 0-.62336.0784-.96102.1568-.25973.0783-.51947.1306-.80517.1567v.209c.31168-.0261.57141-.1045.85712-.1567.33766-.0784.62336-.1568.90907-.1307zm0-1.6198c.18182 0 .33766.0522.44155.0784v-.2352c-.12987-.0522-.28571-.0784-.44155-.0784-.31168 0-.62336.0784-.96102.1568-.25973.0784-.51947.1306-.80517.1568v.209c.2857-.0262.57141-.0784.85712-.1568.33766-.0522.62336-.1306.90907-.1306zm-1.40257 15.9897c-2.57137-4.2587-2.51942-8.4129-2.51942-8.9354v-10.0589h19.48016v10.0589c0 .5225.0519 4.6767-2.5195 8.9354-2.2856 3.8668-5.7401 5.565-7.2206 6.0876-1.4545-.5226-4.90899-2.2208-7.22064-6.0876zm5.19474-.7838-.5195-.4181.2857-.627-.6753.1306-.2857-.6009-.3117.6009-.64934-.1306.28571.627-.51947.4181.64934.1567v.6793l.54546-.418.5195.418v-.6793zm2.7791 4.2587.6494-.3136-.6494-.2874.2338-.6793-.6753.2613-.2857-.6532-.2857.6271-.6753-.2613.2597.6793-.6494.2874.6494.3135-.2597.6793.6753-.2612.2857.6531.2857-.6531.6753.2612zm-1.4285-7.7859-.5195.4442.6494.1567v.6793l.5194-.418.5455.418.0259-.6793.6494-.1567-.5195-.4442.2857-.627-.6753.1306-.2857-.6009-.2857.6009-.6753-.1306zm2.2857 4.2848.3896-.418-.5715-.1045-.2597-.5225-.2597.5225-.5714.1045.4155.418-.1039.5748.5195-.2612.5195.2612zm1.922-2.064.3117-.5225h-.5974l-.2857-.5226-.2857.5226h-.5974l.3117.5225-.3117.5226h.5974l.2857.5225.2857-.5225h.5974zm4.5713-12.5932c-.1558.0784-.2857.209-.3636.3658-.0779.1306-.1039.2613-.1039.3919v.1045c.0779-.0522.1558-.1045.2338-.1568.0519-.0522.1039-.1306.1558-.1828.052-.1045.0779-.2613.0779-.3919 0-.0523 0-.1046 0-.1307zm-2.0259 3.0046c.1558.0784.3377.1045.5195.0784s.3116-.1045.4415-.2351c-.1558-.0784-.3117-.1045-.4935-.0784s-.3376.1306-.4675.2351zm0-.2874c.0779-.1306.1299-.2874.1299-.4441 0-.0262 0-.0262 0-.0523-.1559.0784-.2857.1829-.3896.3135-.078.1307-.1299.2874-.1299.4442v.0522c.1818-.0522.3117-.1567.3896-.3135zm.2078-.0522s0 .0261 0 0c.0519 0 .0779 0 .1039-.0262.1039-.0783.1558-.1828.2078-.3135.0259-.0784.0519-.1829.0519-.2613 0-.0783-.026-.1567-.0519-.2351-.1039.0784-.1819.1568-.2338.2613 0 .2351-.026.418-.0779.5748zm.4935-.4181c0 .0262 0 .0262 0 0 .0519 0 .0779-.0261.1039-.0522.0779-.1045.1039-.209.1298-.3397 0-.0261 0-.0522 0-.0783 0-.1307-.0519-.2874-.1298-.4181-.0779.1045-.1559.209-.1818.3135.0779.2352.1039.3919.0779.5748zm.3636-.5225c0 .0261 0 .0261 0 0 .052 0 .0779-.0261.1039-.0784.026-.0784.0519-.1567.0519-.2613 0-.0261 0-.0783 0-.1045-.0259-.1567-.1038-.3135-.2337-.4441-.052.1045-.0779.2351-.0779.3396.0779.209.1298.3658.1558.5487zm.2597-.6009c0 .0261 0 .0261 0 0 .052-.0261.052-.0523.078-.1045 0-.0262 0-.0262 0-.0523 0-.1045-.026-.209-.052-.3135-.0519-.1568-.1818-.2613-.3376-.3658-.026.0523-.026.1307-.026.1829 0 .0523 0 .1045.026.1568.1558.1829.2597.3396.3116.4964zm.1039-.6271c.026-.0261.052-.0783.052-.1045-.026-.1306-.052-.2351-.1299-.3396-.1039-.1307-.2337-.2352-.4156-.2874 0 .1306.026.2612.078.3658.1818.0783.3116.209.4155.3657zm-.0259-.7577c-.052-.1306-.1039-.2351-.2078-.3135-.1299-.1045-.2598-.1567-.4416-.1829.026.1307.0779.2352.1559.3136.1818.0522.3376.1567.4675.2612h.026s0-.0261 0-.0784zm-.2078-.4964c0-.0522-.026-.0783-.026-.1306-.0779-.1045-.1558-.1829-.2597-.2351-.1559-.0784-.3117-.1045-.4935-.0784.0779.1045.1298.209.2337.2874.2078 0 .3896.0522.5455.1567zm-.1039 3.3443c.1558-.0523.2857-.1829.3896-.3397-.1818-.0261-.3636-.0261-.5195.0262-.1299.0522-.2597.1829-.3636.3135.0779 0 .1818.0261.2597.0522.0779 0 .1559 0 .2338-.0522zm.4415-.6009c.1299-.1045.2338-.2613.3117-.4442-.1818 0-.3636.0523-.4935.1568s-.2337.2351-.2857.3919c.0779-.0262.1818-.0262.2597-.0262.078 0 .1559-.0261.2078-.0783zm.4676-1.2019c-.1559.0523-.3117.1307-.4416.2613-.1039.1306-.1558.2874-.1818.4703.0779-.0261.1558-.0523.2597-.0784.0779-.0523.1299-.1045.1818-.1568.1299-.1306.1819-.3135.1819-.4964zm-.1559-1.5676c-.1299.1306-.2337.2613-.2857.4442-.026.0522-.026.1306-.026.209 0 .1045.026.209.052.2874.0519-.0784.1298-.1307.1818-.1829.0519-.0784.0779-.1568.1039-.2352.026-.0522.026-.1306.026-.1828.0259-.1045 0-.2091-.052-.3397zm-.5195-.209c0 .1568.052.3135.1559.4703.026-.0784.0779-.1568.1299-.2352.0259-.0783.0519-.1567.0519-.2351 0-.1829-.0519-.3397-.1558-.4964-.1039.1567-.1819.3135-.1819.4964zm-.4155-.7577c0 .0523 0 .1306.0259.1829.026.1568.1299.2874.2598.418.0259-.0783.0519-.1829.0779-.2612 0-.0262 0-.0262 0-.0523 0-.0522 0-.1045-.026-.1829-.0519-.1567-.1298-.3135-.2857-.4441-.026.1045-.0519.209-.0519.3396zm-.078.3135c-.1038-.0783-.2077-.1306-.3116-.1829-.1559-.0522-.3377-.0261-.4935.0262.0779.1045.1818.1829.2857.2351.1818-.0261.3896-.0261.5454.0261h.026c-.026-.0261-.026-.0522-.052-.1045zm-.4935-.9928c0 .1306.026.2613.078.3919.0779.1568.2078.2613.3636.3397 0-.1045 0-.1829.026-.2874-.026-.0784-.026-.1568-.0779-.209-.078-.1568-.2078-.2874-.3637-.3658-.0259.0522-.026.0784-.026.1306zm-.6753.0523c.052.1829.1559.3396.2857.418.1299.0784.2858.1306.4416.1568-.0519-.0523-.0779-.1045-.1299-.1829-.0259-.0523-.0519-.1307-.0779-.1829-.026-.0261-.026-.0261-.0519-.0523-.1039-.1045-.2598-.1567-.4676-.1567zm-2.0259 4.1019c0 .1306.1039.2874.3377.2874h.4415c-.0519.1568-.1039.3919-.1039.627 0 .3136.052.5748.1559.7577-.3377-.0522-.5715-.1306-.8052-.2612h-.026l-.0519.1306h.0259c.2078.1045.3896.1568.6234.2351 0 0 .1818.0262.3117.0523-.026.0261-.052.0784-.052.1306 0 .1045.078.1829.1818.1829.1039 0 .1819-.0784.1819-.1829 0-.0522-.026-.1045-.052-.1306.1299-.0261.2857-.0523.2857-.0523.2338-.0522.4416-.1045.6494-.2351h.0259l-.0519-.1568h-.026c-.2338.1307-.4675.209-.8052.2613.078-.1829.1559-.4442.1559-.7577 0-.2351-.026-.4703-.1039-.627h.4415c.2338 0 .3377-.1307.3377-.2874 0-.1045-.0779-.209-.2078-.209-.1039 0-.2078.0783-.2078.209 0 .0261 0 .0522.026.0784.026.0261.026.0783-.052.0783h-.2597v-3.3181c0-.4441-.026-.9928-.2857-1.5154l-.0779-.1567-.0779.1567c-.2598.5226-.2858 1.0713-.2858 1.5154v3.3181h-.2597c-.0779 0-.0519-.0522-.0519-.0783 0-.0262.0259-.0523.0259-.0784 0-.1045-.0779-.209-.1818-.209-.0779.0261-.1818.1306-.1818.2351zm-.5454.3919c-.052-.1045-.1299-.1829-.2338-.2613-.026.0784-.0519.1568-.0519.2352s.0259.1829.0519.2612c.026.1307.1039.2091.1818.3136.026 0 .0779.0261.1039.0261v-.0261c-.0519-.1568-.0779-.3397-.0519-.5487zm-.1559-3.3181c-.1558-.0261-.3376 0-.4935.0784-.1039.0522-.2078.1306-.2597.2351 0 .0523 0 .0784-.026.1306h.026c.1558-.1045.3376-.1567.5454-.1567.078-.0784.1559-.1829.2078-.2874zm-.1818 2.9001c-.026-.1045-.1039-.209-.1818-.3136-.0779.1307-.1299.2613-.1299.4181v.0784c0 .1306.052.2351.1299.3396.026.0261.0779.0523.1039.0784v-.0261c-.026-.2091 0-.3658.0779-.5748zm-.5974-.2874c0 .0784.026.1567.052.2612.0259.0262.0519.0523.0779.0784 0 0 0-.0261.026-.0261.0259-.1829.0779-.3658.1818-.5225 0-.1307-.052-.2352-.1039-.3397-.1299.1306-.2078.2874-.2338.4442zm.2078-.7316c.026-.0522.026-.1045.026-.1567 0-.0523-.026-.1307-.026-.1829-.1558.1045-.2597.209-.3377.3657-.0519.1046-.0519.2091-.0519.3136v.0522c.026.0262.0519.0784.0519.1045 0 0 .026 0 .026-.0261.052-.1829.1559-.3396.3117-.4703zm-.3896-.9406v.1046h.026c.1298-.1307.2857-.2091.4675-.2613.0779-.1045.1299-.209.1558-.3135-.1818.0261-.3376.0783-.4675.1829-.0779.0522-.1558.1828-.1818.2873zm-.0779.6532c.026.0262.026.0784.026.1307h.0259c.1039-.1568.2338-.2874.4156-.3658.052-.1045.0779-.2352.0779-.3658-.1818.0523-.3117.1568-.4156.2874-.0779.0784-.1298.1829-.1298.3135zm-.1039.6532c-.1039-.1306-.2597-.209-.4416-.2613.026.1829.078.3397.1819.4703.0519.0523.1298.1045.1818.1568.0779.0261.1558.0522.2337.0784 0-.1568-.0519-.3136-.1558-.4442zm-.2597.4964c.0519.1829.1558.3397.2857.4442.0519.0522.1298.0783.2077.1045.1039 0 .1819 0 .2598.0261-.0779-.1568-.1559-.3135-.2857-.3919-.1039-.1306-.2857-.1829-.4675-.1829zm.3636.7316c.1039.1567.2078.2612.3896.3396.0779.0261.1558.0523.2337.0523.078-.0262.1819-.0262.2598-.0523-.1039-.1306-.2338-.2613-.3636-.3135-.1559-.0784-.3377-.0784-.5195-.0261zm.5195.6009c.1298.1306.2857.209.4675.2351.1558.0262.3376-.0261.4935-.0784-.1299-.1306-.2857-.209-.4676-.2351-.1558-.0522-.3376 0-.4934.0784zm1.3506.1567c0-.0261 0-.0261 0-.0522 0-.1568-.052-.3135-.1299-.4442-.1039-.1306-.2338-.2351-.3896-.3135v.0523c0 .1567.052.3135.1299.4441.0779.1568.2078.2613.3896.3135zm-.6753-5.0163c-.026.0522-.078.1306-.1299.1829.1558 0 .3117-.0523.4415-.1568.1299-.1045.2338-.2613.3117-.418-.1818 0-.3636.0522-.4935.1567-.0259.0262-.0259.0262-.0519.0523-.026.0522-.052.1306-.0779.1829zm-.5195 0c.026.1045.026.1829.026.2874.1558-.0784.2857-.209.3376-.3397.0779-.1306.1039-.2613.1039-.3919 0-.0522 0-.0784-.026-.1306-.1558.0784-.2857.209-.3636.3658-.026.0783-.0519.1306-.0779.209zm-.0779.6793s.0259 0 0 0c.2078-.0523.3896-.0523.5714-.0262.1039-.0522.2078-.1306.2857-.2351-.1558-.0523-.3377-.0784-.4935-.0261-.1299.0261-.2338.0784-.3117.1829-.026.0261-.026.0522-.0519.1045zm-.4156-.1568v.0523c.0519.0783.0779.1829.0779.2612.1299-.1306.2078-.2612.2598-.418.0259-.0523.0259-.1306.0259-.1829 0-.1045-.0259-.2351-.0779-.3396-.1299.1306-.2338.2612-.2857.4441.026.0523 0 .1045 0 .1829zm-.3636.4703c0 .0784.0259.1568.0519.2351.052.0784.1039.1568.1299.2352.0779-.1307.1558-.2874.1558-.4703 0-.1568-.0779-.3397-.1558-.4964-.1039.1567-.1818.3135-.1818.4964zm-.2598.5487c0 .0783 0 .1306.026.1828.026.0784.052.1568.1039.2352.0779.0522.1299.1045.1818.1829.026-.1045.052-.209.052-.2874s0-.1307-.026-.209c-.052-.1568-.1559-.3136-.2857-.4442-.026.1045-.052.2352-.052.3397zm-.1298.5486c0 .1307.0259.2874.1039.3919.0259.0784.0779.1307.1558.1829.0779.0261.1558.0784.2338.1307 0-.0262 0-.0784 0-.1046 0-.1306-.026-.2612-.1039-.3919-.078-.1567-.2078-.2874-.3896-.3657zm-6.31159 2.0641c.18181-.1307.41557-.1829.70128-.1829.31168 0 .62336.0522.96101.1567.3377.0784.7273.1829 1.0909.1568 0-.1829 0-3.8407 0-4.52 0-.0522 0-.0784 0-.1045-.3896.0261-.7792-.0784-1.1428-.1567-.31172-.0784-.6234-.1568-.88314-.1307-.3896 0-.59739.1307-.72725.2352v.1567zm-2.93501.1045c.36363.0261.72726-.0523 1.09089-.1568.33765-.0784.64933-.1568.96102-.1568.28571 0 .51947.0784.70128.1829v-4.3632-.1567c-.12987-.1307-.33765-.2352-.72726-.2352-.28571 0-.57141.0523-.8831.1307-.36362.1045-.72725.1828-1.14283.1567v.1045zm-.70128.7315h3.14279c.07792.1307.20779.2352.3896.2352.18182 0 .33766-.1045.3896-.2352h3.14279v-5.2254h-.1039-.2857l.026.1045v.0262 4.7289c-.2338 0-2.77919 0-2.90905 0-.05195.0784-.1039.1046-.25974.1046-.12987 0-.18181-.0262-.23376-.1046-.12987 0-2.46748 0-2.93501 0v-4.7289-.0262l.02598-.1045h-.3896zm1.14283 10.4769 7.40245-6.6885 7.4284 6.7147c.4935-.9406.8312-1.8551 1.1169-2.7172l-8.5453-7.7336-8.51931 7.7074c.25973.8622.62336 1.7767 1.11686 2.7172zm1.58438-12.6454c.18182 0 .33766.0261.44155.0784v-.2352c-.12987-.0522-.28571-.0522-.44155-.0784-.31168 0-.62336.0784-.96102.1568-.25973.0784-.51947.1306-.80517.1568v.209c.2857-.0261.57141-.1045.85712-.1568.33766-.0522.62336-.1306.90907-.1306zm0 .5486c.18182 0 .33766.0262.44155.0784v-.2351c-.12987-.0523-.28571-.0784-.44155-.0784-.31168 0-.62336.0784-.96102.1568-.25973.0783-.51947.1306-.80517.1567v.209c.2857-.0261.57141-.1045.85712-.1567.33766-.0784.62336-.1568.90907-.1307zm0-3.2136c.18182 0 .33766.0523.44155.0784v-.2351c-.12987-.0523-.28571-.0523-.44155-.0784-.31168 0-.62336.0784-.96102.1568-.25973.0783-.51947.1306-.80517.1567v.209c.2857-.0261.57141-.0784.85712-.1567.33766-.0784.62336-.1307.90907-.1307zm2.51947 1.228c.2597.0784.5454.1306.8571.1568v-.2091c-.2597-.0261-.5455-.0783-.8052-.1567-.33765-.0784-.64933-.1568-.96101-.1568-.15584 0-.31168.0261-.44155.0784v.2351c.10389-.0522.25974-.0783.44155-.0783.28571-.0523.59739.0261.90911.1306zm0-1.0712c.2597.0784.5454.1306.8571.1568v-.2091c-.2597-.0261-.5455-.0783-.8052-.1567-.33765-.0784-.64933-.1568-.96101-.1568-.15584 0-.31168.0261-.44155.0784v.2351c.10389-.0522.25974-.0783.44155-.0783.28571-.0262.59739.0261.90911.1306zm0 2.1163c.2597.0522.5714.1306.8571.1567v-.209c-.2857-.0261-.5455-.0784-.8052-.1567-.33765-.0784-.64933-.1568-.93504-.1568-.15584 0-.31168.0261-.44155.0523v.2351c.1039-.0523.25974-.0784.44155-.0784.25974 0 .57142.0784.88314.1568zm0-1.5938c.2597.0784.5454.1307.8571.1568v-.209c-.2597-.0261-.5455-.0784-.8052-.1568-.33765-.0784-.64933-.1567-.96101-.1567-.15584 0-.31168.0261-.44155.0783v.2352c.10389-.0523.25974-.0784.44155-.0784.28571-.0261.59739.0523.90911.1306zm0 2.1424c.2597.0784.5454.1307.8571.1568v-.209c-.2597-.0261-.5455-.1045-.8052-.1568-.33765-.0784-.64933-.1567-.96101-.1567-.15584 0-.31168.0261-.44155.0783v.2352c.10389-.0523.25974-.0784.44155-.0784.28571-.0261.59739.0523.90911.1306zm0 .5226c.2597.0784.5454.1306.8571.1567v-.209c-.2597-.0261-.5455-.0784-.8052-.1567-.33765-.0784-.64933-.1568-.96101-.1568-.15584 0-.31168.0261-.44155.0784v.2351c.10389-.0522.25974-.0784.44155-.0784.28571-.0261.59739.0523.90911.1307zm16.5711 11.1039-.052.1307c-.4935 1.646-1.3246 3.292-1.922 4.3632l-.1299.209-.8571-.7838c-.026.0522-.0779.1306-.1039.1829-2.1818 3.501-5.2467 6.0353-8.9089 7.3939l-1.2987.4703-1.2987-.4703c-3.63627-1.3325-6.72711-3.8929-8.88291-7.3939-.02598-.0523-.05195-.1307-.1039-.1829l-.8831.7838-.12986-.2351c-.59739-1.0974-1.402573-2.7434-1.922043-4.3632l-.025974-.1046 2.103857-1.9072.25973-.2352.1039.3136c.10389.3919.23376.7576.36362 1.1234l.59739-.5487.23377-.209.10389.3136c.44155 1.3324 1.03894 2.5865 1.74022 3.71 1.84412 2.9523 4.41551 5.0947 7.45441 6.2182 0 0 .2078.0784.3117.1045.1039-.0261.3117-.1045.3117-.1045 3.0389-1.1235 5.6362-3.2659 7.4543-6.2182.7013-1.1235 1.2987-2.3776 1.7403-3.71l.1039-.3136.8311.7577c.1299-.3658.2597-.7315.3636-1.1234l.1039-.3136zm-24.77876 3.1353-.3896-2.4821 1.14283-1.0451c-.12987-.3135-.23376-.6531-.33766-.9928-.33765.3135-1.506459 1.3586-1.6623 1.5154.33766 1.0451.7792 2.0901 1.24673 3.0046zm1.01296.418c-.25973-.4441-.51947-.9144-.72725-1.3847l.2857 1.8027c.07792-.1045.25974-.2612.44155-.418zm21.7398-1.3847c-.2078.4703-.4675.9406-.7272 1.3847.1818.1568.3376.3135.4415.418zm.1559-1.437c-.1819-.1568-1.2987-1.1757-1.6104-1.4631-.4415 1.2541-.987 2.4559-1.6623 3.5271-1.8701 3.0308-4.5194 5.2254-7.6622 6.4011l-.4675.1568-.4416-.1568c-3.14275-1.1496-5.76607-3.3703-7.66213-6.4011-.67532-1.0712-1.22076-2.273-1.66231-3.5271-.33765.2874-1.42854 1.3063-1.61036 1.4631.41558 1.0973.96102 2.1685 1.55841 3.1352 2.12983 3.4227 5.14276 5.9047 8.70109 7.2111 0 0 1.039.3658 1.1429.418.1298-.0522 1.1688-.418 1.1688-.418 3.5583-1.3064 6.5713-3.8146 8.7011-7.2111.5454-.9405 1.0909-2.0117 1.5065-3.1352zm1.3766-.627c-.1559-.1568-1.3247-1.2019-1.6623-1.5154-.1039.3396-.2078.6793-.3377.9928l1.1428 1.0451-.3896 2.5082c.4416-.9145.9091-1.9595 1.2468-3.0307zm-22.3892 3.1874.02598.1045-.07792.0523c-.05195-.0784-.07792-.1568-.12987-.2613-.05195-.0783-.1039-.1567-.15584-.2612l.07792-.0262.07792.0784c.07792-.0784.20779-.1829.25973-.2874l-.18181-.3396-.36363.0783.02597.1046-.05194.0261c-.02598-.0784-.07792-.1306-.1039-.209-.02597-.0523-.05194-.1045-.10389-.1829l.07792-.0261.07792.0783c.25973 0 .80518-.1045 1.14283-.1567.05195.0784.12987.1306.18182.1829l.02597.1045-.33765.418c-.18182.1829-.38961.4442-.46753.5225zm.20779-.7054.31168-.3396-.46752.1045zm1.89607 1.9334.05194-.0522c-.05194-.0523-.07792-.1046-.12986-.1829-.05195-.0523-.07793-.1307-.12987-.1829l-.07792.0522.05194.1045c-.18181.1307-.59739.4703-.59739.4703.1039-.3135.23377-.6793.36363-.9928-.05194-.0523-.07792-.1045-.12986-.1568-.02598-.0522-.07793-.1045-.1039-.1567l-.05195.0522.05195.1045c-.07792.0784-.15584.1307-.25973.2091l-.28571.209c-.1039.0783-.18182.1306-.28571.1829l-.07792-.0784-.05195.0522c.05195.0523.07792.1045.12987.1829.05195.0523.07792.1307.12987.1829l.05194-.0522-.07792-.1307c.18182-.1306.41558-.3135.62337-.4703-.12987.3136-.23376.6532-.36363 1.019.02597.0261.05195.0784.07792.1045s.05195.0784.07792.1045c.10389-.0784.20779-.1829.36363-.2874l.28571-.209c.10389-.0784.20778-.1306.28571-.1829zm.10389.9667c-.28571.2613-.25974.6532-.02597.8883.15584.1568.31168.2613.59739.2874l.02597-.1567c-.15584-.0262-.28571-.0784-.36363-.1829-.18181-.1829-.18181-.4442.02597-.6532.20779-.209.44155-.1306.57142.0261.07792.0784.12987.1829.12987.2874l-.05195.1045.05195.0784c.07792-.0522.18181-.1306.25973-.1568-.05194-.1567-.12986-.2612-.23376-.3919-.28571-.3396-.70128-.3919-.98699-.1306zm2.51943 2.4037c-.23376.2874-.59739.3135-.96102.0261-.33766-.2874-.3896-.627-.12987-.9667.23376-.2874.62337-.3135.96102-.0261.33766.2874.3896.6532.12987.9667zm-.25974-.8099c-.18181-.1568-.41557-.0784-.59739.1045-.18181.209-.18181.4441 0 .6009.18182.1567.41558.0784.59739-.1045.15585-.209.18182-.4703 0-.6009zm2.07786 1.6721c-.0779.1567-.2597.1829-.44153.1045.02598.1306.07793.5748.10393.6532l.0259.0522-.0519.0784c-.1039-.0784-.23377-.1306-.33766-.1829 0-.209-.02597-.5225-.05195-.7054l-.07792-.0523-.05195.1045c-.07792.1045-.12986.209-.15584.2874l.07792.0784-.05194.0784c-.07792-.0523-.15584-.1045-.23376-.1568-.07792-.0522-.15584-.1045-.25974-.1567l.05195-.0784.10389.0522c.07792-.0783.12987-.1829.20779-.2874l.18181-.3135c.07792-.1045.12987-.209.18182-.2874l-.07792-.0784.05194-.0783c.05195.0522.12987.0783.18182.1306.07792.0522.15584.0784.23376.1306.07788.0523.15588.0784.23378.1307.2597.1567.2597.3396.1558.4964zm-.38958-.4442c-.07792-.0522-.10389-.0522-.15584-.0784-.02597.0523-.07792.1307-.12987.2091l-.05194.0783c.02597.0262.05194.0523.07792.0784.15584.1045.28571.1045.36361-.0261.052-.1045.026-.1829-.10388-.2613zm1.97398 1.4109c-.026.2351-.0519.5748-.0519.7054l.0779.0523-.026.0783c-.0779-.0522-.1818-.0783-.2597-.1306s-.1818-.0784-.2598-.1045l.026-.0784.1039.0261c.026-.1045.052-.2612.052-.3657l-.3637-.1568-.2337.2874.0779.0523-.026.0783c-.0779-.0261-.1558-.0783-.2078-.1045-.0519-.0261-.1298-.0522-.1818-.0784l.026-.0783.1039.0261c.2078-.1568.5714-.5487.8311-.8361.1039.0262.1818.0262.2598.0523l.1039.0784zm-.2597-.4703-.3117.3658.2597.1306zm3.8181.9144c-.052-.1045-.1039-.1829-.1559-.3135l-.1298-.3135c-.052-.1306-.1039-.209-.1299-.3135l.1039-.0523-.026-.0784c-.0779.0523-.1818.0784-.2597.1307-.0779.0261-.1818.0783-.2597.1045l.0259.0784.1039-.0262c.052.1045.1039.1829.1559.3135l.1298.3136c.052.1306.0779.209.1299.3135l-.1039.0522.026.0784c.0779-.0522.1818-.0784.2597-.1306.0779-.0261.1818-.0784.2597-.1045l-.0259-.0784zm2.2337-1.2018c-.052-.0784-.1299-.1829-.1818-.2874l-.1818-.3135c-.078-.1045-.1299-.209-.1559-.2874l.0779-.0784-.0519-.0784c-.0779.0523-.1558.1045-.2078.1306-.0779.0523-.1558.0784-.2337.1307.0519.1567.1558.7838.1818.9144-.1299-.1045-.5974-.4703-.7013-.6009-.0779.0523-.1559.1045-.2078.1306-.0779.0523-.1558.0784-.2338.1307l.052.0784.1039-.0262.0779.1568c.0779.1568.3636.627.4156.7577l-.078.0784.052.0783c.0519-.0261.1299-.0783.1818-.1045.052-.0261.1299-.0784.1818-.1045l-.0519-.0784-.1039.0523c-.052-.0784-.1299-.1829-.1818-.2874l-.1039-.1829c-.0779-.1568-.1559-.2613-.1818-.3135.4415.3919.7012.5748.8051.6793l.1559-.1045-.2078-1.0451c.026.0523.1039.1568.1818.3135l.1039.1829c.0779.1045.1039.209.1558.3135l-.0779.0784.026.0784c.0779-.0523.1558-.1045.2338-.1568.0779-.0522.1818-.1045.2597-.1567l-.026-.0784zm1.1948-.9145c-.0779-.0783-.1559-.1567-.2338-.2612l-.1558-.209c-.0779-.0784-.1559-.1829-.2078-.2874.026-.0262.0519-.0784.1039-.1045.1298-.1045.2337-.0784.3117 0 .0779.1045.1039.2351-.026.3135-.026.0261-.052.0522-.0779.0522l.0519.1568c.052-.0261.1039-.0784.1559-.1045.2597-.209.2597-.4703.1298-.6532-.1298-.1567-.3376-.1829-.5454 0-.052.0523-.1039.1045-.1818.1568-.078.0784-.1559.1306-.2078.1829-.052.0522-.1299.1045-.2078.1567l.0519.0523.1039-.0523c.078.0784.1559.1568.2338.2613l.2078.2874c.0779.1045.1558.1829.2078.2613l-.078.0783.052.0523c.0779-.0523.1558-.1306.2338-.1829.0779-.0522.1558-.1045.2597-.209l-.052-.0523zm2.0519-1.8811.0519.0523c-.0779.0522-.1298.1306-.2078.209-.0779.0784-.1298.1567-.2077.209l-.052-.0523.052-.0783c-.078-.0523-.2338-.1307-.3377-.1829l-.2857.2874.1818.3135.0779-.0523.052.0523c-.052.0522-.1039.1045-.1559.1568-.0519.0522-.1039.1045-.1298.1567l-.052-.0522.052-.0784c-.078-.2352-.3377-.7316-.4935-1.0712.0519-.0784.1039-.1568.1298-.2352l.1039-.0522.4676.209c.2077.1045.5194.2351.6233.2613zm-.8052.0784-.4415-.209.2337.418zm2.1298-1.7766.052.0522c-.0779.1045-.1559.209-.2078.3135-.2338 0-.5455-.0261-.7273-.0261l-.0519.0784.0779.0784c.1039.0783.1818.1306.2857.1829l.0779-.0784.078.0522c-.052.0784-.1299.1568-.1819.2352-.0519.0784-.1039.1567-.1818.2351l-.0779-.0522.052-.1045c-.078-.0784-.1559-.1307-.2598-.2091l-.2857-.209c-.1039-.0784-.1818-.1306-.2857-.209l-.0779.0784-.0779-.0523c.0519-.0522.1039-.1045.1298-.1829.052-.0783.1039-.1306.1559-.209.0519-.0784.1039-.1306.1558-.209.2078-.2874.3896-.2613.5195-.1568.1298.1046.1558.2874.0779.4442.1299 0 .5714-.0261.6493-.0261zm-.961-.1046c-.0779-.0783-.1818-.0522-.2597.0784-.052.0523-.0779.1045-.1039.1307.0519.0261.1039.1045.2078.1567l.0779.0523c.026-.0262.0519-.0523.0779-.0784.1039-.1306.1039-.2351 0-.3397zm1.8441-1.0973c-.2337.3919-.5714.4964-.909.2874-.3117-.1829-.4156-.5487-.1819-.9406.2338-.3919.5455-.4964.9091-.2874.3117.1568.4156.5487.1818.9406zm-.3636-.6532c-.2338-.1306-.4675-.1045-.5974.0784-.1299.209-.026.4181.2078.5748.2338.1306.4675.1045.5974-.0784.1299-.209.026-.4441-.2078-.5748zm-9.4024 7.394c-.1299 0-.2597.1306-.2597.2874 0 .1567.1298.2874.2597.2874.1558 0 .2857-.1307.2857-.2874 0-.1568-.1299-.2874-.2857-.2874zm-10.12967-8.7003c.15584 0 .28571-.1306.28571-.2613 0-.1567-.12987-.2874-.28571-.2874s-.25973.1307-.25973.2874c0 .1307.12987.2613.25973.2613zm20.31127 0c.1558 0 .2857-.1306.2857-.2613 0-.1567-.1299-.2874-.2857-.2874-.1299 0-.2597.1307-.2597.2874-.026.1307.1039.2613.2597.2613z"/></g></svg>