<svg width="172" height="86" viewBox="0 0 172 86" fill="none" xmlns="http://www.w3.org/2000/svg">
<path d="M116.019 37.611H116.96V45.241H116.019V37.611Z" fill="black"/>
<path d="M118.307 37.611H119.525L122.047 43.98H122.069V37.611H123.009V45.241H121.716L119.269 39.0644H119.248V45.241H118.307V37.611Z" fill="black"/>
<path d="M124.352 37.611H128.295V38.4446H125.292V40.8383H128.124V41.6718H125.292V45.241H124.352V37.611Z" fill="black"/>
<path d="M131.558 37.4614C132.085 37.4614 132.509 37.579 132.83 37.8141C133.15 38.042 133.4 38.3448 133.578 38.7224C133.756 39.1 133.873 39.5274 133.93 40.0047C133.987 40.4749 134.016 40.9487 134.016 41.426C134.016 41.9105 133.987 42.3878 133.93 42.858C133.873 43.3282 133.756 43.7521 133.578 44.1296C133.4 44.5072 133.15 44.8135 132.83 45.0486C132.509 45.2766 132.085 45.3906 131.558 45.3906C131.031 45.3906 130.607 45.2766 130.286 45.0486C129.966 44.8135 129.716 44.5072 129.538 44.1296C129.36 43.7521 129.243 43.3282 129.186 42.858C129.129 42.3878 129.1 41.9105 129.1 41.426C129.1 40.9487 129.129 40.4749 129.186 40.0047C129.243 39.5274 129.36 39.1 129.538 38.7224C129.716 38.3448 129.966 38.042 130.286 37.8141C130.607 37.579 131.031 37.4614 131.558 37.4614ZM131.558 38.2308C131.23 38.2308 130.97 38.3163 130.778 38.4873C130.586 38.6512 130.436 38.8791 130.329 39.1712C130.229 39.4562 130.162 39.7946 130.126 40.1864C130.098 40.5711 130.083 40.9843 130.083 41.426C130.083 41.8677 130.098 42.2845 130.126 42.6763C130.162 43.061 130.229 43.3994 130.329 43.6915C130.436 43.9765 130.586 44.2044 130.778 44.3754C130.97 44.5393 131.23 44.6212 131.558 44.6212C131.886 44.6212 132.146 44.5393 132.338 44.3754C132.53 44.2044 132.677 43.9765 132.776 43.6915C132.883 43.3994 132.951 43.061 132.979 42.6763C133.015 42.2845 133.033 41.8677 133.033 41.426C133.033 40.9843 133.015 40.5711 132.979 40.1864C132.951 39.7946 132.883 39.4562 132.776 39.1712C132.677 38.8791 132.53 38.6512 132.338 38.4873C132.146 38.3163 131.886 38.2308 131.558 38.2308Z" fill="black"/>
<path d="M135.252 37.611H137.72C138.326 37.611 138.803 37.7785 139.152 38.1133C139.501 38.4481 139.676 38.9183 139.676 39.5239C139.676 39.7305 139.655 39.9371 139.612 40.1437C139.576 40.3503 139.512 40.5426 139.42 40.7207C139.327 40.8917 139.206 41.0449 139.056 41.1802C138.907 41.3085 138.721 41.3975 138.5 41.4474V41.4688C138.835 41.5044 139.092 41.6433 139.27 41.8855C139.455 42.1277 139.558 42.4127 139.58 42.7404L139.644 44.0441C139.651 44.2579 139.665 44.4324 139.687 44.5678C139.715 44.7031 139.744 44.8171 139.772 44.9097C139.808 44.9952 139.847 45.0629 139.89 45.1128C139.94 45.1626 139.993 45.2054 140.05 45.241H138.917C138.875 45.1983 138.839 45.1377 138.81 45.0593C138.782 44.9738 138.757 44.8777 138.736 44.7708C138.714 44.6639 138.696 44.5571 138.682 44.4502C138.675 44.3362 138.668 44.2329 138.661 44.1403L138.597 42.9541C138.575 42.6906 138.525 42.4875 138.447 42.345C138.376 42.1954 138.287 42.085 138.18 42.0138C138.073 41.9354 137.955 41.8891 137.827 41.8748C137.706 41.8535 137.585 41.8428 137.464 41.8428H136.192V45.241H135.252V37.611ZM136.192 41.0734H137.122C137.257 41.0734 137.414 41.0662 137.592 41.052C137.777 41.0377 137.952 40.9843 138.116 40.8917C138.28 40.7991 138.415 40.653 138.522 40.4536C138.636 40.2541 138.693 39.9691 138.693 39.5987C138.693 39.2211 138.572 38.9254 138.33 38.7117C138.094 38.4909 137.756 38.3804 137.314 38.3804H136.192V41.0734Z" fill="black"/>
<path d="M140.922 37.611H142.503L144.031 43.6594H144.053L145.581 37.611H147.162V45.241H146.222V38.5728H146.201L144.512 45.241H143.572L141.883 38.5728H141.862V45.241H140.922V37.611Z" fill="black"/>
<path d="M150.027 37.611H151.288L153.34 45.241H152.357L151.812 43.1465H149.375L148.809 45.241H147.826L150.027 37.611ZM149.568 42.3771H151.62L150.647 38.6903H150.626L149.568 42.3771Z" fill="black"/>
<path d="M155.716 45.241H154.775V38.4446H152.862V37.611H157.639V38.4446H155.716V45.241Z" fill="black"/>
<path d="M158.45 37.611H159.391V45.241H158.45V37.611Z" fill="black"/>
<path d="M163.089 37.4614C163.616 37.4614 164.04 37.579 164.361 37.8141C164.681 38.042 164.931 38.3448 165.109 38.7224C165.287 39.1 165.404 39.5274 165.461 40.0047C165.518 40.4749 165.547 40.9487 165.547 41.426C165.547 41.9105 165.518 42.3878 165.461 42.858C165.404 43.3282 165.287 43.7521 165.109 44.1296C164.931 44.5072 164.681 44.8135 164.361 45.0486C164.04 45.2766 163.616 45.3906 163.089 45.3906C162.562 45.3906 162.138 45.2766 161.817 45.0486C161.497 44.8135 161.247 44.5072 161.069 44.1296C160.891 43.7521 160.774 43.3282 160.717 42.858C160.66 42.3878 160.631 41.9105 160.631 41.426C160.631 40.9487 160.66 40.4749 160.717 40.0047C160.774 39.5274 160.891 39.1 161.069 38.7224C161.247 38.3448 161.497 38.042 161.817 37.8141C162.138 37.579 162.562 37.4614 163.089 37.4614ZM163.089 38.2308C162.761 38.2308 162.501 38.3163 162.309 38.4873C162.117 38.6512 161.967 38.8791 161.86 39.1712C161.76 39.4562 161.693 39.7946 161.657 40.1864C161.629 40.5711 161.614 40.9843 161.614 41.426C161.614 41.8677 161.629 42.2845 161.657 42.6763C161.693 43.061 161.76 43.3994 161.86 43.6915C161.967 43.9765 162.117 44.2044 162.309 44.3754C162.501 44.5393 162.761 44.6212 163.089 44.6212C163.417 44.6212 163.677 44.5393 163.869 44.3754C164.062 44.2044 164.208 43.9765 164.307 43.6915C164.414 43.3994 164.482 43.061 164.51 42.6763C164.546 42.2845 164.564 41.8677 164.564 41.426C164.564 40.9843 164.546 40.5711 164.51 40.1864C164.482 39.7946 164.414 39.4562 164.307 39.1712C164.208 38.8791 164.062 38.6512 163.869 38.4873C163.677 38.3163 163.417 38.2308 163.089 38.2308Z" fill="black"/>
<path d="M166.783 37.611H168.001L170.523 43.98H170.544V37.611H171.485V45.241H170.192L167.745 39.0644H167.723V45.241H166.783V37.611Z" fill="black"/>
<path d="M118.338 54.7028H117.398V47.9063H115.485V47.0728H120.262V47.9063H118.338V54.7028Z" fill="black"/>
<path d="M121.073 47.0728H125.016V47.9063H122.013V50.3H124.845V51.1336H122.013V53.8692H125.144V54.7028H121.073V47.0728Z" fill="black"/>
<path d="M130.796 52.0846C130.775 52.448 130.718 52.7971 130.625 53.1319C130.539 53.4596 130.408 53.7517 130.23 54.0082C130.051 54.2646 129.816 54.4712 129.524 54.628C129.239 54.7776 128.89 54.8524 128.477 54.8524C127.936 54.8524 127.501 54.7384 127.173 54.5104C126.853 54.2753 126.607 53.969 126.436 53.5914C126.265 53.2138 126.151 52.7899 126.094 52.3197C126.044 51.8495 126.019 51.3722 126.019 50.8878C126.019 50.4105 126.048 49.9367 126.105 49.4665C126.162 48.9892 126.279 48.5617 126.457 48.1842C126.635 47.8066 126.885 47.5038 127.205 47.2758C127.526 47.0407 127.95 46.9232 128.477 46.9232C129.254 46.9232 129.816 47.1334 130.165 47.5537C130.522 47.9669 130.71 48.5475 130.732 49.2955H129.749C129.742 49.0818 129.717 48.8788 129.674 48.6864C129.631 48.4869 129.56 48.316 129.46 48.1735C129.367 48.0239 129.239 47.9063 129.075 47.8208C128.919 47.7353 128.719 47.6926 128.477 47.6926C128.149 47.6926 127.889 47.7781 127.697 47.9491C127.505 48.1129 127.355 48.3409 127.248 48.633C127.148 48.918 127.081 49.2563 127.045 49.6482C127.017 50.0329 127.002 50.4461 127.002 50.8878C127.002 51.3295 127.017 51.7462 127.045 52.1381C127.081 52.5228 127.148 52.8612 127.248 53.1533C127.355 53.4382 127.505 53.6662 127.697 53.8372C127.889 54.001 128.149 54.083 128.477 54.083C128.762 54.083 128.99 54.0224 129.161 53.9013C129.332 53.7802 129.464 53.6235 129.556 53.4311C129.656 53.2387 129.72 53.025 129.749 52.7899C129.784 52.5548 129.806 52.3197 129.813 52.0846H130.796Z" fill="black"/>
<path d="M136.273 54.7028H135.333V51.0267H132.715V54.7028H131.774V47.0728H132.715V50.1932H135.333V47.0728H136.273V54.7028Z" fill="black"/>
<path d="M137.621 47.0728H138.839L141.361 53.4418H141.382V47.0728H142.323V54.7028H141.03L138.583 48.5261H138.561V54.7028H137.621V47.0728Z" fill="black"/>
<path d="M146.017 46.9232C146.544 46.9232 146.968 47.0407 147.288 47.2758C147.609 47.5038 147.858 47.8066 148.036 48.1842C148.214 48.5617 148.332 48.9892 148.389 49.4665C148.446 49.9367 148.474 50.4105 148.474 50.8878C148.474 51.3722 148.446 51.8495 148.389 52.3197C148.332 52.7899 148.214 53.2138 148.036 53.5914C147.858 53.969 147.609 54.2753 147.288 54.5104C146.968 54.7384 146.544 54.8524 146.017 54.8524C145.489 54.8524 145.066 54.7384 144.745 54.5104C144.424 54.2753 144.175 53.969 143.997 53.5914C143.819 53.2138 143.701 52.7899 143.644 52.3197C143.587 51.8495 143.559 51.3722 143.559 50.8878C143.559 50.4105 143.587 49.9367 143.644 49.4665C143.701 48.9892 143.819 48.5617 143.997 48.1842C144.175 47.8066 144.424 47.5038 144.745 47.2758C145.066 47.0407 145.489 46.9232 146.017 46.9232ZM146.017 47.6926C145.689 47.6926 145.429 47.7781 145.236 47.9491C145.044 48.1129 144.895 48.3409 144.788 48.633C144.688 48.918 144.62 49.2563 144.585 49.6482C144.556 50.0329 144.542 50.4461 144.542 50.8878C144.542 51.3295 144.556 51.7462 144.585 52.1381C144.62 52.5228 144.688 52.8612 144.788 53.1533C144.895 53.4382 145.044 53.6662 145.236 53.8372C145.429 54.001 145.689 54.083 146.017 54.083C146.344 54.083 146.604 54.001 146.797 53.8372C146.989 53.6662 147.135 53.4382 147.235 53.1533C147.342 52.8612 147.409 52.5228 147.438 52.1381C147.473 51.7462 147.491 51.3295 147.491 50.8878C147.491 50.4461 147.473 50.0329 147.438 49.6482C147.409 49.2563 147.342 48.918 147.235 48.633C147.135 48.3409 146.989 48.1129 146.797 47.9491C146.604 47.7781 146.344 47.6926 146.017 47.6926Z" fill="black"/>
<path d="M149.71 47.0728H150.651V53.8692H153.75V54.7028H149.71V47.0728Z" fill="black"/>
<path d="M156.917 46.9232C157.444 46.9232 157.868 47.0407 158.188 47.2758C158.509 47.5038 158.758 47.8066 158.936 48.1842C159.114 48.5617 159.232 48.9892 159.289 49.4665C159.346 49.9367 159.374 50.4105 159.374 50.8878C159.374 51.3722 159.346 51.8495 159.289 52.3197C159.232 52.7899 159.114 53.2138 158.936 53.5914C158.758 53.969 158.509 54.2753 158.188 54.5104C157.868 54.7384 157.444 54.8524 156.917 54.8524C156.389 54.8524 155.965 54.7384 155.645 54.5104C155.324 54.2753 155.075 53.969 154.897 53.5914C154.719 53.2138 154.601 52.7899 154.544 52.3197C154.487 51.8495 154.459 51.3722 154.459 50.8878C154.459 50.4105 154.487 49.9367 154.544 49.4665C154.601 48.9892 154.719 48.5617 154.897 48.1842C155.075 47.8066 155.324 47.5038 155.645 47.2758C155.965 47.0407 156.389 46.9232 156.917 46.9232ZM156.917 47.6926C156.589 47.6926 156.329 47.7781 156.136 47.9491C155.944 48.1129 155.794 48.3409 155.688 48.633C155.588 48.918 155.52 49.2563 155.485 49.6482C155.456 50.0329 155.442 50.4461 155.442 50.8878C155.442 51.3295 155.456 51.7462 155.485 52.1381C155.52 52.5228 155.588 52.8612 155.688 53.1533C155.794 53.4382 155.944 53.6662 156.136 53.8372C156.329 54.001 156.589 54.083 156.917 54.083C157.244 54.083 157.504 54.001 157.697 53.8372C157.889 53.6662 158.035 53.4382 158.135 53.1533C158.242 52.8612 158.309 52.5228 158.338 52.1381C158.373 51.7462 158.391 51.3295 158.391 50.8878C158.391 50.4461 158.373 50.0329 158.338 49.6482C158.309 49.2563 158.242 48.918 158.135 48.633C158.035 48.3409 157.889 48.1129 157.697 47.9491C157.504 47.7781 157.244 47.6926 156.917 47.6926Z" fill="black"/>
<path d="M164.233 49.1887C164.219 48.9892 164.187 48.8004 164.137 48.6223C164.094 48.4371 164.023 48.2768 163.923 48.1414C163.83 48.0061 163.706 47.8992 163.549 47.8208C163.392 47.7353 163.196 47.6926 162.961 47.6926C162.634 47.6926 162.374 47.7781 162.181 47.9491C161.989 48.1129 161.839 48.3409 161.732 48.633C161.633 48.918 161.565 49.2563 161.529 49.6482C161.501 50.0329 161.487 50.4461 161.487 50.8878C161.487 51.3295 161.501 51.7462 161.529 52.1381C161.565 52.5228 161.633 52.8612 161.732 53.1533C161.839 53.4382 161.989 53.6662 162.181 53.8372C162.374 54.001 162.634 54.083 162.961 54.083C163.289 54.083 163.546 53.9975 163.731 53.8265C163.916 53.6484 164.055 53.4311 164.148 53.1746C164.24 52.9182 164.297 52.6403 164.318 52.3411C164.347 52.0419 164.361 51.764 164.361 51.5076H162.854V50.7382H165.216V54.7028H164.511V53.6662H164.489C164.39 53.9939 164.194 54.2753 163.902 54.5104C163.617 54.7384 163.264 54.8524 162.844 54.8524C162.345 54.8524 161.943 54.7419 161.636 54.5211C161.33 54.3002 161.091 54.0082 160.92 53.6448C160.756 53.2744 160.646 52.8505 160.589 52.3732C160.532 51.8958 160.504 51.4007 160.504 50.8878C160.504 50.4105 160.532 49.9367 160.589 49.4665C160.646 48.9892 160.764 48.5617 160.942 48.1842C161.12 47.8066 161.369 47.5038 161.69 47.2758C162.01 47.0407 162.434 46.9232 162.961 46.9232C163.325 46.9232 163.631 46.9695 163.88 47.0621C164.137 47.1547 164.347 47.2758 164.511 47.4254C164.682 47.5679 164.814 47.7282 164.906 47.9063C164.999 48.0844 165.067 48.259 165.109 48.4299C165.159 48.5938 165.188 48.747 165.195 48.8895C165.209 49.0248 165.216 49.1246 165.216 49.1887H164.233Z" fill="black"/>
<path d="M165.816 47.0728H166.852L168.306 50.642L169.812 47.0728H170.796L168.776 51.7106V54.7028H167.835V51.7106L165.816 47.0728Z" fill="black"/>
<path d="M116.041 28.1496H117.623L119.151 34.198H119.172L120.7 28.1496H122.282V35.7796H121.341V29.1114H121.32L119.632 35.7796H118.691L117.003 29.1114H116.981V35.7796H116.041V28.1496Z" fill="#006DAE"/>
<path d="M126.002 28C126.529 28 126.953 28.1175 127.273 28.3526C127.594 28.5806 127.843 28.8834 128.021 29.261C128.199 29.6386 128.317 30.066 128.374 30.5433C128.431 31.0135 128.459 31.4873 128.459 31.9646C128.459 32.449 128.431 32.9264 128.374 33.3965C128.317 33.8667 128.199 34.2906 128.021 34.6682C127.843 35.0458 127.594 35.3521 127.273 35.5872C126.953 35.8152 126.529 35.9292 126.002 35.9292C125.474 35.9292 125.051 35.8152 124.73 35.5872C124.409 35.3521 124.16 35.0458 123.982 34.6682C123.804 34.2906 123.686 33.8667 123.629 33.3965C123.572 32.9264 123.544 32.449 123.544 31.9646C123.544 31.4873 123.572 31.0135 123.629 30.5433C123.686 30.066 123.804 29.6386 123.982 29.261C124.16 28.8834 124.409 28.5806 124.73 28.3526C125.051 28.1175 125.474 28 126.002 28ZM126.002 28.7694C125.674 28.7694 125.414 28.8549 125.222 29.0259C125.029 29.1897 124.88 29.4177 124.773 29.7098C124.673 29.9948 124.605 30.3332 124.57 30.725C124.541 31.1097 124.527 31.5229 124.527 31.9646C124.527 32.4063 124.541 32.8231 124.57 33.2149C124.605 33.5996 124.673 33.938 124.773 34.2301C124.88 34.515 125.029 34.743 125.222 34.914C125.414 35.0778 125.674 35.1598 126.002 35.1598C126.329 35.1598 126.589 35.0778 126.782 34.914C126.974 34.743 127.12 34.515 127.22 34.2301C127.327 33.938 127.394 33.5996 127.423 33.2149C127.459 32.8231 127.476 32.4063 127.476 31.9646C127.476 31.5229 127.459 31.1097 127.423 30.725C127.394 30.3332 127.327 29.9948 127.22 29.7098C127.12 29.4177 126.974 29.1897 126.782 29.0259C126.589 28.8549 126.329 28.7694 126.002 28.7694Z" fill="#006DAE"/>
<path d="M129.696 28.1496H130.914L133.436 34.5186H133.457V28.1496H134.397V35.7796H133.104L130.657 29.6029H130.636V35.7796H129.696V28.1496Z" fill="#006DAE"/>
<path d="M137.236 28.1496H138.497L140.549 35.7796H139.566L139.021 33.6851H136.585L136.018 35.7796H135.035L137.236 28.1496ZM136.777 32.9157H138.829L137.856 29.2289H137.835L136.777 32.9157Z" fill="#006DAE"/>
<path d="M144.428 30.1266C144.428 29.9271 144.407 29.7454 144.364 29.5816C144.328 29.4106 144.264 29.2681 144.172 29.1541C144.079 29.033 143.954 28.9404 143.798 28.8763C143.648 28.805 143.463 28.7694 143.242 28.7694C142.843 28.7694 142.533 28.8763 142.312 29.09C142.092 29.2966 141.981 29.6029 141.981 30.009C141.981 30.3652 142.07 30.6395 142.248 30.8319C142.426 31.0242 142.647 31.1774 142.911 31.2914C143.181 31.4053 143.47 31.5086 143.776 31.6013C144.09 31.6867 144.378 31.8043 144.642 31.9539C144.913 32.1035 145.137 32.3101 145.315 32.5737C145.493 32.8373 145.582 33.2006 145.582 33.6637C145.582 34.1054 145.508 34.4723 145.358 34.7644C145.215 35.0565 145.03 35.288 144.802 35.459C144.574 35.63 144.318 35.7511 144.033 35.8223C143.755 35.8936 143.481 35.9292 143.21 35.9292C142.761 35.9292 142.387 35.8722 142.088 35.7582C141.796 35.6442 141.561 35.4804 141.383 35.2666C141.212 35.0529 141.087 34.7893 141.009 34.4759C140.937 34.1553 140.902 33.7919 140.902 33.3859H141.842C141.842 33.5996 141.853 33.8133 141.874 34.027C141.896 34.2336 141.953 34.4224 142.045 34.5934C142.138 34.7644 142.28 34.9033 142.473 35.0102C142.665 35.1099 142.932 35.1598 143.274 35.1598C143.459 35.1598 143.634 35.1277 143.798 35.0636C143.962 34.9995 144.101 34.9104 144.214 34.7964C144.336 34.6753 144.428 34.5328 144.492 34.369C144.564 34.2051 144.599 34.0199 144.599 33.8133C144.599 33.5426 144.546 33.3217 144.439 33.1508C144.339 32.9798 144.204 32.8373 144.033 32.7233C143.869 32.6022 143.677 32.506 143.456 32.4348C143.242 32.3564 143.021 32.2781 142.793 32.1997C142.572 32.1213 142.352 32.0358 142.131 31.9432C141.917 31.8435 141.725 31.7188 141.554 31.5692C141.39 31.4125 141.254 31.2166 141.148 30.9815C141.048 30.7464 140.998 30.4543 140.998 30.1052C140.998 29.9271 141.023 29.7205 141.073 29.4854C141.123 29.2432 141.226 29.0116 141.383 28.7908C141.547 28.5699 141.774 28.3847 142.067 28.2351C142.359 28.0784 142.747 28 143.231 28C143.965 28 144.499 28.1781 144.834 28.5343C145.176 28.8905 145.354 29.4213 145.369 30.1266H144.428Z" fill="#006DAE"/>
<path d="M151.139 35.7796H150.199V32.1035H147.581V35.7796H146.64V28.1496H147.581V31.27H150.199V28.1496H151.139V35.7796Z" fill="#006DAE"/>
<g clip-path="url(#clip0)">
<path d="M39.1624 42.6833V50.0512C39.1624 53.0819 37.9156 54.4927 35.2663 54.4927C32.2015 54.4927 31.5521 52.0891 31.5521 50.0512V42.6833H30.6431V50.0512C30.6431 53.526 32.2015 55.3027 35.2663 55.3027C38.4351 55.3027 40.0455 53.5522 40.0455 50.0512V42.6833H39.1624Z" fill="black"/>
<path d="M45.8637 45.8708C44.4871 45.8708 43.2923 46.6024 42.7988 47.752C42.7988 47.334 42.7988 46.0799 42.7988 46.0799H41.9937V54.9892H42.7988V50.1818C42.7988 48.0133 43.9936 46.6024 45.8637 46.6024C48.2533 46.6024 48.2533 48.6926 48.2533 49.398V55.0153H49.0584V49.5286C49.0325 48.5097 49.0325 45.8708 45.8637 45.8708Z" fill="black"/>
<path d="M51.0063 46.0798V54.9891H51.7856V46.0798H51.7076H51.0063Z" fill="black"/>
<path d="M51.0063 43.3625V44.5644H51.7856V43.3625H51.7076H51.0063Z" fill="black"/>
<path d="M59.6815 46.0798C59.6815 46.0798 56.8764 53.735 56.7725 53.9963C56.6686 53.735 53.6557 46.0798 53.6557 46.0798H52.7466L56.3049 54.9891H57.214L60.5646 46.0798H60.4607H59.6815V46.0798Z" fill="black"/>
<path d="M64.8757 45.8708C63.8368 45.8708 62.9537 46.2366 62.2784 46.9159C61.4212 47.7781 60.9537 49.1628 60.9537 50.6782C60.9277 52.0891 61.3693 53.2909 62.1745 54.127C62.8498 54.8324 63.8108 55.1982 64.8757 55.1982C67.0055 55.1982 68.3562 54.0486 68.7198 51.9584L68.7458 51.8801H67.9406V51.9323C67.6289 53.5261 66.512 54.4666 64.9017 54.4666C64.0705 54.4666 63.3693 54.1792 62.8238 53.6306C62.1485 52.9513 61.7849 51.8801 61.7849 50.7043C61.7849 50.7043 61.7849 50.7043 61.7849 50.6782C61.9407 50.6782 68.8237 50.6782 68.8237 50.6782V50.5998C68.8237 50.4953 68.8237 50.3647 68.8237 50.2602C68.8237 48.9016 68.4081 47.7259 67.6808 46.9421C66.9536 46.2628 66.0185 45.8708 64.8757 45.8708ZM64.8757 46.6024C66.8497 46.6024 67.9146 48.3007 67.9925 49.9989C67.8367 49.9989 61.9407 49.9989 61.7849 49.9989C61.9407 48.3007 63.0316 46.6024 64.8757 46.6024Z" fill="black"/>
<path d="M71.0059 47.8565C71.0059 47.4646 71.0059 46.0799 71.0059 46.0799H70.2007V54.9892H71.0059V50.1295C71.0838 48.7971 71.3695 48.3007 71.9669 47.6475C72.9019 46.733 73.9928 46.7853 74.3045 46.8114H74.3824V46.0276H74.3045C72.8759 45.9754 71.4734 46.7592 71.0059 47.8565Z" fill="black"/>
<path d="M78.5903 50.0512L78.3305 49.9989C77.0059 49.7115 75.7592 49.4502 75.7592 48.1961C75.7592 47.0204 77.0059 46.5763 78.2007 46.5763C79.1357 46.5763 80.6941 46.8637 80.6941 48.7448V48.8232H81.4993V48.7448C81.4993 46.8898 80.3305 45.8708 78.2007 45.8708C77.4474 45.8708 74.9799 46.0276 74.9799 48.1961C74.9799 50.1295 76.7461 50.4953 78.0448 50.7566L78.2786 50.8088C79.6552 51.0962 80.9798 51.3575 80.9798 52.69C80.9798 54.3099 79.1097 54.4666 78.3046 54.4666C76.6942 54.4666 75.6033 53.4999 75.4994 51.9846V51.9062H74.7202V51.9846C74.7722 53.9441 76.1488 55.172 78.3305 55.172C79.1357 55.172 81.811 54.9892 81.811 52.6639C81.7331 50.8088 80.3045 50.3908 78.5903 50.0512Z" fill="black"/>
<path d="M83.3696 46.0798V54.9891H84.1748V46.0798H84.0969H83.3696Z" fill="black"/>
<path d="M96.538 46.0798C96.538 46.0798 93.7329 53.6043 93.603 53.944C93.4731 53.6043 90.4083 46.0798 90.4083 46.0798C90.4083 46.0798 87.707 46.0798 87.5772 46.0798C87.5772 45.9491 87.5772 43.3625 87.5772 43.3625H87.4992H86.772C86.772 43.3625 86.772 45.9491 86.772 46.0798C86.6421 46.0798 85.1616 46.0798 85.1616 46.0798V46.8113C85.1616 46.8113 86.6421 46.8113 86.772 46.8113C86.772 46.9681 86.772 52.8466 86.772 52.8466C86.772 52.8989 86.772 52.9511 86.772 53.0034C86.772 53.6827 86.9278 54.1791 87.2914 54.5188C87.8109 55.0413 88.694 55.0413 89.3953 55.0152H89.4732V54.3097H89.3953C88.668 54.3359 88.2005 54.2836 87.9148 53.9962C87.681 53.7872 87.5772 53.4214 87.5772 52.8466C87.5772 52.8466 87.5772 46.9419 87.5772 46.8113C87.707 46.8113 89.707 46.8113 89.7849 46.8113C89.8109 46.9158 93.1355 54.8323 93.1614 54.8845C92.7718 56.008 92.5381 56.635 92.2784 56.8963C91.8628 57.3144 91.4472 57.445 90.5122 57.445H90.4342V58.1504H90.5122C91.4732 58.1504 92.0965 58.1243 92.59 57.7324C92.9537 57.445 93.2394 56.8179 93.629 55.9035L97.3951 46.1059H96.538V46.0798Z" fill="black"/>
<path d="M83.3696 43.3625V44.5644H84.1748V43.3625H84.0969H83.3696Z" fill="black"/>
<path d="M50.7729 40.7761C47.2405 40.6977 44.2795 37.9805 44.3575 34.1921C44.4614 31.2136 46.8249 27.8433 51.1365 27.9739C54.1495 28.0262 57.5 30.2992 57.4221 34.4795C57.3182 38.686 53.8118 40.8806 50.7729 40.7761ZM50.9028 28.7838C48.2015 28.7838 46.3314 30.7695 46.3314 34.1399C46.3314 38.1634 48.695 39.9662 50.9288 39.9662C53.63 39.9662 55.4222 37.876 55.4222 34.584C55.4481 31.0308 53.63 28.7838 50.9028 28.7838Z" fill="black"/>
<path d="M102.668 28.3396V28.1567H99.1355V28.3396C99.8368 28.3919 100.019 28.5225 100.019 29.5153V33.8524H93.681V29.5153C93.681 28.5225 93.8628 28.3658 94.5641 28.3396V28.1567H91.0317V28.3396C91.733 28.3919 91.9148 28.5225 91.9148 29.5153V39.2346C91.9148 40.2274 91.733 40.3842 91.0317 40.4103V40.5932H94.5641V40.4103C93.8628 40.358 93.681 40.2274 93.681 39.2346V34.6101H100.019V39.2607C100.019 40.2535 99.8368 40.4103 99.1355 40.4364V40.6193H102.668V40.4364C101.967 40.3842 101.785 40.2535 101.785 39.2607V29.5415C101.785 28.5225 101.967 28.3919 102.668 28.3396Z" fill="black"/>
<path d="M58.3569 28.1567V28.3396C59.0322 28.3658 59.24 28.4441 59.24 29.1757V39.2607C59.24 40.2535 59.0582 40.4103 58.3569 40.4364V40.6193H61.0322V40.4364C60.3309 40.3842 60.1491 40.2535 60.1491 39.2607V30.1946C60.1491 30.3514 67.0321 38.7904 68.5386 40.6193H68.8243V29.1757C68.8243 28.4441 69.0061 28.3919 69.7074 28.3396V28.1567H67.084V28.3396C67.7594 28.3658 67.9671 28.4441 67.9671 29.1757V37.0922L60.6946 28.1567H58.3569Z" fill="black"/>
<path d="M75.707 28.1567H75.4733C74.8499 29.646 71.9409 36.5435 70.9539 38.921C70.7721 39.3391 70.4863 39.9923 70.2786 40.2274C70.1227 40.4103 69.9669 40.4103 69.811 40.4364V40.6193H72.1746V40.4364C71.9928 40.4364 71.5772 40.4364 71.5513 40.0706C71.5513 39.9661 71.5772 39.8355 71.6292 39.7049C71.7071 39.4958 72.1746 38.2679 72.772 36.9093H77.4732C77.9407 38.0589 78.3563 39.0517 78.5641 39.4958C78.6161 39.6265 78.7459 39.94 78.7459 40.0706C78.7459 40.4103 78.4342 40.4364 78.0966 40.4364V40.6193H81.3952V40.4364C80.9796 40.4103 80.8498 40.3058 80.5641 39.6265L75.707 28.1567ZM73.0577 36.1255C73.8629 34.1398 75.0837 31.0046 75.0837 31.0046C75.0837 31.0046 76.2005 33.8263 77.1356 36.1255H73.0577Z" fill="black"/>
<path d="M29.942 28.1575V28.3404C30.3316 28.3665 30.5394 28.3926 30.6692 28.5494C30.6952 28.6016 30.7472 28.68 30.7731 28.7323C30.7991 28.7845 30.7991 28.8629 30.7991 28.9413C30.7991 29.0197 30.7991 29.098 30.7991 29.1764V39.2614C30.7991 40.2543 30.6173 40.411 29.916 40.4371V40.62H32.5653V40.4371C31.864 40.3849 31.6822 40.2543 31.6822 39.2614V30.6134C31.6822 30.4566 31.6562 30.1431 31.6562 30.1431L31.8121 30.6134L36.0977 40.5678H36.3574L40.721 30.326L40.8509 29.908C40.8509 29.908 40.8249 30.117 40.8249 30.2999V39.2614C40.8249 40.2543 40.6431 40.411 39.9418 40.4371V40.62H43.4742V40.4371C42.7729 40.3849 42.5911 40.2543 42.5911 39.2614V29.1764C42.5911 28.4449 42.7729 28.3926 43.4742 28.3404V28.1575H40.721L36.773 37.5632L32.7731 28.1575H29.942Z" fill="black"/>
<path d="M81.9932 39.7833C82.8243 40.2797 84.0451 40.8022 85.3697 40.8022C85.3957 40.8022 85.4217 40.8022 85.4476 40.8022C87.3697 40.7761 89.4216 39.3391 89.4216 37.0661C89.4216 34.6101 87.7073 34.0353 85.9931 33.147C84.2529 32.2848 83.5256 31.8407 83.5256 30.6911C83.5256 29.9073 83.9931 28.7577 85.5515 28.7577C86.045 28.7577 86.4866 28.8883 86.8502 29.0712C88.0969 29.7766 88.1749 30.7695 88.3307 31.3965H88.5125L88.4086 28.627C87.6034 28.2874 86.9801 28.1306 86.5385 28.0784C86.2788 28.0523 86.0191 28.0261 85.8113 28.0261C84.071 28.0261 82.0451 29.0712 82.0451 31.2659C82.0451 32.7551 82.9282 33.6957 84.6944 34.584C86.4346 35.4723 87.7593 35.8381 87.7593 37.5886C87.7593 38.4769 87.2398 40.0445 85.2918 40.0445C84.5126 40.0445 83.8892 39.7833 83.3957 39.3652C82.2269 38.2679 82.2529 37.3796 82.175 37.0399H81.9932V39.7833Z" fill="black"/>
<path d="M18.411 34.1405H18.2032V29.7512C18.3851 30.1954 18.411 30.6395 18.411 31.0053V34.1405ZM10.1515 32.39C10.4112 32.4684 10.6969 32.5207 11.0086 32.5468V32.3378C10.7489 32.3117 10.4631 32.2594 10.2034 32.181C9.86575 32.1026 9.55407 32.0243 9.24239 32.0243C9.08655 32.0243 8.93071 32.0504 8.80084 32.1026V32.3378C8.90473 32.2855 9.06058 32.2594 9.24239 32.2594C9.5281 32.2333 9.83978 32.3117 10.1515 32.39ZM7.63203 32.2333C7.81385 32.2333 7.96969 32.2594 8.07358 32.3117V32.0765C7.94371 32.0243 7.78787 31.9981 7.63203 31.9981C7.32035 31.9981 7.00867 32.0765 6.67101 32.1549C6.41128 32.2333 6.15154 32.2855 5.86584 32.3117V32.5207C6.15154 32.4945 6.43725 32.4423 6.72296 32.3639C7.06062 32.3117 7.34632 32.2333 7.63203 32.2333ZM7.63203 31.7107C7.81385 31.7107 7.96969 31.763 8.07358 31.7891V31.554C7.94371 31.5017 7.78787 31.5017 7.63203 31.4756C7.32035 31.4756 7.00867 31.554 6.67101 31.6324C6.41128 31.7107 6.15154 31.763 5.86584 31.7891V31.9981C6.17752 31.972 6.43725 31.9198 6.72296 31.8414C7.06062 31.763 7.34632 31.6846 7.63203 31.7107ZM7.63203 32.7819C7.81385 32.7819 7.96969 32.8081 8.07358 32.8603V32.6252C7.94371 32.5729 7.78787 32.5729 7.63203 32.5468C7.32035 32.5468 7.00867 32.6252 6.67101 32.7036C6.41128 32.7819 6.15154 32.8342 5.86584 32.8603V33.0693C6.17752 33.0432 6.43725 32.9648 6.72296 32.9126C7.06062 32.8342 7.34632 32.7558 7.63203 32.7819ZM7.63203 31.1621C7.81385 31.1621 7.96969 31.2143 8.07358 31.2405V31.0053C7.94371 30.9531 7.78787 30.9269 7.63203 30.9269C7.32035 30.9269 7.00867 31.0053 6.67101 31.0837C6.41128 31.1621 6.15154 31.2143 5.86584 31.2405V31.4495C6.15154 31.4233 6.43725 31.3711 6.72296 31.2927C7.06062 31.2405 7.34632 31.1621 7.63203 31.1621ZM6.22946 47.1518C3.65809 42.8931 3.71004 38.7389 3.71004 38.2164V28.1575H23.1902V38.2164C23.1902 38.7389 23.2421 42.8931 20.6707 47.1518C18.3851 51.0186 14.9306 52.7168 13.4501 53.2394C11.9956 52.7168 8.54111 51.0186 6.22946 47.1518ZM11.4242 46.368L10.9047 45.9499L11.1904 45.3229L10.5151 45.4535L10.2294 44.8526L9.9177 45.4535L9.26836 45.3229L9.55407 45.9499L9.0346 46.368L9.68394 46.5247V47.204L10.2294 46.786L10.7489 47.204V46.5247L11.4242 46.368ZM14.2033 50.6267L14.8527 50.3131L14.2033 50.0257L14.4371 49.3464L13.7618 49.6077L13.4761 48.9545L13.1904 49.5816L12.5151 49.3203L12.7748 49.9996L12.1254 50.287L12.7748 50.6005L12.5151 51.2798L13.1904 51.0186L13.4761 51.6717L13.7618 51.0186L14.4371 51.2798L14.2033 50.6267ZM12.7748 42.8408L12.2553 43.285L12.9047 43.4417V44.121L13.4241 43.703L13.9696 44.121L13.9955 43.4417L14.6449 43.285L14.1254 42.8408L14.4111 42.2138L13.7358 42.3444L13.4501 41.7435L13.1644 42.3444L12.4891 42.2138L12.7748 42.8408ZM15.0605 47.1256L15.4501 46.7076L14.8786 46.6031L14.6189 46.0806L14.3592 46.6031L13.7878 46.7076L14.2033 47.1256L14.0994 47.7004L14.6189 47.4392L15.1384 47.7004L15.0605 47.1256ZM16.9825 45.0616L17.2942 44.5391H16.6968L16.4111 44.0165L16.1254 44.5391H15.528L15.8397 45.0616L15.528 45.5842H16.1254L16.4111 46.1067L16.6968 45.5842H17.2942L16.9825 45.0616ZM21.5538 32.4684C21.398 32.5468 21.2681 32.6774 21.1902 32.8342C21.1123 32.9648 21.0863 33.0955 21.0863 33.2261C21.0863 33.2522 21.0863 33.2784 21.0863 33.3306C21.1642 33.2784 21.2421 33.2261 21.3201 33.1738C21.372 33.1216 21.424 33.0432 21.4759 32.991C21.5279 32.8865 21.5538 32.7297 21.5538 32.5991C21.5538 32.5468 21.5538 32.4945 21.5538 32.4684ZM19.5279 35.473C19.6837 35.5514 19.8656 35.5775 20.0474 35.5514C20.2292 35.5253 20.359 35.4469 20.4889 35.3163C20.3331 35.2379 20.1772 35.2118 19.9954 35.2379C19.8136 35.264 19.6578 35.3685 19.5279 35.473ZM19.5279 35.1856C19.6058 35.055 19.6578 34.8982 19.6578 34.7415C19.6578 34.7153 19.6578 34.7153 19.6578 34.6892C19.5019 34.7676 19.3721 34.8721 19.2682 35.0027C19.1902 35.1334 19.1383 35.2901 19.1383 35.4469C19.1383 35.473 19.1383 35.473 19.1383 35.4991C19.3201 35.4469 19.45 35.3424 19.5279 35.1856ZM19.7357 35.1334C19.7357 35.1334 19.7357 35.1595 19.7357 35.1334C19.7876 35.1334 19.8136 35.1334 19.8396 35.1072C19.9435 35.0289 19.9954 34.9244 20.0474 34.7937C20.0733 34.7153 20.0993 34.6108 20.0993 34.5324C20.0993 34.4541 20.0733 34.3757 20.0474 34.2973C19.9435 34.3757 19.8655 34.4541 19.8136 34.5586C19.8136 34.7937 19.7876 34.9766 19.7357 35.1334ZM20.2292 34.7153C20.2292 34.7415 20.2292 34.7415 20.2292 34.7153C20.2811 34.7153 20.3071 34.6892 20.3331 34.6631C20.411 34.5586 20.437 34.4541 20.4629 34.3234C20.4629 34.2973 20.4629 34.2712 20.4629 34.2451C20.4629 34.1144 20.411 33.9577 20.3331 33.827C20.2552 33.9315 20.1772 34.036 20.1513 34.1405C20.2292 34.3757 20.2552 34.5324 20.2292 34.7153ZM20.5928 34.1928C20.5928 34.2189 20.5928 34.2189 20.5928 34.1928C20.6448 34.1928 20.6707 34.1667 20.6967 34.1144C20.7227 34.036 20.7486 33.9577 20.7486 33.8531C20.7486 33.827 20.7486 33.7748 20.7486 33.7486C20.7227 33.5919 20.6448 33.4351 20.5149 33.3045C20.4629 33.409 20.437 33.5396 20.437 33.6441C20.5149 33.8531 20.5668 34.0099 20.5928 34.1928ZM20.8525 33.5919C20.8525 33.618 20.8525 33.618 20.8525 33.5919C20.9045 33.5658 20.9045 33.5396 20.9305 33.4874C20.9305 33.4612 20.9305 33.4612 20.9305 33.4351C20.9305 33.3306 20.9045 33.2261 20.8785 33.1216C20.8266 32.9648 20.6967 32.8603 20.5409 32.7558C20.5149 32.8081 20.5149 32.8865 20.5149 32.9387C20.5149 32.991 20.5149 33.0432 20.5409 33.0955C20.6967 33.2784 20.8006 33.4351 20.8525 33.5919ZM20.9564 32.9648C20.9824 32.9387 21.0084 32.8865 21.0084 32.8603C20.9824 32.7297 20.9564 32.6252 20.8785 32.5207C20.7746 32.39 20.6448 32.2855 20.4629 32.2333C20.4629 32.3639 20.4889 32.4945 20.5409 32.5991C20.7227 32.6774 20.8525 32.8081 20.9564 32.9648ZM20.9305 32.2071C20.8785 32.0765 20.8266 31.972 20.7227 31.8936C20.5928 31.7891 20.4629 31.7369 20.2811 31.7107C20.3071 31.8414 20.359 31.9459 20.437 32.0243C20.6188 32.0765 20.7746 32.181 20.9045 32.2855H20.9305C20.9305 32.2855 20.9305 32.2594 20.9305 32.2071ZM20.7227 31.7107C20.7227 31.6585 20.6967 31.6324 20.6967 31.5801C20.6188 31.4756 20.5409 31.3972 20.437 31.345C20.2811 31.2666 20.1253 31.2405 19.9435 31.2666C20.0214 31.3711 20.0733 31.4756 20.1772 31.554C20.385 31.554 20.5668 31.6062 20.7227 31.7107ZM20.6188 35.055C20.7746 35.0027 20.9045 34.8721 21.0084 34.7153C20.8266 34.6892 20.6448 34.6892 20.4889 34.7415C20.359 34.7937 20.2292 34.9244 20.1253 35.055C20.2032 35.055 20.3071 35.0811 20.385 35.1072C20.4629 35.1072 20.5409 35.1072 20.6188 35.055ZM21.0603 34.4541C21.1902 34.3496 21.2941 34.1928 21.372 34.0099C21.1902 34.0099 21.0084 34.0622 20.8785 34.1667C20.7486 34.2712 20.6448 34.4018 20.5928 34.5586C20.6707 34.5324 20.7746 34.5324 20.8525 34.5324C20.9305 34.5324 21.0084 34.5063 21.0603 34.4541ZM21.5279 33.2522C21.372 33.3045 21.2162 33.3829 21.0863 33.5135C20.9824 33.6441 20.9305 33.8009 20.9045 33.9838C20.9824 33.9577 21.0603 33.9315 21.1642 33.9054C21.2421 33.8531 21.2941 33.8009 21.346 33.7486C21.4759 33.618 21.5279 33.4351 21.5279 33.2522ZM21.372 31.6846C21.2421 31.8152 21.1383 31.9459 21.0863 32.1288C21.0603 32.181 21.0603 32.2594 21.0603 32.3378C21.0603 32.4423 21.0863 32.5468 21.1123 32.6252C21.1642 32.5468 21.2421 32.4945 21.2941 32.4423C21.346 32.3639 21.372 32.2855 21.398 32.2071C21.424 32.1549 21.424 32.0765 21.424 32.0243C21.4499 31.9198 21.424 31.8152 21.372 31.6846ZM20.8525 31.4756C20.8525 31.6324 20.9045 31.7891 21.0084 31.9459C21.0344 31.8675 21.0863 31.7891 21.1383 31.7107C21.1642 31.6324 21.1902 31.554 21.1902 31.4756C21.1902 31.2927 21.1383 31.1359 21.0344 30.9792C20.9305 31.1359 20.8525 31.2927 20.8525 31.4756ZM20.437 30.7179C20.437 30.7702 20.437 30.8485 20.4629 30.9008C20.4889 31.0576 20.5928 31.1882 20.7227 31.3188C20.7486 31.2405 20.7746 31.1359 20.8006 31.0576C20.8006 31.0314 20.8006 31.0314 20.8006 31.0053C20.8006 30.9531 20.8006 30.9008 20.7746 30.8224C20.7227 30.6657 20.6448 30.5089 20.4889 30.3783C20.4629 30.4828 20.437 30.5873 20.437 30.7179ZM20.359 31.0314C20.2552 30.9531 20.1513 30.9008 20.0474 30.8485C19.8915 30.7963 19.7097 30.8224 19.5539 30.8747C19.6318 30.9792 19.7357 31.0576 19.8396 31.1098C20.0214 31.0837 20.2292 31.0837 20.385 31.1359H20.411C20.385 31.1098 20.385 31.0837 20.359 31.0314ZM19.8655 30.0386C19.8655 30.1692 19.8915 30.2999 19.9435 30.4305C20.0214 30.5873 20.1513 30.6918 20.3071 30.7702C20.3071 30.6657 20.3071 30.5873 20.3331 30.4828C20.3071 30.4044 20.3071 30.326 20.2552 30.2738C20.1772 30.117 20.0474 29.9864 19.8915 29.908C19.8656 29.9602 19.8655 29.9864 19.8655 30.0386ZM19.1902 30.0909C19.2422 30.2738 19.3461 30.4305 19.4759 30.5089C19.6058 30.5873 19.7617 30.6395 19.9175 30.6657C19.8656 30.6134 19.8396 30.5612 19.7876 30.4828C19.7617 30.4305 19.7357 30.3521 19.7097 30.2999C19.6837 30.2738 19.6837 30.2738 19.6578 30.2476C19.5539 30.1431 19.398 30.0909 19.1902 30.0909ZM17.1643 34.1928C17.1643 34.3234 17.2682 34.4802 17.502 34.4802H17.9435C17.8916 34.637 17.8396 34.8721 17.8396 35.1072C17.8396 35.4208 17.8916 35.682 17.9955 35.8649C17.6578 35.8127 17.424 35.7343 17.1903 35.6037H17.1643L17.1124 35.7343H17.1383C17.3461 35.8388 17.5279 35.8911 17.7617 35.9694C17.7617 35.9694 17.9435 35.9956 18.0734 36.0217C18.0474 36.0478 18.0214 36.1001 18.0214 36.1523C18.0214 36.2568 18.0994 36.3352 18.2032 36.3352C18.3071 36.3352 18.3851 36.2568 18.3851 36.1523C18.3851 36.1001 18.3591 36.0478 18.3331 36.0217C18.463 35.9956 18.6188 35.9694 18.6188 35.9694C18.8526 35.9172 19.0604 35.8649 19.2682 35.7343H19.2941L19.2422 35.5775H19.2162C18.9824 35.7082 18.7487 35.7865 18.411 35.8388C18.489 35.6559 18.5669 35.3946 18.5669 35.0811C18.5669 34.846 18.5409 34.6108 18.463 34.4541H18.9045C19.1383 34.4541 19.2422 34.3234 19.2422 34.1667C19.2422 34.0622 19.1643 33.9577 19.0344 33.9577C18.9305 33.9577 18.8266 34.036 18.8266 34.1667C18.8266 34.1928 18.8266 34.2189 18.8526 34.2451C18.8786 34.2712 18.8786 34.3234 18.8006 34.3234H18.5409V31.0053C18.5409 30.5612 18.5149 30.0125 18.2552 29.4899L18.1773 29.3332L18.0994 29.4899C17.8396 30.0125 17.8136 30.5612 17.8136 31.0053V34.3234H17.5539C17.476 34.3234 17.502 34.2712 17.502 34.2451C17.502 34.2189 17.5279 34.1928 17.5279 34.1667C17.5279 34.0622 17.45 33.9577 17.3461 33.9577C17.2682 33.9838 17.1643 34.0883 17.1643 34.1928ZM16.6189 34.5847C16.5669 34.4802 16.489 34.4018 16.3851 34.3234C16.3591 34.4018 16.3332 34.4802 16.3332 34.5586C16.3332 34.637 16.3591 34.7415 16.3851 34.8198C16.4111 34.9505 16.489 35.0289 16.5669 35.1334C16.5929 35.1334 16.6448 35.1595 16.6708 35.1595V35.1334C16.6189 34.9766 16.5929 34.7937 16.6189 34.5847ZM16.463 31.2666C16.3072 31.2405 16.1254 31.2666 15.9695 31.345C15.8656 31.3972 15.7617 31.4756 15.7098 31.5801C15.7098 31.6324 15.7098 31.6585 15.6838 31.7107H15.7098C15.8656 31.6062 16.0474 31.554 16.2552 31.554C16.3332 31.4756 16.4111 31.3711 16.463 31.2666ZM16.2812 34.1667C16.2552 34.0622 16.1773 33.9577 16.0994 33.8531C16.0215 33.9838 15.9695 34.1144 15.9695 34.2712C15.9695 34.2973 15.9695 34.3234 15.9695 34.3496C15.9695 34.4802 16.0215 34.5847 16.0994 34.6892C16.1254 34.7153 16.1773 34.7415 16.2033 34.7676V34.7415C16.1773 34.5324 16.2033 34.3757 16.2812 34.1667ZM15.6838 33.8793C15.6838 33.9577 15.7098 34.036 15.7358 34.1405C15.7617 34.1667 15.7877 34.1928 15.8137 34.2189C15.8137 34.2189 15.8137 34.1928 15.8397 34.1928C15.8656 34.0099 15.9176 33.827 16.0215 33.6703C16.0215 33.5396 15.9695 33.4351 15.9176 33.3306C15.7877 33.4612 15.7098 33.618 15.6838 33.7748C15.6838 33.8009 15.6838 33.8531 15.6838 33.8793ZM15.8916 33.1477C15.9176 33.0955 15.9176 33.0432 15.9176 32.991C15.9176 32.9387 15.8916 32.8603 15.8916 32.8081C15.7358 32.9126 15.6319 33.0171 15.5539 33.1738C15.502 33.2784 15.502 33.3829 15.502 33.4874C15.502 33.5135 15.502 33.5135 15.502 33.5396C15.528 33.5658 15.5539 33.618 15.5539 33.6441C15.5539 33.6441 15.5799 33.6441 15.5799 33.618C15.6319 33.4351 15.7358 33.2784 15.8916 33.1477ZM15.502 32.2071C15.502 32.2333 15.502 32.2855 15.502 32.3117H15.528C15.6578 32.181 15.8137 32.1026 15.9955 32.0504C16.0734 31.9459 16.1254 31.8414 16.1513 31.7369C15.9695 31.763 15.8137 31.8152 15.6838 31.9198C15.6059 31.972 15.528 32.1026 15.502 32.2071ZM15.4241 32.8603C15.4501 32.8865 15.4501 32.9387 15.4501 32.991C15.4501 32.991 15.4501 32.991 15.476 32.991C15.5799 32.8342 15.7098 32.7036 15.8916 32.6252C15.9436 32.5207 15.9695 32.39 15.9695 32.2594C15.7877 32.3117 15.6578 32.4162 15.5539 32.5468C15.476 32.6252 15.4241 32.7297 15.4241 32.8603ZM15.3202 33.5135C15.2163 33.3829 15.0605 33.3045 14.8786 33.2522C14.9046 33.4351 14.9566 33.5919 15.0605 33.7225C15.1124 33.7748 15.1903 33.827 15.2423 33.8793C15.3202 33.9054 15.3981 33.9315 15.476 33.9577C15.476 33.8009 15.4241 33.6441 15.3202 33.5135ZM15.0605 34.0099C15.1124 34.1928 15.2163 34.3496 15.3462 34.4541C15.3981 34.5063 15.476 34.5324 15.5539 34.5586C15.6578 34.5586 15.7358 34.5586 15.8137 34.5847C15.7358 34.4279 15.6578 34.2712 15.528 34.1928C15.4241 34.0622 15.2423 34.0099 15.0605 34.0099ZM15.4241 34.7415C15.528 34.8982 15.6319 35.0027 15.8137 35.0811C15.8916 35.1072 15.9695 35.1334 16.0474 35.1334C16.1254 35.1072 16.2293 35.1072 16.3072 35.0811C16.2033 34.9505 16.0734 34.8198 15.9436 34.7676C15.7877 34.6892 15.6059 34.6892 15.4241 34.7415ZM15.9436 35.3424C16.0734 35.473 16.2293 35.5514 16.4111 35.5775C16.5669 35.6037 16.7487 35.5514 16.9046 35.4991C16.7747 35.3685 16.6189 35.2901 16.437 35.264C16.2812 35.2118 16.0994 35.264 15.9436 35.3424ZM17.2942 35.4991C17.2942 35.473 17.2942 35.473 17.2942 35.4469C17.2942 35.2901 17.2422 35.1334 17.1643 35.0027C17.0604 34.8721 16.9305 34.7676 16.7747 34.6892C16.7747 34.7153 16.7747 34.7153 16.7747 34.7415C16.7747 34.8982 16.8267 35.055 16.9046 35.1856C16.9825 35.3424 17.1124 35.4469 17.2942 35.4991ZM16.6189 30.4828C16.5929 30.535 16.5409 30.6134 16.489 30.6657C16.6448 30.6657 16.8007 30.6134 16.9305 30.5089C17.0604 30.4044 17.1643 30.2476 17.2422 30.0909C17.0604 30.0909 16.8786 30.1431 16.7487 30.2476C16.7228 30.2738 16.7228 30.2738 16.6968 30.2999C16.6708 30.3521 16.6448 30.4305 16.6189 30.4828ZM16.0994 30.4828C16.1254 30.5873 16.1254 30.6657 16.1254 30.7702C16.2812 30.6918 16.4111 30.5612 16.463 30.4305C16.5409 30.2999 16.5669 30.1692 16.5669 30.0386C16.5669 29.9864 16.5669 29.9602 16.5409 29.908C16.3851 29.9864 16.2552 30.117 16.1773 30.2738C16.1513 30.3521 16.1254 30.4044 16.0994 30.4828ZM16.0215 31.1621C16.0215 31.1621 16.0474 31.1621 16.0215 31.1621C16.2293 31.1098 16.4111 31.1098 16.5929 31.1359C16.6968 31.0837 16.8007 31.0053 16.8786 30.9008C16.7228 30.8485 16.5409 30.8224 16.3851 30.8747C16.2552 30.9008 16.1513 30.9531 16.0734 31.0576C16.0474 31.0837 16.0474 31.1098 16.0215 31.1621ZM15.6059 31.0053C15.6059 31.0314 15.6059 31.0314 15.6059 31.0576C15.6578 31.1359 15.6838 31.2405 15.6838 31.3188C15.8137 31.1882 15.8916 31.0576 15.9436 30.9008C15.9695 30.8485 15.9695 30.7702 15.9695 30.7179C15.9695 30.6134 15.9436 30.4828 15.8916 30.3783C15.7617 30.5089 15.6578 30.6395 15.6059 30.8224C15.6319 30.8747 15.6059 30.9269 15.6059 31.0053ZM15.2423 31.4756C15.2423 31.554 15.2682 31.6324 15.2942 31.7107C15.3462 31.7891 15.3981 31.8675 15.4241 31.9459C15.502 31.8152 15.5799 31.6585 15.5799 31.4756C15.5799 31.3188 15.502 31.1359 15.4241 30.9792C15.3202 31.1359 15.2423 31.2927 15.2423 31.4756ZM14.9825 32.0243C14.9825 32.1026 14.9825 32.1549 15.0085 32.2071C15.0345 32.2855 15.0605 32.3639 15.1124 32.4423C15.1903 32.4945 15.2423 32.5468 15.2942 32.6252C15.3202 32.5207 15.3462 32.4162 15.3462 32.3378C15.3462 32.2594 15.3462 32.2071 15.3202 32.1288C15.2682 31.972 15.1643 31.8152 15.0345 31.6846C15.0085 31.7891 14.9825 31.9198 14.9825 32.0243ZM14.8527 32.5729C14.8527 32.7036 14.8786 32.8603 14.9566 32.9648C14.9825 33.0432 15.0345 33.0955 15.1124 33.1477C15.1903 33.1738 15.2682 33.2261 15.3462 33.2784C15.3462 33.2522 15.3462 33.2 15.3462 33.1738C15.3462 33.0432 15.3202 32.9126 15.2423 32.7819C15.1643 32.6252 15.0345 32.4945 14.8527 32.4162C14.8527 32.4945 14.8527 32.5468 14.8527 32.5729ZM8.54111 34.637C8.72292 34.5063 8.95668 34.4541 9.24239 34.4541C9.55407 34.4541 9.86575 34.5063 10.2034 34.6108C10.5411 34.6892 10.9307 34.7937 11.2943 34.7676C11.2943 34.5847 11.2943 30.9269 11.2943 30.2476C11.2943 30.1954 11.2943 30.1692 11.2943 30.1431C10.9047 30.1692 10.5151 30.0647 10.1515 29.9864C9.83978 29.908 9.5281 29.8296 9.26836 29.8557C8.87876 29.8557 8.67097 29.9864 8.54111 30.0909V30.2476V34.637V34.637ZM5.6061 34.7415C5.96973 34.7676 6.33336 34.6892 6.69699 34.5847C7.03464 34.5063 7.34632 34.4279 7.65801 34.4279C7.94372 34.4279 8.17748 34.5063 8.35929 34.6108V30.2476V30.0909C8.22942 29.9602 8.02164 29.8557 7.63203 29.8557C7.34632 29.8557 7.06062 29.908 6.74893 29.9864C6.38531 30.0909 6.02168 30.1692 5.6061 30.1431C5.6061 30.1692 5.6061 30.1954 5.6061 30.2476C5.6061 30.9008 5.6061 34.5847 5.6061 34.7415ZM4.90482 35.473C4.90482 35.473 7.94372 35.473 8.04761 35.473C8.12553 35.6037 8.2554 35.7082 8.43721 35.7082C8.61903 35.7082 8.77487 35.6037 8.82681 35.473C8.93071 35.473 11.9696 35.473 11.9696 35.473V30.2476H11.8657H11.58L11.606 30.3521V30.3783V35.1072C11.3722 35.1072 8.82681 35.1072 8.69695 35.1072C8.645 35.1856 8.59305 35.2118 8.43721 35.2118C8.30734 35.2118 8.2554 35.1856 8.20345 35.1072C8.07358 35.1072 5.73597 35.1072 5.26844 35.1072V30.3783V30.3521L5.29442 30.2476H4.90482V35.473ZM6.04765 45.9499L13.4501 39.2614L20.8785 45.9761C21.372 45.0355 21.7097 44.121 21.9954 43.2589L13.4501 35.5253L4.93079 43.2327C5.19052 44.0949 5.55415 45.0094 6.04765 45.9499ZM7.63203 33.3045C7.81385 33.3045 7.96969 33.3306 8.07358 33.3829V33.1477C7.94371 33.0955 7.78787 33.0955 7.63203 33.0693C7.32035 33.0693 7.00867 33.1477 6.67101 33.2261C6.41128 33.3045 6.15154 33.3567 5.86584 33.3829V33.5919C6.15154 33.5658 6.43725 33.4874 6.72296 33.4351C7.06062 33.3829 7.34632 33.3045 7.63203 33.3045ZM7.63203 33.8531C7.81385 33.8531 7.96969 33.8793 8.07358 33.9315V33.6964C7.94371 33.6441 7.78787 33.618 7.63203 33.618C7.32035 33.618 7.00867 33.6964 6.67101 33.7748C6.41128 33.8531 6.15154 33.9054 5.86584 33.9315V34.1405C6.15154 34.1144 6.43725 34.036 6.72296 33.9838C7.06062 33.9054 7.34632 33.827 7.63203 33.8531ZM7.63203 30.6395C7.81385 30.6395 7.96969 30.6918 8.07358 30.7179V30.4828C7.94371 30.4305 7.78787 30.4305 7.63203 30.4044C7.32035 30.4044 7.00867 30.4828 6.67101 30.5612C6.41128 30.6395 6.15154 30.6918 5.86584 30.7179V30.9269C6.15154 30.9008 6.43725 30.8485 6.72296 30.7702C7.06062 30.6918 7.34632 30.6395 7.63203 30.6395ZM10.1515 31.8675C10.4112 31.9459 10.6969 31.9981 11.0086 32.0243V31.8152C10.7489 31.7891 10.4631 31.7369 10.2034 31.6585C9.86575 31.5801 9.55407 31.5017 9.24239 31.5017C9.08655 31.5017 8.93071 31.5278 8.80084 31.5801V31.8152C8.90473 31.763 9.06058 31.7369 9.24239 31.7369C9.5281 31.6846 9.83978 31.763 10.1515 31.8675ZM10.1515 30.7963C10.4112 30.8747 10.6969 30.9269 11.0086 30.9531V30.744C10.7489 30.7179 10.4631 30.6657 10.2034 30.5873C9.86575 30.5089 9.55407 30.4305 9.24239 30.4305C9.08655 30.4305 8.93071 30.4566 8.80084 30.5089V30.744C8.90473 30.6918 9.06058 30.6657 9.24239 30.6657C9.5281 30.6395 9.83978 30.6918 10.1515 30.7963ZM10.1515 32.9126C10.4112 32.9648 10.7229 33.0432 11.0086 33.0693V32.8603C10.7229 32.8342 10.4631 32.7819 10.2034 32.7036C9.86575 32.6252 9.55407 32.5468 9.26836 32.5468C9.11252 32.5468 8.95668 32.5729 8.82681 32.5991V32.8342C8.93071 32.7819 9.08655 32.7558 9.26836 32.7558C9.5281 32.7558 9.83978 32.8342 10.1515 32.9126ZM10.1515 31.3188C10.4112 31.3972 10.6969 31.4495 11.0086 31.4756V31.2666C10.7489 31.2405 10.4631 31.1882 10.2034 31.1098C9.86575 31.0314 9.55407 30.9531 9.24239 30.9531C9.08655 30.9531 8.93071 30.9792 8.80084 31.0314V31.2666C8.90473 31.2143 9.06058 31.1882 9.24239 31.1882C9.5281 31.1621 9.83978 31.2405 10.1515 31.3188ZM10.1515 33.4612C10.4112 33.5396 10.6969 33.5919 11.0086 33.618V33.409C10.7489 33.3829 10.4631 33.3045 10.2034 33.2522C9.86575 33.1738 9.55407 33.0955 9.24239 33.0955C9.08655 33.0955 8.93071 33.1216 8.80084 33.1738V33.409C8.90473 33.3567 9.06058 33.3306 9.24239 33.3306C9.5281 33.3045 9.83978 33.3829 10.1515 33.4612ZM10.1515 33.9838C10.4112 34.0622 10.6969 34.1144 11.0086 34.1405V33.9315C10.7489 33.9054 10.4631 33.8531 10.2034 33.7748C9.86575 33.6964 9.55407 33.618 9.24239 33.618C9.08655 33.618 8.93071 33.6441 8.80084 33.6964V33.9315C8.90473 33.8793 9.06058 33.8531 9.24239 33.8531C9.5281 33.827 9.83978 33.9054 10.1515 33.9838ZM26.7226 45.0877L26.6706 45.2184C26.1771 46.8644 25.346 48.5104 24.7486 49.5816L24.6187 49.7906L23.7616 49.0068C23.7356 49.059 23.6837 49.1374 23.6577 49.1897C21.4759 52.6907 18.411 55.225 14.7488 56.5836L13.4501 57.0539L12.1514 56.5836C8.51513 55.2511 5.42429 52.6907 3.26849 49.1897C3.24251 49.1374 3.21654 49.059 3.16459 49.0068L2.28149 49.7906L2.15163 49.5555C1.55424 48.4581 0.749057 46.8121 0.229587 45.1923L0.203613 45.0877L2.30747 43.1805L2.5672 42.9453L2.6711 43.2589C2.77499 43.6508 2.90486 44.0165 3.03472 44.3823L3.63211 43.8336L3.86588 43.6246L3.96977 43.9382C4.41132 45.2706 5.00871 46.5247 5.70999 47.6482C7.55411 50.6005 10.1255 52.7429 13.1644 53.8664C13.1644 53.8664 13.3722 53.9448 13.4761 53.9709C13.58 53.9448 13.7878 53.8664 13.7878 53.8664C16.8267 52.7429 19.424 50.6005 21.2421 47.6482C21.9434 46.5247 22.5408 45.2706 22.9824 43.9382L23.0863 43.6246L23.9174 44.3823C24.0473 44.0165 24.1771 43.6508 24.281 43.2589L24.3849 42.9453L26.7226 45.0877ZM1.94384 48.223L1.55424 45.7409L2.69707 44.6958C2.5672 44.3823 2.46331 44.0427 2.35941 43.703C2.02176 44.0165 0.852951 45.0616 0.69711 45.2184C1.03477 46.2635 1.47631 47.3085 1.94384 48.223ZM2.9568 48.641C2.69707 48.1969 2.43733 47.7266 2.22955 47.2563L2.51525 49.059C2.59317 48.9545 2.77499 48.7978 2.9568 48.641ZM24.6966 47.2563C24.4888 47.7266 24.2291 48.1969 23.9694 48.641C24.1512 48.7978 24.307 48.9545 24.4109 49.059L24.6966 47.2563ZM24.8525 45.8193C24.6706 45.6625 23.5538 44.6436 23.2421 44.3562C22.8006 45.6103 22.2551 46.8121 21.5798 47.8833C19.7097 50.9141 17.0604 53.1087 13.9176 54.2844L13.4501 54.4412L13.0085 54.2844C9.86575 53.1348 7.24243 50.9141 5.34637 47.8833C4.67105 46.8121 4.12561 45.6103 3.68406 44.3562C3.34641 44.6436 2.25552 45.6625 2.0737 45.8193C2.48928 46.9166 3.03472 47.9878 3.63211 48.9545C5.76194 52.3772 8.77487 54.8592 12.3332 56.1656C12.3332 56.1656 13.3722 56.5314 13.4761 56.5836C13.6059 56.5314 14.6449 56.1656 14.6449 56.1656C18.2032 54.8592 21.2162 52.351 23.346 48.9545C23.8914 48.014 24.4369 46.9428 24.8525 45.8193ZM26.2291 45.1923C26.0732 45.0355 24.9044 43.9904 24.5668 43.6769C24.4629 44.0165 24.359 44.3562 24.2291 44.6697L25.3719 45.7148L24.9823 48.223C25.4239 47.3085 25.8914 46.2635 26.2291 45.1923ZM3.8399 48.3797L3.86588 48.4842L3.78796 48.5365C3.73601 48.4581 3.71004 48.3797 3.65809 48.2752C3.60614 48.1969 3.55419 48.1185 3.50225 48.014L3.58017 47.9878L3.65809 48.0662C3.73601 47.9878 3.86588 47.8833 3.91782 47.7788L3.73601 47.4392L3.37238 47.5175L3.39835 47.6221L3.34641 47.6482C3.32043 47.5698 3.26849 47.5176 3.24251 47.4392C3.21654 47.3869 3.19057 47.3347 3.13862 47.2563L3.21654 47.2302L3.29446 47.3085C3.55419 47.3085 4.09964 47.204 4.43729 47.1518C4.48924 47.2302 4.56716 47.2824 4.61911 47.3347L4.64508 47.4392L4.30743 47.8572C4.12561 48.0401 3.91782 48.3014 3.8399 48.3797ZM4.04769 47.6743L4.35937 47.3347L3.89185 47.4392L4.04769 47.6743ZM5.94376 49.6077L5.9957 49.5555C5.94376 49.5032 5.91778 49.4509 5.86584 49.3726C5.81389 49.3203 5.78791 49.2419 5.73597 49.1897L5.65805 49.2419L5.70999 49.3464C5.52818 49.4771 5.1126 49.8167 5.1126 49.8167C5.2165 49.5032 5.34637 49.1374 5.47623 48.8239C5.42429 48.7716 5.39831 48.7194 5.34637 48.6671C5.32039 48.6149 5.26844 48.5626 5.24247 48.5104L5.19052 48.5626L5.24247 48.6671C5.16455 48.7455 5.08663 48.7978 4.98274 48.8762L4.69703 49.0852C4.59313 49.1635 4.51521 49.2158 4.41132 49.2681L4.3334 49.1897L4.28145 49.2419C4.3334 49.2942 4.35937 49.3464 4.41132 49.4248C4.46327 49.4771 4.48924 49.5555 4.54119 49.6077L4.59313 49.5555L4.51521 49.4248C4.69703 49.2942 4.93079 49.1113 5.13858 48.9545C5.00871 49.2681 4.90482 49.6077 4.77495 49.9735C4.80092 49.9996 4.8269 50.0519 4.85287 50.078C4.87884 50.1041 4.90482 50.1564 4.93079 50.1825C5.03468 50.1041 5.13858 49.9996 5.29442 49.8951L5.58013 49.6861C5.68402 49.6077 5.78791 49.5555 5.86584 49.5032L5.94376 49.6077ZM6.04765 50.5744C5.76194 50.8357 5.78791 51.2276 6.02168 51.4627C6.17752 51.6195 6.33336 51.724 6.61907 51.7501L6.64504 51.5934C6.4892 51.5672 6.35933 51.515 6.28141 51.4105C6.0996 51.2276 6.0996 50.9663 6.30738 50.7573C6.51517 50.5483 6.74893 50.6267 6.8788 50.7834C6.95672 50.8618 7.00867 50.9663 7.00867 51.0708L6.95672 51.1753L7.00867 51.2537C7.08659 51.2015 7.19048 51.1231 7.2684 51.0969C7.21646 50.9402 7.13854 50.8357 7.03464 50.705C6.74893 50.3654 6.33336 50.3131 6.04765 50.5744ZM8.56708 52.9781C8.33332 53.2655 7.96969 53.2916 7.60606 53.0042C7.2684 52.7168 7.21646 52.3772 7.47619 52.0375C7.70995 51.7501 8.09956 51.724 8.43721 52.0114C8.77487 52.2988 8.82681 52.6646 8.56708 52.9781ZM8.30734 52.1682C8.12553 52.0114 7.89177 52.0898 7.70995 52.2727C7.52814 52.4817 7.52814 52.7168 7.70995 52.8736C7.89177 53.0303 8.12553 52.952 8.30734 52.7691C8.46319 52.5601 8.48916 52.2988 8.30734 52.1682ZM10.3852 53.8403C10.3073 53.997 10.1255 54.0232 9.94367 53.9448C9.96965 54.0754 10.0216 54.5196 10.0476 54.598L10.0735 54.6502L10.0216 54.7286C9.9177 54.6502 9.78783 54.598 9.68394 54.5457C9.68394 54.3367 9.65797 54.0232 9.63199 53.8403L9.55407 53.788L9.50212 53.8925C9.4242 53.997 9.37226 54.1015 9.34628 54.1799L9.4242 54.2583L9.37226 54.3367C9.29434 54.2844 9.21642 54.2322 9.1385 54.1799C9.06058 54.1277 8.98266 54.0754 8.87876 54.0232L8.93071 53.9448L9.0346 53.997C9.11252 53.9187 9.16447 53.8141 9.24239 53.7096L9.4242 53.3961C9.50212 53.2916 9.55407 53.1871 9.60602 53.1087L9.5281 53.0303L9.58004 52.952C9.63199 53.0042 9.70991 53.0303 9.76186 53.0826C9.83978 53.1348 9.9177 53.161 9.99562 53.2132C10.0735 53.2655 10.1515 53.2916 10.2294 53.3439C10.4891 53.5006 10.4891 53.6835 10.3852 53.8403ZM9.99562 53.3961C9.9177 53.3439 9.89173 53.3439 9.83978 53.3177C9.81381 53.37 9.76186 53.4484 9.70991 53.5268L9.65797 53.6051C9.68394 53.6313 9.70991 53.6574 9.73589 53.6835C9.89173 53.788 10.0216 53.788 10.0995 53.6574C10.1515 53.5529 10.1255 53.4745 9.99562 53.3961ZM11.9696 54.807C11.9436 55.0421 11.9177 55.3818 11.9177 55.5124L11.9956 55.5647L11.9696 55.643C11.8917 55.5908 11.7878 55.5647 11.7099 55.5124C11.632 55.4601 11.5281 55.434 11.4501 55.4079L11.4761 55.3295L11.58 55.3556C11.606 55.2511 11.632 55.0944 11.632 54.9899L11.2683 54.8331L11.0346 55.1205L11.1125 55.1728L11.0865 55.2511C11.0086 55.225 10.9307 55.1728 10.8787 55.1466C10.8268 55.1205 10.7489 55.0944 10.6969 55.0682L10.7229 54.9899L10.8268 55.016C11.0346 54.8592 11.3982 54.4673 11.6579 54.1799C11.7618 54.2061 11.8397 54.2061 11.9177 54.2322L12.0216 54.3106L11.9696 54.807ZM11.7099 54.3367L11.3982 54.7025L11.6579 54.8331L11.7099 54.3367ZM15.528 55.2511C15.476 55.1466 15.4241 55.0682 15.3721 54.9376L15.2423 54.6241C15.1903 54.4935 15.1384 54.4151 15.1124 54.3106L15.2163 54.2583L15.1903 54.1799C15.1124 54.2322 15.0085 54.2583 14.9306 54.3106C14.8527 54.3367 14.7488 54.3889 14.6709 54.4151L14.6968 54.4935L14.8007 54.4673C14.8527 54.5718 14.9046 54.6502 14.9566 54.7808L15.0864 55.0944C15.1384 55.225 15.1643 55.3034 15.2163 55.4079L15.1124 55.4601L15.1384 55.5385C15.2163 55.4863 15.3202 55.4601 15.3981 55.4079C15.476 55.3818 15.5799 55.3295 15.6578 55.3034L15.6319 55.225L15.528 55.2511ZM17.7617 54.0493C17.7097 53.9709 17.6318 53.8664 17.5799 53.7619L17.3981 53.4484C17.3201 53.3439 17.2682 53.2394 17.2422 53.161L17.3201 53.0826L17.2682 53.0042C17.1903 53.0565 17.1124 53.1087 17.0604 53.1348C16.9825 53.1871 16.9046 53.2132 16.8267 53.2655C16.8786 53.4222 16.9825 54.0493 17.0085 54.1799C16.8786 54.0754 16.4111 53.7096 16.3072 53.579C16.2293 53.6313 16.1513 53.6835 16.0994 53.7096C16.0215 53.7619 15.9436 53.788 15.8656 53.8403L15.9176 53.9187L16.0215 53.8925L16.0994 54.0493C16.1773 54.2061 16.463 54.6763 16.515 54.807L16.437 54.8854L16.489 54.9637C16.5409 54.9376 16.6189 54.8854 16.6708 54.8592C16.7228 54.8331 16.8007 54.7808 16.8526 54.7547L16.8007 54.6763L16.6968 54.7286C16.6448 54.6502 16.5669 54.5457 16.515 54.4412L16.4111 54.2583C16.3332 54.1015 16.2552 53.997 16.2293 53.9448C16.6708 54.3367 16.9305 54.5196 17.0344 54.6241L17.1903 54.5196L16.9825 53.4745C17.0085 53.5268 17.0864 53.6313 17.1643 53.788L17.2682 53.9709C17.3461 54.0754 17.3721 54.1799 17.424 54.2844L17.3461 54.3628L17.3721 54.4412C17.45 54.3889 17.5279 54.3367 17.6059 54.2844C17.6838 54.2322 17.7877 54.1799 17.8656 54.1277L17.8396 54.0493H17.7617ZM18.9565 53.1348C18.8786 53.0565 18.8006 52.9781 18.7227 52.8736L18.5669 52.6646C18.489 52.5862 18.411 52.4817 18.3591 52.3772C18.3851 52.351 18.411 52.2988 18.463 52.2727C18.5928 52.1682 18.6967 52.1943 18.7747 52.2727C18.8526 52.3772 18.8786 52.5078 18.7487 52.5862C18.7227 52.6123 18.6967 52.6384 18.6708 52.6384L18.7227 52.7952C18.7747 52.7691 18.8266 52.7168 18.8786 52.6907C19.1383 52.4817 19.1383 52.2204 19.0084 52.0375C18.8786 51.8808 18.6708 51.8546 18.463 52.0375C18.411 52.0898 18.3591 52.142 18.2812 52.1943C18.2032 52.2727 18.1253 52.3249 18.0734 52.3772C18.0214 52.4294 17.9435 52.4817 17.8656 52.5339L17.9175 52.5862L18.0214 52.5339C18.0994 52.6123 18.1773 52.6907 18.2552 52.7952L18.463 53.0826C18.5409 53.1871 18.6188 53.2655 18.6708 53.3439L18.5928 53.4222L18.6448 53.4745C18.7227 53.4222 18.8006 53.3439 18.8786 53.2916C18.9565 53.2394 19.0344 53.1871 19.1383 53.0826L19.0863 53.0303L18.9565 53.1348ZM21.0084 51.2537L21.0603 51.306C20.9824 51.3582 20.9305 51.4366 20.8525 51.515C20.7746 51.5934 20.7227 51.6717 20.6448 51.724L20.5928 51.6717L20.6448 51.5934C20.5668 51.5411 20.411 51.4627 20.3071 51.4105L20.0214 51.6979L20.2032 52.0114L20.2811 51.9591L20.3331 52.0114C20.2811 52.0636 20.2292 52.1159 20.1772 52.1682C20.1253 52.2204 20.0733 52.2727 20.0474 52.3249L19.9954 52.2727L20.0474 52.1943C19.9694 51.9591 19.7097 51.4627 19.5539 51.1231C19.6058 51.0447 19.6578 50.9663 19.6837 50.8879L19.7876 50.8357L20.2552 51.0447C20.4629 51.1492 20.7746 51.2798 20.8785 51.306L21.0084 51.2537ZM20.2032 51.3321L19.7617 51.1231L19.9954 51.5411L20.2032 51.3321ZM22.333 49.5555L22.385 49.6077C22.3071 49.7122 22.2291 49.8167 22.1772 49.9212C21.9434 49.9212 21.6317 49.8951 21.4499 49.8951L21.398 49.9735L21.4759 50.0519C21.5798 50.1302 21.6577 50.1825 21.7616 50.2348L21.8395 50.1564L21.9175 50.2086C21.8655 50.287 21.7876 50.3654 21.7356 50.4438C21.6837 50.5222 21.6317 50.6005 21.5538 50.6789L21.4759 50.6267L21.5279 50.5222C21.4499 50.4438 21.372 50.3915 21.2681 50.3131L20.9824 50.1041C20.8785 50.0257 20.8006 49.9735 20.6967 49.8951L20.6188 49.9735L20.5409 49.9212C20.5928 49.869 20.6448 49.8167 20.6707 49.7383C20.7227 49.66 20.7746 49.6077 20.8266 49.5293C20.8785 49.4509 20.9305 49.3987 20.9824 49.3203C21.1902 49.0329 21.372 49.059 21.5019 49.1635C21.6317 49.2681 21.6577 49.4509 21.5798 49.6077C21.7097 49.6077 22.1512 49.5816 22.2291 49.5816L22.333 49.5555ZM21.372 49.4509C21.2941 49.3726 21.1902 49.3987 21.1123 49.5293C21.0603 49.5816 21.0344 49.6338 21.0084 49.66C21.0603 49.6861 21.1123 49.7645 21.2162 49.8167L21.2941 49.869C21.3201 49.8428 21.346 49.8167 21.372 49.7906C21.4759 49.66 21.4759 49.5555 21.372 49.4509ZM23.2161 48.3536C22.9824 48.7455 22.6447 48.85 22.3071 48.641C21.9954 48.4581 21.8915 48.0923 22.1252 47.7004C22.359 47.3085 22.6707 47.204 23.0343 47.413C23.346 47.5698 23.4499 47.9617 23.2161 48.3536ZM22.8525 47.7004C22.6187 47.5698 22.385 47.5959 22.2551 47.7788C22.1252 47.9878 22.2291 48.1969 22.4629 48.3536C22.6967 48.4842 22.9304 48.4581 23.0603 48.2752C23.1902 48.0662 23.0863 47.8311 22.8525 47.7004ZM13.4501 55.0944C13.3202 55.0944 13.1904 55.225 13.1904 55.3818C13.1904 55.5385 13.3202 55.6692 13.4501 55.6692C13.6059 55.6692 13.7358 55.5385 13.7358 55.3818C13.7358 55.225 13.6059 55.0944 13.4501 55.0944ZM3.32043 46.3941C3.47627 46.3941 3.60614 46.2635 3.60614 46.1328C3.60614 45.9761 3.47627 45.8454 3.32043 45.8454C3.16459 45.8454 3.0607 45.9761 3.0607 46.1328C3.0607 46.2635 3.19057 46.3941 3.32043 46.3941ZM23.6317 46.3941C23.7875 46.3941 23.9174 46.2635 23.9174 46.1328C23.9174 45.9761 23.7875 45.8454 23.6317 45.8454C23.5018 45.8454 23.372 45.9761 23.372 46.1328C23.346 46.2635 23.4759 46.3941 23.6317 46.3941Z" fill="black"/>
</g>
<defs>
<clipPath id="clip0">
<rect width="103" height="30.3073" fill="white" transform="translate(0 28)"/>
</clipPath>
</defs>
</svg>
