<svg width="172" height="86" viewBox="0 0 172 86" fill="none" xmlns="http://www.w3.org/2000/svg">
<g clip-path="url(#clip0)">
<path d="M65.3978 42.3757V54.607C65.3978 59.6383 63.3159 61.9804 58.8918 61.9804C53.7738 61.9804 52.6894 57.9901 52.6894 54.607V42.3757H51.1714V54.607C51.1714 60.3756 53.7738 63.325 58.8918 63.325C64.1833 63.325 66.8725 60.419 66.8725 54.607V42.3757H65.3978Z" fill="black"/>
<path d="M76.5881 47.6672C74.2893 47.6672 72.2942 48.8817 71.4701 50.7901C71.4701 50.0961 71.4701 48.0142 71.4701 48.0142H70.1255V62.8045H71.4701V54.8238C71.4701 51.2238 73.4652 48.8817 76.5881 48.8817C80.5784 48.8817 80.5784 52.3515 80.5784 53.5226V62.8479H81.923V53.7395C81.8796 52.0479 81.8796 47.6672 76.5881 47.6672Z" fill="black"/>
<path d="M85.1763 48.0142V62.8044H86.4775V48.0142H86.3473H85.1763Z" fill="black"/>
<path d="M85.1763 43.5034V45.4986H86.4775V43.5034H86.3473H85.1763Z" fill="black"/>
<path d="M99.6627 48.0142C99.6627 48.0142 94.9784 60.7225 94.8049 61.1562C94.6314 60.7225 89.6001 48.0142 89.6001 48.0142H88.082L94.0242 62.8044H95.5422L101.137 48.0142H100.964H99.6627Z" fill="black"/>
<path d="M108.337 47.6672C106.602 47.6672 105.128 48.2745 104 49.4022C102.569 50.8335 101.788 53.1323 101.788 55.6479C101.745 57.9901 102.482 59.9852 103.826 61.3732C104.954 62.5442 106.559 63.1515 108.337 63.1515C111.894 63.1515 114.149 61.243 114.757 57.7732L114.8 57.6431H113.455V57.7298C112.935 60.3756 111.07 61.937 108.381 61.937C106.993 61.937 105.822 61.4599 104.911 60.5491C103.783 59.4214 103.176 57.6431 103.176 55.6913C103.176 55.6913 103.176 55.6913 103.176 55.6479C103.436 55.6479 114.93 55.6479 114.93 55.6479V55.5178C114.93 55.3443 114.93 55.1274 114.93 54.9539C114.93 52.6985 114.236 50.7467 113.022 49.4455C111.807 48.3178 110.246 47.6672 108.337 47.6672ZM108.337 48.8817C111.634 48.8817 113.412 51.7009 113.542 54.5202C113.282 54.5202 103.436 54.5202 103.176 54.5202C103.436 51.7009 105.258 48.8817 108.337 48.8817Z" fill="black"/>
<path d="M118.574 50.9636C118.574 50.313 118.574 48.0142 118.574 48.0142H117.229V62.8044H118.574V54.737C118.704 52.525 119.181 51.7009 120.178 50.6166C121.74 49.0985 123.561 49.1853 124.082 49.2286H124.212V47.9274H124.082C121.696 47.8407 119.354 49.1419 118.574 50.9636Z" fill="black"/>
<path d="M131.238 54.607L130.805 54.5202C128.593 54.0431 126.511 53.6094 126.511 51.5275C126.511 49.5757 128.593 48.8383 130.588 48.8383C132.149 48.8383 134.752 49.3154 134.752 52.4383V52.5684H136.096V52.4383C136.096 49.3588 134.144 47.6672 130.588 47.6672C129.33 47.6672 125.21 47.9275 125.21 51.5275C125.21 54.7371 128.159 55.3443 130.328 55.778L130.718 55.8648C133.017 56.3419 135.229 56.7756 135.229 58.9876C135.229 61.6768 132.106 61.937 130.761 61.937C128.072 61.937 126.251 60.3322 126.077 57.8166V57.6864H124.776V57.8166C124.863 61.0696 127.161 63.1081 130.805 63.1081C132.149 63.1081 136.617 62.8045 136.617 58.9443C136.487 55.8648 134.101 55.1708 131.238 54.607Z" fill="black"/>
<path d="M139.219 48.0142V62.8044H140.564V48.0142H140.434H139.219Z" fill="black"/>
<path d="M161.209 48.0142C161.209 48.0142 156.525 60.5057 156.308 61.0696C156.091 60.5057 150.973 48.0142 150.973 48.0142C150.973 48.0142 146.462 48.0142 146.246 48.0142C146.246 47.7974 146.246 43.5034 146.246 43.5034H146.116H144.901C144.901 43.5034 144.901 47.7974 144.901 48.0142C144.684 48.0142 142.212 48.0142 142.212 48.0142V49.2287C142.212 49.2287 144.684 49.2287 144.901 49.2287C144.901 49.4889 144.901 59.2479 144.901 59.2479C144.901 59.3346 144.901 59.4214 144.901 59.5081C144.901 60.6358 145.161 61.4599 145.769 62.0238C146.636 62.8912 148.111 62.8912 149.282 62.8479H149.412V61.6768H149.282C148.067 61.7202 147.287 61.6334 146.809 61.1563C146.419 60.8093 146.246 60.2021 146.246 59.2479C146.246 59.2479 146.246 49.4455 146.246 49.2287C146.462 49.2287 149.802 49.2287 149.932 49.2287C149.976 49.4022 155.527 62.5443 155.571 62.631C154.92 64.4961 154.53 65.537 154.096 65.9707C153.402 66.6647 152.708 66.8816 151.147 66.8816H151.017V68.0527H151.147C152.752 68.0527 153.793 68.0093 154.617 67.3587C155.224 66.8816 155.701 65.8406 156.352 64.3226L162.641 48.0576H161.209V48.0142Z" fill="black"/>
<path d="M139.219 43.5034V45.4986H140.564V43.5034H140.434H139.219Z" fill="black"/>
<path d="M84.7855 39.2094C78.8868 39.0793 73.9422 34.5685 74.0723 28.2794C74.2458 23.3348 78.1928 17.7397 85.3927 17.9566C90.424 18.0433 96.0192 21.8168 95.8891 28.7565C95.7156 35.7396 89.8602 39.3829 84.7855 39.2094ZM85.0024 19.3011C80.4916 19.3011 77.3687 22.5975 77.3687 28.1926C77.3687 34.8721 81.3157 37.8649 85.0458 37.8649C89.5566 37.8649 92.5493 34.395 92.5493 28.93C92.5927 23.0312 89.5566 19.3011 85.0024 19.3011Z" fill="black"/>
<path d="M171.445 18.5639V18.2603H165.547V18.5639C166.718 18.6506 167.021 18.8675 167.021 20.5157V27.7156H156.438V20.5157C156.438 18.8675 156.742 18.6072 157.913 18.5639V18.2603H152.014V18.5639C153.185 18.6506 153.489 18.8675 153.489 20.5157V36.6505C153.489 38.2987 153.185 38.5589 152.014 38.6023V38.9059H157.913V38.6023C156.742 38.5155 156.438 38.2987 156.438 36.6505V28.9734H167.021V36.6939C167.021 38.3421 166.718 38.6023 165.547 38.6457V38.9493H171.445V38.6457C170.274 38.5589 169.971 38.3421 169.971 36.6939V20.559C169.971 18.8675 170.274 18.6506 171.445 18.5639Z" fill="black"/>
<path d="M97.4507 18.2603V18.5639C98.5784 18.6072 98.9254 18.7374 98.9254 19.9518V36.6939C98.9254 38.3421 98.6218 38.6023 97.4507 38.6457V38.9493H101.918V38.6457C100.747 38.5589 100.443 38.3421 100.443 36.6939V21.6434C100.443 21.9036 111.937 35.9132 114.453 38.9493H114.93V19.9518C114.93 18.7374 115.234 18.6506 116.405 18.5639V18.2603H112.024V18.5639C113.152 18.6072 113.499 18.7374 113.499 19.9518V33.0939L101.354 18.2603H97.4507Z" fill="black"/>
<path d="M126.424 18.2603H126.033C124.993 20.7325 120.135 32.1831 118.487 36.13C118.183 36.824 117.706 37.9083 117.359 38.2987C117.099 38.6023 116.838 38.6023 116.578 38.6457V38.9493H120.525V38.6457C120.221 38.6457 119.528 38.6457 119.484 38.0384C119.484 37.8649 119.528 37.6481 119.614 37.4312C119.744 37.0842 120.525 35.0457 121.523 32.7903H129.373C130.154 34.6987 130.848 36.3469 131.195 37.0842C131.282 37.3011 131.499 37.8216 131.499 38.0384C131.499 38.6023 130.978 38.6457 130.414 38.6457V38.9493H135.923V38.6457C135.229 38.6023 135.012 38.4288 134.535 37.3011L126.424 18.2603ZM122 31.4891C123.344 28.1927 125.383 22.9879 125.383 22.9879C125.383 22.9879 127.248 27.6722 128.809 31.4891H122Z" fill="black"/>
<path d="M50.0004 18.2603V18.5639C50.651 18.6072 50.998 18.6506 51.2149 18.9109C51.2582 18.9976 51.345 19.1277 51.3883 19.2145C51.4317 19.3012 51.4317 19.4313 51.4317 19.5615C51.4317 19.6916 51.4317 19.8217 51.4317 19.9518V36.6939C51.4317 38.3421 51.1281 38.6023 49.957 38.6457V38.9493H54.3811V38.6457C53.21 38.5589 52.9064 38.3421 52.9064 36.6939V22.3373C52.9064 22.0771 52.863 21.5566 52.863 21.5566L53.1233 22.3373L60.2799 38.8625H60.7136L68.0003 21.8602L68.2171 21.1663C68.2171 21.1663 68.1738 21.5132 68.1738 21.8169V36.6939C68.1738 38.3421 67.8702 38.6023 66.6991 38.6457V38.9493H72.5978V38.6457C71.4268 38.5589 71.1232 38.3421 71.1232 36.6939V19.9518C71.1232 18.7374 71.4268 18.6506 72.5978 18.5639V18.2603H68.0003L61.4076 33.8746L54.7281 18.2603H50.0004Z" fill="black"/>
<path d="M136.92 37.5612C138.308 38.3852 140.347 39.2527 142.559 39.2527C142.602 39.2527 142.646 39.2527 142.689 39.2527C145.899 39.2093 149.325 36.8238 149.325 33.0503C149.325 28.9733 146.463 28.0191 143.6 26.5444C140.694 25.113 139.479 24.3757 139.479 22.4673C139.479 21.1661 140.26 19.2577 142.863 19.2577C143.687 19.2577 144.424 19.4745 145.031 19.7781C147.113 20.9492 147.243 22.5974 147.503 23.6384H147.807L147.634 19.0408C146.289 18.4769 145.248 18.2167 144.511 18.13C144.077 18.0866 143.643 18.0432 143.296 18.0432C140.39 18.0432 137.007 19.7781 137.007 23.4215C137.007 25.8938 138.482 27.4552 141.431 28.9299C144.337 30.4046 146.549 31.0118 146.549 33.9178C146.549 35.3925 145.682 37.9949 142.429 37.9949C141.128 37.9949 140.087 37.5612 139.263 36.8672C137.311 35.0455 137.354 33.5708 137.224 33.007H136.92V37.5612Z" fill="black"/>
<path d="M30.7425 28.1927H30.3955V20.906C30.6991 21.6434 30.7425 22.3807 30.7425 22.9879V28.1927ZM16.9498 25.2867C17.3836 25.4168 17.8607 25.5036 18.3811 25.547V25.2C17.9474 25.1566 17.4703 25.0698 17.0366 24.9397C16.4727 24.8096 15.9522 24.6795 15.4318 24.6795C15.1715 24.6795 14.9113 24.7229 14.6944 24.8096V25.2C14.8679 25.1132 15.1282 25.0698 15.4318 25.0698C15.9089 25.0265 16.4294 25.1566 16.9498 25.2867ZM12.7426 25.0265C13.0462 25.0265 13.3065 25.0698 13.48 25.1566V24.7662C13.2631 24.6795 13.0029 24.6361 12.7426 24.6361C12.2222 24.6361 11.7017 24.7662 11.1378 24.8964C10.7041 25.0265 10.2704 25.1132 9.79325 25.1566V25.5036C10.2704 25.4602 10.7475 25.3735 11.2246 25.2433C11.7884 25.1566 12.2655 25.0265 12.7426 25.0265ZM12.7426 24.159C13.0462 24.159 13.3065 24.2458 13.48 24.2891V23.8988C13.2631 23.812 13.0029 23.812 12.7426 23.7687C12.2222 23.7687 11.7017 23.8988 11.1378 24.0289C10.7041 24.159 10.2704 24.2458 9.79325 24.2891V24.6361C10.3137 24.5927 10.7475 24.506 11.2246 24.3759C11.7884 24.2458 12.2655 24.1156 12.7426 24.159ZM12.7426 25.9373C13.0462 25.9373 13.3065 25.9807 13.48 26.0674V25.6771C13.2631 25.5903 13.0029 25.5903 12.7426 25.547C12.2222 25.547 11.7017 25.6771 11.1378 25.8072C10.7041 25.9373 10.2704 26.0241 9.79325 26.0674V26.4144C10.3137 26.371 10.7475 26.2409 11.2246 26.1542C11.7884 26.0241 12.2655 25.8939 12.7426 25.9373ZM12.7426 23.2482C13.0462 23.2482 13.3065 23.3349 13.48 23.3783V22.9879C13.2631 22.9012 13.0029 22.8578 12.7426 22.8578C12.2222 22.8578 11.7017 22.9879 11.1378 23.1181C10.7041 23.2482 10.2704 23.3349 9.79325 23.3783V23.7253C10.2704 23.6819 10.7475 23.5952 11.2246 23.465C11.7884 23.3783 12.2655 23.2482 12.7426 23.2482ZM10.4005 49.7926C6.10653 42.7227 6.19327 35.8264 6.19327 34.9589V18.2603H38.7232V34.9589C38.7232 35.8264 38.8099 42.7227 34.516 49.7926C30.6991 56.2118 24.9305 59.0311 22.4582 59.8985C20.0293 59.0311 14.2607 56.2118 10.4005 49.7926ZM19.0751 48.4914L18.2077 47.7974L18.6848 46.7565L17.5571 46.9733L17.08 45.9757L16.5595 46.9733L15.4751 46.7565L15.9522 47.7974L15.0848 48.4914L16.1691 48.7516V49.8793L17.08 49.1854L17.9474 49.8793V48.7516L19.0751 48.4914ZM23.7161 55.5612L24.8004 55.0407L23.7161 54.5636L24.1064 53.4359L22.9787 53.8697L22.5016 52.7853L22.0245 53.8263L20.8968 53.3926L21.3305 54.5203L20.2462 54.9974L21.3305 55.5178L20.8968 56.6455L22.0245 56.2118L22.5016 57.2961L22.9787 56.2118L24.1064 56.6455L23.7161 55.5612ZM21.3305 42.636L20.4631 43.3733L21.5474 43.6336V44.7613L22.4149 44.0673L23.3257 44.7613L23.3691 43.6336L24.4534 43.3733L23.5859 42.636L24.063 41.595L22.9353 41.8119L22.4582 40.8143L21.9811 41.8119L20.8534 41.595L21.3305 42.636ZM25.1474 49.7492L25.798 49.0552L24.8438 48.8817L24.41 48.0143L23.9763 48.8817L23.0221 49.0552L23.7161 49.7492L23.5426 50.7034L24.41 50.2697L25.2775 50.7034L25.1474 49.7492ZM28.357 46.3227L28.8775 45.4553H27.8799L27.4028 44.5878L26.9257 45.4553H25.9281L26.4486 46.3227L25.9281 47.1902H26.9257L27.4028 48.0577L27.8799 47.1902H28.8775L28.357 46.3227ZM35.9907 25.4168C35.7304 25.547 35.5136 25.7638 35.3834 26.0241C35.2533 26.2409 35.21 26.4578 35.21 26.6747C35.21 26.718 35.21 26.7614 35.21 26.8481C35.3401 26.7614 35.4702 26.6747 35.6003 26.5879C35.6871 26.5012 35.7738 26.371 35.8606 26.2843C35.9473 26.1108 35.9907 25.8506 35.9907 25.6337C35.9907 25.547 35.9907 25.4602 35.9907 25.4168ZM32.6076 30.4048C32.8678 30.5349 33.1714 30.5782 33.475 30.5349C33.7786 30.4915 33.9955 30.3614 34.2124 30.1445C33.9521 30.0144 33.6919 29.971 33.3883 30.0144C33.0847 30.0578 32.8244 30.2313 32.6076 30.4048ZM32.6076 29.9276C32.7377 29.7108 32.8244 29.4505 32.8244 29.1903C32.8244 29.1469 32.8244 29.1469 32.8244 29.1036C32.5642 29.2337 32.3473 29.4072 32.1738 29.624C32.0437 29.8409 31.957 30.1011 31.957 30.3614C31.957 30.4048 31.957 30.4048 31.957 30.4481C32.2606 30.3614 32.4774 30.1879 32.6076 29.9276ZM32.9545 29.8409C32.9545 29.8409 32.9545 29.8843 32.9545 29.8409C33.0413 29.8409 33.0847 29.8409 33.128 29.7975C33.3015 29.6674 33.3883 29.4939 33.475 29.277C33.5184 29.1469 33.5618 28.9734 33.5618 28.8433C33.5618 28.7132 33.5184 28.5831 33.475 28.453C33.3015 28.5831 33.1714 28.7132 33.0847 28.8867C33.0847 29.277 33.0413 29.5807 32.9545 29.8409ZM33.7786 29.1469C33.7786 29.1903 33.7786 29.1903 33.7786 29.1469C33.8654 29.1469 33.9088 29.1036 33.9521 29.0602C34.0822 28.8867 34.1256 28.7132 34.169 28.4963C34.169 28.453 34.169 28.4096 34.169 28.3662C34.169 28.1493 34.0822 27.8891 33.9521 27.6722C33.822 27.8457 33.6919 28.0192 33.6485 28.1927C33.7786 28.5831 33.822 28.8433 33.7786 29.1469ZM34.3859 28.2795C34.3859 28.3228 34.3859 28.3228 34.3859 28.2795C34.4726 28.2795 34.516 28.2361 34.5594 28.1493C34.6027 28.0192 34.6461 27.8891 34.6461 27.7156C34.6461 27.6722 34.6461 27.5855 34.6461 27.5421C34.6027 27.2819 34.4726 27.0216 34.2557 26.8048C34.169 26.9783 34.1256 27.1951 34.1256 27.3686C34.2557 27.7156 34.3425 27.9759 34.3859 28.2795ZM34.8196 27.2819C34.8196 27.3253 34.8196 27.3253 34.8196 27.2819C34.9063 27.2385 34.9063 27.1951 34.9497 27.1084C34.9497 27.065 34.9497 27.065 34.9497 27.0216C34.9497 26.8481 34.9063 26.6747 34.863 26.5012C34.7762 26.2409 34.5594 26.0674 34.2991 25.8939C34.2557 25.9807 34.2557 26.1108 34.2557 26.1976C34.2557 26.2843 34.2557 26.371 34.2991 26.4578C34.5594 26.7614 34.7328 27.0216 34.8196 27.2819ZM34.9931 26.2409C35.0365 26.1976 35.0798 26.1108 35.0798 26.0674C35.0365 25.8506 34.9931 25.6771 34.863 25.5036C34.6895 25.2867 34.4726 25.1132 34.169 25.0265C34.169 25.2433 34.2124 25.4602 34.2991 25.6337C34.6027 25.7638 34.8196 25.9807 34.9931 26.2409ZM34.9497 24.9831C34.863 24.7662 34.7762 24.5927 34.6027 24.4626C34.3859 24.2891 34.169 24.2024 33.8654 24.159C33.9088 24.3759 33.9955 24.5494 34.1256 24.6795C34.4292 24.7662 34.6895 24.9397 34.9063 25.1132H34.9497C34.9497 25.1132 34.9497 25.0698 34.9497 24.9831ZM34.6027 24.159C34.6027 24.0723 34.5594 24.0289 34.5594 23.9421C34.4292 23.7687 34.2991 23.6385 34.1256 23.5518C33.8654 23.4217 33.6051 23.3783 33.3015 23.4217C33.4317 23.5952 33.5184 23.7687 33.6919 23.8988C34.0389 23.8988 34.3425 23.9855 34.6027 24.159ZM34.4292 29.7108C34.6895 29.624 34.9063 29.4072 35.0798 29.1469C34.7762 29.1036 34.4726 29.1036 34.2124 29.1903C33.9955 29.277 33.7786 29.4939 33.6051 29.7108C33.7353 29.7108 33.9088 29.7542 34.0389 29.7975C34.169 29.7975 34.2991 29.7975 34.4292 29.7108ZM35.1666 28.7132C35.3834 28.5397 35.5569 28.2795 35.6871 27.9759C35.3834 27.9759 35.0798 28.0626 34.863 28.2361C34.6461 28.4096 34.4726 28.6265 34.3859 28.8867C34.516 28.8433 34.6895 28.8433 34.8196 28.8433C34.9497 28.8433 35.0798 28.7999 35.1666 28.7132ZM35.9473 26.718C35.6871 26.8048 35.4268 26.9349 35.21 27.1518C35.0365 27.3686 34.9497 27.6289 34.9063 27.9325C35.0365 27.8891 35.1666 27.8457 35.3401 27.8024C35.4702 27.7156 35.5569 27.6289 35.6437 27.5421C35.8606 27.3253 35.9473 27.0216 35.9473 26.718ZM35.6871 24.1156C35.4702 24.3325 35.2967 24.5494 35.21 24.853C35.1666 24.9397 35.1666 25.0698 35.1666 25.2C35.1666 25.3735 35.21 25.547 35.2533 25.6771C35.3401 25.547 35.4702 25.4602 35.5569 25.3735C35.6437 25.2433 35.6871 25.1132 35.7304 24.9831C35.7738 24.8964 35.7738 24.7662 35.7738 24.6795C35.8172 24.506 35.7738 24.3325 35.6871 24.1156ZM34.8196 23.7687C34.8196 24.0289 34.9063 24.2891 35.0798 24.5494C35.1232 24.4192 35.21 24.2891 35.2967 24.159C35.3401 24.0289 35.3834 23.8988 35.3834 23.7687C35.3834 23.465 35.2967 23.2048 35.1232 22.9446C34.9497 23.2048 34.8196 23.465 34.8196 23.7687ZM34.1256 22.5108C34.1256 22.5976 34.1256 22.7277 34.169 22.8144C34.2124 23.0747 34.3859 23.2915 34.6027 23.5084C34.6461 23.3783 34.6895 23.2048 34.7328 23.0747C34.7328 23.0313 34.7328 23.0313 34.7328 22.9879C34.7328 22.9012 34.7328 22.8144 34.6895 22.6843C34.6027 22.4241 34.4726 22.1638 34.2124 21.947C34.169 22.1205 34.1256 22.294 34.1256 22.5108ZM33.9955 23.0313C33.822 22.9012 33.6485 22.8144 33.475 22.7277C33.2148 22.6409 32.9112 22.6843 32.6509 22.7711C32.7811 22.9446 32.9545 23.0747 33.128 23.1614C33.4317 23.1181 33.7786 23.1181 34.0389 23.2048H34.0823C34.0389 23.1614 34.0389 23.1181 33.9955 23.0313ZM33.1714 21.3831C33.1714 21.6 33.2148 21.8169 33.3015 22.0337C33.4317 22.294 33.6485 22.4675 33.9088 22.5976C33.9088 22.4241 33.9088 22.294 33.9521 22.1205C33.9088 21.9903 33.9088 21.8602 33.822 21.7735C33.6919 21.5132 33.475 21.2964 33.2148 21.1663C33.1714 21.253 33.1714 21.2964 33.1714 21.3831ZM32.0437 21.4699C32.1305 21.7735 32.3039 22.0337 32.5208 22.1638C32.7377 22.294 32.9979 22.3807 33.2582 22.4241C33.1714 22.3373 33.128 22.2506 33.0413 22.1205C32.9979 22.0337 32.9545 21.9036 32.9112 21.8169C32.8678 21.7735 32.8678 21.7735 32.8244 21.7301C32.6509 21.5566 32.3907 21.4699 32.0437 21.4699ZM28.6606 28.2795C28.6606 28.4963 28.8341 28.7566 29.2244 28.7566H29.9618C29.875 29.0168 29.7883 29.4072 29.7883 29.7975C29.7883 30.318 29.875 30.7517 30.0485 31.0554C29.4847 30.9686 29.0943 30.8385 28.704 30.6216H28.6606L28.5739 30.8385H28.6172C28.9642 31.012 29.2678 31.0987 29.6582 31.2288C29.6582 31.2288 29.9618 31.2722 30.1787 31.3156C30.1353 31.359 30.0919 31.4457 30.0919 31.5325C30.0919 31.7059 30.222 31.8361 30.3955 31.8361C30.569 31.8361 30.6991 31.7059 30.6991 31.5325C30.6991 31.4457 30.6558 31.359 30.6124 31.3156C30.8293 31.2722 31.0895 31.2288 31.0895 31.2288C31.4799 31.1421 31.8268 31.0554 32.1738 30.8385H32.2172L32.1305 30.5782H32.0871C31.6967 30.7951 31.3064 30.9252 30.7425 31.012C30.8726 30.7084 31.0028 30.2746 31.0028 29.7542C31.0028 29.3638 30.9594 28.9734 30.8293 28.7132H31.5666C31.957 28.7132 32.1305 28.4963 32.1305 28.2361C32.1305 28.0626 32.0003 27.8891 31.7835 27.8891C31.61 27.8891 31.4365 28.0192 31.4365 28.2361C31.4365 28.2795 31.4365 28.3228 31.4799 28.3662C31.5232 28.4096 31.5232 28.4963 31.3931 28.4963H30.9594V22.9879C30.9594 22.2506 30.916 21.3398 30.4823 20.4723L30.3522 20.212L30.222 20.4723C29.7883 21.3398 29.7449 22.2506 29.7449 22.9879V28.4963H29.3112C29.1811 28.4963 29.2244 28.4096 29.2244 28.3662C29.2244 28.3228 29.2678 28.2795 29.2678 28.2361C29.2678 28.0626 29.1377 27.8891 28.9642 27.8891C28.8341 27.9325 28.6606 28.106 28.6606 28.2795ZM27.7498 28.9301C27.663 28.7566 27.5329 28.6265 27.3594 28.4963C27.316 28.6265 27.2727 28.7566 27.2727 28.8867C27.2727 29.0168 27.316 29.1903 27.3594 29.3204C27.4028 29.5373 27.5329 29.6674 27.663 29.8409C27.7064 29.8409 27.7931 29.8843 27.8365 29.8843V29.8409C27.7498 29.5807 27.7064 29.277 27.7498 28.9301ZM27.4895 23.4217C27.2293 23.3783 26.9257 23.4217 26.6654 23.5518C26.4919 23.6385 26.3184 23.7687 26.2317 23.9421C26.2317 24.0289 26.2317 24.0723 26.1883 24.159H26.2317C26.4919 23.9855 26.7955 23.8988 27.1425 23.8988C27.2727 23.7687 27.4028 23.5952 27.4895 23.4217ZM27.1859 28.2361C27.1425 28.0626 27.0124 27.8891 26.8823 27.7156C26.7522 27.9325 26.6654 28.1493 26.6654 28.4096C26.6654 28.453 26.6654 28.4963 26.6654 28.5397C26.6654 28.7566 26.7522 28.9301 26.8823 29.1036C26.9257 29.1469 27.0124 29.1903 27.0558 29.2337V29.1903C27.0124 28.8433 27.0558 28.5831 27.1859 28.2361ZM26.1883 27.759C26.1883 27.8891 26.2317 28.0192 26.2751 28.1927C26.3184 28.2361 26.3618 28.2795 26.4052 28.3228C26.4052 28.3228 26.4052 28.2795 26.4486 28.2795C26.4919 27.9759 26.5787 27.6722 26.7522 27.412C26.7522 27.1951 26.6654 27.0216 26.5787 26.8481C26.3618 27.065 26.2317 27.3253 26.1883 27.5855C26.1883 27.6289 26.1883 27.7156 26.1883 27.759ZM26.5353 26.5445C26.5787 26.4578 26.5787 26.371 26.5787 26.2843C26.5787 26.1976 26.5353 26.0674 26.5353 25.9807C26.2751 26.1542 26.1016 26.3277 25.9715 26.5879C25.8847 26.7614 25.8847 26.9349 25.8847 27.1084C25.8847 27.1518 25.8847 27.1518 25.8847 27.1951C25.9281 27.2385 25.9715 27.3253 25.9715 27.3686C25.9715 27.3686 26.0148 27.3686 26.0148 27.3253C26.1016 27.0216 26.2751 26.7614 26.5353 26.5445ZM25.8847 24.9831C25.8847 25.0265 25.8847 25.1132 25.8847 25.1566H25.9281C26.145 24.9397 26.4052 24.8096 26.7088 24.7229C26.8389 24.5494 26.9257 24.3759 26.969 24.2024C26.6654 24.2458 26.4052 24.3325 26.1883 24.506C26.0582 24.5927 25.9281 24.8096 25.8847 24.9831ZM25.7546 26.0674C25.798 26.1108 25.798 26.1976 25.798 26.2843C25.798 26.2843 25.798 26.2843 25.8413 26.2843C26.0148 26.0241 26.2317 25.8072 26.5353 25.6771C26.6221 25.5036 26.6654 25.2867 26.6654 25.0698C26.3618 25.1566 26.145 25.3301 25.9715 25.547C25.8413 25.6771 25.7546 25.8506 25.7546 26.0674ZM25.5811 27.1518C25.4076 26.9349 25.1474 26.8048 24.8438 26.718C24.8871 27.0216 24.9739 27.2819 25.1474 27.4987C25.2341 27.5855 25.3642 27.6722 25.451 27.759C25.5811 27.8024 25.7112 27.8457 25.8413 27.8891C25.8413 27.6289 25.7546 27.3686 25.5811 27.1518ZM25.1474 27.9759C25.2341 28.2795 25.4076 28.5397 25.6245 28.7132C25.7112 28.7999 25.8413 28.8433 25.9715 28.8867C26.145 28.8867 26.2751 28.8867 26.4052 28.9301C26.2751 28.6698 26.145 28.4096 25.9281 28.2795C25.7546 28.0626 25.451 27.9759 25.1474 27.9759ZM25.7546 29.1903C25.9281 29.4505 26.1016 29.624 26.4052 29.7542C26.5353 29.7975 26.6654 29.8409 26.7955 29.8409C26.9257 29.7975 27.0992 29.7975 27.2293 29.7542C27.0558 29.5373 26.8389 29.3204 26.6221 29.2337C26.3618 29.1036 26.0582 29.1036 25.7546 29.1903ZM26.6221 30.1879C26.8389 30.4048 27.0992 30.5349 27.4028 30.5782C27.663 30.6216 27.9666 30.5349 28.2269 30.4481C28.01 30.2313 27.7498 30.1011 27.4461 30.0578C27.1859 29.971 26.8823 30.0578 26.6221 30.1879ZM28.8775 30.4481C28.8775 30.4048 28.8775 30.4048 28.8775 30.3614C28.8775 30.1011 28.7907 29.8409 28.6606 29.624C28.4871 29.4072 28.2702 29.2337 28.01 29.1036C28.01 29.1469 28.01 29.1469 28.01 29.1903C28.01 29.4505 28.0967 29.7108 28.2269 29.9276C28.357 30.1879 28.5739 30.3614 28.8775 30.4481ZM27.7498 22.1205C27.7064 22.2072 27.6196 22.3373 27.5329 22.4241C27.7931 22.4241 28.0534 22.3373 28.2702 22.1638C28.4871 21.9904 28.6606 21.7301 28.7907 21.4699C28.4871 21.4699 28.1835 21.5566 27.9666 21.7301C27.9233 21.7735 27.9233 21.7735 27.8799 21.8169C27.8365 21.9036 27.7931 22.0337 27.7498 22.1205ZM26.8823 22.1205C26.9257 22.294 26.9257 22.4241 26.9257 22.5976C27.1859 22.4675 27.4028 22.2506 27.4895 22.0337C27.6196 21.8169 27.663 21.6 27.663 21.3831C27.663 21.2964 27.663 21.253 27.6196 21.1663C27.3594 21.2964 27.1425 21.5132 27.0124 21.7735C26.969 21.9036 26.9257 21.9903 26.8823 22.1205ZM26.7522 23.2482C26.7522 23.2482 26.7956 23.2482 26.7522 23.2482C27.0992 23.1614 27.4028 23.1614 27.7064 23.2048C27.8799 23.1181 28.0534 22.9879 28.1835 22.8144C27.9233 22.7277 27.6196 22.6843 27.3594 22.7711C27.1425 22.8144 26.969 22.9012 26.8389 23.0747C26.7955 23.1181 26.7956 23.1614 26.7522 23.2482ZM26.0582 22.9879C26.0582 23.0313 26.0582 23.0313 26.0582 23.0747C26.145 23.2048 26.1883 23.3783 26.1883 23.5084C26.4052 23.2915 26.5353 23.0747 26.6221 22.8144C26.6654 22.7277 26.6654 22.5976 26.6654 22.5108C26.6654 22.3373 26.6221 22.1205 26.5353 21.947C26.3184 22.1638 26.145 22.3807 26.0582 22.6843C26.1016 22.7711 26.0582 22.8578 26.0582 22.9879ZM25.451 23.7687C25.451 23.8988 25.4944 24.0289 25.5377 24.159C25.6245 24.2891 25.7112 24.4192 25.7546 24.5494C25.8847 24.3325 26.0148 24.0723 26.0148 23.7687C26.0148 23.5084 25.8847 23.2048 25.7546 22.9446C25.5811 23.2048 25.451 23.465 25.451 23.7687ZM25.0172 24.6795C25.0172 24.8096 25.0172 24.8964 25.0606 24.9831C25.104 25.1132 25.1474 25.2433 25.2341 25.3735C25.3642 25.4602 25.451 25.547 25.5377 25.6771C25.5811 25.5036 25.6245 25.3301 25.6245 25.2C25.6245 25.0698 25.6245 24.9831 25.5811 24.853C25.4944 24.5927 25.3209 24.3325 25.104 24.1156C25.0606 24.2891 25.0172 24.506 25.0172 24.6795ZM24.8004 25.5903C24.8004 25.8072 24.8438 26.0674 24.9739 26.2409C25.0172 26.371 25.104 26.4578 25.2341 26.5445C25.3642 26.5879 25.4944 26.6747 25.6245 26.7614C25.6245 26.718 25.6245 26.6313 25.6245 26.5879C25.6245 26.371 25.5811 26.1542 25.451 25.9373C25.3209 25.6771 25.104 25.4602 24.8004 25.3301C24.8004 25.4602 24.8004 25.547 24.8004 25.5903ZM14.2607 29.0168C14.5643 28.7999 14.9547 28.7132 15.4318 28.7132C15.9522 28.7132 16.4727 28.7999 17.0366 28.9734C17.6004 29.1036 18.251 29.277 18.8583 29.2337C18.8583 28.9301 18.8583 22.8578 18.8583 21.7301C18.8583 21.6434 18.8583 21.6 18.8583 21.5566C18.2077 21.6 17.5571 21.4265 16.9498 21.2964C16.4294 21.1663 15.9089 21.0361 15.4751 21.0795C14.8245 21.0795 14.4776 21.2964 14.2607 21.4699V21.7301V29.0168ZM9.35952 29.1903C9.96674 29.2337 10.574 29.1036 11.1812 28.9301C11.745 28.7999 12.2655 28.6698 12.786 28.6698C13.2631 28.6698 13.6535 28.7999 13.9571 28.9734V21.7301V21.4699C13.7402 21.253 13.3932 21.0795 12.7426 21.0795C12.2655 21.0795 11.7884 21.1663 11.2679 21.2964C10.6607 21.4699 10.0535 21.6 9.35952 21.5566C9.35952 21.6 9.35952 21.6434 9.35952 21.7301C9.35952 22.8144 9.35952 28.9301 9.35952 29.1903ZM8.18844 30.4048C8.18844 30.4048 13.2631 30.4048 13.4366 30.4048C13.5667 30.6216 13.7836 30.7951 14.0872 30.7951C14.3908 30.7951 14.6511 30.6216 14.7378 30.4048C14.9113 30.4048 19.986 30.4048 19.986 30.4048V21.7301H19.8125H19.3354L19.3787 21.9036V21.947V29.7975C18.9884 29.7975 14.7378 29.7975 14.5209 29.7975C14.4342 29.9276 14.3474 29.971 14.0872 29.971C13.8703 29.971 13.7836 29.9276 13.6968 29.7975C13.48 29.7975 9.57638 29.7975 8.79567 29.7975V21.947V21.9036L8.83904 21.7301H8.18844V30.4048ZM10.0969 47.7974L22.4582 36.6939L34.863 47.8408C35.6871 46.2793 36.2509 44.7613 36.728 43.33L22.4582 30.4915L8.23182 43.2866C8.66555 44.7179 9.27277 46.236 10.0969 47.7974ZM12.7426 26.8048C13.0462 26.8048 13.3065 26.8481 13.48 26.9349V26.5445C13.2631 26.4578 13.0029 26.4578 12.7426 26.4144C12.2222 26.4144 11.7017 26.5445 11.1378 26.6747C10.7041 26.8048 10.2704 26.8915 9.79325 26.9349V27.2819C10.2704 27.2385 10.7475 27.1084 11.2246 27.0216C11.7884 26.9349 12.2655 26.8048 12.7426 26.8048ZM12.7426 27.7156C13.0462 27.7156 13.3065 27.759 13.48 27.8457V27.4554C13.2631 27.3686 13.0029 27.3253 12.7426 27.3253C12.2222 27.3253 11.7017 27.4554 11.1378 27.5855C10.7041 27.7156 10.2704 27.8024 9.79325 27.8457V28.1927C10.2704 28.1493 10.7475 28.0192 11.2246 27.9325C11.7884 27.8024 12.2655 27.6722 12.7426 27.7156ZM12.7426 22.3807C13.0462 22.3807 13.3065 22.4675 13.48 22.5108V22.1205C13.2631 22.0337 13.0029 22.0337 12.7426 21.9903C12.2222 21.9903 11.7017 22.1205 11.1378 22.2506C10.7041 22.3807 10.2704 22.4675 9.79325 22.5108V22.8578C10.2704 22.8144 10.7475 22.7277 11.2246 22.5976C11.7884 22.4675 12.2655 22.3807 12.7426 22.3807ZM16.9498 24.4192C17.3836 24.5494 17.8607 24.6361 18.3811 24.6795V24.3325C17.9474 24.2891 17.4703 24.2024 17.0366 24.0723C16.4727 23.9421 15.9522 23.812 15.4318 23.812C15.1715 23.812 14.9113 23.8554 14.6944 23.9421V24.3325C14.8679 24.2458 15.1282 24.2024 15.4318 24.2024C15.9089 24.1156 16.4294 24.2458 16.9498 24.4192ZM16.9498 22.6409C17.3836 22.7711 17.8607 22.8578 18.3811 22.9012V22.5542C17.9474 22.5108 17.4703 22.4241 17.0366 22.294C16.4727 22.1638 15.9522 22.0337 15.4318 22.0337C15.1715 22.0337 14.9113 22.0771 14.6944 22.1638V22.5542C14.8679 22.4675 15.1282 22.4241 15.4318 22.4241C15.9089 22.3807 16.4294 22.4675 16.9498 22.6409ZM16.9498 26.1542C17.3836 26.2409 17.904 26.371 18.3811 26.4144V26.0674C17.904 26.0241 17.4703 25.9373 17.0366 25.8072C16.4727 25.6771 15.9522 25.547 15.4751 25.547C15.2149 25.547 14.9547 25.5903 14.7378 25.6337V26.0241C14.9113 25.9373 15.1715 25.8939 15.4751 25.8939C15.9089 25.8939 16.4294 26.0241 16.9498 26.1542ZM16.9498 23.5084C17.3836 23.6385 17.8607 23.7253 18.3811 23.7687V23.4217C17.9474 23.3783 17.4703 23.2915 17.0366 23.1614C16.4727 23.0313 15.9522 22.9012 15.4318 22.9012C15.1715 22.9012 14.9113 22.9446 14.6944 23.0313V23.4217C14.8679 23.3349 15.1282 23.2915 15.4318 23.2915C15.9089 23.2482 16.4294 23.3783 16.9498 23.5084ZM16.9498 27.065C17.3836 27.1951 17.8607 27.2819 18.3811 27.3253V26.9783C17.9474 26.9349 17.4703 26.8048 17.0366 26.718C16.4727 26.5879 15.9522 26.4578 15.4318 26.4578C15.1715 26.4578 14.9113 26.5012 14.6944 26.5879V26.9783C14.8679 26.8915 15.1282 26.8481 15.4318 26.8481C15.9089 26.8048 16.4294 26.9349 16.9498 27.065ZM16.9498 27.9325C17.3836 28.0626 17.8607 28.1493 18.3811 28.1927V27.8457C17.9474 27.8024 17.4703 27.7156 17.0366 27.5855C16.4727 27.4554 15.9522 27.3253 15.4318 27.3253C15.1715 27.3253 14.9113 27.3686 14.6944 27.4554V27.8457C14.8679 27.759 15.1282 27.7156 15.4318 27.7156C15.9089 27.6722 16.4294 27.8024 16.9498 27.9325ZM44.6219 46.3661L44.5352 46.583C43.7111 49.3155 42.3232 52.048 41.3256 53.8263L41.1087 54.1733L39.6774 52.8721C39.634 52.9588 39.5473 53.0889 39.5039 53.1757C35.8606 58.9877 30.7425 63.1949 24.6269 65.4503L22.4582 66.231L20.2896 65.4503C14.2173 63.2383 9.05591 58.9877 5.45593 53.1757C5.41256 53.0889 5.36918 52.9588 5.28244 52.8721L3.80775 54.1733L3.59088 53.7829C2.5933 51.9612 1.24873 49.2287 0.381264 46.5396L0.337891 46.3661L3.85112 43.1999L4.28485 42.8095L4.45835 43.33C4.63184 43.9806 4.8487 44.5878 5.06557 45.195L6.06315 44.2842L6.45351 43.9372L6.62701 44.4577C7.36435 46.6697 8.36194 48.7516 9.53301 50.6167C12.6125 55.5178 16.9065 59.0744 21.9811 60.9395C21.9811 60.9395 22.3281 61.0696 22.5016 61.113C22.6751 61.0696 23.0221 60.9395 23.0221 60.9395C28.0967 59.0744 32.4341 55.5178 35.4702 50.6167C36.6413 48.7516 37.6389 46.6697 38.3762 44.4577L38.5497 43.9372L39.9376 45.195C40.1545 44.5878 40.3714 43.9806 40.5449 43.33L40.7183 42.8095L44.6219 46.3661ZM3.2439 51.5709L2.5933 47.4504L4.50172 45.7155C4.28485 45.195 4.11136 44.6312 3.93787 44.0673C3.37402 44.5878 1.42222 46.3227 1.16198 46.583C1.72583 48.3179 2.46318 50.0528 3.2439 51.5709ZM4.93545 52.2649C4.50172 51.5275 4.06799 50.7468 3.721 49.9661L4.19811 52.9588C4.32823 52.7853 4.63184 52.5251 4.93545 52.2649ZM41.2388 49.9661C40.8918 50.7468 40.4581 51.5275 40.0244 52.2649C40.328 52.5251 40.5882 52.7853 40.7617 52.9588L41.2388 49.9661ZM41.4991 47.5805C41.1955 47.3203 39.3304 45.6287 38.8099 45.1516C38.0726 47.2336 37.1618 49.2287 36.034 51.007C32.9112 56.0383 28.4871 59.6817 23.2389 61.6335L22.4582 61.8937L21.7209 61.6335C16.4727 59.725 12.092 56.0383 8.92579 51.007C7.79808 49.2287 6.88725 47.2336 6.1499 45.1516C5.58605 45.6287 3.76437 47.3203 3.46076 47.5805C4.15473 49.4022 5.06557 51.1805 6.06315 52.7853C9.61976 58.4672 14.6511 62.5877 20.5932 64.7563C20.5932 64.7563 22.3281 65.3636 22.5016 65.4503C22.7185 65.3636 24.4534 64.7563 24.4534 64.7563C30.3955 62.5877 35.4268 58.4238 38.9834 52.7853C39.8943 51.2239 40.8051 49.4456 41.4991 47.5805ZM43.7978 46.5396C43.5376 46.2793 41.5858 44.5444 41.022 44.0239C40.8485 44.5878 40.675 45.1516 40.4581 45.6721L42.3665 47.4071L41.7159 51.5709C42.4533 50.0528 43.234 48.3179 43.7978 46.5396ZM6.41014 51.8311L6.45351 52.0046L6.32339 52.0914C6.23665 51.9612 6.19327 51.8311 6.10653 51.6576C6.01978 51.5275 5.93303 51.3974 5.84629 51.2239L5.97641 51.1805L6.10653 51.3106C6.23665 51.1805 6.45351 51.007 6.54026 50.8335L6.23665 50.2697L5.62942 50.3998L5.6728 50.5733L5.58605 50.6167C5.54268 50.4865 5.45593 50.3998 5.41256 50.2697C5.36918 50.1829 5.32581 50.0962 5.23906 49.9661L5.36918 49.9227L5.4993 50.0528C5.93303 50.0528 6.84387 49.8793 7.40772 49.7926C7.49447 49.9227 7.62459 50.0094 7.71134 50.0962L7.75471 50.2697L7.19086 50.9637C6.88725 51.2673 6.54026 51.701 6.41014 51.8311ZM6.75713 50.66L7.2776 50.0962L6.49689 50.2697L6.75713 50.66ZM9.92337 53.8697L10.0101 53.7829C9.92337 53.6962 9.88 53.6094 9.79325 53.4793C9.7065 53.3926 9.66313 53.2624 9.57638 53.1757L9.44627 53.2624L9.53301 53.4359C9.2294 53.6528 8.53543 54.2166 8.53543 54.2166C8.70892 53.6962 8.92579 53.0889 9.14265 52.5685C9.05591 52.4817 9.01253 52.395 8.92579 52.3082C8.88241 52.2215 8.79567 52.1347 8.75229 52.048L8.66555 52.1347L8.75229 52.3082C8.62217 52.4383 8.49205 52.5251 8.31856 52.6552L7.84146 53.0022C7.66796 53.1323 7.53784 53.2191 7.36435 53.3058L7.23423 53.1757L7.14748 53.2624C7.23423 53.3492 7.27761 53.4359 7.36435 53.566C7.4511 53.6528 7.49447 53.7829 7.58122 53.8697L7.66796 53.7829L7.53784 53.566C7.84146 53.3492 8.23182 53.0456 8.5788 52.7853C8.36193 53.3058 8.18844 53.8697 7.97158 54.4769C8.01495 54.5203 8.05832 54.607 8.1017 54.6504C8.14507 54.6937 8.18844 54.7805 8.23182 54.8239C8.40531 54.6938 8.5788 54.5203 8.83904 54.3468L9.31615 53.9998C9.48964 53.8697 9.66313 53.7829 9.79325 53.6962L9.92337 53.8697ZM10.0969 55.4745C9.61976 55.9082 9.66313 56.5588 10.0535 56.9492C10.3137 57.2094 10.574 57.3829 11.0511 57.4263L11.0944 57.166C10.8342 57.1227 10.6173 57.0359 10.4872 56.8624C10.1836 56.5588 10.1836 56.1251 10.5306 55.7781C10.8776 55.4311 11.2679 55.5612 11.4848 55.8215C11.6149 55.9516 11.7017 56.1251 11.7017 56.2986L11.6149 56.472L11.7017 56.6022C11.8318 56.5154 12.0053 56.3853 12.1354 56.3419C12.0487 56.0817 11.9185 55.9082 11.745 55.6913C11.2679 55.1275 10.574 55.0407 10.0969 55.4745ZM14.3041 59.4648C13.9137 59.9419 13.3065 59.9853 12.6993 59.5082C12.1354 59.0311 12.0487 58.4672 12.4824 57.9034C12.8727 57.4263 13.5233 57.3829 14.0872 57.86C14.6511 58.3371 14.7378 58.9443 14.3041 59.4648ZM13.8703 58.1202C13.5667 57.86 13.1764 57.9901 12.8727 58.2937C12.5691 58.6407 12.5691 59.0311 12.8727 59.2913C13.1764 59.5515 13.5667 59.4214 13.8703 59.1178C14.1306 58.7708 14.1739 58.3371 13.8703 58.1202ZM17.3402 60.8961C17.2101 61.1564 16.9065 61.1997 16.6028 61.0696C16.6462 61.2865 16.733 62.0238 16.7763 62.1539L16.8197 62.2407L16.733 62.3708C16.5595 62.2407 16.3426 62.1539 16.1691 62.0672C16.1691 61.7202 16.1257 61.1997 16.0824 60.8961L15.9522 60.8094L15.8655 60.9829C15.7354 61.1564 15.6486 61.3298 15.6053 61.46L15.7354 61.5901L15.6486 61.7202C15.5185 61.6335 15.3884 61.5467 15.2583 61.46C15.1282 61.3732 14.998 61.2865 14.8245 61.1997L14.9113 61.0696L15.0848 61.1564C15.2149 61.0262 15.3016 60.8527 15.4318 60.6793L15.7354 60.1588C15.8655 59.9853 15.9522 59.8118 16.039 59.6817L15.9089 59.5516L15.9956 59.4214C16.0824 59.5082 16.2125 59.5515 16.2992 59.6383C16.4294 59.725 16.5595 59.7684 16.6896 59.8552C16.8197 59.9419 16.9498 59.9853 17.08 60.072C17.5137 60.3323 17.5137 60.6359 17.3402 60.8961ZM16.6896 60.1588C16.5595 60.072 16.5161 60.072 16.4294 60.0287C16.386 60.1154 16.2992 60.2455 16.2125 60.3756L16.1257 60.5058C16.1691 60.5491 16.2125 60.5925 16.2559 60.6359C16.5161 60.8094 16.733 60.8094 16.8631 60.5925C16.9498 60.419 16.9065 60.2889 16.6896 60.1588ZM19.986 62.5009C19.9426 62.8913 19.8992 63.4551 19.8992 63.672L20.0293 63.7588L19.986 63.8889C19.8558 63.8021 19.6823 63.7588 19.5522 63.672C19.4221 63.5853 19.2486 63.5419 19.1185 63.4985L19.1619 63.3684L19.3354 63.4118C19.3787 63.2383 19.4221 62.978 19.4221 62.8045L18.8149 62.5443L18.4245 63.0214L18.5546 63.1082L18.5113 63.2383C18.3811 63.1949 18.251 63.1082 18.1643 63.0648C18.0775 63.0214 17.9474 62.978 17.8607 62.9347L17.904 62.8045L18.0775 62.8479C18.4245 62.5877 19.0317 61.9371 19.4655 61.46C19.639 61.5033 19.7691 61.5033 19.8992 61.5467L20.0727 61.6768L19.986 62.5009ZM19.5522 61.7202L19.0317 62.3274L19.4655 62.5443L19.5522 61.7202ZM25.9281 63.2383C25.8413 63.0648 25.7546 62.9347 25.6678 62.7178L25.451 62.1973C25.3642 61.9804 25.2775 61.8503 25.2341 61.6768L25.4076 61.5901L25.3642 61.46C25.2341 61.5467 25.0606 61.5901 24.9305 61.6768C24.8004 61.7202 24.6269 61.807 24.4968 61.8503L24.5401 61.9804L24.7136 61.9371C24.8004 62.1106 24.8871 62.2407 24.9739 62.4576L25.1907 62.978C25.2775 63.1949 25.3209 63.325 25.4076 63.4985L25.2341 63.5853L25.2775 63.7154C25.4076 63.6286 25.5811 63.5853 25.7112 63.4985C25.8413 63.4551 26.0148 63.3684 26.145 63.325L26.1016 63.1949L25.9281 63.2383ZM29.6582 61.2431C29.5714 61.113 29.4413 60.9395 29.3546 60.766L29.051 60.2455C28.9208 60.072 28.8341 59.8985 28.7907 59.7684L28.9208 59.6383L28.8341 59.5082C28.704 59.5949 28.5739 59.6817 28.4871 59.725C28.357 59.8118 28.2269 59.8552 28.0967 59.9419C28.1835 60.2021 28.357 61.2431 28.4004 61.46C28.1835 61.2865 27.4028 60.6793 27.2293 60.4624C27.0992 60.5491 26.969 60.6359 26.8823 60.6793C26.7522 60.766 26.6221 60.8094 26.4919 60.8961L26.5787 61.0262L26.7522 60.9829L26.8823 61.2431C27.0124 61.5033 27.4895 62.2841 27.5763 62.5009L27.4461 62.6311L27.5329 62.7612C27.6196 62.7178 27.7498 62.6311 27.8365 62.5877C27.9233 62.5443 28.0534 62.4576 28.1401 62.4142L28.0534 62.2841L27.8799 62.3708C27.7931 62.2407 27.663 62.0672 27.5763 61.8937L27.4028 61.5901C27.2727 61.3299 27.1425 61.1564 27.0992 61.0696C27.8365 61.7202 28.2702 62.0238 28.4437 62.1973L28.704 62.0238L28.357 60.2889C28.4004 60.3756 28.5305 60.5491 28.6606 60.8094L28.8341 61.113C28.9642 61.2865 29.0076 61.46 29.0943 61.6335L28.9642 61.7636L29.0076 61.8937C29.1377 61.807 29.2678 61.7202 29.3979 61.6335C29.5281 61.5467 29.7016 61.46 29.8317 61.3732L29.7883 61.2431H29.6582ZM31.6533 59.725C31.5232 59.5949 31.3931 59.4648 31.263 59.2913L31.0028 58.9443C30.8726 58.8142 30.7425 58.6407 30.6558 58.4672C30.6991 58.4238 30.7425 58.3371 30.8293 58.2937C31.0461 58.1202 31.2196 58.1636 31.3497 58.2937C31.4799 58.4672 31.5232 58.6841 31.3064 58.8142C31.263 58.8576 31.2196 58.901 31.1762 58.901L31.263 59.1612C31.3497 59.1178 31.4365 59.0311 31.5232 58.9877C31.957 58.6407 31.957 58.207 31.7401 57.9034C31.5232 57.6431 31.1762 57.5998 30.8293 57.9034C30.7425 57.9901 30.6558 58.0769 30.5256 58.1636C30.3955 58.2937 30.2654 58.3805 30.1787 58.4672C30.0919 58.554 29.9618 58.6407 29.8317 58.7275L29.9184 58.8142L30.0919 58.7275C30.222 58.8576 30.3522 58.9877 30.4823 59.1612L30.8293 59.6383C30.9594 59.8118 31.0895 59.9419 31.1762 60.072L31.0461 60.2021L31.1329 60.2889C31.263 60.2021 31.3931 60.072 31.5232 59.9853C31.6534 59.8985 31.7835 59.8118 31.957 59.6383L31.8702 59.5516L31.6533 59.725ZM35.0798 56.6022L35.1666 56.6889C35.0365 56.7757 34.9497 56.9058 34.8196 57.0359C34.6895 57.166 34.6027 57.2961 34.4726 57.3829L34.3859 57.2961L34.4726 57.166C34.3425 57.0793 34.0822 56.9492 33.9088 56.8624L33.4317 57.3395L33.7353 57.86L33.8654 57.7732L33.9521 57.86C33.8654 57.9467 33.7786 58.0335 33.6919 58.1202C33.6051 58.207 33.5184 58.2937 33.475 58.3805L33.3883 58.2937L33.475 58.1636C33.3449 57.7732 32.9112 56.9492 32.6509 56.3853C32.7377 56.2552 32.8244 56.1251 32.8678 55.9949L33.0413 55.9082L33.822 56.2552C34.169 56.4287 34.6895 56.6455 34.863 56.6889L35.0798 56.6022ZM33.7353 56.7323L32.9979 56.3853L33.3883 57.0793L33.7353 56.7323ZM37.2919 53.7829L37.3786 53.8697C37.2485 54.0432 37.1184 54.2166 37.0316 54.3901C36.6413 54.3901 36.1208 54.3468 35.8172 54.3468L35.7304 54.4769L35.8606 54.607C36.034 54.7371 36.1642 54.8239 36.3377 54.9106L36.4678 54.7805L36.5979 54.8672C36.5112 54.9974 36.381 55.1275 36.2943 55.2576C36.2075 55.3877 36.1208 55.5178 35.9907 55.648L35.8606 55.5612L35.9473 55.3877C35.8172 55.2576 35.6871 55.1709 35.5136 55.0407L35.0365 54.6937C34.863 54.5636 34.7328 54.4769 34.5594 54.3468L34.4292 54.4769L34.2991 54.3901C34.3859 54.3034 34.4726 54.2166 34.516 54.0865C34.6027 53.9564 34.6895 53.8697 34.7762 53.7395C34.863 53.6094 34.9497 53.5227 35.0365 53.3926C35.3834 52.9154 35.6871 52.9588 35.9039 53.1323C36.1208 53.3058 36.1642 53.6094 36.034 53.8697C36.2509 53.8697 36.9883 53.8263 37.1184 53.8263L37.2919 53.7829ZM35.6871 53.6094C35.5569 53.4793 35.3834 53.5227 35.2533 53.7395C35.1666 53.8263 35.1232 53.913 35.0798 53.9564C35.1666 53.9998 35.2533 54.1299 35.4268 54.2166L35.5569 54.3034C35.6003 54.26 35.6437 54.2166 35.6871 54.1733C35.8605 53.9564 35.8605 53.7829 35.6871 53.6094ZM38.7666 51.7877C38.3762 52.4383 37.8123 52.6118 37.2485 52.2649C36.728 51.9612 36.5545 51.354 36.9449 50.7034C37.3352 50.0528 37.8557 49.8793 38.4629 50.2263C38.9834 50.4865 39.1569 51.1371 38.7666 51.7877ZM38.1593 50.7034C37.769 50.4865 37.3786 50.5299 37.1617 50.8335C36.9449 51.1805 37.1184 51.5275 37.5087 51.7877C37.8991 52.0046 38.2895 51.9612 38.5063 51.6576C38.7232 51.3106 38.5497 50.9203 38.1593 50.7034ZM22.4582 62.978C22.2414 62.978 22.0245 63.1949 22.0245 63.4551C22.0245 63.7154 22.2414 63.9322 22.4582 63.9322C22.7185 63.9322 22.9353 63.7154 22.9353 63.4551C22.9353 63.1949 22.7185 62.978 22.4582 62.978ZM5.54268 48.5348C5.80292 48.5348 6.01978 48.3179 6.01978 48.101C6.01978 47.8408 5.80292 47.6239 5.54268 47.6239C5.28244 47.6239 5.10894 47.8408 5.10894 48.101C5.10894 48.3179 5.32581 48.5348 5.54268 48.5348ZM39.4605 48.5348C39.7208 48.5348 39.9376 48.3179 39.9376 48.101C39.9376 47.8408 39.7208 47.6239 39.4605 47.6239C39.2437 47.6239 39.0268 47.8408 39.0268 48.101C38.9834 48.3179 39.2003 48.5348 39.4605 48.5348Z" fill="black"/>
</g>
<defs>
<clipPath id="clip0">
<rect width="172" height="50.3129" fill="white" transform="translate(0 18)"/>
</clipPath>
</defs>
</svg>
