<svg width="172" height="86" viewBox="0 0 172 86" fill="none" xmlns="http://www.w3.org/2000/svg">
<path d="M65.585 32.6912H67.9885V27.8887H65.585V32.6912Z" fill="black"/>
<path d="M65.585 59.1076H67.9885V35.0913H65.585V59.1076Z" fill="black"/>
<path d="M83.606 56.4386L73.9937 35.0921H71.5918L82.4043 59.1084H84.8094L95.6202 35.0921H93.2184L83.606 56.4386Z" fill="black"/>
<path d="M142.177 54.3046L150.906 34.3723L159.608 54.3046H142.177ZM154.493 20.6881H152.091L149.69 26.1763L135.269 59.1089H171.318L154.493 20.6881V20.6881Z" fill="#E95F40"/>
<path d="M119.648 42.2968C119.648 38.3153 122.872 35.0921 126.859 35.0921H134.066V37.4942H126.859C124.201 37.4942 122.052 39.6419 122.052 42.2968V59.1084H119.648V42.2968Z" fill="black"/>
<path d="M18.7288 51.9286C18.7288 54.5835 16.5798 56.7312 13.9234 56.7312H7.89148C5.23506 56.7312 3.08612 54.5835 3.08612 51.9286L3.11092 42.2969C3.11092 39.642 5.25986 37.4943 7.91628 37.4943H13.9234C16.5798 37.4943 18.7288 39.642 18.7288 42.2969V51.9286ZM21.1323 42.2969C21.1323 38.3154 17.9088 35.0922 13.9234 35.0922H7.91628C3.93082 35.0922 0.707412 38.3154 0.707412 42.2969L0.682617 51.9286C0.682617 55.9117 3.90603 59.1333 7.89148 59.1333H13.9234C17.9088 59.1333 21.1323 55.9117 21.1323 51.9286V42.2969V42.2969Z" fill="black"/>
<path d="M41.5569 51.9037C41.5569 54.557 39.4063 56.7047 36.7515 56.7047L27.1392 56.7063V37.4926H36.7515C39.4063 37.4926 41.5569 39.642 41.5569 42.2969V51.9037ZM43.9588 42.2969C43.9588 38.3153 40.7353 35.0921 36.7515 35.0905L24.7373 35.0921V66.3115H27.1392V59.1084H36.7515C40.7353 59.1084 43.9604 55.8852 43.9604 51.9037L43.9588 42.2969Z" fill="black"/>
<path d="M51.1686 51.9048C51.1686 54.5564 53.3176 56.7058 55.974 56.7058H61.9811V59.1079H55.974C51.9885 59.1079 48.7651 55.8847 48.7651 51.9048L48.7668 37.4937H46.3633V35.0916H48.7668V30.289H51.1686V35.0916H60.0967L59.0156 37.4937H51.1686V51.9048Z" fill="black"/>
<path d="M99.2258 42.2968C99.2258 39.6419 101.376 37.4942 104.033 37.4942L109.027 37.4992L108.838 37.4942C111.495 37.4942 113.643 39.6419 113.643 42.2968V44.6973H99.2258V42.2968ZM113.643 51.9037C113.643 54.5569 111.495 56.7063 108.838 56.7063H104.033C101.375 56.7063 99.2258 54.5569 99.2258 51.9053V47.1011H116.045V42.2968C116.045 38.3153 112.82 35.0921 108.838 35.0921H104.033C100.047 35.0921 96.8223 38.3153 96.8223 42.2968L96.8239 51.9053C96.8239 55.8852 100.047 59.1084 104.033 59.1084H108.838C112.82 59.1084 116.045 55.8852 116.045 51.9037H113.643V51.9037Z" fill="black"/>
</svg>
