<svg fill="none" height="86" viewBox="0 0 172 86" width="172" xmlns="http://www.w3.org/2000/svg" xmlns:xlink="http://www.w3.org/1999/xlink"><clipPath id="a"><path d="m45 12h82v62h-82z"/></clipPath><g clip-path="url(#a)"><g fill="#231f20"><path d="m100.525 52.9505c-2.6393.4245-3.9886 2.3664-3.9886 5.7839 0 3.4384 1.7973 5.738 4.5526 5.738 1.282 0 2.447-.4245 4.896-1.621v2.7814c-2.939 1.343-4.669 1.7586-7.0371 1.7586-2.5639 0-4.3676-.6785-5.8406-2.1738-1.5095-1.5043-2.2645-3.4912-2.2645-5.7032 0-4.9213 3.6574-8.2512 8.9996-8.2512 3.5476 0 5.9886 1.6149 5.9886 3.9866 0 1.527-1.136 2.5777-2.821 2.5777-.865 0-1.576-.2256-2.485-.7515z"/><path d="m87.5011 59.5145c2.3664-2.9715 3.2021-4.1698 3.2021-5.6288 0-1.4526-1.1577-2.6223-2.7042-2.6223-.9526 0-1.81.4481-2.2286.9138v6.0531l-3.8773 5.1457v-11.7319h-3.686l-6.1275 10.1196v-10.1196h-2.1182l-5.5625 1.3509v1.4163l3.0341.3066v12.4108h3.9217l5.8772-9.6215v9.6215h4.2947z"/><path d="m52.6869 71.9992 2.5431.5634.0001 1.4374h-9.9764v-1.4374l2.2736-.5634v-17.3617h-2.5273v-1.4889l6.1032-1.8467h1.5837v2.0731c2.8583-1.6942 3.8403-1.9942 5.3065-1.9942 3.3861 0 5.8851 3.1109 5.8851 7.4182 0 4.9796-3.3347 8.3296-8.5892 8.3296-.5944 0-1.5831-.036-2.6024-.1528zm0-6.7816c.4175.0196.6006.0196.8644.0196 3.159 0 4.8523-1.9618 4.8523-5.7228 0-3.1839-1.3854-4.8769-3.9426-4.8769-.4254 0-.8723.0515-1.7741.1608z"/></g><path d="m123.126 38.623h3.875v-7.6054h-3.875z" fill="#f13ea0"/><path d="m112.405 19.6025h2.996v-4.6311h-2.996z" fill="#f9a771"/><path d="m97.1748 14.9714h15.2302v-2.9711h-15.2302z" fill="#f68620"/><path d="m97.1748 31.0173v-16.0459h15.2302v4.6312h-15.2302z" fill="#f3611e"/><path d="m115.401 31.0173h7.726v-11.4148h-7.726z" fill="#fab116"/><path d="m115.401 38.623h7.726v-7.6054h-7.726z" fill="#f03f24"/><path d="m112.405 31.0173h2.996v-11.4148h-2.996z" fill="#f57d18"/><path d="m112.405 38.623h2.996v-7.6054h-2.996z" fill="#ef3323"/><path d="m112.405 31.0173h-5.705v-3.8116h-9.5252v3.8116-11.4147h15.2302z" fill="#f14c1c"/><path d="m106.7 38.623h5.705v-7.6054h-5.705z" fill="#ee2822"/><path d="m97.1748 31.0173h9.5252v-3.8116h-9.5252z" fill="#c53a21"/><path d="m97.1748 38.623h9.5252v-7.6054h-9.5252z" fill="#c42523"/><path d="m81.9019 38.6229h15.2726v3.8036h-15.2726z" fill="#c32523"/></g></svg>