<svg width="172" height="86" viewBox="0 0 172 86" fill="none" xmlns="http://www.w3.org/2000/svg">
<g clip-path="url(#clip0)">
<path d="M103.004 55.2161C99.9148 55.7158 98.3352 58.0023 98.3352 62.0261C98.3352 66.0745 100.439 68.7821 103.665 68.7821C105.166 68.7821 106.53 68.2823 109.397 66.8736V70.1485C105.956 71.7297 103.93 72.219 101.158 72.219C98.1567 72.219 96.0451 71.4202 94.3206 69.6595C92.5534 67.8884 91.6694 65.549 91.6694 62.9445C91.6694 57.1501 95.9513 53.2294 102.206 53.2294C106.359 53.2294 109.216 55.1308 109.216 57.9233C109.216 59.7212 107.887 60.9583 105.914 60.9583C104.901 60.9583 104.069 60.6927 103.004 60.0734V55.2161Z" fill="#231F20"/>
<path d="M87.7574 62.9444C90.5278 59.4457 91.5062 58.0348 91.5062 56.3169C91.5062 54.6065 90.1508 53.2293 88.3403 53.2293C87.225 53.2293 86.2212 53.757 85.7312 54.3053V61.4323L81.1919 67.491V53.6776H76.8766L69.703 65.5926V53.6776H67.2231L60.7109 55.2682V56.9358L64.263 57.2968V71.9094H68.8543L75.7349 60.581V71.9094H80.7628L87.7574 62.9444Z" fill="#231F20"/>
<path d="M46.9993 77.6443L49.9766 78.3076L49.9767 80H38.297V78.3076L40.9588 77.6443V57.2022H38V55.4491L45.1452 53.2748H46.9993V55.7158C50.3456 53.7209 51.4953 53.3677 53.2118 53.3677C57.176 53.3677 60.1017 57.0306 60.1017 62.102C60.1017 67.9651 56.1977 71.9095 50.046 71.9095C49.3502 71.9095 48.1926 71.8671 46.9993 71.7296V77.6443ZM46.9993 69.6595C47.4881 69.6825 47.7024 69.6825 48.0113 69.6825C51.7096 69.6825 53.692 67.3727 53.692 62.9444C53.692 59.1956 52.0701 57.2022 49.0763 57.2022C48.5782 57.2022 48.055 57.2629 46.9993 57.3916V69.6595Z" fill="#231F20"/>
<path d="M129.465 38.3464H134.001V29.3916H129.465V38.3464Z" fill="#F13EA0"/>
<path d="M116.913 15.9514H120.421V10.4987H116.913V15.9514Z" fill="#F9A771"/>
<path d="M99.0825 10.4985H116.913V7.0003H99.0825V10.4985Z" fill="#F68620"/>
<path d="M99.0825 29.3914V10.4986H116.913V15.9514H99.0825V29.3914Z" fill="#F3611E"/>
<path d="M120.421 29.3914H129.465V15.9513H120.421V29.3914Z" fill="#FAB116"/>
<path d="M120.421 38.3464H129.465V29.3916H120.421V38.3464Z" fill="#F03F24"/>
<path d="M116.913 29.3914H120.421V15.9513H116.913V29.3914Z" fill="#F57D18"/>
<path d="M116.913 38.3464H120.421V29.3916H116.913V38.3464Z" fill="#EF3323"/>
<path d="M116.913 29.3914H110.234V24.9035H99.0825V29.3914V15.9514H116.913V29.3914Z" fill="#F14C1C"/>
<path d="M110.234 38.3464H116.913V29.3916H110.234V38.3464Z" fill="#EE2822"/>
<path d="M99.0825 29.3914H110.234V24.9035H99.0825V29.3914Z" fill="#C53A21"/>
<path d="M99.0825 38.3464H110.234V29.3916H99.0825V38.3464Z" fill="#C42523"/>
<path d="M81.2021 38.3463H99.0823V42.8247H81.2021V38.3463Z" fill="#C32523"/>
</g>
<defs>
<clipPath id="clip0">
<rect width="96" height="73" fill="white" transform="translate(38 7)"/>
</clipPath>
</defs>
</svg>
