<svg fill="none" height="86" viewBox="0 0 172 86" width="172" xmlns="http://www.w3.org/2000/svg"><path d="m9.00024 43.3032c-.0195 4.0343 1.16406 7.9838 3.40106 11.3492 2.2369 3.3653 5.4269 5.9956 9.1666 7.5581 3.7397 1.5626 7.8613 1.9873 11.8436 1.2205 3.9824-.7668 7.6468-2.6907 10.53-5.5285 2.8832-2.8377 4.8557-6.462 5.6682-10.4145.8125-3.9526.4286-8.056-1.1033-11.7916s-4.143-6.9356-7.5032-9.1954c-3.3602-2.2599-7.3186-3.4783-11.3748-3.501h-.1154c-5.4232-.0001-10.6258 2.1359-14.4699 5.9407-3.844 3.8047-6.01671 8.9687-6.04286 14.3625z" fill="#ec1a3b"/><path d="m42.9681 40.597-12.1856-12.0704c-.1535-.1881-.3469-.3401-.5665-.445-.2195-.105-.4597-.1602-.7032-.1618-.2384-.0065-.4754.0386-.6946.132s-.4154.233-.5751.4092l-12.1856 12.136c-.3625.3678-.6082.8335-.7064 1.3391-.0982.5057-.0446 1.0289.154 1.5045.1987.4756.5336.8825.9632 1.1701.4295.2876.9347.4431 1.4525.4471h1.6489v9.184c0 .435.1737.8521.483 1.1597.3092.3075.7286.4803 1.1659.4803h16.4894c.4373 0 .8567-.1728 1.166-.4803.3092-.3076.4829-.7247.4829-1.1597v-9.184h1.6489c.5178-.004 1.023-.1595 1.4525-.4471.4296-.2876.7646-.6945.9632-1.1701.1987-.4756.2522-.9988.154-1.5045-.0982-.5056-.3439-.9713-.7064-1.3391zm-6.8596 1.312v10.8568h-13.2904v-10.8568h-3.5122l10.2234-10.1188 10.2234 10.1188z" fill="#fff"/><g fill="#333f48"><path d="m68.131 52.1926h-2.9351c-.2638 0-.3627-.246-.4782-.4756l-3.4792-6.4124h-.3298c-.6266 0-1.6489 0-2.1436-.0984v6.56c.0022.0617-.0081.1232-.0303.1808s-.0559.1102-.099.1546-.0947.0797-.1518.1038c-.0572.024-.1186.0364-.1806.0364h-2.4404c-.1269 0-.2485-.0501-.3382-.1393s-.14-.2102-.14-.3363v-16.5968c0-.4756.2968-.656.775-.7216 1.5678-.2178 3.1494-.322 4.7324-.3116 3.7266 0 6.9585 1.3284 6.9585 5.4284v.2132c.0607 1.0648-.2281 2.1204-.8229 3.0077-.5948.8874-1.4634 1.5585-2.475 1.9123l3.8091 7.0028c.0202.0641.0202.1328 0 .1968.0046.0345.0023.0696-.0069.1032-.0091.0336-.0249.065-.0464.0925s-.0482.0504-.0787.0675-.0641.028-.0989.032zm-3.6276-12.6116c0-1.804-1.2037-2.5748-3.6277-2.5748-.5112 0-1.6489 0-2.1436.0984v5.412h2.1436c2.4899 0 3.6277-.6724 3.6277-2.788z"/><path d="m80.003 52.0443c-1.513.2625-3.0488.3724-4.584.328-3.133 0-5.5899-.8364-5.5899-4.92v-8.3968c0-4.0836 2.4404-4.92 5.5899-4.92 1.5358-.0396 3.0717.0758 4.584.3444.3628 0 .4782.164.4782.5084v1.5416c0 .1262-.0504.2471-.14.3363-.0897.0892-.2113.1393-.3382.1393h-4.9468c-1.4016 0-1.9127.4756-1.9127 2.0664v2.5912h6.5957c.1268 0 .2484.0501.3381.1393s.1401.2102.1401.3363v1.7384c0 .1262-.0504.2471-.1401.3363s-.2113.1393-.3381.1393h-6.5957v3.0996c0 1.64.5111 2.0664 1.9127 2.0664h4.9468c.1269 0 .2485.0501.3382.1393.0896.0892.14.2102.14.3363v1.5416c0 .3444-.1154.4592-.4782.5084z"/><path d="m95.9322 52.192h-2.5558c-.1115-.0087-.217-.0535-.3004-.1276-.0834-.074-.14-.1732-.1613-.2824l-1.1048-4.5592h-5.5734l-1.1048 4.5592c-.0213.1092-.078.2084-.1614.2824-.0834.0741-.1889.1189-.3003.1276h-2.5723c-.0555.0022-.1109-.0067-.1629-.0263-.0519-.0197-.0993-.0495-.1393-.0878-.0401-.0383-.0719-.0842-.0937-.1351-.0217-.0508-.0329-.1055-.0329-.1608.0022-.0382.0022-.0765 0-.1148l3.9575-15.0716c.2216-.713.6669-1.3366 1.2708-1.7796.6038-.443 1.3344-.682 2.0848-.682.7503 0 1.4809.239 2.0848.682.6038.443 1.0491 1.0666 1.2707 1.7796l4.0564 15.0552c-.0021.0383-.0021.0766 0 .1148.0029.0596-.0074.1191-.0301.1744-.0227.0552-.0572.1049-.1012.1455-.0439.0406-.0963.0712-.1533.0896-.0571.0184-.1175.0242-.1771.0169zm-6.5957-14.8584c0-.2952-.1484-.3772-.3793-.3772-.2308 0-.3133.0984-.3792.3772l-1.7479 7.134h4.2542z"/><path d="m122.958 41.1547c-1.155.0081-2.29.3072-3.298.8692v9.6596c.001.1293-.049.2539-.138.3483-.088.0945-.21.1517-.34.1601h-2.259c-.13-.0084-.251-.0656-.34-.1601-.089-.0944-.138-.219-.138-.3483v-12.5788c0-.1262.05-.2471.14-.3363s.211-.1393.338-.1393h2.094c.127 0 .249.0501.338.1393.09.0892.14.2101.14.3363v.5084c.994-.755 2.213-1.159 3.463-1.148.126.0041.245.0555.334.1438.088.0883.14.2069.144.3318v1.7384c0 .1261-.05.2471-.14.3363-.089.0892-.211.1393-.338.1393z"/><path d="m129.818 52.3723c-.792.0468-1.584-.078-2.322-.3658-.739-.2878-1.405-.7317-1.954-1.3009-.549-.5693-.967-1.2504-1.225-1.9962s-.351-1.5384-.27-2.3231v-1.9352c-.06-.7903.044-1.5844.307-2.3326.263-.7481.678-1.4343 1.22-2.0155.542-.5811 1.198-1.0447 1.929-1.3618.73-.317 1.518-.4807 2.315-.4807s1.585.1637 2.315.4807c.731.3171 1.387.7807 1.929 1.3618.542.5812.957 1.2674 1.22 2.0155.263.7482.367 1.5423.307 2.3326v1.9516c.078.7834-.016 1.5742-.275 2.318-.26.7437-.678 1.4227-1.227 1.9901-.548.5675-1.214 1.0099-1.951 1.2967s-1.528.4113-2.318.3648zm2.589-7.9376c0-1.968-.891-3.28-2.589-3.28s-2.589 1.2792-2.589 3.28v1.9516c0 1.968.891 3.28 2.589 3.28s2.589-1.2792 2.589-3.28z"/><path d="m147.873 52.192h-2.226c-.127 0-.248-.0502-.338-.1393-.09-.0892-.14-.2102-.14-.3363v-.5576c-1.099.8004-2.431 1.2209-3.793 1.1972-1.085.0636-2.152-.3018-2.968-1.0168-.956-1.2498-1.387-2.8193-1.204-4.3788v-7.8228c-.002-.1194.038-.2358.114-.3288.075-.093.181-.1566.299-.1796h2.226c.13.0083.251.0655.34.16.089.0944.138.219.138.3484v7.8392c0 1.1972.099 1.9024.561 2.3124.426.3291.963.4818 1.5.4264.972-.1235 1.905-.4535 2.737-.9676v-9.6104c0-.1294.049-.254.138-.3484.089-.0945.211-.1517.341-.16h2.226c.129.0083.251.0655.34.16.089.0944.138.219.138.3484v12.5624c.005.1208-.037.239-.117.3304-.079.0914-.191.1491-.312.1616z"/><path d="m155.756 52.3723c-.778-.0055-1.555-.0603-2.325-.164v4.2476c0 .1261-.051.2471-.141.3363-.089.0892-.211.1393-.338.1393h-2.143c-.127 0-.249-.0501-.338-.1393-.09-.0892-.14-.2102-.14-.3363v-16.728c0-.3608.099-.5084.659-.656 1.559-.386 3.159-.5897 4.766-.6068 3.891 0 5.771 2.2796 5.771 6.0352v1.8532c.049 3.7392-1.847 6.0188-5.771 6.0188zm2.588-7.8884c0-1.968-.511-3.444-2.588-3.444-.779-.009-1.556.0458-2.325.164v8.3968c.771.0991 1.547.1539 2.325.164 2.077 0 2.588-1.4596 2.588-3.444z"/><path d="m113.625 51.9787c-1.735.3102-3.497.4476-5.26.41-2.605 0-6.48-1.64-6.48-7.38v-3.4604c0-5.6908 3.677-7.3964 6.596-7.3964 1.74.0004 3.477.143 5.194.4264.313 0 .461.1968.461.5084v1.64c0 .3444-.099.5084-.478.5084-1.105-.0984-2.77-.1968-5.095-.1968-1.649 0-3.166 1.1316-3.166 4.5428v3.4604c0 3.4112 1.649 4.51 3.084 4.51h2.39v-6.232c-.006-.1093.027-.2173.094-.3045.066-.0872.162-.1479.269-.1711h2.391c.127 0 .249.0501.338.1393.09.0891.14.2101.14.3363v8.0688c.01.0702.004.1416-.015.2098-.019.0681-.052.1317-.097.1869s-.1.1008-.163.134c-.063.0333-.132.0536-.203.0597z"/><path d="m113.625 51.9787c-1.735.3102-3.497.4476-5.26.41-2.605 0-6.48-1.64-6.48-7.38v-3.4604c0-5.6908 3.677-7.3964 6.596-7.3964 1.74.0004 3.477.143 5.194.4264.313 0 .461.1968.461.5084v1.64c0 .3444-.099.5084-.478.5084-1.105-.0984-2.77-.1968-5.095-.1968-1.649 0-3.166 1.1316-3.166 4.5428v3.4604c0 3.4112 1.649 4.51 3.084 4.51h2.39v-6.232c-.006-.1093.027-.2173.094-.3045.066-.0872.162-.1479.269-.1711h2.391c.127 0 .249.0501.338.1393.09.0891.14.2101.14.3363v8.0688c.01.0702.004.1416-.015.2098-.019.0681-.052.1317-.097.1869s-.1.1008-.163.134c-.063.0333-.132.0536-.203.0597z"/><path d="m162.351 37.8584c-.304.0065-.604-.0774-.861-.2409-.256-.1636-.458-.3995-.579-.6775-.121-.2781-.156-.5857-.101-.8837.056-.298.199-.5728.412-.7894s.486-.3652.785-.4268c.298-.0615.608-.0333.89.0811s.524.3099.694.5613c.17.2515.261.5477.261.8507.004.1987-.031.3963-.105.5812-.073.1849-.183.3533-.323.4954-.14.142-.307.2549-.491.3319-.184.0771-.382.1167-.582.1167zm0-2.788c-.166-.0048-.332.0248-.487.0871-.154.0622-.294.1556-.41.2743s-.206.2601-.265.4152c-.058.1552-.084.3207-.075.4862-.02.1723-.003.347.05.5124.052.1654.139.3179.255.4475.116.1295.259.2332.418.3042s.331.1077.506.1077c.174 0 .347-.0367.506-.1077s.301-.1747.417-.3042c.116-.1296.204-.2821.256-.4475.053-.1654.069-.3401.049-.5124.012-.1646-.011-.3298-.068-.485-.056-.1551-.145-.2968-.26-.4157-.115-.119-.254-.2127-.407-.2751-.154-.0623-.319-.092-.485-.087zm.33 2.0336-.33-.5904h-.313v.5904h-.28v-1.64h.593c.07-.0068.14.0008.207.0223.067.0214.128.0563.181.1025.053.0461.095.1025.125.1657s.046.1318.048.2015c.004.0976-.023.194-.076.2762-.053.0821-.13.146-.221.183l.297.6396zm-.33-1.3284h-.313v.492h.313c.165 0 .28 0 .28-.246.001-.0353-.007-.0702-.021-.1024s-.036-.0609-.062-.0843c-.027-.0233-.058-.0407-.092-.0509s-.07-.0131-.105-.0084z"/></g></svg>