<svg width="172" height="86" viewBox="0 0 172 86" fill="none" xmlns="http://www.w3.org/2000/svg">
<g clip-path="url(#clip0)">
<path d="M0.000263135 42.6527C-0.0213753 47.1539 1.29198 51.5604 3.7743 55.3152C6.25662 59.0701 9.79645 62.0047 13.9463 63.748C18.0962 65.4914 22.6698 65.9653 27.0889 65.1097C31.5081 64.2542 35.5744 62.1077 38.7738 58.9415C41.9732 55.7754 44.162 51.7317 45.0637 47.3218C45.9653 42.9118 45.5393 38.3335 43.8393 34.1657C42.1394 29.9978 39.242 26.4275 35.5133 23.9061C31.7845 21.3847 27.392 20.0254 22.8909 20L22.7628 20C16.7448 19.9999 10.9716 22.383 6.70594 26.6281C2.44028 30.8732 0.029289 36.6348 0.000263135 42.6527Z" fill="#EC1A3B"/>
<path d="M37.6932 39.6334L24.1711 26.1662C24.0008 25.9563 23.7862 25.7868 23.5426 25.6697C23.299 25.5526 23.0324 25.491 22.7622 25.4892C22.4976 25.482 22.2347 25.5322 21.9914 25.6365C21.7482 25.7407 21.5304 25.8965 21.3532 26.093L7.83112 39.6334C7.42889 40.0438 7.15629 40.5634 7.0473 41.1275C6.9383 41.6917 6.99773 42.2755 7.21817 42.8061C7.43861 43.3367 7.81033 43.7907 8.28699 44.1116C8.76366 44.4324 9.3242 44.6059 9.89878 44.6105H11.7286C11.7286 44.6105 11.7286 54.8389 11.7286 54.8572C11.7286 55.3425 11.9213 55.8079 12.2645 56.1511C12.6076 56.4942 13.0731 56.687 13.5583 56.687H31.8562C32.3415 56.687 32.8069 56.4942 33.15 56.1511C33.4932 55.8079 33.686 55.3425 33.686 54.8572V44.6105H35.5158C36.0903 44.6059 36.6509 44.4324 37.1275 44.1116C37.6042 43.7907 37.9759 43.3367 38.1964 42.8061C38.4168 42.2755 38.4762 41.6917 38.3672 41.1275C38.2582 40.5634 37.9857 40.0438 37.5834 39.6334H37.6932ZM30.0813 41.0973V53.2104H15.3332V41.0973H11.4358L22.7805 29.8075L34.1251 41.0973H30.0813Z" fill="white"/>
<path d="M65.6159 52.5701H62.3589C62.0661 52.5701 61.9563 52.2956 61.8283 52.0394L57.9674 44.885H57.6015C56.9061 44.885 55.7717 44.885 55.2227 44.7752V52.0943C55.2252 52.1631 55.2138 52.2317 55.1891 52.296C55.1645 52.3603 55.1271 52.4189 55.0793 52.4685C55.0315 52.518 54.9742 52.5574 54.9108 52.5843C54.8474 52.6112 54.7792 52.625 54.7104 52.6249H52.0023C51.8616 52.6249 51.7266 52.569 51.6271 52.4695C51.5276 52.37 51.4717 52.235 51.4717 52.0943V33.5769C51.4717 33.0463 51.801 32.845 52.3317 32.7718C54.0714 32.5287 55.8266 32.4125 57.5832 32.4241C61.7185 32.4241 65.3049 33.9063 65.3049 38.4807V38.7186C65.3722 39.9066 65.0518 41.0843 64.3917 42.0744C63.7317 43.0644 62.7678 43.8132 61.6453 44.2079L65.8721 52.0211C65.8946 52.0926 65.8946 52.1692 65.8721 52.2407C65.8772 52.2792 65.8746 52.3183 65.8645 52.3558C65.8543 52.3933 65.8368 52.4284 65.813 52.459C65.7891 52.4897 65.7594 52.5153 65.7256 52.5343C65.6918 52.5534 65.6545 52.5655 65.6159 52.5701ZM61.5904 38.499C61.5904 36.4862 60.2546 35.6263 57.5649 35.6263C56.9976 35.6263 55.7351 35.6263 55.1861 35.736V41.7743H57.5649C60.3278 41.7743 61.5904 41.0241 61.5904 38.6637V38.499Z" fill="#333F48"/>
<path d="M78.7903 52.4055C77.1113 52.6983 75.4071 52.8209 73.7035 52.7715C70.2269 52.7715 67.5005 51.8383 67.5005 47.2821V37.9136C67.5005 33.3574 70.2086 32.4243 73.7035 32.4243C75.4077 32.38 77.112 32.5088 78.7903 32.8085C79.1928 32.8085 79.3209 32.9915 79.3209 33.3757V35.0957C79.3209 35.2365 79.265 35.3714 79.1655 35.471C79.066 35.5705 78.931 35.6264 78.7903 35.6264H73.3009C71.7456 35.6264 71.1784 36.157 71.1784 37.9319V40.823H78.4975C78.6382 40.823 78.7732 40.8789 78.8727 40.9784C78.9722 41.0779 79.0281 41.2129 79.0281 41.3536V43.2932C79.0281 43.4339 78.9722 43.5689 78.8727 43.6684C78.7732 43.7679 78.6382 43.8238 78.4975 43.8238H71.1784V47.2821C71.1784 49.1119 71.7456 49.5876 73.3009 49.5876H78.7903C78.931 49.5876 79.066 49.6435 79.1655 49.743C79.265 49.8426 79.3209 49.9775 79.3209 50.1183V51.8383C79.3209 52.2225 79.1928 52.3506 78.7903 52.4055Z" fill="#333F48"/>
<path d="M96.4663 52.5701H93.6301C93.5065 52.5603 93.3894 52.5103 93.2969 52.4277C93.2043 52.3451 93.1414 52.2344 93.1178 52.1126L91.8918 47.0258H85.7072L84.4812 52.1126C84.4576 52.2344 84.3947 52.3451 84.3022 52.4277C84.2096 52.5103 84.0925 52.5603 83.9689 52.5701H81.1144C81.0528 52.5725 80.9914 52.5625 80.9337 52.5406C80.8761 52.5188 80.8235 52.4855 80.7791 52.4427C80.7346 52.4 80.6993 52.3487 80.6752 52.292C80.651 52.2353 80.6386 52.1743 80.6387 52.1126C80.641 52.07 80.641 52.0272 80.6387 51.9845L85.0302 35.1688C85.276 34.3733 85.7702 33.6775 86.4403 33.1833C87.1104 32.689 87.9211 32.4224 88.7538 32.4224C89.5864 32.4224 90.3971 32.689 91.0672 33.1833C91.7373 33.6775 92.2315 34.3733 92.4774 35.1688L96.9786 51.9662C96.9763 52.0089 96.9763 52.0517 96.9786 52.0943C96.9818 52.1608 96.9704 52.2272 96.9452 52.2889C96.9201 52.3505 96.8818 52.4059 96.833 52.4512C96.7842 52.4965 96.7261 52.5306 96.6628 52.5511C96.5994 52.5717 96.5324 52.5781 96.4663 52.5701ZM89.1472 35.9922C89.1472 35.6629 88.9825 35.5714 88.7263 35.5714C88.4701 35.5714 88.3787 35.6812 88.3055 35.9922L86.3659 43.9518H91.0867L89.1472 35.9922Z" fill="#333F48"/>
<path d="M126.457 40.2557C125.174 40.2648 123.915 40.5985 122.797 41.2255V52.0029C122.797 52.1473 122.743 52.2863 122.644 52.3916C122.545 52.497 122.41 52.5609 122.266 52.5702H119.76C119.616 52.5609 119.481 52.497 119.382 52.3916C119.283 52.2863 119.229 52.1473 119.229 52.0029V37.9685C119.229 37.8278 119.285 37.6928 119.384 37.5933C119.484 37.4938 119.619 37.4379 119.76 37.4379H122.083C122.224 37.4379 122.359 37.4938 122.459 37.5933C122.558 37.6928 122.614 37.8278 122.614 37.9685V38.5357C123.717 37.6934 125.069 37.2427 126.457 37.2549C126.596 37.2595 126.728 37.3168 126.827 37.4154C126.925 37.5139 126.983 37.6462 126.987 37.7855V39.7251C126.987 39.8658 126.931 40.0008 126.832 40.1003C126.732 40.1998 126.597 40.2557 126.457 40.2557Z" fill="#333F48"/>
<path d="M134.068 52.7715C133.19 52.8237 132.31 52.6845 131.491 52.3634C130.672 52.0423 129.932 51.547 129.323 50.9118C128.714 50.2767 128.25 49.5168 127.964 48.6847C127.677 47.8526 127.575 46.9682 127.664 46.0928V43.9336C127.597 43.0519 127.713 42.1659 128.005 41.3311C128.297 40.4963 128.757 39.7308 129.359 39.0824C129.96 38.434 130.688 37.9167 131.499 37.5629C132.309 37.2092 133.184 37.0266 134.068 37.0266C134.952 37.0266 135.827 37.2092 136.638 37.5629C137.448 37.9167 138.177 38.434 138.778 39.0824C139.379 39.7308 139.84 40.4963 140.131 41.3311C140.423 42.1659 140.539 43.0519 140.472 43.9336V46.1111C140.559 46.9851 140.454 47.8674 140.167 48.6973C139.879 49.5271 139.415 50.2846 138.806 50.9177C138.197 51.5508 137.458 52.0444 136.64 52.3644C135.823 52.6845 134.945 52.8233 134.068 52.7715ZM136.941 43.9153C136.941 41.7196 135.953 40.2557 134.068 40.2557C132.184 40.2557 131.195 41.683 131.195 43.9153V46.0928C131.195 48.2885 132.184 49.7523 134.068 49.7523C135.953 49.7523 136.941 48.3251 136.941 46.0928V43.9153Z" fill="#333F48"/>
<path d="M154.104 52.5701H151.634C151.493 52.5701 151.358 52.5142 151.259 52.4146C151.159 52.3151 151.104 52.1802 151.104 52.0394V51.4173C149.884 52.3104 148.406 52.7795 146.895 52.753C145.69 52.8241 144.507 52.4163 143.601 51.6186C142.541 50.2242 142.062 48.473 142.266 46.7331V38.005C142.263 37.8718 142.308 37.7419 142.391 37.6382C142.475 37.5345 142.592 37.4635 142.723 37.4377H145.193C145.337 37.4471 145.472 37.5109 145.571 37.6163C145.67 37.7217 145.724 37.8607 145.724 38.005V46.7513C145.724 48.0871 145.834 48.8739 146.346 49.3313C146.819 49.6985 147.416 49.869 148.011 49.8071C149.089 49.6693 150.125 49.3011 151.049 48.7275V38.005C151.048 37.8607 151.103 37.7217 151.202 37.6163C151.3 37.5109 151.435 37.4471 151.579 37.4377H154.049C154.193 37.4471 154.329 37.5109 154.427 37.6163C154.526 37.7217 154.58 37.8607 154.58 38.005V52.0211C154.585 52.156 154.539 52.2878 154.451 52.3898C154.362 52.4917 154.239 52.5562 154.104 52.5701Z" fill="#333F48"/>
<path d="M162.851 52.7715C161.988 52.7653 161.126 52.7042 160.271 52.5885V57.3276C160.271 57.4683 160.215 57.6033 160.115 57.7028C160.016 57.8023 159.881 57.8583 159.74 57.8583H157.361C157.22 57.8583 157.085 57.8023 156.986 57.7028C156.886 57.6033 156.831 57.4683 156.831 57.3276V38.6638C156.831 38.2613 156.94 38.0966 157.562 37.9319C159.293 37.5012 161.068 37.274 162.851 37.2549C167.169 37.2549 169.255 39.7983 169.255 43.9885V46.0561C169.31 50.2281 167.205 52.7715 162.851 52.7715ZM165.723 43.9702C165.723 41.7744 165.156 40.1276 162.851 40.1276C161.987 40.1176 161.124 40.1788 160.271 40.3106V49.6791C161.126 49.7897 161.988 49.8508 162.851 49.8621C165.156 49.8621 165.723 48.2336 165.723 46.0195V43.9702Z" fill="#333F48"/>
<path d="M116.1 52.3324C114.174 52.6786 112.219 52.8318 110.263 52.7898C107.372 52.7898 103.072 50.96 103.072 44.5558V40.695C103.072 34.3456 107.152 32.4426 110.391 32.4426C112.322 32.4431 114.25 32.6022 116.155 32.9184C116.502 32.9184 116.667 33.1379 116.667 33.4856V35.3154C116.667 35.6996 116.557 35.8826 116.136 35.8826C114.91 35.7728 113.062 35.663 110.482 35.663C108.653 35.663 106.969 36.9256 106.969 40.7316V44.5924C106.969 48.3983 108.799 49.6243 110.391 49.6243C111.379 49.6243 112.221 49.6243 113.044 49.6243V42.6711C113.037 42.5492 113.074 42.4288 113.147 42.3315C113.221 42.2342 113.327 42.1664 113.447 42.1405H116.1C116.241 42.1405 116.376 42.1964 116.475 42.2959C116.575 42.3954 116.63 42.5304 116.63 42.6711V51.6737C116.641 51.752 116.635 51.8317 116.613 51.9077C116.592 51.9838 116.555 52.0548 116.506 52.1163C116.456 52.1779 116.395 52.2287 116.325 52.2659C116.255 52.303 116.179 52.3256 116.1 52.3324Z" fill="#333F48"/>
<path d="M116.1 52.3324C114.174 52.6786 112.219 52.8318 110.263 52.7898C107.372 52.7898 103.072 50.96 103.072 44.5558V40.695C103.072 34.3456 107.152 32.4426 110.391 32.4426C112.322 32.4431 114.25 32.6022 116.155 32.9184C116.502 32.9184 116.667 33.1379 116.667 33.4856V35.3154C116.667 35.6996 116.557 35.8826 116.136 35.8826C114.91 35.7728 113.062 35.663 110.482 35.663C108.653 35.663 106.969 36.9256 106.969 40.7316V44.5924C106.969 48.3983 108.799 49.6243 110.391 49.6243C111.379 49.6243 112.221 49.6243 113.044 49.6243V42.6711C113.037 42.5492 113.074 42.4288 113.147 42.3315C113.221 42.2342 113.327 42.1664 113.447 42.1405H116.1C116.241 42.1405 116.376 42.1964 116.475 42.2959C116.575 42.3954 116.63 42.5304 116.63 42.6711V51.6737C116.641 51.752 116.635 51.8317 116.613 51.9077C116.592 51.9838 116.555 52.0548 116.506 52.1163C116.456 52.1779 116.395 52.2287 116.325 52.2659C116.255 52.303 116.179 52.3256 116.1 52.3324Z" fill="#333F48"/>
<path d="M170.17 36.5778C169.832 36.5851 169.499 36.4915 169.215 36.309C168.93 36.1265 168.706 35.8633 168.572 35.5531C168.437 35.2428 168.399 34.8996 168.46 34.5671C168.521 34.2347 168.681 33.928 168.917 33.6864C169.154 33.4447 169.457 33.279 169.788 33.2103C170.119 33.1416 170.463 33.1731 170.776 33.3007C171.089 33.4284 171.357 33.6464 171.546 33.927C171.734 34.2076 171.835 34.538 171.835 34.8761C171.84 35.0978 171.8 35.3183 171.719 35.5246C171.637 35.7308 171.516 35.9187 171.36 36.0772C171.205 36.2358 171.02 36.3617 170.816 36.4477C170.611 36.5336 170.392 36.5779 170.17 36.5778ZM170.17 33.4672C169.985 33.4618 169.801 33.4949 169.63 33.5643C169.459 33.6337 169.303 33.7379 169.174 33.8704C169.045 34.0028 168.945 34.1606 168.88 34.3337C168.816 34.5068 168.787 34.6915 168.798 34.8761C168.775 35.0684 168.794 35.2632 168.852 35.4478C168.911 35.6324 169.007 35.8025 169.136 35.9471C169.265 36.0916 169.423 36.2073 169.599 36.2865C169.776 36.3657 169.967 36.4067 170.161 36.4067C170.354 36.4067 170.546 36.3657 170.722 36.2865C170.899 36.2073 171.057 36.0916 171.186 35.9471C171.314 35.8025 171.411 35.6324 171.469 35.4478C171.528 35.2632 171.546 35.0684 171.524 34.8761C171.537 34.6924 171.511 34.5081 171.448 34.335C171.386 34.1619 171.287 34.0039 171.16 33.8711C171.032 33.7384 170.878 33.6338 170.708 33.5643C170.537 33.4947 170.354 33.4616 170.17 33.4672ZM170.536 35.7361L170.17 35.0774H169.822V35.7361H169.511V33.9063H170.17C170.247 33.8988 170.326 33.9072 170.4 33.9312C170.474 33.9551 170.542 33.9941 170.6 34.0455C170.659 34.097 170.706 34.16 170.739 34.2305C170.772 34.3009 170.79 34.3775 170.792 34.4553C170.796 34.5641 170.767 34.6717 170.708 34.7634C170.649 34.8551 170.564 34.9264 170.463 34.9676L170.792 35.6812L170.536 35.7361ZM170.17 34.254H169.822V34.8029H170.17C170.353 34.8029 170.481 34.8029 170.481 34.5285C170.481 34.4891 170.473 34.4502 170.457 34.4142C170.441 34.3783 170.418 34.3462 170.388 34.3202C170.359 34.2942 170.324 34.2748 170.286 34.2634C170.249 34.2519 170.209 34.2487 170.17 34.254Z" fill="#333F48"/>
</g>
<defs>
<clipPath id="clip0">
<rect width="172" height="45.7446" fill="white" transform="translate(0 20)"/>
</clipPath>
</defs>
</svg>
