<svg width="172" height="30" viewBox="0 0 172 30" fill="none" xmlns="http://www.w3.org/2000/svg">
<g clip-path="url(#clip0)">
<path d="M17.1583 12.9837L16.0245 19.6609C15.7901 20.8627 15.0005 21.1878 14.2996 21.1878H9.04634L11.2596 8.95791C9.04937 7.94512 6.79285 7.28379 4.99599 7.28379C3.28628 7.28379 1.89758 7.74734 0.974904 8.85719C0.324023 9.64622 0 10.6201 0 11.7791C0 15.2558 2.72944 20.0805 7.4005 24.0161C11.565 27.4951 16.1462 29.4431 19.4804 29.4431C21.1436 29.4431 22.4853 28.9326 23.3659 27.9139C24.0592 27.1248 24.3354 26.1028 24.3354 24.9448C24.3354 21.5661 21.5873 16.8295 17.1583 12.9837Z" fill="#FF2896"/>
<path d="M7.72675 0.0477734C6.89305 0.0477734 6.19996 0.608387 6.01522 1.48838L5.27588 5.51937H11.8825L9.04612 21.1877H14.2994C15.0003 21.1877 15.7899 20.8627 16.0243 19.6609L18.4263 5.51937H23.1778C24.0148 5.51937 24.7063 4.96263 24.8913 4.08271L25.633 0.0477734H7.72675Z" fill="#570066"/>
</g>
<path d="M58.5942 10.3543C58.6867 11.1591 58.733 12.1073 58.733 13.1988C58.733 14.2904 58.6867 15.2432 58.5942 16.0572C58.5017 16.8713 58.2704 17.7547 57.9004 18.7075C57.5397 19.651 57.0309 20.4558 56.3741 21.1219C55.7081 21.8156 54.8848 22.3522 53.9042 22.7314C52.9237 23.1015 51.8599 23.2865 50.7128 23.2865H42.873V3.13897H50.7128C51.8599 3.13897 52.9237 3.3286 53.9042 3.70787C54.8848 4.07789 55.7081 4.60979 56.3741 5.30358C57.0309 5.96961 57.5397 6.7744 57.9004 7.71795C58.2704 8.66149 58.5017 9.54029 58.5942 10.3543ZM54.9588 14.7113C54.9865 14.3135 55.0004 13.8094 55.0004 13.1988C55.0004 12.5883 54.9865 12.0888 54.9588 11.7003C54.9403 11.3118 54.8894 10.8354 54.8061 10.2711C54.7321 9.69754 54.5888 9.18877 54.376 8.74475C54.1632 8.29147 53.8903 7.89833 53.5573 7.56531C52.808 6.81603 51.8599 6.44138 50.7128 6.44138H46.5362V19.9841H50.7128C51.8599 19.9841 52.808 19.6094 53.5573 18.8601C53.8903 18.5271 54.1632 18.134 54.376 17.6807C54.5888 17.2274 54.7321 16.7186 54.8061 16.1544C54.8894 15.5808 54.9403 15.0998 54.9588 14.7113Z" fill="#414141"/>
<path d="M74.3847 16.0156C74.3662 16.4596 74.357 16.788 74.357 17.0008H64.4636C64.4359 18.2126 64.7966 19.1793 65.5459 19.9008C66.1935 20.5113 66.9196 20.8166 67.7244 20.8166C68.6957 20.8166 69.4172 20.5807 69.889 20.1089C70.2405 19.7574 70.4764 19.3412 70.5967 18.8601H74.0101C73.9731 19.2764 73.8297 19.7435 73.58 20.2616C73.3394 20.7796 73.0666 21.219 72.7613 21.5798C72.16 22.2828 71.4246 22.8054 70.5551 23.1477C69.6948 23.49 68.7697 23.6611 67.7799 23.6611C65.9576 23.6611 64.4081 23.0552 63.1316 21.8434C61.6145 20.3818 60.8559 18.4115 60.8559 15.9324C60.8559 13.4347 61.5636 11.4644 62.9789 10.0213C64.2092 8.76325 65.7818 8.13422 67.6967 8.13422C68.8252 8.13422 69.8566 8.36548 70.7909 8.828C71.7345 9.29052 72.5023 9.97043 73.0943 10.8677C74.0194 12.246 74.4495 13.962 74.3847 16.0156ZM70.8326 14.4199C70.8048 13.3376 70.4996 12.4773 69.9168 11.839C69.371 11.2655 68.6217 10.9787 67.6689 10.9787C66.5959 10.9787 65.7726 11.358 65.199 12.1165C64.718 12.7271 64.4636 13.4949 64.4359 14.4199H70.8326Z" fill="#414141"/>
<path d="M89.6619 8.50886L84.3197 23.2865H80.5456L75.0647 8.50886H78.8111L82.502 18.9156L85.9987 8.50886H89.6619Z" fill="#414141"/>
<path d="M103.968 16.0156C103.949 16.4596 103.94 16.788 103.94 17.0008H94.0466C94.0188 18.2126 94.3796 19.1793 95.1289 19.9008C95.7764 20.5113 96.5026 20.8166 97.3074 20.8166C98.2787 20.8166 99.0002 20.5807 99.472 20.1089C99.8235 19.7574 100.059 19.3412 100.18 18.8601H103.593C103.556 19.2764 103.413 19.7435 103.163 20.2616C102.922 20.7796 102.65 21.219 102.344 21.5798C101.743 22.2828 101.008 22.8054 100.138 23.1477C99.2777 23.49 98.3527 23.6611 97.3629 23.6611C95.5406 23.6611 93.9911 23.0552 92.7145 21.8434C91.1975 20.3818 90.4389 18.4115 90.4389 15.9324C90.4389 13.4347 91.1466 11.4644 92.5619 10.0213C93.7922 8.76325 95.3648 8.13422 97.2796 8.13422C98.4082 8.13422 99.4396 8.36548 100.374 8.828C101.317 9.29052 102.085 9.97043 102.677 10.8677C103.602 12.246 104.032 13.962 103.968 16.0156ZM100.416 14.4199C100.388 13.3376 100.083 12.4773 99.4997 11.839C98.954 11.2655 98.2047 10.9787 97.2519 10.9787C96.1788 10.9787 95.3555 11.358 94.782 12.1165C94.301 12.7271 94.0466 13.4949 94.0188 14.4199H100.416Z" fill="#414141"/>
<path d="M112.515 23.2587C111.858 23.3882 111.336 23.453 110.947 23.453C109.68 23.453 108.69 23.1338 107.978 22.4956C107.266 21.848 106.909 20.8444 106.909 19.4845V2.73657H110.489V18.8879C110.489 19.3597 110.586 19.7158 110.781 19.9563C110.975 20.1876 111.354 20.3032 111.918 20.3032C112.039 20.3032 112.154 20.2986 112.265 20.2893C112.376 20.2801 112.46 20.2754 112.515 20.2754V23.2587Z" fill="#414141"/>
<path d="M127.515 12.8242C127.802 13.6752 127.945 14.702 127.945 15.9046C127.945 17.1072 127.802 18.134 127.515 18.985C127.228 19.8361 126.793 20.627 126.21 21.3578C125.665 22.0238 124.934 22.5742 124.018 23.009C123.102 23.4437 122.108 23.6611 121.035 23.6611C119.962 23.6611 118.967 23.4437 118.052 23.009C117.145 22.5742 116.419 22.0238 115.873 21.3578C115.29 20.627 114.856 19.8361 114.569 18.985C114.282 18.134 114.139 17.1072 114.139 15.9046C114.139 14.702 114.282 13.6752 114.569 12.8242C114.856 11.9639 115.29 11.1684 115.873 10.4376C116.419 9.77155 117.145 9.22115 118.052 8.78637C118.967 8.3516 119.962 8.13422 121.035 8.13422C122.108 8.13422 123.102 8.3516 124.018 8.78637C124.934 9.22115 125.665 9.77155 126.21 10.4376C126.793 11.1684 127.228 11.9639 127.515 12.8242ZM124.337 15.9046C124.337 14.2025 123.986 12.9583 123.283 12.172C122.7 11.5523 121.951 11.2424 121.035 11.2424C120.128 11.2424 119.384 11.5523 118.801 12.172C118.098 12.9583 117.746 14.2025 117.746 15.9046C117.746 17.5974 118.098 18.837 118.801 19.6233C119.384 20.2431 120.128 20.553 121.035 20.553C121.951 20.553 122.7 20.2431 123.283 19.6233C123.986 18.837 124.337 17.5974 124.337 15.9046Z" fill="#414141"/>
<path d="M144.735 15.863C144.735 18.8231 143.851 21.0247 142.084 22.4678C141.094 23.2633 139.892 23.6611 138.477 23.6611C137.626 23.6611 136.858 23.527 136.173 23.2587C135.489 22.9812 134.971 22.6297 134.619 22.2042V28.9478H131.067V8.50886H134.133L134.355 10.1323C134.772 9.48478 135.35 8.99451 136.09 8.66149C136.839 8.32848 137.644 8.16197 138.504 8.16197C139.846 8.16197 141.039 8.58286 142.084 9.42466C143.851 10.8677 144.735 13.0138 144.735 15.863ZM141.113 15.9324C141.113 14.332 140.803 13.1248 140.183 12.3108C139.582 11.543 138.786 11.1591 137.797 11.1591C137.131 11.1591 136.566 11.3025 136.104 11.5893C135.641 11.876 135.294 12.2692 135.063 12.7687C134.832 13.259 134.67 13.7585 134.577 14.2673C134.485 14.776 134.439 15.3311 134.439 15.9324C134.439 16.4041 134.462 16.8482 134.508 17.2644C134.564 17.6714 134.665 18.0923 134.813 18.5271C134.971 18.9526 135.17 19.3227 135.41 19.6372C135.651 19.9424 135.974 20.1922 136.381 20.3865C136.788 20.5807 137.26 20.6778 137.797 20.6778C138.777 20.6778 139.573 20.2893 140.183 19.5123C140.803 18.6982 141.113 17.5049 141.113 15.9324Z" fill="#414141"/>
<path d="M160.359 16.0156C160.34 16.4596 160.331 16.788 160.331 17.0008H150.437C150.41 18.2126 150.77 19.1793 151.52 19.9008C152.167 20.5113 152.893 20.8166 153.698 20.8166C154.67 20.8166 155.391 20.5807 155.863 20.1089C156.214 19.7574 156.45 19.3412 156.57 18.8601H159.984C159.947 19.2764 159.804 19.7435 159.554 20.2616C159.313 20.7796 159.04 21.219 158.735 21.5798C158.134 22.2828 157.398 22.8054 156.529 23.1477C155.669 23.49 154.744 23.6611 153.754 23.6611C151.931 23.6611 150.382 23.0552 149.105 21.8434C147.588 20.3818 146.83 18.4115 146.83 15.9324C146.83 13.4347 147.537 11.4644 148.953 10.0213C150.183 8.76325 151.756 8.13422 153.67 8.13422C154.799 8.13422 155.83 8.36548 156.765 8.828C157.708 9.29052 158.476 9.97043 159.068 10.8677C159.993 12.246 160.423 13.962 160.359 16.0156ZM156.806 14.4199C156.779 13.3376 156.473 12.4773 155.891 11.839C155.345 11.2655 154.595 10.9787 153.643 10.9787C152.57 10.9787 151.746 11.358 151.173 12.1165C150.692 12.7271 150.437 13.4949 150.41 14.4199H156.806Z" fill="#414141"/>
<path d="M172 11.8113C171.51 11.7095 171.103 11.6586 170.779 11.6586C169.567 11.6586 168.628 12.0472 167.962 12.8242C167.306 13.592 166.977 14.5957 166.977 15.8352V23.2865H163.397V8.50886H166.408L166.714 10.729C167.037 9.92418 167.579 9.3229 168.337 8.92513C169.105 8.51811 169.956 8.3146 170.89 8.3146C171.26 8.3146 171.63 8.34235 172 8.39785V11.8113Z" fill="#414141"/>
<defs>
<clipPath id="clip0">
<rect width="25.6546" height="29.6015" fill="white"/>
</clipPath>
</defs>
</svg>
