<svg fill="none" height="86" viewBox="0 0 172 86" width="172" xmlns="http://www.w3.org/2000/svg" xmlns:xlink="http://www.w3.org/1999/xlink"><clipPath id="a"><path d="m0 0h172v86h-172z"/></clipPath><clipPath id="b"><path d="m0 28h25.6546v29.6015h-25.6546z"/></clipPath><g clip-path="url(#a)"><g clip-path="url(#b)"><path d="m17.1583 40.9837-1.1338 6.6772c-.2344 1.2018-1.024 1.5269-1.7249 1.5269h-5.25326l2.21326-12.2299c-2.21023-1.0128-4.46675-1.6741-6.26361-1.6741-1.70971 0-3.09841.4635-4.021086 1.5734-.650881.789-.974904 1.7629-.974904 2.9219 0 3.4767 2.72944 8.3014 7.4005 12.237 4.1645 3.479 8.7457 5.427 12.0799 5.427 1.6632 0 3.0049-.5105 3.8855-1.5292.6933-.7891.9695-1.8111.9695-2.9691 0-3.3787-2.7481-8.1153-7.1771-11.9611z" fill="#ff2896"/><path d="m7.72675 28.0478c-.8337 0-1.52679.5606-1.71153 1.4406l-.73934 4.031h6.60662l-2.83638 15.6683h5.25328c.7009 0 1.4905-.325 1.7249-1.5268l2.402-14.1415h4.7515c.837 0 1.5285-.5568 1.7135-1.4367l.7417-4.0349z" fill="#570066"/></g><g fill="#414141"><path d="m58.5942 38.3543c.0925.8048.1388 1.753.1388 2.8445 0 1.0916-.0463 2.0444-.1388 2.8584-.0925.8141-.3238 1.6975-.6938 2.6503-.3607.9435-.8695 1.7483-1.5263 2.4144-.666.6937-1.4893 1.2303-2.4699 1.6095-.9805.3701-2.0443.5551-3.1914.5551h-7.8398v-20.1475h7.8398c1.1471 0 2.2109.1896 3.1914.5689.9806.37 1.8039.9019 2.4699 1.5957.6568.666 1.1656 1.4708 1.5263 2.4143.37.9436.6013 1.8224.6938 2.6364zm-3.6354 4.357c.0277-.3978.0416-.9019.0416-1.5125 0-.6105-.0139-1.11-.0416-1.4985-.0185-.3885-.0694-.8649-.1527-1.4292-.074-.5736-.2173-1.0823-.4301-1.5264-.2128-.4532-.4857-.8464-.8187-1.1794-.7493-.7493-1.6974-1.1239-2.8445-1.1239h-4.1766v13.5427h4.1766c1.1471 0 2.0952-.3747 2.8445-1.124.333-.333.6059-.7261.8187-1.1794s.3561-.9621.4301-1.5263c.0833-.5736.1342-1.0546.1527-1.4431z"/><path d="m74.3847 44.0156c-.0185.444-.0277.7724-.0277.9852h-9.8934c-.0277 1.2118.333 2.1785 1.0823 2.9.6476.6105 1.3737.9158 2.1785.9158.9713 0 1.6928-.2359 2.1646-.7077.3515-.3515.5874-.7677.7077-1.2488h3.4134c-.037.4163-.1804.8834-.4301 1.4015-.2406.518-.5134.9574-.8187 1.3182-.6013.703-1.3367 1.2256-2.2062 1.5679-.8603.3423-1.7854.5134-2.7752.5134-1.8223 0-3.3718-.6059-4.6483-1.8177-1.5171-1.4616-2.2757-3.4319-2.2757-5.911 0-2.4977.7077-4.468 2.123-5.9111 1.2303-1.2581 2.8029-1.8871 4.7178-1.8871 1.1285 0 2.1599.2313 3.0942.6938.9436.4625 1.7114 1.1424 2.3034 2.0397.9251 1.3783 1.3552 3.0943 1.2904 5.1479zm-3.5521-1.5957c-.0278-1.0823-.333-1.9426-.9158-2.5809-.5458-.5735-1.2951-.8603-2.2479-.8603-1.073 0-1.8963.3793-2.4699 1.1378-.481.6106-.7354 1.3784-.7631 2.3034z"/><path d="m89.6619 36.5089-5.3422 14.7776h-3.7741l-5.4809-14.7776h3.7464l3.6909 10.4067 3.4967-10.4067z"/><path d="m103.968 44.0156c-.019.444-.028.7724-.028.9852h-9.8934c-.0278 1.2118.333 2.1785 1.0823 2.9.6475.6105 1.3737.9158 2.1785.9158.9713 0 1.6928-.2359 2.1646-.7077.3515-.3515.587-.7677.708-1.2488h3.413c-.037.4163-.18.8834-.43 1.4015-.241.518-.513.9574-.819 1.3182-.601.703-1.336 1.2256-2.206 1.5679-.8603.3423-1.7853.5134-2.7751.5134-1.8223 0-3.3718-.6059-4.6484-1.8177-1.517-1.4616-2.2756-3.4319-2.2756-5.911 0-2.4977.7077-4.468 2.123-5.9111 1.2303-1.2581 2.8029-1.8871 4.7177-1.8871 1.1286 0 2.16.2313 3.0944.6938.943.4625 1.711 1.1424 2.303 2.0397.925 1.3783 1.355 3.0943 1.291 5.1479zm-3.552-1.5957c-.028-1.0823-.333-1.9426-.9163-2.5809-.5457-.5735-1.295-.8603-2.2478-.8603-1.0731 0-1.8964.3793-2.4699 1.1378-.481.6106-.7354 1.3784-.7632 2.3034z"/><path d="m112.515 51.2587c-.657.1295-1.179.1943-1.568.1943-1.267 0-2.257-.3192-2.969-.9574-.712-.6476-1.069-1.6512-1.069-3.0111v-16.7479h3.58v16.1513c0 .4718.097.8279.292 1.0684.194.2313.573.3469 1.137.3469.121 0 .236-.0046.347-.0139.111-.0092.195-.0139.25-.0139z"/><path d="m127.515 40.8242c.287.851.43 1.8778.43 3.0804s-.143 2.2294-.43 3.0804c-.287.8511-.722 1.642-1.305 2.3728-.545.666-1.276 1.2164-2.192 1.6512-.916.4347-1.91.6521-2.983.6521s-2.068-.2174-2.983-.6521c-.907-.4348-1.633-.9852-2.179-1.6512-.583-.7308-1.017-1.5217-1.304-2.3728-.287-.851-.43-1.8778-.43-3.0804s.143-2.2294.43-3.0804c.287-.8603.721-1.6558 1.304-2.3866.546-.6661 1.272-1.2165 2.179-1.6512.915-.4348 1.91-.6522 2.983-.6522s2.067.2174 2.983.6522c.916.4347 1.647.9851 2.192 1.6512.583.7308 1.018 1.5263 1.305 2.3866zm-3.178 3.0804c0-1.7021-.351-2.9463-1.054-3.7326-.583-.6197-1.332-.9296-2.248-.9296-.907 0-1.651.3099-2.234.9296-.703.7863-1.055 2.0305-1.055 3.7326 0 1.6928.352 2.9324 1.055 3.7187.583.6198 1.327.9297 2.234.9297.916 0 1.665-.3099 2.248-.9297.703-.7863 1.054-2.0259 1.054-3.7187z"/><path d="m144.735 43.863c0 2.9601-.884 5.1617-2.651 6.6048-.99.7955-2.192 1.1933-3.607 1.1933-.851 0-1.619-.1341-2.304-.4024-.684-.2775-1.202-.629-1.554-1.0545v6.7436h-3.552v-20.4389h3.066l.222 1.6234c.417-.6475.995-1.1378 1.735-1.4708.749-.333 1.554-.4995 2.414-.4995 1.342 0 2.535.4209 3.58 1.2627 1.767 1.443 2.651 3.5891 2.651 6.4383zm-3.622.0694c0-1.6004-.31-2.8076-.93-3.6216-.601-.7678-1.397-1.1517-2.386-1.1517-.666 0-1.231.1434-1.693.4302-.463.2867-.81.6799-1.041 1.1794-.231.4903-.393.9898-.486 1.4986-.092.5087-.138 1.0638-.138 1.6651 0 .4717.023.9158.069 1.332.056.407.157.8279.305 1.2627.158.4255.357.7956.597 1.1101.241.3052.564.555.971.7493.407.1942.879.2913 1.416.2913.98 0 1.776-.3885 2.386-1.1655.62-.8141.93-2.0074.93-3.5799z"/><path d="m160.359 44.0156c-.019.444-.028.7724-.028.9852h-9.894c-.027 1.2118.333 2.1785 1.083 2.9.647.6105 1.373.9158 2.178.9158.972 0 1.693-.2359 2.165-.7077.351-.3515.587-.7677.707-1.2488h3.414c-.037.4163-.18.8834-.43 1.4015-.241.518-.514.9574-.819 1.3182-.601.703-1.337 1.2256-2.206 1.5679-.86.3423-1.785.5134-2.775.5134-1.823 0-3.372-.6059-4.649-1.8177-1.517-1.4616-2.275-3.4319-2.275-5.911 0-2.4977.707-4.468 2.123-5.9111 1.23-1.2581 2.803-1.8871 4.717-1.8871 1.129 0 2.16.2313 3.095.6938.943.4625 1.711 1.1424 2.303 2.0397.925 1.3783 1.355 3.0943 1.291 5.1479zm-3.553-1.5957c-.027-1.0823-.333-1.9426-.915-2.5809-.546-.5735-1.296-.8603-2.248-.8603-1.073 0-1.897.3793-2.47 1.1378-.481.6106-.736 1.3784-.763 2.3034z"/><path d="m172 39.8113c-.49-.1018-.897-.1527-1.221-.1527-1.212 0-2.151.3886-2.817 1.1656-.656.7678-.985 1.7715-.985 3.011v7.4513h-3.58v-14.7776h3.011l.306 2.2201c.323-.8048.865-1.4061 1.623-1.8039.768-.407 1.619-.6105 2.553-.6105.37 0 .74.0278 1.11.0833z"/></g></g></svg>