<svg width="172" height="86" viewBox="0 0 172 86" fill="none" xmlns="http://www.w3.org/2000/svg">
<path d="M95.1163 39.1941L92.7298 53.1796C92.2363 55.6966 90.5743 56.3775 89.0991 56.3775H78.0415L82.7002 30.7621C78.0479 28.6409 73.2982 27.2557 69.516 27.2557C65.9172 27.2557 62.9942 28.2266 61.0521 30.5512C59.682 32.2038 59 34.2435 59 36.6711C59 43.9531 64.7452 54.0583 74.5772 62.3013C83.343 69.5882 92.9859 73.6682 100.004 73.6682C103.505 73.6682 106.329 72.599 108.183 70.4654C109.642 68.8126 110.223 66.6719 110.223 64.2465C110.223 57.17 104.439 47.2491 95.1163 39.1941Z" fill="#26B9F1"/>
<path d="M75.2648 12.1C73.5099 12.1 72.051 13.2742 71.6622 15.1173L70.106 23.5602H84.012L78.0419 56.3774H89.0994C90.5747 56.3774 92.2367 55.6966 92.7302 53.1795L97.786 23.5602H107.787C109.549 23.5602 111.005 22.3941 111.394 20.5511L112.955 12.1H75.2648Z" fill="#292C84"/>
</svg>
