<svg width="172" height="86" viewBox="0 0 172 86" fill="none" xmlns="http://www.w3.org/2000/svg">
<path d="M33.456 37.95C33.456 40.5 31.37 42.6 28.837 42.6C26.304 42.6 24.218 40.5 24.218 37.95C24.218 35.4 26.304 33.3 28.837 33.3C31.37 33.3 33.456 35.4 33.456 37.95ZM28.837 44.4C26.304 44.4 24.218 46.5 24.218 49.05C24.218 51.6 26.304 53.7 28.837 53.7C31.37 53.7 33.456 51.6 33.456 49.05C33.456 46.5 31.37 44.4 28.837 44.4ZM56.7 43.5C56.7 55.95 46.717 66 34.35 66C21.983 66 12 55.95 12 43.5C12 31.05 21.983 21 34.35 21C46.717 21 56.7 31.05 56.7 43.5ZM50.74 43.5C50.74 34.35 43.439 27 34.35 27C25.261 27 17.96 34.35 17.96 43.5C17.96 52.65 25.261 60 34.35 60C43.439 60 50.74 52.65 50.74 43.5ZM39.863 44.4C37.33 44.4 35.244 46.5 35.244 49.05C35.244 51.6 37.33 53.7 39.863 53.7C42.396 53.7 44.482 51.6 44.482 49.05C44.482 46.5 42.396 44.4 39.863 44.4ZM39.863 33.3C37.33 33.3 35.244 35.4 35.244 37.95C35.244 40.5 37.33 42.6 39.863 42.6C42.396 42.6 44.482 40.5 44.482 37.95C44.482 35.4 42.396 33.3 39.863 33.3ZM116.747 29.85C116.896 29.85 117.045 30 117.194 30.15V34.95C117.194 35.25 116.896 35.4 116.747 35.4H108.85C108.552 35.4 108.403 35.1 108.403 34.95V30.3C108.403 30 108.701 29.85 108.85 29.85H116.747ZM116.598 36.6H101.4C101.251 36.6 100.953 36.75 100.953 37.05L99.016 44.55L98.867 45L96.483 37.05C96.483 36.9 96.185 36.6 96.036 36.6H90.076C89.927 36.6 89.629 36.75 89.629 37.05L87.394 44.55L87.245 45L87.096 44.55L86.202 40.8L85.308 37.05C85.308 36.9 85.01 36.6 84.861 36.6H72.941V30.15C72.941 30 72.643 29.7 72.345 29.85L64.895 32.25C64.597 32.25 64.448 32.4 64.448 32.7V36.75H62.511C62.362 36.75 62.064 36.9 62.064 37.2V42.9C62.064 43.05 62.213 43.35 62.511 43.35H64.448V50.4C64.448 55.35 67.13 57.6 72.047 57.6C74.133 57.6 76.07 57.15 77.411 56.4V50.4C77.411 50.1 77.113 49.95 76.964 50.1C76.219 50.4 75.474 50.55 74.878 50.55C73.537 50.55 72.792 49.95 72.792 48.45V43.35H77.113C77.262 43.35 77.56 43.2 77.56 42.9V38.1L83.222 57C83.222 57.15 83.52 57.45 83.669 57.45H89.927C90.076 57.45 90.374 57.3 90.374 57L93.056 48.6L94.397 52.95L95.589 57C95.589 57.15 95.887 57.45 96.036 57.45H102.294C102.443 57.45 102.741 57.3 102.741 57L108.403 38.1V57C108.403 57.15 108.552 57.45 108.85 57.45H116.449C116.598 57.45 116.896 57.3 116.896 57V37.05C116.896 36.9 116.747 36.6 116.598 36.6ZM126.581 29.85H118.982C118.833 29.85 118.535 30 118.535 30.3V56.85C118.535 57 118.684 57.3 118.982 57.3H126.581C126.73 57.3 127.028 57.15 127.028 56.85V30.15C127.028 30 126.879 29.85 126.581 29.85ZM136.713 29.85H128.816C128.667 29.85 128.369 30 128.369 30.3V34.95C128.369 35.1 128.518 35.4 128.816 35.4H136.713C136.862 35.4 137.16 35.25 137.16 34.95V30.15C137.16 30 137.011 29.85 136.713 29.85ZM136.564 36.6H128.965C128.816 36.6 128.518 36.75 128.518 37.05V56.7C128.518 56.85 128.667 57.15 128.965 57.15H136.564C136.713 57.15 137.011 57 137.011 56.7V37.05C137.011 36.9 136.862 36.6 136.564 36.6ZM160.553 46.8C160.553 52.5 155.785 57.45 149.08 57.45C142.524 57.45 137.756 52.5 137.756 46.8C137.756 41.1 142.524 36.15 149.229 36.15C155.785 36.15 160.553 41.1 160.553 46.8ZM152.507 46.95C152.507 44.85 151.017 43.2 149.229 43.35C147.292 43.35 145.951 45 145.951 46.95C145.951 48.9 147.441 50.55 149.229 50.55C151.166 50.55 152.507 48.9 152.507 46.95Z" fill="#F22F46"/>
</svg>
