<svg fill="none" height="86" viewBox="0 0 172 86" width="172" xmlns="http://www.w3.org/2000/svg"><path d="m43.28 38.56c0 2.04-1.68 3.72-3.72 3.72s-3.72-1.68-3.72-3.72 1.68-3.72 3.72-3.72 3.72 1.68 3.72 3.72zm-3.72 5.16c-2.04 0-3.72 1.68-3.72 3.72s1.68 3.72 3.72 3.72 3.72-1.68 3.72-3.72-1.68-3.72-3.72-3.72zm22.44-.72c0 9.96-8.04 18-18 18s-18-8.04-18-18 8.04-18 18-18 18 8.04 18 18zm-4.8 0c0-7.32-5.88-13.2-13.2-13.2s-13.2 5.88-13.2 13.2 5.88 13.2 13.2 13.2 13.2-5.88 13.2-13.2zm-8.76.72c-2.04 0-3.72 1.68-3.72 3.72s1.68 3.72 3.72 3.72 3.72-1.68 3.72-3.72-1.68-3.72-3.72-3.72zm0-8.88c-2.04 0-3.72 1.68-3.72 3.72s1.68 3.72 3.72 3.72 3.72-1.68 3.72-3.72-1.68-3.72-3.72-3.72zm61.92-2.76c.12 0 .24.12.36.24v3.84c0 .24-.24.36-.36.36h-6.36c-.24 0-.36-.24-.36-.36v-3.72c0-.24.24-.36.36-.36zm-.12 5.4h-12.24c-.12 0-.36.12-.36.36l-1.56 6-.12.36-1.92-6.36c0-.12-.24-.36-.36-.36h-4.8c-.12 0-.36.12-.36.36l-1.8 6-.12.36-.12-.36-.72-3-.72-3c0-.12-.24-.36-.36-.36h-9.6v-5.16c0-.12-.24-.36-.48-.24l-6 1.92c-.24 0-.36.12-.36.36v3.24h-1.56c-.12 0-.36.12-.36.36v4.56c0 .12.12.36.36.36h1.56v5.64c0 3.96 2.16 5.76 6.12 5.76 1.68 0 3.24-.36 4.32-.96v-4.8c0-.24-.24-.36-.36-.24-.6.24-1.2.36-1.68.36-1.08 0-1.68-.48-1.68-1.68v-4.08h3.48c.12 0 .36-.12.36-.36v-3.84l4.56 15.12c0 .12.24.36.36.36h5.04c.12 0 .36-.12.36-.36l2.16-6.72 1.08 3.48.96 3.24c0 .12.24.36.36.36h5.04c.12 0 .36-.12.36-.36l4.56-15.12v15.12c0 .12.12.36.36.36h6.12c.12 0 .36-.12.36-.36v-15.96c0-.12-.12-.36-.24-.36zm8.04-5.4h-6.12c-.12 0-.36.12-.36.36v21.24c0 .12.12.36.36.36h6.12c.12 0 .36-.12.36-.36v-21.36c0-.12-.12-.24-.36-.24zm8.16 0h-6.36c-.12 0-.36.12-.36.36v3.72c0 .12.12.36.36.36h6.36c.12 0 .36-.12.36-.36v-3.84c0-.12-.12-.24-.36-.24zm-.12 5.4h-6.12c-.12 0-.36.12-.36.36v15.72c0 .12.12.36.36.36h6.12c.12 0 .36-.12.36-.36v-15.72c0-.12-.12-.36-.36-.36zm19.32 8.16c0 4.56-3.84 8.52-9.24 8.52-5.28 0-9.12-3.96-9.12-8.52s3.84-8.52 9.24-8.52c5.28 0 9.12 3.96 9.12 8.52zm-6.48.12c0-1.68-1.2-3-2.64-2.88-1.56 0-2.64 1.32-2.64 2.88s1.2 2.88 2.64 2.88c1.56 0 2.64-1.32 2.64-2.88z" fill="#f22f46"/></svg>