<svg width="172" height="86" viewBox="0 0 172 86" fill="none" xmlns="http://www.w3.org/2000/svg">
<path d="M128.427 0H43V85.4267H128.427V0Z" fill="#094183"/>
<path d="M52.5198 56.7847C52.5117 56.8089 52.3765 57.3793 52.3765 57.4528C52.3765 57.5278 52.4184 57.5543 52.4544 57.5543C52.5183 57.5543 52.5448 57.5021 52.5595 57.4624C52.5588 57.4639 52.6595 57.2808 52.6595 57.2808C52.7462 57.1515 52.8778 57.1125 53.249 57.1059C53.249 57.1059 53.9259 57.0963 54.1097 57.0941C54.1097 57.186 54.1097 59.6484 54.1097 59.6484C54.1097 60.2239 54.1097 60.7216 54.0803 60.9759C54.0546 61.1589 54.0259 61.2559 53.9384 61.2743C53.937 61.2751 53.7635 61.2978 53.7635 61.2978C53.6981 61.2978 53.6687 61.3397 53.6687 61.3816C53.6687 61.4772 53.7775 61.4772 53.8135 61.4772L54.3162 61.4625L54.4162 61.4588L54.4875 61.461L55.1718 61.4772C55.3034 61.4772 55.3174 61.4103 55.3174 61.3816C55.3174 61.3412 55.2872 61.2978 55.2218 61.2978L54.9521 61.2743C54.8058 61.2537 54.7705 61.1589 54.7529 60.9774C54.7213 60.7216 54.7213 60.2247 54.7213 59.6491C54.7213 59.6491 54.7213 57.1867 54.7213 57.0949C54.805 57.0963 55.4482 57.1066 55.4482 57.1066C56.0399 57.1191 56.1391 57.2639 56.1583 57.4051L56.1641 57.4705C56.1686 57.5293 56.1766 57.6175 56.2604 57.6175C56.2751 57.6175 56.3508 57.6116 56.3508 57.4911L56.3567 57.2948L56.3692 56.8155C56.3692 56.7788 56.3692 56.6935 56.2913 56.6935L56.2185 56.7053C56.1318 56.7229 55.9694 56.756 55.6834 56.756H53.3776L52.8976 56.7259C52.8961 56.7259 52.6991 56.6744 52.6991 56.6744L52.622 56.6516C52.5646 56.6502 52.5418 56.7185 52.5198 56.7847Z" fill="white"/>
<path d="M60.7962 56.7503L60.697 56.754L60.6176 56.751L60.0017 56.7356C59.9656 56.7356 59.8561 56.7356 59.8561 56.8319C59.8561 56.8804 59.8973 56.9157 59.9524 56.9157L60.1516 56.9319C60.3185 56.9686 60.3677 57.0348 60.3795 57.2406L60.3912 58.5651V58.6945L57.7951 58.6835L57.8046 58.5651L57.8171 57.2406C57.8289 57.0318 57.8752 56.9568 58.0075 56.9326L58.1523 56.9157C58.2082 56.9157 58.2486 56.8804 58.2486 56.8319C58.2486 56.7679 58.2001 56.7356 58.103 56.7356L57.6017 56.7503L57.5003 56.754L57.4195 56.751L56.805 56.7356C56.7087 56.7356 56.6602 56.7679 56.6602 56.8319C56.6602 56.8797 56.7013 56.9157 56.7557 56.9157L56.9534 56.9319C57.1218 56.9686 57.171 57.0348 57.1813 57.2406C57.1813 57.2413 57.1945 58.5659 57.1945 58.5659V59.6486C57.1945 60.2241 57.1945 60.721 57.1644 60.9761C57.1387 61.1591 57.11 61.2561 57.0233 61.2745C57.0218 61.2752 56.8483 61.298 56.8483 61.298C56.7822 61.298 56.752 61.3399 56.752 61.3818C56.752 61.4774 56.8616 61.4774 56.8976 61.4774L57.3981 61.4627L57.4988 61.459L57.5709 61.4619L58.2552 61.4774C58.3853 61.4774 58.3993 61.4105 58.3993 61.3818C58.3993 61.3399 58.3699 61.298 58.3044 61.298L58.0332 61.2745C57.8884 61.2539 57.8524 61.1591 57.834 60.9775C57.8024 60.7217 57.8024 60.2248 57.8024 59.6493V59.0032L60.4001 59.0135L60.389 59.6493C60.389 60.2248 60.389 60.7217 60.3582 60.9768C60.3346 61.1561 60.3052 61.2568 60.2178 61.2752C60.2163 61.276 60.0436 61.2987 60.0436 61.2987C59.9767 61.2987 59.9465 61.3421 59.9465 61.3825C59.9465 61.4781 60.0561 61.4781 60.0921 61.4781L60.5956 61.4634L60.6948 61.4597L60.7646 61.4619L61.4504 61.4781C61.5827 61.4781 61.5967 61.4112 61.5967 61.3825C61.5967 61.3421 61.5666 61.2987 61.5004 61.2987L61.2307 61.2752C61.0844 61.2546 61.0484 61.1598 61.03 60.9783C61.0006 60.7232 61.0006 60.2256 61.0006 59.65V58.5673L61.0123 57.2428C61.0256 57.0318 61.0697 56.9598 61.202 56.9348L61.3461 56.9179C61.4027 56.9179 61.4431 56.8826 61.4431 56.8341C61.4431 56.7378 61.3336 56.7378 61.2975 56.7378L60.7962 56.7503Z" fill="white"/>
<path d="M64.7234 56.7069L64.694 56.7186L64.4389 56.7488C64.4397 56.7488 63.0335 56.7539 63.0335 56.7539L62.9505 56.751L62.3389 56.7355C62.3029 56.7355 62.1934 56.7355 62.1934 56.8318C62.1934 56.8803 62.2331 56.9156 62.2889 56.9156L62.4866 56.9318C62.655 56.9685 62.7035 57.0347 62.7152 57.2405L62.7277 58.5651V59.6478C62.7277 60.2233 62.7277 60.7202 62.6976 60.9753C62.6719 61.159 62.6432 61.2553 62.5557 61.2737C62.5543 61.2744 62.3808 61.2972 62.3808 61.2972C62.3154 61.2972 62.286 61.3391 62.286 61.381C62.286 61.4766 62.394 61.4766 62.43 61.4766L62.9299 61.4619L63.0328 61.4582L63.2665 61.4663L64.5514 61.4949C64.7939 61.4949 64.8755 61.4949 64.9277 61.3016C64.9586 61.1715 65.01 60.7489 65.01 60.693C65.01 60.6482 65.01 60.5541 64.9248 60.5541C64.8469 60.5541 64.8329 60.6393 64.8255 60.6849C64.7844 60.9223 64.7168 61.0326 64.5756 61.0929C64.4257 61.1553 64.1618 61.1553 64.0045 61.1553C63.4091 61.1553 63.354 61.0804 63.3386 60.6959L63.3378 59.9175L63.3386 59.647V59.1061C63.3386 59.109 64.2088 59.1399 64.2088 59.1399C64.4176 59.1612 64.4668 59.2428 64.4874 59.3207C64.4882 59.3214 64.5102 59.5118 64.5102 59.5118C64.5102 59.5713 64.5477 59.6125 64.6006 59.6125C64.691 59.6125 64.691 59.503 64.691 59.4508L64.7153 59.0612L64.7638 58.7121C64.7638 58.6231 64.705 58.6165 64.6874 58.6165L64.5631 58.7069C64.5168 58.7591 64.4441 58.7701 64.3015 58.7826L63.3283 58.7944L63.3386 57.0832C63.4121 57.0692 64.0655 57.0744 64.164 57.0862C64.5007 57.1229 64.533 57.1964 64.5639 57.267C64.5631 57.2662 64.5969 57.4698 64.5969 57.4698C64.5969 57.5838 64.6646 57.5955 64.6932 57.5955C64.7241 57.5955 64.7645 57.5772 64.7829 57.4904C64.7837 57.4882 64.8064 57.1773 64.8064 57.1773L64.8131 57.0788C64.8131 57.0795 64.8498 56.8693 64.8498 56.8693L64.8638 56.787C64.8638 56.6914 64.8086 56.6841 64.7917 56.6841L64.7234 56.7069Z" fill="white"/>
<path d="M71.7328 56.7496L71.6284 56.754L71.5424 56.751L70.9757 56.7356C70.9404 56.7356 70.8316 56.7356 70.8316 56.8319C70.8316 56.8797 70.8728 56.9157 70.9272 56.9157L71.1257 56.9319C71.3057 56.9708 71.3418 57.0473 71.3543 57.2406C71.3543 57.242 71.366 58.5651 71.366 58.5651V59.334C71.366 60.0683 71.2631 60.51 71.0205 60.8107C70.8008 61.0731 70.445 61.2363 70.0922 61.2363C69.743 61.2363 69.485 61.1833 69.1954 60.9106C68.9749 60.7004 68.7493 60.3594 68.7493 59.4266V58.5666L68.761 57.242C68.7735 57.0281 68.8198 56.9532 68.9485 56.9341C68.9492 56.9341 69.0947 56.9172 69.0947 56.9172C69.1506 56.9172 69.1918 56.8819 69.1918 56.8334C69.1918 56.7371 69.083 56.7371 69.047 56.7371L68.5898 56.7503L68.4369 56.7554L68.3097 56.751L67.7298 56.7371C67.6937 56.7371 67.585 56.7371 67.585 56.8334C67.585 56.8811 67.6261 56.9172 67.6813 56.9172L67.8797 56.9333C68.0473 56.9701 68.0958 57.0362 68.1068 57.242L68.1193 58.5673V59.4648C68.1193 60.4586 68.4126 60.8702 68.6691 61.1165C69.0859 61.5075 69.6607 61.5663 69.9672 61.5663C70.2987 61.5663 70.7934 61.5178 71.2653 61.0988C71.7806 60.6409 71.8467 59.8573 71.8467 59.2267V58.5681L71.8585 57.2435C71.8703 57.0326 71.9144 56.9605 72.0481 56.9355C72.0503 56.9348 72.1929 56.9186 72.1929 56.9186C72.2488 56.9186 72.2885 56.8833 72.2885 56.8348C72.2885 56.7385 72.1797 56.7385 72.1437 56.7385L71.7328 56.7496Z" fill="white"/>
<path d="M73.3816 57.0032L73.3758 60.5263C73.3758 61.0768 73.3449 61.2282 73.2251 61.2628C73.2236 61.2628 72.9862 61.2966 72.9862 61.2966C72.92 61.2966 72.8906 61.3385 72.8906 61.3804C72.8906 61.476 72.9921 61.476 73.0354 61.476L73.525 61.462L73.6257 61.4576L73.7153 61.4612L74.2762 61.476C74.3195 61.476 74.4335 61.476 74.4335 61.3804C74.4335 61.3414 74.4078 61.2966 74.3372 61.2966L74.0424 61.2621C73.9182 61.2246 73.8513 61.1106 73.8381 60.5924C73.8381 60.5924 73.7683 58.0051 73.7624 57.7743C73.9153 57.9426 75.2817 59.445 75.2817 59.445C75.9491 60.1639 76.8238 61.0548 76.8885 61.1143C77.2391 61.4627 77.3001 61.5186 77.3692 61.5186C77.4641 61.5186 77.4714 61.4451 77.4714 61.0349C77.4714 61.0335 77.4824 57.434 77.4824 57.434C77.4824 57.0503 77.5148 56.9657 77.6735 56.9312C77.6743 56.9312 77.8117 56.915 77.8117 56.915C77.8904 56.915 77.9264 56.868 77.9264 56.8246C77.9264 56.7357 77.8198 56.7357 77.7691 56.7357L77.3567 56.7489L77.2465 56.754L77.1149 56.7496L76.607 56.7357C76.5475 56.7357 76.4372 56.7357 76.4372 56.8246C76.4372 56.8819 76.4725 56.915 76.5335 56.915L76.8246 56.9444C76.9716 56.9826 77.0216 57.0657 77.0267 57.4832C77.0267 57.4832 77.0796 59.9081 77.0929 60.4829C76.9738 60.3535 76.6342 59.9853 76.6342 59.9853L75.7007 58.9687L73.6926 56.8033C73.6058 56.7077 73.5492 56.6497 73.4963 56.6497C73.3897 56.6497 73.3816 56.7901 73.3816 57.0032Z" fill="white"/>
<path d="M79.6811 56.7503L79.5818 56.754L79.487 56.7503L78.9607 56.7356C78.9254 56.7356 78.8159 56.7356 78.8159 56.8319C78.8159 56.8797 78.8571 56.9157 78.9107 56.9157L79.0916 56.9377C79.1864 56.9605 79.2511 57.0201 79.265 57.2406C79.265 57.2413 79.2768 58.5651 79.2768 58.5651V59.6478C79.2768 60.2234 79.2768 60.7203 79.2459 60.9753C79.2195 61.1628 79.1923 61.2554 79.1048 61.2738C79.1033 61.2745 78.9298 61.2973 78.9298 61.2973C78.8637 61.2973 78.8336 61.3407 78.8336 61.3811C78.8336 61.4766 78.9431 61.4766 78.9791 61.4766L79.4819 61.4619L79.5818 61.4583L79.6517 61.4605L80.3375 61.4766C80.469 61.4766 80.483 61.4097 80.483 61.3811C80.483 61.3407 80.4536 61.2973 80.3882 61.2973L80.1184 61.2738C79.9721 61.2539 79.9361 61.1584 79.917 60.9768C79.8854 60.7217 79.8854 60.2241 79.8854 59.6486V58.5659L79.8986 57.2413C79.9104 57.0326 79.9567 56.9576 80.0875 56.9326C80.0883 56.9326 80.2323 56.9157 80.2323 56.9157C80.2889 56.9157 80.3294 56.8804 80.3294 56.8319C80.3294 56.7356 80.2191 56.7356 80.1831 56.7356L79.6811 56.7503Z" fill="white"/>
<path d="M85.1799 56.7496L85.0895 56.754L84.9469 56.7488L84.4875 56.7356C84.4243 56.7356 84.306 56.7356 84.306 56.8319C84.306 56.8635 84.3207 56.9157 84.4199 56.9157L84.6382 56.937C84.6794 56.9591 84.6867 57.0076 84.6867 57.034L84.6331 57.2523C84.5088 57.6595 83.7473 59.6515 83.3651 60.5534C83.2879 60.3476 82.2258 57.5155 82.2258 57.5155C82.1369 57.2854 82.0626 57.0928 82.0626 57.0223C82.0626 56.9885 82.0714 56.962 82.1163 56.9407L82.3302 56.9149C82.4279 56.9149 82.4382 56.8517 82.4382 56.8245C82.4382 56.7356 82.3044 56.7356 82.2251 56.7356L81.7789 56.7488L81.6539 56.754L81.5025 56.7496L80.9351 56.7356C80.8483 56.7356 80.7285 56.7356 80.7285 56.8245C80.7285 56.8804 80.7653 56.9149 80.8248 56.9149L81.0453 56.937C81.2379 56.9929 81.3239 57.0458 81.4569 57.3832L82.977 61.1892C83.0909 61.4766 83.1255 61.5634 83.2284 61.5634C83.3041 61.5634 83.3313 61.5024 83.4224 61.2987L83.5276 61.0679L84.2876 59.2877L84.6514 58.4093L85.0109 57.5368C85.1718 57.1311 85.2601 57.0296 85.3314 56.9804C85.4357 56.9149 85.5592 56.9149 85.5996 56.9149C85.7048 56.9149 85.7202 56.8583 85.7202 56.8245C85.7202 56.765 85.6695 56.7356 85.5688 56.7356L85.1799 56.7496Z" fill="white"/>
<path d="M88.5361 56.7076L88.5089 56.7186L88.2524 56.7488C88.2531 56.7488 86.847 56.7539 86.847 56.7539L86.7661 56.751L86.1531 56.7355C86.1171 56.7355 86.0068 56.7355 86.0068 56.8318C86.0068 56.8803 86.0473 56.9156 86.1039 56.9156L86.3023 56.9318C86.4692 56.9685 86.5184 57.0347 86.5295 57.2405C86.5295 57.2412 86.5427 58.5658 86.5427 58.5658V59.6485C86.5427 60.224 86.5427 60.7209 86.5118 60.976C86.4861 61.1598 86.4574 61.256 86.3707 61.2744C86.3699 61.2752 86.195 61.2979 86.195 61.2979C86.1296 61.2979 86.0995 61.3413 86.0995 61.3817C86.0995 61.4773 86.209 61.4773 86.245 61.4773L86.7463 61.4626L86.847 61.4589L87.0815 61.467L88.3656 61.4949C88.6089 61.4949 88.6912 61.4949 88.7427 61.3016C88.7728 61.1708 88.8235 60.7489 88.8235 60.693C88.8235 60.6482 88.8235 60.5541 88.7397 60.5541C88.6633 60.5541 88.6478 60.632 88.6383 60.6842C88.5979 60.9223 88.531 61.0326 88.3906 61.0929C88.2392 61.1553 87.976 61.1553 87.8194 61.1553C87.2241 61.1553 87.1689 61.0804 87.1535 60.6959L87.1528 59.9175L87.1535 59.647V59.106C87.1535 59.109 88.0245 59.1399 88.0245 59.1399C88.2575 59.1634 88.2884 59.2663 88.3038 59.3214L88.3259 59.5118C88.3259 59.5728 88.3612 59.6125 88.4163 59.6125C88.5052 59.6125 88.5052 59.503 88.5052 59.4508L88.531 59.0612C88.531 59.0605 88.5795 58.7121 88.5795 58.7121C88.5795 58.6231 88.5199 58.6165 88.5016 58.6165L88.3884 58.6966C88.3318 58.7591 88.2597 58.7701 88.1164 58.7826L87.1447 58.7944L87.1542 57.0832C87.1447 57.0692 87.9812 57.0861 87.9812 57.0861C88.3156 57.1229 88.3487 57.1964 88.3803 57.2677C88.3803 57.2684 88.4126 57.4706 88.4126 57.4706C88.4126 57.5845 88.4803 57.5963 88.5089 57.5963C88.5354 57.5963 88.581 57.5823 88.5971 57.4897C88.5971 57.4911 88.6214 57.1986 88.6214 57.1986L88.6295 57.081L88.6787 56.7885C88.6787 56.6958 88.6295 56.6855 88.6074 56.6855L88.5361 56.7076Z" fill="white"/>
<path d="M90.7756 59.134C90.7557 59.1208 90.7542 59.1105 90.7542 59.0988V57.0892C90.7542 57.073 90.7594 57.0649 90.7733 57.0598C90.8204 57.0458 90.9777 57.0252 91.1688 57.0252C91.8061 57.0252 92.1854 57.4677 92.1854 58.2086C92.1854 58.6269 92.0531 58.965 91.8303 59.1157C91.6936 59.2127 91.5268 59.2245 91.3959 59.2245C91.1063 59.2245 90.8483 59.1774 90.7756 59.134ZM90.68 56.7481L90.4742 56.754L90.3933 56.751L89.7796 56.7356C89.7436 56.7356 89.6348 56.7356 89.6348 56.8319C89.6348 56.8804 89.6752 56.9157 89.7311 56.9157L89.928 56.9319C90.0964 56.9686 90.1449 57.0348 90.1566 57.2406L90.1691 58.5651V59.6478C90.1691 60.2234 90.1691 60.7203 90.1375 60.9753C90.1133 61.1547 90.0846 61.2554 89.9964 61.2738C89.9957 61.2745 89.8215 61.2973 89.8215 61.2973C89.7553 61.2973 89.7259 61.3392 89.7259 61.3811C89.7259 61.4766 89.8354 61.4766 89.8714 61.4766L90.4242 61.4597C90.4485 61.4583 90.522 61.4612 90.522 61.4612L91.2048 61.4766C91.3379 61.4766 91.3518 61.4097 91.3518 61.3811C91.3518 61.3406 91.3217 61.2973 91.2541 61.2973L90.985 61.2738C90.8388 61.2532 90.8035 61.1584 90.7858 60.9768C90.7542 60.721 90.7542 60.2241 90.7542 59.6486V59.5008C90.7513 59.4994 91.5069 59.5104 91.5069 59.5104C91.5077 59.5104 91.5554 59.5354 91.5554 59.5354C91.5554 59.5369 91.7671 59.8257 91.7671 59.8257L92.2192 60.4395L92.3022 60.5483C92.6087 60.9533 92.8124 61.2208 93.0645 61.3553C93.2343 61.448 93.3997 61.4774 93.7444 61.4774H94.181C94.2582 61.4774 94.3758 61.4774 94.3758 61.3818C94.3758 61.3355 94.3295 61.298 94.2729 61.298L94.0406 61.2804C93.8804 61.2554 93.6312 61.1833 93.3181 60.8526C92.9961 60.5093 92.6205 60.0264 92.1854 59.4663C92.1854 59.4663 92.1008 59.3568 92.0663 59.3134C92.561 58.8466 92.7955 58.3931 92.7955 57.8911C92.7955 57.4537 92.5161 57.1355 92.3515 57.0157C92.009 56.7701 91.5767 56.7371 91.1997 56.7371L90.68 56.7481Z" fill="white"/>
<path d="M94.6512 57.8029C94.6512 58.2226 94.7901 58.6159 95.4671 59.1731L95.7434 59.4002C96.2859 59.8471 96.4344 60.0772 96.4344 60.4719C96.4344 60.8548 96.1484 61.2415 95.6023 61.2415C95.3789 61.2415 94.8459 61.1841 94.7372 60.652L94.721 60.4344C94.721 60.3998 94.721 60.3205 94.6313 60.3205C94.5497 60.3205 94.5402 60.4109 94.5343 60.4601C94.5343 60.4616 94.5299 60.5204 94.5299 60.5204L94.5034 61.1172C94.5034 61.2826 94.5086 61.337 94.6218 61.3929H94.6225C94.8599 61.509 95.1363 61.5649 95.4678 61.5649C95.8419 61.5649 96.172 61.4723 96.4219 61.2966C96.8225 61.0121 96.9643 60.563 96.9643 60.2374C96.9643 59.7559 96.8144 59.3598 96.0485 58.7563L95.8772 58.6218C95.2884 58.1396 95.1451 57.9441 95.1451 57.6258C95.1451 57.2274 95.4296 56.9591 95.853 56.9591C96.3616 56.9591 96.5314 57.1708 96.5806 57.2612C96.613 57.3215 96.6497 57.4817 96.6556 57.5508C96.6608 57.5949 96.6703 57.6728 96.7504 57.6728C96.8408 57.6728 96.8408 57.5501 96.8408 57.4839L96.8614 56.879L96.8636 56.8327C96.8636 56.7437 96.7828 56.7437 96.7571 56.7437L96.5512 56.7143C96.3756 56.6717 96.1903 56.6519 95.9691 56.6519C95.1819 56.6497 94.6512 57.1135 94.6512 57.8029Z" fill="white"/>
<path d="M98.7765 56.7503L98.6744 56.754L98.5803 56.7503L98.0547 56.7356C97.9577 56.7356 97.9092 56.7679 97.9092 56.8319C97.9092 56.8797 97.9503 56.9157 98.0055 56.9157L98.1833 56.9377C98.2671 56.9576 98.3451 57.0076 98.3583 57.2406L98.3701 58.5651V59.6478C98.3701 60.2234 98.3701 60.7203 98.3399 60.9753C98.3142 61.1584 98.2855 61.2554 98.198 61.2738C98.1966 61.2745 98.0231 61.2973 98.0231 61.2973C97.9577 61.2973 97.9276 61.3407 97.9276 61.3811C97.9276 61.4766 98.0363 61.4766 98.0716 61.4766L98.5759 61.4619L98.6744 61.4583L98.7471 61.4612L99.4322 61.4766C99.5623 61.4766 99.5755 61.4097 99.5755 61.3811C99.5755 61.3392 99.5461 61.2973 99.48 61.2973L99.2109 61.2738C99.0647 61.2532 99.0294 61.1584 99.011 60.9768C98.9794 60.721 98.9794 60.2241 98.9794 59.6486V58.5659L98.9926 57.2413C99.0037 57.0326 99.05 56.9576 99.1823 56.9326C99.183 56.9326 99.3263 56.9157 99.3263 56.9157C99.3822 56.9157 99.4226 56.8804 99.4226 56.8319C99.4226 56.7356 99.3124 56.7356 99.2764 56.7356L98.7765 56.7503Z" fill="white"/>
<path d="M100.15 56.7974C100.147 56.8084 100.011 57.3788 100.011 57.4531C100.011 57.528 100.053 57.5545 100.088 57.5545C100.15 57.5545 100.177 57.506 100.194 57.4634L100.295 57.2811C100.38 57.1517 100.513 57.112 100.882 57.1054C100.882 57.1054 101.561 57.0958 101.745 57.0936C101.745 57.1855 101.745 59.6479 101.745 59.6479C101.745 60.2234 101.745 60.7203 101.715 60.9754C101.692 61.1547 101.661 61.2554 101.574 61.2738C101.572 61.2745 101.398 61.2973 101.398 61.2973C101.332 61.2973 101.303 61.3392 101.303 61.3811C101.303 61.4767 101.411 61.4767 101.448 61.4767L101.949 61.462L102.05 61.4583L102.123 61.4612L102.805 61.4767C102.932 61.4767 102.951 61.4171 102.951 61.3811C102.951 61.3407 102.921 61.2973 102.856 61.2973L102.585 61.2738C102.441 61.254 102.405 61.1584 102.385 60.9769C102.355 60.7218 102.355 60.2242 102.355 59.6486C102.355 59.6486 102.355 57.1862 102.355 57.0944C102.438 57.0958 103.082 57.1061 103.082 57.1061C103.674 57.1186 103.773 57.2642 103.793 57.4045C103.793 57.4053 103.798 57.47 103.798 57.47C103.802 57.528 103.808 57.617 103.895 57.617C103.91 57.617 103.984 57.6111 103.984 57.4905L103.989 57.2936L104.001 56.8143C104.001 56.7776 104.001 56.6923 103.924 56.6923L103.851 56.7033C103.764 56.721 103.603 56.754 103.316 56.754H101.011L100.529 56.7239C100.527 56.7239 100.33 56.6724 100.33 56.6724L100.255 56.6497C100.202 56.6497 100.177 56.7136 100.15 56.7974Z" fill="white"/>
<path d="M108.144 56.7488L107.983 56.754L107.884 56.7488L107.577 56.7356C107.45 56.7356 107.431 56.7878 107.431 56.8187C107.431 56.8826 107.492 56.9025 107.55 56.9223C107.577 56.9297 107.622 56.9414 107.622 57.0524C107.622 57.1399 107.589 57.2376 107.524 57.342C107.42 57.5162 106.73 58.7026 106.54 59.0774C106.336 58.7357 105.544 57.3729 105.453 57.2082C105.408 57.1215 105.379 57.0546 105.379 56.9914C105.379 56.9642 105.397 56.9407 105.433 56.9216C105.434 56.9216 105.465 56.9098 105.465 56.9098C105.505 56.8936 105.551 56.876 105.551 56.8253C105.551 56.7657 105.509 56.7363 105.425 56.7363L104.992 56.751L104.908 56.7547L104.764 56.7503L104.301 56.7363C104.179 56.7363 104.173 56.8106 104.173 56.8253C104.173 56.8782 104.218 56.9157 104.282 56.9157C104.324 56.9157 104.434 56.948 104.521 57.0061C104.642 57.0877 104.792 57.2523 104.925 57.4479C105.146 57.7749 105.966 59.1216 106.003 59.2112C106.085 59.392 106.141 59.5185 106.141 59.8382V60.3674L106.122 60.9775C106.114 61.0996 106.081 61.251 105.969 61.2738C105.969 61.2745 105.794 61.2973 105.794 61.2973C105.728 61.2973 105.698 61.3392 105.698 61.3811C105.698 61.4766 105.807 61.4766 105.843 61.4766L106.346 61.4619L106.445 61.4583L106.518 61.4612L107.2 61.4766C107.332 61.4766 107.346 61.4097 107.346 61.3811C107.346 61.3407 107.316 61.2973 107.25 61.2973L106.98 61.2738C106.843 61.2546 106.782 61.1686 106.768 60.9783L106.75 60.3682V59.839C106.75 59.6412 106.75 59.4538 106.838 59.2428C106.943 58.9907 107.799 57.55 108.005 57.2986C108.142 57.1303 108.207 57.0634 108.321 56.9965C108.406 56.9407 108.513 56.9164 108.578 56.9164C108.672 56.9164 108.705 56.8642 108.705 56.8194C108.705 56.7812 108.672 56.7363 108.578 56.7363L108.144 56.7488Z" fill="white"/>
<path d="M111.454 58.9276C111.454 57.7089 112.123 56.9518 113.201 56.9518C114.078 56.9518 115.023 57.6471 115.023 59.1738C115.023 61.1356 113.649 61.2349 113.373 61.2349C112.244 61.2356 111.454 60.2859 111.454 58.9276ZM110.775 59.0988C110.775 60.2859 111.536 61.5634 113.208 61.5634C114.656 61.5634 115.707 60.4858 115.707 59.0011C115.707 57.5942 114.718 56.6497 113.245 56.6497C111.445 56.6497 110.775 58.1521 110.775 59.0988Z" fill="white"/>
<path d="M118.901 56.7093L118.867 56.7255C118.866 56.7255 118.679 56.7446 118.679 56.7446L118.607 56.7483C118.608 56.7483 117.097 56.7534 117.097 56.7534L117.017 56.7505L116.403 56.735C116.367 56.735 116.257 56.735 116.257 56.8313C116.257 56.8798 116.298 56.9151 116.354 56.9151L116.551 56.9313C116.72 56.9673 116.769 57.0342 116.78 57.24C116.78 57.2407 116.793 58.5653 116.793 58.5653V59.648C116.793 60.2235 116.793 60.7204 116.762 60.9755C116.737 61.1592 116.707 61.2555 116.621 61.2739C116.62 61.2746 116.446 61.2974 116.446 61.2974C116.38 61.2974 116.35 61.3393 116.35 61.3812C116.35 61.4768 116.459 61.4768 116.495 61.4768L116.997 61.4621L117.097 61.4584L117.171 61.4613L117.853 61.4768C117.985 61.4768 117.999 61.4099 117.999 61.3812C117.999 61.3393 117.969 61.2974 117.902 61.2974L117.633 61.2739C117.487 61.2533 117.451 61.1585 117.434 60.977C117.403 60.7212 117.403 60.2243 117.403 59.6487V59.1254C117.631 59.1166 118.185 59.1188 118.321 59.1349C118.484 59.1555 118.574 59.2474 118.604 59.3268L118.633 59.5017L118.637 59.5385C118.637 59.5929 118.673 59.6348 118.726 59.6348C118.815 59.6348 118.815 59.5282 118.815 59.4709L118.84 59.0644L118.89 58.7152C118.89 58.6263 118.831 58.6197 118.813 58.6197C118.768 58.6197 118.742 58.655 118.718 58.6858C118.667 58.7586 118.611 58.7792 118.46 58.7909L118.186 58.7976L117.399 58.8034L117.403 57.0981C117.41 57.0768 118.356 57.0952 118.356 57.0952C118.576 57.1003 118.704 57.2003 118.734 57.265C118.734 57.2657 118.784 57.4796 118.784 57.4796C118.784 57.5936 118.859 57.5994 118.874 57.5994C118.906 57.5994 118.95 57.5818 118.969 57.4943C118.969 57.4921 118.993 57.1893 118.993 57.1893L119 57.0827C119 57.0834 119.036 56.8732 119.036 56.8732L119.049 56.7909C119.049 56.7306 119.014 56.688 118.965 56.688L118.901 56.7093Z" fill="white"/>
<path d="M118.706 65.0386H53.1357V65.4127H118.706V65.0386Z" fill="white"/>
<path d="M59.7425 68.9794C59.7425 68.9794 57.3948 73.9093 57.1817 74.3555C57.1398 74.2695 54.6119 69.0463 54.6119 69.0463C54.4929 68.8074 54.4304 68.739 54.3341 68.739C54.2716 68.739 54.1886 68.7853 54.1496 69.0051L53.2102 75.1942C53.1588 75.5433 53.0787 75.8733 52.839 75.9241C52.8383 75.9241 52.559 75.9527 52.559 75.9527C52.5156 75.9527 52.3833 75.9527 52.3833 76.0417C52.3833 76.1703 52.5244 76.1703 52.5781 76.1703L53.1617 76.1534L53.5175 76.1424L53.8218 76.1519L54.5142 76.1703C54.6355 76.1703 54.7656 76.1607 54.7656 76.0417C54.7656 75.9851 54.7053 75.9527 54.6002 75.9527L54.2062 75.9057C54.0276 75.8638 53.9401 75.7719 53.9401 75.6249L53.9681 75.1817C53.9681 75.1817 54.3995 71.8754 54.4554 71.4499C54.5333 71.5777 54.9163 72.3929 54.9163 72.3929L55.4418 73.5175C55.5543 73.7792 56.2923 75.2096 56.5341 75.6741L56.562 75.7263C56.7061 75.9976 56.7928 76.1615 56.8869 76.1615C56.9891 76.1615 57.0398 76.0667 57.2588 75.6175L59.328 71.308C59.328 71.3462 59.891 75.4771 59.891 75.4771C59.9028 75.5609 59.9079 75.6293 59.9079 75.6837C59.9079 75.7991 59.8851 75.8513 59.8594 75.8601C59.7962 75.8873 59.7389 75.9211 59.7389 75.9865C59.7389 76.0725 59.8388 76.0968 60.0351 76.1144C60.4092 76.1424 61.7176 76.1718 61.9638 76.1718C62.1381 76.1718 62.2336 76.1262 62.2336 76.0431C62.2336 75.9542 62.1153 75.9542 62.0579 75.9542C61.9278 75.9542 61.7448 75.9439 61.4765 75.8601C61.1972 75.7763 61.1097 75.4904 61.0281 74.9207L60.1637 69.0551C60.1336 68.8434 60.0704 68.7405 59.9697 68.7405C59.8712 68.7383 59.8183 68.8294 59.7425 68.9794Z" fill="white"/>
<path d="M67.1716 68.8934L67.1157 68.9096L66.71 68.9662C66.549 68.975 64.998 68.9757 64.3394 68.9757L63.8536 68.961L63.7426 68.9566C63.7418 68.9566 62.973 68.9471 62.973 68.9471C62.8605 68.9471 62.7407 68.9551 62.7407 69.0558C62.7407 69.1646 62.8657 69.1646 62.9252 69.1646L63.2898 69.1918C63.6 69.258 63.6625 69.4123 63.6801 69.7122C63.6992 70.0151 63.6992 70.276 63.6992 71.7233V73.3941C63.6992 74.2636 63.6992 75.0156 63.6522 75.4125C63.6095 75.7197 63.5581 75.8814 63.3949 75.9145L63.0575 75.952C62.9826 75.952 62.8826 75.9623 62.8826 76.0512C62.8826 76.1291 62.9546 76.1696 63.0957 76.1696L63.7514 76.1505C63.7521 76.1505 64.2924 76.1409 64.2924 76.1409L65.2788 76.1696L65.5545 76.1762L66.9216 76.1982C67.287 76.1982 67.3862 76.1982 67.4568 75.9344C67.506 75.7396 67.581 75.0964 67.581 74.8744C67.581 74.7789 67.581 74.6804 67.4817 74.6804C67.3906 74.6804 67.3715 74.748 67.3546 74.8421C67.287 75.2339 67.1752 75.4198 66.9408 75.5271C66.6989 75.6389 66.2976 75.6389 66.058 75.6389C65.0723 75.6389 64.9606 75.4823 64.9422 74.8641L64.9407 73.7851L64.9422 73.3941V72.6443C64.9422 72.5723 64.9591 72.5723 64.976 72.5723C65.1891 72.5723 66.1388 72.5818 66.3211 72.6009C66.6217 72.6333 66.7798 72.7421 66.8327 72.953L66.8628 73.2029L66.8702 73.2919C66.8702 73.3595 66.9084 73.3985 66.979 73.3985C67.0878 73.3985 67.0878 73.2706 67.0878 73.1949L67.1054 72.8957L67.126 72.5598L67.1899 71.9681L67.2017 71.8659C67.2017 71.8027 67.1686 71.7667 67.112 71.7667C67.0576 71.7667 67.0165 71.813 66.9555 71.8828C66.8621 71.9872 66.7261 72.0136 66.5027 72.032C66.3623 72.0445 65.8235 72.0511 64.9855 72.0511C64.9561 72.0511 64.9429 72.0438 64.9429 71.9695V69.5682C64.9429 69.4969 64.9657 69.4969 64.9855 69.4969C65.1693 69.4969 66.1668 69.5152 66.3307 69.5343C66.807 69.5917 66.8871 69.7063 66.9481 69.8614C67.0018 69.9901 67.0032 70.1746 67.0032 70.1944C67.0032 70.2415 67.0032 70.351 67.112 70.351C67.2046 70.351 67.223 70.2613 67.2304 70.2275C67.2304 70.2268 67.2649 69.7923 67.2649 69.7923L67.2781 69.5983C67.2781 69.5976 67.3406 69.0735 67.3406 69.0735L67.3538 68.9794C67.3538 68.9529 67.3538 68.8706 67.273 68.8706L67.1716 68.8934Z" fill="white"/>
<path d="M70.8312 68.9647L70.3285 68.9764L69.847 68.9647L69.0282 68.9478C68.9157 68.9478 68.7959 68.9558 68.7959 69.0565C68.7959 69.1653 68.9209 69.1653 68.9804 69.1653L69.2884 69.1925C69.5986 69.2587 69.661 69.413 69.6787 69.7129C69.6978 70.0158 69.6978 70.2767 69.6978 71.724V73.3948C69.6978 74.2643 69.6978 75.0163 69.6508 75.4132C69.6081 75.7204 69.5567 75.8821 69.3942 75.9152C69.3935 75.9152 69.0568 75.9527 69.0568 75.9527C68.9819 75.9527 68.8819 75.963 68.8819 76.0519C68.8819 76.1703 69.0421 76.1703 69.0951 76.1703L69.75 76.1512C69.7507 76.1512 70.291 76.1416 70.291 76.1416L71.7728 76.1784L73.0525 76.199C73.5516 76.199 73.6119 76.1504 73.6736 75.9248C73.7501 75.6455 73.8162 74.9369 73.8162 74.8274C73.8162 74.7362 73.8162 74.6429 73.717 74.6429C73.6075 74.6429 73.5957 74.7487 73.5891 74.806C73.5707 74.9839 73.4575 75.2434 73.348 75.3617C73.1253 75.6028 72.7864 75.6197 72.255 75.6197C71.4957 75.6197 71.2708 75.5484 71.1223 75.4169C70.9312 75.2522 70.9312 74.5921 70.9312 73.3933V71.7225C70.9312 70.2752 70.9312 70.0143 70.9503 69.7115C70.9702 69.3653 71.0539 69.2344 71.2825 69.1918C71.2833 69.1918 71.6486 69.1639 71.6486 69.1639C71.7493 69.1639 71.8434 69.1506 71.8434 69.0551C71.8434 68.9595 71.7361 68.9463 71.6207 68.9463L70.8312 68.9647Z" fill="white"/>
<path d="M76.688 68.9595L76.0045 68.9757L75.6391 68.9661L74.7137 68.947C74.6013 68.947 74.4814 68.9551 74.4814 69.0558C74.4814 69.1646 74.6064 69.1646 74.6659 69.1646L75.0305 69.1918C75.3407 69.2579 75.4039 69.4123 75.4208 69.7122C75.4399 70.015 75.4399 70.276 75.4399 71.7233V73.394C75.4399 74.2636 75.4399 75.0155 75.3936 75.4125C75.3584 75.666 75.315 75.8785 75.1371 75.9145C75.1364 75.9145 74.7997 75.952 74.7997 75.952C74.7247 75.952 74.6248 75.9623 74.6248 76.0512C74.6248 76.1695 74.7843 76.1695 74.8379 76.1695L75.4929 76.1504C75.4936 76.1504 76.0339 76.1409 76.0339 76.1409L76.7446 76.1695C76.7454 76.1695 77.1144 76.1857 77.1144 76.1857L77.4099 76.1975C79.1769 76.1975 79.9678 75.1464 79.9678 74.1048C79.9678 73.0309 79.0931 72.3414 78.2603 72.046C78.8292 71.5858 79.2085 71.1242 79.2085 70.3928C79.2085 70.0533 79.0615 68.9463 77.1636 68.9463L76.688 68.9595ZM77.0012 69.3829C77.8487 69.3829 78.1647 70.2716 78.1647 70.8309C78.1647 71.2756 78.0324 71.6174 77.7847 71.8188C77.6193 71.9644 77.3974 71.9938 77.1166 71.9938L76.6755 71.9658C76.6469 71.9592 76.627 71.9497 76.627 71.8842V69.5395C76.627 69.438 76.6447 69.4152 76.6954 69.4005C76.6947 69.402 77.0012 69.3829 77.0012 69.3829ZM76.9438 75.6124C76.6535 75.4948 76.6263 75.3492 76.6263 74.723V72.473C76.6263 72.4333 76.6403 72.4304 76.6601 72.4304L77.0673 72.4399C77.426 72.4583 77.6436 72.5208 77.8421 72.6634H77.8428C78.6653 73.2367 78.7535 74.1621 78.7535 74.5333C78.7535 75.6675 77.8163 75.7248 77.6282 75.7248C77.4121 75.7248 77.1974 75.716 76.9438 75.6124Z" fill="white"/>
<path d="M80.9263 72.559C80.9263 74.3628 82.1303 76.3033 84.775 76.3033C87.1021 76.3033 88.728 74.6936 88.728 72.3877C88.728 70.1833 87.2498 68.8147 84.8698 68.8147C82.1604 68.8147 80.9263 70.7552 80.9263 72.559ZM82.2832 72.2643C82.2832 69.6997 83.7319 69.3167 84.5956 69.3167C86.2193 69.3167 87.3535 70.7236 87.3535 72.7384C87.3535 75.4845 85.829 75.7814 85.1741 75.7814C83.4717 75.7814 82.2832 74.3356 82.2832 72.2643Z" fill="white"/>
<path d="M96.0126 68.9676L95.7384 68.9764C95.712 68.9749 94.6469 68.9478 94.6469 68.9478C94.5396 68.9478 94.4249 68.9558 94.4249 69.0565C94.4249 69.1653 94.5491 69.1653 94.6094 69.1653L94.9453 69.1925C95.2555 69.2587 95.318 69.413 95.3356 69.7129C95.3547 70.0158 95.3547 70.2767 95.3547 71.724V72.9104C95.3547 73.9269 95.3151 74.7436 94.8108 75.2478C94.3544 75.7043 93.7546 75.7535 93.5179 75.7535C93.19 75.7535 92.76 75.7101 92.3462 75.3698C91.9662 75.0589 91.6141 74.5635 91.6141 73.053V71.724C91.6141 70.2767 91.6141 70.0158 91.6332 69.7129C91.6531 69.3667 91.7369 69.2359 91.9662 69.1933L92.2367 69.1653C92.2889 69.1653 92.4116 69.1653 92.4116 69.0565C92.4116 68.9558 92.2918 68.9478 92.1801 68.9478L91.4862 68.9639L91.0121 68.9757L90.5049 68.9639L89.6266 68.947C89.5141 68.947 89.395 68.9551 89.395 69.0558C89.395 69.1646 89.5192 69.1646 89.5795 69.1646L89.9441 69.1918C90.2543 69.2579 90.3175 69.4123 90.3344 69.7122C90.3528 70.015 90.3528 70.276 90.3528 71.7233V73.1088C90.3528 74.3121 90.6233 75.117 91.2054 75.6418C91.9361 76.3026 92.9115 76.3026 93.3282 76.3026C93.881 76.3026 94.6072 76.2239 95.318 75.6131C96.1177 74.9281 96.228 73.8262 96.228 72.7384V71.7233C96.228 70.276 96.228 70.015 96.2471 69.7122C96.2669 69.366 96.3507 69.2352 96.5786 69.1925C96.5793 69.1925 96.8498 69.1646 96.8498 69.1646C96.9505 69.1646 97.0439 69.1514 97.0439 69.0558C97.0439 68.9551 96.9292 68.947 96.8219 68.947L96.0126 68.9676Z" fill="white"/>
<path d="M100.119 68.961L99.4222 68.9757L99.0422 68.9661L98.1219 68.947C98.0102 68.947 97.8896 68.9551 97.8896 69.0558C97.8896 69.1646 98.0146 69.1646 98.0741 69.1646L98.4387 69.1918C98.7489 69.2579 98.8114 69.4123 98.829 69.7122C98.8481 70.015 98.8481 70.276 98.8481 71.7233V73.394C98.8481 74.2636 98.8481 75.0155 98.8011 75.4125C98.7666 75.666 98.7232 75.8785 98.5446 75.9145L98.2072 75.952C98.1322 75.952 98.0315 75.9623 98.0315 76.0512C98.0315 76.1695 98.1917 76.1695 98.2454 76.1695L99.0187 76.1519L99.4038 76.1416L99.7103 76.149L100.799 76.1703C100.852 76.1703 101.012 76.1703 101.012 76.0519C101.012 76.0218 100.999 75.9527 100.875 75.9527L100.413 75.9145C100.159 75.8807 100.094 75.7123 100.063 75.4132C100.016 75.0155 100.016 74.2599 100.016 73.3845V73.2514C100.016 73.2117 100.029 73.1992 100.068 73.1992L100.894 73.2184C100.959 73.2184 101.007 73.2286 101.047 73.2764C101.047 73.2772 101.502 73.9034 101.502 73.9034L101.986 74.5848C102.54 75.3478 102.895 75.7741 103.294 75.9873C103.552 76.1262 103.802 76.1703 104.321 76.1703H105.222C105.289 76.1703 105.427 76.1703 105.427 76.0519C105.427 76.0218 105.414 75.9527 105.289 75.9527L105.028 75.924C104.874 75.8932 104.491 75.8175 103.977 75.2853C103.494 74.7774 102.946 74.085 102.251 73.2095C102.251 73.2095 101.957 72.8391 101.932 72.8075C102.803 72.0959 103.178 71.4579 103.178 70.6788C103.178 69.9864 102.748 69.513 102.522 69.3586C101.991 68.9955 101.335 68.9463 100.762 68.9463L100.119 68.961ZM100.084 72.6222C100.032 72.5994 100.014 72.5745 100.014 72.473V69.588C100.014 69.5174 100.029 69.4924 100.082 69.4777C100.168 69.452 100.321 69.4402 100.579 69.4402C101.11 69.4402 102.008 69.8011 102.008 71.1544C102.008 72.0254 101.663 72.4083 101.458 72.559C101.295 72.6766 101.176 72.7156 100.797 72.7156C100.527 72.7156 100.26 72.681 100.084 72.6222Z" fill="white"/>
<path d="M106.562 69.1323L106.477 74.751C106.467 75.5691 106.428 75.8352 106.199 75.9065C106.058 75.9469 105.875 75.9528 105.779 75.9528C105.731 75.9528 105.603 75.9528 105.603 76.052C105.603 76.1704 105.737 76.1704 105.835 76.1704L106.701 76.1476L106.861 76.1417L107.125 76.1498L108.037 76.1704C108.115 76.1704 108.279 76.1704 108.279 76.052C108.279 75.9528 108.15 75.9528 108.095 75.9528C107.954 75.9528 107.772 75.9454 107.609 75.8874C107.404 75.8153 107.309 75.5074 107.292 74.8546C107.292 74.8546 107.191 70.9971 107.189 70.9119C107.242 70.9582 107.382 71.1096 107.382 71.1096C107.781 71.5484 108.612 72.4606 109.436 73.278L110.695 74.5386L112.236 76.0689C112.345 76.1777 112.461 76.2836 112.575 76.2836C112.704 76.2836 112.721 76.1233 112.721 75.966L112.826 69.9769C112.836 69.4462 112.914 69.2624 113.16 69.1919C113.159 69.1919 113.439 69.1647 113.439 69.1647C113.568 69.1647 113.633 69.1279 113.633 69.0559C113.633 68.9471 113.488 68.9471 113.392 68.9471L112.634 68.9684L112.462 68.9765L112.127 68.967L111.314 68.9478C111.2 68.9478 111.043 68.9478 111.043 69.0566C111.043 69.1529 111.137 69.1654 111.219 69.1654C111.352 69.1654 111.575 69.1654 111.713 69.2205C111.914 69.3043 112.011 69.4506 112.021 70.0533C112.021 70.0533 112.11 74.0417 112.116 74.2916C112.104 74.2916 112.093 74.2916 112.093 74.2916C112.093 74.282 111.427 73.5904 111.427 73.5904L110.021 72.1343C108.577 70.7009 107.094 69.1029 107.079 69.0875L106.991 68.9912C106.879 68.8677 106.805 68.7861 106.711 68.7861C106.578 68.7861 106.562 68.9839 106.562 69.1323Z" fill="white"/>
<path d="M118.475 68.8941L118.42 68.9103C118.419 68.9103 118.014 68.9669 118.014 68.9669C117.853 68.9757 116.303 68.9764 115.644 68.9764L115.159 68.9617L115.046 68.9573C115.046 68.9573 114.277 68.9478 114.277 68.9478C114.165 68.9478 114.044 68.9559 114.044 69.0566C114.044 69.1654 114.169 69.1654 114.229 69.1654L114.594 69.1926C114.904 69.2587 114.966 69.4131 114.984 69.713C115.004 70.0158 115.004 70.2767 115.004 71.724V73.3948C115.004 74.2643 115.004 75.0163 114.957 75.4132C114.922 75.6661 114.879 75.8792 114.7 75.9153L114.363 75.9527C114.288 75.9527 114.187 75.963 114.187 76.052C114.187 76.1703 114.348 76.1703 114.401 76.1703L115.056 76.1512C115.057 76.1512 115.598 76.1416 115.598 76.1416L116.583 76.1703L116.859 76.1769L118.227 76.199C118.583 76.199 118.691 76.199 118.762 75.9351C118.81 75.7418 118.886 75.0986 118.886 74.8752C118.886 74.7796 118.886 74.6811 118.787 74.6811C118.695 74.6811 118.677 74.7487 118.66 74.8428C118.593 75.2339 118.48 75.4198 118.246 75.5279C118.003 75.6396 117.603 75.6396 117.363 75.6396C116.378 75.6396 116.266 75.483 116.248 74.8649L116.247 73.7858L116.248 73.3948V72.6451C116.248 72.573 116.264 72.573 116.281 72.573C116.494 72.573 117.444 72.5826 117.627 72.6017C117.928 72.634 118.086 72.7428 118.138 72.9538L118.169 73.2066L118.175 73.2926C118.175 73.3602 118.214 73.3992 118.284 73.3992C118.393 73.3992 118.393 73.2713 118.393 73.1956L118.411 72.8884L118.431 72.5613L118.495 71.9703L118.507 71.8666C118.507 71.8034 118.474 71.7674 118.417 71.7674C118.362 71.7674 118.322 71.8137 118.261 71.8843C118.167 71.9872 118.031 72.0144 117.808 72.0328C117.668 72.0453 117.129 72.0519 116.291 72.0519C116.261 72.0519 116.249 72.0445 116.249 71.9703V69.5689C116.249 69.4976 116.272 69.4976 116.291 69.4976C116.474 69.4976 117.473 69.516 117.637 69.5351C118.114 69.5924 118.193 69.7071 118.253 69.8622C118.307 69.9901 118.309 70.1746 118.309 70.1952C118.309 70.2422 118.309 70.3517 118.418 70.3517C118.511 70.3517 118.53 70.2584 118.536 70.2282C118.536 70.2275 118.57 69.7938 118.57 69.7938L118.583 69.599C118.583 69.5983 118.647 69.0735 118.647 69.0735L118.66 68.9801C118.66 68.9081 118.633 68.8713 118.579 68.8713L118.475 68.8941Z" fill="white"/>
<path d="M85.6562 51.4618C84.0707 49.8763 82.1096 49.0384 80.214 48.2276L80.0625 48.1637C80.0375 48.1541 79.0526 47.7859 79.0526 47.7859C78.932 47.741 78.8549 47.7116 78.8086 47.6903L78.6344 47.6109L78.6277 47.6308C72.4174 45.4345 68.6194 40.3208 68.4562 33.9193C68.4467 33.6584 68.4415 33.3827 68.4415 33.0968C68.4415 32.1361 68.4988 31.1269 68.6113 30.0971C68.6929 29.487 68.884 28.0559 68.8884 28.0191L69.4382 24.7518C69.4948 24.4174 69.5228 24.2491 69.5419 24.1704L69.5904 23.9712L69.5536 23.969C69.5867 23.5155 69.6198 22.9583 69.6198 22.4071C69.6198 20.1542 69.0487 18.7311 67.7675 17.7925L67.7579 17.7851L67.5903 17.6175L70.3526 14.018L70.274 13.9129C70.0579 13.6262 69.9329 13.3271 69.9013 13.0235L69.8587 12.6156L70.2453 12.753C70.4915 12.8405 70.74 12.9191 71.0046 12.9919L71.1163 13.0228L73.8625 9.44385L73.9881 9.65481C74.5027 10.5222 75.4237 10.9433 76.8019 10.9433C77.3664 10.9433 78.014 10.875 78.8409 10.728C78.8409 10.728 81.5539 10.3097 81.5775 10.3061C83.4562 10.0877 83.8135 10.0466 83.8708 10.04L84.0421 10.0216C84.5772 9.9694 85.1527 9.94294 85.754 9.94294C86.9389 9.94294 88.2222 10.0429 89.5688 10.2399C89.5769 10.2414 91.4954 10.5266 91.513 10.5288L93.9034 10.9264C94.254 10.9602 94.6553 10.9933 95.0611 10.9933C96.1328 10.9933 96.8811 10.7559 97.4169 10.2465C97.5352 10.1414 97.6323 10.0172 97.7256 9.8981L97.9932 9.56146L100.521 12.8868L100.642 12.8405C101.051 12.6839 101.612 12.481 102.327 12.2238C102.327 12.2238 102.701 12.0893 102.825 12.0444C103.751 11.707 104.506 11.4784 105.13 11.3469L105.621 11.2432L105.421 11.7041C105.25 12.0966 105.095 12.3936 104.935 12.6391L104.635 13.0985L105.144 12.8934C105.154 12.8897 105.513 12.7457 105.82 12.6236L105.496 13.2425C105.324 13.5733 104.658 14.623 104.041 15.078L103.906 15.1779L104.002 15.3154C104.007 15.322 104.011 15.3279 104.015 15.3345C104.079 15.4367 104.115 15.5954 104.115 15.7711C104.115 15.938 104.083 16.1041 104.029 16.2165C103.959 16.3606 103.854 16.5524 103.651 16.759L103.546 16.8656L104.226 17.7594L104.093 17.8594C102.788 18.8414 102.154 20.3548 102.154 22.4872L102.154 22.5585C102.15 22.668 102.148 22.7841 102.148 22.9032C102.148 23.3957 102.183 23.9308 102.25 24.4924L102.582 26.5777C102.815 27.9713 102.936 28.6917 102.94 28.7211C103.004 29.3341 103.171 30.9196 103.184 31.0416C103.265 33.0145 103.272 33.1923 103.272 33.2041C103.274 33.285 103.275 33.3695 103.275 33.4533C103.275 36.9058 102.117 40.4016 100.253 42.5781L100.216 42.6229C99.0031 44.0996 97.3412 46.1232 92.8074 47.719C90.2635 48.6444 88.0017 49.5507 86.0598 51.2751L86.0517 51.2817L85.9796 51.3641L85.9194 51.4295L85.7797 51.5846L85.6562 51.4618Z" fill="white"/>
<path d="M103.504 17.4352C103.468 17.3874 103.44 17.3668 103.412 17.3624C103.44 17.3668 103.468 17.3866 103.504 17.4352ZM103.507 17.4396C103.507 17.4381 103.505 17.4359 103.504 17.4352C103.505 17.4359 103.507 17.4381 103.507 17.4396ZM105.092 12.7199C105.263 12.4574 105.424 12.1428 105.592 11.7592L105.926 10.9918L105.107 11.1652C104.475 11.299 103.714 11.5291 102.78 11.8694C102.649 11.9165 102.477 11.9789 102.283 12.0488C101.64 12.2803 101.029 12.5008 100.594 12.6669L98.0106 9.26736L97.6041 9.77895C97.5115 9.89802 97.4233 10.0098 97.3123 10.109C96.811 10.586 96.1002 10.808 95.0756 10.808C94.6742 10.808 94.2751 10.7749 93.9458 10.7433L91.551 10.3457C91.5231 10.3413 89.6076 10.0568 89.6076 10.0568C88.2529 9.85833 86.9607 9.75763 85.7677 9.75763C85.0959 9.75763 84.4564 9.79071 83.8662 9.85539V9.85613C83.8081 9.86201 83.4884 9.89949 81.5633 10.1229C81.5317 10.1281 78.8267 10.5449 78.8238 10.5456C78.0071 10.6911 77.3691 10.758 76.8156 10.758C75.5029 10.758 74.6311 10.364 74.1496 9.55329L73.8938 9.12402L71.0639 12.8125C70.8184 12.7448 70.5744 12.6691 70.3171 12.5773L69.6725 12.3479L69.7431 13.0278C69.7798 13.3829 69.9261 13.707 70.1495 14.0032L67.3755 17.6189L67.657 17.9012L67.6791 17.9181C68.911 18.8207 69.4608 20.2011 69.4608 22.393C69.4608 23.0105 69.4189 23.6382 69.3822 24.1152H69.3873C69.3667 24.1997 69.3388 24.3651 69.2807 24.7091L68.7302 27.9837C68.7258 28.0183 68.5471 29.3575 68.4531 30.0647C68.3399 31.1003 68.2818 32.1162 68.2818 33.0827C68.2818 33.3694 68.2869 33.6487 68.2965 33.9097C68.4626 40.442 72.3701 45.649 78.7481 47.8373L78.7495 47.8336C78.8025 47.8578 78.8833 47.888 79.0053 47.9335C79.0053 47.9335 80.0006 48.3055 80.0079 48.3084L80.1586 48.3724C82.0396 49.1765 83.9852 50.0086 85.5465 51.5698L85.7986 51.8234L86.0588 51.5338L86.1198 51.4676C86.1198 51.4676 86.1573 51.4243 86.1867 51.3912C88.1052 49.6874 90.3529 48.7877 92.8771 47.8689C97.4564 46.2569 99.1352 44.2128 100.362 42.7192L100.396 42.6773C102.286 40.4714 103.46 36.9322 103.46 33.44C103.46 33.3547 103.459 33.2694 103.457 33.1871C103.457 33.1834 103.457 33.179 103.369 31.0151C103.365 30.9805 103.207 29.4759 103.124 28.6835C103.123 28.6791 103.122 28.6681 102.765 26.5365L102.433 24.4577C102.366 23.9021 102.333 23.3743 102.333 22.8892C102.333 22.7723 102.334 22.6584 102.339 22.5422L102.338 22.4731C102.338 20.3988 102.95 18.9302 104.208 17.9835L104.48 17.7799L103.786 16.867C104 16.6487 104.116 16.4443 104.195 16.2789C104.326 16.0084 104.349 15.5108 104.173 15.2308C104.167 15.2212 104.161 15.2124 104.155 15.2036C104.791 14.7339 105.468 13.6783 105.661 13.3094L106.2 12.2774C106.201 12.2766 105.101 12.7162 105.092 12.7199ZM71.6637 12.9801L73.8644 10.1193C74.6399 11.2373 75.9152 11.3167 77.1802 11.3608L78.0211 11.2711L81.6155 10.7058L84.0316 10.4295C86.3705 10.1634 88.6998 10.5287 90.9167 10.8389L94.1105 11.3608C95.4637 11.4593 96.9146 11.4269 97.8364 10.417L98.0128 10.2185L100.049 12.8948C100.046 12.8963 100.042 12.8977 100.039 12.8992C99.9967 12.919 99.932 12.947 99.8511 12.9808C99.5887 13.0756 99.2918 13.1844 99.0147 13.2954C98.9801 13.3079 98.9441 13.3196 98.9088 13.3321L98.8743 13.3241L97.8379 11.9583C96.7618 12.5684 95.4196 12.6566 94.123 12.5684L92.2589 12.2796L89.9545 11.9032L87.4936 11.6143C86.0191 11.4931 84.5108 11.5482 83.0797 11.7143L81.0385 12.0032L77.6455 12.5133C76.3371 12.6228 75.0729 12.4685 74.0188 11.8804L72.9662 13.2498C72.8295 13.2234 72.6928 13.1969 72.5502 13.1675C72.2268 13.1028 71.9372 13.0425 71.6637 12.9801ZM97.4453 19.3367C97.4145 19.6697 97.0264 19.7439 96.8977 20.0129L96.7155 20.1423C96.8757 20.132 97.0477 20.0343 97.1572 19.8946C97.4248 19.8093 98.2693 19.6337 98.3076 19.7983C98.345 19.9622 98.2671 20.1136 98.0172 20.2923C97.7673 20.4709 96.8764 20.8524 96.22 20.745C95.854 20.7348 95.51 20.8413 95.166 20.9163L93.4011 21.433C92.7896 21.5948 92.0737 21.68 91.4121 21.5198C90.4338 21.3375 89.4657 21.078 88.4315 21.1427C88.3154 21.1479 88.1515 21.2397 88.0868 21.3794C88.1948 21.3573 88.3558 21.3044 88.4639 21.3794C88.4492 21.5132 88.43 22.2526 88.1456 22.5319C88.0706 22.4467 88.0302 22.3092 87.9927 22.1872C87.9552 22.0652 87.5274 20.1952 88.3463 19.605C88.8358 19.4462 89.4745 19.7439 89.6363 19.8314C90.2684 20.1739 91.3482 20.3555 92.1869 20.6804C92.5522 20.637 92.9065 20.5187 93.2828 20.4753L95.8113 20.1416C96.2634 20.2268 96.3296 19.6469 96.725 19.605C96.9837 19.6153 97.1455 19.4205 97.3491 19.3036C97.3851 19.272 97.4453 19.2823 97.4453 19.3367ZM76.5915 20.4775C76.6885 20.3915 77.0251 20.3151 77.3441 20.3606C77.6624 20.4062 78.2328 20.5444 78.6628 20.8465C79.5346 21.1368 80.216 21.7381 81.1031 22.0152C81.1362 21.9388 81.0171 21.8741 80.9745 21.8204C81.5236 21.4007 82.094 21.0133 82.7077 20.7561C83.1047 20.2923 83.6317 19.8314 84.2771 19.9269L84.4233 19.9115C84.4233 19.9115 84.4263 20.06 84.4233 20.1195C84.405 20.4554 84.23 20.7906 84.0396 21.2508C84.0396 21.2508 83.5038 21.4492 83.2436 21.6058C83.0326 21.7329 81.1781 22.8208 81.1781 22.8208C80.6511 23.2398 80.3894 22.7708 79.8448 22.4018C79.2089 22.0681 78.5533 21.7454 78.0042 21.2294C78.0042 21.1552 78.1652 21.1971 78.0902 21.1111C77.7778 21.1434 77.5455 21.2515 77.2662 21.3382C77.1479 21.3926 76.8546 21.4911 76.7598 21.3081L76.8958 21.2721C77.0692 21.1552 77.1317 20.9222 77.4162 20.8538C77.2096 20.6546 76.8046 20.5833 76.5099 20.5642L76.5915 20.4775ZM99.9945 20.6289C100.017 20.784 99.7034 21.1537 99.3013 21.2434C98.8125 21.3529 98.4185 21.2581 98.1047 21.078C98.1194 21.4257 98.6957 21.5565 99.1183 21.4764C98.8831 21.7991 98.1672 22.0226 97.6298 22.002C97.0719 21.9799 96.6963 21.8123 96.2002 21.5058C96.1495 21.8417 96.7838 22.1262 97.2359 22.1622C96.3376 22.6569 95.3321 22.2975 95.2079 22.2644C94.9602 22.199 94.5949 22.0453 94.4008 21.8483C94.3883 22.1093 94.7404 22.3158 95.0543 22.3886C94.4633 22.6657 93.7106 22.357 93.4136 21.8645C94.3846 21.5823 95.1248 21.3243 96.1112 21.0788C97.0631 21.2375 97.9746 20.8384 98.3296 20.4224C98.4678 20.2607 98.5611 20.0622 98.567 20.0115C98.6567 19.9828 98.7839 20.0166 98.8713 20.0379C98.961 20.0593 99.9077 20.2732 99.9945 20.6289ZM91.9149 22.0424C92.378 22.0968 93.0123 22.0012 93.2284 21.9351C93.3343 22.1166 93.1226 22.4254 92.9447 22.3592C93.0204 22.6172 93.2585 22.9509 93.2159 23.2508C92.9903 23.1663 92.3243 22.9024 92.3243 22.9024C92.486 23.1714 92.7198 23.6455 92.6352 23.9888C92.3655 23.7852 91.798 23.7675 91.5716 23.5955C91.6789 24.005 91.948 24.5967 91.5929 24.984C91.2607 24.7474 91.0983 24.3703 90.8189 24.1013C90.8726 24.4886 90.9593 25.0906 90.6888 25.4471C90.5176 25.231 89.7803 24.9451 89.8009 24.6878C89.7259 24.665 89.5282 25.478 89.2805 25.6287C89.0343 25.2854 88.8233 24.801 88.4822 24.4901C88.5771 24.382 88.6961 24.4453 88.6513 24.2622C88.5543 24.0292 88.2015 23.8962 87.8126 23.7367C87.8707 23.6154 87.9111 23.5559 88.0346 23.3794C88.3499 22.9296 88.5469 22.5128 88.6219 22.2967C88.7454 21.9402 88.7865 21.8241 88.8152 21.5654C89.2165 21.6161 89.4937 21.6808 89.9847 21.7359C90.4955 21.7954 91.246 21.9593 91.9149 22.0424ZM83.5648 21.8998C83.4428 22.0328 83.3678 22.1063 83.3039 22.2644C83.1569 22.629 83.3039 23.1766 83.6795 23.4463C83.9301 23.6264 84.0147 23.6485 84.2168 23.7073C83.7228 23.8403 83.176 24.5511 83.173 24.9274C82.9819 24.7503 82.9312 24.4019 82.9797 24.0807C82.8437 24.2711 82.5424 24.4092 82.3586 24.4298C82.2947 24.2681 82.3263 23.8469 82.5144 23.6536C82.4402 23.5257 82.0124 23.5919 81.8147 23.7315C81.772 23.4735 81.8661 23.2707 82.1271 23.1112C82.0565 22.9649 81.897 23.0707 81.5434 23.1163C81.7691 23.006 82.1109 22.8223 82.4755 22.5885C83.0944 22.1923 83.5648 21.8998 83.5648 21.8998ZM83.7963 32.2051C84.3322 33.0636 84.38 33.0967 84.6703 33.5929C84.9607 34.089 86.1639 35.9443 86.3969 36.3213C86.6299 36.6984 87.8707 38.8014 88.6726 39.2101C88.0559 39.8812 88.3514 40.7125 87.3341 40.8771C86.7461 40.972 85.0966 41.4791 84.5262 40.5251C83.9558 39.571 83.6964 38.045 83.8684 36.8403C84.5931 37.9664 85.1128 38.4647 85.5119 38.6941C84.1881 37.2225 84.352 36.9153 83.7184 36.1192C83.4634 35.798 83.409 35.2791 83.3781 34.8865C83.3259 34.2177 83.3369 33.5421 83.3046 32.8718C83.2862 32.5094 83.3046 32.1242 83.1841 31.7773C83.137 31.6443 83.0415 31.2451 83.0121 31.1062C82.9827 30.9673 82.9974 30.785 82.9974 30.785C82.9974 30.785 83.2605 31.3466 83.7963 32.2051ZM87.806 19.3896C87.2474 19.7866 87.143 20.1489 86.2242 20.6172C85.7148 20.8766 85.2157 21.0898 84.8908 20.9281C84.5571 20.7458 84.6615 20.1445 84.66 20.0659C84.6585 19.9982 84.6674 19.9012 84.6703 19.8512C84.918 19.727 85.2752 19.8042 85.3767 19.4962C85.4612 19.2389 85.4399 18.9486 85.4943 18.6788C85.6009 18.4532 85.9243 18.3444 85.9882 18.0982C85.57 18.3665 85.2363 18.7759 84.7188 18.7531C84.5578 18.7112 84.6659 18.5054 84.5799 18.4098C84.4755 18.3687 84.4777 18.2871 84.4616 18.2114C84.5042 18.2172 84.5373 18.218 84.5402 18.218C84.5652 18.218 84.5843 18.1989 84.5843 18.1739C84.5843 18.1496 84.5652 18.1283 84.5402 18.1283C84.5152 18.1283 84.4579 18.1232 84.4057 18.1077C84.4013 18.104 84.3998 18.1011 84.3961 18.0982C84.3866 18.0114 84.4292 17.8931 84.3645 17.8299L84.1051 17.785C84.1271 17.5175 84.3109 17.2801 84.3212 16.9905C84.3645 17.0434 84.5262 17.0316 84.4498 17.1397C84.4072 17.183 84.4182 17.2587 84.4402 17.3021C84.4263 17.1742 84.8923 17.0074 84.6438 16.9192C84.5373 16.8986 84.2359 16.9684 84.2138 16.806C84.2138 16.57 84.3116 16.3657 84.441 16.1723C84.7107 16.398 85.0753 16.5913 85.1613 16.9574C85.2569 17.0654 85.3554 17.2043 85.495 17.2043C85.7964 17.086 85.9463 17.3866 86.2367 17.3661C86.2367 17.3021 86.2698 17.2367 86.3344 17.2154C86.4006 17.1816 86.4734 17.2154 86.5175 17.2705C86.5505 17.4094 86.4638 17.4954 86.3984 17.5822C86.2903 17.6674 86.1617 17.6895 86.022 17.7108C86.258 17.8725 86.4631 17.6138 86.6887 17.5601C86.7953 17.5388 86.9041 17.5814 86.9467 17.6895C87.0445 18.2386 86.8078 19.0331 87.4958 19.3036C87.5906 19.3463 87.6987 19.3573 87.806 19.3896ZM98.5244 39.3416C98.0797 39.2916 97.6997 39.3159 97.5394 39.7364C97.3145 40.2538 97.1918 40.6324 97.0153 40.9308C96.8051 41.2866 96.4641 41.596 95.8878 41.7562C95.3115 41.9165 94.5081 41.954 94.4089 41.6078C94.5566 40.9043 95.5129 40.7955 95.9194 40.5986C96.6802 40.231 96.75 39.5621 96.775 38.8727C95.7055 38.1847 93.5526 36.4764 93.5526 36.4764C93.5526 36.4764 95.4291 38.3398 96.428 39.005C96.428 39.5908 96.2752 39.9238 95.8106 40.181C95.507 40.3486 95.1608 40.4736 94.7323 40.6897C93.9995 41.1057 94.2178 41.6967 93.2262 42.0745C92.8102 42.2333 91.8068 42.3715 92.0693 41.8283C92.4449 41.2645 92.0443 41.2623 92.0443 41.2623C91.8157 41.3299 91.207 41.499 90.8917 41.5115C90.6984 41.5188 90.5036 41.3784 90.6727 41.2219C90.7344 41.1653 90.8314 41.1182 90.9336 41.0396C91.085 40.9234 91.1725 40.8477 91.2379 40.7309C91.3416 40.5449 91.4246 40.2942 91.3129 40.2296C91.1784 40.1509 90.9726 40.2053 90.8733 40.3134C90.4632 40.7683 90.4294 41.5313 89.2467 41.3115C89.2467 41.3115 87.8552 40.9911 88.9777 39.4254C89.2945 39.0042 88.4227 38.5118 87.9104 37.884C86.9313 36.6845 84.1374 32.1544 84.1374 32.1544C83.8471 31.7354 83.5405 31.2304 83.2737 30.8203C83.0069 30.4109 82.9194 29.5354 83.5325 29.62C83.8235 29.681 83.9184 29.8125 84.2432 29.6751C84.477 29.5766 84.4564 29.9265 84.2432 30.1021C84.108 30.2425 84.108 30.5035 84.2918 30.6446C84.5314 30.7828 84.5924 30.5101 84.8644 30.5873C85.1371 30.6652 85.3296 31.3208 85.8148 31.4605C85.9471 31.4928 86.0309 31.4833 86.0617 31.3966C86.1316 31.201 85.9074 30.9335 85.961 30.6946C86.0419 30.8409 86.2484 30.9938 86.5256 31.1466C86.8629 31.3326 87.0592 31.3782 86.9703 31.0952C86.8703 30.7747 86.821 30.5557 86.821 30.5557C86.788 30.3146 87.0026 30.1286 87.1658 30.1286C87.2606 30.1286 87.3606 30.2124 87.4267 30.3219C87.6399 30.7093 87.5377 30.9327 88.025 31.0864C88.7527 32.6292 90.6308 34.6057 91.3798 35.221C91.5363 35.3496 91.8179 35.5091 92.0369 35.5922C91.8708 35.4297 91.6054 35.1953 91.4871 35.0821C89.5172 33.1937 88.2713 31.4473 88.3044 31.0753C88.8681 30.8401 88.9556 30.2933 89.1195 30.3748C89.2018 30.4241 88.9416 30.8717 88.9879 31.0974C89.0151 31.229 89.1467 31.409 89.5025 31.4039C88.8645 32.0405 90.4874 32.5748 91.6907 32.5476C92.1251 32.8181 92.8837 33.2753 93.7915 33.4833C93.7915 33.4833 93.8804 33.917 94.1634 33.9317C94.1634 33.9317 94.8286 34.9615 95.7378 35.9376C96.6464 36.916 97.6739 38.5022 98.5244 39.3416ZM91.5033 38.2619C89.5605 36.1883 87.6318 33.0526 87.3745 32.9563C87.3745 32.9563 89.7686 36.5918 90.2037 37.2078C90.6389 37.8238 91.2306 38.4089 91.5099 38.905C91.5974 38.7602 91.7297 38.5037 91.5033 38.2619ZM87.9765 19.7439C87.1437 20.5356 88.1279 22.5378 87.5642 23.353C87.5032 23.4412 87.4385 23.55 87.3944 23.6374C86.946 23.4897 86.6748 23.4779 86.2948 23.4735C86.0698 23.4706 85.8023 23.5235 85.6215 23.5389C85.1731 23.5772 84.8394 23.5338 84.4285 23.6213C84.4594 23.5323 84.5174 23.4596 84.5983 23.3368C84.2153 23.3478 83.925 23.2714 83.7118 22.9921C83.5751 22.8002 83.5479 22.5665 83.6185 22.3739C83.7272 22.0769 84.0411 21.7998 84.1712 21.5257C84.1712 21.5257 84.3917 21.1817 84.4718 20.7656C84.5101 20.9023 84.5748 21.128 84.9482 21.214C85.2958 21.2941 85.6758 21.164 86.2933 20.8531C86.011 21.3015 85.6097 21.5815 84.8599 21.7021C85.1187 21.755 85.6097 21.6499 86.1132 21.3867C86.724 21.0663 87.4951 20.0071 87.4951 20.0071C87.6796 19.8439 88.0412 19.691 87.9765 19.7439ZM87.0408 22.5437C86.9041 22.798 86.7358 22.9958 86.194 23.02C85.5046 23.0509 85.3443 22.6444 85.3443 22.6444C85.387 22.8568 85.5355 23.3023 86.1992 23.2729C87.0438 23.2354 87.0408 22.5437 87.0408 22.5437ZM103.664 17.6799C102.39 18.6957 101.997 20.2342 101.92 20.7017C101.709 22.0549 101.664 23.5735 101.909 24.9039L102.586 29.1069L102.784 30.9467L102.863 33.0974C103.004 38.0634 100.614 44.717 92.461 47.3911L90.4882 48.1548C88.8248 48.8876 87.1952 49.6859 85.7758 50.9715C83.8015 49.2081 81.4736 48.2452 79.1229 47.3455C71.6387 44.9757 69.0139 38.6551 68.8779 34.3066C68.8125 32.8446 68.8676 31.2804 69.044 29.8169L69.3557 27.5986L69.8761 24.5937C70.1091 22.8965 70.1216 21.0126 69.5549 19.4609C69.2785 18.7516 68.7669 18.1077 68.1473 17.5542C68.8316 16.6479 69.6225 15.602 70.3296 14.6824C70.3414 14.7089 70.3524 14.7339 70.3642 14.7611C70.3701 14.775 70.3767 14.7897 70.3825 14.803C70.5016 15.1323 70.6347 15.3859 70.7398 15.5601C70.7927 15.66 70.8478 15.7615 70.9088 15.8644L69.7217 17.4535C71.186 19.1052 71.2631 21.4448 71.1962 23.6411L71.0198 25.0039L70.3759 28.8967L70.1223 31.1136L70.0437 33.154C69.7916 38.1369 73.5859 44.5193 80.5658 46.6149C82.3843 47.3455 84.1477 48.1879 85.7773 49.3875C87.4076 48.2004 89.1923 47.3698 91.0218 46.6575C99.0992 44.3833 101.544 38.1545 101.642 34.0412C101.733 32.5219 101.599 31.0246 101.443 29.5729L101.133 27.5096L100.712 24.9377C100.458 23.5095 100.51 21.7697 100.766 20.3841C101.2 20.1938 101.665 19.7719 101.949 18.87L101.991 18.7376C102.463 18.4113 103.043 17.8843 103.427 17.3624C103.482 17.3852 103.544 17.4866 103.664 17.6799ZM105.182 11.5996C104.622 12.8845 104.269 13.2564 103.409 13.5578C103.409 13.5578 100.632 14.409 99.9217 14.6817C99.0977 14.9978 98.4531 15.341 98.0326 15.5821C96.5545 14.6817 93.8378 15.3528 93.1784 15.6005C92.1156 15.9996 91.0262 16.6501 90.1229 17.2948C89.9883 17.1625 89.8083 16.9463 89.6561 16.9353C89.6561 16.9353 90.117 17.2154 90.0339 17.7012C90.1508 17.6682 90.6058 17.3256 90.916 17.5983C91.2276 17.8703 90.9093 18.1989 90.8006 18.4569C91.1343 18.1989 91.4922 17.9967 91.8561 18.2349C92.2604 18.4995 91.8046 18.9854 91.6701 19.214C91.97 19.1603 92.2795 18.9317 92.4926 19.2419C92.7058 19.5521 92.3853 19.7138 92.0825 19.885C92.3728 19.8637 92.3941 20.0901 93.2255 20.1416C92.8388 20.1783 92.4375 20.221 92.1795 20.2438C91.9928 20.2019 91.7708 20.096 91.4004 19.9924C90.4404 19.7233 89.8678 19.4256 89.49 19.3029C89.1122 19.1801 88.6682 19.1412 88.3837 19.2294C88.2309 19.2323 88.2286 19.2941 88.0978 19.3044C89.3687 18.8523 88.9887 17.3242 89.5922 16.3995C90.2052 15.2477 91.4856 14.9728 92.6257 14.7677C94.1097 14.5633 96.4347 14.3384 97.1227 14.1973C98.3634 13.943 99.9092 13.4373 100.221 13.2902C100.601 13.1116 102.268 12.5221 102.912 12.2876C103.556 12.0532 104.419 11.7614 105.182 11.5996ZM105.266 13.1227C105.081 13.6048 104.445 14.7111 103.75 15.0639C102.794 15.6012 101.44 15.8276 100.405 15.9437C99.577 16.0628 98.9301 15.9033 98.6302 15.8085C98.6302 15.8085 98.3223 15.71 98.2186 15.6321C99.7681 14.7978 101.659 14.2333 103.635 13.7026C104.732 13.3219 104.868 13.2814 105.266 13.1227ZM85.781 14.8022C85.3686 14.8552 84.8438 14.9536 84.5306 15.5152C84.3844 15.3969 84.4336 15.1558 84.5975 14.9426C84.7166 14.7875 85.1444 14.6192 85.781 14.8022ZM103.794 16.1047C103.692 16.3164 103.547 16.5377 103.249 16.7699C102.627 17.2948 99.6637 17.7226 98.531 17.3447C99.7328 16.8603 99.8578 16.4568 99.9313 16.1503C100.832 16.1165 102.183 16.0136 103.693 15.3557C103.869 15.3116 103.902 15.882 103.794 16.1047ZM97.3322 15.4513C97.6806 15.5681 98.2113 15.8107 97.965 15.8857C96.0723 16.2032 94.8293 16.7325 91.5621 17.9828C91.4511 17.9783 91.3144 17.9989 91.2048 18.0408C91.2416 17.8732 91.2269 17.6762 91.0372 17.4866C90.8844 17.3337 90.6322 17.2565 90.2419 17.3991C91.199 16.7743 92.1817 16.1481 93.2622 15.7504C94.1252 15.4329 95.0535 15.28 96.0561 15.2616C96.6684 15.2506 97.0264 15.3484 97.3322 15.4513ZM87.6024 15.5534C87.6303 15.6556 87.609 15.9313 87.4128 16.0342C87.0467 16.2047 86.8232 15.8254 86.5226 15.7394C85.9618 15.6527 85.2922 15.7497 84.7548 15.6093C84.8989 15.402 85.14 15.1815 85.4303 15.0837C85.7736 14.9764 86.4322 14.8302 86.899 14.975C87.3547 15.1161 87.5473 15.3675 87.6024 15.5534ZM88.05 15.746C88.05 15.832 88.0221 15.86 87.9809 15.9232C87.9398 15.9864 87.8486 16.0827 87.6737 16.0371C87.6531 15.8849 87.7398 15.7247 87.8788 15.6387C87.9537 15.6159 88.05 15.66 88.05 15.746ZM99.7357 16.1988C99.6777 16.4612 99.2918 16.7743 98.9897 16.9456C98.6523 17.1375 98.1708 17.2529 98.0077 17.5087C97.7916 17.7012 95.9172 18.2415 95.0337 18.4635C94.1502 18.6855 93.4283 18.8751 92.5808 19.0162C92.4221 18.8861 92.181 18.8957 92.0281 18.9229C92.2471 18.4708 92.1619 18.1643 91.7679 18.0474L96.0546 16.5016C96.8441 16.2745 97.8327 15.9937 98.4921 15.9732C98.9228 16.0768 99.2175 16.1988 99.7357 16.1988ZM86.6689 16.0048C86.9497 16.0915 87.4561 16.5987 87.5862 16.8574C87.6289 17.0617 87.5436 17.2551 87.4135 17.4065C87.2944 17.4499 87.1665 17.5792 87.1239 17.6954C87.1445 17.5675 87.1121 17.4499 87.0364 17.3521C86.9173 17.2771 86.7916 17.1448 86.738 17.0037C86.2911 17.0118 85.6317 17.0272 85.3906 16.8067C85.3855 16.7192 85.3524 16.6428 85.265 16.5384C85.4068 16.5215 85.9309 16.5671 86.2132 16.5766C86.4962 16.5869 86.8843 16.5818 86.96 16.6957C86.96 16.7486 86.9078 16.7486 86.874 16.7604C86.8416 16.7707 86.799 16.7486 86.7784 16.7707C86.8644 16.9111 87.0364 16.9419 87.1871 16.9C87.2738 16.8574 87.3179 16.7707 87.2628 16.6634C87.1797 16.5002 86.9842 16.4715 86.735 16.4377C86.4859 16.4032 85.1841 16.384 85.1841 16.384C85.0459 16.2326 84.7394 16.0143 84.5424 15.9158C84.5204 15.8195 84.6358 15.7357 84.699 15.7681C85.2267 15.9511 86.0889 15.9305 86.6689 16.0048ZM88.3764 16.0819C88.3565 16.1679 88.4095 16.1474 88.4844 16.2334C88.4844 16.3951 88.3764 16.5237 88.2485 16.5987C88.1302 16.6634 87.9479 16.706 87.8288 16.6097C87.7634 16.5678 87.6039 16.5237 87.6039 16.5237C87.6039 16.2436 87.9376 16.1033 88.1522 16.007C88.247 15.9643 88.3455 15.9864 88.3764 16.0819ZM75.4904 16.3017C76.7311 16.5186 76.6694 17.6388 76.9751 18.118C75.9284 18.1746 75.4668 18.2114 74.6627 18.0261C71.8174 17.3697 71.2764 16.0297 70.5112 14.2267C71.8901 15.4711 74.9104 16.2003 75.4904 16.3017ZM103.163 17.0507C102.538 17.9225 101.389 18.6516 100.943 18.8428C100.621 18.9817 100.199 19.0853 99.5064 18.9229C99.144 18.8391 98.8052 18.684 98.567 18.4936C98.1017 18.1217 98.1282 17.8674 98.1363 17.7365C98.1422 17.6468 98.2965 17.4499 98.4538 17.5006C100.168 17.9365 102.594 17.4131 103.163 17.0507ZM88.1493 16.8192C88.2037 16.8089 88.2478 16.7758 88.3124 16.7876C88.3859 17.0346 88.1147 17.1125 87.9567 17.1529C87.8383 17.1647 87.7729 17.0662 87.7303 16.9816C87.7303 16.9081 87.7318 16.8118 87.6781 16.7516C87.6796 16.7178 87.6928 16.6861 87.7303 16.6589C87.8288 16.7979 87.978 16.8736 88.1493 16.8192ZM77.0736 18.304C77.1611 18.4208 77.3228 18.8185 77.9153 19.2441C77.5838 19.3345 77.2265 19.3698 76.7098 19.397C76.0093 19.4337 75.3772 19.3602 75.3772 19.3602C74.3408 19.2764 73.0206 18.0305 72.6928 17.5461C73.3903 17.9129 74.3187 18.2033 75.0435 18.2922C75.7675 18.3797 76.4694 18.3936 77.0736 18.304ZM80.4453 19.1926C80.4387 19.3125 80.4607 19.4984 80.6827 19.6432C80.5342 19.6616 80.2057 19.6587 80.0307 19.7182C78.9465 19.6572 77.8594 19.3323 77.2442 18.2893C77.5183 18.2885 77.769 18.2709 78.1813 18.3598C78.7716 18.4877 79.6603 18.7494 80.4453 19.1926ZM99.5498 19.136C99.4991 19.3551 99.0676 19.6836 98.6133 19.7505C98.6008 19.7535 98.5523 19.4036 98.065 19.4359C97.7908 19.4543 97.7923 19.4925 97.599 19.5359C97.685 19.4168 97.66 19.2412 97.585 19.111C97.563 19.0787 97.5071 19.0265 97.463 19.0265C97.3351 19.0265 97.2006 19.0692 97.0396 19.1713C96.8757 19.275 96.7103 19.2478 96.5802 19.297C96.3509 19.383 96.1943 19.5175 96.0223 19.7843C95.9731 19.8218 95.904 19.8049 95.7922 19.7968C95.6871 19.7513 93.8547 20.0203 93.8547 20.0203C93.5121 19.9982 93.0417 20.0321 92.4441 19.849C92.4441 19.849 92.9395 19.6028 92.6779 19.1662C92.6779 19.1662 95.1469 18.6267 96.1223 18.354C97.0977 18.0813 97.624 17.9041 97.9525 17.7439C97.8945 17.9703 98.1128 18.3694 98.5031 18.6759C98.7728 18.8876 99.3241 19.0919 99.5498 19.136ZM101.616 18.6561C101.062 20.4187 99.4932 20.196 98.9338 19.8409C99.5116 19.6645 99.7563 19.175 99.7563 19.175C100.543 19.2389 101.069 19.0949 101.616 18.6561ZM79.8742 19.8174C79.6389 19.949 79.6999 20.132 79.7521 20.254C79.8264 20.4268 80.0212 20.5201 80.0212 20.5201C79.9109 20.5878 79.7808 20.7201 79.6823 20.8619C79.4309 20.7281 79.0759 20.5334 78.7664 20.4297C78.1902 20.0938 77.6396 19.8939 77.0413 19.935C76.8678 19.9468 76.4878 20.082 76.3636 20.1335C75.9571 20.0629 75.3456 19.7145 75.1824 19.5205C75.9299 19.6234 76.415 19.5969 76.848 19.5675C77.5889 19.5131 78.0726 19.3874 78.0726 19.3874C78.6856 19.6278 79.1229 19.8255 79.8742 19.8174ZM88.2051 24.349C88.0096 24.36 88.1346 24.443 87.7141 24.7657C87.6281 24.8304 87.3238 24.8731 87.0658 24.8466C87.1371 24.7135 87.2466 24.5952 87.1011 24.2997C86.9519 23.9954 86.7196 23.919 86.6101 23.9168C86.7806 24.0417 86.9144 24.1983 86.9938 24.3813C87.057 24.5283 87.0092 24.7018 86.8798 24.8304C86.7431 24.8635 86.5807 24.9524 86.466 25.0561C86.5689 24.6687 86.2279 24.0968 85.9441 24.016C86.1963 24.3541 86.4168 24.5901 86.2778 25.1752C86.1904 25.3721 85.4068 25.9109 85.1694 25.7154C84.7879 25.378 85.1003 25.1083 84.9592 24.7319C84.9276 24.6665 84.9048 24.5732 84.8497 24.5959C84.957 24.9613 84.7989 25.12 84.8276 25.4986C84.5652 25.5919 84.4241 25.6448 84.2374 25.6081C84.1506 25.5 84.0845 25.3236 84.1411 25.0428C84.1977 24.7621 84.4175 24.3945 84.6556 24.102C84.6556 24.102 84.5336 24.1439 84.4204 24.249C84.0808 24.5629 83.9051 24.973 83.9309 25.2641C83.9426 25.3986 83.958 25.5133 84.0573 25.6132C83.9867 25.6147 83.6273 25.5956 83.5229 25.3824C83.3178 24.9627 83.6185 24.5739 83.8434 24.2946C84.0279 24.0652 84.3315 23.9285 84.3315 23.9285C84.8048 23.7029 85.4906 23.7911 85.9677 23.7183C86.4454 23.6455 86.8468 23.7198 87.2466 23.8462C87.6465 23.9726 87.9038 24.1351 88.2051 24.349ZM95.5063 32.6799C95.5629 32.9931 95.1579 33.207 94.8462 33.2518L94.7477 33.2614C94.7573 32.9659 94.6985 32.4043 95.005 32.3484C95.3123 32.2926 95.4482 32.441 95.5063 32.6799ZM90.6499 29.2568C91.5268 30.3293 92.3449 30.8945 92.5169 31.0143C92.5169 31.0143 91.3173 29.8919 91.0769 29.4538C93.1012 31.0298 94.6809 31.6546 95.4335 32.1919C95.1535 32.1287 94.808 32.0963 94.6382 32.3227C94.4684 32.5491 94.5985 32.8982 94.4919 33.232C94.4339 33.4841 94.2626 33.5267 94.1759 33.5267C94.0252 32.5785 93.2718 32.43 93.2718 32.43C93.4614 32.6557 93.7025 32.8747 93.7569 33.2136C93.0505 33.0894 91.7157 32.272 91.7164 32.261C91.0167 32.2999 90.1677 32.2176 89.7223 31.928C89.2143 31.5958 90.2728 31.5414 89.8391 31.1952C89.6473 31.0423 89.426 31.2076 89.2643 30.9651C89.1548 30.8012 89.5598 30.4454 89.3849 30.1007C89.2746 29.8831 89.0615 29.8897 88.8792 30.0647C88.6932 30.2389 88.5866 30.932 88.0449 30.7953C87.7274 30.7152 87.8258 30.1771 87.487 29.9257C87.2657 29.7618 86.96 29.7611 86.7755 29.9529C86.5491 30.1889 86.6005 30.5086 86.6005 30.5086C85.9574 29.2296 86.5785 26.5129 86.5785 26.5129C85.8986 28.2792 85.9044 29.8045 86.4249 30.735C86.2587 30.6534 85.9868 30.3881 85.9184 30.2315C85.7736 29.9022 85.5604 29.4435 85.6156 28.9952C85.2106 29.7067 85.9912 30.9989 85.681 30.9923C85.4237 30.9871 85.4274 30.4836 85.1062 30.3138C84.7754 30.1389 84.6549 30.4329 84.5211 30.319C84.3726 30.1933 85.0738 29.6949 84.4608 29.345C84.1293 29.1554 83.9801 29.509 83.7089 29.3539C83.4369 29.198 83.087 29.2686 83.087 29.2686C82.9694 28.6468 83.75 25.8433 83.75 25.8433C84.2161 26.0763 84.8702 25.697 84.8702 25.697C85.2209 26.3564 85.9228 25.8176 86.2301 25.5618C86.4623 25.3677 86.5358 25.2038 86.8085 25.0833C87.104 24.9517 87.4488 25.1377 87.7509 25.0068C88.075 24.8657 88.1507 24.6702 88.1507 24.6702C88.5697 25.037 89.0688 26.3703 89.2687 26.8253C89.9553 28.3814 90.6499 29.2568 90.6499 29.2568ZM84.2771 19.4977C83.5876 19.3882 82.9915 19.6969 82.4608 20.3974C81.7676 20.6105 81.3486 20.8678 80.8099 21.4161C80.4269 21.2846 79.9896 21.0427 79.8602 20.9634C79.9403 20.7642 80.0829 20.6032 80.2718 20.5194C80.0969 20.4099 79.7926 20.2599 79.847 20.0629C79.9499 19.691 80.4306 19.9093 80.9628 19.6932C80.7496 19.5896 80.4975 19.4279 80.6011 19.1235C80.7033 18.8192 81.1752 18.8678 81.553 18.9604C81.345 18.7582 81.2987 18.4157 81.5214 18.2687C81.7448 18.1232 82.2314 18.1739 82.2314 18.1739C82.2425 17.9144 82.4343 17.7306 82.5769 17.527C82.3505 17.58 82.2197 17.8644 82.144 18.0357C81.4486 17.9776 81.134 18.3179 81.2928 18.7553C80.9591 18.6899 80.6165 18.7472 80.4857 19.0317C79.636 18.526 78.3673 18.1599 77.4654 18.1092C77.3309 18.1018 77.275 18.1033 77.1545 18.0871C77.0553 17.9776 76.9597 17.7034 76.9303 17.5932C76.8296 17.211 76.6429 16.67 76.246 16.4789C77.0766 16.5913 79.3096 17.0213 80.7055 17.602C79.6823 16.8464 76.9134 16.4656 75.2272 16.0724C73.9651 15.7776 72.2444 15.2374 71.1742 14.4803C70.5685 14.0525 70.2172 13.5527 70.1591 12.9955C70.9265 13.2682 71.5829 13.4108 72.4635 13.5901C73.0596 13.7114 73.5425 13.7923 74.3922 13.9731C75.1838 14.1422 76.3371 14.4825 76.3371 14.4825C78.1343 15 80.1454 14.6662 81.9095 15.2675C82.7019 15.5726 82.6636 16.5369 82.7812 17.2698L82.9709 17.4587C82.9702 18.4782 83.4597 18.8839 84.2771 19.4977ZM90.0097 29.212C90.863 30.2822 90.9233 30.2852 91.6672 31.029C91.2622 30.832 90.3889 30.0176 89.9126 29.4274C89.1827 28.5233 88.8431 27.7294 88.7197 26.8885C88.7204 26.8885 89.1563 28.1418 90.0097 29.212ZM80.7628 16.1554C79.7323 15.6049 78.2563 15.6541 77.4206 15.4373C76.5723 15.2168 76.4636 15.1631 76.4636 15.1631C76.7936 15.219 77.0994 15.3153 77.4544 15.3594C78.5827 15.4998 79.8278 15.5564 80.7716 15.9562C81.306 16.1826 81.5919 16.7236 81.7221 17.2984C81.5023 16.8545 81.1899 16.3833 80.7628 16.1554Z" fill="#094183"/>
<path d="M60.9573 39.5562L60.7552 39.5569L60.8051 39.7532C61.2829 41.6224 60.7772 43.4387 59.4541 44.6118L59.0366 44.9823L59.5864 44.886C60.0083 44.8125 60.567 44.7331 61.1528 44.7787C62.5317 44.8654 63.5042 45.1484 64.2988 45.682C64.2562 45.8915 63.4682 49.7894 63.4682 49.7894C63.4542 49.8512 63.4476 49.9122 63.4476 49.9703C63.4476 50.2327 63.577 50.4613 63.7115 50.6546L63.7188 50.6649L63.7269 50.6737C64.3319 51.3103 65.1022 51.5219 65.8461 51.7278L65.9085 51.7447C69.1604 52.5032 72.593 51.8277 75.5766 49.8446L77.1834 48.7957L77.8897 48.3598L78.7402 47.8379C80.3779 46.8669 81.7267 46.3384 83.2482 46.0731C86.3964 45.5196 89.7688 46.1899 92.2716 47.8666C92.2811 47.8725 92.5987 48.0577 92.5987 48.0577C92.5906 48.0533 94.7097 49.4418 94.7097 49.4418C94.7105 49.444 96.024 50.2738 96.024 50.2738C98.9325 52.1012 102.7 52.6436 105.857 51.6888C106.39 51.5109 107.494 51.1434 107.65 50.1753L107.655 50.1474C107.655 50.1474 106.859 46.0077 106.825 45.8305C106.827 45.8298 106.94 45.7467 106.94 45.7467L106.904 45.7746C108.233 45.0315 109.974 44.772 111.561 45.0822L112.135 45.1947L111.695 44.8081C110.37 43.643 109.874 41.8238 110.367 39.9406L110.418 39.7443L110.216 39.7421C108.201 39.7201 106.323 39.9987 104.634 40.5713C103.794 40.894 102.534 41.3783 102.163 42.5169L102.156 42.5397L102.112 45.8415C102.112 45.843 102.105 46.7662 102.103 47.1426C100.141 47.1014 98.5172 46.1179 97.1471 45.1881C97.1479 45.1888 96.6686 44.8573 96.6686 44.8573C96.6657 44.8544 94.7075 43.5747 94.7075 43.5747C92.3855 42.1354 90.0841 41.2799 87.6739 40.955C83.5466 40.4154 79.4238 41.4225 75.7486 43.8679C75.7471 43.8687 73.9021 45.1234 73.9021 45.1234C72.4526 46.0767 70.8752 47.0036 68.9604 47.0257C68.9626 46.7794 68.9825 42.6544 68.9825 42.6544C68.9715 41.9965 68.4672 41.3879 67.4801 40.8425C65.6704 39.9641 63.5388 39.5437 60.9573 39.5562Z" fill="#094183"/>
<path d="M67.0125 44.3097C67.5388 44.1583 68.0783 43.9915 68.5164 43.5806C68.5157 43.804 68.5069 46.9133 68.5069 47.025C67.3617 46.9934 66.0732 46.8375 65.1051 45.9672C65.1044 45.965 65.0639 45.9121 65.0639 45.9121C64.9566 45.7739 64.8662 45.6578 64.8662 45.5137C64.8662 45.4623 64.878 45.4064 64.9052 45.3469C65.186 44.8257 65.7424 44.6736 66.279 44.5266L66.7163 44.3972C66.7148 44.3972 67.0125 44.3097 67.0125 44.3097Z" fill="white"/>
<path d="M102.578 43.7622C103.103 44.2223 103.75 44.4149 104.381 44.5928C104.936 44.7479 105.509 44.9096 105.983 45.2602C106.128 45.3896 106.196 45.5021 106.196 45.6197C106.196 45.6718 106.183 45.724 106.158 45.7799C105.852 46.3606 105.141 46.6487 104.633 46.8148C103.959 47.0037 103.284 47.1 102.577 47.1133C102.578 47.0001 102.578 43.9702 102.578 43.7622Z" fill="white"/>
<path d="M61.4183 41.1094C61.4183 40.7427 61.3771 40.37 61.3065 39.9958C63.2684 40.0745 65.5257 40.3009 67.4853 41.3601C67.9748 41.6725 68.5291 42.1025 68.5291 42.6729C68.5291 42.6883 68.5291 42.703 68.5283 42.7177C68.4365 43.4476 67.6985 43.6703 67.048 43.8666L66.1997 44.1268C65.5073 44.3194 64.7987 44.5281 64.4797 45.2455C63.3639 44.5752 61.9622 44.2672 60.3076 44.3297C61.025 43.4748 61.4183 42.3326 61.4183 41.1094Z" fill="white"/>
<path d="M105.377 44.4187L105.308 44.3922L104.485 44.1438C103.815 43.9659 103.182 43.7976 102.708 43.2705C102.621 43.1456 102.583 42.9846 102.583 42.8244C102.583 42.6803 102.614 42.5392 102.664 42.426C103.28 41.4778 104.334 41.1463 105.353 40.8265L105.621 40.7413C106.873 40.4009 108.262 40.2194 109.858 40.1812C109.788 40.5854 109.746 40.9809 109.746 41.3609C109.746 42.5943 110.119 43.6792 110.822 44.5157C109.201 44.4518 107.794 44.7524 106.635 45.4073C106.445 44.8369 105.858 44.6024 105.377 44.4187Z" fill="white"/>
<path d="M73.6309 45.8498L76.4822 44.0137C79.9361 41.8174 83.6518 40.9485 87.524 41.4329C89.7578 41.7218 91.8887 42.4804 94.0357 43.7513L95.8704 44.8994L97.7477 46.1218C99.5485 47.3456 101.74 47.8344 103.918 47.497C104.797 47.3037 105.779 47.0744 106.441 46.2761C106.48 46.4746 107.194 50.1719 107.194 50.1719C107.089 50.6849 106.527 50.9363 106.076 51.1377L105.961 51.1891C102.689 52.2755 98.7194 51.625 95.6043 49.4897C95.6036 49.489 92.7751 47.6315 92.7751 47.6315C89.8335 45.7337 86.3148 45.0515 82.8653 45.7101C81.1739 46.0336 79.5186 46.7443 77.6538 47.9476L75.0437 49.6412C72.4909 51.2737 69.4978 51.9073 66.6164 51.4251C65.7336 51.2546 64.82 51.0796 64.1217 50.4343C63.9791 50.2799 63.9063 50.1417 63.8887 49.9888C63.8909 49.9888 64.5686 46.6091 64.6656 46.1254C65.6153 47.1721 66.9876 47.4007 68.3416 47.4742C70.0932 47.5617 71.7735 47.0442 73.6309 45.8498Z" fill="white"/>
<path d="M66.2976 48.1488L65.2847 47.9996C65.259 48.0187 65.2502 48.0768 65.2502 48.0768C65.3472 48.1268 65.3523 48.1488 65.345 48.2047L65.0649 50.0952C65.0568 50.1504 65.0466 50.1695 64.9628 50.1673C64.9385 50.1879 64.9297 50.2481 64.9297 50.2481C64.9488 50.2746 65.5934 50.3694 65.5934 50.3694L65.6162 50.3738L65.6294 50.29C65.5508 50.2511 65.5332 50.2298 65.5332 50.1945C65.5332 50.1849 65.5339 50.1754 65.5354 50.1643C65.5354 50.1643 65.6464 49.4175 65.6464 49.4116C65.6486 49.433 66.0984 49.4999 66.0984 49.4999C66.6806 49.5866 66.9393 49.2676 66.9893 48.9412C67.0371 48.6141 66.8812 48.2341 66.2976 48.1488ZM66.083 49.086C66.083 49.086 65.6853 49.0272 65.6816 49.0272C65.703 49.025 65.775 48.5472 65.7845 48.4826C65.8257 48.4892 66.1638 48.5392 66.1638 48.5392C66.3344 48.5634 66.4358 48.6068 66.4858 48.6737L66.5196 48.8721C66.4902 49.0713 66.3711 49.1294 66.083 49.086ZM68.2418 48.3804C67.9551 48.3716 67.703 48.4605 67.5119 48.6398C67.2936 48.8449 67.1657 49.1581 67.1539 49.5204C67.1304 50.2224 67.5369 50.7075 68.1646 50.7288C68.4513 50.7384 68.7027 50.6487 68.8938 50.4701C69.1136 50.265 69.2407 49.9526 69.2525 49.5895C69.2642 49.2264 69.1577 48.9059 68.9518 48.6862C68.7732 48.4958 68.5277 48.3907 68.2418 48.3804ZM68.5623 50.1901C68.4638 50.2834 68.3337 50.3275 68.1778 50.3224C67.8074 50.3106 67.6126 50.0306 67.628 49.5359C67.6369 49.2551 67.7126 49.0412 67.8463 48.9177C67.9434 48.8258 68.0727 48.7817 68.2278 48.7876C68.3837 48.7927 68.5101 48.8449 68.602 48.9434C68.7262 49.0765 68.7872 49.2948 68.7784 49.5734C68.7703 49.8519 68.6953 50.0658 68.5623 50.1901ZM70.577 49.0544C70.3051 49.0522 70.0713 49.05 70.0353 48.8832C70.0037 48.7303 70.0963 48.6215 70.297 48.5788C70.6351 48.5075 70.8372 48.6163 70.8541 48.6957L70.8622 48.7472C70.8835 48.7861 70.9482 48.7986 70.9482 48.7986C70.9747 48.7839 71.1753 48.1988 71.1753 48.1988L71.2025 48.1187L71.0945 48.1694L71.0239 48.229L70.9144 48.2135L70.788 48.1885C70.627 48.1591 70.4484 48.1658 70.2565 48.2054C69.6553 48.3348 69.5178 48.7354 69.5825 49.0397C69.6803 49.5006 70.1507 49.5065 70.5285 49.5101C70.8174 49.5138 71.0666 49.5168 71.1055 49.6976C71.1055 49.699 71.0761 49.9034 71.0761 49.9034C71.0173 49.9945 70.8835 50.0629 70.6785 50.107C70.4998 50.1437 70.236 50.1364 70.1191 50.0592L70.0647 49.9901L70.0507 49.9343L69.9868 49.921C69.9589 49.9379 69.817 50.5105 69.817 50.5105C69.817 50.5105 69.8317 50.5135 69.8398 50.5149V50.5164L69.8861 50.5341C69.889 50.5282 69.892 50.5289 69.8949 50.5238C69.9023 50.5245 69.917 50.5267 69.917 50.5267C69.9309 50.5002 69.9397 50.4855 69.95 50.4841C69.9508 50.4833 70.0853 50.4966 70.0853 50.4966L70.2169 50.5208C70.2176 50.5208 70.7387 50.5091 70.7387 50.5091C71.4113 50.3665 71.6392 49.9291 71.5657 49.5829C71.4569 49.0618 70.9681 49.0581 70.577 49.0544ZM73.2548 49.4256C73.2548 49.4256 72.5447 47.871 72.5411 47.8629C72.5513 47.8806 72.9968 47.6791 72.9968 47.6791C73.0835 47.6395 73.1041 47.6424 73.1409 47.6997C73.1695 47.7078 73.2246 47.6828 73.2246 47.6828C73.2364 47.6527 73.0144 47.1654 73.0144 47.1654C72.9836 47.1536 72.9284 47.1786 72.9284 47.1786C72.9255 47.2514 72.9159 47.2697 72.8285 47.3102L71.5046 47.9122C71.4113 47.9548 71.3937 47.946 71.3679 47.91C71.34 47.9026 71.2856 47.9276 71.2856 47.9276C71.2738 47.9577 71.4951 48.4458 71.4951 48.4458C71.5252 48.4576 71.5811 48.4326 71.5811 48.4326C71.5804 48.4193 71.5789 48.4076 71.5789 48.3973C71.5789 48.3333 71.598 48.315 71.6715 48.2819C71.6715 48.2819 72.1368 48.0695 72.1383 48.0695C72.1383 48.0695 72.1383 48.0695 72.1383 48.0709C72.1383 48.1231 72.8196 49.6233 72.8196 49.6233C72.8299 49.6454 72.8358 49.6623 72.8358 49.6763C72.8358 49.6983 72.8226 49.7123 72.7968 49.7314C72.7961 49.7343 72.7954 49.7395 72.7954 49.7432C72.7954 49.7733 72.8138 49.8152 72.8138 49.8152C72.8454 49.8269 73.4055 49.5712 73.4055 49.5712L73.4268 49.5609L73.3908 49.4852C73.2959 49.491 73.279 49.4793 73.2548 49.4256ZM75.6209 47.6608C75.6216 47.6747 75.6231 47.6872 75.6231 47.6975C75.6231 47.7387 75.6077 47.76 75.54 47.8034C75.54 47.8034 74.7183 48.3348 74.7146 48.337C74.7146 48.337 74.7153 48.337 74.7153 48.3348C74.7153 48.301 74.4588 47.9026 74.4242 47.8475C74.4595 47.8247 74.8638 47.5615 74.8638 47.5615C74.9491 47.5072 74.9682 47.5116 74.9954 47.5373C75.024 47.5395 75.074 47.5072 75.074 47.5072C75.0806 47.4741 74.8065 47.0507 74.8065 47.0507C74.7734 47.0441 74.7241 47.0771 74.7241 47.0771C74.7263 47.0918 74.7271 47.1036 74.7271 47.1139C74.7271 47.1565 74.7094 47.1778 74.644 47.2197C74.644 47.2197 74.1868 47.5138 74.1839 47.516C74.1861 47.5152 74.1861 47.5152 74.1861 47.5138C74.1861 47.477 73.9156 47.0602 73.9141 47.058C73.9273 47.0764 74.683 46.5876 74.683 46.5876C74.769 46.531 74.7873 46.5362 74.8138 46.5619C74.8417 46.5656 74.8939 46.5325 74.8939 46.5325C74.9005 46.5001 74.6256 46.0768 74.6256 46.0768C74.5926 46.0687 74.5426 46.1018 74.5426 46.1018C74.5499 46.1708 74.5485 46.1914 74.4639 46.2458L73.2041 47.0595C73.1967 47.0926 73.2291 47.1418 73.2291 47.1418C73.3709 47.0926 73.3841 47.1132 73.4136 47.1558L74.4492 48.7589C74.4794 48.806 74.486 48.8251 74.3992 48.8971C74.3948 48.928 74.4272 48.9772 74.4272 48.9772C74.4595 48.9846 75.762 48.143 75.762 48.143C75.848 48.0878 75.8657 48.0937 75.8936 48.1253C75.9237 48.1297 75.9759 48.0967 75.9759 48.0967C75.9825 48.0643 75.7032 47.6328 75.7032 47.6328C75.6701 47.6277 75.6209 47.6608 75.6209 47.6608ZM77.5474 46.6354L77.4739 46.5906L76.8425 46.2267C76.8491 46.2194 76.8521 46.2113 76.858 46.2039C77.0733 46.0055 77.0932 45.7217 76.9079 45.4336C76.6904 45.0977 76.3059 45.0514 75.9039 45.3116L75.0064 45.8923C74.9983 45.9246 75.0292 45.9746 75.0292 45.9746C75.1269 45.9533 75.1453 45.9628 75.1769 46.0113L76.2155 47.6152C76.2486 47.6674 76.2457 47.6865 76.1994 47.7291C76.1964 47.7593 76.2295 47.81 76.2295 47.81C76.2611 47.8173 76.7845 47.4785 76.7845 47.4785L76.805 47.4653L76.7587 47.3947C76.6639 47.416 76.6463 47.4072 76.6139 47.3565C76.6139 47.3565 76.2023 46.7251 76.1994 46.7184C76.2133 46.7346 76.5169 46.5391 76.5176 46.5384C76.5176 46.5523 77.1652 46.9206 77.1652 46.9206L77.2725 46.997C77.274 46.9985 77.2755 47.0022 77.2755 47.0073C77.2755 47.0176 77.2689 47.0338 77.235 47.0602V47.0676C77.235 47.0977 77.263 47.1418 77.263 47.1418C77.2953 47.1485 77.8282 46.803 77.8282 46.803C77.8348 46.7699 77.8018 46.7214 77.8018 46.7214C77.7187 46.7383 77.679 46.7148 77.5474 46.6354ZM76.3846 46.1422C76.3839 46.1422 75.9759 46.4075 75.9722 46.4097C75.973 46.409 75.973 46.409 75.973 46.4075C75.973 46.373 75.726 45.9863 75.6907 45.9334C75.726 45.9099 76.0832 45.6769 76.0832 45.6769C76.2817 45.5505 76.4265 45.5644 76.5272 45.7203C76.5279 45.7203 76.575 45.9158 76.575 45.9158C76.5588 45.9952 76.4948 46.0701 76.3846 46.1422ZM81.8121 44.2414C81.7864 44.2406 81.7409 44.2715 81.7409 44.2715C81.735 44.3053 81.7739 44.3781 81.7739 44.3781C81.7747 44.3788 81.7511 44.5236 81.7511 44.5236C81.6945 44.6309 81.5733 44.7257 81.441 44.7669C81.2888 44.8117 81.1359 44.7985 80.9992 44.7257C80.8301 44.6353 80.7 44.4604 80.6309 44.2311C80.5449 43.951 80.5442 43.7276 80.6302 43.5673C80.6993 43.4365 80.8228 43.3461 81.0095 43.2895C81.2116 43.227 81.4336 43.2932 81.474 43.4269L81.4784 43.4416L81.5027 43.4865L81.5439 43.4894C81.5696 43.4718 81.6909 42.897 81.6909 42.897L81.7041 42.8308L81.6218 42.8624L81.5541 42.919C81.5534 42.9197 81.4579 42.9021 81.4579 42.9021L81.3461 42.8749C81.1918 42.844 81.0404 42.8529 80.8816 42.9014C80.3568 43.0616 79.9356 43.5776 80.1767 44.3693C80.3751 45.019 80.9272 45.3461 81.5196 45.1653C81.8981 45.0506 82.0305 44.8522 82.1106 44.7338L82.1826 44.6508C82.198 44.6456 82.2194 44.653 82.2451 44.6677C82.2789 44.6574 82.2987 44.6096 82.2987 44.6096C82.2921 44.5817 81.8121 44.2414 81.8121 44.2414ZM84.1349 44.3354L84.0886 44.2671C84.0886 44.2671 83.6755 43.679 83.6689 43.6688C83.6784 43.6643 83.6858 43.6585 83.6946 43.6541C83.9739 43.5644 84.1084 43.3174 84.0614 42.9793C84.0063 42.5838 83.6762 42.3788 83.2006 42.4442L82.1407 42.5949C82.1216 42.6206 82.1297 42.6809 82.1297 42.6809C82.226 42.7014 82.2385 42.7176 82.2466 42.7764L82.5141 44.6662C82.5207 44.728 82.5112 44.7449 82.4516 44.7647C82.4369 44.7897 82.4443 44.8492 82.4443 44.8492C82.4707 44.8691 83.0897 44.7816 83.0897 44.7816L83.1124 44.7787L83.1021 44.6978C83.0044 44.675 82.9912 44.6581 82.9853 44.6023C82.9853 44.6023 82.8794 43.8562 82.878 43.8496C82.8824 43.8709 83.2425 43.8194 83.2433 43.8194C83.2433 43.84 83.6696 44.4376 83.6696 44.4376L83.7343 44.5515V44.556C83.7343 44.5655 83.7277 44.5817 83.6755 44.5934C83.6659 44.6074 83.6637 44.6302 83.6637 44.6486C83.6637 44.6655 83.6659 44.678 83.6659 44.678C83.6917 44.6986 84.3186 44.6103 84.3186 44.6103C84.3385 44.5839 84.3304 44.5243 84.3304 44.5243C84.2481 44.5016 84.2201 44.4648 84.1349 44.3354ZM83.5564 43.2762C83.5086 43.3409 83.4182 43.3821 83.2881 43.4005C83.2881 43.4005 82.8067 43.4688 82.8037 43.4696C82.8059 43.4688 82.8067 43.4615 82.8067 43.4468C82.8067 43.3475 82.7559 42.98 82.7479 42.919C82.789 42.9131 83.2109 42.8536 83.2109 42.8536C83.4454 42.8213 83.5704 42.8948 83.5961 43.0793L83.5564 43.2762ZM86.1011 44.187H85.1162C85.1162 44.187 85.1367 43.6607 85.1382 43.6166C85.1794 43.6166 85.6645 43.6166 85.6645 43.6166C85.7659 43.6166 85.7799 43.632 85.7865 43.6666L85.8696 43.6849L85.8938 43.1564L85.81 43.1336C85.7799 43.1947 85.7674 43.2108 85.6652 43.2108H85.1169L85.1397 42.6757L86.0423 42.6992C86.143 42.6992 86.1555 42.7132 86.1629 42.75L86.2467 42.7683L86.2694 42.2384L86.1864 42.2156C86.1548 42.2773 86.1423 42.2928 86.0416 42.2928H84.5406L84.5171 42.3766C84.6641 42.4126 84.6641 42.4361 84.6641 42.4875V44.3987C84.6641 44.4545 84.6582 44.4744 84.5458 44.4883L84.5252 44.5707L86.1011 44.5942C86.2033 44.5942 86.2151 44.6096 86.2231 44.6515L86.3062 44.6706L86.3305 44.134L86.2467 44.1113C86.2151 44.1723 86.204 44.187 86.1011 44.187ZM88.06 43.2013C88.0909 43.1954 88.4753 42.7132 88.4753 42.7132L88.4569 42.6992V42.6985L88.4547 42.6963L88.4084 42.6595C88.382 42.6838 88.3599 42.6963 88.3232 42.6912L88.2247 42.6397L88.1137 42.5735C87.9711 42.4927 87.8013 42.439 87.6102 42.4133C87.0023 42.3324 86.7377 42.6625 86.6958 42.9697C86.6333 43.438 87.0743 43.5997 87.4286 43.7305C87.6991 43.8305 87.9321 43.9157 87.9079 44.0995L87.8108 44.2833C87.7248 44.3494 87.5749 44.3685 87.3676 44.3413C87.189 44.3171 86.9442 44.2222 86.8597 44.1105L86.831 44.0253L86.8369 43.9694L86.7803 43.9363C86.7487 43.9429 86.4231 44.4347 86.4231 44.4347L86.4113 44.4523L86.4694 44.4964C86.5054 44.4898 86.5605 44.4508 86.5613 44.4508C86.5613 44.4516 86.6781 44.5082 86.6781 44.5082L86.7965 44.5765C86.7972 44.5765 87.2934 44.7404 87.2934 44.7404C87.7256 44.7978 87.9843 44.6831 88.1254 44.5751C88.2658 44.467 88.3577 44.3149 88.3798 44.1465C88.4496 43.6188 87.9917 43.4519 87.6234 43.3167C87.3698 43.2233 87.1515 43.1425 87.1735 42.9741L87.2544 42.8242C87.3161 42.7779 87.4058 42.7617 87.5212 42.7779C87.8241 42.819 87.9431 42.9477 87.9733 42.9866L88.0064 43.0741C87.9983 43.1175 87.9924 43.1454 87.9924 43.1454C88.0049 43.1682 88.06 43.2013 88.06 43.2013ZM90.1997 45.1212C90.235 45.1315 90.2769 45.1036 90.2769 45.1036C90.2865 45.0749 90.0623 44.5302 90.0623 44.5302C90.0395 44.5155 89.9866 44.5185 89.9866 44.5185C89.9645 44.5449 89.9586 44.6258 89.9586 44.6258C89.9586 44.628 89.8579 44.739 89.8579 44.739C89.7521 44.7993 89.6043 44.814 89.472 44.7757C89.1199 44.6802 88.9568 44.3163 89.0722 43.8929C89.1486 43.61 89.2684 43.4203 89.4265 43.3314C89.5529 43.2593 89.7102 43.2483 89.8925 43.299C90.0182 43.3336 90.1306 43.4144 90.1865 43.5122L90.2152 43.6724L90.2056 43.729L90.2387 43.7548C90.2703 43.7533 90.676 43.3328 90.676 43.3328L90.7231 43.2851L90.6393 43.2682L90.5525 43.2799L90.4834 43.2174L90.3989 43.1314C90.2872 43.0234 90.1541 42.9499 89.9924 42.9058C89.7028 42.8249 89.4088 42.8573 89.1655 42.9962C88.9016 43.1461 88.7113 43.4137 88.6142 43.768C88.4356 44.4222 88.7274 44.9933 89.3228 45.1565C89.7043 45.2601 89.9226 45.1631 90.052 45.1065L90.1564 45.0749C90.1725 45.0793 90.188 45.0962 90.1997 45.1212ZM91.9998 45.929L92.1351 43.9966L92.1498 43.8782C92.1564 43.8635 92.1682 43.8341 92.2321 43.8577C92.2615 43.8452 92.285 43.7893 92.285 43.7893C92.2718 43.7592 91.6147 43.4799 91.6147 43.4799C91.5845 43.4923 91.5618 43.5482 91.5618 43.5482C91.6206 43.5989 91.6294 43.618 91.6294 43.6269C91.6294 43.6291 91.6286 43.6313 91.6286 43.632L91.5412 43.7408C91.5382 43.743 90.2475 45.1852 90.2475 45.1852C90.2159 45.219 90.185 45.2491 90.1497 45.2381C90.1211 45.252 90.099 45.3064 90.099 45.3064C90.1122 45.3366 90.6312 45.5571 90.6312 45.5571L90.6525 45.5659L90.6848 45.4902C90.6363 45.4498 90.6246 45.4204 90.6246 45.4013C90.6246 45.391 90.6275 45.3836 90.629 45.3799L90.6694 45.3233C90.6724 45.3219 90.9179 45.0433 90.9186 45.0411C90.9193 45.0573 91.597 45.3454 91.6007 45.3469C91.5867 45.3483 91.561 45.7408 91.561 45.7408C91.5603 45.743 91.55 45.807 91.55 45.807C91.5463 45.8136 91.5434 45.821 91.4883 45.8063C91.4618 45.8195 91.4375 45.8746 91.4375 45.8746C91.4493 45.9048 91.9859 46.1326 91.9859 46.1326C92.016 46.1201 92.041 46.065 92.041 46.065C92.002 46.018 91.9932 46.0084 91.9998 45.929ZM91.7242 44.1267C91.6852 44.2957 91.6191 44.9757 91.6169 45.0036L91.5985 44.9955C91.5485 44.9521 91.2229 44.811 91.1531 44.7809C91.1891 44.7397 91.6639 44.1759 91.7264 44.1024L91.7242 44.1267ZM94.1035 47.2352L95.1436 45.5718C95.1627 45.5402 95.1848 45.5277 95.237 45.5563C95.2678 45.5483 95.3009 45.4975 95.3009 45.4975C95.2928 45.4659 94.6578 45.0683 94.6578 45.0683C94.6254 45.0756 94.5931 45.1271 94.5931 45.1271C94.6144 45.166 94.6217 45.1859 94.6217 45.1991C94.6217 45.2079 94.6188 45.2131 94.6144 45.2204C94.5953 45.2484 94.3689 45.4079 94.1285 45.5755C94.1285 45.5755 93.6103 45.9437 93.5302 46.0003C93.5324 45.9908 93.5346 45.979 93.5361 45.968C93.5802 45.8408 93.6471 45.4652 93.6471 45.4652C93.6985 45.158 93.7676 44.736 93.7889 44.7C93.7955 44.6897 93.8058 44.6809 93.8529 44.6897C93.8771 44.6794 93.908 44.6295 93.908 44.6295C93.9007 44.5979 93.259 44.1943 93.259 44.1943C93.2259 44.2017 93.195 44.2524 93.195 44.2524C93.2435 44.3163 93.2413 44.3399 93.2222 44.3715L92.1829 46.0349C92.1601 46.0701 92.1358 46.076 92.0961 46.054C92.0645 46.0621 92.0329 46.1142 92.0329 46.1142C92.041 46.1459 92.535 46.4531 92.535 46.4531L92.5555 46.4663L92.5982 46.398C92.557 46.3517 92.5438 46.3252 92.5438 46.3054C92.5438 46.2921 92.5497 46.2811 92.557 46.2701C92.557 46.2701 93.2707 45.1278 93.367 44.9727C93.3626 44.9867 93.3611 45.0007 93.3582 45.0146C93.2847 45.2638 93.1127 46.1098 93.1127 46.1098L93.0032 46.7302C93.0135 46.7545 93.0679 46.7875 93.0679 46.7875C93.0951 46.7868 93.6596 46.3811 93.6596 46.3811C93.6596 46.3811 94.4321 45.807 94.5651 45.7078L94.5291 45.7658C94.3292 46.0444 93.7294 47.0029 93.7294 47.0029C93.7118 47.0308 93.6934 47.0477 93.6287 47.0132C93.5986 47.0213 93.5655 47.0705 93.5655 47.0705C93.5736 47.1029 94.0815 47.4212 94.0815 47.4212C94.1138 47.4131 94.1462 47.3623 94.1462 47.3623C94.0778 47.2859 94.0874 47.2602 94.1035 47.2352ZM96.7842 48.6149C96.7071 48.6737 96.6865 48.6744 96.6064 48.6215C96.6064 48.6215 95.8213 48.1069 95.8191 48.1062C95.8456 48.1055 96.7681 46.7008 96.7681 46.7008C96.7997 46.653 96.8151 46.6398 96.9202 46.6949C96.9504 46.6868 96.9827 46.6369 96.9827 46.6369C96.9768 46.6045 96.391 46.2208 96.391 46.2208C96.3586 46.2274 96.3248 46.2767 96.3248 46.2767C96.4094 46.3745 96.402 46.3943 96.3719 46.4413L95.3259 48.0364C95.2965 48.0827 95.2789 48.0952 95.1965 48.054C95.1671 48.0621 95.1326 48.1121 95.1326 48.1121C95.1399 48.1452 96.3851 48.9603 96.3851 48.9603C96.4689 49.0147 96.4711 49.0353 96.4549 49.0757C96.4638 49.1037 96.5137 49.1375 96.5137 49.1375C96.5468 49.1301 96.8423 48.6795 96.8423 48.6795C96.8342 48.6479 96.7842 48.6149 96.7842 48.6149ZM98.3264 47.5388C98.3984 47.6056 98.3918 47.6181 98.3888 47.6248L98.3028 47.7277C98.297 47.7343 96.9518 49.125 96.9518 49.125C96.9195 49.1566 96.8857 49.1875 96.8526 49.175C96.8225 49.1867 96.7975 49.2404 96.7975 49.2404C96.8092 49.272 97.3201 49.5123 97.3201 49.5123L97.3421 49.5219L97.3759 49.4462C97.3377 49.4072 97.3208 49.3822 97.3208 49.3587C97.3208 49.3506 97.323 49.3418 97.3267 49.3337C97.3267 49.333 97.3693 49.2786 97.3693 49.2786C97.3708 49.2771 97.6266 49.0103 97.6288 49.0081C97.6288 49.025 98.2955 49.3367 98.2992 49.3381C98.2845 49.3396 98.2426 49.7314 98.2426 49.7314C98.2426 49.7336 98.2308 49.7968 98.2308 49.7968C98.2279 49.8042 98.2249 49.81 98.1676 49.7939C98.1411 49.8064 98.1147 49.8593 98.1147 49.8593C98.1257 49.8909 98.6542 50.1393 98.6542 50.1393C98.6851 50.1283 98.71 50.0739 98.71 50.0739C98.6733 50.0254 98.6652 50.0144 98.674 49.9372C98.6748 49.9365 98.8762 48.0636 98.8762 48.0636L98.9041 47.8894C98.9107 47.8754 98.9232 47.8489 98.9864 47.8739C99.0158 47.8629 99.0415 47.8063 99.0415 47.8063C99.0305 47.7747 98.3829 47.4733 98.3829 47.4733C98.3521 47.4844 98.3264 47.5388 98.3264 47.5388ZM98.4675 48.1246C98.4219 48.2936 98.33 48.9691 98.3271 48.9963L98.3094 48.9883C98.2631 48.9442 97.9405 48.7883 97.8706 48.756C97.9074 48.7156 98.4057 48.1702 98.4712 48.0996L98.4675 48.1246ZM100.864 48.4414C100.947 48.498 100.953 48.5186 100.939 48.573L100.634 49.8042C100.565 50.0857 100.363 50.207 100.083 50.1379C99.9434 50.1041 99.8435 50.0372 99.7854 49.9416C99.7281 49.8468 99.7163 49.7233 99.7501 49.5844L100.054 48.3539C100.068 48.2988 100.082 48.2826 100.156 48.2892C100.18 48.2716 100.195 48.2128 100.195 48.2128C100.178 48.1849 99.5443 48.029 99.5443 48.029L99.5215 48.0232L99.5157 48.0467L99.5024 48.1055C99.6039 48.1657 99.6053 48.1878 99.5914 48.2407L99.2893 49.4624C99.1518 50.0247 99.3804 50.3826 99.967 50.526C100.266 50.6002 100.512 50.5811 100.698 50.4686C100.874 50.3628 100.997 50.1717 101.063 49.9012L101.365 48.6795C101.379 48.6244 101.391 48.6075 101.475 48.6156C101.5 48.598 101.514 48.5399 101.514 48.5399C101.497 48.512 100.908 48.3657 100.908 48.3657C100.881 48.3833 100.864 48.4414 100.864 48.4414ZM102.583 48.5384L101.644 48.5347C101.62 48.5575 101.619 48.6178 101.619 48.6178C101.711 48.6516 101.722 48.6707 101.72 48.7295C101.72 48.7303 101.713 50.6377 101.713 50.6377C101.713 50.6958 101.702 50.7127 101.627 50.7259L101.608 50.8068C101.631 50.8295 102.488 50.8332 102.488 50.8332C102.862 50.8354 103.15 50.7391 103.343 50.548C103.536 50.3554 103.636 50.0673 103.637 49.691C103.639 48.9728 103.245 48.5414 102.583 48.5384ZM103.161 49.6895C103.159 50.2511 102.978 50.4304 102.412 50.4275C102.412 50.4275 102.167 50.4267 102.165 50.4267V50.426C102.187 50.4201 102.194 49.0654 102.195 48.9412C102.234 48.942 102.419 48.9442 102.419 48.9442C102.981 48.9464 103.161 49.1257 103.161 49.6792V49.6895ZM105.887 49.8556C105.858 49.8387 105.8 49.8549 105.8 49.8549C105.786 49.9218 105.778 49.9409 105.679 49.9659C105.679 49.9659 104.73 50.2106 104.728 50.2114C104.728 50.2114 104.73 50.2084 104.73 50.204C104.73 50.1379 104.621 49.716 104.604 49.6542C104.646 49.6432 105.114 49.5226 105.114 49.5226C105.212 49.4976 105.228 49.5072 105.245 49.5403C105.27 49.552 105.329 49.5366 105.329 49.5366C105.346 49.5087 105.22 49.0191 105.22 49.0191C105.19 49.0022 105.132 49.0184 105.132 49.0184C105.118 49.0853 105.11 49.1029 105.012 49.1279C105.012 49.1279 104.486 49.2632 104.482 49.2646C104.483 49.2639 104.484 49.2617 104.484 49.2566C104.484 49.1875 104.371 48.7479 104.371 48.745C104.376 48.7663 105.25 48.5399 105.25 48.5399C105.348 48.5156 105.363 48.5259 105.381 48.559C105.407 48.5708 105.465 48.5546 105.465 48.5546C105.482 48.5267 105.353 48.0371 105.353 48.0371C105.325 48.0202 105.267 48.0364 105.267 48.0364C105.253 48.1025 105.245 48.1224 105.148 48.1474L103.697 48.5237C103.68 48.5516 103.694 48.6097 103.694 48.6097C103.84 48.609 103.85 48.6288 103.863 48.6795L104.343 50.5296C104.356 50.584 104.355 50.6039 104.252 50.6443C104.238 50.6708 104.253 50.7303 104.253 50.7303C104.281 50.7472 105.783 50.3576 105.783 50.3576C105.88 50.3334 105.896 50.3444 105.916 50.3834C105.941 50.3959 106 50.3804 106 50.3804C106.015 50.3525 105.887 49.8556 105.887 49.8556ZM79.5732 45.6387L78.2001 44.3479C78.1715 44.32 78.0781 44.2237 78.0781 44.2237C78.0678 44.2031 78.0612 44.1796 78.1141 44.1473C78.123 44.1171 78.0972 44.0635 78.0972 44.0635C78.0649 44.0532 77.4306 44.3884 77.4306 44.3884C77.4203 44.4185 77.4482 44.4722 77.4482 44.4722C77.546 44.4553 77.5526 44.4685 77.5548 44.4729C77.5555 44.4744 77.5857 44.6045 77.5857 44.6045C77.5879 44.6126 77.8892 46.5273 77.8892 46.5273C77.8951 46.5736 77.898 46.617 77.8679 46.6354C77.8598 46.6655 77.887 46.7207 77.887 46.7207C77.9194 46.7302 78.4199 46.4663 78.4199 46.4663L78.4405 46.456L78.4015 46.3825C78.3273 46.3921 78.2972 46.3862 78.2795 46.3553C78.2795 46.3539 78.2626 46.2877 78.2626 46.2877C78.2626 46.2855 78.2009 45.9165 78.2001 45.9158C78.2082 45.929 78.8639 45.5843 78.8712 45.5813C78.872 45.6005 79.1513 45.8614 79.1513 45.8614C79.152 45.8621 79.1939 45.9106 79.1939 45.9106C79.1947 45.9136 79.1969 45.9165 79.1969 45.918C79.1969 45.9253 79.1895 45.9356 79.1564 45.9584C79.1557 45.9621 79.1542 45.9658 79.1542 45.9694C79.1542 45.9996 79.1763 46.0415 79.1763 46.0415C79.2086 46.051 79.7239 45.7798 79.7239 45.7798C79.7334 45.7482 79.7048 45.6945 79.7048 45.6945C79.6445 45.6931 79.6313 45.6938 79.5732 45.6387ZM78.5956 45.3594C78.5346 45.3689 78.2163 45.5321 78.1465 45.5688C78.1362 45.5144 77.998 44.7684 77.984 44.6927L78.0039 44.7118C78.1061 44.8448 78.5934 45.33 78.6132 45.3498L78.5956 45.3594Z" fill="#094183"/>
<path d="M73.7941 25.7948L72.9539 25.4935L73.3905 26.3108L72.5967 26.8717L73.492 27.0723L73.4243 27.9801L74.1645 27.3641L74.8481 27.9801L74.8025 27.0282C74.8033 27.0282 75.7434 26.9488 75.7434 26.9488L74.9606 26.3454L75.4075 25.5383L74.4887 25.8073L74.1432 24.9333L73.7941 25.7948Z" fill="white"/>
<path d="M79.1805 27.1832L78.3404 26.9039L78.7763 27.7095L77.981 28.2593L78.9005 28.46L78.8101 29.3795L79.537 28.7613L80.2427 29.3795L80.1861 28.4276L81.1284 28.3475L80.3566 27.7551L80.7925 26.937L79.8737 27.1825L79.5378 26.3328L79.1805 27.1832Z" fill="white"/>
<path d="M73.1449 31.8201L73.4786 32.6815L74.3989 32.4243L73.9601 33.2203L74.7348 33.8245L73.794 33.9032L73.8388 34.8661L73.1559 34.2384L72.4165 34.8661L72.4937 33.948L71.5991 33.7459L72.3834 33.1983L71.9571 32.403L72.7958 32.6815L73.1449 31.8201Z" fill="white"/>
<path d="M79.5154 32.2227L79.7852 33.018H80.6128L79.9417 33.5332L80.199 34.3513L79.5154 33.8589L78.834 34.3513L79.0781 33.5332L78.4077 33.0297L79.2141 33.018L79.5154 32.2227Z" fill="white"/>
<path d="M79.1464 38.6625L78.3055 38.3722L78.7318 39.1778L77.9365 39.7261L78.8436 39.9283L78.7767 40.8471L79.5051 40.2186L80.1997 40.8574L80.1328 39.9165L81.0847 39.8041L80.3122 39.1999L80.7495 38.4045L79.8418 38.6625L79.5058 37.7893L79.1464 38.6625Z" fill="white"/>
<path d="M77.5298 21.6101C77.2615 21.6079 76.8389 21.9857 76.7021 22.1298C77.2505 21.9402 77.4563 22.0431 77.582 21.8784C77.5893 21.7917 77.6077 21.6623 77.5298 21.6101Z" fill="white"/>
<path d="M77.8723 21.7571C77.8069 22.1048 78.0443 22.4443 78.3177 22.6083L78.3677 22.3451C78.3287 22.0981 78.0685 21.8703 77.8723 21.7571Z" fill="white"/>
<path d="M77.7209 22.415C77.6915 22.5121 77.6055 22.6363 77.6297 22.7436C77.668 22.9377 77.9745 23.0112 78.0686 23.3C78.2347 23.0332 78.0134 22.4922 77.7209 22.415Z" fill="white"/>
<path d="M77.5025 22.9883L77.3679 23.225C77.1445 23.566 77.5547 23.8343 77.5502 24.0504C77.6745 23.9174 77.8134 23.5623 77.7362 23.3168C77.7017 23.1875 77.623 23.0721 77.5025 22.9883Z" fill="white"/>
<path d="M76.6773 23.0406C76.5295 23.0987 76.1686 23.3353 75.9849 23.3096C76.0753 23.4243 76.4729 23.4008 76.6148 23.4184C76.8625 23.4331 77.0308 23.1523 77.155 22.9553L76.6773 23.0406Z" fill="white"/>
<path d="M77.069 23.6382C76.5809 23.758 76.8897 24.3313 76.4766 24.6628C76.7603 24.6114 76.8838 24.6077 77.0624 24.2681C77.1432 24.1042 77.1807 23.8058 77.069 23.6382Z" fill="white"/>
<path d="M73.268 22.5525C73.1747 22.9251 73.2614 23.0089 73.4385 23.2383C73.3525 22.7142 73.9678 22.4959 73.687 22.0798C73.49 22.1306 73.318 22.3761 73.268 22.5525Z" fill="white"/>
<path d="M75.3394 23.9961C75.3577 24.1122 75.8223 24.0843 76.0369 23.9902C76.145 23.9667 76.5081 23.827 76.5463 23.6962C75.7047 23.5043 76.0046 23.8167 75.3394 23.9961Z" fill="white"/>
<path d="M76.3315 22.7781C76.3698 22.8884 76.8226 22.7796 77.0188 22.6488C77.1188 22.6054 77.4503 22.4047 77.4664 22.2695C76.6035 22.2298 76.9527 22.4834 76.3315 22.7781Z" fill="white"/>
<path d="M73.5401 21.6578C73.4174 21.6012 73.0726 21.7769 72.9837 21.8408C72.7698 21.9386 72.4383 22.2671 72.5133 22.3583C73.0895 21.982 73.1226 22.4127 73.5401 21.6578Z" fill="white"/>
<path d="M74.6987 20.1894C74.9905 20.271 75.1229 20.4444 75.3169 20.4724C75.5448 20.4819 75.6256 20.4143 75.669 20.3312C75.5771 20.0431 74.9957 20.0732 74.6987 20.1894Z" fill="white"/>
<path d="M76.0476 21.4824C76.0248 21.1789 76.1446 20.9973 76.1042 20.8047C76.0366 20.5864 75.9469 20.5328 75.8535 20.521C75.6139 20.7055 75.8374 21.2406 76.0476 21.4824Z" fill="white"/>
<path d="M74.6574 20.4355C74.4141 20.3495 73.9922 20.5245 73.854 20.6436C74.1664 20.6127 74.3634 20.9604 74.7353 20.8082L74.9742 20.6825C74.897 20.559 74.7853 20.4767 74.6574 20.4355Z" fill="white"/>
<path d="M75.1385 21.0463C75.0606 21.2911 75.248 21.7086 75.373 21.8431C75.3325 21.5307 75.6736 21.3242 75.5097 20.9559L75.3744 20.7207C75.2546 20.8023 75.1745 20.9184 75.1385 21.0463Z" fill="white"/>
<path d="M76.3569 24.2446L76.0864 24.2601C75.688 24.3174 75.6961 24.7165 75.4116 24.8503C75.591 24.8841 76.0438 24.8172 76.2084 24.6195C76.2988 24.5203 76.3532 24.3902 76.3569 24.2446Z" fill="white"/>
<path d="M73.6203 20.9569C73.2572 21.087 73.2374 21.2075 73.1455 21.4817C73.5329 21.1186 74.057 21.5037 74.2437 21.0392C74.093 20.9039 73.7931 20.9003 73.6203 20.9569Z" fill="white"/>
<path d="M74.462 21.6639C74.4944 22.0476 74.6054 22.0991 74.8465 22.2571C74.5973 21.7904 75.1052 21.3817 74.7024 21.0833C74.5319 21.1935 74.4503 21.4831 74.462 21.6639Z" fill="white"/>
<path d="M74.0133 21.6285C73.9935 22.1534 74.0023 22.5562 74.2265 22.8068C74.3691 22.382 74.3764 22.1901 74.2618 21.9329C74.2206 21.8197 74.1192 21.6227 74.0133 21.6285Z" fill="white"/>
</svg>
