<svg fill="none" height="86" viewBox="0 0 172 86" width="172" xmlns="http://www.w3.org/2000/svg"><path d="m118.567 11h-64.567v64.5667h64.567z" fill="#094183"/><g fill="#fff"><path d="m61.1948 53.9192c-.0062.0183-.1084.4494-.1084.505 0 .0566.0317.0766.0589.0766.0483 0 .0683-.0394.0795-.0694-.0006.0011.0755-.1372.0755-.1372.0656-.0978.165-.1272.4456-.1322 0 0 .5116-.0073.6505-.0089v1.9305c0 .435 0 .8111-.0222 1.0034-.0194.1383-.0411.2116-.1072.2255-.0011.0006-.1322.0178-.1322.0178-.0495 0-.0717.0317-.0717.0633 0 .0722.0822.0722.1094.0722l.38-.0111.0756-.0027.0539.0016.5172.0122c.0994 0 .11-.0505.11-.0722 0-.0305-.0228-.0633-.0722-.0633l-.2039-.0178c-.1106-.0155-.1372-.0872-.1506-.2244-.0239-.1934-.0239-.5689-.0239-1.0039 0 0 0-1.8611 0-1.9306.0634.0011.5495.0089.5495.0089.4472.0095.5222.1189.5367.2256l.0044.0494c.0033.0445.0094.1111.0728.1111.0111 0 .0683-.0044.0683-.0955l.0045-.1484.0094-.3622c0-.0278 0-.0922-.0589-.0922l-.055.0089c-.0655.0133-.1883.0383-.4044.0383h-1.7428l-.3628-.0228c-.0011 0-.15-.0389-.15-.0389l-.0583-.0172c-.0434-.0011-.0606.0506-.0772.1006z"/><path d="m67.4503 53.8927-.075.0028-.06-.0022-.4655-.0117c-.0272 0-.11 0-.11.0728 0 .0366.0311.0633.0728.0633l.1505.0122c.1261.0278.1633.0778.1722.2334l.0089 1.0011v.0977l-1.9622-.0083.0072-.0894.0095-1.0011c.0089-.1578.0439-.2145.1439-.2328l.1094-.0128c.0422 0 .0728-.0267.0728-.0633 0-.0484-.0367-.0728-.11-.0728l-.3789.0111-.0767.0028-.0611-.0022-.4644-.0117c-.0728 0-.1095.0244-.1095.0728 0 .0361.0311.0633.0722.0633l.1495.0122c.1272.0278.1644.0778.1722.2334 0 .0005.01 1.0016.01 1.0016v.8184c0 .435 0 .8105-.0228 1.0033-.0194.1383-.0411.2117-.1066.2255-.0011.0006-.1323.0178-.1323.0178-.05 0-.0727.0317-.0727.0634 0 .0722.0827.0722.11.0722l.3783-.0111.0761-.0028.0545.0022.5172.0117c.0983 0 .1089-.0506.1089-.0722 0-.0317-.0223-.0634-.0717-.0634l-.205-.0178c-.1094-.0155-.1367-.0872-.1506-.2244-.0238-.1933-.0238-.5689-.0238-1.0039v-.4883l1.9633.0078-.0083.4805c0 .435 0 .8106-.0234 1.0033-.0178.1356-.04.2117-.1061.2256-.0011.0006-.1317.0178-.1317.0178-.0505 0-.0733.0328-.0733.0633 0 .0722.0828.0722.11.0722l.3806-.0111.075-.0028.0527.0017.5184.0122c.1 0 .1105-.0505.1105-.0722 0-.0305-.0227-.0633-.0727-.0633l-.2039-.0178c-.1106-.0156-.1378-.0872-.1517-.2244-.0222-.1928-.0222-.5689-.0222-1.0039v-.8184l.0089-1.0011c.01-.1594.0433-.2139.1433-.2328l.1089-.0127c.0428 0 .0733-.0267.0733-.0634 0-.0727-.0828-.0727-.11-.0727z"/><path d="m70.4186 53.86-.0223.0089-.1927.0228c.0005 0-1.0623.0039-1.0623.0039l-.0627-.0023-.4623-.0116c-.0272 0-.11 0-.11.0727 0 .0367.03.0634.0723.0634l.1494.0122c.1272.0278.1639.0778.1728.2333l.0094 1.0011v.8184c0 .435 0 .8105-.0227 1.0033-.0195.1389-.0412.2117-.1073.2256-.0011.0005-.1322.0177-.1322.0177-.0494 0-.0717.0317-.0717.0634 0 .0722.0817.0722.1089.0722l.3778-.0111.0778-.0028.1767.0061.9711.0217c.1833 0 .245 0 .2844-.1461.0233-.0984.0622-.4178.0622-.46 0-.0339 0-.105-.0644-.105-.0589 0-.0695.0644-.075.0989-.0311.1794-.0822.2627-.1889.3083-.1133.0472-.3128.0472-.4317.0472-.45 0-.4916-.0566-.5033-.3472l-.0006-.5883.0006-.2045v-.4089c0 .0023.6578.0256.6578.0256.1578.0161.195.0778.2105.1367.0006.0005.0173.1444.0173.1444 0 .045.0283.0761.0683.0761.0683 0 .0683-.0828.0683-.1222l.0184-.2945.0366-.2638c0-.0673-.0444-.0723-.0578-.0723l-.0938.0684c-.035.0394-.09.0477-.1978.0572l-.7356.0089.0078-1.2934c.0556-.0105.5494-.0066.6239.0023.2544.0277.2789.0833.3022.1366-.0005-.0005.025.1534.025.1534 0 .0861.0511.095.0728.095.0233 0 .0539-.0139.0678-.0795.0005-.0016.0177-.2366.0177-.2366l.005-.0745c0 .0006.0278-.1583.0278-.1583l.0106-.0622c0-.0723-.0417-.0778-.0545-.0778z"/><path d="m75.7165 53.8922-.0788.0033-.065-.0022-.4284-.0117c-.0266 0-.1089 0-.1089.0728 0 .0361.0311.0633.0723.0633l.15.0122c.1361.0295.1633.0872.1727.2334 0 .0011.0089 1.0011.0089 1.0011v.5811c0 .555-.0778.8889-.2611 1.1161-.1661.1983-.435.3217-.7017.3217-.2638 0-.4588-.04-.6777-.2462-.1667-.1588-.3373-.4166-.3373-1.1216v-.65l.0089-1.0011c.0095-.1617.0445-.2184.1417-.2328.0006 0 .1106-.0128.1106-.0128.0422 0 .0733-.0267.0733-.0633 0-.0728-.0822-.0728-.1095-.0728l-.3455.01-.1156.0039-.0961-.0033-.4383-.0106c-.0272 0-.1095 0-.1095.0728 0 .0361.0312.0633.0728.0633l.15.0122c.1267.0278.1634.0778.1717.2334l.0094 1.0016v.6784c0 .7511.2217 1.0622.4156 1.2483.315.2956.7494.34.9811.34.2506 0 .6244-.0367.9811-.3533.3895-.3461.4395-.9384.4395-1.415v-.4978l.0088-1.0011c.0089-.1595.0423-.2139.1434-.2328.0016-.0006.1094-.0128.1094-.0128.0422 0 .0722-.0266.0722-.0633 0-.0728-.0822-.0728-.1094-.0728z"/><path d="m76.9624 54.0839-.0044 2.6628c0 .4161-.0234.5305-.1139.5566-.0011 0-.1806.0256-.1806.0256-.05 0-.0722.0316-.0722.0633 0 .0722.0767.0722.1095.0722l.37-.0105.0761-.0034.0677.0028.4239.0111c.0328 0 .1189 0 .1189-.0722 0-.0294-.0194-.0633-.0728-.0633l-.2227-.0261c-.0939-.0284-.1445-.1145-.1545-.5062 0 0-.0528-1.9555-.0572-2.13.1156.1273 1.1483 1.2628 1.1483 1.2628.5045.5434 1.1656 1.2167 1.2145 1.2617.265.2633.3111.3056.3633.3056.0717 0 .0772-.0556.0772-.3656 0-.0011.0084-2.7217.0084-2.7217 0-.29.0244-.3539.1444-.38.0006 0 .1045-.0122.1045-.0122.0594 0 .0866-.0356.0866-.0683 0-.0673-.0805-.0673-.1189-.0673l-.3116.0101-.0834.0038-.0994-.0033-.3839-.0106c-.045 0-.1283 0-.1283.0673 0 .0433.0266.0683.0727.0683l.22.0222c.1112.0289.1489.0917.1528.4073 0 0 .04 1.8327.05 2.2672-.09-.0978-.3466-.3761-.3466-.3761l-.7056-.7684-1.5178-1.6366c-.0655-.0723-.1083-.1161-.1483-.1161-.0806 0-.0867.1061-.0867.2672z"/><path d="m81.7237 53.8927-.075.0028-.0717-.0028-.3977-.0111c-.0267 0-.1095 0-.1095.0728 0 .0361.0311.0633.0717.0633l.1367.0167c.0716.0172.1205.0622.1311.2289 0 .0005.0089 1.0011.0089 1.0011v.8183c0 .435 0 .8106-.0234 1.0033-.02.1417-.0405.2117-.1066.2256-.0012.0006-.1323.0178-.1323.0178-.05 0-.0727.0328-.0727.0633 0 .0722.0827.0722.11.0722l.38-.0111.0755-.0028.0528.0017.5183.0122c.0995 0 .11-.0505.11-.0722 0-.0305-.0222-.0633-.0716-.0633l-.2039-.0178c-.1106-.015-.1378-.0872-.1523-.2244-.0238-.1928-.0238-.5689-.0238-1.0039v-.8184l.01-1.0011c.0088-.1578.0438-.2144.1427-.2333.0006 0 .1095-.0128.1095-.0128.0428 0 .0733-.0267.0733-.0633 0-.0728-.0833-.0728-.1105-.0728z"/><path d="m85.8796 53.8922-.0684.0033-.1077-.0039-.3473-.01c-.0477 0-.1372 0-.1372.0728 0 .0239.0111.0633.0861.0633l.165.0161c.0311.0167.0367.0534.0367.0734l-.0406.1649c-.0938.3078-.6694 1.8134-.9583 2.495-.0583-.1555-.8611-2.2961-.8611-2.2961-.0672-.1738-.1233-.3194-.1233-.3727 0-.0256.0066-.0456.0405-.0617l.1617-.0195c.0739 0 .0817-.0477.0817-.0683 0-.0672-.1012-.0672-.1612-.0672l-.3372.01-.0944.0039-.1145-.0033-.4289-.0106c-.0655 0-.1561 0-.1561.0672 0 .0422.0278.0683.0728.0683l.1667.0167c.1455.0422.2105.0822.3111.3372l1.1489 2.8767c.0861.2172.1122.2828.19.2828.0572 0 .0778-.0461.1466-.2l.0795-.1745.5744-1.3455.275-.6639.2717-.6595c.1217-.3066.1883-.3833.2422-.4205.0789-.0495.1722-.0495.2028-.0495.0794 0 .0911-.0427.0911-.0683 0-.045-.0383-.0672-.1144-.0672z"/><path d="m88.4166 53.8607-.0206.0083-.1939.0228c.0006 0-1.0622.0039-1.0622.0039l-.0611-.0023-.4634-.0116c-.0272 0-.1105 0-.1105.0727 0 .0367.0305.0634.0733.0634l.15.0122c.1261.0278.1634.0778.1717.2333 0 .0006.01 1.0017.01 1.0017v.8183c0 .435 0 .8106-.0234 1.0034-.0194.1389-.0411.2116-.1066.2255-.0006.0006-.1328.0178-.1328.0178-.0494 0-.0722.0328-.0722.0633 0 .0723.0828.0723.11.0723l.3789-.0112.0761-.0027.1772.0061.9706.0211c.1839 0 .2461 0 .285-.1461.0227-.0989.0611-.4178.0611-.46 0-.0339 0-.105-.0634-.105-.0577 0-.0694.0589-.0766.0983-.0306.18-.0811.2633-.1872.3089-.1145.0472-.3134.0472-.4317.0472-.45 0-.4917-.0566-.5033-.3472l-.0006-.5883.0006-.2045v-.4089c0 .0023.6583.0256.6583.0256.1761.0178.1994.0956.2111.1372l.0167.1439c0 .0461.0266.0761.0683.0761.0672 0 .0672-.0828.0672-.1222l.0195-.2945c0-.0005.0366-.2638.0366-.2638 0-.0673-.045-.0723-.0589-.0723l-.0855.0606c-.0428.0472-.0972.0555-.2056.065l-.7344.0089.0072-1.2933c-.0072-.0106.625.0022.625.0022.2528.0277.2778.0833.3017.1372 0 .0005.0244.1533.0244.1533 0 .0861.0511.095.0728.095.02 0 .0544-.0105.0667-.0805 0 .0011.0183-.22.0183-.22l.0061-.0889.0372-.2211c0-.07-.0372-.0778-.0539-.0778z"/><path d="m90.1093 55.6944c-.015-.01-.0161-.0178-.0161-.0267v-1.5189c0-.0122.0039-.0183.0144-.0222.0356-.0106.1545-.0261.2989-.0261.4817 0 .7684.3344.7684.8944 0 .3161-.1.5717-.2684.6856-.1033.0733-.2294.0822-.3283.0822-.2189 0-.4139-.0356-.4689-.0683zm-.0722-1.8034-.1556.0045-.0611-.0022-.4639-.0117c-.0272 0-.1094 0-.1094.0728 0 .0366.0305.0633.0727.0633l.1489.0122c.1273.0278.1639.0778.1728.2334l.0095 1.0011v.8183c0 .435 0 .8106-.0239 1.0033-.0184.1356-.04.2117-.1067.2256-.0006.0005-.1322.0178-.1322.0178-.05 0-.0722.0316-.0722.0633 0 .0722.0827.0722.11.0722l.4177-.0128c.0184-.0011.0739.0012.0739.0012l.5161.0116c.1006 0 .1111-.0505.1111-.0722 0-.0306-.0227-.0633-.0738-.0633l-.2034-.0178c-.1105-.0156-.1372-.0872-.1505-.2245-.0239-.1933-.0239-.5688-.0239-1.0038v-.1117c-.0022-.0011.5689.0072.5689.0072.0005 0 .0366.0189.0366.0189 0 .0011.16.2194.16.2194l.3417.4639.0628.0823c.2316.3061.3855.5083.5761.61.1283.07.2533.0922.5139.0922h.33c.0583 0 .1472 0 .1472-.0722 0-.035-.035-.0634-.0778-.0634l-.1755-.0133c-.1211-.0189-.3095-.0733-.5461-.3233-.2434-.2595-.5273-.6245-.8561-1.0478 0 0-.0639-.0828-.0901-.1156.3739-.3528.5512-.6955.5512-1.075 0-.3305-.2111-.5711-.3356-.6616-.2589-.1856-.5856-.2106-.8706-.2106z"/><path d="m93.0379 54.6884c0 .3172.105.6144.6167 1.0355l.2089.1717c.41.3378.5222.5117.5222.81 0 .2894-.2161.5817-.6289.5817-.1689 0-.5716-.0434-.6539-.4456l-.0122-.1644c0-.0262 0-.0862-.0678-.0862-.0616 0-.0689.0684-.0733.1056 0 .0011-.0033.0456-.0033.0456l-.02.4511c0 .125.0039.1661.0894.2083h.0006c.1794.0878.3883.13.6389.13.2827 0 .5322-.07.7211-.2028.3027-.215.41-.5544.41-.8005 0-.3639-.1134-.6634-.6923-1.1195l-.1294-.1016c-.445-.3645-.5533-.5123-.5533-.7528 0-.3011.215-.5039.535-.5039.3844 0 .5127.16.55.2283.0244.0456.0522.1667.0566.2189.0039.0333.0111.0922.0717.0922.0683 0 .0683-.0927.0683-.1427l.0156-.4573.0017-.035c0-.0672-.0612-.0672-.0806-.0672l-.1556-.0222c-.1327-.0322-.2727-.0472-.44-.0472-.595-.0017-.9961.3489-.9961.87z"/><path d="m96.1565 53.8927-.0772.0028-.0711-.0028-.3972-.0111c-.0734 0-.11.0244-.11.0728 0 .0361.0311.0633.0728.0633l.1344.0167c.0633.015.1222.0527.1322.2289l.0089 1.0011v.8183c0 .435 0 .8106-.0228 1.0033-.0194.1384-.0411.2117-.1072.2256-.0011.0006-.1322.0178-.1322.0178-.0495 0-.0722.0328-.0722.0633 0 .0722.0822.0722.1089.0722l.3811-.0111.0744-.0028.055.0023.5178.0116c.0983 0 .1083-.0505.1083-.0722 0-.0317-.0222-.0633-.0722-.0633l-.2033-.0178c-.1106-.0156-.1373-.0872-.1511-.2244-.0239-.1934-.0239-.5689-.0239-1.0039v-.8184l.01-1.0011c.0083-.1578.0433-.2144.1433-.2333.0006 0 .1089-.0128.1089-.0128.0422 0 .0728-.0267.0728-.0633 0-.0728-.0834-.0728-.1106-.0728z"/><path d="m97.1944 53.9283c-.0023.0084-.105.4395-.105.4956 0 .0566.0316.0766.0583.0766.0467 0 .0672-.0366.08-.0688l.0761-.1378c.0644-.0978.1644-.1278.4439-.1328 0 0 .5133-.0072.6522-.0089v1.9306c0 .435 0 .8105-.0228 1.0033-.0177.1355-.0405.2117-.1066.2255-.0011.0006-.1328.0178-.1328.0178-.05 0-.0722.0317-.0722.0634 0 .0722.0822.0722.1094.0722l.3789-.0111.0767-.0028.055.0022.5155.0117c.0961 0 .1106-.045.1106-.0722 0-.0306-.0228-.0634-.0722-.0634l-.2045-.0178c-.1094-.015-.1367-.0872-.1511-.2244-.0233-.1928-.0233-.5689-.0233-1.0039 0 0 0-1.8611 0-1.9305.0633.0011.5494.0089.5494.0089.4478.0094.5228.1194.5378.2255 0 .0006.0039.0494.0039.0494.0028.0439.0078.1112.0734.1112.011 0 .067-.0045.067-.0956l.004-.1489.009-.3622c0-.0278 0-.0922-.058-.0922l-.0554.0083c-.0656.0133-.1878.0383-.4045.0383h-1.7422l-.3644-.0227c-.0011 0-.15-.0389-.15-.0389l-.0573-.0172c-.0394 0-.0583.0483-.0788.1116z"/><path d="m103.237 53.8916-.123.0039-.074-.0039-.232-.01c-.096 0-.11.0394-.11.0628 0 .0483.045.0633.09.0783.02.0056.054.0144.054.0983 0 .0661-.025.14-.074.2189-.079.1317-.6 1.0284-.744 1.3117-.154-.2583-.753-1.2883-.821-1.4128-.035-.0655-.056-.1161-.056-.1639 0-.0205.013-.0383.041-.0527 0 0 .024-.0089.024-.0089.03-.0123.065-.0256.065-.0639 0-.045-.032-.0672-.095-.0672l-.328.0111-.064.0027-.108-.0033-.35-.0105c-.093 0-.097.0561-.097.0672 0 .04.034.0683.082.0683.032 0 .115.0244.181.0683.091.0617.205.1861.305.3339.167.2472.787 1.265.815 1.3328.062.1367.105.2322.105.4739v.4l-.015.4611c-.006.0922-.031.2067-.115.2239-.001.0006-.133.0178-.133.0178-.05 0-.072.0316-.072.0633 0 .0722.082.0722.109.0722l.381-.0111.074-.0028.055.0023.516.0116c.1 0 .11-.0505.11-.0722 0-.0305-.023-.0633-.073-.0633l-.203-.0178c-.104-.0144-.15-.0794-.161-.2233l-.013-.4611v-.4001c0-.1494 0-.2911.066-.4505.08-.1906.726-1.2794.883-1.4694.103-.1273.152-.1778.238-.2284.064-.0422.145-.0605.194-.0605.071 0 .096-.0395.096-.0734 0-.0289-.025-.0627-.096-.0627z"/><path d="m105.738 55.5383c0-.9211.505-1.4933 1.32-1.4933.663 0 1.378.5255 1.378 1.6794 0 1.4828-1.039 1.5578-1.248 1.5578-.853.0006-1.45-.7172-1.45-1.7439zm-.513.1295c0 .8972.575 1.8627 1.838 1.8627 1.095 0 1.889-.8144 1.889-1.9366 0-1.0634-.747-1.7772-1.861-1.7772-1.36 0-1.866 1.1355-1.866 1.8511z"/><path d="m111.366 53.8616-.025.0122c-.001 0-.142.0144-.142.0144l-.054.0028s-1.141.0039-1.141.0039l-.061-.0022-.464-.0117c-.028 0-.11 0-.11.0728 0 .0367.03.0633.073.0633l.149.0122c.127.0273.164.0778.173.2334 0 .0005.01 1.0016.01 1.0016v.8184c0 .435 0 .8105-.024 1.0033-.019.1389-.041.2117-.106.2256-.001.0005-.133.0177-.133.0177-.05 0-.072.0317-.072.0634 0 .0722.082.0722.11.0722l.379-.0111.076-.0028.055.0022.516.0117c.099 0 .11-.0506.11-.0722 0-.0317-.023-.0634-.074-.0634l-.202-.0177c-.111-.0156-.138-.0873-.151-.2245-.024-.1933-.024-.5689-.024-1.0039v-.3955c.173-.0067.592-.005.695.0072.122.0156.191.085.213.145l.022.1322.003.0278c0 .0411.028.0728.067.0728.068 0 .068-.0806.068-.1239l.019-.3072.037-.2639c0-.0672-.044-.0722-.058-.0722-.034 0-.054.0266-.071.05-.039.055-.081.0705-.196.0794l-.207.005-.595.0044.003-1.2888c.006-.0162.721-.0023.721-.0023.166.0039.263.0795.286.1284 0 .0005.038.1622.038.1622 0 .0861.056.0905.067.0905.025 0 .058-.0133.072-.0794 0-.0017.018-.2306.018-.2306l.005-.0805c0 .0005.028-.1583.028-.1583l.01-.0623c0-.0455-.026-.0777-.064-.0777z"/><path d="m111.219 60.1572h-49.5588v.2828h49.5588z"/><path d="m66.6535 63.1355s-1.7744 3.7261-1.9355 4.0634c-.0317-.065-1.9422-4.0128-1.9422-4.0128-.09-.1806-.1373-.2322-.21-.2322-.0473 0-.11.035-.1395.2011l-.71 4.6778c-.0389.2638-.0994.5133-.2805.5516-.0006 0-.2117.0217-.2117.0217-.0328 0-.1328 0-.1328.0672 0 .0972.1067.0972.1472.0972l.4411-.0128.2689-.0083.23.0072.5234.0139c.0916 0 .19-.0072.19-.0972 0-.0428-.0456-.0672-.125-.0672l-.2978-.0356c-.135-.0316-.2011-.1011-.2011-.2122l.0211-.335s.3261-2.4989.3683-2.8206c.0589.0967.3484.7128.3484.7128l.3972.85c.085.1978.6428 1.2789.8255 1.63l.0211.0395c.1089.205.1745.3289.2456.3289.0772 0 .1156-.0717.2811-.4112l1.5639-3.2572c0 .0289.4256 3.1511.4256 3.1511.0088.0634.0127.115.0127.1561 0 .0873-.0172.1267-.0366.1334-.0478.0205-.0911.0461-.0911.0955 0 .065.0755.0834.2238.0967.2828.0211 1.2717.0433 1.4578.0433.1317 0 .2039-.0344.2039-.0972 0-.0672-.0894-.0672-.1328-.0672-.0983 0-.2366-.0078-.4394-.0711-.2111-.0634-.2772-.2795-.3389-.71l-.6533-4.4334c-.0228-.16-.0706-.2377-.1467-.2377-.0744-.0017-.1144.0672-.1717.1805z"/><path d="m72.2688 63.0704-.0422.0123-.3067.0427c-.1216.0067-1.2939.0073-1.7916.0073l-.3673-.0111-.0839-.0034c-.0005 0-.5816-.0072-.5816-.0072-.085 0-.1756.0061-.1756.0822 0 .0822.0945.0822.1395.0822l.2755.0206c.2345.05.2817.1667.295.3933.0145.2289.0145.4261.0145 1.52v1.2628c0 .6572 0 1.2256-.0356 1.5256-.0322.2322-.0711.3544-.1944.3794l-.255.0283c-.0567 0-.1323.0078-.1323.075 0 .0589.0545.0895.1612.0895l.4955-.0145c.0006 0 .4089-.0072.4089-.0072l.7456.0217.2083.005 1.0333.0167c.2761 0 .3511 0 .4045-.1995.0372-.1472.0939-.6333.0939-.8011 0-.0722 0-.1467-.075-.1467-.0689 0-.0834.0511-.0962.1223-.0511.2961-.1355.4366-.3127.5177-.1828.0845-.4861.0845-.6673.0845-.745 0-.8294-.1184-.8433-.5856l-.0011-.8155.0011-.2956v-.5667c0-.0544.0128-.0544.0256-.0544.1611 0 .8789.0072 1.0166.0217.2273.0244.3467.1066.3867.2661l.0228.1889.0055.0672c0 .0511.0289.0805.0823.0805.0822 0 .0822-.0966.0822-.1538l.0133-.2262.0156-.2538.0483-.4473.0089-.0772c0-.0478-.025-.075-.0678-.075-.0411 0-.0722.035-.1183.0878-.0706.0789-.1734.0989-.3422.1128-.1062.0094-.5134.0144-1.1467.0144-.0222 0-.0322-.0055-.0322-.0617v-1.815c0-.0538.0172-.0538.0322-.0538.1389 0 .8928.0138 1.0167.0283.36.0433.4205.13.4666.2472.0406.0972.0417.2367.0417.2517 0 .0355 0 .1183.0822.1183.07 0 .0839-.0678.0895-.0933 0-.0006.0261-.3289.0261-.3289l.01-.1467c0-.0005.0472-.3966.0472-.3966l.01-.0712c0-.02 0-.0822-.0611-.0822z"/><path d="m75.0344 63.1245-.38.0089-.3639-.0089-.6189-.0128c-.085 0-.1755.0061-.1755.0822 0 .0822.0944.0822.1394.0822l.2328.0206c.2345.05.2817.1667.295.3933.0145.2289.0145.4262.0145 1.52v1.2628c0 .6572 0 1.2256-.0356 1.5256-.0322.2322-.0711.3544-.1939.3794-.0005 0-.255.0284-.255.0284-.0567 0-.1322.0077-.1322.075 0 .0894.1211.0894.1611.0894l.495-.0145c.0006 0 .4089-.0072.4089-.0072l1.12.0278.9672.0156c.3772 0 .4228-.0367.4695-.2073.0577-.2111.1077-.7466.1077-.8294 0-.0689 0-.1394-.075-.1394-.0827 0-.0916.08-.0966.1233-.0139.1344-.0995.3305-.1823.42-.1683.1822-.4244.195-.8261.195-.5739 0-.7439-.0539-.8561-.1534-.1444-.1244-.1444-.6233-.1444-1.5294v-1.2628c0-1.0939 0-1.2911.0144-1.52.015-.2616.0784-.3605.2511-.3927.0006 0 .2767-.0212.2767-.0212.0761 0 .1472-.01.1472-.0822s-.0811-.0822-.1683-.0822z"/><path d="m79.4612 63.1206-.5166.0122-.2761-.0072-.6995-.0144c-.085 0-.1755.0061-.1755.0822 0 .0822.0944.0822.1394.0822l.2756.0206c.2344.05.2822.1666.295.3933.0144.2289.0144.4261.0144 1.52v1.2628c0 .6572 0 1.2255-.035 1.5255-.0267.1917-.0594.3522-.1939.3795-.0005 0-.255.0283-.255.0283-.0567 0-.1322.0078-.1322.075 0 .0894.1205.0894.1611.0894l.495-.0144c.0006 0 .4089-.0072.4089-.0072l.5372.0216c.0006 0 .2795.0123.2795.0123l.2233.0088c1.3355 0 1.9333-.7944 1.9333-1.5816 0-.8117-.6611-1.3328-1.2905-1.5561.43-.3478.7166-.6967.7166-1.2495 0-.2566-.1111-1.0933-1.5455-1.0933zm.2367.32c.6406 0 .8794.6717.8794 1.0944 0 .3361-.1.5945-.2872.7467-.125.11-.2928.1322-.505.1322l-.3333-.0211c-.0217-.005-.0367-.0122-.0367-.0617v-1.7722c0-.0766.0134-.0939.0517-.105-.0006.0011.2311-.0133.2311-.0133zm-.0433 4.7083c-.2195-.0889-.24-.1989-.24-.6722v-1.7006c0-.03.0105-.0322.0255-.0322l.3078.0072c.2711.0139.4356.0612.5856.1689h.0005c.6217.4334.6883 1.1328.6883 1.4134 0 .8572-.7083.9005-.8505.9005-.1633 0-.3256-.0066-.5172-.085z"/><path d="m82.6646 65.841c0 1.3633.9099 2.83 2.9088 2.83 1.7589 0 2.9878-1.2167 2.9878-2.9595 0-1.6661-1.1172-2.7005-2.9161-2.7005-2.0478 0-2.9805 1.4666-2.9805 2.83zm1.0255-.2228c0-1.9383 1.095-2.2278 1.7478-2.2278 1.2272 0 2.0844 1.0634 2.0844 2.5861 0 2.0756-1.1522 2.3-1.6472 2.3-1.2867 0-2.185-1.0927-2.185-2.6583z"/><path d="m94.0671 63.1266-.2072.0067c-.02-.0011-.825-.0217-.825-.0217-.0811 0-.1678.0061-.1678.0823 0 .0822.0939.0822.1394.0822l.2539.0205c.2345.05.2817.1667.295.3934.0145.2289.0145.4261.0145 1.52v.8966c0 .7684-.03 1.3856-.4111 1.7667-.345.345-.7984.3822-.9773.3822-.2477 0-.5727-.0328-.8855-.29-.2872-.235-.5533-.6094-.5533-1.7511v-1.0044c0-1.0939 0-1.2911.0144-1.52.015-.2617.0783-.3606.2517-.3928l.2044-.0211c.0394 0 .1322 0 .1322-.0822 0-.0762-.0905-.0823-.175-.0823l-.5244.0123-.3583.0088-.3834-.0088-.6639-.0128c-.085 0-.175.0061-.175.0822 0 .0822.0939.0822.1395.0822l.2755.0206c.2345.05.2823.1667.295.3933.0139.2289.0139.4261.0139 1.52v1.0472c0 .9095.2045 1.5178.6445 1.9145.5522.4994 1.2894.4994 1.6044.4994.4178 0 .9667-.0594 1.5039-.5211.6044-.5178.6878-1.3505.6878-2.1728v-.7672c0-1.0939 0-1.2911.0144-1.52.015-.2616.0783-.3605.2506-.3928.0005 0 .205-.0211.205-.0211.0761 0 .1466-.01.1466-.0822 0-.0761-.0866-.0822-.1677-.0822z"/><path d="m97.1708 63.1217-.5266.0111-.2873-.0072-.6955-.0144c-.0845 0-.1756.0061-.1756.0822 0 .0822.0945.0822.1395.0822l.2755.0206c.2345.05.2817.1666.295.3933.0145.2289.0145.4261.0145 1.52v1.2628c0 .6572 0 1.2255-.0356 1.5255-.0261.1917-.0589.3522-.1939.3795l-.255.0283c-.0566 0-.1327.0078-.1327.075 0 .0894.1211.0894.1616.0894l.5845-.0133.2911-.0078.2316.0056.8228.0161c.04 0 .1611 0 .1611-.0895 0-.0227-.01-.075-.1033-.075l-.3494-.0288c-.1917-.0256-.2411-.1528-.2645-.3789-.0355-.3006-.0355-.8717-.0355-1.5334v-.1005c0-.03.01-.0395.0394-.0395l.6239.0145c.0494 0 .0855.0078.1161.0439 0 .0005.3433.4739.3433.4739l.3661.515c.4189.5766.6873.8988.9889 1.06.1945.105.3834.1383.7762.1383h.681c.051 0 .155 0 .155-.0895 0-.0227-.01-.075-.104-.075l-.198-.0216c-.116-.0234-.406-.0806-.794-.4828-.3651-.3839-.7795-.9072-1.3045-1.5689 0 0-.2222-.28-.2411-.3039.6583-.5378.9411-1.02.9411-1.6089 0-.5233-.3244-.8811-.4956-.9977-.4011-.2745-.8972-.3117-1.33-.3117zm-.0266 2.7672c-.0389-.0172-.0528-.0361-.0528-.1128v-2.1805c0-.0533.0117-.0722.0517-.0833.0644-.0195.1805-.0284.3755-.0284.4011 0 1.08.2728 1.08 1.2956 0 .6583-.2605.9478-.4161 1.0616-.1228.0889-.2128.1184-.4989.1184-.2044 0-.4061-.0261-.5394-.0706z"/><path d="m102.041 63.2512-.065 4.2466c-.007.6184-.036.8195-.21.8734-.106.0305-.245.035-.317.035-.036 0-.133 0-.133.075 0 .0894.101.0894.175.0894l.655-.0172.12-.0045.2.0062.69.0155c.059 0 .183 0 .183-.0894 0-.075-.098-.075-.14-.075-.106 0-.244-.0056-.367-.0495-.155-.0544-.227-.2872-.239-.7805 0 0-.077-2.9156-.078-2.98.04.035.145.1494.145.1494.302.3317.93 1.0211 1.553 1.6389l.952.9528 1.164 1.1566c.082.0823.17.1623.256.1623.098 0 .111-.1211.111-.24l.079-4.5267c.008-.4011.066-.54.253-.5933-.001 0 .21-.0206.21-.0206.098 0 .147-.0278.147-.0822 0-.0822-.11-.0822-.182-.0822l-.573.0161-.13.0061-.253-.0072-.615-.0145c-.086 0-.204 0-.204.0822 0 .0728.071.0823.132.0823.101 0 .269 0 .374.0416.152.0634.225.1739.232.6295 0 0 .068 3.0144.072 3.2033-.009 0-.017 0-.017 0 0-.0072-.503-.53-.503-.53l-1.063-1.1005c-1.091-1.0834-2.212-2.2912-2.224-2.3028l-.066-.0728c-.085-.0933-.141-.155-.211-.155-.101 0-.113.1494-.113.2617z"/><path d="m111.045 63.0712-.042.0122c-.001 0-.307.0428-.307.0428-.121.0066-1.293.0072-1.791.0072l-.367-.0111-.085-.0033c-.001 0-.582-.0073-.582-.0073-.084 0-.175.0061-.175.0823 0 .0822.094.0822.139.0822l.276.0205c.234.05.281.1667.295.3934.015.2289.015.4261.015 1.52v1.2627c0 .6573 0 1.2256-.036 1.5256-.026.1911-.059.3522-.194.3794l-.255.0284c-.056 0-.132.0078-.132.075 0 .0894.121.0894.161.0894l.495-.0144c.001 0 .41-.0072.41-.0072l.745.0216.208.005 1.034.0167c.269 0 .351 0 .404-.1995.037-.1461.094-.6322.094-.8011 0-.0722 0-.1466-.075-.1466-.069 0-.083.0511-.096.1222-.05.2955-.135.4361-.313.5178-.183.0844-.486.0844-.667.0844-.744 0-.829-.1183-.843-.5855l-.001-.8156.001-.2956v-.5666c0-.0545.013-.0545.025-.0545.161 0 .879.0073 1.018.0217.227.0244.346.1067.386.2661l.023.1911.005.065c0 .0511.029.0806.082.0806.082 0 .082-.0967.082-.1539l.014-.2322.015-.2473.049-.4466.009-.0784c0-.0477-.025-.075-.068-.075-.042 0-.072.035-.119.0884-.07.0778-.173.0983-.342.1122-.105.0094-.513.0144-1.146.0144-.023 0-.032-.0055-.032-.0616v-1.815c0-.0539.018-.0539.032-.0539.138 0 .893.0139 1.017.0283.36.0434.42.13.466.2472.04.0967.042.2362.042.2517 0 .0356 0 .1183.082.1183.071 0 .085-.0705.089-.0933.001-.0005.026-.3283.026-.3283l.01-.1472c0-.0006.048-.3973.048-.3973l.01-.0705c0-.0545-.02-.0822-.061-.0822z"/><path d="m86.2399 49.8955c-1.1983-1.1984-2.6806-1.8317-4.1133-2.4445l-.1145-.0483c-.0189-.0072-.7633-.2856-.7633-.2856-.0911-.0338-.1495-.0561-.1845-.0722l-.1316-.06-.005.015c-4.6939-1.66-7.5645-5.525-7.6878-10.3633-.0072-.1972-.0111-.4056-.0111-.6217 0-.7261.0433-1.4889.1283-2.2672.0617-.4611.2061-1.5428.2095-1.5706l.4155-2.4694c.0428-.2528.0639-.38.0784-.4394l.0366-.1506-.0278-.0017c.025-.3427.05-.7639.05-1.1805 0-1.7028-.4316-2.7784-1.4-3.4878l-.0072-.0056-.1267-.1266 2.0878-2.7206-.0594-.0794c-.1633-.2167-.2578-.4428-.2817-.6722l-.0322-.3084.2922.1039c.1861.0661.3739.1256.5739.1806l.0845.0233 2.0755-2.705.095.1594c.3889.6556 1.085.9739 2.1267.9739.4266 0 .9161-.0516 1.5411-.1627 0 0 2.0505-.3162 2.0683-.3189 1.42-.165 1.69-.1961 1.7334-.2011l.1294-.0139c.4044-.0395.8394-.0595 1.2939-.0595.8955 0 1.8655.0756 2.8833.2245.0061.0011 1.4561.2166 1.4695.2183l1.8066.3006c.265.0255.5684.0505.875.0505.81 0 1.3756-.1794 1.7806-.5644.0894-.0795.1628-.1734.2333-.2634l.2022-.2544 1.9106 2.5133.0911-.035c.3095-.1183.7333-.2716 1.2739-.4661 0 0 .2828-.1017.3761-.1355.7006-.255 1.271-.4278 1.742-.5273l.372-.0783-.152.3483c-.129.2967-.246.5211-.367.7067l-.227.3472.385-.155c.008-.0028.279-.1116.511-.2039l-.245.4678c-.13.25-.633 1.0433-1.1 1.3872l-.102.0756.073.1039c.003.005.007.0094.01.0144.048.0772.076.1972.076.33 0 .1261-.025.2517-.066.3367-.053.1089-.1322.2539-.2855.41l-.0789.0805.5134.6756-.1.0756c-.9868.7422-1.4662 1.8861-1.4662 3.4977l.0005.0539c-.0033.0828-.0044.1706-.0044.2606 0 .3722.0261.7766.0767 1.2011l.2511 1.5761c.1761 1.0533.2672 1.5978.2705 1.62.0484.4633.1745 1.6617.1845 1.7539.0611 1.4911.0661 1.6255.0666 1.6344.0017.0611.0023.125.0023.1884 0 2.6094-.8756 5.2516-2.2845 6.8966l-.0278.0339c-.9166 1.1161-2.1727 2.6456-5.5994 3.8517-1.9228.6994-3.6322 1.3844-5.1 2.6878l-.0061.005-.0545.0622-.0455.0494-.1056.1172z"/></g><path d="m99.7295 24.1777c-.0272-.0361-.0483-.0517-.0694-.055.0211.0033.0416.0183.0694.055zm.0022.0033c-.0005-.0011-.0016-.0028-.0022-.0033.0006.0005.0017.0022.0022.0033zm1.1983-3.5672c.129-.1984.251-.4361.377-.7261l.253-.58-.619.1311c-.478.1011-1.0531.275-1.7593.5322-.0983.0356-.2283.0828-.3755.1356-.4861.175-.9472.3416-1.2761.4672l-1.9528-2.5695-.3072.3867c-.07.09-.1367.1744-.2206.2494-.3789.3606-.9161.5284-1.6905.5284-.3034 0-.605-.025-.8539-.0489l-1.81-.3006c-.0211-.0033-1.4689-.2183-1.4689-.2183-1.0239-.15-2.0006-.2261-2.9022-.2261-.5078 0-.9911.025-1.4373.0739v.0005c-.0438.0045-.2855.0328-1.7405.2017-.0239.0039-2.0683.3189-2.0706.3194-.6172.11-1.0994.1606-1.5177.1606-.9923 0-1.6512-.2978-2.015-.9106l-.1934-.3244-2.1389 2.7878c-.1855-.0511-.37-.1084-.5644-.1778l-.4872-.1733.0533.5139c.0278.2683.1383.5133.3072.7372l-2.0966 2.7328.2127.2133.0167.0128c.9311.6822 1.3467 1.7255 1.3467 3.3822 0 .4667-.0317.9411-.0595 1.3017h.0039c-.0155.0638-.0367.1888-.0805.4488l-.4162 2.475c-.0033.0261-.1383 1.0384-.2094 1.5728-.0856.7828-.1294 1.5506-.1294 2.2811 0 .2167.0038.4278.0111.625.1255 4.9373 3.0789 8.8728 7.8994 10.5267l.0011-.0028c.04.0183.1011.0411.1934.0756 0 0 .7522.2811.7577.2833l.1139.0483c1.4217.6078 2.8922 1.2367 4.0722 2.4167l.1906.1917.1967-.2189.0461-.05s.0283-.0328.0505-.0578c1.45-1.2878 3.1489-1.9678 5.0567-2.6622 3.4611-1.2184 4.73-2.7633 5.6572-3.8922l.0256-.0317c1.4289-1.6672 2.3161-4.3422 2.3161-6.9817 0-.0644-.0006-.1289-.0022-.1911 0-.0028 0-.0061-.0667-1.6416-.0028-.0262-.1222-1.1634-.1856-1.7623-.0005-.0033-.0011-.0116-.2711-1.6227l-.2505-1.5712c-.0506-.42-.0761-.8188-.0761-1.1855 0-.0883.0011-.1745.0044-.2622l-.0006-.0523c0-1.5677.4628-2.6777 1.4142-3.3933l.205-.1539-.5247-.69c.1617-.165.2497-.3194.3097-.4444.099-.2045.116-.5806-.017-.7922-.004-.0073-.009-.0139-.014-.0206.481-.355.993-1.1528 1.139-1.4317l.407-.78c.001-.0005-.831.3317-.837.3345zm-25.266.1966 1.6633-2.1622c.5861.845 1.55.905 2.5061.9384l.6356-.0678 2.7166-.4272 1.8261-.2089c1.7678-.2011 3.5284.075 5.2039.3094l2.4139.3945c1.0228.0744 2.1195.05 2.8161-.7134l.1334-.15 1.5388 2.0228c-.0022.0011-.0049.0022-.0072.0033-.0322.015-.0811.0361-.1422.0617-.1983.0717-.4228.1539-.6322.2378-.0261.0094-.0534.0183-.08.0278l-.0261-.0062-.7834-1.0322c-.8133.4611-1.8277.5278-2.8077.4611l-1.4089-.2183-1.7417-.2844-1.86-.2184c-1.1144-.0916-2.2544-.05-3.3361.0756l-1.5428.2183-2.5644.3856c-.9889.0827-1.9445-.0339-2.7411-.4784l-.7956 1.035c-.1033-.02-.2067-.04-.3144-.0622-.2445-.0489-.4634-.0944-.67-.1417zm19.4861 4.8045c-.0234.2517-.3167.3078-.4139.5111l-.1378.0978c.1211-.0078.2511-.0817.3339-.1872.2022-.0645.8406-.1973.8694-.0728.0284.1239-.0305.2383-.2194.3733s-.8622.4233-1.3583.3422c-.2767-.0077-.5367.0728-.7967.1295l-1.3339.3905c-.4622.1223-1.0033.1867-1.5033.0656-.7395-.1378-1.4711-.3339-2.2528-.285-.0878.0039-.2117.0733-.2606.1789.0817-.0167.2034-.0567.285 0-.0111.1011-.0255.66-.2405.8711-.0567-.0645-.0872-.1683-.1156-.2606-.0283-.0922-.3516-1.5055.2673-1.9516.37-.12.8527.105.975.1711.4777.2589 1.2938.3961 1.9277.6416.2761-.0327.5439-.1222.8284-.155l1.9111-.2522c.3416.0645.3916-.3739.6905-.4055.1956.0077.3178-.1395.4717-.2278.0272-.0239.0728-.0161.0728.025zm-15.7617.8622c.0733-.065.3278-.1228.5689-.0883.2406.0344.6717.1389.9967.3672.6589.2194 1.1739.6739 1.8444.8833.025-.0577-.065-.1066-.0972-.1472.415-.3172.8461-.61 1.31-.8044.3-.3506.6983-.6989 1.1861-.6267l.1106-.0117s.0022.1123 0 .1573c-.0139.2538-.1462.5072-.29.855 0 0-.405.15-.6017.2683-.1595.0961-1.5611.9183-1.5611.9183-.3984.3167-.5961-.0378-1.0078-.3166-.4806-.2523-.9761-.4962-1.3911-.8862 0-.0561.1217-.0244.065-.0894-.2361.0244-.4117.1061-.6228.1717-.0894.0411-.3111.1155-.3828-.0228l.1028-.0272c.1311-.0884.1783-.2645.3933-.3161-.1561-.1506-.4622-.2045-.685-.2189zm17.6883.1145c.0167.1172-.22.3966-.5238.4644-.3695.0828-.6673.0111-.9045-.125.0111.2628.4467.3617.7661.3011-.1778.2439-.7189.4128-1.125.3972-.4217-.0166-.7055-.1433-1.0805-.375-.0384.2539.4411.4689.7827.4961-.6788.3739-1.4388.1023-1.5327.0773-.1873-.0495-.4634-.1656-.61-.3145-.0095.1972.2566.3534.4939.4084-.4467.2094-1.0156-.0239-1.2401-.3962.7339-.2133 1.2934-.4083 2.0389-.5938.7195.12 1.4084-.1817 1.6767-.4962.1045-.1222.175-.2722.1795-.3105.0677-.0217.1638.0039.23.02.0677.0161.7833.1778.8488.4467zm-6.1066 1.0683c.35.0411.8294-.0311.9928-.0811.08.1372-.08.3705-.2145.3205.0572.195.2372.4473.205.6739-.1705-.0639-.6739-.2633-.6739-.2633.1222.2033.2989.5617.235.8211-.2039-.1539-.6328-.1672-.8039-.2972.0811.3094.2845.7566.0161 1.0494-.2511-.1789-.3738-.4639-.585-.6672.0406.2928.1062.7478-.0983 1.0172-.1294-.1633-.6867-.3794-.6711-.5739-.0567-.0172-.2061.5973-.3933.7111-.1861-.2594-.3456-.6255-.6034-.8605.0717-.0817.1617-.0339.1278-.1722-.0733-.1761-.34-.2767-.6339-.3973.0439-.0916.0745-.1366.1678-.27.2383-.34.3872-.655.4439-.8183.0933-.2694.1244-.3572.1461-.5528.3033.0384.5128.0873.8839.1289.3861.045.9533.1689 1.4589.2317zm-6.3111-.1078c-.0923.1006-.1489.1561-.1973.2756-.1111.2755 0 .6894.2839.8933.1895.1361.2534.1528.4061.1972-.3733.1006-.7866.6378-.7888.9222-.1445-.1339-.1828-.3972-.1462-.64-.1027.1439-.3305.2484-.4694.2639-.0483-.1222-.0244-.4405.1178-.5866-.0561-.0967-.3795-.0467-.5289.0589-.0322-.195.0389-.3484.2361-.4689-.0533-.1106-.1739-.0306-.4411.0039.1705-.0834.4289-.2223.7044-.3989.4678-.2995.8234-.5206.8234-.5206zm.175 7.7889c.405.6489.4411.6739.6605 1.0489.2195.375 1.1289 1.7772 1.305 2.0622s1.1139 1.8744 1.72 2.1833c-.4661.5073-.2428 1.1356-1.0116 1.26-.4445.0717-1.6912.455-2.1223-.2661s-.6272-1.8744-.4972-2.785c.5478.8511.9406 1.2278 1.2422 1.4011-1.0005-1.1122-.8766-1.3444-1.3555-1.9461-.1928-.2428-.2339-.635-.2572-.9316-.0395-.5056-.0312-1.0162-.0556-1.5228-.0139-.2739 0-.565-.0911-.8272-.0356-.1006-.1078-.4023-.13-.5073s-.0111-.2427-.0111-.2427.1989.4244.6039 1.0733zm3.0305-9.6861c-.4222.3-.5011.5739-1.1955.9278-.385.1961-.7623.3572-1.0078.235-.2522-.1378-.1733-.5923-.1745-.6517-.0011-.0511.0056-.1244.0078-.1622.1872-.0939.4572-.0356.5339-.2684.0639-.1944.0478-.4138.0889-.6177.0806-.1706.325-.2528.3733-.4389-.3161.2028-.5683.5122-.9594.495-.1217-.0317-.04-.1872-.105-.2595-.0789-.0311-.0772-.0927-.0895-.15.0323.0045.0573.005.0595.005.0189 0 .0333-.0144.0333-.0333 0-.0183-.0144-.0344-.0333-.0344s-.0622-.0039-.1017-.0156c-.0033-.0028-.0044-.005-.0072-.0072-.0072-.0656.025-.155-.0239-.2028l-.1961-.0339c.0167-.2022.1556-.3817.1633-.6005.0328.04.155.0311.0973.1127-.0323.0328-.0239.09-.0073.1228-.0105-.0967.3417-.2228.1539-.2894-.0805-.0156-.3083.0372-.325-.0856 0-.1783.0739-.3328.1717-.4789.2039.1706.4794.3167.5444.5934.0723.0816.1467.1866.2523.1866.2277-.0894.3411.1378.5605.1222 0-.0483.025-.0977.0739-.1138.05-.0256.105 0 .1383.0416.025.105-.0405.17-.09.2356-.0816.0644-.1789.0811-.2844.0972.1783.1222.3333-.0733.5039-.1139.0805-.0161.1628.0161.195.0978.0739.415-.105 1.0155.415 1.22.0716.0322.1533.0405.2344.065zm8.1011 15.08c-.3361-.0378-.6233-.0195-.7444.2983-.17.3911-.2628.6772-.3961.9028-.1589.2689-.4167.5028-.8522.6239-.4356.1211-1.0428.1494-1.1178-.1122.1116-.5317.8344-.6139 1.1416-.7628.575-.2778.6278-.7833.6467-1.3045-.8083-.52-2.4355-1.8111-2.4355-1.8111s1.4183 1.4084 2.1733 1.9111c0 .4428-.1156.6945-.4667.8889-.2294.1267-.4911.2211-.815.3845-.5539.3144-.3889.7611-1.1383 1.0466-.3145.12-1.0728.2245-.8745-.1861.2839-.4261-.0188-.4277-.0188-.4277-.1728.0511-.6328.1788-.8712.1883-.1461.0055-.2933-.1006-.1655-.2189.0467-.0428.12-.0783.1972-.1378.1144-.0878.1806-.145.23-.2333.0783-.1406.1411-.33.0567-.3789-.1017-.0595-.2573-.0183-.3323.0633-.3099.3439-.3355.9206-1.2294.7545 0 0-1.0517-.2422-.2033-1.4256.2394-.3183-.4195-.6905-.8067-1.165-.74-.9067-2.8517-4.3305-2.8517-4.3305-.2194-.3167-.4511-.6984-.6527-1.0084-.2017-.3094-.2678-.9711.1955-.9072.22.0461.2917.1456.5372.0417.1767-.0745.1612.19 0 .3227-.1022.1062-.1022.3034.0367.4101.1811.1044.2272-.1017.4328-.0434.2061.0589.3517.5545.7183.66.1.0245.1634.0172.1867-.0483.0528-.1478-.1167-.35-.0761-.5306.0611.1106.2172.2261.4266.3417.255.1406.4034.175.3362-.0389-.0756-.2422-.1128-.4078-.1128-.4078-.025-.1822.1372-.3227.2605-.3227.0717 0 .1473.0633.1973.1461.1611.2927.0838.4616.4522.5777.55 1.1662 1.9694 2.66 2.5355 3.125.1184.0973.3311.2178.4967.2806-.1256-.1228-.3261-.3-.4156-.3856-1.4889-1.4272-2.4305-2.7472-2.4055-3.0283.4261-.1778.4922-.5911.6161-.5294.0622.0372-.1344.3755-.0994.5461.0205.0994.12.2355.3888.2316-.4822.4812.7445.885 1.6539.8645.3284.2044.9017.55 1.5878.7072 0 0 .0672.3278.2811.3389 0 0 .5028.7783 1.19 1.5161.6867.7394 1.4634 1.9383 2.1061 2.5728zm-5.3066-.8161c-1.4684-1.5673-2.9261-3.9373-3.1206-4.01 0 0 1.8095 2.7478 2.1383 3.2133.3289.4656.7762.9078.9873 1.2828.0661-.1095.1661-.3034-.005-.4861zm-2.6656-13.9961c-.6294.5983.1145 2.1116-.3117 2.7277-.0461.0667-.095.1489-.1283.215-.3389-.1116-.5439-.1205-.8311-.1238-.17-.0023-.3722.0377-.5089.0494-.3389.0289-.5911-.0039-.9017.0622.0234-.0672.0673-.1222.1284-.215-.2895.0084-.5089-.0494-.67-.2605-.1034-.145-.1239-.3217-.0706-.4673.0822-.2244.3195-.4338.4178-.6411 0 0 .1667-.26.2272-.5744.0289.1033.0778.2739.36.3389.2628.0605.55-.0378 1.0167-.2728-.2133.3389-.5167.5506-1.0833.6417.1955.04.5666-.0395.9472-.2384.4616-.2422 1.0444-1.0427 1.0444-1.0427.1395-.1234.4128-.2389.3639-.1989zm-.7072 2.1161c-.1033.1922-.2306.3416-.64.36-.5211.0233-.6422-.2839-.6422-.2839.0322.1605.1444.4972.6461.475.6383-.0283.6361-.5511.6361-.5511zm12.5639-3.6761c-.9628.7677-1.2595 1.9305-1.3178 2.2839-.1595 1.0227-.1939 2.1705-.0083 3.1761l.5116 3.1766.1495 1.3906.06 1.6255c.1066 3.7534-1.7 8.7823-7.8622 10.8034l-1.4912.5772c-1.2572.5539-2.4888 1.1572-3.5616 2.1289-1.4922-1.3328-3.2517-2.0606-5.0284-2.7406-5.6566-1.7911-7.6405-6.5683-7.7433-9.855-.0494-1.105-.0078-2.2872.1256-3.3933l.2355-1.6767.3934-2.2711c.1761-1.2828.1855-2.7066-.2428-3.8794-.2089-.5361-.5956-1.0228-1.0639-1.4411.5172-.685 1.115-1.4756 1.6494-2.1706.0089.02.0173.0389.0261.0595.0045.0105.0095.0216.0139.0316.09.2489.1906.4406.27.5722.04.0756.0817.1523.1278.23l-.8972 1.2012c1.1067 1.2483 1.165 3.0166 1.1144 4.6766l-.1333 1.03-.4867 2.9422-.1916 1.6756-.0595 1.5422c-.1905 3.7661 2.6772 8.59 7.9528 10.1739 1.3744.5522 2.7072 1.1889 3.9389 2.0956 1.2322-.8973 2.5811-1.525 3.9639-2.0634 6.105-1.7189 7.9528-6.4266 8.0272-9.5355.0683-1.1484-.0328-2.28-.1506-3.3772l-.2344-1.5595-.3183-1.9439c-.1917-1.0794-.1523-2.3944.0411-3.4416.3277-.1439.6794-.4628.8939-1.1445l.0316-.1c.3567-.2467.795-.645 1.0856-1.0394.0417.0172.0883.0939.1789.24zm1.1479-4.5956c-.423.9711-.69 1.2522-1.3407 1.48 0 0-2.0989.6433-2.6356.8495-.6227.2388-1.11.4983-1.4277.6805-1.1173-.6805-3.1706-.1733-3.6689.0139-.8034.3017-1.6267.7933-2.3095 1.2806-.1016-.1-.2377-.2634-.3528-.2717 0 0 .3484.2117.2856.5789.0883-.025.4322-.2839.6667-.0778.2355.2056-.005.4539-.0873.6489.2523-.195.5228-.3478.7978-.1678.3056.2-.0389.5672-.1405.74.2266-.0405.4605-.2133.6216.0211.1612.2345-.0811.3567-.31.4861.2195-.0161.2356.155.8639.1939-.2922.0278-.5955.06-.7905.0772-.1411-.0316-.3089-.1116-.5889-.19-.7256-.2033-1.1583-.4283-1.4439-.5211-.2856-.0927-.6211-.1222-.8361-.0555-.1156.0022-.1172.0489-.2161.0566.9605-.3416.6733-1.4966 1.1294-2.1955.4634-.8706 1.4311-1.0783 2.2928-1.2333 1.1217-.1545 2.8789-.3245 3.3989-.4312.9378-.1922 2.1061-.5744 2.3417-.6855.2872-.135 1.5472-.5806 2.0338-.7578.4867-.1772 1.1393-.3978 1.7163-.52zm.063 1.1511c-.14.3645-.62 1.2006-1.1459 1.4672-.7228.4062-1.7461.5773-2.5278.665-.6261.09-1.115-.0305-1.3417-.1022 0 0-.2327-.0744-.3111-.1333 1.1711-.6306 2.6006-1.0572 4.0939-1.4583.8286-.2878.9316-.3184 1.2326-.4384zm-14.727 1.2695c-.3117.04-.7084.1144-.945.5389-.1106-.0895-.0734-.2717.0505-.4328.09-.1172.4134-.2445.8945-.1061zm13.6144.9844c-.0772.16-.1867.3272-.4122.5028-.47.3967-2.7095.72-3.5656.4344.9084-.3661 1.0028-.6711 1.0584-.9027.6811-.0256 1.7016-.1034 2.8433-.6006.1327-.0333.1577.3978.0761.5661zm-4.8839-.4939c.2634.0884.6645.2717.4784.3284-1.4306.24-2.37.64-4.8395 1.585-.0839-.0034-.1872.0122-.27.0438.0278-.1266.0167-.2755-.1267-.4188-.1155-.1156-.3061-.1739-.6011-.0662.7234-.4722 1.4661-.9455 2.2828-1.2461.6522-.24 1.3539-.3555 2.1117-.3694.4628-.0083.7333.0655.9644.1433zm-7.3539.0772c.0211.0773.005.2856-.1433.3634-.2767.1289-.4456-.1578-.6728-.2228-.4239-.0656-.93.0078-1.3361-.0983.1089-.1567.2911-.3234.5106-.3973.2594-.0811.7572-.1916 1.11-.0822.3444.1067.49.2967.5316.4372zm.3384.1456c0 .065-.0211.0861-.0523.1339-.0311.0478-.1.1205-.2322.0861-.0155-.115.05-.2361.155-.3011.0567-.0172.1295.0161.1295.0811zm8.8322.3422c-.0439.1984-.3356.435-.5639.5645-.255.145-.6189.2322-.7422.4255-.1634.1456-1.58.5539-2.2478.7217s-1.2133.3111-1.8539.4178c-.12-.0984-.3022-.0911-.4178-.0706.1656-.3417.1011-.5733-.1966-.6617l3.24-1.1683c.5966-.1717 1.3439-.3839 1.8422-.3994.3255.0783.5483.1705.94.1705zm-9.8761-.1466c.2122.0655.595.4488.6933.6444.0322.1544-.0322.3006-.1305.415-.09.0328-.1867.1306-.2189.2183.0155-.0966-.0089-.1855-.0661-.2594-.09-.0567-.185-.1567-.2256-.2633-.3378.0061-.8361.0177-1.0183-.1489-.0039-.0661-.0289-.1239-.095-.2028.1072-.0128.5033.0217.7166.0289.2139.0078.5073.0039.5645.09 0 .04-.0395.04-.065.0489-.0245.0077-.0567-.0089-.0722.0077.065.1062.195.1295.3088.0978.0656-.0322.0989-.0978.0573-.1789-.0628-.1233-.2106-.145-.3989-.1705-.1884-.0261-1.1722-.0406-1.1722-.0406-.1045-.1144-.3362-.2794-.485-.3539-.0167-.0727.0705-.1361.1183-.1116.3989.1383 1.0505.1227 1.4889.1789zm1.2905.0583c-.015.065.025.0494.0817.1144 0 .1223-.0817.2195-.1783.2761-.0895.0489-.2273.0812-.3173.0084-.0494-.0317-.17-.065-.17-.065 0-.2117.2523-.3178.4145-.3906.0717-.0322.1461-.0155.1694.0567zm-9.7394.1661c.9378.1639.8911 1.0106 1.1222 1.3728-.7911.0428-1.14.0705-1.7478-.0695-2.1505-.4961-2.5594-1.5089-3.1377-2.8716 1.0422.9405 3.325 1.4916 3.7633 1.5683zm20.915.5661c-.4722.6589-1.3406 1.21-1.6772 1.3545-.2439.105-.5628.1833-1.0861.0605-.2739-.0633-.53-.1805-.71-.3244-.3517-.2811-.3317-.4734-.3256-.5723.0044-.0677.1211-.2166.24-.1783 1.2956.3295 3.1294-.0661 3.5589-.34zm-11.3472-.175c.0411-.0078.0744-.0328.1233-.0239.0556.1867-.1494.2456-.2689.2761-.0894.0089-.1389-.0655-.1711-.1294 0-.0556.0011-.1283-.0394-.1739.0011-.0256.0111-.0494.0394-.07.0744.105.1872.1622.3167.1211zm-8.3711 1.1222c.0661.0884.1883.3889.6361.7106-.2506.0683-.5206.095-.9111.1155-.5295.0278-1.0073-.0277-1.0073-.0277-.7833-.0634-1.7811-1.005-2.0289-1.3711.5273.2772 1.2289.4966 1.7767.5638.5472.0662 1.0778.0767 1.5345.0089zm2.5483.6717c-.005.0906.0117.2311.1794.3406-.1122.0138-.3605.0116-.4927.0566-.8195-.0461-1.6412-.2916-2.1062-1.08.2073-.0005.3967-.0139.7084.0534.4461.0966 1.1178.2944 1.7111.6294zm14.4394-.0428c-.0383.1656-.3644.4139-.7077.4645-.0095.0022-.0462-.2623-.4145-.2378-.2072.0139-.2061.0428-.3522.0755.065-.09.0461-.2227-.0106-.3211-.0166-.0244-.0589-.0639-.0922-.0639-.0967 0-.1983.0323-.32.1095-.1239.0783-.2489.0578-.3472.095-.1734.065-.2917.1667-.4217.3683-.0372.0284-.0894.0156-.1739.0095-.0794-.0345-1.4644.1689-1.4644.1689-.2589-.0167-.6145.0088-1.0661-.1295 0 0 .3744-.1861.1766-.5161 0 0 1.8662-.4078 2.6034-.6139s1.135-.34 1.3833-.4611c-.0439.1711.1211.4728.4161.7044.2039.16.6206.3145.7911.3478zm1.5617-.3628c-.4189 1.3323-1.6044 1.1639-2.0272.8956.4366-.1333.6216-.5033.6216-.5033.5945.0483.9923-.0606 1.4056-.3923zm-16.4328.8778c-.1778.0995-.1316.2378-.0922.33.0561.1306.2033.2011.2033.2011-.0833.0511-.1816.1511-.2561.2584-.19-.1011-.4583-.2484-.6922-.3267-.4356-.2539-.8517-.405-1.3039-.3739-.1311.0089-.4183.1111-.5122.15-.3072-.0533-.7695-.3167-.8928-.4633.565.0778.9317.0578 1.2589.0355.56-.0411.9256-.1361.9256-.1361.4633.1817.7938.3311 1.3616.325zm6.2967 3.425c-.1478.0084-.0533.0711-.3711.315-.065.0489-.295.0811-.49.0611.0539-.1005.1366-.19.0266-.4133-.1127-.23-.2883-.2878-.3711-.2895.1289.0945.23.2128.29.3512.0478.1111.0117.2422-.0861.3394-.1033.025-.2261.0922-.3128.1706.0778-.2928-.18-.725-.3944-.7861.1906.2555.3572.4338.2522.8761-.0661.1489-.6583.5561-.8378.4083-.2883-.255-.0522-.4589-.1588-.7433-.0239-.0495-.0412-.12-.0828-.1028.0811.2761-.0384.3961-.0167.6822-.1983.0706-.305.1106-.4461.0828-.0656-.0817-.1156-.215-.0728-.4272.0428-.2123.2089-.49.3889-.7111 0 0-.0922.0316-.1778.1111-.2566.2372-.3894.5472-.37.7672.0089.1017.0206.1883.0956.2639-.0533.0011-.325-.0134-.4039-.1745-.155-.3172.0722-.6111.2422-.8222.1395-.1733.3689-.2767.3689-.2767.3578-.1705.8761-.1038 1.2367-.1588.3611-.055.6644.0011.9666.0966.3023.0956.4967.2184.7245.38zm5.5183 6.2967c.0428.2366-.2633.3983-.4989.4322l-.0744.0072c.0072-.2233-.0372-.6477.1944-.69.2323-.0422.335.07.3789.2506zm-3.6705-2.5872c.6627.8105 1.2811 1.2377 1.4111 1.3283 0 0-.9067-.8483-1.0884-1.1795 1.53 1.1912 2.7239 1.6634 3.2928 2.0695-.2116-.0478-.4728-.0722-.6011.0989s-.03.435-.1105.6872c-.0439.1906-.1734.2228-.2389.2228-.1139-.7167-.6834-.8289-.6834-.8289.1434.1705.3256.3361.3667.5922-.5339-.0939-1.5428-.7116-1.5422-.72-.5289.0295-1.1706-.0328-1.5072-.2517-.3839-.2511.4161-.2922.0883-.5538-.145-.1156-.3122.0094-.4345-.1739-.0827-.1239.2234-.3928.0912-.6534-.0834-.1644-.2445-.1594-.3823-.0272-.1405.1317-.2211.6556-.6305.5522-.24-.0605-.1656-.4672-.4217-.6572-.1672-.1239-.3983-.1244-.5378.0206-.1711.1783-.1322.42-.1322.42-.4861-.9667-.0167-3.02-.0167-3.02-.5138 1.335-.5094 2.4878-.1161 3.1911-.1255-.0617-.3311-.2622-.3827-.3806-.1095-.2489-.2706-.5955-.2289-.9344-.3061.5378.2839 1.5144.0494 1.5094-.1944-.0039-.1917-.3844-.4344-.5127-.25-.1323-.3411.09-.4423.0038-.1122-.095.4178-.4716-.0455-.7361-.2506-.1433-.3633.1239-.5683.0067-.2056-.1178-.47-.0644-.47-.0644-.0889-.47.5011-2.5889.5011-2.5889.3522.1761.8466-.1106.8466-.1106.265.4983.7956.0911 1.0278-.1022.1756-.1467.2311-.2706.4372-.3617.2234-.0994.4839.0411.7123-.0578.245-.1066.3022-.2544.3022-.2544.3166.2772.6939 1.285.845 1.6289.5189 1.1761 1.0439 1.8378 1.0439 1.8378zm-4.8167-7.3761c-.5211-.0828-.9717.1505-1.3728.68-.5239.1611-.8405.3555-1.2478.77-.2894-.0995-.62-.2823-.7177-.3423.0605-.1505.1683-.2722.3111-.3355-.1322-.0828-.3622-.1961-.3211-.345.0777-.2811.4411-.1161.8433-.2795-.1611-.0783-.3517-.2005-.2733-.4305.0772-.23.4339-.1934.7194-.1234-.1572-.1527-.1922-.4116-.0239-.5227.1689-.11.5367-.0717.5367-.0717.0083-.1961.1533-.335.2611-.4889-.1711.04-.27.255-.3272.3845-.5256-.0439-.7634.2133-.6434.5438-.2522-.0494-.5111-.0061-.61.2089-.6422-.3822-1.6011-.6589-2.2827-.6972-.1017-.0055-.1439-.0044-.235-.0167-.075-.0827-.1473-.29-.1695-.3733-.0761-.2889-.2172-.6978-.5172-.8422.6278.085 2.3156.41 3.3706.8489-.7734-.5711-2.8662-.8589-4.1406-1.1561-.9539-.2228-2.2544-.6311-3.0633-1.2034-.4578-.3233-.7234-.7011-.7673-1.1222.58.2061 1.0762.3139 1.7417.4495.4506.0916.8156.1527 1.4578.2894.5983.1278 1.47.385 1.47.385 1.3583.3911 2.8783.1389 4.2117.5933.5988.2306.57.9595.6588 1.5134l.1434.1427c-.0006.7706.3694 1.0773.9872 1.5412zm4.3328 7.3422c.645.8089.6905.8111 1.2528 1.3733-.3062-.1489-.9662-.7644-1.3262-1.2105-.5516-.6834-.8083-1.2834-.9016-1.9189.0005 0 .33.9472.975 1.7561zm-6.9889-9.8684c-.7789-.4161-1.8945-.3788-2.5261-.5427-.6411-.1667-.7234-.2073-.7234-.2073.2495.0423.4806.115.7489.1484.8528.1061 1.7939.1489 2.5073.4511.4038.1711.62.58.7183 1.0144-.1661-.3355-.4022-.6916-.725-.8639z" fill="#094183"/><path d="m67.5723 40.8972-.1528.0005.0378.1484c.3611 1.4127-.0211 2.7855-1.0211 3.6722l-.3156.28.4156-.0728c.3189-.0555.7411-.1155 1.1838-.0811 1.0423.0656 1.7773.2794 2.3778.6828-.0322.1583-.6277 3.1044-.6277 3.1044-.0106.0467-.0156.0928-.0156.1367 0 .1983.0978.3711.1994.5172l.0056.0078.0061.0067c.4572.4811 1.0394.6411 1.6017.7966l.0472.0128c2.4578.5733 5.0522.0628 7.3072-1.4361l1.2145-.7928.5338-.3294.6428-.3945c1.2378-.7339 2.2573-1.1333 3.4072-1.3339 2.3795-.4183 4.9284.0884 6.82 1.3556.0073.0044.2473.1444.2473.1444-.0061-.0033 1.5955 1.0461 1.5955 1.0461.0006.0017.9934.6289.9934.6289 2.1983 1.3811 5.0461 1.7911 7.4318 1.0695.403-.1345 1.237-.4122 1.355-1.1439l.004-.0211s-.602-3.1289-.628-3.2628c.002-.0006.088-.0633.088-.0633l-.028.0211c1.005-.5617 2.321-.7578 3.52-.5234l.434.085-.332-.2922c-1.002-.8805-1.377-2.2555-1.004-3.6789l.039-.1483-.153-.0017c-1.523-.0166-2.942.1939-4.22.6267-.6341.2439-1.5863.61-1.8668 1.4706l-.0056.0172-.0333 2.4955c0 .0011-.005.6989-.0067.9834-1.4828-.0311-2.71-.7745-3.7456-1.4773.0006.0006-.3616-.25-.3616-.25-.0022-.0022-1.4822-.9694-1.4822-.9694-1.755-1.0878-3.4945-1.7344-5.3162-1.98-3.1194-.4078-6.2355.3533-9.0133 2.2017-.0011.0005-1.3955.9489-1.3955.9489-1.0956.7205-2.2878 1.4211-3.735 1.4377.0016-.1861.0166-3.3039.0166-3.3039-.0083-.4972-.3894-.9572-1.1355-1.3694-1.3678-.6639-2.9789-.9817-4.93-.9722z" fill="#094183"/><path d="m72.1486 44.4898c.3978-.1144.8055-.2405 1.1367-.5511-.0006.1689-.0073 2.5189-.0073 2.6034-.8655-.0239-1.8394-.1417-2.5711-.7995-.0005-.0017-.0311-.0417-.0311-.0417-.0811-.1044-.1494-.1922-.1494-.3011 0-.0389.0089-.0811.0294-.1261.2122-.3939.6328-.5089 1.0383-.62l.3306-.0978c-.0011 0 .2239-.0661.2239-.0661z" fill="#fff"/><path d="m99.0294 44.0759c.3972.3478.8861.4934 1.3626.6278.42.1172.853.2395 1.211.5045.11.0977.161.1827.161.2716 0 .0395-.01.0789-.029.1211-.231.4389-.768.6567-1.152.7823-.51.1427-1.0203.2155-1.5542.2255.0006-.0855.0006-2.3755.0006-2.5328z" fill="#fff"/><path d="m67.9205 42.0709c0-.2772-.0311-.5589-.0844-.8417 1.4827.0595 3.1888.2306 4.67 1.0312.37.2361.7888.5611.7888.9922 0 .0116 0 .0228-.0005.0339-.0695.5516-.6272.72-1.1189.8683l-.6411.1967c-.5233.1455-1.0589.3033-1.3.8455-.8433-.5066-1.9028-.7394-3.1533-.6922.5422-.6461.8394-1.5094.8394-2.4339z" fill="#fff"/><path d="m101.145 44.5719-.052-.02-.622-.1878c-.5063-.1344-.9846-.2616-1.3429-.66-.0656-.0944-.0939-.2161-.0939-.3372 0-.1089.0228-.2155.0605-.3011.4661-.7167 1.2633-.9672 2.0333-1.2089l.202-.0644c.946-.2572 1.996-.3945 3.203-.4234-.054.3056-.085.6045-.085.8917 0 .9322.282 1.7522.813 2.3845-1.225-.0484-2.288.1788-3.165.6738-.143-.4311-.587-.6083-.951-.7472z" fill="#fff"/><path d="m77.1509 45.6538 2.155-1.3878c2.6106-1.66 5.4189-2.3167 8.3456-1.9506 1.6883.2184 3.2989.7917 4.9217 1.7523l1.3866.8677 1.4189.9239c1.3611.925 3.0178 1.2945 4.6643 1.0395.664-.1461 1.406-.3195 1.906-.9228.03.15.57 2.9444.57 2.9444-.08.3878-.505.5778-.846.73l-.087.0389c-2.4723.8211-5.4728.3295-7.8273-1.2844-.0005-.0006-2.1383-1.4045-2.1383-1.4045-2.2234-1.4344-4.8828-1.95-7.49-1.4522-1.2784.2445-2.5295.7817-3.9389 1.6911l-1.9728 1.28c-1.9294 1.2339-4.1917 1.7128-6.3694 1.3484-.6673-.1289-1.3578-.2611-1.8856-.7489-.1078-.1167-.1628-.2211-.1761-.3367.0017 0 .5139-2.5544.5872-2.92.7178.7911 1.755.9639 2.7784 1.0195 1.3238.0661 2.5938-.325 3.9977-1.2278z" fill="#fff"/><path d="m71.6081 47.3917-.7655-.1128c-.0195.0144-.0262.0583-.0262.0583.0734.0378.0773.0545.0717.0967l-.2117 1.4289c-.0061.0417-.0138.0561-.0772.0544-.0183.0156-.025.0611-.025.0611.0145.02.5017.0917.5017.0917l.0172.0033.01-.0633c-.0594-.0294-.0728-.0455-.0728-.0722 0-.0072.0006-.0145.0017-.0228 0 0 .0839-.5644.0839-.5689.0017.0161.3417.0667.3417.0667.44.0655.6355-.1756.6733-.4222.0361-.2473-.0817-.5345-.5228-.5989zm-.1622.7083s-.3006-.0444-.3033-.0444c.0161-.0017.0705-.3628.0777-.4117.0311.005.2867.0428.2867.0428.1289.0183.2056.0511.2433.1016l.0256.15c-.0222.1506-.1122.1945-.33.1617zm1.6317-.5333c-.2167-.0067-.4073.0605-.5517.1961-.165.155-.2617.3917-.2706.6655-.0177.5306.2895.8973.7639.9134.2167.0072.4067-.0606.5511-.1956.1661-.155.2623-.3911.2711-.6655.0089-.2745-.0716-.5167-.2272-.6828-.135-.1439-.3205-.2233-.5366-.2311zm.2422 1.3677c-.0745.0706-.1728.1039-.2906.1001-.28-.0089-.4272-.2206-.4155-.5945.0066-.2122.0639-.3739.165-.4672.0733-.0695.1711-.1028.2883-.0983.1178.0038.2133.0433.2828.1177.0939.1006.14.2656.1333.4761-.0061.2106-.0628.3723-.1633.4661zm1.5228-.8583c-.2056-.0016-.3823-.0033-.4095-.1294-.0239-.1156.0461-.1978.1978-.23.2555-.0539.4083.0283.4211.0883l.0061.0389c.0161.0294.065.0389.065.0389.02-.0111.1717-.4534.1717-.4534l.0205-.0605-.0816.0383-.0534.045-.0827-.0116-.0956-.0189c-.1217-.0223-.2567-.0172-.4017.0128-.4544.0977-.5583.4005-.5094.6305.0739.3483.4294.3528.715.3556.2183.0027.4067.005.4361.1416 0 .0011-.0222.1556-.0222.1556-.0445.0689-.1456.1205-.3006.1539-.135.0278-.3344.0222-.4228-.0361l-.0411-.0523-.0105-.0422-.0484-.01c-.0211.0128-.1283.4456-.1283.4456s.0111.0022.0172.0033v.0011l.035.0134c.0023-.0045.0045-.0039.0067-.0078.0056.0005.0167.0022.0167.0022.0105-.02.0172-.0311.025-.0322.0005-.0006.1022.0094.1022.0094l.0994.0184c.0006 0 .3945-.0089.3945-.0089.5083-.1078.6805-.4384.625-.7-.0822-.3939-.4517-.3967-.7472-.3995zm2.0238.2806s-.5366-1.175-.5394-1.1811c.0078.0133.3444-.1389.3444-.1389.0656-.03.0812-.0278.1089.0155.0217.0061.0634-.0127.0634-.0127.0089-.0228-.1589-.3912-.1589-.3912-.0234-.0088-.065.01-.065.01-.0022.055-.0095.0689-.0756.0995l-1.0005.455c-.0706.0322-.0839.0255-.1034-.0017-.0211-.0055-.0622.0134-.0622.0134-.0089.0227.1583.3916.1583.3916.0228.0089.065-.01.065-.01-.0005-.01-.0016-.0189-.0016-.0266 0-.0484.0144-.0623.07-.0873 0 0 .3516-.1605.3528-.1605v.0011c0 .0394.515 1.1733.515 1.1733.0077.0167.0122.0295.0122.04 0 .0167-.01.0272-.0295.0417-.0005.0022-.0011.0061-.0011.0089 0 .0228.0139.0544.0139.0544.0239.0089.4472-.1844.4472-.1844l.0161-.0078-.0272-.0572c-.0716.0044-.0844-.0045-.1028-.045zm1.7884-1.3339c.0005.0105.0016.02.0016.0278 0 .0311-.0116.0472-.0627.08 0 0-.6211.4016-.6239.4033 0 0 .0005 0 .0005-.0017 0-.0255-.1939-.3266-.22-.3683.0267-.0172.3323-.2161.3323-.2161.0644-.0411.0788-.0378.0994-.0184.0217.0017.0594-.0227.0594-.0227.005-.025-.2022-.345-.2022-.345-.025-.005-.0622.02-.0622.02.0017.0111.0022.02.0022.0278 0 .0322-.0133.0483-.0628.0799 0 0-.3455.2223-.3477.2239.0016-.0005.0016-.0005.0016-.0016 0-.0278-.2044-.3428-.2055-.3445.01.0139.5811-.3555.5811-.3555.065-.0428.0789-.0389.0989-.0195.0211.0028.0605-.0222.0605-.0222.005-.0244-.2027-.3444-.2027-.3444-.025-.0061-.0628.0189-.0628.0189.0055.0522.0044.0677-.0595.1088l-.9522.615c-.0055.025.0189.0623.0189.0623.1072-.0373.1172-.0217.1394.0105l.7828 1.2117c.0228.0355.0278.05-.0378.1044-.0033.0234.0212.0606.0212.0606.0244.0055 1.0088-.6306 1.0088-.6306.065-.0416.0784-.0372.0995-.0133.0228.0033.0622-.0217.0622-.0217.005-.0244-.2061-.3505-.2061-.3505-.025-.0039-.0622.0211-.0622.0211zm1.4561-.775-.0556-.0339-.4772-.275c.005-.0056.0072-.0117.0117-.0172.1628-.15.1778-.3645.0378-.5822-.1645-.2539-.455-.2889-.7589-.0923l-.6784.4389c-.0061.0245.0173.0622.0173.0622.0738-.0161.0877-.0088.1116.0278l.785 1.2122c.025.0395.0228.0539-.0122.0861-.0022.0228.0228.0612.0228.0612.0239.0055.4194-.2506.4194-.2506l.0156-.01-.035-.0533c-.0717.0161-.085.0094-.1095-.0289 0 0-.3111-.4772-.3133-.4822.0106.0122.24-.1356.2406-.1362 0 .0106.4894.2889.4894.2889l.0811.0578c.0011.0011.0022.0039.0022.0078 0 .0078-.005.02-.0305.04v.0055c0 .0228.0211.0562.0211.0562.0244.005.4272-.2561.4272-.2561.005-.025-.02-.0617-.02-.0617-.0628.0128-.0928-.005-.1922-.065zm-.8789-.3728c-.0006 0-.3089.2006-.3117.2022.0006-.0005.0006-.0005.0006-.0016 0-.0261-.1867-.3184-.2133-.3584.0266-.0177.2966-.1939.2966-.1939.15-.0955.2595-.085.3356.0328.0005 0 .0361.1478.0361.1478-.0122.06-.0606.1167-.1439.1711zm4.1022-1.4367c-.0194-.0005-.0539.0228-.0539.0228-.0044.0256.025.0806.025.0806.0006.0005-.0172.11-.0172.11-.0428.0811-.1344.1527-.2344.1839-.115.0338-.2306.0238-.3339-.0312-.1278-.0683-.2261-.2005-.2784-.3738-.065-.2117-.0655-.3806-.0005-.5017.0522-.0989.1455-.1672.2867-.21.1527-.0472.3205.0028.3511.1039l.0033.0111.0183.0339.0311.0022c.0195-.0133.1112-.4478.1112-.4478l.01-.05-.0623.0239-.0511.0428c-.0005.0005-.0728-.0128-.0728-.0128l-.0844-.0205c-.1167-.0234-.2311-.0167-.3511.02-.3967.1211-.715.5111-.5328 1.1094.15.4911.5672.7383 1.015.6017.2861-.0867.3861-.2367.4467-.3261l.0544-.0628c.0117-.0039.0278.0017.0472.0128.0256-.0078.0406-.0439.0406-.0439-.005-.0211-.3678-.2784-.3678-.2784zm1.7556.0712-.035-.0517s-.3122-.4445-.3172-.4522c.0072-.0034.0127-.0078.0194-.0112.2111-.0677.3128-.2544.2772-.51-.0416-.2988-.2911-.4538-.6505-.4044l-.8011.1139c-.0145.0194-.0084.065-.0084.065.0728.0156.0822.0278.0884.0722l.2022 1.4283c.005.0467-.0022.0595-.0472.0745-.0112.0189-.0056.0639-.0056.0639.02.015.4878-.0511.4878-.0511l.0172-.0023-.0078-.0611c-.0739-.0172-.0839-.03-.0883-.0722 0 0-.08-.5639-.0811-.5689.0033.0161.2755-.0227.2761-.0227 0 .0155.3222.4672.3222.4672l.0489.0861v.0033c0 .0072-.005.0195-.0444.0283-.0073.0106-.0089.0278-.0089.0417 0 .0128.0016.0222.0016.0222.0195.0156.4934-.0511.4934-.0511.015-.02.0089-.065.0089-.065-.0623-.0172-.0834-.045-.1478-.1427zm-.4372-.8006c-.0362.0489-.1045.08-.2028.0939 0 0-.3639.0516-.3661.0522.0016-.0006.0022-.0061.0022-.0172 0-.075-.0383-.3528-.0445-.3989.0312-.0045.35-.0495.35-.0495.1773-.0244.2717.0312.2912.1706zm1.9233.6883h-.7445s.0156-.3977.0167-.4311h.3978c.0767 0 .0872.0117.0922.0378l.0628.0139.0183-.3995-.0633-.0172c-.0228.0461-.0322.0583-.1095.0583h-.4144l.0172-.4044.6822.0178c.0762 0 .0856.0105.0912.0383l.0633.0139.0172-.4006-.0628-.0172c-.0239.0467-.0333.0584-.1094.0584h-1.1345l-.0177.0633c.1111.0272.1111.045.1111.0839v1.4444c0 .0422-.0045.0573-.0895.0678l-.0155.0622 1.1911.0178c.0772 0 .0861.0117.0922.0433l.0628.0145.0183-.4056-.0633-.0172c-.0239.0461-.0322.0572-.11.0572zm1.4805-.745c.0234-.0044.3139-.3689.3139-.3689l-.0139-.0105v-.0006l-.0016-.0016-.035-.0278c-.02.0183-.0367.0278-.0645.0239l-.0744-.0389-.0839-.05c-.1078-.0611-.2361-.1017-.3806-.1211-.4594-.0611-.6594.1883-.6911.4205-.0472.3539.2861.4761.5539.575.2045.0756.3806.14.3622.2789l-.0733.1389c-.065.05-.1783.0645-.335.0439-.135-.0183-.32-.09-.3839-.1744l-.0216-.0645.0044-.0422-.0428-.025c-.0239.005-.27.3766-.27.3766l-.0089.0134.0439.0333c.0272-.005.0689-.0344.0695-.0344 0 .0005.0883.0433.0883.0433l.0894.0517c.0006 0 .3756.1239.3756.1239.3267.0433.5222-.0434.6289-.125.1061-.0817.1755-.1967.1922-.3239.0528-.3989-.2933-.525-.5717-.6273-.1916-.0705-.3566-.1316-.34-.2588l.0612-.1134c.0466-.035.1144-.0472.2016-.035.2289.0311.3189.1284.3417.1578l.025.0661c-.0061.0328-.0106.0539-.0106.0539.0095.0172.0511.0422.0511.0422zm1.6173 1.4511c.0266.0078.0583-.0133.0583-.0133.0072-.0217-.1622-.4333-.1622-.4333-.0172-.0111-.0572-.0089-.0572-.0089-.0167.02-.0212.0811-.0212.0811 0 .0017-.0761.0856-.0761.0856-.08.0455-.1916.0566-.2916.0277-.2661-.0722-.3895-.3472-.3023-.6672.0578-.2139.1484-.3572.2678-.4244.0956-.0545.2145-.0628.3522-.0245.095.0261.18.0872.2223.1611l.0216.1211-.0072.0428.025.0195c.0239-.0011.3306-.3189.3306-.3189l.0355-.0361-.0633-.0128-.0656.0089-.0522-.0472-.0639-.065c-.0844-.0817-.185-.1373-.3072-.1706-.2189-.0611-.4411-.0367-.625.0683-.1994.1134-.3433.3156-.4167.5834-.135.4944.0856.9261.5356 1.0494.2883.0783.4533.005.5511-.0378l.0789-.0239c.0122.0034.0239.0162.0328.035zm1.3605.6106.1022-1.4606.0112-.0894c.005-.0111.0138-.0333.0622-.0156.0222-.0094.04-.0516.04-.0516-.01-.0228-.5067-.2339-.5067-.2339-.0228.0094-.04.0516-.04.0516.0445.0384.0511.0528.0511.0595 0 .0017-.0005.0033-.0005.0039l-.0661.0822c-.0023.0017-.9778 1.0917-.9778 1.0917-.0239.0255-.0472.0483-.0739.04-.0217.0105-.0383.0516-.0383.0516.01.0228.4022.1895.4022.1895l.0161.0067.0244-.0573c-.0366-.0305-.0455-.0528-.0455-.0672 0-.0078.0022-.0133.0033-.0161l.0306-.0428c.0022-.0011.1877-.2116.1883-.2133.0006.0122.5128.23.5156.2311-.0106.0011-.03.2978-.03.2978-.0006.0016-.0084.05-.0084.05-.0028.005-.005.0105-.0466-.0006-.02.01-.0384.0517-.0384.0517.0089.0228.4145.195.4145.195.0227-.0095.0416-.0511.0416-.0511-.0294-.0356-.0361-.0428-.0311-.1028zm-.2083-1.3622c-.0295.1278-.0795.6416-.0811.6628l-.0139-.0062c-.0378-.0327-.2839-.1394-.3367-.1622.0272-.0311.3861-.4572.4334-.5128zm1.7983 2.3494.7861-1.2572c.0145-.0239.0311-.0333.0706-.0117.0233-.0061.0483-.0444.0483-.0444-.0061-.0239-.4861-.3245-.4861-.3245-.0244.0056-.0489.0445-.0489.0445.0161.0294.0217.0444.0217.0544 0 .0067-.0022.0106-.0056.0161-.0144.0212-.1855.1417-.3672.2684 0 0-.3917.2783-.4522.3211.0017-.0072.0033-.0161.0044-.0245.0334-.0961.0839-.38.0839-.38.0389-.2322.0911-.5511.1072-.5783.005-.0078.0128-.0144.0484-.0078.0183-.0078.0416-.0455.0416-.0455-.0055-.0239-.4905-.3289-.4905-.3289-.025.0055-.0483.0439-.0483.0439.0366.0483.035.0661.0205.09l-.7855 1.2572c-.0173.0267-.0356.0311-.0656.0144-.0239.0061-.0478.0456-.0478.0456.0061.0239.3795.2561.3795.2561l.0155.01.0322-.0517c-.0311-.035-.0411-.055-.0411-.07 0-.01.0045-.0183.01-.0266 0 0 .5395-.8634.6123-.9806-.0034.0106-.0045.0211-.0067.0317-.0556.1883-.1856.8278-.1856.8278l-.0827.4689c.0077.0183.0488.0433.0488.0433.0206-.0006.4473-.3072.4473-.3072s.5839-.4339.6844-.5089l-.0272.0439c-.1511.2105-.6045.935-.6045.935-.0133.0211-.0272.0338-.0761.0077-.0227.0061-.0477.0434-.0477.0434.0061.0244.39.265.39.265.0244-.0061.0488-.0445.0488-.0445-.0516-.0578-.0444-.0772-.0322-.0961zm2.0261 1.0428c-.0583.0444-.0739.045-.1344.005 0 0-.5933-.3889-.595-.3895.02-.0005.7172-1.0622.7172-1.0622.0239-.0361.0356-.0461.115-.0044.0228-.0061.0472-.0439.0472-.0439-.0044-.0244-.4472-.3144-.4472-.3144-.0244.005-.05.0422-.05.0422.0639.0739.0583.0889.0356.1244l-.7906 1.2056c-.0222.035-.0355.0444-.0978.0133-.0222.0061-.0483.0439-.0483.0439.0056.025.9467.6411.9467.6411.0633.0411.065.0567.0527.0872.0067.0211.0445.0467.0445.0467.025-.0056.2483-.3461.2483-.3461-.0061-.0239-.0439-.0489-.0439-.0489zm1.1656-.8133c.0544.0505.0494.06.0472.065l-.065.0777c-.0044.005-1.0211 1.0562-1.0211 1.0562-.0244.0238-.05.0472-.075.0377-.0228.0089-.0417.0495-.0417.0495.0089.0239.395.2055.395.2055l.0167.0073.0256-.0573c-.0289-.0294-.0417-.0483-.0417-.0661 0-.0061.0017-.0128.0044-.0189 0-.0005.0323-.0416.0323-.0416.0011-.0011.1944-.2028.1961-.2045 0 .0128.5039.2484.5066.2495-.0111.0011-.0427.2972-.0427.2972 0 .0016-.0089.0494-.0089.0494-.0023.0056-.0045.01-.0478-.0022-.02.0094-.04.0495-.04.0495.0083.0238.4078.2116.4078.2116.0233-.0083.0422-.0494.0422-.0494-.0278-.0367-.0339-.045-.0272-.1034.0005-.0005.1527-1.4161.1527-1.4161l.0212-.1316c.005-.0106.0144-.0306.0622-.0117.0222-.0083.0416-.0511.0416-.0511-.0083-.0239-.4977-.2517-.4977-.2517-.0234.0083-.0428.0495-.0428.0495zm.1067.4427c-.0345.1278-.1039.6384-.1062.6589l-.0133-.0061c-.035-.0333-.2789-.1511-.3317-.1755.0278-.0306.4045-.4428.4539-.4961zm1.8116.2395c.0622.0428.0667.0583.0561.0994l-.23.9306c-.0522.2128-.205.3044-.4166.2522-.1056-.0255-.1811-.0761-.225-.1483-.0434-.0717-.0523-.165-.0267-.27l.2294-.93c.0106-.0417.0212-.0539.0773-.0489.0183-.0133.0294-.0578.0294-.0578-.0128-.0211-.4917-.1389-.4917-.1389l-.0172-.0044-.0044.0177-.01.0445c.0766.0456.0778.0622.0672.1022l-.2283.9234c-.1039.425.0689.6955.5122.8038.2261.0562.4122.0417.5522-.0433.1333-.08.2261-.2244.2761-.4289l.2284-.9233c.0105-.0417.0194-.0545.0833-.0483.0189-.0134.0294-.0573.0294-.0573-.0127-.0211-.4583-.1316-.4583-.1316-.0206.0133-.0328.0572-.0328.0572zm1.2989.0733-.71-.0028c-.0178.0173-.0189.0628-.0189.0628.07.0256.0784.04.0767.0845 0 .0005-.005 1.4422-.005 1.4422 0 .0439-.0083.0567-.065.0667l-.0145.0611c.0173.0172.665.02.665.02.2828.0016.5-.0712.6462-.2156.1461-.1456.2211-.3633.2222-.6478.0016-.5428-.2967-.8689-.7967-.8711zm.4372.87c-.0022.4245-.1389.56-.5661.5578 0 0-.1855-.0006-.1872-.0006v-.0005c.0167-.0045.0222-1.0283.0228-1.1222.0294.0005.1694.0022.1694.0022.4245.0016.5611.1372.5611.5555zm2.0597.1256c-.021-.0128-.065-.0006-.065-.0006-.011.0506-.017.065-.092.0839 0 0-.717.185-.719.1856 0 0 .002-.0023.002-.0056 0-.05-.083-.3689-.095-.4155.031-.0084.385-.0995.385-.0995.074-.0189.087-.0117.099.0133.019.0089.064-.0027.064-.0027.012-.0212-.083-.3911-.083-.3911-.022-.0128-.066-.0006-.066-.0006-.011.0506-.017.0639-.091.0828 0 0-.398.1022-.401.1033.001-.0005.002-.0022.002-.0061 0-.0522-.086-.3844-.086-.3867.005.0161.665-.155.665-.155.074-.0183.085-.0105.099.0145.02.0089.063-.0034.063-.0034.013-.0211-.084-.3911-.084-.3911-.022-.0128-.065-.0005-.065-.0005-.011.05-.017.065-.09.0839l-1.0972.2844c-.0128.0211-.0017.065-.0017.065.11-.0005.1178.0144.1279.0528l.362 1.3983c.01.0411.01.0561-.068.0867-.011.02 0 .065 0 .065.021.0128 1.156-.2817 1.156-.2817.074-.0183.086-.01.101.0195.019.0094.064-.0023.064-.0023.011-.0211-.086-.3966-.086-.3966zm-19.888-3.1872-1.0378-.9756c-.0216-.0211-.0922-.0939-.0922-.0939-.0078-.0155-.0128-.0333.0272-.0578.0067-.0227-.0128-.0633-.0128-.0633-.0244-.0078-.5038.2455-.5038.2455-.0078.0228.0133.0634.0133.0634.0739-.0128.0789-.0028.0805.0005.0006.0012.0234.0995.0234.0995.0016.0061.2294 1.4533.2294 1.4533.0045.035.0067.0678-.0161.0817-.0061.0228.0145.0644.0145.0644.0244.0073.4027-.1922.4027-.1922l.0156-.0078-.0295-.0555c-.0561.0072-.0788.0027-.0922-.0206 0-.0011-.0128-.0511-.0128-.0511 0-.0017-.0466-.2806-.0472-.2811.0061.01.5017-.2506.5072-.2528.0006.0145.2117.2117.2117.2117.0006.0005.0322.0372.0322.0372.0006.0022.0023.0045.0023.0056 0 .0055-.0056.0133-.0306.0305-.0006.0028-.0017.0056-.0017.0084 0 .0227.0167.0544.0167.0544.0244.0072.4139-.1978.4139-.1978.0072-.0239-.0145-.0644-.0145-.0644-.0455-.0011-.0555-.0006-.0994-.0422zm-.7389-.2112c-.0461.0073-.2867.1306-.3394.1584-.0078-.0411-.1123-.605-.1228-.6622l.015.0144c.0772.1005.4455.4672.4605.4822z" fill="#094183"/><path d="m77.2741 30.4961-.635-.2278.33.6178-.6.4239.6767.1516-.0511.6862.5594-.4656.5167.4656-.0344-.7195c.0005 0 .7111-.06.7111-.06l-.5917-.4561.3378-.61-.6945.2033-.2611-.6605z" fill="#fff"/><path d="m81.3451 31.5456-.635-.2111.3295.6089-.6011.4155.695.1517-.0684.695.5495-.4672.5333.4672-.0428-.7194.7123-.0606-.5834-.4478.3295-.6183-.6945.1856-.2539-.6423z" fill="#fff"/><path d="m76.7836 35.05.2522.6512.6955-.1945-.3316.6017.5855.4566-.7111.0595.0339.7278-.5161-.4745-.5589.4745.0583-.6939-.6761-.1528.5928-.4139-.3222-.6011.6339.2106z" fill="#fff"/><path d="m81.5985 35.3545.2038.6011h.6256l-.5072.3894.1944.6184-.5166-.3722-.515.3722.1844-.6184-.5067-.3805.6095-.0089z" fill="#fff"/><path d="m81.3197 40.2215-.6355-.2194.3222.6089-.6011.4144.6855.1528-.0505.6944.5505-.475.525.4828-.0505-.7111.7194-.085-.5839-.4567.3306-.6011-.6861.195-.2539-.66z" fill="#fff"/><path d="m80.0977 27.3333c-.2028-.0017-.5222.2838-.6255.3927.4144-.1433.57-.0655.665-.19.0055-.0655.0194-.1633-.0395-.2027z" fill="#fff"/><path d="m80.3564 27.4443c-.0494.2628.13.5195.3367.6434l.0378-.1989c-.0295-.1867-.2261-.3589-.3745-.4445z" fill="#fff"/><path d="m80.242 27.9417c-.0222.0733-.0872.1672-.0689.2483.0289.1467.2606.2022.3317.4205.1256-.2016-.0417-.6105-.2628-.6688z" fill="#fff"/><path d="m80.0774 28.375-.1017.1789c-.1689.2578.1411.4605.1378.6239.0939-.1006.1989-.3689.1405-.5545-.0261-.0977-.0855-.185-.1766-.2483z" fill="#fff"/><path d="m79.4535 28.4143c-.1117.0439-.3844.2228-.5233.2033.0683.0867.3689.0689.4761.0823.1872.0111.3144-.2012.4083-.35z" fill="#fff"/><path d="m79.7495 28.866c-.3689.0905-.1355.5239-.4477.7744.2144-.0389.3077-.0417.4427-.2983.0611-.1239.0895-.3495.005-.4761z" fill="#fff"/><path d="m76.8764 28.0455c-.0706.2816-.005.345.1289.5183-.065-.3961.4-.5611.1878-.8756-.1489.0384-.2789.2239-.3167.3573z" fill="#fff"/><path d="m78.4424 29.1367c.0139.0877.365.0666.5272-.0045.0817-.0178.3561-.1233.385-.2222-.6361-.145-.4094.0911-.9122.2267z" fill="#fff"/><path d="m79.1924 28.2162c.0289.0833.3711.0011.5194-.0978.0756-.0328.3261-.1845.3384-.2867-.6523-.03-.3884.1617-.8578.3845z" fill="#fff"/><path d="m77.0821 27.3702c-.0927-.0428-.3533.09-.4205.1383-.1617.0739-.4122.3222-.3556.3911.4356-.2844.4606.0411.7761-.5294z" fill="#fff"/><path d="m77.9575 26.2593c.2206.0616.3206.1927.4672.2139.1723.0072.2334-.0439.2662-.1067-.0695-.2178-.5089-.195-.7334-.1072z" fill="#fff"/><path d="m78.9769 27.2364c-.0172-.2294.0733-.3666.0428-.5122-.0512-.165-.1189-.2055-.1895-.2144-.1811.1394-.0122.5439.1467.7266z" fill="#fff"/><path d="m77.9266 26.4453c-.1839-.065-.5028.0672-.6073.1572.2361-.0233.385.2395.6662.1245l.1805-.095c-.0583-.0933-.1428-.1556-.2394-.1867z" fill="#fff"/><path d="m78.2898 26.907c-.0589.185.0827.5006.1772.6022-.0306-.2361.2272-.3922.1033-.6705l-.1022-.1778c-.0906.0617-.1511.1494-.1783.2461z" fill="#fff"/><path d="m79.211 29.3242-.2044.0117c-.3011.0433-.295.345-.51.4461.1355.0256.4778-.025.6022-.1744.0683-.075.1095-.1734.1122-.2834z" fill="#fff"/><path d="m77.1426 26.8393c-.2745.0983-.2895.1895-.3589.3967.2928-.2745.6889.0166.83-.3345-.1139-.1022-.3406-.105-.4711-.0622z" fill="#fff"/><path d="m77.7787 27.3737c.0244.29.1083.3289.2905.4483-.1883-.3527.1956-.6616-.1089-.8872-.1288.0833-.1905.3022-.1816.4389z" fill="#fff"/><path d="m77.4398 27.347c-.015.3967-.0083.7011.1612.8906.1077-.3211.1133-.4661.0266-.6606-.0311-.0855-.1078-.2344-.1878-.23z" fill="#fff"/></svg>