<svg width="172" height="86" viewBox="0 0 172 86" fill="none" xmlns="http://www.w3.org/2000/svg">
<path d="M118.567 11H54V75.5667H118.567V11Z" fill="#094183"/>
<path d="M61.1948 53.9192C61.1886 53.9375 61.0864 54.3686 61.0864 54.4242C61.0864 54.4808 61.1181 54.5008 61.1453 54.5008C61.1936 54.5008 61.2136 54.4614 61.2248 54.4314C61.2242 54.4325 61.3003 54.2942 61.3003 54.2942C61.3659 54.1964 61.4653 54.167 61.7459 54.162C61.7459 54.162 62.2575 54.1547 62.3964 54.1531C62.3964 54.2225 62.3964 56.0836 62.3964 56.0836C62.3964 56.5186 62.3964 56.8947 62.3742 57.087C62.3548 57.2253 62.3331 57.2986 62.267 57.3125C62.2659 57.3131 62.1348 57.3303 62.1348 57.3303C62.0853 57.3303 62.0631 57.362 62.0631 57.3936C62.0631 57.4658 62.1453 57.4658 62.1725 57.4658L62.5525 57.4547L62.6281 57.452L62.682 57.4536L63.1992 57.4658C63.2986 57.4658 63.3092 57.4153 63.3092 57.3936C63.3092 57.3631 63.2864 57.3303 63.237 57.3303L63.0331 57.3125C62.9225 57.297 62.8959 57.2253 62.8825 57.0881C62.8586 56.8947 62.8586 56.5192 62.8586 56.0842C62.8586 56.0842 62.8586 54.2231 62.8586 54.1536C62.922 54.1547 63.4081 54.1625 63.4081 54.1625C63.8553 54.172 63.9303 54.2814 63.9448 54.3881L63.9492 54.4375C63.9525 54.482 63.9586 54.5486 64.022 54.5486C64.0331 54.5486 64.0903 54.5442 64.0903 54.4531L64.0948 54.3047L64.1042 53.9425C64.1042 53.9147 64.1042 53.8503 64.0453 53.8503L63.9903 53.8592C63.9248 53.8725 63.802 53.8975 63.5859 53.8975H61.8431L61.4803 53.8747C61.4792 53.8747 61.3303 53.8358 61.3303 53.8358L61.272 53.8186C61.2286 53.8175 61.2114 53.8692 61.1948 53.9192Z" fill="white"/>
<path d="M67.4503 53.8927L67.3753 53.8955L67.3153 53.8933L66.8498 53.8816C66.8226 53.8816 66.7398 53.8816 66.7398 53.9544C66.7398 53.991 66.7709 54.0177 66.8126 54.0177L66.9631 54.0299C67.0892 54.0577 67.1264 54.1077 67.1353 54.2633L67.1442 55.2644V55.3621L65.182 55.3538L65.1892 55.2644L65.1987 54.2633C65.2076 54.1055 65.2426 54.0488 65.3426 54.0305L65.452 54.0177C65.4942 54.0177 65.5248 53.991 65.5248 53.9544C65.5248 53.906 65.4881 53.8816 65.4148 53.8816L65.0359 53.8927L64.9592 53.8955L64.8981 53.8933L64.4337 53.8816C64.3609 53.8816 64.3242 53.906 64.3242 53.9544C64.3242 53.9905 64.3553 54.0177 64.3964 54.0177L64.5459 54.0299C64.6731 54.0577 64.7103 54.1077 64.7181 54.2633C64.7181 54.2638 64.7281 55.2649 64.7281 55.2649V56.0833C64.7281 56.5183 64.7281 56.8938 64.7053 57.0866C64.6859 57.2249 64.6642 57.2983 64.5987 57.3121C64.5976 57.3127 64.4664 57.3299 64.4664 57.3299C64.4164 57.3299 64.3937 57.3616 64.3937 57.3933C64.3937 57.4655 64.4764 57.4655 64.5037 57.4655L64.882 57.4544L64.9581 57.4516L65.0126 57.4538L65.5298 57.4655C65.6281 57.4655 65.6387 57.4149 65.6387 57.3933C65.6387 57.3616 65.6164 57.3299 65.567 57.3299L65.362 57.3121C65.2526 57.2966 65.2253 57.2249 65.2114 57.0877C65.1876 56.8944 65.1876 56.5188 65.1876 56.0838V55.5955L67.1509 55.6033L67.1426 56.0838C67.1426 56.5188 67.1426 56.8944 67.1192 57.0871C67.1014 57.2227 67.0792 57.2988 67.0131 57.3127C67.012 57.3133 66.8814 57.3305 66.8814 57.3305C66.8309 57.3305 66.8081 57.3633 66.8081 57.3938C66.8081 57.466 66.8909 57.466 66.9181 57.466L67.2987 57.4549L67.3737 57.4521L67.4264 57.4538L67.9448 57.466C68.0448 57.466 68.0553 57.4155 68.0553 57.3938C68.0553 57.3633 68.0326 57.3305 67.9826 57.3305L67.7787 57.3127C67.6681 57.2971 67.6409 57.2255 67.627 57.0883C67.6048 56.8955 67.6048 56.5194 67.6048 56.0844V55.266L67.6137 54.2649C67.6237 54.1055 67.657 54.051 67.757 54.0321L67.8659 54.0194C67.9087 54.0194 67.9392 53.9927 67.9392 53.956C67.9392 53.8833 67.8564 53.8833 67.8292 53.8833L67.4503 53.8927Z" fill="white"/>
<path d="M70.4186 53.86L70.3963 53.8689L70.2036 53.8917C70.2041 53.8917 69.1413 53.8956 69.1413 53.8956L69.0786 53.8933L68.6163 53.8817C68.5891 53.8817 68.5063 53.8817 68.5063 53.9544C68.5063 53.9911 68.5363 54.0178 68.5786 54.0178L68.728 54.03C68.8552 54.0578 68.8919 54.1078 68.9008 54.2633L68.9102 55.2644V56.0828C68.9102 56.5178 68.9102 56.8933 68.8875 57.0861C68.868 57.225 68.8463 57.2978 68.7802 57.3117C68.7791 57.3122 68.648 57.3294 68.648 57.3294C68.5986 57.3294 68.5763 57.3611 68.5763 57.3928C68.5763 57.465 68.658 57.465 68.6852 57.465L69.063 57.4539L69.1408 57.4511L69.3175 57.4572L70.2886 57.4789C70.4719 57.4789 70.5336 57.4789 70.573 57.3328C70.5963 57.2344 70.6352 56.915 70.6352 56.8728C70.6352 56.8389 70.6352 56.7678 70.5708 56.7678C70.5119 56.7678 70.5013 56.8322 70.4958 56.8667C70.4647 57.0461 70.4136 57.1294 70.3069 57.175C70.1936 57.2222 69.9941 57.2222 69.8752 57.2222C69.4252 57.2222 69.3836 57.1656 69.3719 56.875L69.3713 56.2867L69.3719 56.0822V55.6733C69.3719 55.6756 70.0297 55.6989 70.0297 55.6989C70.1875 55.715 70.2247 55.7767 70.2402 55.8356C70.2408 55.8361 70.2575 55.98 70.2575 55.98C70.2575 56.025 70.2858 56.0561 70.3258 56.0561C70.3941 56.0561 70.3941 55.9733 70.3941 55.9339L70.4125 55.6394L70.4491 55.3756C70.4491 55.3083 70.4047 55.3033 70.3913 55.3033L70.2975 55.3717C70.2625 55.4111 70.2075 55.4194 70.0997 55.4289L69.3641 55.4378L69.3719 54.1444C69.4275 54.1339 69.9213 54.1378 69.9958 54.1467C70.2502 54.1744 70.2747 54.23 70.298 54.2833C70.2975 54.2828 70.323 54.4367 70.323 54.4367C70.323 54.5228 70.3741 54.5317 70.3958 54.5317C70.4191 54.5317 70.4497 54.5178 70.4636 54.4522C70.4641 54.4506 70.4813 54.2156 70.4813 54.2156L70.4863 54.1411C70.4863 54.1417 70.5141 53.9828 70.5141 53.9828L70.5247 53.9206C70.5247 53.8483 70.483 53.8428 70.4702 53.8428L70.4186 53.86Z" fill="white"/>
<path d="M75.7165 53.8922L75.6377 53.8955L75.5727 53.8933L75.1443 53.8816C75.1177 53.8816 75.0354 53.8816 75.0354 53.9544C75.0354 53.9905 75.0665 54.0177 75.1077 54.0177L75.2577 54.0299C75.3938 54.0594 75.421 54.1171 75.4304 54.2633C75.4304 54.2644 75.4393 55.2644 75.4393 55.2644V55.8455C75.4393 56.4005 75.3615 56.7344 75.1782 56.9616C75.0121 57.1599 74.7432 57.2833 74.4765 57.2833C74.2127 57.2833 74.0177 57.2433 73.7988 57.0371C73.6321 56.8783 73.4615 56.6205 73.4615 55.9155V55.2655L73.4704 54.2644C73.4799 54.1027 73.5149 54.046 73.6121 54.0316C73.6127 54.0316 73.7227 54.0188 73.7227 54.0188C73.7649 54.0188 73.796 53.9921 73.796 53.9555C73.796 53.8827 73.7138 53.8827 73.6865 53.8827L73.341 53.8927L73.2254 53.8966L73.1293 53.8933L72.691 53.8827C72.6638 53.8827 72.5815 53.8827 72.5815 53.9555C72.5815 53.9916 72.6127 54.0188 72.6543 54.0188L72.8043 54.031C72.931 54.0588 72.9677 54.1088 72.976 54.2644L72.9854 55.266V55.9444C72.9854 56.6955 73.2071 57.0066 73.401 57.1927C73.716 57.4883 74.1504 57.5327 74.3821 57.5327C74.6327 57.5327 75.0065 57.496 75.3632 57.1794C75.7527 56.8333 75.8027 56.241 75.8027 55.7644V55.2666L75.8115 54.2655C75.8204 54.106 75.8538 54.0516 75.9549 54.0327C75.9565 54.0321 76.0643 54.0199 76.0643 54.0199C76.1065 54.0199 76.1365 53.9933 76.1365 53.9566C76.1365 53.8838 76.0543 53.8838 76.0271 53.8838L75.7165 53.8922Z" fill="white"/>
<path d="M76.9624 54.0839L76.958 56.7467C76.958 57.1628 76.9346 57.2772 76.8441 57.3033C76.843 57.3033 76.6635 57.3289 76.6635 57.3289C76.6135 57.3289 76.5913 57.3605 76.5913 57.3922C76.5913 57.4644 76.668 57.4644 76.7008 57.4644L77.0708 57.4539L77.1469 57.4505L77.2146 57.4533L77.6385 57.4644C77.6713 57.4644 77.7574 57.4644 77.7574 57.3922C77.7574 57.3628 77.738 57.3289 77.6846 57.3289L77.4619 57.3028C77.368 57.2744 77.3174 57.1883 77.3074 56.7966C77.3074 56.7966 77.2546 54.8411 77.2502 54.6666C77.3658 54.7939 78.3985 55.9294 78.3985 55.9294C78.903 56.4728 79.5641 57.1461 79.613 57.1911C79.878 57.4544 79.9241 57.4967 79.9763 57.4967C80.048 57.4967 80.0535 57.4411 80.0535 57.1311C80.0535 57.13 80.0619 54.4094 80.0619 54.4094C80.0619 54.1194 80.0863 54.0555 80.2063 54.0294C80.2069 54.0294 80.3108 54.0172 80.3108 54.0172C80.3702 54.0172 80.3974 53.9816 80.3974 53.9489C80.3974 53.8816 80.3169 53.8816 80.2785 53.8816L79.9669 53.8917L79.8835 53.8955L79.7841 53.8922L79.4002 53.8816C79.3552 53.8816 79.2719 53.8816 79.2719 53.9489C79.2719 53.9922 79.2985 54.0172 79.3446 54.0172L79.5646 54.0394C79.6758 54.0683 79.7135 54.1311 79.7174 54.4467C79.7174 54.4467 79.7574 56.2794 79.7674 56.7139C79.6774 56.6161 79.4208 56.3378 79.4208 56.3378L78.7152 55.5694L77.1974 53.9328C77.1319 53.8605 77.0891 53.8167 77.0491 53.8167C76.9685 53.8167 76.9624 53.9228 76.9624 54.0839Z" fill="white"/>
<path d="M81.7237 53.8927L81.6487 53.8955L81.577 53.8927L81.1793 53.8816C81.1526 53.8816 81.0698 53.8816 81.0698 53.9544C81.0698 53.9905 81.1009 54.0177 81.1415 54.0177L81.2782 54.0344C81.3498 54.0516 81.3987 54.0966 81.4093 54.2633C81.4093 54.2638 81.4182 55.2644 81.4182 55.2644V56.0827C81.4182 56.5177 81.4182 56.8933 81.3948 57.086C81.3748 57.2277 81.3543 57.2977 81.2882 57.3116C81.287 57.3122 81.1559 57.3294 81.1559 57.3294C81.1059 57.3294 81.0832 57.3622 81.0832 57.3927C81.0832 57.4649 81.1659 57.4649 81.1932 57.4649L81.5732 57.4538L81.6487 57.451L81.7015 57.4527L82.2198 57.4649C82.3193 57.4649 82.3298 57.4144 82.3298 57.3927C82.3298 57.3622 82.3076 57.3294 82.2582 57.3294L82.0543 57.3116C81.9437 57.2966 81.9165 57.2244 81.902 57.0872C81.8782 56.8944 81.8782 56.5183 81.8782 56.0833V55.2649L81.8882 54.2638C81.897 54.106 81.932 54.0494 82.0309 54.0305C82.0315 54.0305 82.1404 54.0177 82.1404 54.0177C82.1832 54.0177 82.2137 53.991 82.2137 53.9544C82.2137 53.8816 82.1304 53.8816 82.1032 53.8816L81.7237 53.8927Z" fill="white"/>
<path d="M85.8796 53.8922L85.8112 53.8955L85.7035 53.8916L85.3562 53.8816C85.3085 53.8816 85.219 53.8816 85.219 53.9544C85.219 53.9783 85.2301 54.0177 85.3051 54.0177L85.4701 54.0338C85.5012 54.0505 85.5068 54.0872 85.5068 54.1072L85.4662 54.2721C85.3724 54.5799 84.7968 56.0855 84.5079 56.7671C84.4496 56.6116 83.6468 54.471 83.6468 54.471C83.5796 54.2972 83.5235 54.1516 83.5235 54.0983C83.5235 54.0727 83.5301 54.0527 83.564 54.0366L83.7257 54.0171C83.7996 54.0171 83.8074 53.9694 83.8074 53.9488C83.8074 53.8816 83.7062 53.8816 83.6462 53.8816L83.309 53.8916L83.2146 53.8955L83.1001 53.8922L82.6712 53.8816C82.6057 53.8816 82.5151 53.8816 82.5151 53.9488C82.5151 53.991 82.5429 54.0171 82.5879 54.0171L82.7546 54.0338C82.9001 54.076 82.9651 54.116 83.0657 54.371L84.2146 57.2477C84.3007 57.4649 84.3268 57.5305 84.4046 57.5305C84.4618 57.5305 84.4824 57.4844 84.5512 57.3305L84.6307 57.156L85.2051 55.8105L85.4801 55.1466L85.7518 54.4871C85.8735 54.1805 85.9401 54.1038 85.994 54.0666C86.0729 54.0171 86.1662 54.0171 86.1968 54.0171C86.2762 54.0171 86.2879 53.9744 86.2879 53.9488C86.2879 53.9038 86.2496 53.8816 86.1735 53.8816L85.8796 53.8922Z" fill="white"/>
<path d="M88.4166 53.8607L88.396 53.869L88.2021 53.8918C88.2027 53.8918 87.1399 53.8957 87.1399 53.8957L87.0788 53.8934L86.6154 53.8818C86.5882 53.8818 86.5049 53.8818 86.5049 53.9545C86.5049 53.9912 86.5354 54.0179 86.5782 54.0179L86.7282 54.0301C86.8543 54.0579 86.8916 54.1079 86.8999 54.2634C86.8999 54.264 86.9099 55.2651 86.9099 55.2651V56.0834C86.9099 56.5184 86.9099 56.894 86.8865 57.0868C86.8671 57.2257 86.8454 57.2984 86.7799 57.3123C86.7793 57.3129 86.6471 57.3301 86.6471 57.3301C86.5977 57.3301 86.5749 57.3629 86.5749 57.3934C86.5749 57.4657 86.6577 57.4657 86.6849 57.4657L87.0638 57.4545L87.1399 57.4518L87.3171 57.4579L88.2877 57.479C88.4716 57.479 88.5338 57.479 88.5727 57.3329C88.5954 57.234 88.6338 56.9151 88.6338 56.8729C88.6338 56.839 88.6338 56.7679 88.5704 56.7679C88.5127 56.7679 88.501 56.8268 88.4938 56.8662C88.4632 57.0462 88.4127 57.1295 88.3066 57.1751C88.1921 57.2223 87.9932 57.2223 87.8749 57.2223C87.4249 57.2223 87.3832 57.1657 87.3716 56.8751L87.371 56.2868L87.3716 56.0823V55.6734C87.3716 55.6757 88.0299 55.699 88.0299 55.699C88.206 55.7168 88.2293 55.7946 88.241 55.8362L88.2577 55.9801C88.2577 56.0262 88.2843 56.0562 88.326 56.0562C88.3932 56.0562 88.3932 55.9734 88.3932 55.934L88.4127 55.6395C88.4127 55.639 88.4493 55.3757 88.4493 55.3757C88.4493 55.3084 88.4043 55.3034 88.3904 55.3034L88.3049 55.364C88.2621 55.4112 88.2077 55.4195 88.0993 55.429L87.3649 55.4379L87.3721 54.1446C87.3649 54.134 87.9971 54.1468 87.9971 54.1468C88.2499 54.1745 88.2749 54.2301 88.2988 54.284C88.2988 54.2845 88.3232 54.4373 88.3232 54.4373C88.3232 54.5234 88.3743 54.5323 88.396 54.5323C88.416 54.5323 88.4504 54.5218 88.4627 54.4518C88.4627 54.4529 88.481 54.2318 88.481 54.2318L88.4871 54.1429L88.5243 53.9218C88.5243 53.8518 88.4871 53.844 88.4704 53.844L88.4166 53.8607Z" fill="white"/>
<path d="M90.1093 55.6944C90.0943 55.6844 90.0932 55.6766 90.0932 55.6677V54.1488C90.0932 54.1366 90.0971 54.1305 90.1076 54.1266C90.1432 54.116 90.2621 54.1005 90.4065 54.1005C90.8882 54.1005 91.1749 54.4349 91.1749 54.9949C91.1749 55.311 91.0749 55.5666 90.9065 55.6805C90.8032 55.7538 90.6771 55.7627 90.5782 55.7627C90.3593 55.7627 90.1643 55.7271 90.1093 55.6944ZM90.0371 53.891L89.8815 53.8955L89.8204 53.8933L89.3565 53.8816C89.3293 53.8816 89.2471 53.8816 89.2471 53.9544C89.2471 53.991 89.2776 54.0177 89.3198 54.0177L89.4687 54.0299C89.596 54.0577 89.6326 54.1077 89.6415 54.2633L89.651 55.2644V56.0827C89.651 56.5177 89.651 56.8933 89.6271 57.086C89.6087 57.2216 89.5871 57.2977 89.5204 57.3116C89.5198 57.3121 89.3882 57.3294 89.3882 57.3294C89.3382 57.3294 89.316 57.361 89.316 57.3927C89.316 57.4649 89.3987 57.4649 89.426 57.4649L89.8437 57.4521C89.8621 57.451 89.9176 57.4533 89.9176 57.4533L90.4337 57.4649C90.5343 57.4649 90.5448 57.4144 90.5448 57.3927C90.5448 57.3621 90.5221 57.3294 90.471 57.3294L90.2676 57.3116C90.1571 57.296 90.1304 57.2244 90.1171 57.0871C90.0932 56.8938 90.0932 56.5183 90.0932 56.0833V55.9716C90.091 55.9705 90.6621 55.9788 90.6621 55.9788C90.6626 55.9788 90.6987 55.9977 90.6987 55.9977C90.6987 55.9988 90.8587 56.2171 90.8587 56.2171L91.2004 56.681L91.2632 56.7633C91.4948 57.0694 91.6487 57.2716 91.8393 57.3733C91.9676 57.4433 92.0926 57.4655 92.3532 57.4655H92.6832C92.7415 57.4655 92.8304 57.4655 92.8304 57.3933C92.8304 57.3583 92.7954 57.3299 92.7526 57.3299L92.5771 57.3166C92.456 57.2977 92.2676 57.2433 92.031 56.9933C91.7876 56.7338 91.5037 56.3688 91.1749 55.9455C91.1749 55.9455 91.111 55.8627 91.0848 55.8299C91.4587 55.4771 91.636 55.1344 91.636 54.7549C91.636 54.4244 91.4249 54.1838 91.3004 54.0933C91.0415 53.9077 90.7148 53.8827 90.4298 53.8827L90.0371 53.891Z" fill="white"/>
<path d="M93.0379 54.6884C93.0379 55.0056 93.1429 55.3028 93.6546 55.7239L93.8635 55.8956C94.2735 56.2334 94.3857 56.4073 94.3857 56.7056C94.3857 56.995 94.1696 57.2873 93.7568 57.2873C93.5879 57.2873 93.1852 57.2439 93.1029 56.8417L93.0907 56.6773C93.0907 56.6511 93.0907 56.5911 93.0229 56.5911C92.9613 56.5911 92.954 56.6595 92.9496 56.6967C92.9496 56.6978 92.9463 56.7423 92.9463 56.7423L92.9263 57.1934C92.9263 57.3184 92.9302 57.3595 93.0157 57.4017H93.0163C93.1957 57.4895 93.4046 57.5317 93.6552 57.5317C93.9379 57.5317 94.1874 57.4617 94.3763 57.3289C94.679 57.1139 94.7863 56.7745 94.7863 56.5284C94.7863 56.1645 94.6729 55.865 94.094 55.4089L93.9646 55.3073C93.5196 54.9428 93.4113 54.795 93.4113 54.5545C93.4113 54.2534 93.6263 54.0506 93.9463 54.0506C94.3307 54.0506 94.459 54.2106 94.4963 54.2789C94.5207 54.3245 94.5485 54.4456 94.5529 54.4978C94.5568 54.5311 94.564 54.59 94.6246 54.59C94.6929 54.59 94.6929 54.4973 94.6929 54.4473L94.7085 53.99L94.7102 53.955C94.7102 53.8878 94.649 53.8878 94.6296 53.8878L94.474 53.8656C94.3413 53.8334 94.2013 53.8184 94.034 53.8184C93.439 53.8167 93.0379 54.1673 93.0379 54.6884Z" fill="white"/>
<path d="M96.1565 53.8927L96.0793 53.8955L96.0082 53.8927L95.611 53.8816C95.5376 53.8816 95.501 53.906 95.501 53.9544C95.501 53.9905 95.5321 54.0177 95.5738 54.0177L95.7082 54.0344C95.7715 54.0494 95.8304 54.0871 95.8404 54.2633L95.8493 55.2644V56.0827C95.8493 56.5177 95.8493 56.8933 95.8265 57.086C95.8071 57.2244 95.7854 57.2977 95.7193 57.3116C95.7182 57.3122 95.5871 57.3294 95.5871 57.3294C95.5376 57.3294 95.5149 57.3622 95.5149 57.3927C95.5149 57.4649 95.5971 57.4649 95.6238 57.4649L96.0049 57.4538L96.0793 57.451L96.1343 57.4533L96.6521 57.4649C96.7504 57.4649 96.7604 57.4144 96.7604 57.3927C96.7604 57.361 96.7382 57.3294 96.6882 57.3294L96.4849 57.3116C96.3743 57.296 96.3476 57.2244 96.3338 57.0872C96.3099 56.8938 96.3099 56.5183 96.3099 56.0833V55.2649L96.3199 54.2638C96.3282 54.106 96.3632 54.0494 96.4632 54.0305C96.4638 54.0305 96.5721 54.0177 96.5721 54.0177C96.6143 54.0177 96.6449 53.991 96.6449 53.9544C96.6449 53.8816 96.5615 53.8816 96.5343 53.8816L96.1565 53.8927Z" fill="white"/>
<path d="M97.1944 53.9283C97.1921 53.9367 97.0894 54.3678 97.0894 54.4239C97.0894 54.4805 97.121 54.5005 97.1477 54.5005C97.1944 54.5005 97.2149 54.4639 97.2277 54.4317L97.3038 54.2939C97.3682 54.1961 97.4682 54.1661 97.7477 54.1611C97.7477 54.1611 98.261 54.1539 98.3999 54.1522C98.3999 54.2217 98.3999 56.0828 98.3999 56.0828C98.3999 56.5178 98.3999 56.8933 98.3771 57.0861C98.3594 57.2216 98.3366 57.2978 98.2705 57.3116C98.2694 57.3122 98.1377 57.3294 98.1377 57.3294C98.0877 57.3294 98.0655 57.3611 98.0655 57.3928C98.0655 57.465 98.1477 57.465 98.1749 57.465L98.5538 57.4539L98.6305 57.4511L98.6855 57.4533L99.201 57.465C99.2971 57.465 99.3116 57.42 99.3116 57.3928C99.3116 57.3622 99.2888 57.3294 99.2394 57.3294L99.0349 57.3116C98.9255 57.2966 98.8982 57.2244 98.8838 57.0872C98.8605 56.8944 98.8605 56.5183 98.8605 56.0833C98.8605 56.0833 98.8605 54.2222 98.8605 54.1528C98.9238 54.1539 99.4099 54.1617 99.4099 54.1617C99.8577 54.1711 99.9327 54.2811 99.9477 54.3872C99.9477 54.3878 99.9516 54.4366 99.9516 54.4366C99.9544 54.4805 99.9594 54.5478 100.025 54.5478C100.036 54.5478 100.092 54.5433 100.092 54.4522L100.096 54.3033L100.105 53.9411C100.105 53.9133 100.105 53.8489 100.047 53.8489L99.9916 53.8572C99.926 53.8705 99.8038 53.8955 99.5871 53.8955H97.8449L97.4805 53.8728C97.4794 53.8728 97.3305 53.8339 97.3305 53.8339L97.2732 53.8167C97.2338 53.8167 97.2149 53.865 97.1944 53.9283Z" fill="white"/>
<path d="M103.237 53.8916L103.114 53.8955L103.04 53.8916L102.808 53.8816C102.712 53.8816 102.698 53.921 102.698 53.9444C102.698 53.9927 102.743 54.0077 102.788 54.0227C102.808 54.0283 102.842 54.0371 102.842 54.121C102.842 54.1871 102.817 54.261 102.768 54.3399C102.689 54.4716 102.168 55.3683 102.024 55.6516C101.87 55.3933 101.271 54.3633 101.203 54.2388C101.168 54.1733 101.147 54.1227 101.147 54.0749C101.147 54.0544 101.16 54.0366 101.188 54.0222C101.188 54.0222 101.212 54.0133 101.212 54.0133C101.242 54.001 101.277 53.9877 101.277 53.9494C101.277 53.9044 101.245 53.8822 101.182 53.8822L100.854 53.8933L100.79 53.896L100.682 53.8927L100.332 53.8822C100.239 53.8822 100.235 53.9383 100.235 53.9494C100.235 53.9894 100.269 54.0177 100.317 54.0177C100.349 54.0177 100.432 54.0421 100.498 54.086C100.589 54.1477 100.703 54.2721 100.803 54.4199C100.97 54.6671 101.59 55.6849 101.618 55.7527C101.68 55.8894 101.723 55.9849 101.723 56.2266V56.6266L101.708 57.0877C101.702 57.1799 101.677 57.2944 101.593 57.3116C101.592 57.3122 101.46 57.3294 101.46 57.3294C101.41 57.3294 101.388 57.361 101.388 57.3927C101.388 57.4649 101.47 57.4649 101.497 57.4649L101.878 57.4538L101.952 57.451L102.007 57.4533L102.523 57.4649C102.623 57.4649 102.633 57.4144 102.633 57.3927C102.633 57.3622 102.61 57.3294 102.56 57.3294L102.357 57.3116C102.253 57.2972 102.207 57.2322 102.196 57.0883L102.183 56.6272V56.2271C102.183 56.0777 102.183 55.936 102.249 55.7766C102.329 55.586 102.975 54.4972 103.132 54.3072C103.235 54.1799 103.284 54.1294 103.37 54.0788C103.434 54.0366 103.515 54.0183 103.564 54.0183C103.635 54.0183 103.66 53.9788 103.66 53.9449C103.66 53.916 103.635 53.8822 103.564 53.8822L103.237 53.8916Z" fill="white"/>
<path d="M105.738 55.5383C105.738 54.6172 106.243 54.045 107.058 54.045C107.721 54.045 108.436 54.5705 108.436 55.7244C108.436 57.2072 107.397 57.2822 107.188 57.2822C106.335 57.2828 105.738 56.565 105.738 55.5383ZM105.225 55.6678C105.225 56.565 105.8 57.5305 107.063 57.5305C108.158 57.5305 108.952 56.7161 108.952 55.5939C108.952 54.5305 108.205 53.8167 107.091 53.8167C105.731 53.8167 105.225 54.9522 105.225 55.6678Z" fill="white"/>
<path d="M111.366 53.8616L111.341 53.8738C111.34 53.8738 111.199 53.8882 111.199 53.8882L111.145 53.891C111.145 53.891 110.004 53.8949 110.004 53.8949L109.943 53.8927L109.479 53.881C109.451 53.881 109.369 53.881 109.369 53.9538C109.369 53.9905 109.399 54.0171 109.442 54.0171L109.591 54.0293C109.718 54.0566 109.755 54.1071 109.764 54.2627C109.764 54.2632 109.774 55.2643 109.774 55.2643V56.0827C109.774 56.5177 109.774 56.8932 109.75 57.086C109.731 57.2249 109.709 57.2977 109.644 57.3116C109.643 57.3121 109.511 57.3293 109.511 57.3293C109.461 57.3293 109.439 57.361 109.439 57.3927C109.439 57.4649 109.521 57.4649 109.549 57.4649L109.928 57.4538L110.004 57.451L110.059 57.4532L110.575 57.4649C110.674 57.4649 110.685 57.4143 110.685 57.3927C110.685 57.361 110.662 57.3293 110.611 57.3293L110.409 57.3116C110.298 57.296 110.271 57.2243 110.258 57.0871C110.234 56.8938 110.234 56.5182 110.234 56.0832V55.6877C110.407 55.681 110.826 55.6827 110.929 55.6949C111.051 55.7105 111.12 55.7799 111.142 55.8399L111.164 55.9721L111.167 55.9999C111.167 56.041 111.195 56.0727 111.234 56.0727C111.302 56.0727 111.302 55.9921 111.302 55.9488L111.321 55.6416L111.358 55.3777C111.358 55.3105 111.314 55.3055 111.3 55.3055C111.266 55.3055 111.246 55.3321 111.229 55.3555C111.19 55.4105 111.148 55.426 111.033 55.4349L110.826 55.4399L110.231 55.4443L110.234 54.1555C110.24 54.1393 110.955 54.1532 110.955 54.1532C111.121 54.1571 111.218 54.2327 111.241 54.2816C111.241 54.2821 111.279 54.4438 111.279 54.4438C111.279 54.5299 111.335 54.5343 111.346 54.5343C111.371 54.5343 111.404 54.521 111.418 54.4549C111.418 54.4532 111.436 54.2243 111.436 54.2243L111.441 54.1438C111.441 54.1443 111.469 53.9855 111.469 53.9855L111.479 53.9232C111.479 53.8777 111.453 53.8455 111.415 53.8455L111.366 53.8616Z" fill="white"/>
<path d="M111.219 60.1572H61.6602V60.44H111.219V60.1572Z" fill="white"/>
<path d="M66.6535 63.1355C66.6535 63.1355 64.8791 66.8616 64.718 67.1989C64.6863 67.1339 62.7758 63.1861 62.7758 63.1861C62.6858 63.0055 62.6385 62.9539 62.5658 62.9539C62.5185 62.9539 62.4558 62.9889 62.4263 63.155L61.7163 67.8328C61.6774 68.0966 61.6169 68.3461 61.4358 68.3844C61.4352 68.3844 61.2241 68.4061 61.2241 68.4061C61.1913 68.4061 61.0913 68.4061 61.0913 68.4733C61.0913 68.5705 61.198 68.5705 61.2385 68.5705L61.6796 68.5577L61.9485 68.5494L62.1785 68.5566L62.7019 68.5705C62.7935 68.5705 62.8919 68.5633 62.8919 68.4733C62.8919 68.4305 62.8463 68.4061 62.7669 68.4061L62.4691 68.3705C62.3341 68.3389 62.268 68.2694 62.268 68.1583L62.2891 67.8233C62.2891 67.8233 62.6152 65.3244 62.6574 65.0027C62.7163 65.0994 63.0058 65.7155 63.0058 65.7155L63.403 66.5655C63.488 66.7633 64.0458 67.8444 64.2285 68.1955L64.2496 68.235C64.3585 68.44 64.4241 68.5639 64.4952 68.5639C64.5724 68.5639 64.6108 68.4922 64.7763 68.1527L66.3402 64.8955C66.3402 64.9244 66.7658 68.0466 66.7658 68.0466C66.7746 68.11 66.7785 68.1616 66.7785 68.2027C66.7785 68.29 66.7613 68.3294 66.7419 68.3361C66.6941 68.3566 66.6508 68.3822 66.6508 68.4316C66.6508 68.4966 66.7263 68.515 66.8746 68.5283C67.1574 68.5494 68.1463 68.5716 68.3324 68.5716C68.4641 68.5716 68.5363 68.5372 68.5363 68.4744C68.5363 68.4072 68.4469 68.4072 68.4035 68.4072C68.3052 68.4072 68.1669 68.3994 67.9641 68.3361C67.753 68.2727 67.6869 68.0566 67.6252 67.6261L66.9719 63.1927C66.9491 63.0327 66.9013 62.955 66.8252 62.955C66.7508 62.9533 66.7108 63.0222 66.6535 63.1355Z" fill="white"/>
<path d="M72.2688 63.0704L72.2266 63.0827L71.9199 63.1254C71.7983 63.1321 70.626 63.1327 70.1283 63.1327L69.761 63.1216L69.6771 63.1182C69.6766 63.1182 69.0955 63.111 69.0955 63.111C69.0105 63.111 68.9199 63.1171 68.9199 63.1932C68.9199 63.2754 69.0144 63.2754 69.0594 63.2754L69.3349 63.296C69.5694 63.346 69.6166 63.4627 69.6299 63.6893C69.6444 63.9182 69.6444 64.1154 69.6444 65.2093V66.4721C69.6444 67.1293 69.6444 67.6977 69.6088 67.9977C69.5766 68.2299 69.5377 68.3521 69.4144 68.3771L69.1594 68.4054C69.1027 68.4054 69.0271 68.4132 69.0271 68.4804C69.0271 68.5393 69.0816 68.5699 69.1883 68.5699L69.6838 68.5554C69.6844 68.5554 70.0927 68.5482 70.0927 68.5482L70.8383 68.5699L71.0466 68.5749L72.0799 68.5916C72.356 68.5916 72.431 68.5916 72.4844 68.3921C72.5216 68.2449 72.5783 67.7588 72.5783 67.591C72.5783 67.5188 72.5783 67.4443 72.5033 67.4443C72.4344 67.4443 72.4199 67.4954 72.4071 67.5666C72.356 67.8627 72.2716 68.0032 72.0944 68.0843C71.9116 68.1688 71.6083 68.1688 71.4271 68.1688C70.6821 68.1688 70.5977 68.0504 70.5838 67.5832L70.5827 66.7677L70.5838 66.4721V65.9054C70.5838 65.851 70.5966 65.851 70.6094 65.851C70.7705 65.851 71.4883 65.8582 71.626 65.8727C71.8533 65.8971 71.9727 65.9793 72.0127 66.1388L72.0355 66.3277L72.041 66.3949C72.041 66.446 72.0699 66.4754 72.1233 66.4754C72.2055 66.4754 72.2055 66.3788 72.2055 66.3216L72.2188 66.0954L72.2344 65.8416L72.2827 65.3943L72.2916 65.3171C72.2916 65.2693 72.2666 65.2421 72.2238 65.2421C72.1827 65.2421 72.1516 65.2771 72.1055 65.3299C72.0349 65.4088 71.9321 65.4288 71.7633 65.4427C71.6571 65.4521 71.2499 65.4571 70.6166 65.4571C70.5944 65.4571 70.5844 65.4516 70.5844 65.3954V63.5804C70.5844 63.5266 70.6016 63.5266 70.6166 63.5266C70.7555 63.5266 71.5094 63.5404 71.6333 63.5549C71.9933 63.5982 72.0538 63.6849 72.0999 63.8021C72.1405 63.8993 72.1416 64.0388 72.1416 64.0538C72.1416 64.0893 72.1416 64.1721 72.2238 64.1721C72.2938 64.1721 72.3077 64.1043 72.3133 64.0788C72.3133 64.0782 72.3394 63.7499 72.3394 63.7499L72.3494 63.6032C72.3494 63.6027 72.3966 63.2066 72.3966 63.2066L72.4066 63.1354C72.4066 63.1154 72.4066 63.0532 72.3455 63.0532L72.2688 63.0704Z" fill="white"/>
<path d="M75.0344 63.1245L74.6544 63.1334L74.2905 63.1245L73.6716 63.1117C73.5866 63.1117 73.4961 63.1178 73.4961 63.1939C73.4961 63.2761 73.5905 63.2761 73.6355 63.2761L73.8683 63.2967C74.1028 63.3467 74.15 63.4634 74.1633 63.69C74.1778 63.9189 74.1778 64.1162 74.1778 65.21V66.4728C74.1778 67.13 74.1778 67.6984 74.1422 67.9984C74.11 68.2306 74.0711 68.3528 73.9483 68.3778C73.9478 68.3778 73.6933 68.4062 73.6933 68.4062C73.6366 68.4062 73.5611 68.4139 73.5611 68.4812C73.5611 68.5706 73.6822 68.5706 73.7222 68.5706L74.2172 68.5561C74.2178 68.5561 74.6261 68.5489 74.6261 68.5489L75.7461 68.5767L76.7133 68.5923C77.0905 68.5923 77.1361 68.5556 77.1828 68.385C77.2405 68.1739 77.2905 67.6384 77.2905 67.5556C77.2905 67.4867 77.2905 67.4162 77.2155 67.4162C77.1328 67.4162 77.1239 67.4962 77.1189 67.5395C77.105 67.6739 77.0194 67.87 76.9366 67.9595C76.7683 68.1417 76.5122 68.1545 76.1105 68.1545C75.5366 68.1545 75.3666 68.1006 75.2544 68.0011C75.11 67.8767 75.11 67.3778 75.11 66.4717V65.2089C75.11 64.115 75.11 63.9178 75.1244 63.6889C75.1394 63.4273 75.2028 63.3284 75.3755 63.2962C75.3761 63.2962 75.6522 63.275 75.6522 63.275C75.7283 63.275 75.7994 63.265 75.7994 63.1928C75.7994 63.1206 75.7183 63.1106 75.6311 63.1106L75.0344 63.1245Z" fill="white"/>
<path d="M79.4612 63.1206L78.9446 63.1328L78.6685 63.1256L77.969 63.1112C77.884 63.1112 77.7935 63.1173 77.7935 63.1934C77.7935 63.2756 77.8879 63.2756 77.9329 63.2756L78.2085 63.2962C78.4429 63.3462 78.4907 63.4628 78.5035 63.6895C78.5179 63.9184 78.5179 64.1156 78.5179 65.2095V66.4723C78.5179 67.1295 78.5179 67.6978 78.4829 67.9978C78.4562 68.1895 78.4235 68.35 78.289 68.3773C78.2885 68.3773 78.034 68.4056 78.034 68.4056C77.9773 68.4056 77.9018 68.4134 77.9018 68.4806C77.9018 68.57 78.0223 68.57 78.0629 68.57L78.5579 68.5556C78.5585 68.5556 78.9668 68.5484 78.9668 68.5484L79.504 68.57C79.5046 68.57 79.7835 68.5823 79.7835 68.5823L80.0068 68.5911C81.3423 68.5911 81.9401 67.7967 81.9401 67.0095C81.9401 66.1978 81.279 65.6767 80.6496 65.4534C81.0796 65.1056 81.3662 64.7567 81.3662 64.2039C81.3662 63.9473 81.2551 63.1106 79.8207 63.1106L79.4612 63.1206ZM79.6979 63.4406C80.3385 63.4406 80.5773 64.1123 80.5773 64.535C80.5773 64.8711 80.4773 65.1295 80.2901 65.2817C80.1651 65.3917 79.9973 65.4139 79.7851 65.4139L79.4518 65.3928C79.4301 65.3878 79.4151 65.3806 79.4151 65.3311V63.5589C79.4151 63.4823 79.4285 63.465 79.4668 63.4539C79.4662 63.455 79.6979 63.4406 79.6979 63.4406ZM79.6546 68.1489C79.4351 68.06 79.4146 67.95 79.4146 67.4767V65.7761C79.4146 65.7461 79.4251 65.7439 79.4401 65.7439L79.7479 65.7511C80.019 65.765 80.1835 65.8123 80.3335 65.92H80.334C80.9557 66.3534 81.0223 67.0528 81.0223 67.3334C81.0223 68.1906 80.314 68.2339 80.1718 68.2339C80.0085 68.2339 79.8462 68.2273 79.6546 68.1489Z" fill="white"/>
<path d="M82.6646 65.841C82.6646 67.2043 83.5745 68.671 85.5734 68.671C87.3323 68.671 88.5612 67.4543 88.5612 65.7115C88.5612 64.0454 87.444 63.011 85.6451 63.011C83.5973 63.011 82.6646 64.4776 82.6646 65.841ZM83.6901 65.6182C83.6901 63.6799 84.7851 63.3904 85.4379 63.3904C86.6651 63.3904 87.5223 64.4538 87.5223 65.9765C87.5223 68.0521 86.3701 68.2765 85.8751 68.2765C84.5884 68.2765 83.6901 67.1838 83.6901 65.6182Z" fill="white"/>
<path d="M94.0671 63.1266L93.8599 63.1333C93.8399 63.1322 93.0349 63.1116 93.0349 63.1116C92.9538 63.1116 92.8671 63.1177 92.8671 63.1939C92.8671 63.2761 92.961 63.2761 93.0065 63.2761L93.2604 63.2966C93.4949 63.3466 93.5421 63.4633 93.5554 63.69C93.5699 63.9189 93.5699 64.1161 93.5699 65.21V66.1066C93.5699 66.875 93.5399 67.4922 93.1588 67.8733C92.8138 68.2183 92.3604 68.2555 92.1815 68.2555C91.9338 68.2555 91.6088 68.2227 91.296 67.9655C91.0088 67.7305 90.7427 67.3561 90.7427 66.2144V65.21C90.7427 64.1161 90.7427 63.9189 90.7571 63.69C90.7721 63.4283 90.8354 63.3294 91.0088 63.2972L91.2132 63.2761C91.2526 63.2761 91.3454 63.2761 91.3454 63.1939C91.3454 63.1177 91.2549 63.1116 91.1704 63.1116L90.646 63.1239L90.2877 63.1327L89.9043 63.1239L89.2404 63.1111C89.1554 63.1111 89.0654 63.1172 89.0654 63.1933C89.0654 63.2755 89.1593 63.2755 89.2049 63.2755L89.4804 63.2961C89.7149 63.3461 89.7627 63.4628 89.7754 63.6894C89.7893 63.9183 89.7893 64.1155 89.7893 65.2094V66.2566C89.7893 67.1661 89.9938 67.7744 90.4338 68.1711C90.986 68.6705 91.7232 68.6705 92.0382 68.6705C92.456 68.6705 93.0049 68.6111 93.5421 68.1494C94.1465 67.6316 94.2299 66.7989 94.2299 65.9766V65.2094C94.2299 64.1155 94.2299 63.9183 94.2443 63.6894C94.2593 63.4278 94.3226 63.3289 94.4949 63.2966C94.4954 63.2966 94.6999 63.2755 94.6999 63.2755C94.776 63.2755 94.8465 63.2655 94.8465 63.1933C94.8465 63.1172 94.7599 63.1111 94.6788 63.1111L94.0671 63.1266Z" fill="white"/>
<path d="M97.1708 63.1217L96.6442 63.1328L96.3569 63.1256L95.6614 63.1112C95.5769 63.1112 95.4858 63.1173 95.4858 63.1934C95.4858 63.2756 95.5803 63.2756 95.6253 63.2756L95.9008 63.2962C96.1353 63.3462 96.1825 63.4628 96.1958 63.6895C96.2103 63.9184 96.2103 64.1156 96.2103 65.2095V66.4723C96.2103 67.1295 96.2103 67.6978 96.1747 67.9978C96.1486 68.1895 96.1158 68.35 95.9808 68.3773L95.7258 68.4056C95.6692 68.4056 95.5931 68.4134 95.5931 68.4806C95.5931 68.57 95.7142 68.57 95.7547 68.57L96.3392 68.5567L96.6303 68.5489L96.8619 68.5545L97.6847 68.5706C97.7247 68.5706 97.8458 68.5706 97.8458 68.4811C97.8458 68.4584 97.8358 68.4061 97.7425 68.4061L97.3931 68.3773C97.2014 68.3517 97.152 68.2245 97.1286 67.9984C97.0931 67.6978 97.0931 67.1267 97.0931 66.465V66.3645C97.0931 66.3345 97.1031 66.325 97.1325 66.325L97.7564 66.3395C97.8058 66.3395 97.8419 66.3473 97.8725 66.3834C97.8725 66.3839 98.2158 66.8573 98.2158 66.8573L98.5819 67.3723C99.0008 67.9489 99.2692 68.2711 99.5708 68.4323C99.7653 68.5373 99.9542 68.5706 100.347 68.5706H101.028C101.079 68.5706 101.183 68.5706 101.183 68.4811C101.183 68.4584 101.173 68.4061 101.079 68.4061L100.881 68.3845C100.765 68.3611 100.475 68.3039 100.087 67.9017C99.7219 67.5178 99.3075 66.9945 98.7825 66.3328C98.7825 66.3328 98.5603 66.0528 98.5414 66.0289C99.1997 65.4911 99.4825 65.0089 99.4825 64.42C99.4825 63.8967 99.1581 63.5389 98.9869 63.4223C98.5858 63.1478 98.0897 63.1106 97.6569 63.1106L97.1708 63.1217ZM97.1442 65.8889C97.1053 65.8717 97.0914 65.8528 97.0914 65.7761V63.5956C97.0914 63.5423 97.1031 63.5234 97.1431 63.5123C97.2075 63.4928 97.3236 63.4839 97.5186 63.4839C97.9197 63.4839 98.5986 63.7567 98.5986 64.7795C98.5986 65.4378 98.3381 65.7273 98.1825 65.8411C98.0597 65.93 97.9697 65.9595 97.6836 65.9595C97.4792 65.9595 97.2775 65.9334 97.1442 65.8889Z" fill="white"/>
<path d="M102.041 63.2512L101.976 67.4978C101.969 68.1162 101.94 68.3173 101.766 68.3712C101.66 68.4017 101.521 68.4062 101.449 68.4062C101.413 68.4062 101.316 68.4062 101.316 68.4812C101.316 68.5706 101.417 68.5706 101.491 68.5706L102.146 68.5534L102.266 68.5489L102.466 68.5551L103.156 68.5706C103.215 68.5706 103.339 68.5706 103.339 68.4812C103.339 68.4062 103.241 68.4062 103.199 68.4062C103.093 68.4062 102.955 68.4006 102.832 68.3567C102.677 68.3023 102.605 68.0695 102.593 67.5762C102.593 67.5762 102.516 64.6606 102.515 64.5962C102.555 64.6312 102.66 64.7456 102.66 64.7456C102.962 65.0773 103.59 65.7667 104.213 66.3845L105.165 67.3373L106.329 68.4939C106.411 68.5762 106.499 68.6562 106.585 68.6562C106.683 68.6562 106.696 68.5351 106.696 68.4162L106.775 63.8895C106.783 63.4884 106.841 63.3495 107.028 63.2962C107.027 63.2962 107.238 63.2756 107.238 63.2756C107.336 63.2756 107.385 63.2478 107.385 63.1934C107.385 63.1112 107.275 63.1112 107.203 63.1112L106.63 63.1273L106.5 63.1334L106.247 63.1262L105.632 63.1117C105.546 63.1117 105.428 63.1117 105.428 63.1939C105.428 63.2667 105.499 63.2762 105.56 63.2762C105.661 63.2762 105.829 63.2762 105.934 63.3178C106.086 63.3812 106.159 63.4917 106.166 63.9473C106.166 63.9473 106.234 66.9617 106.238 67.1506C106.229 67.1506 106.221 67.1506 106.221 67.1506C106.221 67.1434 105.718 66.6206 105.718 66.6206L104.655 65.5201C103.564 64.4367 102.443 63.2289 102.431 63.2173L102.365 63.1445C102.28 63.0512 102.224 62.9895 102.154 62.9895C102.053 62.9895 102.041 63.1389 102.041 63.2512Z" fill="white"/>
<path d="M111.045 63.0712L111.003 63.0834C111.002 63.0834 110.696 63.1262 110.696 63.1262C110.575 63.1328 109.403 63.1334 108.905 63.1334L108.538 63.1223L108.453 63.119C108.452 63.119 107.871 63.1117 107.871 63.1117C107.787 63.1117 107.696 63.1178 107.696 63.194C107.696 63.2762 107.79 63.2762 107.835 63.2762L108.111 63.2967C108.345 63.3467 108.392 63.4634 108.406 63.6901C108.421 63.919 108.421 64.1162 108.421 65.2101V66.4728C108.421 67.1301 108.421 67.6984 108.385 67.9984C108.359 68.1895 108.326 68.3506 108.191 68.3778L107.936 68.4062C107.88 68.4062 107.804 68.414 107.804 68.4812C107.804 68.5706 107.925 68.5706 107.965 68.5706L108.46 68.5562C108.461 68.5562 108.87 68.549 108.87 68.549L109.615 68.5706L109.823 68.5756L110.857 68.5923C111.126 68.5923 111.208 68.5923 111.261 68.3928C111.298 68.2467 111.355 67.7606 111.355 67.5917C111.355 67.5195 111.355 67.4451 111.28 67.4451C111.211 67.4451 111.197 67.4962 111.184 67.5673C111.134 67.8628 111.049 68.0034 110.871 68.0851C110.688 68.1695 110.385 68.1695 110.204 68.1695C109.46 68.1695 109.375 68.0512 109.361 67.584L109.36 66.7684L109.361 66.4728V65.9062C109.361 65.8517 109.374 65.8517 109.386 65.8517C109.547 65.8517 110.265 65.859 110.404 65.8734C110.631 65.8978 110.75 65.9801 110.79 66.1395L110.813 66.3306L110.818 66.3956C110.818 66.4467 110.847 66.4762 110.9 66.4762C110.982 66.4762 110.982 66.3795 110.982 66.3223L110.996 66.0901L111.011 65.8428L111.06 65.3962L111.069 65.3178C111.069 65.2701 111.044 65.2428 111.001 65.2428C110.959 65.2428 110.929 65.2778 110.882 65.3312C110.812 65.409 110.709 65.4295 110.54 65.4434C110.435 65.4528 110.027 65.4578 109.394 65.4578C109.371 65.4578 109.362 65.4523 109.362 65.3962V63.5812C109.362 63.5273 109.38 63.5273 109.394 63.5273C109.532 63.5273 110.287 63.5412 110.411 63.5556C110.771 63.599 110.831 63.6856 110.877 63.8028C110.917 63.8995 110.919 64.039 110.919 64.0545C110.919 64.0901 110.919 64.1728 111.001 64.1728C111.072 64.1728 111.086 64.1023 111.09 64.0795C111.091 64.079 111.116 63.7512 111.116 63.7512L111.126 63.604C111.126 63.6034 111.174 63.2067 111.174 63.2067L111.184 63.1362C111.184 63.0817 111.164 63.054 111.123 63.054L111.045 63.0712Z" fill="white"/>
<path d="M86.2399 49.8955C85.0416 48.6971 83.5593 48.0638 82.1266 47.451L82.0121 47.4027C81.9932 47.3955 81.2488 47.1171 81.2488 47.1171C81.1577 47.0833 81.0993 47.061 81.0643 47.0449L80.9327 46.9849L80.9277 46.9999C76.2338 45.3399 73.3632 41.4749 73.2399 36.6366C73.2327 36.4394 73.2288 36.231 73.2288 36.0149C73.2288 35.2888 73.2721 34.526 73.3571 33.7477C73.4188 33.2866 73.5632 32.2049 73.5666 32.1771L73.9821 29.7077C74.0249 29.4549 74.046 29.3277 74.0605 29.2683L74.0971 29.1177L74.0693 29.116C74.0943 28.7733 74.1193 28.3521 74.1193 27.9355C74.1193 26.2327 73.6877 25.1571 72.7193 24.4477L72.7121 24.4421L72.5854 24.3155L74.6732 21.5949L74.6138 21.5155C74.4505 21.2988 74.356 21.0727 74.3321 20.8433L74.2999 20.5349L74.5921 20.6388C74.7782 20.7049 74.966 20.7644 75.166 20.8194L75.2505 20.8427L77.326 18.1377L77.421 18.2971C77.8099 18.9527 78.506 19.271 79.5477 19.271C79.9743 19.271 80.4638 19.2194 81.0888 19.1083C81.0888 19.1083 83.1393 18.7921 83.1571 18.7894C84.5771 18.6244 84.8471 18.5933 84.8905 18.5883L85.0199 18.5744C85.4243 18.5349 85.8593 18.5149 86.3138 18.5149C87.2093 18.5149 88.1793 18.5905 89.1971 18.7394C89.2032 18.7405 90.6532 18.956 90.6666 18.9577L92.4732 19.2583C92.7382 19.2838 93.0416 19.3088 93.3482 19.3088C94.1582 19.3088 94.7238 19.1294 95.1288 18.7444C95.2182 18.6649 95.2916 18.571 95.3621 18.481L95.5643 18.2266L97.4749 20.7399L97.566 20.7049C97.8755 20.5866 98.2993 20.4333 98.8399 20.2388C98.8399 20.2388 99.1227 20.1371 99.216 20.1033C99.9166 19.8483 100.487 19.6755 100.958 19.576L101.33 19.4977L101.178 19.846C101.049 20.1427 100.932 20.3671 100.811 20.5527L100.584 20.8999L100.969 20.7449C100.977 20.7421 101.248 20.6333 101.48 20.541L101.235 21.0088C101.105 21.2588 100.602 22.0521 100.135 22.396L100.033 22.4716L100.106 22.5755C100.109 22.5805 100.113 22.5849 100.116 22.5899C100.164 22.6671 100.192 22.7871 100.192 22.9199C100.192 23.046 100.167 23.1716 100.126 23.2566C100.073 23.3655 99.9938 23.5105 99.8405 23.6666L99.7616 23.7471L100.275 24.4227L100.175 24.4983C99.1882 25.2405 98.7088 26.3844 98.7088 27.996L98.7093 28.0499C98.706 28.1327 98.7049 28.2205 98.7049 28.3105C98.7049 28.6827 98.731 29.0871 98.7816 29.5116L99.0327 31.0877C99.2088 32.141 99.2999 32.6855 99.3032 32.7077C99.3516 33.171 99.4777 34.3694 99.4877 34.4616C99.5488 35.9527 99.5538 36.0871 99.5543 36.096C99.556 36.1571 99.5566 36.221 99.5566 36.2844C99.5566 38.8938 98.681 41.536 97.2721 43.181L97.2443 43.2149C96.3277 44.331 95.0716 45.8605 91.6449 47.0666C89.7221 47.766 88.0127 48.451 86.5449 49.7544L86.5388 49.7594L86.4843 49.8216L86.4388 49.871L86.3332 49.9882L86.2399 49.8955Z" fill="white"/>
<path d="M99.7295 24.1777C99.7023 24.1416 99.6812 24.126 99.6601 24.1227C99.6812 24.126 99.7017 24.141 99.7295 24.1777ZM99.7317 24.181C99.7312 24.1799 99.7301 24.1782 99.7295 24.1777C99.7301 24.1782 99.7312 24.1799 99.7317 24.181ZM100.93 20.6138C101.059 20.4154 101.181 20.1777 101.307 19.8877L101.56 19.3077L100.941 19.4388C100.463 19.5399 99.8879 19.7138 99.1817 19.971C99.0834 20.0066 98.9534 20.0538 98.8062 20.1066C98.3201 20.2816 97.859 20.4482 97.5301 20.5738L95.5773 18.0043L95.2701 18.391C95.2001 18.481 95.1334 18.5654 95.0495 18.6404C94.6706 19.001 94.1334 19.1688 93.359 19.1688C93.0556 19.1688 92.754 19.1438 92.5051 19.1199L90.6951 18.8193C90.674 18.816 89.2262 18.601 89.2262 18.601C88.2023 18.451 87.2256 18.3749 86.324 18.3749C85.8162 18.3749 85.3329 18.3999 84.8867 18.4488V18.4493C84.8429 18.4538 84.6012 18.4821 83.1462 18.651C83.1223 18.6549 81.0779 18.9699 81.0756 18.9704C80.4584 19.0804 79.9762 19.131 79.5579 19.131C78.5656 19.131 77.9067 18.8332 77.5429 18.2204L77.3495 17.896L75.2106 20.6838C75.0251 20.6327 74.8406 20.5754 74.6462 20.506L74.159 20.3327L74.2123 20.8466C74.2401 21.1149 74.3506 21.3599 74.5195 21.5838L72.4229 24.3166L72.6356 24.5299L72.6523 24.5427C73.5834 25.2249 73.999 26.2682 73.999 27.9249C73.999 28.3916 73.9673 28.866 73.9395 29.2266H73.9434C73.9279 29.2904 73.9067 29.4154 73.8629 29.6754L73.4467 32.1504C73.4434 32.1765 73.3084 33.1888 73.2373 33.7232C73.1517 34.506 73.1079 35.2738 73.1079 36.0043C73.1079 36.221 73.1117 36.4321 73.119 36.6293C73.2445 41.5666 76.1979 45.5021 81.0184 47.156L81.0195 47.1532C81.0595 47.1715 81.1206 47.1943 81.2129 47.2288C81.2129 47.2288 81.9651 47.5099 81.9706 47.5121L82.0845 47.5604C83.5062 48.1682 84.9767 48.7971 86.1567 49.9771L86.3473 50.1688L86.544 49.9499L86.5901 49.8999C86.5901 49.8999 86.6184 49.8671 86.6406 49.8421C88.0906 48.5543 89.7895 47.8743 91.6973 47.1799C95.1584 45.9615 96.4273 44.4166 97.3545 43.2877L97.3801 43.256C98.809 41.5888 99.6962 38.9138 99.6962 36.2743C99.6962 36.2099 99.6956 36.1454 99.694 36.0832C99.694 36.0804 99.694 36.0771 99.6273 34.4416C99.6245 34.4154 99.5051 33.2782 99.4417 32.6793C99.4412 32.676 99.4406 32.6677 99.1706 31.0566L98.9201 29.4854C98.8695 29.0654 98.844 28.6666 98.844 28.2999C98.844 28.2116 98.8451 28.1254 98.8484 28.0377L98.8478 27.9854C98.8478 26.4177 99.3106 25.3077 100.262 24.5921L100.467 24.4382L99.9423 23.7482C100.104 23.5832 100.192 23.4288 100.252 23.3038C100.351 23.0993 100.368 22.7232 100.235 22.5116C100.231 22.5043 100.226 22.4977 100.221 22.491C100.702 22.136 101.214 21.3382 101.36 21.0593L101.767 20.2793C101.768 20.2788 100.936 20.611 100.93 20.6138ZM75.664 20.8104L77.3273 18.6482C77.9134 19.4932 78.8773 19.5532 79.8334 19.5866L80.469 19.5188L83.1856 19.0916L85.0117 18.8827C86.7795 18.6816 88.5401 18.9577 90.2156 19.1921L92.6295 19.5866C93.6523 19.661 94.749 19.6366 95.4456 18.8732L95.579 18.7232L97.1178 20.746C97.1156 20.7471 97.1129 20.7482 97.1106 20.7493C97.0784 20.7643 97.0295 20.7854 96.9684 20.811C96.7701 20.8827 96.5456 20.9649 96.3362 21.0488C96.3101 21.0582 96.2828 21.0671 96.2562 21.0766L96.2301 21.0704L95.4467 20.0382C94.6334 20.4993 93.619 20.566 92.639 20.4993L91.2301 20.281L89.4884 19.9966L87.6284 19.7782C86.514 19.6866 85.374 19.7282 84.2923 19.8538L82.7495 20.0721L80.1851 20.4577C79.1962 20.5404 78.2406 20.4238 77.444 19.9793L76.6484 21.0143C76.5451 20.9943 76.4417 20.9743 76.334 20.9521C76.0895 20.9032 75.8706 20.8577 75.664 20.8104ZM95.1501 25.6149C95.1267 25.8666 94.8334 25.9227 94.7362 26.126L94.5984 26.2238C94.7195 26.216 94.8495 26.1421 94.9323 26.0366C95.1345 25.9721 95.7729 25.8393 95.8017 25.9638C95.8301 26.0877 95.7712 26.2021 95.5823 26.3371C95.3934 26.4721 94.7201 26.7604 94.224 26.6793C93.9473 26.6716 93.6873 26.7521 93.4273 26.8088L92.0934 27.1993C91.6312 27.3216 91.0901 27.386 90.5901 27.2649C89.8506 27.1271 89.119 26.931 88.3373 26.9799C88.2495 26.9838 88.1256 27.0532 88.0767 27.1588C88.1584 27.1421 88.2801 27.1021 88.3617 27.1588C88.3506 27.2599 88.3362 27.8188 88.1212 28.0299C88.0645 27.9654 88.034 27.8616 88.0056 27.7693C87.9773 27.6771 87.654 26.2638 88.2729 25.8177C88.6429 25.6977 89.1256 25.9227 89.2479 25.9888C89.7256 26.2477 90.5417 26.3849 91.1756 26.6304C91.4517 26.5977 91.7195 26.5082 92.004 26.4754L93.9151 26.2232C94.2567 26.2877 94.3067 25.8493 94.6056 25.8177C94.8012 25.8254 94.9234 25.6782 95.0773 25.5899C95.1045 25.566 95.1501 25.5738 95.1501 25.6149ZM79.3884 26.4771C79.4617 26.4121 79.7162 26.3543 79.9573 26.3888C80.1979 26.4232 80.629 26.5277 80.954 26.756C81.6129 26.9754 82.1279 27.4299 82.7984 27.6393C82.8234 27.5816 82.7334 27.5327 82.7012 27.4921C83.1162 27.1749 83.5473 26.8821 84.0112 26.6877C84.3112 26.3371 84.7095 25.9888 85.1973 26.061L85.3079 26.0493C85.3079 26.0493 85.3101 26.1616 85.3079 26.2066C85.294 26.4604 85.1617 26.7138 85.0179 27.0616C85.0179 27.0616 84.6129 27.2116 84.4162 27.3299C84.2567 27.426 82.8551 28.2482 82.8551 28.2482C82.4567 28.5649 82.259 28.2104 81.8473 27.9316C81.3667 27.6793 80.8712 27.4354 80.4562 27.0454C80.4562 26.9893 80.5779 27.021 80.5212 26.956C80.2851 26.9804 80.1095 27.0621 79.8984 27.1277C79.809 27.1688 79.5873 27.2432 79.5156 27.1049L79.6184 27.0777C79.7495 26.9893 79.7967 26.8132 80.0117 26.7616C79.8556 26.611 79.5495 26.5571 79.3267 26.5427L79.3884 26.4771ZM97.0767 26.5916C97.0934 26.7088 96.8567 26.9882 96.5529 27.056C96.1834 27.1388 95.8856 27.0671 95.6484 26.931C95.6595 27.1938 96.0951 27.2927 96.4145 27.2321C96.2367 27.476 95.6956 27.6449 95.2895 27.6293C94.8678 27.6127 94.584 27.486 94.209 27.2543C94.1706 27.5082 94.6501 27.7232 94.9917 27.7504C94.3129 28.1243 93.5529 27.8527 93.459 27.8277C93.2717 27.7782 92.9956 27.6621 92.849 27.5132C92.8395 27.7104 93.1056 27.8666 93.3429 27.9216C92.8962 28.131 92.3273 27.8977 92.1028 27.5254C92.8367 27.3121 93.3962 27.1171 94.1417 26.9316C94.8612 27.0516 95.5501 26.7499 95.8184 26.4354C95.9229 26.3132 95.9934 26.1632 95.9979 26.1249C96.0656 26.1032 96.1617 26.1288 96.2279 26.1449C96.2956 26.161 97.0112 26.3227 97.0767 26.5916ZM90.9701 27.6599C91.3201 27.701 91.7995 27.6288 91.9629 27.5788C92.0429 27.716 91.8829 27.9493 91.7484 27.8993C91.8056 28.0943 91.9856 28.3466 91.9534 28.5732C91.7829 28.5093 91.2795 28.3099 91.2795 28.3099C91.4017 28.5132 91.5784 28.8716 91.5145 29.131C91.3106 28.9771 90.8817 28.9638 90.7106 28.8338C90.7917 29.1432 90.9951 29.5904 90.7267 29.8832C90.4756 29.7043 90.3529 29.4193 90.1417 29.216C90.1823 29.5088 90.2479 29.9638 90.0434 30.2332C89.914 30.0699 89.3567 29.8538 89.3723 29.6593C89.3156 29.6421 89.1662 30.2566 88.979 30.3704C88.7929 30.111 88.6334 29.7449 88.3756 29.5099C88.4473 29.4282 88.5373 29.476 88.5034 29.3377C88.4301 29.1616 88.1634 29.061 87.8695 28.9404C87.9134 28.8488 87.944 28.8038 88.0373 28.6704C88.2756 28.3304 88.4245 28.0154 88.4812 27.8521C88.5745 27.5827 88.6056 27.4949 88.6273 27.2993C88.9306 27.3377 89.1401 27.3866 89.5112 27.4282C89.8973 27.4732 90.4645 27.5971 90.9701 27.6599ZM84.659 27.5521C84.5667 27.6527 84.5101 27.7082 84.4617 27.8277C84.3506 28.1032 84.4617 28.5171 84.7456 28.721C84.9351 28.8571 84.999 28.8738 85.1517 28.9182C84.7784 29.0188 84.3651 29.556 84.3629 29.8404C84.2184 29.7065 84.1801 29.4432 84.2167 29.2004C84.114 29.3443 83.8862 29.4488 83.7473 29.4643C83.699 29.3421 83.7229 29.0238 83.8651 28.8777C83.809 28.781 83.4856 28.831 83.3362 28.9366C83.304 28.7416 83.3751 28.5882 83.5723 28.4677C83.519 28.3571 83.3984 28.4371 83.1312 28.4716C83.3017 28.3882 83.5601 28.2493 83.8356 28.0727C84.3034 27.7732 84.659 27.5521 84.659 27.5521ZM84.834 35.341C85.239 35.9899 85.2751 36.0149 85.4945 36.3899C85.714 36.7649 86.6234 38.1671 86.7995 38.4521C86.9756 38.7371 87.9134 40.3265 88.5195 40.6354C88.0534 41.1427 88.2767 41.771 87.5079 41.8954C87.0634 41.9671 85.8167 42.3504 85.3856 41.6293C84.9545 40.9082 84.7584 39.7549 84.8884 38.8443C85.4362 39.6954 85.829 40.0721 86.1306 40.2454C85.1301 39.1332 85.254 38.901 84.7751 38.2993C84.5823 38.0565 84.5412 37.6643 84.5179 37.3677C84.4784 36.8621 84.4867 36.3515 84.4623 35.8449C84.4484 35.571 84.4623 35.2799 84.3712 35.0177C84.3356 34.9171 84.2634 34.6154 84.2412 34.5104C84.219 34.4054 84.2301 34.2677 84.2301 34.2677C84.2301 34.2677 84.429 34.6921 84.834 35.341ZM87.8645 25.6549C87.4423 25.9549 87.3634 26.2288 86.669 26.5827C86.284 26.7788 85.9067 26.9399 85.6612 26.8177C85.409 26.6799 85.4879 26.2254 85.4867 26.166C85.4856 26.1149 85.4923 26.0416 85.4945 26.0038C85.6817 25.9099 85.9517 25.9682 86.0284 25.7354C86.0923 25.541 86.0762 25.3216 86.1173 25.1177C86.1979 24.9471 86.4423 24.8649 86.4906 24.6788C86.1745 24.8816 85.9223 25.191 85.5312 25.1738C85.4095 25.1421 85.4912 24.9866 85.4262 24.9143C85.3473 24.8832 85.349 24.8216 85.3367 24.7643C85.369 24.7688 85.394 24.7693 85.3962 24.7693C85.4151 24.7693 85.4295 24.7549 85.4295 24.736C85.4295 24.7177 85.4151 24.7016 85.3962 24.7016C85.3773 24.7016 85.334 24.6977 85.2945 24.686C85.2912 24.6832 85.2901 24.681 85.2873 24.6788C85.2801 24.6132 85.3123 24.5238 85.2634 24.476L85.0673 24.4421C85.084 24.2399 85.2229 24.0604 85.2306 23.8416C85.2634 23.8816 85.3856 23.8727 85.3279 23.9543C85.2956 23.9871 85.304 24.0443 85.3206 24.0771C85.3101 23.9804 85.6623 23.8543 85.4745 23.7877C85.394 23.7721 85.1662 23.8249 85.1495 23.7021C85.1495 23.5238 85.2234 23.3693 85.3212 23.2232C85.5251 23.3938 85.8006 23.5399 85.8656 23.8166C85.9379 23.8982 86.0123 24.0032 86.1179 24.0032C86.3456 23.9138 86.459 24.141 86.6784 24.1254C86.6784 24.0771 86.7034 24.0277 86.7523 24.0116C86.8023 23.986 86.8573 24.0116 86.8906 24.0532C86.9156 24.1582 86.8501 24.2232 86.8006 24.2888C86.719 24.3532 86.6217 24.3699 86.5162 24.386C86.6945 24.5082 86.8495 24.3127 87.0201 24.2721C87.1006 24.256 87.1829 24.2882 87.2151 24.3699C87.289 24.7849 87.1101 25.3854 87.6301 25.5899C87.7017 25.6221 87.7834 25.6304 87.8645 25.6549ZM95.9656 40.7349C95.6295 40.6971 95.3423 40.7154 95.2212 41.0332C95.0512 41.4243 94.9584 41.7104 94.8251 41.936C94.6662 42.2049 94.4084 42.4388 93.9729 42.5599C93.5373 42.681 92.9301 42.7093 92.8551 42.4477C92.9667 41.916 93.6895 41.8338 93.9967 41.6849C94.5717 41.4071 94.6245 40.9016 94.6434 40.3804C93.8351 39.8604 92.2079 38.5693 92.2079 38.5693C92.2079 38.5693 93.6262 39.9777 94.3812 40.4804C94.3812 40.9232 94.2656 41.1749 93.9145 41.3693C93.6851 41.496 93.4234 41.5904 93.0995 41.7538C92.5456 42.0682 92.7106 42.5149 91.9612 42.8004C91.6467 42.9204 90.8884 43.0249 91.0867 42.6143C91.3706 42.1882 91.0679 42.1866 91.0679 42.1866C90.8951 42.2377 90.4351 42.3654 90.1967 42.3749C90.0506 42.3804 89.9034 42.2743 90.0312 42.156C90.0779 42.1132 90.1512 42.0777 90.2284 42.0182C90.3428 41.9304 90.409 41.8732 90.4584 41.7849C90.5367 41.6443 90.5995 41.4549 90.5151 41.406C90.4134 41.3465 90.2578 41.3877 90.1828 41.4693C89.8729 41.8132 89.8473 42.3899 88.9534 42.2238C88.9534 42.2238 87.9017 41.9816 88.7501 40.7982C88.9895 40.4799 88.3306 40.1077 87.9434 39.6332C87.2034 38.7265 85.0917 35.3027 85.0917 35.3027C84.8723 34.986 84.6406 34.6043 84.439 34.2943C84.2373 33.9849 84.1712 33.3232 84.6345 33.3871C84.8545 33.4332 84.9262 33.5327 85.1717 33.4288C85.3484 33.3543 85.3329 33.6188 85.1717 33.7515C85.0695 33.8577 85.0695 34.0549 85.2084 34.1616C85.3895 34.266 85.4356 34.0599 85.6412 34.1182C85.8473 34.1771 85.9929 34.6727 86.3595 34.7782C86.4595 34.8027 86.5229 34.7954 86.5462 34.7299C86.599 34.5821 86.4295 34.3799 86.4701 34.1993C86.5312 34.3099 86.6873 34.4254 86.8967 34.541C87.1517 34.6816 87.3001 34.716 87.2329 34.5021C87.1573 34.2599 87.1201 34.0943 87.1201 34.0943C87.0951 33.9121 87.2573 33.7716 87.3806 33.7716C87.4523 33.7716 87.5279 33.8349 87.5779 33.9177C87.739 34.2104 87.6617 34.3793 88.0301 34.4954C88.5801 35.6616 89.9995 37.1554 90.5656 37.6204C90.684 37.7177 90.8967 37.8382 91.0623 37.901C90.9367 37.7782 90.7362 37.601 90.6467 37.5154C89.1578 36.0882 88.2162 34.7682 88.2412 34.4871C88.6673 34.3093 88.7334 33.896 88.8573 33.9577C88.9195 33.9949 88.7229 34.3332 88.7579 34.5038C88.7784 34.6032 88.8779 34.7393 89.1467 34.7354C88.6645 35.2166 89.8912 35.6204 90.8006 35.5999C91.129 35.8043 91.7023 36.1499 92.3884 36.3071C92.3884 36.3071 92.4556 36.6349 92.6695 36.646C92.6695 36.646 93.1723 37.4243 93.8595 38.1621C94.5462 38.9015 95.3229 40.1004 95.9656 40.7349ZM90.659 39.9188C89.1906 38.3515 87.7329 35.9815 87.5384 35.9088C87.5384 35.9088 89.3479 38.6566 89.6767 39.1221C90.0056 39.5877 90.4529 40.0299 90.664 40.4049C90.7301 40.2954 90.8301 40.1015 90.659 39.9188ZM87.9934 25.9227C87.364 26.521 88.1079 28.0343 87.6817 28.6504C87.6356 28.7171 87.5867 28.7993 87.5534 28.8654C87.2145 28.7538 87.0095 28.7449 86.7223 28.7416C86.5523 28.7393 86.3501 28.7793 86.2134 28.791C85.8745 28.8199 85.6223 28.7871 85.3117 28.8532C85.3351 28.786 85.379 28.731 85.4401 28.6382C85.1506 28.6466 84.9312 28.5888 84.7701 28.3777C84.6667 28.2327 84.6462 28.056 84.6995 27.9104C84.7817 27.686 85.019 27.4766 85.1173 27.2693C85.1173 27.2693 85.284 27.0093 85.3445 26.6949C85.3734 26.7982 85.4223 26.9688 85.7045 27.0338C85.9673 27.0943 86.2545 26.996 86.7212 26.761C86.5079 27.0999 86.2045 27.3116 85.6379 27.4027C85.8334 27.4427 86.2045 27.3632 86.5851 27.1643C87.0467 26.9221 87.6295 26.1216 87.6295 26.1216C87.769 25.9982 88.0423 25.8827 87.9934 25.9227ZM87.2862 28.0388C87.1829 28.231 87.0556 28.3804 86.6462 28.3988C86.1251 28.4221 86.004 28.1149 86.004 28.1149C86.0362 28.2754 86.1484 28.6121 86.6501 28.5899C87.2884 28.5616 87.2862 28.0388 87.2862 28.0388ZM99.8501 24.3627C98.8873 25.1304 98.5906 26.2932 98.5323 26.6466C98.3728 27.6693 98.3384 28.8171 98.524 29.8227L99.0356 32.9993L99.1851 34.3899L99.2451 36.0154C99.3517 39.7688 97.5451 44.7977 91.3829 46.8188L89.8917 47.396C88.6345 47.9499 87.4029 48.5532 86.3301 49.5249C84.8379 48.1921 83.0784 47.4643 81.3017 46.7843C75.6451 44.9932 73.6612 40.216 73.5584 36.9293C73.509 35.8243 73.5506 34.6421 73.684 33.536L73.9195 31.8593L74.3129 29.5882C74.489 28.3054 74.4984 26.8816 74.0701 25.7088C73.8612 25.1727 73.4745 24.686 73.0062 24.2677C73.5234 23.5827 74.1212 22.7921 74.6556 22.0971C74.6645 22.1171 74.6729 22.136 74.6817 22.1566C74.6862 22.1671 74.6912 22.1782 74.6956 22.1882C74.7856 22.4371 74.8862 22.6288 74.9656 22.7604C75.0056 22.836 75.0473 22.9127 75.0934 22.9904L74.1962 24.1916C75.3029 25.4399 75.3612 27.2082 75.3106 28.8682L75.1773 29.8982L74.6906 32.8404L74.499 34.516L74.4395 36.0582C74.249 39.8243 77.1167 44.6482 82.3923 46.2321C83.7667 46.7843 85.0995 47.421 86.3312 48.3277C87.5634 47.4304 88.9123 46.8027 90.2951 46.2643C96.4001 44.5454 98.2479 39.8377 98.3223 36.7288C98.3906 35.5804 98.2895 34.4488 98.1717 33.3516L97.9373 31.7921L97.619 29.8482C97.4273 28.7688 97.4667 27.4538 97.6601 26.4066C97.9878 26.2627 98.3395 25.9438 98.554 25.2621L98.5856 25.1621C98.9423 24.9154 99.3806 24.5171 99.6712 24.1227C99.7129 24.1399 99.7595 24.2166 99.8501 24.3627ZM100.998 19.7671C100.575 20.7382 100.308 21.0193 99.6573 21.2471C99.6573 21.2471 97.5584 21.8904 97.0217 22.0966C96.399 22.3354 95.9117 22.5949 95.594 22.7771C94.4767 22.0966 92.4234 22.6038 91.9251 22.791C91.1217 23.0927 90.2984 23.5843 89.6156 24.0716C89.514 23.9716 89.3779 23.8082 89.2628 23.7999C89.2628 23.7999 89.6112 24.0116 89.5484 24.3788C89.6367 24.3538 89.9806 24.0949 90.2151 24.301C90.4506 24.5066 90.2101 24.7549 90.1278 24.9499C90.3801 24.7549 90.6506 24.6021 90.9256 24.7821C91.2312 24.9821 90.8867 25.3493 90.7851 25.5221C91.0117 25.4816 91.2456 25.3088 91.4067 25.5432C91.5679 25.7777 91.3256 25.8999 91.0967 26.0293C91.3162 26.0132 91.3323 26.1843 91.9606 26.2232C91.6684 26.251 91.3651 26.2832 91.1701 26.3004C91.029 26.2688 90.8612 26.1888 90.5812 26.1104C89.8556 25.9071 89.4229 25.6821 89.1373 25.5893C88.8517 25.4966 88.5162 25.4671 88.3012 25.5338C88.1856 25.536 88.184 25.5827 88.0851 25.5904C89.0456 25.2488 88.7584 24.0938 89.2145 23.3949C89.6779 22.5243 90.6456 22.3166 91.5073 22.1616C92.629 22.0071 94.3862 21.8371 94.9062 21.7304C95.844 21.5382 97.0123 21.156 97.2479 21.0449C97.5351 20.9099 98.7951 20.4643 99.2817 20.2871C99.7684 20.1099 100.421 19.8893 100.998 19.7671ZM101.061 20.9182C100.921 21.2827 100.441 22.1188 99.9151 22.3854C99.1923 22.7916 98.169 22.9627 97.3873 23.0504C96.7612 23.1404 96.2723 23.0199 96.0456 22.9482C96.0456 22.9482 95.8129 22.8738 95.7345 22.8149C96.9056 22.1843 98.3351 21.7577 99.8284 21.3566C100.657 21.0688 100.76 21.0382 101.061 20.9182ZM86.334 22.1877C86.0223 22.2277 85.6256 22.3021 85.389 22.7266C85.2784 22.6371 85.3156 22.4549 85.4395 22.2938C85.5295 22.1766 85.8529 22.0493 86.334 22.1877ZM99.9484 23.1721C99.8712 23.3321 99.7617 23.4993 99.5362 23.6749C99.0662 24.0716 96.8267 24.3949 95.9706 24.1093C96.879 23.7432 96.9734 23.4382 97.029 23.2066C97.7101 23.181 98.7306 23.1032 99.8723 22.606C100.005 22.5727 100.03 23.0038 99.9484 23.1721ZM95.0645 22.6782C95.3279 22.7666 95.729 22.9499 95.5429 23.0066C94.1123 23.2466 93.1729 23.6466 90.7034 24.5916C90.6195 24.5882 90.5162 24.6038 90.4334 24.6354C90.4612 24.5088 90.4501 24.3599 90.3067 24.2166C90.1912 24.101 90.0006 24.0427 89.7056 24.1504C90.429 23.6782 91.1717 23.2049 91.9884 22.9043C92.6406 22.6643 93.3423 22.5488 94.1001 22.5349C94.5629 22.5266 94.8334 22.6004 95.0645 22.6782ZM87.7106 22.7554C87.7317 22.8327 87.7156 23.041 87.5673 23.1188C87.2906 23.2477 87.1217 22.961 86.8945 22.896C86.4706 22.8304 85.9645 22.9038 85.5584 22.7977C85.6673 22.641 85.8495 22.4743 86.069 22.4004C86.3284 22.3193 86.8262 22.2088 87.179 22.3182C87.5234 22.4249 87.669 22.6149 87.7106 22.7554ZM88.049 22.901C88.049 22.966 88.0279 22.9871 87.9967 23.0349C87.9656 23.0827 87.8967 23.1554 87.7645 23.121C87.749 23.006 87.8145 22.8849 87.9195 22.8199C87.9762 22.8027 88.049 22.836 88.049 22.901ZM96.8812 23.2432C96.8373 23.4416 96.5456 23.6782 96.3173 23.8077C96.0623 23.9527 95.6984 24.0399 95.5751 24.2332C95.4117 24.3788 93.9951 24.7871 93.3273 24.9549C92.6595 25.1227 92.114 25.266 91.4734 25.3727C91.3534 25.2743 91.1712 25.2816 91.0556 25.3021C91.2212 24.9604 91.1567 24.7288 90.859 24.6404L94.099 23.4721C94.6956 23.3004 95.4429 23.0882 95.9412 23.0727C96.2667 23.151 96.4895 23.2432 96.8812 23.2432ZM87.0051 23.0966C87.2173 23.1621 87.6001 23.5454 87.6984 23.741C87.7306 23.8954 87.6662 24.0416 87.5679 24.156C87.4779 24.1888 87.3812 24.2866 87.349 24.3743C87.3645 24.2777 87.3401 24.1888 87.2829 24.1149C87.1929 24.0582 87.0979 23.9582 87.0573 23.8516C86.7195 23.8577 86.2212 23.8693 86.039 23.7027C86.0351 23.6366 86.0101 23.5788 85.944 23.4999C86.0512 23.4871 86.4473 23.5216 86.6606 23.5288C86.8745 23.5366 87.1679 23.5327 87.2251 23.6188C87.2251 23.6588 87.1856 23.6588 87.1601 23.6677C87.1356 23.6754 87.1034 23.6588 87.0879 23.6754C87.1529 23.7816 87.2829 23.8049 87.3967 23.7732C87.4623 23.741 87.4956 23.6754 87.454 23.5943C87.3912 23.471 87.2434 23.4493 87.0551 23.4238C86.8667 23.3977 85.8829 23.3832 85.8829 23.3832C85.7784 23.2688 85.5467 23.1038 85.3979 23.0293C85.3812 22.9566 85.4684 22.8932 85.5162 22.9177C85.9151 23.056 86.5667 23.0404 87.0051 23.0966ZM88.2956 23.1549C88.2806 23.2199 88.3206 23.2043 88.3773 23.2693C88.3773 23.3916 88.2956 23.4888 88.199 23.5454C88.1095 23.5943 87.9717 23.6266 87.8817 23.5538C87.8323 23.5221 87.7117 23.4888 87.7117 23.4888C87.7117 23.2771 87.964 23.171 88.1262 23.0982C88.1979 23.066 88.2723 23.0827 88.2956 23.1549ZM78.5562 23.321C79.494 23.4849 79.4473 24.3316 79.6784 24.6938C78.8873 24.7366 78.5384 24.7643 77.9306 24.6243C75.7801 24.1282 75.3712 23.1154 74.7929 21.7527C75.8351 22.6932 78.1179 23.2443 78.5562 23.321ZM99.4712 23.8871C98.999 24.546 98.1306 25.0971 97.794 25.2416C97.5501 25.3466 97.2312 25.4249 96.7079 25.3021C96.434 25.2388 96.1779 25.1216 95.9979 24.9777C95.6462 24.6966 95.6662 24.5043 95.6723 24.4054C95.6767 24.3377 95.7934 24.1888 95.9123 24.2271C97.2079 24.5566 99.0417 24.161 99.4712 23.8871ZM88.124 23.7121C88.1651 23.7043 88.1984 23.6793 88.2473 23.6882C88.3029 23.8749 88.0979 23.9338 87.9784 23.9643C87.889 23.9732 87.8395 23.8988 87.8073 23.8349C87.8073 23.7793 87.8084 23.7066 87.7679 23.661C87.769 23.6354 87.779 23.6116 87.8073 23.591C87.8817 23.696 87.9945 23.7532 88.124 23.7121ZM79.7529 24.8343C79.819 24.9227 79.9412 25.2232 80.389 25.5449C80.1384 25.6132 79.8684 25.6399 79.4779 25.6604C78.9484 25.6882 78.4706 25.6327 78.4706 25.6327C77.6873 25.5693 76.6895 24.6277 76.4417 24.2616C76.969 24.5388 77.6706 24.7582 78.2184 24.8254C78.7656 24.8916 79.2962 24.9021 79.7529 24.8343ZM82.3012 25.506C82.2962 25.5966 82.3129 25.7371 82.4806 25.8466C82.3684 25.8604 82.1201 25.8582 81.9879 25.9032C81.1684 25.8571 80.3467 25.6116 79.8817 24.8232C80.089 24.8227 80.2784 24.8093 80.5901 24.8766C81.0362 24.9732 81.7079 25.171 82.3012 25.506ZM96.7406 25.4632C96.7023 25.6288 96.3762 25.8771 96.0329 25.9277C96.0234 25.9299 95.9867 25.6654 95.6184 25.6899C95.4112 25.7038 95.4123 25.7327 95.2662 25.7654C95.3312 25.6754 95.3123 25.5427 95.2556 25.4443C95.239 25.4199 95.1967 25.3804 95.1634 25.3804C95.0667 25.3804 94.9651 25.4127 94.8434 25.4899C94.7195 25.5682 94.5945 25.5477 94.4962 25.5849C94.3228 25.6499 94.2045 25.7516 94.0745 25.9532C94.0373 25.9816 93.9851 25.9688 93.9006 25.9627C93.8212 25.9282 92.4362 26.1316 92.4362 26.1316C92.1773 26.1149 91.8217 26.1404 91.3701 26.0021C91.3701 26.0021 91.7445 25.816 91.5467 25.486C91.5467 25.486 93.4129 25.0782 94.1501 24.8721C94.8873 24.666 95.2851 24.5321 95.5334 24.411C95.4895 24.5821 95.6545 24.8838 95.9495 25.1154C96.1534 25.2754 96.5701 25.4299 96.7406 25.4632ZM98.3023 25.1004C97.8834 26.4327 96.6979 26.2643 96.2751 25.996C96.7117 25.8627 96.8967 25.4927 96.8967 25.4927C97.4912 25.541 97.889 25.4321 98.3023 25.1004ZM81.8695 25.9782C81.6917 26.0777 81.7379 26.216 81.7773 26.3082C81.8334 26.4388 81.9806 26.5093 81.9806 26.5093C81.8973 26.5604 81.799 26.6604 81.7245 26.7677C81.5345 26.6666 81.2662 26.5193 81.0323 26.441C80.5967 26.1871 80.1806 26.036 79.7284 26.0671C79.5973 26.076 79.3101 26.1782 79.2162 26.2171C78.909 26.1638 78.4467 25.9004 78.3234 25.7538C78.8884 25.8316 79.2551 25.8116 79.5823 25.7893C80.1423 25.7482 80.5079 25.6532 80.5079 25.6532C80.9712 25.8349 81.3017 25.9843 81.8695 25.9782ZM88.1662 29.4032C88.0184 29.4116 88.1129 29.4743 87.7951 29.7182C87.7301 29.7671 87.5001 29.7993 87.3051 29.7793C87.359 29.6788 87.4417 29.5893 87.3317 29.366C87.219 29.136 87.0434 29.0782 86.9606 29.0765C87.0895 29.171 87.1906 29.2893 87.2506 29.4277C87.2984 29.5388 87.2623 29.6699 87.1645 29.7671C87.0612 29.7921 86.9384 29.8593 86.8517 29.9377C86.9295 29.6449 86.6717 29.2127 86.4573 29.1516C86.6479 29.4071 86.8145 29.5854 86.7095 30.0277C86.6434 30.1766 86.0512 30.5838 85.8717 30.436C85.5834 30.181 85.8195 29.9771 85.7129 29.6927C85.689 29.6432 85.6717 29.5727 85.6301 29.5899C85.7112 29.866 85.5917 29.986 85.6134 30.2721C85.4151 30.3427 85.3084 30.3827 85.1673 30.3549C85.1017 30.2732 85.0517 30.1399 85.0945 29.9277C85.1373 29.7154 85.3034 29.4377 85.4834 29.2166C85.4834 29.2166 85.3912 29.2482 85.3056 29.3277C85.049 29.5649 84.9162 29.8749 84.9356 30.0949C84.9445 30.1966 84.9562 30.2832 85.0312 30.3588C84.9779 30.3599 84.7062 30.3454 84.6273 30.1843C84.4723 29.8671 84.6995 29.5732 84.8695 29.3621C85.009 29.1888 85.2384 29.0854 85.2384 29.0854C85.5962 28.9149 86.1145 28.9816 86.4751 28.9266C86.8362 28.8716 87.1395 28.9277 87.4417 29.0232C87.744 29.1188 87.9384 29.2416 88.1662 29.4032ZM93.6845 35.6999C93.7273 35.9365 93.4212 36.0982 93.1856 36.1321L93.1112 36.1393C93.1184 35.916 93.074 35.4916 93.3056 35.4493C93.5379 35.4071 93.6406 35.5193 93.6845 35.6999ZM90.014 33.1127C90.6767 33.9232 91.2951 34.3504 91.4251 34.441C91.4251 34.441 90.5184 33.5927 90.3367 33.2615C91.8667 34.4527 93.0606 34.9249 93.6295 35.331C93.4179 35.2832 93.1567 35.2588 93.0284 35.4299C92.9001 35.601 92.9984 35.8649 92.9179 36.1171C92.874 36.3077 92.7445 36.3399 92.679 36.3399C92.5651 35.6232 91.9956 35.511 91.9956 35.511C92.139 35.6815 92.3212 35.8471 92.3623 36.1032C91.8284 36.0093 90.8195 35.3916 90.8201 35.3832C90.2912 35.4127 89.6495 35.3504 89.3129 35.1315C88.929 34.8804 89.729 34.8393 89.4012 34.5777C89.2562 34.4621 89.089 34.5871 88.9667 34.4038C88.884 34.2799 89.1901 34.011 89.0579 33.7504C88.9745 33.586 88.8134 33.591 88.6756 33.7232C88.5351 33.8549 88.4545 34.3788 88.0451 34.2754C87.8051 34.2149 87.8795 33.8082 87.6234 33.6182C87.4562 33.4943 87.2251 33.4938 87.0856 33.6388C86.9145 33.8171 86.9534 34.0588 86.9534 34.0588C86.4673 33.0921 86.9367 31.0388 86.9367 31.0388C86.4229 32.3738 86.4273 33.5266 86.8206 34.2299C86.6951 34.1682 86.4895 33.9677 86.4379 33.8493C86.3284 33.6004 86.1673 33.2538 86.209 32.9149C85.9029 33.4527 86.4929 34.4293 86.2584 34.4243C86.064 34.4204 86.0667 34.0399 85.824 33.9116C85.574 33.7793 85.4829 34.0016 85.3817 33.9154C85.2695 33.8204 85.7995 33.4438 85.3362 33.1793C85.0856 33.036 84.9729 33.3032 84.7679 33.186C84.5623 33.0682 84.2979 33.1216 84.2979 33.1216C84.209 32.6516 84.799 30.5327 84.799 30.5327C85.1512 30.7088 85.6456 30.4221 85.6456 30.4221C85.9106 30.9204 86.4412 30.5132 86.6734 30.3199C86.849 30.1732 86.9045 30.0493 87.1106 29.9582C87.334 29.8588 87.5945 29.9993 87.8229 29.9004C88.0679 29.7938 88.1251 29.646 88.1251 29.646C88.4417 29.9232 88.819 30.931 88.9701 31.2749C89.489 32.451 90.014 33.1127 90.014 33.1127ZM85.1973 25.7366C84.6762 25.6538 84.2256 25.8871 83.8245 26.4166C83.3006 26.5777 82.984 26.7721 82.5767 27.1866C82.2873 27.0871 81.9567 26.9043 81.859 26.8443C81.9195 26.6938 82.0273 26.5721 82.1701 26.5088C82.0379 26.426 81.8079 26.3127 81.849 26.1638C81.9267 25.8827 82.2901 26.0477 82.6923 25.8843C82.5312 25.806 82.3406 25.6838 82.419 25.4538C82.4962 25.2238 82.8529 25.2604 83.1384 25.3304C82.9812 25.1777 82.9462 24.9188 83.1145 24.8077C83.2834 24.6977 83.6512 24.736 83.6512 24.736C83.6595 24.5399 83.8045 24.401 83.9123 24.2471C83.7412 24.2871 83.6423 24.5021 83.5851 24.6316C83.0595 24.5877 82.8217 24.8449 82.9417 25.1754C82.6895 25.126 82.4306 25.1693 82.3317 25.3843C81.6895 25.0021 80.7306 24.7254 80.049 24.6871C79.9473 24.6816 79.9051 24.6827 79.814 24.6704C79.739 24.5877 79.6667 24.3804 79.6445 24.2971C79.5684 24.0082 79.4273 23.5993 79.1273 23.4549C79.7551 23.5399 81.4429 23.8649 82.4979 24.3038C81.7245 23.7327 79.6317 23.4449 78.3573 23.1477C77.4034 22.9249 76.1029 22.5166 75.294 21.9443C74.8362 21.621 74.5706 21.2432 74.5267 20.8221C75.1067 21.0282 75.6029 21.136 76.2684 21.2716C76.719 21.3632 77.084 21.4243 77.7262 21.561C78.3245 21.6888 79.1962 21.946 79.1962 21.946C80.5545 22.3371 82.0745 22.0849 83.4079 22.5393C84.0067 22.7699 83.9779 23.4988 84.0667 24.0527L84.2101 24.1954C84.2095 24.966 84.5795 25.2727 85.1973 25.7366ZM89.5301 33.0788C90.1751 33.8877 90.2206 33.8899 90.7829 34.4521C90.4767 34.3032 89.8167 33.6877 89.4567 33.2416C88.9051 32.5582 88.6484 31.9582 88.5551 31.3227C88.5556 31.3227 88.8851 32.2699 89.5301 33.0788ZM82.5412 23.2104C81.7623 22.7943 80.6467 22.8316 80.0151 22.6677C79.374 22.501 79.2917 22.4604 79.2917 22.4604C79.5412 22.5027 79.7723 22.5754 80.0406 22.6088C80.8934 22.7149 81.8345 22.7577 82.5479 23.0599C82.9517 23.231 83.1679 23.6399 83.2662 24.0743C83.1001 23.7388 82.864 23.3827 82.5412 23.2104Z" fill="#094183"/>
<path d="M67.5723 40.8972L67.4195 40.8977L67.4573 41.0461C67.8184 42.4588 67.4362 43.8316 66.4362 44.7183L66.1206 44.9983L66.5362 44.9255C66.8551 44.87 67.2773 44.81 67.72 44.8444C68.7623 44.91 69.4973 45.1238 70.0978 45.5272C70.0656 45.6855 69.4701 48.6316 69.4701 48.6316C69.4595 48.6783 69.4545 48.7244 69.4545 48.7683C69.4545 48.9666 69.5523 49.1394 69.6539 49.2855L69.6595 49.2933L69.6656 49.3C70.1228 49.7811 70.705 49.9411 71.2673 50.0966L71.3145 50.1094C73.7723 50.6827 76.3667 50.1722 78.6217 48.6733L79.8362 47.8805L80.37 47.5511L81.0128 47.1566C82.2506 46.4227 83.2701 46.0233 84.42 45.8227C86.7995 45.4044 89.3484 45.9111 91.24 47.1783C91.2473 47.1827 91.4873 47.3227 91.4873 47.3227C91.4812 47.3194 93.0828 48.3688 93.0828 48.3688C93.0834 48.3705 94.0762 48.9977 94.0762 48.9977C96.2745 50.3788 99.1223 50.7888 101.508 50.0672C101.911 49.9327 102.745 49.655 102.863 48.9233L102.867 48.9022C102.867 48.9022 102.265 45.7733 102.239 45.6394C102.241 45.6388 102.327 45.5761 102.327 45.5761L102.299 45.5972C103.304 45.0355 104.62 44.8394 105.819 45.0738L106.253 45.1588L105.921 44.8666C104.919 43.9861 104.544 42.6111 104.917 41.1877L104.956 41.0394L104.803 41.0377C103.28 41.0211 101.861 41.2316 100.583 41.6644C99.9489 41.9083 98.9967 42.2744 98.7162 43.135L98.7106 43.1522L98.6773 45.6477C98.6773 45.6488 98.6723 46.3466 98.6706 46.6311C97.1878 46.6 95.9606 45.8566 94.925 45.1538C94.9256 45.1544 94.5634 44.9038 94.5634 44.9038C94.5612 44.9016 93.0812 43.9344 93.0812 43.9344C91.3262 42.8466 89.5867 42.2 87.765 41.9544C84.6456 41.5466 81.5295 42.3077 78.7517 44.1561C78.7506 44.1566 77.3562 45.105 77.3562 45.105C76.2606 45.8255 75.0684 46.5261 73.6212 46.5427C73.6228 46.3566 73.6378 43.2388 73.6378 43.2388C73.6295 42.7416 73.2484 42.2816 72.5023 41.8694C71.1345 41.2055 69.5234 40.8877 67.5723 40.8972Z" fill="#094183"/>
<path d="M72.1486 44.4898C72.5464 44.3754 72.9541 44.2493 73.2853 43.9387C73.2847 44.1076 73.278 46.4576 73.278 46.5421C72.4125 46.5182 71.4386 46.4004 70.7069 45.7426C70.7064 45.7409 70.6758 45.7009 70.6758 45.7009C70.5947 45.5965 70.5264 45.5087 70.5264 45.3998C70.5264 45.3609 70.5353 45.3187 70.5558 45.2737C70.768 44.8798 71.1886 44.7648 71.5941 44.6537L71.9247 44.5559C71.9236 44.5559 72.1486 44.4898 72.1486 44.4898Z" fill="white"/>
<path d="M99.0294 44.0759C99.4266 44.4237 99.9155 44.5693 100.392 44.7037C100.812 44.8209 101.245 44.9432 101.603 45.2082C101.713 45.3059 101.764 45.3909 101.764 45.4798C101.764 45.5193 101.754 45.5587 101.735 45.6009C101.504 46.0398 100.967 46.2576 100.583 46.3832C100.073 46.5259 99.5627 46.5987 99.0288 46.6087C99.0294 46.5232 99.0294 44.2332 99.0294 44.0759Z" fill="white"/>
<path d="M67.9205 42.0709C67.9205 41.7937 67.8894 41.512 67.8361 41.2292C69.3188 41.2887 71.0249 41.4598 72.5061 42.2604C72.8761 42.4965 73.2949 42.8215 73.2949 43.2526C73.2949 43.2642 73.2949 43.2754 73.2944 43.2865C73.2249 43.8381 72.6672 44.0065 72.1755 44.1548L71.5344 44.3515C71.0111 44.497 70.4755 44.6548 70.2344 45.197C69.3911 44.6904 68.3316 44.4576 67.0811 44.5048C67.6233 43.8587 67.9205 42.9954 67.9205 42.0709Z" fill="white"/>
<path d="M101.145 44.5719L101.093 44.5519L100.471 44.3641C99.9647 44.2297 99.4864 44.1025 99.1281 43.7041C99.0625 43.6097 99.0342 43.488 99.0342 43.3669C99.0342 43.258 99.057 43.1514 99.0947 43.0658C99.5608 42.3491 100.358 42.0986 101.128 41.8569L101.33 41.7925C102.276 41.5353 103.326 41.398 104.533 41.3691C104.479 41.6747 104.448 41.9736 104.448 42.2608C104.448 43.193 104.73 44.013 105.261 44.6453C104.036 44.5969 102.973 44.8241 102.096 45.3191C101.953 44.888 101.509 44.7108 101.145 44.5719Z" fill="white"/>
<path d="M77.1509 45.6538L79.3059 44.266C81.9165 42.606 84.7248 41.9493 87.6515 42.3154C89.3398 42.5338 90.9504 43.1071 92.5732 44.0677L93.9598 44.9354L95.3787 45.8593C96.7398 46.7843 98.3965 47.1538 100.043 46.8988C100.707 46.7527 101.449 46.5793 101.949 45.976C101.979 46.126 102.519 48.9204 102.519 48.9204C102.439 49.3082 102.014 49.4982 101.673 49.6504L101.586 49.6893C99.1137 50.5104 96.1132 50.0188 93.7587 48.4049C93.7582 48.4043 91.6204 47.0004 91.6204 47.0004C89.397 45.566 86.7376 45.0504 84.1304 45.5482C82.852 45.7927 81.6009 46.3299 80.1915 47.2393L78.2187 48.5193C76.2893 49.7532 74.027 50.2321 71.8493 49.8677C71.182 49.7388 70.4915 49.6066 69.9637 49.1188C69.8559 49.0021 69.8009 48.8977 69.7876 48.7821C69.7893 48.7821 70.3015 46.2277 70.3748 45.8621C71.0926 46.6532 72.1298 46.826 73.1532 46.8816C74.477 46.9477 75.747 46.5566 77.1509 45.6538Z" fill="white"/>
<path d="M71.6081 47.3917L70.8426 47.2789C70.8231 47.2933 70.8164 47.3372 70.8164 47.3372C70.8898 47.375 70.8937 47.3917 70.8881 47.4339L70.6764 48.8628C70.6703 48.9045 70.6626 48.9189 70.5992 48.9172C70.5809 48.9328 70.5742 48.9783 70.5742 48.9783C70.5887 48.9983 71.0759 49.07 71.0759 49.07L71.0931 49.0733L71.1031 49.01C71.0437 48.9806 71.0303 48.9645 71.0303 48.9378C71.0303 48.9306 71.0309 48.9233 71.032 48.915C71.032 48.915 71.1159 48.3506 71.1159 48.3461C71.1176 48.3622 71.4576 48.4128 71.4576 48.4128C71.8976 48.4783 72.0931 48.2372 72.1309 47.9906C72.167 47.7433 72.0492 47.4561 71.6081 47.3917ZM71.4459 48.1C71.4459 48.1 71.1453 48.0556 71.1426 48.0556C71.1587 48.0539 71.2131 47.6928 71.2203 47.6439C71.2514 47.6489 71.507 47.6867 71.507 47.6867C71.6359 47.705 71.7126 47.7378 71.7503 47.7883L71.7759 47.9383C71.7537 48.0889 71.6637 48.1328 71.4459 48.1ZM73.0776 47.5667C72.8609 47.56 72.6703 47.6272 72.5259 47.7628C72.3609 47.9178 72.2642 48.1545 72.2553 48.4283C72.2376 48.9589 72.5448 49.3256 73.0192 49.3417C73.2359 49.3489 73.4259 49.2811 73.5703 49.1461C73.7364 48.9911 73.8326 48.755 73.8414 48.4806C73.8503 48.2061 73.7698 47.9639 73.6142 47.7978C73.4792 47.6539 73.2937 47.5745 73.0776 47.5667ZM73.3198 48.9344C73.2453 49.005 73.147 49.0383 73.0292 49.0345C72.7492 49.0256 72.602 48.8139 72.6137 48.44C72.6203 48.2278 72.6776 48.0661 72.7787 47.9728C72.852 47.9033 72.9498 47.87 73.067 47.8745C73.1848 47.8783 73.2803 47.9178 73.3498 47.9922C73.4437 48.0928 73.4898 48.2578 73.4831 48.4683C73.477 48.6789 73.4203 48.8406 73.3198 48.9344ZM74.8426 48.0761C74.637 48.0745 74.4603 48.0728 74.4331 47.9467C74.4092 47.8311 74.4792 47.7489 74.6309 47.7167C74.8864 47.6628 75.0392 47.745 75.052 47.805L75.0581 47.8439C75.0742 47.8733 75.1231 47.8828 75.1231 47.8828C75.1431 47.8717 75.2948 47.4294 75.2948 47.4294L75.3153 47.3689L75.2337 47.4072L75.1803 47.4522L75.0976 47.4406L75.002 47.4217C74.8803 47.3994 74.7453 47.4045 74.6003 47.4345C74.1459 47.5322 74.042 47.835 74.0909 48.065C74.1648 48.4133 74.5203 48.4178 74.8059 48.4206C75.0242 48.4233 75.2126 48.4256 75.242 48.5622C75.242 48.5633 75.2198 48.7178 75.2198 48.7178C75.1753 48.7867 75.0742 48.8383 74.9192 48.8717C74.7842 48.8995 74.5848 48.8939 74.4964 48.8356L74.4553 48.7833L74.4448 48.7411L74.3964 48.7311C74.3753 48.7439 74.2681 49.1767 74.2681 49.1767C74.2681 49.1767 74.2792 49.1789 74.2853 49.18V49.1811L74.3203 49.1945C74.3226 49.19 74.3248 49.1906 74.327 49.1867C74.3326 49.1872 74.3437 49.1889 74.3437 49.1889C74.3542 49.1689 74.3609 49.1578 74.3687 49.1567C74.3692 49.1561 74.4709 49.1661 74.4709 49.1661L74.5703 49.1845C74.5709 49.1845 74.9648 49.1756 74.9648 49.1756C75.4731 49.0678 75.6453 48.7372 75.5898 48.4756C75.5076 48.0817 75.1381 48.0789 74.8426 48.0761ZM76.8664 48.3567C76.8664 48.3567 76.3298 47.1817 76.327 47.1756C76.3348 47.1889 76.6714 47.0367 76.6714 47.0367C76.737 47.0067 76.7526 47.0089 76.7803 47.0522C76.802 47.0583 76.8437 47.0395 76.8437 47.0395C76.8526 47.0167 76.6848 46.6483 76.6848 46.6483C76.6614 46.6395 76.6198 46.6583 76.6198 46.6583C76.6176 46.7133 76.6103 46.7272 76.5442 46.7578L75.5437 47.2128C75.4731 47.245 75.4598 47.2383 75.4403 47.2111C75.4192 47.2056 75.3781 47.2245 75.3781 47.2245C75.3692 47.2472 75.5364 47.6161 75.5364 47.6161C75.5592 47.625 75.6014 47.6061 75.6014 47.6061C75.6009 47.5961 75.5998 47.5872 75.5998 47.5795C75.5998 47.5311 75.6142 47.5172 75.6698 47.4922C75.6698 47.4922 76.0214 47.3317 76.0226 47.3317C76.0226 47.3317 76.0226 47.3317 76.0226 47.3328C76.0226 47.3722 76.5376 48.5061 76.5376 48.5061C76.5453 48.5228 76.5498 48.5356 76.5498 48.5461C76.5498 48.5628 76.5398 48.5733 76.5203 48.5878C76.5198 48.59 76.5192 48.5939 76.5192 48.5967C76.5192 48.6195 76.5331 48.6511 76.5331 48.6511C76.557 48.66 76.9803 48.4667 76.9803 48.4667L76.9964 48.4589L76.9692 48.4017C76.8976 48.4061 76.8848 48.3972 76.8664 48.3567ZM78.6548 47.0228C78.6553 47.0333 78.6564 47.0428 78.6564 47.0506C78.6564 47.0817 78.6448 47.0978 78.5937 47.1306C78.5937 47.1306 77.9726 47.5322 77.9698 47.5339C77.9698 47.5339 77.9703 47.5339 77.9703 47.5322C77.9703 47.5067 77.7764 47.2056 77.7503 47.1639C77.777 47.1467 78.0826 46.9478 78.0826 46.9478C78.147 46.9067 78.1614 46.91 78.182 46.9294C78.2037 46.9311 78.2414 46.9067 78.2414 46.9067C78.2464 46.8817 78.0392 46.5617 78.0392 46.5617C78.0142 46.5567 77.977 46.5817 77.977 46.5817C77.9787 46.5928 77.9792 46.6017 77.9792 46.6095C77.9792 46.6417 77.9659 46.6578 77.9164 46.6894C77.9164 46.6894 77.5709 46.9117 77.5687 46.9133C77.5703 46.9128 77.5703 46.9128 77.5703 46.9117C77.5703 46.8839 77.3659 46.5689 77.3648 46.5672C77.3748 46.5811 77.9459 46.2117 77.9459 46.2117C78.0109 46.1689 78.0248 46.1728 78.0448 46.1922C78.0659 46.195 78.1053 46.17 78.1053 46.17C78.1103 46.1456 77.9026 45.8256 77.9026 45.8256C77.8776 45.8195 77.8398 45.8445 77.8398 45.8445C77.8453 45.8967 77.8442 45.9122 77.7803 45.9533L76.8281 46.5683C76.8226 46.5933 76.847 46.6306 76.847 46.6306C76.9542 46.5933 76.9642 46.6089 76.9864 46.6411L77.7692 47.8528C77.792 47.8883 77.797 47.9028 77.7314 47.9572C77.7281 47.9806 77.7526 48.0178 77.7526 48.0178C77.777 48.0233 78.7614 47.3872 78.7614 47.3872C78.8264 47.3456 78.8398 47.35 78.8609 47.3739C78.8837 47.3772 78.9231 47.3522 78.9231 47.3522C78.9281 47.3278 78.717 47.0017 78.717 47.0017C78.692 46.9978 78.6548 47.0228 78.6548 47.0228ZM80.1109 46.2478L80.0553 46.2139L79.5781 45.9389C79.5831 45.9333 79.5853 45.9272 79.5898 45.9217C79.7526 45.7717 79.7676 45.5572 79.6276 45.3395C79.4631 45.0856 79.1726 45.0506 78.8687 45.2472L78.1903 45.6861C78.1842 45.7106 78.2076 45.7483 78.2076 45.7483C78.2814 45.7322 78.2953 45.7395 78.3192 45.7761L79.1042 46.9883C79.1292 47.0278 79.127 47.0422 79.092 47.0744C79.0898 47.0972 79.1148 47.1356 79.1148 47.1356C79.1387 47.1411 79.5342 46.885 79.5342 46.885L79.5498 46.875L79.5148 46.8217C79.4431 46.8378 79.4298 46.8311 79.4053 46.7928C79.4053 46.7928 79.0942 46.3156 79.092 46.3106C79.1026 46.3228 79.332 46.175 79.3326 46.1744C79.3326 46.185 79.822 46.4633 79.822 46.4633L79.9031 46.5211C79.9042 46.5222 79.9053 46.525 79.9053 46.5289C79.9053 46.5367 79.9003 46.5489 79.8748 46.5689V46.5744C79.8748 46.5972 79.8959 46.6306 79.8959 46.6306C79.9203 46.6356 80.3231 46.3745 80.3231 46.3745C80.3281 46.3495 80.3031 46.3128 80.3031 46.3128C80.2403 46.3256 80.2103 46.3078 80.1109 46.2478ZM79.232 45.875C79.2314 45.875 78.9231 46.0756 78.9203 46.0772C78.9209 46.0767 78.9209 46.0767 78.9209 46.0756C78.9209 46.0495 78.7342 45.7572 78.7076 45.7172C78.7342 45.6995 79.0042 45.5233 79.0042 45.5233C79.1542 45.4278 79.2637 45.4383 79.3398 45.5561C79.3403 45.5561 79.3759 45.7039 79.3759 45.7039C79.3637 45.7639 79.3153 45.8206 79.232 45.875ZM83.3342 44.4383C83.3148 44.4378 83.2803 44.4611 83.2803 44.4611C83.2759 44.4867 83.3053 44.5417 83.3053 44.5417C83.3059 44.5422 83.2881 44.6517 83.2881 44.6517C83.2453 44.7328 83.1537 44.8044 83.0537 44.8356C82.9387 44.8694 82.8231 44.8594 82.7198 44.8044C82.592 44.7361 82.4937 44.6039 82.4414 44.4306C82.3764 44.2189 82.3759 44.05 82.4409 43.9289C82.4931 43.83 82.5864 43.7617 82.7276 43.7189C82.8803 43.6717 83.0481 43.7217 83.0787 43.8228L83.082 43.8339L83.1003 43.8678L83.1314 43.87C83.1509 43.8567 83.2426 43.4222 83.2426 43.4222L83.2526 43.3722L83.1903 43.3961L83.1392 43.4389C83.1387 43.4394 83.0664 43.4261 83.0664 43.4261L82.982 43.4056C82.8653 43.3822 82.7509 43.3889 82.6309 43.4256C82.2342 43.5467 81.9159 43.9367 82.0981 44.535C82.2481 45.0261 82.6653 45.2733 83.1131 45.1367C83.3992 45.05 83.4992 44.9 83.5598 44.8106L83.6142 44.7478C83.6259 44.7439 83.642 44.7495 83.6614 44.7606C83.687 44.7528 83.702 44.7167 83.702 44.7167C83.697 44.6956 83.3342 44.4383 83.3342 44.4383ZM85.0898 44.5095L85.0548 44.4578C85.0548 44.4578 84.7426 44.0133 84.7376 44.0056C84.7448 44.0022 84.7503 43.9978 84.757 43.9944C84.9681 43.9267 85.0698 43.74 85.0342 43.4844C84.9926 43.1856 84.7431 43.0306 84.3837 43.08L83.5826 43.1939C83.5681 43.2133 83.5742 43.2589 83.5742 43.2589C83.647 43.2745 83.6564 43.2867 83.6626 43.3311L83.8648 44.7594C83.8698 44.8061 83.8626 44.8189 83.8176 44.8339C83.8064 44.8528 83.812 44.8978 83.812 44.8978C83.832 44.9128 84.2998 44.8467 84.2998 44.8467L84.317 44.8444L84.3092 44.7833C84.2353 44.7661 84.2253 44.7533 84.2209 44.7111C84.2209 44.7111 84.1409 44.1472 84.1398 44.1422C84.1431 44.1583 84.4153 44.1195 84.4159 44.1195C84.4159 44.135 84.7381 44.5867 84.7381 44.5867L84.787 44.6728V44.6761C84.787 44.6833 84.782 44.6956 84.7426 44.7044C84.7353 44.715 84.7337 44.7322 84.7337 44.7461C84.7337 44.7589 84.7353 44.7683 84.7353 44.7683C84.7548 44.7839 85.2287 44.7172 85.2287 44.7172C85.2437 44.6972 85.2376 44.6522 85.2376 44.6522C85.1753 44.635 85.1542 44.6072 85.0898 44.5095ZM84.6526 43.7089C84.6164 43.7578 84.5481 43.7889 84.4498 43.8028C84.4498 43.8028 84.0859 43.8544 84.0837 43.855C84.0853 43.8544 84.0859 43.8489 84.0859 43.8378C84.0859 43.7628 84.0476 43.485 84.0414 43.4389C84.0726 43.4344 84.3914 43.3894 84.3914 43.3894C84.5687 43.365 84.6631 43.4206 84.6826 43.56L84.6526 43.7089ZM86.5759 44.3972H85.8314C85.8314 44.3972 85.847 43.9995 85.8481 43.9661C85.8792 43.9661 86.2459 43.9661 86.2459 43.9661C86.3226 43.9661 86.3331 43.9778 86.3381 44.0039L86.4009 44.0178L86.4192 43.6183L86.3559 43.6011C86.3331 43.6472 86.3237 43.6594 86.2464 43.6594H85.832L85.8492 43.255L86.5314 43.2728C86.6076 43.2728 86.617 43.2833 86.6226 43.3111L86.6859 43.325L86.7031 42.9244L86.6403 42.9072C86.6164 42.9539 86.607 42.9656 86.5309 42.9656H85.3964L85.3787 43.0289C85.4898 43.0561 85.4898 43.0739 85.4898 43.1128V44.5572C85.4898 44.5994 85.4853 44.6145 85.4003 44.625L85.3848 44.6872L86.5759 44.705C86.6531 44.705 86.662 44.7167 86.6681 44.7483L86.7309 44.7628L86.7492 44.3572L86.6859 44.34C86.662 44.3861 86.6537 44.3972 86.5759 44.3972ZM88.0564 43.6522C88.0798 43.6478 88.3703 43.2833 88.3703 43.2833L88.3564 43.2728V43.2722L88.3548 43.2706L88.3198 43.2428C88.2998 43.2611 88.2831 43.2706 88.2553 43.2667L88.1809 43.2278L88.097 43.1778C87.9892 43.1167 87.8609 43.0761 87.7164 43.0567C87.257 42.9956 87.057 43.245 87.0253 43.4772C86.9781 43.8311 87.3114 43.9533 87.5792 44.0522C87.7837 44.1278 87.9598 44.1922 87.9414 44.3311L87.8681 44.47C87.8031 44.52 87.6898 44.5345 87.5331 44.5139C87.3981 44.4956 87.2131 44.4239 87.1492 44.3395L87.1276 44.275L87.132 44.2328L87.0892 44.2078C87.0653 44.2128 86.8192 44.5844 86.8192 44.5844L86.8103 44.5978L86.8542 44.6311C86.8814 44.6261 86.9231 44.5967 86.9237 44.5967C86.9237 44.5972 87.012 44.64 87.012 44.64L87.1014 44.6917C87.102 44.6917 87.477 44.8156 87.477 44.8156C87.8037 44.8589 87.9992 44.7722 88.1059 44.6906C88.212 44.6089 88.2814 44.4939 88.2981 44.3667C88.3509 43.9678 88.0048 43.8417 87.7264 43.7394C87.5348 43.6689 87.3698 43.6078 87.3864 43.4806L87.4476 43.3672C87.4942 43.3322 87.562 43.32 87.6492 43.3322C87.8781 43.3633 87.9681 43.4606 87.9909 43.49L88.0159 43.5561C88.0098 43.5889 88.0053 43.61 88.0053 43.61C88.0148 43.6272 88.0564 43.6522 88.0564 43.6522ZM89.6737 45.1033C89.7003 45.1111 89.732 45.09 89.732 45.09C89.7392 45.0683 89.5698 44.6567 89.5698 44.6567C89.5526 44.6456 89.5126 44.6478 89.5126 44.6478C89.4959 44.6678 89.4914 44.7289 89.4914 44.7289C89.4914 44.7306 89.4153 44.8145 89.4153 44.8145C89.3353 44.86 89.2237 44.8711 89.1237 44.8422C88.8576 44.77 88.7342 44.495 88.8214 44.175C88.8792 43.9611 88.9698 43.8178 89.0892 43.7506C89.1848 43.6961 89.3037 43.6878 89.4414 43.7261C89.5364 43.7522 89.6214 43.8133 89.6637 43.8872L89.6853 44.0083L89.6781 44.0511L89.7031 44.0706C89.727 44.0695 90.0337 43.7517 90.0337 43.7517L90.0692 43.7156L90.0059 43.7028L89.9403 43.7117L89.8881 43.6645L89.8242 43.5995C89.7398 43.5178 89.6392 43.4622 89.517 43.4289C89.2981 43.3678 89.0759 43.3922 88.892 43.4972C88.6926 43.6106 88.5487 43.8128 88.4753 44.0806C88.3403 44.575 88.5609 45.0067 89.0109 45.13C89.2992 45.2083 89.4642 45.135 89.562 45.0922L89.6409 45.0683C89.6531 45.0717 89.6648 45.0845 89.6737 45.1033ZM91.0342 45.7139L91.1364 44.2533L91.1476 44.1639C91.1526 44.1528 91.1614 44.1306 91.2098 44.1483C91.232 44.1389 91.2498 44.0967 91.2498 44.0967C91.2398 44.0739 90.7431 43.8628 90.7431 43.8628C90.7203 43.8722 90.7031 43.9144 90.7031 43.9144C90.7476 43.9528 90.7542 43.9672 90.7542 43.9739C90.7542 43.9756 90.7537 43.9772 90.7537 43.9778L90.6876 44.06C90.6853 44.0617 89.7098 45.1517 89.7098 45.1517C89.6859 45.1772 89.6626 45.2 89.6359 45.1917C89.6142 45.2022 89.5976 45.2433 89.5976 45.2433C89.6076 45.2661 89.9998 45.4328 89.9998 45.4328L90.0159 45.4395L90.0403 45.3822C90.0037 45.3517 89.9948 45.3294 89.9948 45.315C89.9948 45.3072 89.997 45.3017 89.9981 45.2989L90.0287 45.2561C90.0309 45.255 90.2164 45.0445 90.217 45.0428C90.2176 45.055 90.7298 45.2728 90.7326 45.2739C90.722 45.275 90.7026 45.5717 90.7026 45.5717C90.702 45.5733 90.6942 45.6217 90.6942 45.6217C90.6914 45.6267 90.6892 45.6322 90.6476 45.6211C90.6276 45.6311 90.6092 45.6728 90.6092 45.6728C90.6181 45.6956 91.0237 45.8678 91.0237 45.8678C91.0464 45.8583 91.0653 45.8167 91.0653 45.8167C91.0359 45.7811 91.0292 45.7739 91.0342 45.7139ZM90.8259 44.3517C90.7964 44.4795 90.7464 44.9933 90.7448 45.0145L90.7309 45.0083C90.6931 44.9756 90.447 44.8689 90.3942 44.8461C90.4214 44.815 90.7803 44.3889 90.8276 44.3333L90.8259 44.3517ZM92.6242 46.7011L93.4103 45.4439C93.4248 45.42 93.4414 45.4106 93.4809 45.4322C93.5042 45.4261 93.5292 45.3878 93.5292 45.3878C93.5231 45.3639 93.0431 45.0633 93.0431 45.0633C93.0187 45.0689 92.9942 45.1078 92.9942 45.1078C93.0103 45.1372 93.0159 45.1522 93.0159 45.1622C93.0159 45.1689 93.0137 45.1728 93.0103 45.1783C92.9959 45.1995 92.8248 45.32 92.6431 45.4467C92.6431 45.4467 92.2514 45.725 92.1909 45.7678C92.1926 45.7606 92.1942 45.7517 92.1953 45.7433C92.2287 45.6472 92.2792 45.3633 92.2792 45.3633C92.3181 45.1311 92.3703 44.8122 92.3864 44.785C92.3914 44.7772 92.3992 44.7706 92.4348 44.7772C92.4531 44.7694 92.4764 44.7317 92.4764 44.7317C92.4709 44.7078 91.9859 44.4028 91.9859 44.4028C91.9609 44.4083 91.9376 44.4467 91.9376 44.4467C91.9742 44.495 91.9726 44.5128 91.9581 44.5367L91.1726 45.7939C91.1553 45.8206 91.137 45.825 91.107 45.8083C91.0831 45.8144 91.0592 45.8539 91.0592 45.8539C91.0653 45.8778 91.4387 46.11 91.4387 46.11L91.4542 46.12L91.4864 46.0683C91.4553 46.0333 91.4453 46.0133 91.4453 45.9983C91.4453 45.9883 91.4498 45.98 91.4553 45.9717C91.4553 45.9717 91.9948 45.1083 92.0676 44.9911C92.0642 45.0017 92.0631 45.0122 92.0609 45.0228C92.0053 45.2111 91.8753 45.8506 91.8753 45.8506L91.7926 46.3195C91.8003 46.3378 91.8414 46.3628 91.8414 46.3628C91.862 46.3622 92.2887 46.0556 92.2887 46.0556C92.2887 46.0556 92.8726 45.6217 92.9731 45.5467L92.9459 45.5906C92.7948 45.8011 92.3414 46.5256 92.3414 46.5256C92.3281 46.5467 92.3142 46.5594 92.2653 46.5333C92.2426 46.5394 92.2176 46.5767 92.2176 46.5767C92.2237 46.6011 92.6076 46.8417 92.6076 46.8417C92.632 46.8356 92.6564 46.7972 92.6564 46.7972C92.6048 46.7394 92.612 46.72 92.6242 46.7011ZM94.6503 47.7439C94.592 47.7883 94.5764 47.7889 94.5159 47.7489C94.5159 47.7489 93.9226 47.36 93.9209 47.3594C93.9409 47.3589 94.6381 46.2972 94.6381 46.2972C94.662 46.2611 94.6737 46.2511 94.7531 46.2928C94.7759 46.2867 94.8003 46.2489 94.8003 46.2489C94.7959 46.2245 94.3531 45.9345 94.3531 45.9345C94.3287 45.9395 94.3031 45.9767 94.3031 45.9767C94.367 46.0506 94.3614 46.0656 94.3387 46.1011L93.5481 47.3067C93.5259 47.3417 93.5126 47.3511 93.4503 47.32C93.4281 47.3261 93.402 47.3639 93.402 47.3639C93.4076 47.3889 94.3487 48.005 94.3487 48.005C94.412 48.0461 94.4137 48.0617 94.4014 48.0922C94.4081 48.1133 94.4459 48.1389 94.4459 48.1389C94.4709 48.1333 94.6942 47.7928 94.6942 47.7928C94.6881 47.7689 94.6503 47.7439 94.6503 47.7439ZM95.8159 46.9306C95.8703 46.9811 95.8653 46.9906 95.8631 46.9956L95.7981 47.0733C95.7937 47.0783 94.777 48.1295 94.777 48.1295C94.7526 48.1533 94.727 48.1767 94.702 48.1672C94.6792 48.1761 94.6603 48.2167 94.6603 48.2167C94.6692 48.2406 95.0553 48.4222 95.0553 48.4222L95.072 48.4295L95.0976 48.3722C95.0687 48.3428 95.0559 48.3239 95.0559 48.3061C95.0559 48.3 95.0576 48.2933 95.0603 48.2872C95.0603 48.2867 95.0926 48.2456 95.0926 48.2456C95.0937 48.2445 95.287 48.0428 95.2887 48.0411C95.2887 48.0539 95.7926 48.2895 95.7953 48.2906C95.7842 48.2917 95.7526 48.5878 95.7526 48.5878C95.7526 48.5894 95.7437 48.6372 95.7437 48.6372C95.7414 48.6428 95.7392 48.6472 95.6959 48.635C95.6759 48.6444 95.6559 48.6845 95.6559 48.6845C95.6642 48.7083 96.0637 48.8961 96.0637 48.8961C96.087 48.8878 96.1059 48.8467 96.1059 48.8467C96.0781 48.81 96.072 48.8017 96.0787 48.7433C96.0792 48.7428 96.2314 47.3272 96.2314 47.3272L96.2526 47.1956C96.2576 47.185 96.267 47.165 96.3148 47.1839C96.337 47.1756 96.3564 47.1328 96.3564 47.1328C96.3481 47.1089 95.8587 46.8811 95.8587 46.8811C95.8353 46.8894 95.8159 46.9306 95.8159 46.9306ZM95.9226 47.3733C95.8881 47.5011 95.8187 48.0117 95.8164 48.0322L95.8031 48.0261C95.7681 47.9928 95.5242 47.875 95.4714 47.8506C95.4992 47.82 95.8759 47.4078 95.9253 47.3545L95.9226 47.3733ZM97.7342 47.6128C97.7964 47.6556 97.8009 47.6711 97.7903 47.7122L97.5603 48.6428C97.5081 48.8556 97.3553 48.9472 97.1437 48.895C97.0381 48.8695 96.9626 48.8189 96.9187 48.7467C96.8753 48.675 96.8664 48.5817 96.892 48.4767L97.1214 47.5467C97.132 47.505 97.1426 47.4928 97.1987 47.4978C97.217 47.4845 97.2281 47.44 97.2281 47.44C97.2153 47.4189 96.7364 47.3011 96.7364 47.3011L96.7192 47.2967L96.7148 47.3144L96.7048 47.3589C96.7814 47.4045 96.7826 47.4211 96.772 47.4611L96.5437 48.3845C96.4398 48.8095 96.6126 49.08 97.0559 49.1883C97.282 49.2445 97.4681 49.23 97.6081 49.145C97.7414 49.065 97.8342 48.9206 97.8842 48.7161L98.1126 47.7928C98.1231 47.7511 98.132 47.7383 98.1959 47.7445C98.2148 47.7311 98.2253 47.6872 98.2253 47.6872C98.2126 47.6661 97.767 47.5556 97.767 47.5556C97.7464 47.5689 97.7342 47.6128 97.7342 47.6128ZM99.0331 47.6861L98.3231 47.6833C98.3053 47.7006 98.3042 47.7461 98.3042 47.7461C98.3742 47.7717 98.3826 47.7861 98.3809 47.8306C98.3809 47.8311 98.3759 49.2728 98.3759 49.2728C98.3759 49.3167 98.3676 49.3295 98.3109 49.3395L98.2964 49.4006C98.3137 49.4178 98.9614 49.4206 98.9614 49.4206C99.2442 49.4222 99.4614 49.3494 99.6076 49.205C99.7537 49.0594 99.8287 48.8417 99.8298 48.5572C99.8314 48.0144 99.5331 47.6883 99.0331 47.6861ZM99.4703 48.5561C99.4681 48.9806 99.3314 49.1161 98.9042 49.1139C98.9042 49.1139 98.7187 49.1133 98.717 49.1133V49.1128C98.7337 49.1083 98.7392 48.0845 98.7398 47.9906C98.7692 47.9911 98.9092 47.9928 98.9092 47.9928C99.3337 47.9944 99.4703 48.13 99.4703 48.5483V48.5561ZM101.53 48.6817C101.509 48.6689 101.465 48.6811 101.465 48.6811C101.454 48.7317 101.448 48.7461 101.373 48.765C101.373 48.765 100.656 48.95 100.654 48.9506C100.654 48.9506 100.656 48.9483 100.656 48.945C100.656 48.895 100.573 48.5761 100.561 48.5295C100.592 48.5211 100.946 48.43 100.946 48.43C101.02 48.4111 101.033 48.4183 101.045 48.4433C101.064 48.4522 101.109 48.4406 101.109 48.4406C101.121 48.4194 101.026 48.0495 101.026 48.0495C101.004 48.0367 100.96 48.0489 100.96 48.0489C100.949 48.0995 100.943 48.1128 100.869 48.1317C100.869 48.1317 100.471 48.2339 100.468 48.235C100.469 48.2345 100.47 48.2328 100.47 48.2289C100.47 48.1767 100.384 47.8445 100.384 47.8422C100.389 47.8583 101.049 47.6872 101.049 47.6872C101.123 47.6689 101.134 47.6767 101.148 47.7017C101.168 47.7106 101.211 47.6983 101.211 47.6983C101.224 47.6772 101.127 47.3072 101.127 47.3072C101.105 47.2944 101.062 47.3067 101.062 47.3067C101.051 47.3567 101.045 47.3717 100.972 47.3906L99.8748 47.675C99.862 47.6961 99.8731 47.74 99.8731 47.74C99.9831 47.7395 99.9909 47.7544 100.001 47.7928L100.363 49.1911C100.373 49.2322 100.373 49.2472 100.295 49.2778C100.284 49.2978 100.295 49.3428 100.295 49.3428C100.316 49.3556 101.451 49.0611 101.451 49.0611C101.525 49.0428 101.537 49.0511 101.552 49.0806C101.571 49.09 101.616 49.0783 101.616 49.0783C101.627 49.0572 101.53 48.6817 101.53 48.6817ZM81.642 45.4945L80.6042 44.5189C80.5826 44.4978 80.512 44.425 80.512 44.425C80.5042 44.4095 80.4992 44.3917 80.5392 44.3672C80.5459 44.3445 80.5264 44.3039 80.5264 44.3039C80.502 44.2961 80.0226 44.5494 80.0226 44.5494C80.0148 44.5722 80.0359 44.6128 80.0359 44.6128C80.1098 44.6 80.1148 44.61 80.1164 44.6133C80.117 44.6145 80.1398 44.7128 80.1398 44.7128C80.1414 44.7189 80.3692 46.1661 80.3692 46.1661C80.3737 46.2011 80.3759 46.2339 80.3531 46.2478C80.347 46.2706 80.3676 46.3122 80.3676 46.3122C80.392 46.3195 80.7703 46.12 80.7703 46.12L80.7859 46.1122L80.7564 46.0567C80.7003 46.0639 80.6776 46.0594 80.6642 46.0361C80.6642 46.035 80.6514 45.985 80.6514 45.985C80.6514 45.9833 80.6048 45.7044 80.6042 45.7039C80.6103 45.7139 81.1059 45.4533 81.1114 45.4511C81.112 45.4656 81.3231 45.6628 81.3231 45.6628C81.3237 45.6633 81.3553 45.7 81.3553 45.7C81.3559 45.7022 81.3576 45.7045 81.3576 45.7056C81.3576 45.7111 81.352 45.7189 81.327 45.7361C81.3264 45.7389 81.3253 45.7417 81.3253 45.7445C81.3253 45.7672 81.342 45.7989 81.342 45.7989C81.3664 45.8061 81.7559 45.6011 81.7559 45.6011C81.7631 45.5772 81.7414 45.5367 81.7414 45.5367C81.6959 45.5356 81.6859 45.5361 81.642 45.4945ZM80.9031 45.2833C80.857 45.2906 80.6164 45.4139 80.5637 45.4417C80.5559 45.4006 80.4514 44.8367 80.4409 44.7795L80.4559 44.7939C80.5331 44.8944 80.9014 45.2611 80.9164 45.2761L80.9031 45.2833Z" fill="#094183"/>
<path d="M77.2741 30.4961L76.6391 30.2683L76.9691 30.8861L76.3691 31.31L77.0458 31.4616L76.9947 32.1478L77.5541 31.6822L78.0708 32.1478L78.0364 31.4283C78.0369 31.4283 78.7475 31.3683 78.7475 31.3683L78.1558 30.9122L78.4936 30.3022L77.7991 30.5055L77.538 29.845L77.2741 30.4961Z" fill="white"/>
<path d="M81.3451 31.5456L80.7101 31.3345L81.0396 31.9434L80.4385 32.3589L81.1335 32.5106L81.0651 33.2056L81.6146 32.7384L82.1479 33.2056L82.1051 32.4862L82.8174 32.4256L82.234 31.9778L82.5635 31.3595L81.869 31.5451L81.6151 30.9028L81.3451 31.5456Z" fill="white"/>
<path d="M76.7836 35.05L77.0358 35.7012L77.7313 35.5067L77.3997 36.1084L77.9852 36.565L77.2741 36.6245L77.308 37.3523L76.7919 36.8778L76.233 37.3523L76.2913 36.6584L75.6152 36.5056L76.208 36.0917L75.8858 35.4906L76.5197 35.7012L76.7836 35.05Z" fill="white"/>
<path d="M81.5985 35.3545L81.8023 35.9556H82.4279L81.9207 36.345L82.1151 36.9634L81.5985 36.5912L81.0835 36.9634L81.2679 36.345L80.7612 35.9645L81.3707 35.9556L81.5985 35.3545Z" fill="white"/>
<path d="M81.3197 40.2215L80.6842 40.0021L81.0064 40.611L80.4053 41.0254L81.0908 41.1782L81.0403 41.8726L81.5908 41.3976L82.1158 41.8804L82.0653 41.1693L82.7847 41.0843L82.2008 40.6276L82.5314 40.0265L81.8453 40.2215L81.5914 39.5615L81.3197 40.2215Z" fill="white"/>
<path d="M80.0977 27.3333C79.8949 27.3316 79.5755 27.6171 79.4722 27.726C79.8866 27.5827 80.0422 27.6605 80.1372 27.536C80.1427 27.4705 80.1566 27.3727 80.0977 27.3333Z" fill="white"/>
<path d="M80.3564 27.4443C80.307 27.7071 80.4864 27.9638 80.6931 28.0877L80.7309 27.8888C80.7014 27.7021 80.5048 27.5299 80.3564 27.4443Z" fill="white"/>
<path d="M80.242 27.9417C80.2198 28.015 80.1548 28.1089 80.1731 28.19C80.202 28.3367 80.4337 28.3922 80.5048 28.6105C80.6304 28.4089 80.4631 28 80.242 27.9417Z" fill="white"/>
<path d="M80.0774 28.375L79.9757 28.5539C79.8068 28.8117 80.1168 29.0144 80.1135 29.1778C80.2074 29.0772 80.3124 28.8089 80.254 28.6233C80.2279 28.5256 80.1685 28.4383 80.0774 28.375Z" fill="white"/>
<path d="M79.4535 28.4143C79.3418 28.4582 79.0691 28.6371 78.9302 28.6176C78.9985 28.7043 79.2991 28.6865 79.4063 28.6999C79.5935 28.711 79.7207 28.4987 79.8146 28.3499L79.4535 28.4143Z" fill="white"/>
<path d="M79.7495 28.866C79.3806 28.9565 79.614 29.3899 79.3018 29.6404C79.5162 29.6015 79.6095 29.5987 79.7445 29.3421C79.8056 29.2182 79.834 28.9926 79.7495 28.866Z" fill="white"/>
<path d="M76.8764 28.0455C76.8058 28.3271 76.8714 28.3905 77.0053 28.5638C76.9403 28.1677 77.4053 28.0027 77.1931 27.6882C77.0442 27.7266 76.9142 27.9121 76.8764 28.0455Z" fill="white"/>
<path d="M78.4424 29.1367C78.4563 29.2244 78.8074 29.2033 78.9696 29.1322C79.0513 29.1144 79.3257 29.0089 79.3546 28.91C78.7185 28.765 78.9452 29.0011 78.4424 29.1367Z" fill="white"/>
<path d="M79.1924 28.2162C79.2213 28.2995 79.5635 28.2173 79.7118 28.1184C79.7874 28.0856 80.0379 27.9339 80.0502 27.8317C79.3979 27.8017 79.6618 27.9934 79.1924 28.2162Z" fill="white"/>
<path d="M77.0821 27.3702C76.9894 27.3274 76.7288 27.4602 76.6616 27.5085C76.4999 27.5824 76.2494 27.8307 76.306 27.8996C76.7416 27.6152 76.7666 27.9407 77.0821 27.3702Z" fill="white"/>
<path d="M77.9575 26.2593C78.1781 26.3209 78.2781 26.452 78.4247 26.4732C78.597 26.4804 78.6581 26.4293 78.6909 26.3665C78.6214 26.1487 78.182 26.1715 77.9575 26.2593Z" fill="white"/>
<path d="M78.9769 27.2364C78.9597 27.007 79.0502 26.8698 79.0197 26.7242C78.9685 26.5592 78.9008 26.5187 78.8302 26.5098C78.6491 26.6492 78.818 27.0537 78.9769 27.2364Z" fill="white"/>
<path d="M77.9266 26.4453C77.7427 26.3803 77.4238 26.5125 77.3193 26.6025C77.5554 26.5792 77.7043 26.842 77.9855 26.727L78.166 26.632C78.1077 26.5387 78.0232 26.4764 77.9266 26.4453Z" fill="white"/>
<path d="M78.2898 26.907C78.2309 27.092 78.3725 27.4076 78.467 27.5092C78.4364 27.2731 78.6942 27.117 78.5703 26.8387L78.4681 26.6609C78.3775 26.7226 78.317 26.8103 78.2898 26.907Z" fill="white"/>
<path d="M79.211 29.3242L79.0066 29.3359C78.7055 29.3792 78.7116 29.6809 78.4966 29.782C78.6321 29.8076 78.9744 29.757 79.0988 29.6076C79.1671 29.5326 79.2083 29.4342 79.211 29.3242Z" fill="white"/>
<path d="M77.1426 26.8393C76.8681 26.9376 76.8531 27.0288 76.7837 27.236C77.0765 26.9615 77.4726 27.2526 77.6137 26.9015C77.4998 26.7993 77.2731 26.7965 77.1426 26.8393Z" fill="white"/>
<path d="M77.7787 27.3737C77.8031 27.6637 77.887 27.7026 78.0692 27.822C77.8809 27.4693 78.2648 27.1604 77.9603 26.9348C77.8315 27.0181 77.7698 27.237 77.7787 27.3737Z" fill="white"/>
<path d="M77.4398 27.347C77.4248 27.7437 77.4315 28.0481 77.601 28.2376C77.7087 27.9165 77.7143 27.7715 77.6276 27.577C77.5965 27.4915 77.5198 27.3426 77.4398 27.347Z" fill="white"/>
</svg>
