<svg fill="none" height="86" viewBox="0 0 172 86" width="172" xmlns="http://www.w3.org/2000/svg"><path d="m61.4297 32.0034c-2.4512 0-3.6045.2552-4.8831.7477l-.2276.083 1.3863 2.4715.1655-.0623c.9429-.3875 1.9841-.5192 3.9313-.5192h2.0691c3.0258 0 4.7589 1.5121 4.7589 4.1744v8.1827c0 2.6603-1.7331 4.1744-4.7589 4.1744h-3.3726c-3.1013 0-4.6141-1.2476-4.6141-3.8421 0-2.574 1.5128-3.8214 4.6141-3.8214h4.6968v-2.7414h-4.8417c-4.6029 0-7.2417 2.4033-7.2417 6.5835 0 4.042 2.7752 6.5628 7.2417 6.5628h3.6416c5.083 0 7.4073-3.4053 7.4073-6.5628v-8.8888c0-3.1568-2.3243-6.542-7.4073-6.542zm20.4839 0c-5.0837 0-7.4073 3.3852-7.4073 6.542v8.8888c0 3.1575 2.3236 6.5628 7.4073 6.5628h3.145c2.5895 0 4.2866-.3797 5.6486-1.2669l.1655-.1246-1.5725-2.3053-.1655.1039c-1.0164.618-2.3025.8515-4.4279.8515h-2.6691c-3.0689 0-4.7589-1.4749-4.7589-4.1744v-8.1827c0-2.7009 1.6907-4.1744 4.7589-4.1744h2.6691c2.1227 0 3.4075.2535 4.4279.8722l.1655.1039 1.5725-2.3261-.1655-.1038c-1.362-.8866-3.0565-1.2669-5.6486-1.2669zm18.1454 0c-5.0998 0-7.4276 3.3852-7.4276 6.542v8.8888c0 3.1575 2.3237 6.5628 7.4076 6.5628h3.641c5.085 0 7.387-3.4053 7.387-6.5628v-8.8888c0-3.1561-2.325-6.542-7.428-6.542zm21.498.0416c-4.386 0-7.221 2.4991-7.221 6.355v15.4931h2.773v-15.14c0-2.6789 1.491-3.9875 4.572-3.9875 2.923 0 4.532 1.3358 4.532 3.7383v15.3892h2.772v-15.3892c0-2.4025 1.609-3.7383 4.531-3.7383 3.083 0 4.594 1.3086 4.594 3.9875v15.14h2.752v-15.4931c0-3.8559-2.837-6.355-7.221-6.355-2.927 0-4.694.7262-6.042 2.4714-1.346-1.7452-3.119-2.4714-6.042-2.4714zm-97.557.1038v15.4931c0 3.8553 2.8346 6.3551 7.2211 6.3551 2.9232 0 4.6956-.7242 6.0417-2.4714 1.3467 1.7472 3.1179 2.4714 6.0417 2.4714 4.3845 0 7.2211-2.4998 7.2211-6.3551v-15.4931h-2.7519v15.14c0 2.6777-1.5119 3.9668-4.5933 3.9668-2.9219 0-4.5313-1.3171-4.5313-3.7175v-15.3893h-2.7519v15.3893c0 2.3998-1.6087 3.7175-4.5313 3.7175-3.0814 0-4.5933-1.2891-4.5933-3.9668v-15.14zm121.89 0c-.582 0-1.08.2103-1.49.623-.413.4147-.621.9099-.621 1.4954 0 .5908.213 1.1013.621 1.516.409.4154.904.6231 1.49.6231.584 0 1.077-.2077 1.489-.6231.414-.4173.621-.9279.621-1.516 0-.5869-.207-1.082-.621-1.4954-.412-.4127-.905-.623-1.489-.623zm0 .2908c.503 0 .927.1804 1.282.5399.353.3569.538.802.538 1.3084 0 .5084-.185.9288-.538 1.2877-.352.3588-.777.5399-1.282.5399-.504 0-.931-.1811-1.283-.5399-.351-.3589-.538-.7793-.538-1.2877 0-.5057.185-.9515.538-1.3084.355-.3595.782-.5399 1.283-.5399zm-.849.6645v2.3261h.393v-.9138h.331c.219 0 .369.0339.456.083.145.0864.207.2494.206.5193v.1869l.021.083c.003.0107-.002.0128 0 .0208.003.008-.003.0121 0 .0208h.393l-.02-.0208c-.011-.0206-.017-.0621-.021-.1246-.005-.0611 0-.1117 0-.1661v-.187c0-.1183-.039-.2294-.124-.353-.084-.1243-.212-.1999-.393-.2285.145-.0232.253-.0526.331-.1038.152-.099.227-.2697.227-.4777 0-.2951-.133-.4818-.372-.5815-.134-.0565-.333-.0831-.621-.0831zm.393.27h.352c.227 0 .393.044.497.1039.103.0565.165.1634.165.3323 0 .1794-.086.3093-.248.3738-.086.0339-.22.0415-.393.0415h-.373zm-45.271 1.35h3.372c3.026 0 4.759 1.5121 4.759 4.1744v8.1827c0 2.6603-1.733 4.1744-4.759 4.1744h-3.372c-3.0703 0-4.759-1.4749-4.759-4.1744v-8.1827c0-2.6624 1.7337-4.1744 4.759-4.1744z" fill="#000"/></svg>