<svg fill="none" height="86" viewBox="0 0 172 86" width="172" xmlns="http://www.w3.org/2000/svg" xmlns:xlink="http://www.w3.org/1999/xlink"><clipPath id="a"><path d="m46 2h80v82h-80z"/></clipPath><g clip-path="url(#a)" fill="#d0671c"><path d="m126 84h-48.9544l-30.1598-32.6559v-10.4939h2.9782v9.3315l28.4862 30.8433h44.6718v-44.6953l-28.7014-31.35553h-44.4586v8.25423h-2.9782v-11.22892h48.749l30.3672 33.17502z"/><path d="m53.8019 26.1533h1.2806l2.8743-8.6634h-1.8386l-1.6976 5.1107-1.8027-5.1107h-1.279l-1.8029 5.1107-1.6975-5.1107h-1.8385l2.8743 8.6634h1.2805l1.8177-5.1899z"/><path d="m61.7737 22.6416h-1.8886l.9442-2.1942zm.7074 1.6327.801 1.879h1.9052l-3.7167-8.6634h-1.2706l-3.7166 8.6634h1.9055l.8007-1.879z"/><path d="m68.8736 24.5201h-1.124v-5.3969h1.124c.9258 0 1.6133.2983 2.102.9118.3865.4823.5992 1.1168.5992 1.7865 0 .6695-.2127 1.3044-.5992 1.7872-.4891.613-1.1767.9114-2.102.9114zm2.7952-6.2122c-.7579-.5579-1.7038-.818-2.9772-.818h-2.759v8.6634h2.759c1.2729 0 2.2192-.26 2.9776-.8178 1.0788-.8019 1.7225-2.1153 1.7225-3.514 0-1.3986-.6437-2.7118-1.7229-3.5136z"/><path d="m79.9432 24.5201h-3.5795v-2.1851h2.6086v-1.6328h-2.6086v-1.579h3.4583v-1.6333h-5.2751v8.6634h5.3963z"/><path d="m46.8838 36.3723h1.8168v-8.6625h-1.8168z"/><path d="m56.3476 33.0844-4.5748-5.3433-.0267-.0313h-1.2832v8.6625h1.8166v-5.3742l4.575 5.343.0268.0312h1.2831v-8.6625h-1.8168z"/><path d="m62.9383 32.0082c-.2548-.1152-.5272-.2179-.791-.3171-1.0574-.3992-2.0564-.7757-2.0564-1.9162 0-1.3042 1.1956-1.7901 1.949-1.7901.7302 0 1.3493.2604 1.8405.7729l.0656.0683.2807-.3023-.0608-.0603c-.5811-.5806-1.2962-.8753-2.126-.8753-.9163 0-2.3704.5939-2.3704 2.1868 0 1.3971 1.1897 1.852 2.34 2.2916.2673.1023.5433.2074.7928.3217.9216.4383 1.3326.9966 1.3326 1.8103 0 1.2458-1.0357 1.8984-2.0587 1.8984-1.0484 0-1.8682-.4513-2.436-1.3405l-.0518-.0813-.3404.2553.0493.0706c.7183 1.0322 1.5718 1.4927 2.7669 1.4927 1.4439 0 2.4921-.9657 2.4921-2.2952 0-1.3305-.9242-1.8878-1.618-2.1903"/><path d="m65.1045 28.1063h2.6692v8.266h.4213v-8.266h2.6695v-.3965h-5.76z"/><path d="m72.0205 36.3723h.4212v-8.6625h-.4212z"/><path d="m73.5977 28.1063h2.6693v8.266h.4215v-8.266h2.6692v-.3965h-5.76z"/><path d="m86.7014 33.0348c0 .6827-.1056 1.1628-.353 1.6047-.5038.8991-1.4967 1.4574-2.5914 1.4574-1.0945 0-2.0875-.5583-2.5911-1.4574-.2475-.4419-.3529-.922-.3529-1.6047v-5.3251h-.4214v5.3009c0 .7608.1271 1.3236.4119 1.8259.5812 1.0218 1.7129 1.6572 2.9535 1.6572 1.2409 0 2.3726-.6354 2.9538-1.6572.2848-.5015.4116-1.0651.4116-1.8259v-5.3009h-.421z"/><path d="m88.1572 28.1063h2.6694v8.266h.4209v-8.266h2.6696v-.3965h-5.7599z"/><path d="m95.4946 31.7425h3.2762v-.3965h-3.2762v-3.2397h4.126v-.3965h-4.5474v8.6625h4.6684v-.3966h-4.247z"/></g></svg>