<svg fill="none" height="86" viewBox="0 0 172 86" width="172" xmlns="http://www.w3.org/2000/svg"><g clip-rule="evenodd" fill-rule="evenodd"><path d="m86.4987 8.00046c-19.6077 0-35.4987 15.89464-35.4987 35.49974 0 19.6035 15.891 35.4998 35.4987 35.4998 19.6023 0 35.5013-15.8963 35.5013-35.4998 0-19.6051-15.899-35.49974-35.5013-35.49974z" fill="#43bfee"/><path d="m106.222 48.9459c-3.081 0-5.587-2.5269-5.587-5.6326 0-3.1093 2.506-5.6391 5.587-5.6391 3.077 0 5.58 2.5298 5.58 5.6391 0 3.1057-2.503 5.6326-5.58 5.6326zm0-13.6718c-4.395 0-7.9695 3.6064-7.9695 8.0392 0 4.4316 3.5745 8.0372 7.9695 8.0372 4.392 0 7.965-3.6056 7.965-8.0372 0-4.4328-3.573-8.0392-7.965-8.0392zm-31.7716 14.1617c.2178.2221.338.5133.338.8208 0 .6437-.5202 1.1674-1.1592 1.1674-.3105 0-.6072-.1304-.8356-.3672l-5.9552-6.002-5.9811 6.0302c-.2235.2171-.5128.336-.8155.336-.6359 0-1.1531-.5225-1.1531-1.1644 0-.3181.1266-.6153.3565-.8368l5.9585-6.0242-5.9675-6.0166c-.2241-.225-.3475-.5208-.3475-.8325 0-.6421.5172-1.1646 1.1531-1.1646.3074 0 .5967.1195.815.3364l5.9874 6.0174 5.9637-6.0062c.2201-.2241.5119-.3476.8213-.3476.639 0 1.1592.5225 1.1592 1.1646 0 .3111-.1204.6013-.3384.8173l-5.9633 6.0366zm23.1924-11.6494c-.052 0-.2567.0014-.4473.0244-2.2994.2869-2.5279 1.4063-2.5279 4.0841v8.2652c0 .6406-.5166 1.1616-1.1512 1.1616-.6308 0-1.1471-.5208-1.1513-1.1611l-.0038-13.4393c.004-.6493.5105-1.1577 1.1532-1.1577.4986 0 .9407.3309 1.0919.8016.7895-.5814 1.7268-.8879 2.7181-.8879l.3266.0048c.6388 0 1.1599.5232 1.1599 1.1664 0 .6348-.4913 1.1132-1.1682 1.1379zm10.6092 5.5269c0 1.1295-.911 2.0482-2.03 2.0482-1.122 0-2.035-.9187-2.035-2.0482 0-1.129.913-2.0477 2.035-2.0477 1.119 0 2.03.9187 2.03 2.0477zm-31.2303-1.3015c.6372-2.5218 2.8828-4.2819 5.463-4.2819 2.5937 0 4.8287 1.7557 5.4686 4.2819zm12.9174 1.5327c.3659-.4549.5034-1.05.3866-1.6773-.4756-2.273-1.6991-4.0939-3.5379-5.2655-1.2631-.8104-2.737-1.2385-4.2626-1.2385-1.6834 0-3.2861.5112-4.635 1.4786-2.1083 1.5131-3.3668 3.9846-3.3668 6.612 0 .6595.0808 1.3142.24 1.9458.8102 3.1992 3.5353 5.6189 6.7811 6.021.3139.0378.6282.0572.9339.0572.6503 0 1.2829-.0836 1.9331-.2543.8454-.2052 1.6507-.5507 2.3945-1.0266.7028-.4596 1.3498-1.0786 2.0304-1.9422l.0446-.0467c.2266-.2853.332-.6522.2889-1.0063-.0386-.3169-.1888-.5906-.4228-.7701-.2219-.1725-.4861-.2676-.7439-.2676-.2514 0-.6206.0919-.9545.5311l-.0262.0351c-.1102.1485-.2244.3019-.3556.4542-.4498.5099-.9667.9299-1.5354 1.2482-.8144.4381-1.6941.6635-2.6128.6703-2.8863-.0319-4.6538-1.9706-5.3443-3.7711-.1086-.3241-.1861-.62-.2358-.8944-.0009-.0279-.0028-.057-.0046-.0856l11.1745-.0021c.776-.0166 1.4264-.3026 1.8306-.8052z" fill="#fff"/></g></svg>