<svg width="172" height="86" viewBox="0 0 172 86" fill="none" xmlns="http://www.w3.org/2000/svg">
<g clip-path="url(#clip0_2572_7143)">
<path fill-rule="evenodd" clip-rule="evenodd" d="M83.0749 14.9568V49.9806H54.0898L83.0749 14.9568Z" fill="#03363D"/>
<mask id="mask0_2572_7143" style="mask-type:alpha" maskUnits="userSpaceOnUse" x="54" y="2" width="30" height="15">
<path d="M54.0898 2.38501H83.0749V16.891H54.0898V2.38501Z" fill="white"/>
</mask>
<g mask="url(#mask0_2572_7143)">
<path fill-rule="evenodd" clip-rule="evenodd" d="M83.0749 2.38452C83.0749 10.3965 76.5868 16.8908 68.5824 16.8908C60.578 16.8908 54.0898 10.3965 54.0898 2.38452H83.0749Z" fill="#03363D"/>
</g>
<path fill-rule="evenodd" clip-rule="evenodd" d="M87.8516 49.9809C87.8516 41.9689 94.3397 35.4746 102.344 35.4746C110.348 35.4746 116.834 41.9689 116.834 49.9809H87.8516Z" fill="#03363D"/>
<mask id="mask1_2572_7143" style="mask-type:alpha" maskUnits="userSpaceOnUse" x="87" y="2" width="30" height="36">
<path d="M87.8516 2.38501H116.834V37.4103H87.8516V2.38501Z" fill="white"/>
</mask>
<g mask="url(#mask1_2572_7143)">
<path fill-rule="evenodd" clip-rule="evenodd" d="M87.8516 37.4101V2.3833H116.834L87.8516 37.4101Z" fill="#03363D"/>
</g>
<path fill-rule="evenodd" clip-rule="evenodd" d="M107.517 74.0517C107.21 72.0748 106.031 70.6197 103.671 70.6197C101.479 70.6197 99.9597 71.8661 99.5545 74.0517H107.517ZM104.041 79.9467C105.897 79.9467 107.246 79.1834 108.056 78.3842L110.049 80.5341C108.73 81.8878 106.91 82.8927 104.077 82.8927C99.2179 82.8927 96.0781 79.6694 96.0781 75.2981C96.0781 70.9656 99.3877 67.7065 103.636 67.7065C108.459 67.7065 111.193 71.3801 110.958 76.4789H99.5545C99.9597 78.593 101.443 79.9467 104.041 79.9467Z" fill="#03363D"/>
<path fill-rule="evenodd" clip-rule="evenodd" d="M29.1631 79.7868L37.939 70.8624H29.3657V68.0625H42.0083V70.919L33.2293 79.8464H42.1244V82.6433H29.1631V79.7868Z" fill="#03363D"/>
<path fill-rule="evenodd" clip-rule="evenodd" d="M55.4557 74.0517C55.1489 72.0748 53.9692 70.6197 51.6069 70.6197C49.4144 70.6197 47.8982 71.8661 47.493 74.0517H55.4557ZM51.9793 79.9467C53.8352 79.9467 55.1846 79.1834 55.9949 78.3842L57.9848 80.5341C56.6681 81.8878 54.848 82.8927 52.015 82.8927C47.1534 82.8927 44.0166 79.6694 44.0166 75.2981C44.0166 70.9656 47.3262 67.7065 51.5742 67.7065C56.3971 67.7065 59.1317 71.3801 58.8934 76.4789H47.493C47.8982 78.593 49.3817 79.9467 51.9793 79.9467Z" fill="#03363D"/>
<path fill-rule="evenodd" clip-rule="evenodd" d="M90.1934 75.2792C90.1934 72.6851 88.2332 70.5561 85.5701 70.5561C82.9665 70.5561 80.9468 72.6254 80.9468 75.2792C80.9468 77.933 82.9665 80.0351 85.5701 80.0351C88.2332 80.0351 90.1934 77.9031 90.1934 75.2792ZM77.8457 75.309C77.8457 70.6425 81.3251 67.7234 85.162 67.7234C87.0923 67.7234 88.9363 68.5702 90.0176 69.912V61.3066H93.1187V82.6024H90.0176V80.5867C88.9065 82.018 87.0625 82.8916 85.1322 82.8916C81.4174 82.8916 77.8457 79.9456 77.8457 75.309Z" fill="#03363D"/>
<mask id="mask2_2572_7143" style="mask-type:alpha" maskUnits="userSpaceOnUse" x="112" y="67" width="14" height="16">
<path d="M112.978 67.6975H125.295V82.8926H112.978V67.6975Z" fill="white"/>
</mask>
<g mask="url(#mask2_2572_7143)">
<path fill-rule="evenodd" clip-rule="evenodd" d="M112.978 79.5086L115.784 78.0505C116.576 79.3923 117.863 80.1795 119.531 80.1795C121.286 80.1795 122.194 79.276 122.194 78.2563C122.194 77.0874 120.496 76.825 118.652 76.4463C116.165 75.9215 113.591 75.1045 113.591 72.1019C113.591 69.797 115.784 67.668 119.239 67.6978C121.959 67.6978 123.976 68.7742 125.12 70.5245L122.513 71.9558C121.843 70.933 120.702 70.292 119.239 70.292C117.571 70.292 116.722 71.109 116.722 72.0423C116.722 73.0918 118.069 73.384 120.175 73.8492C122.576 74.374 125.295 75.1612 125.295 78.1966C125.295 80.2093 123.541 82.9227 119.382 82.8929C116.341 82.8929 114.205 81.6674 112.978 79.5086Z" fill="#03363D"/>
</g>
<path fill-rule="evenodd" clip-rule="evenodd" d="M133.717 76.125L131.259 78.8086V82.6014H128.158V61.3086H131.259V75.2513L137.843 68.0176H141.617L135.909 74.2584L141.763 82.6014H138.251L133.717 76.125Z" fill="#03363D"/>
<path fill-rule="evenodd" clip-rule="evenodd" d="M68.4742 67.7229C64.7893 67.7229 61.7031 70.1143 61.7031 74.08V82.5989H64.8608V74.4766C64.8608 72.0822 66.2341 70.651 68.5755 70.651C70.914 70.651 72.0877 72.0822 72.0877 74.4766V82.5989H75.2483V74.08C75.2483 70.1143 72.1592 67.7229 68.4742 67.7229Z" fill="#03363D"/>
</g>
<defs>
<clipPath id="clip0_2572_7143">
<rect width="172" height="85.7035" fill="white"/>
</clipPath>
</defs>
</svg>
