<svg width="172" height="86" viewBox="0 0 172 86" fill="none" xmlns="http://www.w3.org/2000/svg">
<g clip-path="url(#clip0_3467_7161)">
<mask id="mask0_3467_7161" style="mask-type:luminance" maskUnits="userSpaceOnUse" x="8" y="29" width="28" height="28">
<path d="M35.5997 29.2114H8V56.6831H35.5997V29.2114Z" fill="white"/>
</mask>
<g mask="url(#mask0_3467_7161)">
<path d="M13.095 37.5588L21.6403 32.6456L30.2387 37.5588L33.1048 35.9211L21.6403 29.3701L10.2289 35.9211H10.1758L13.0419 37.5588" fill="black"/>
</g>
<mask id="mask1_3467_7161" style="mask-type:luminance" maskUnits="userSpaceOnUse" x="8" y="29" width="28" height="28">
<path d="M35.5997 29.2114H8V56.6831H35.5997V29.2114Z" fill="white"/>
</mask>
<g mask="url(#mask1_3467_7161)">
<path d="M21.2692 53.1963L12.6708 48.2831V38.4038L9.80469 36.7661V49.9208L21.2692 56.5246V53.2491" fill="black"/>
</g>
<mask id="mask2_3467_7161" style="mask-type:luminance" maskUnits="userSpaceOnUse" x="8" y="29" width="28" height="28">
<path d="M35.5997 29.2114H8V56.6831H35.5997V29.2114Z" fill="white"/>
</mask>
<g mask="url(#mask2_3467_7161)">
<path d="M30.9291 38.4567L30.9822 48.2831L22.3838 53.2491V56.5246L33.7952 49.9208V36.7661L30.9822 38.4038" fill="black"/>
</g>
<mask id="mask3_3467_7161" style="mask-type:luminance" maskUnits="userSpaceOnUse" x="8" y="29" width="28" height="28">
<path d="M35.5997 29.2114H8V56.6831H35.5997V29.2114Z" fill="white"/>
</mask>
<g mask="url(#mask3_3467_7161)">
<path d="M17.5541 44.9547L17.501 40.517L21.3756 38.2981V36.8188H21.4287L16.2803 39.7773V45.6943V45.7472L17.5541 44.9547Z" fill="black"/>
</g>
<mask id="mask4_3467_7161" style="mask-type:luminance" maskUnits="userSpaceOnUse" x="8" y="29" width="28" height="28">
<path d="M35.5997 29.2114H8V56.6831H35.5997V29.2114Z" fill="white"/>
</mask>
<g mask="url(#mask4_3467_7161)">
<path d="M25.5679 45.3774L21.6933 47.5963L17.8188 45.3774L16.5449 46.1171L21.6933 49.0756L26.8417 46.0642V46.1171L25.5679 45.3774Z" fill="black"/>
</g>
<mask id="mask5_3467_7161" style="mask-type:luminance" maskUnits="userSpaceOnUse" x="8" y="29" width="28" height="28">
<path d="M35.5997 29.2114H8V56.6831H35.5997V29.2114Z" fill="white"/>
</mask>
<g mask="url(#mask5_3467_7161)">
<path d="M21.9062 38.2981L25.7808 40.517V44.9547L27.0547 45.6943V39.7773L21.9062 36.8188V38.2981Z" fill="black"/>
</g>
<path d="M57.6793 48.917V50.6604H45.4717V49.0226L55.0254 36.3962H45.8963V34.6528H57.4669V36.2906L47.9132 48.917H57.6793Z" fill="black"/>
<path d="M71.0544 36.3963H62.3499V41.5737H70.3644V43.3171H62.3499V48.9171H71.1606V50.6605H60.333V34.6001H71.0544V36.3963Z" fill="black"/>
<path d="M76.3092 50.6605H74.2393V34.6001H80.2369C84.483 34.6001 86.0753 35.9209 86.0753 39.4605V39.5133C86.0753 42.5246 84.6422 43.951 81.7761 44.3737L86.6591 50.6076H84.3238L79.5469 44.4265H76.2562V50.6605H76.3092ZM80.1838 42.6831C83.0499 42.6831 84.0584 41.8378 84.0584 39.5133V39.4605C84.0584 37.1888 83.103 36.3435 80.2369 36.3435H76.2562V42.6303H80.1838V42.6831Z" fill="black"/>
<path d="M88.5693 42.6304C88.5693 37.2945 90.6924 34.2832 95.7347 34.2832C100.777 34.2832 102.9 37.2945 102.9 42.6304V42.6832C102.9 47.9662 100.777 51.0304 95.7347 51.0304C90.6924 50.9775 88.5693 47.9662 88.5693 42.6304ZM90.5862 42.6304C90.5862 47.0153 92.0724 49.2341 95.7877 49.2341C99.45 49.2341 100.936 47.0153 100.936 42.6832V42.6304C100.936 38.2983 99.45 36.0794 95.7877 36.0794C92.0724 36.0266 90.5862 38.2455 90.5862 42.6304Z" fill="black"/>
<path d="M107.784 42.6304C107.784 47.0153 109.27 49.2341 113.145 49.2341C116.011 49.2341 117.285 48.0191 117.55 45.536H119.567C119.301 49.0757 117.072 51.0304 113.145 51.0304C107.837 51.0304 105.714 48.0191 105.714 42.6832V42.6304C105.714 37.3474 107.837 34.2832 112.985 34.2832C117.019 34.2832 119.142 36.1851 119.355 39.1436H117.338C117.072 37.0832 115.692 36.0266 113.038 36.0266C109.27 36.0266 107.784 38.2455 107.784 42.6304Z" fill="black"/>
<path d="M122.857 44.9548V34.6001H124.874V44.902C124.874 47.9133 126.148 49.1284 128.961 49.1284C131.721 49.1284 133.048 47.9133 133.048 44.902V34.6001H135.065V44.902C135.065 49.0227 133.101 50.9246 128.961 50.9246C124.768 50.9775 122.857 49.0756 122.857 44.9548Z" fill="black"/>
<path d="M138.886 34.6001H144.884C148.599 34.6001 150.404 35.9737 150.404 38.8265V38.8793C150.404 40.8341 149.236 42.1548 147.856 42.3661V42.419C149.608 42.6831 150.775 43.8982 150.775 45.9586V46.0114C150.775 49.3397 148.599 50.6076 144.884 50.6076H138.833V34.6001H138.886ZM140.903 41.5737H145.149C147.166 41.5737 148.387 40.4114 148.387 38.8793V38.8265C148.387 36.9775 147.219 36.2907 144.884 36.2907H140.903V41.5737ZM140.903 48.9171H144.937C147.431 48.9171 148.811 48.0718 148.811 46.0114V45.9586C148.811 44.0039 147.431 43.2642 145.202 43.2642H140.903V48.9171Z" fill="black"/>
<path d="M164.628 36.3963H155.87V41.5737H163.885V43.3171H155.87V48.9171H164.681V50.6605H153.854V34.6001H164.628V36.3963Z" fill="black"/>
</g>
<defs>
<clipPath id="clip0_3467_7161">
<rect width="157" height="28" fill="white" transform="translate(8 29)"/>
</clipPath>
</defs>
</svg>
